<svg width="60.000000" height="60.000000" viewBox="0 0 60 60" fill="none" xmlns="http://www.w3.org/2000/svg" xmlns:xlink="http://www.w3.org/1999/xlink">
	<desc>
			Created with Pixso.
	</desc>
	<defs>
		<clipPath id="clip447_490">
			<rect id="svg" width="60.000000" height="60.000000" fill="white" fill-opacity="0"/>
		</clipPath>
	</defs>
	<g clip-path="url(#clip447_490)">
		<path id="path" d="M19.86 5.87L56.61 19.3C59.06 20.2 59.84 21.87 58.94 24.32L50.11 48.47C49.21 50.92 47.54 51.7 45.09 50.8L8.35 37.37C5.9 36.47 5.12 34.8 6.01 32.35L14.85 8.2C15.74 5.75 17.41 4.97 19.86 5.87Z" fill="#B4CFF4" fill-opacity="1.000000" fill-rule="nonzero"/>
		<path id="path" d="M3 23.58C3 21.41 4.76 19.66 6.92 19.66L46.04 19.66C48.2 19.66 49.95 21.41 49.95 23.57L49.95 49.29C49.95 51.45 48.2 53.2 46.04 53.2L6.92 53.2C6.66 53.2 6.41 53.18 6.15 53.13C5.9 53.08 5.66 53 5.42 52.91C5.18 52.81 4.96 52.69 4.74 52.54C4.53 52.4 4.33 52.24 4.15 52.06C3.97 51.88 3.81 51.68 3.66 51.46C3.52 51.25 3.4 51.03 3.3 50.79C3.2 50.55 3.13 50.31 3.08 50.05C3.03 49.8 3 49.55 3 49.29L3 23.58Z" fill="#D3E7FA" fill-opacity="0.712644" fill-rule="nonzero"/>
		<path id="path" d="M28.41 39.86C28.38 39.91 28.34 39.95 28.3 39.98C28.26 40.02 28.21 40.05 28.16 40.07C28.12 40.1 28.06 40.11 28.01 40.12C27.96 40.14 27.9 40.14 27.85 40.14C27.8 40.14 27.74 40.13 27.69 40.11C27.64 40.1 27.59 40.08 27.54 40.05C27.49 40.02 27.45 39.99 27.41 39.95C27.37 39.92 27.34 39.87 27.31 39.83L21.36 30.59C21.33 30.55 21.29 30.51 21.25 30.47C21.21 30.43 21.17 30.4 21.12 30.37C21.07 30.34 21.02 30.32 20.96 30.31C20.91 30.29 20.85 30.29 20.8 30.29C20.74 30.29 20.69 30.29 20.63 30.31C20.58 30.32 20.53 30.34 20.48 30.37C20.43 30.4 20.39 30.43 20.35 30.47C20.3 30.51 20.27 30.55 20.24 30.59L10 46.47C9.94 46.58 9.9 46.69 9.9 46.81C9.89 46.93 9.92 47.04 9.98 47.15C10.04 47.26 10.12 47.34 10.22 47.4C10.32 47.46 10.44 47.5 10.56 47.5L22.82 47.5C22.83 47.5 22.83 47.51 22.83 47.51C22.83 47.52 22.83 47.53 22.84 47.53L40.82 47.53C40.95 47.53 41.07 47.5 41.17 47.43C41.28 47.37 41.36 47.28 41.42 47.17C41.48 47.05 41.5 46.93 41.49 46.81C41.48 46.68 41.44 46.57 41.36 46.47L33.01 35.01C32.98 34.97 32.95 34.93 32.91 34.9C32.87 34.86 32.82 34.84 32.78 34.81C32.73 34.79 32.68 34.77 32.63 34.76C32.58 34.74 32.53 34.74 32.47 34.74C32.42 34.74 32.37 34.74 32.32 34.76C32.27 34.77 32.22 34.79 32.17 34.81C32.12 34.84 32.08 34.86 32.04 34.9C32 34.93 31.97 34.97 31.94 35.01L28.41 39.86Z" fill="#FFFFFF" fill-opacity="1.000000" fill-rule="nonzero"/>
		<path id="path" d="M35.02 26.95C35.02 27.14 35.04 27.32 35.08 27.49C35.11 27.67 35.17 27.85 35.24 28.02C35.31 28.18 35.39 28.34 35.49 28.5C35.59 28.65 35.71 28.79 35.84 28.92C35.97 29.04 36.11 29.16 36.26 29.26C36.41 29.36 36.57 29.45 36.74 29.52C36.91 29.59 37.08 29.64 37.26 29.68C37.44 29.71 37.62 29.73 37.8 29.73C37.98 29.73 38.16 29.71 38.34 29.68C38.52 29.64 38.69 29.59 38.86 29.52C39.03 29.45 39.19 29.36 39.34 29.26C39.49 29.16 39.63 29.04 39.76 28.92C39.89 28.79 40.01 28.65 40.11 28.5C40.21 28.34 40.29 28.18 40.36 28.02C40.43 27.85 40.49 27.67 40.52 27.49C40.56 27.32 40.57 27.14 40.57 26.95C40.57 26.77 40.56 26.59 40.52 26.41C40.49 26.23 40.43 26.06 40.36 25.89C40.29 25.72 40.21 25.56 40.11 25.41C40.01 25.26 39.89 25.12 39.76 24.99C39.63 24.86 39.49 24.75 39.34 24.65C39.19 24.54 39.03 24.46 38.86 24.39C38.69 24.32 38.52 24.27 38.34 24.23C38.16 24.2 37.98 24.18 37.8 24.18C37.62 24.18 37.44 24.2 37.26 24.23C37.08 24.27 36.91 24.32 36.74 24.39C36.57 24.46 36.41 24.54 36.26 24.65C36.11 24.75 35.97 24.86 35.84 24.99C35.71 25.12 35.59 25.26 35.49 25.41C35.39 25.56 35.31 25.72 35.24 25.89C35.17 26.06 35.11 26.23 35.08 26.41C35.04 26.59 35.02 26.77 35.02 26.95Z" fill="#FFFFFF" fill-opacity="1.000000" fill-rule="nonzero"/>
	</g>
</svg>
