<?xml version="1.0" encoding="UTF-8"?>
<svg width="180px" height="160px" viewBox="0 0 180 160" version="1.1" xmlns="http://www.w3.org/2000/svg" xmlns:xlink="http://www.w3.org/1999/xlink">
    <title>搜索为空</title>
    <defs>
        <rect id="path-1" x="0" y="0" width="144" height="95.965209" rx="4"></rect>
        <filter x="-20.8%" y="-25.0%" width="141.7%" height="162.5%" filterUnits="objectBoundingBox" id="filter-3">
            <feOffset dx="0" dy="6" in="SourceAlpha" result="shadowOffsetOuter1"></feOffset>
            <feGaussianBlur stdDeviation="9" in="shadowOffsetOuter1" result="shadowBlurOuter1"></feGaussianBlur>
            <feColorMatrix values="0 0 0 0 0   0 0 0 0 0.255866708   0 0 0 0 0.722967618  0 0 0 0.16 0" type="matrix" in="shadowBlurOuter1"></feColorMatrix>
        </filter>
        <linearGradient x1="11.1573481%" y1="35.2754255%" x2="68.1582683%" y2="59.5859624%" id="linearGradient-4">
            <stop stop-color="#4190FF" offset="0%"></stop>
            <stop stop-color="#56BAFF" offset="100%"></stop>
        </linearGradient>
        <rect id="path-5" x="35" y="9" width="28" height="16" rx="2"></rect>
        <filter x="-60.7%" y="-81.2%" width="221.4%" height="312.5%" filterUnits="objectBoundingBox" id="filter-6">
            <feOffset dx="0" dy="4" in="SourceAlpha" result="shadowOffsetOuter1"></feOffset>
            <feGaussianBlur stdDeviation="5" in="shadowOffsetOuter1" result="shadowBlurOuter1"></feGaussianBlur>
            <feColorMatrix values="0 0 0 0 0.161089991   0 0 0 0 0.406679237   0 0 0 0 0.78979846  0 0 0 0.143438593 0" type="matrix" in="shadowBlurOuter1"></feColorMatrix>
        </filter>
        <linearGradient x1="1.60982339e-13%" y1="50%" x2="97.2137238%" y2="50%" id="linearGradient-7">
            <stop stop-color="#6FE1FF" offset="0%"></stop>
            <stop stop-color="#6AB2FF" offset="100%"></stop>
        </linearGradient>
        <linearGradient x1="1.60982339e-13%" y1="50%" x2="97.2137238%" y2="50%" id="linearGradient-8">
            <stop stop-color="#6FE1FF" offset="0%"></stop>
            <stop stop-color="#6AB2FF" offset="100%"></stop>
        </linearGradient>
        <path d="M27.5439579,0 C42.7560658,0 55.0879158,12.2871986 55.0879158,27.4442263 C55.0879158,33.692189 52.9924672,39.4525056 49.4636007,44.0655425 L59.0786952,53.6450045 C60.303568,54.8654422 60.3071633,56.8477581 59.0867256,58.0726309 L59.0786952,58.0806613 C57.8480674,59.3068333 55.8575472,59.3068333 54.6269194,58.0806613 L45.1021353,48.5905005 C40.3354625,52.5241779 34.2168165,54.8884525 27.5439579,54.8884525 C12.33185,54.8884525 0,42.6012539 0,27.4442263 C0,12.2871986 12.33185,0 27.5439579,0 Z M27.5439579,3.92060375 C14.0703766,3.92060375 3.14788091,14.4524883 3.14788091,27.4442263 C3.14788091,40.4359642 14.0703766,50.9678488 27.5439579,50.9678488 C41.0175392,50.9678488 51.9400349,40.4359642 51.9400349,27.4442263 C51.9400349,14.4524883 41.0175392,3.92060375 27.5439579,3.92060375 Z" id="path-9"></path>
        <filter x="-12.5%" y="-7.6%" width="125.0%" height="125.4%" filterUnits="objectBoundingBox" id="filter-10">
            <feOffset dx="0" dy="3" in="SourceAlpha" result="shadowOffsetOuter1"></feOffset>
            <feGaussianBlur stdDeviation="2" in="shadowOffsetOuter1" result="shadowBlurOuter1"></feGaussianBlur>
            <feColorMatrix values="0 0 0 0 1   0 0 0 0 0.898222894   0 0 0 0 0.612938262  0 0 0 0.492843094 0" type="matrix" in="shadowBlurOuter1"></feColorMatrix>
        </filter>
    </defs>
    <g id="组件" stroke="none" stroke-width="1" fill="none" fill-rule="evenodd">
        <g id="空状态" transform="translate(-630, -2630)">
            <g id="搜索为空" transform="translate(630, 2630)">
                <rect id="矩形" x="0" y="0" width="180" height="160"></rect>
                <rect id="矩形" fill="#EBF3FF" x="4" y="22" width="144" height="98" rx="4"></rect>
                <g id="矩形" transform="translate(18, 35)">
                    <mask id="mask-2" fill="white">
                        <use xlink:href="#path-1"></use>
                    </mask>
                    <g id="蒙版">
                        <use fill="black" fill-opacity="1" filter="url(#filter-3)" xlink:href="#path-1"></use>
                        <use fill="#F5FAFF" fill-rule="evenodd" xlink:href="#path-1"></use>
                    </g>
                    <g mask="url(#mask-2)">
                        <use fill="black" fill-opacity="1" filter="url(#filter-6)" xlink:href="#path-5"></use>
                        <use fill="url(#linearGradient-4)" fill-rule="evenodd" xlink:href="#path-5"></use>
                    </g>
                    <rect id="矩形备份-28" fill="#FFFFFF" mask="url(#mask-2)" x="70" y="9" width="28" height="16" rx="2"></rect>
                    <rect id="矩形备份-29" fill="#FFFFFF" mask="url(#mask-2)" x="105" y="9" width="28" height="16" rx="2"></rect>
                    <rect fill="#BFDBFF" mask="url(#mask-2)" x="0" y="0" width="25" height="96"></rect>
                    <rect fill="#F2F6FF" opacity="0.600000024" mask="url(#mask-2)" x="11" y="11" width="9" height="2"></rect>
                    <rect id="矩形备份-10" fill="#F2F6FF" opacity="0.600000024" mask="url(#mask-2)" x="11" y="22" width="9" height="2"></rect>
                    <rect id="矩形备份-12" fill="#F2F6FF" opacity="0.600000024" mask="url(#mask-2)" x="11" y="33" width="9" height="2"></rect>
                    <rect id="矩形备份-13" fill="#F2F6FF" opacity="0.600000024" mask="url(#mask-2)" x="11" y="44" width="9" height="2"></rect>
                    <circle id="椭圆形" fill="#F2F6FF" mask="url(#mask-2)" cx="6" cy="12" r="2"></circle>
                    <circle id="椭圆形备份-9" fill="#F2F6FF" mask="url(#mask-2)" cx="6" cy="34" r="2"></circle>
                    <circle id="椭圆形备份-8" fill="#F2F6FF" mask="url(#mask-2)" cx="6" cy="23" r="2"></circle>
                    <circle id="椭圆形备份-10" fill="#F2F6FF" mask="url(#mask-2)" cx="6" cy="45" r="2"></circle>
                </g>
                <rect id="矩形" fill="url(#linearGradient-7)" x="53" y="73" width="71" height="6" rx="2"></rect>
                <rect id="矩形备份-40" fill="url(#linearGradient-8)" x="53" y="89" width="98" height="6" rx="2"></rect>
                <rect id="矩形备份-41" fill="url(#linearGradient-8)" x="53" y="105" width="98" height="6" rx="2"></rect>
                <g id="编组-14" transform="translate(109, 69)">
                    <ellipse id="椭圆形" fill-opacity="0.8" fill="#FFFFFF" cx="27.5439579" cy="27.4442263" rx="27.5439579" ry="27.4442263"></ellipse>
                    <g id="形状结合" fill-rule="nonzero">
                        <use fill="black" fill-opacity="1" filter="url(#filter-10)" xlink:href="#path-9"></use>
                        <use fill="#FFD146" xlink:href="#path-9"></use>
                    </g>
                </g>
            </g>
        </g>
    </g>
</svg>