<svg class="icon" width="200px" height="200.00px" viewBox="0 0 1024 1024" version="1.1" xmlns="http://www.w3.org/2000/svg"><path d="M682.642286 0l256 256v725.357714c0 21.211429-15.433143 38.765714-35.693715 42.057143L896 1024H128a42.715429 42.715429 0 0 1-42.130286-35.766857l-0.512-6.875429V42.642286c0-21.211429 15.433143-38.765714 35.693715-42.057143L128 0h554.642286z m5.997714 372.662857l-48.128 55.003429A218.477714 218.477714 0 0 0 512 386.121143c-47.981714 0-92.452571 15.36-128.512 41.545143l-48.128-55.003429a20.406857 20.406857 0 0 0-30.72 26.843429l48.128 55.003428A218.697143 218.697143 0 0 0 292.571429 605.549714v93.988572h438.857142V605.622857c0-58.514286-22.893714-111.689143-60.196571-151.04l48.128-55.003428a20.406857 20.406857 0 0 0-30.72-26.843429z m-270.628571 138.825143a31.378286 31.378286 0 1 1 0 62.683429 31.378286 31.378286 0 0 1 0-62.683429z m187.977142 0a31.378286 31.378286 0 1 1 0 62.683429 31.378286 31.378286 0 0 1 0-62.683429z" fill="#2E90FF" /><path d="M682.642286 0l256 256H725.357714a42.642286 42.642286 0 0 1-42.715428-42.642286V0z" fill="#FFFFFF" /></svg>