<svg class="icon" width="200px" height="200.00px" viewBox="0 0 1024 1024" version="1.1" xmlns="http://www.w3.org/2000/svg"><path d="M219.428571 0h585.142858v219.428571L512 365.714286 219.428571 219.428571z" fill="#CDB8A9" fill-opacity=".4" /><path d="M512 146.285714l402.285714 219.428572v438.857143L512 1024l-402.285714-219.428571V365.714286L512 146.285714z m18.285714 219.428572h-36.571428A128 128 0 0 0 365.714286 493.714286v10.971428a7.314286 7.314286 0 0 0 7.314285 7.314286h58.514286a7.314286 7.314286 0 0 0 7.314286-7.314286v-10.971428A54.857143 54.857143 0 0 1 493.714286 438.857143h36.571428a54.857143 54.857143 0 0 1 7.460572 109.202286L530.285714 548.571429H482.742857a7.314286 7.314286 0 0 0-7.314286 7.314285v58.514286a7.314286 7.314286 0 0 0 7.314286 7.314286h47.542857a54.857143 54.857143 0 0 1 7.460572 109.202285L530.285714 731.428571h-36.571428A54.857143 54.857143 0 0 1 438.857143 676.571429V665.6a7.314286 7.314286 0 0 0-7.314286-7.314286h-58.514286a7.314286 7.314286 0 0 0-7.314285 7.314286v10.971429c0 70.656 57.344 128 128 128h36.571428a128 128 0 0 0 89.6-219.428572A128 128 0 0 0 530.285714 365.714286z" fill="#CDB8A9" /></svg>