<svg class="icon" width="200px" height="200.00px" viewBox="0 0 1024 1024" version="1.1" xmlns="http://www.w3.org/2000/svg"><path d="M682.642286 0l256 256v725.357714a42.642286 42.642286 0 0 1-42.642286 42.642286H128a42.642286 42.642286 0 0 1-42.642286-42.642286V42.642286c0-23.552 19.017143-42.642286 42.642286-42.642286h554.642286zM428.617143 441.636571H281.965714a4.681143 4.681143 0 0 0-4.608 4.681143v363.008c0 2.56 2.048 4.681143 4.608 4.681143h169.910857a104.740571 104.740571 0 0 0 52.516572-195.364571 104.740571 104.740571 0 0 0-75.776-177.005715z m356.059428 0H561.225143a4.681143 4.681143 0 0 0-4.608 4.681143v37.229715c0 2.56 2.048 4.608 4.608 4.608h88.502857v321.170285c0 2.56 2.048 4.681143 4.608 4.681143h37.302857a4.681143 4.681143 0 0 0 4.608-4.681143v-321.097143h88.429714a4.681143 4.681143 0 0 0 4.681143-4.681142V446.171429a4.681143 4.681143 0 0 0-4.681143-4.608z m-332.8 209.481143a58.148571 58.148571 0 1 1 0 116.297143h-128v-116.297143h128zM428.617143 488.155429a58.148571 58.148571 0 0 1 7.314286 115.931428l-7.314286 0.438857H323.876571v-116.297143H428.617143z" fill="#00D24A" /><path d="M682.642286 0l256 256H725.357714a42.642286 42.642286 0 0 1-42.715428-42.642286V0z" fill="#FFFFFF" /></svg>