<svg class="icon" width="200px" height="199.61px" viewBox="0 0 1026 1024" version="1.1" xmlns="http://www.w3.org/2000/svg"><path d="M211.200126 1011.200004h82.687974l-18.015994-118.649563A576.08942 576.08942 0 0 1 211.200126 844.800056v166.399948z" fill="#E7EAF2" /><path d="M294.3425 122.118682c108.479966 33.785589 227.321529 108.345566 332.351896 210.476734 45.228786 43.980786 85.452773 90.700772 119.551963 138.252757-6.899198 1.2352-13.689596 2.777599-20.351994 4.607998-32.39679-44.332786-70.239978-87.916773-112.582365-129.087959C511.929632 247.769843 397.632068 175.533065 293.5041 141.990676l-4.863998-1.5424-3.564799-1.0944C184.416134 108.800286 103.31536 117.952283 58.336174 164.608269c-45.548786 47.244785-51.667184 130.412759-16.639995 232.140727 36.089589 104.799967 112.447965 219.174332 215.423933 319.3087 102.963168 100.127969 219.244731 173.081546 324.671898 205.913536 75.174377 23.411193 139.647956 24.863992 186.611142 5.247998a232.070327 232.070327 0 0 0 39.283188-0.1344c-47.251185 34.707189-117.273563 41.951987-200.243138 21.907193l0.5696 1.4976c-87.078373 33.49119-201.292737 15.308795-309.555103-46.207986l-3.731199-2.137599 20.729593 121.862362H72.192169l46.547186-273.625514C19.520186 627.436924-21.670201 483.116969 11.059389 374.496203l1.011199-3.283199 1.8176 0.5952C-11.859004 277.760233-1.894207 199.417858 44.512178 151.283473 95.961762 97.920289 185.811334 88.320292 294.3361 122.118682zM136.358549 771.302479l-39.385587 231.551928h193.702339l-19.583994-115.123164c-35.148789-22.591993-69.356778-49.791984-101.452768-81.279975a659.430194 659.430194 0 0 1-33.27999-35.148789zM24.844984 406.732993l-0.5504 3.276799c-18.323194 112.767965 38.419188 262.041518 159.86555 381.235081 124.255961 121.958362 277.324713 174.233546 388.607879 148.019153l3.315199 1.0432c-108.479966-33.779189-227.321529-108.339166-332.351896-210.476734C139.904148 628.864123 62.464172 513.49776 24.844984 406.732993z" fill="#7D91A5" /><path d="M593.523207 393.036997a767.20616 767.20616 0 0 1 75.775976 84.940774 231.212728 231.212728 0 0 0-38.719988 31.19999 770.265359 770.265359 0 0 0-72.012778-80.044775C401.644866 277.184233 210.291326 216.256252 113.817756 282.630632a126.93116 126.93116 0 0 1 15.667196-19.801594c88.070372-90.956772 295.827108-32.65919 464.038255 130.207959z" fill="#E7EAF2" /><path d="M762.303954 210.579454a53.382383 53.382383 0 1 1-27.001592 99.455969l-280.127912 280.127913L441.600054 576.57614l279.129513-279.123113a53.388783 53.388783 0 0 1 41.574387-86.879973z m0 19.199994a34.182389 34.182389 0 1 0 0 68.371179 34.182389 34.182389 0 0 0 0-68.371179z m0-129.286359c89.375972 0 162.009549 71.731178 163.455949 160.767949l0.0192 2.7072h-19.199994c0-78.886375-63.31518-142.982355-141.887956-144.255955l-2.387199-0.0192v-19.199994z m180.857543-28.799991c51.814384 48.755185 82.105574 116.243164 83.084774 188.646341l0.0256 3.628799h-19.199994a243.967924 243.967924 0 0 0-74.559976-175.897546l-2.5088-2.393599 13.158396-13.983995zM762.297554 0.00032a262.822318 262.822318 0 0 1 123.468761 30.59199l3.635199 1.9712-9.260797 16.819195a243.455924 243.455924 0 0 0-113.663965-30.143991L762.303954 19.200314V0.00032z" fill="#7D91A5" /><path d="M793.587144 467.200174c127.23836 0 230.387128 103.148768 230.387128 230.387128 0 125.964761-101.094368 228.319929-226.579129 230.355128l-3.807999 0.032c-127.23836 0-230.387128-103.148768-230.387128-230.387128C563.200016 570.348942 666.348784 467.200174 793.587144 467.200174z m25.222392 101.119968l-0.6016 0.0064a4.569599 4.569599 0 0 0-3.507199 2.112l-0.300799 0.5568-74.527977 164.166348a4.569599 4.569599 0 0 0 2.899199 6.278398l0.6272 0.1344 43.078386 6.035198-44.979186 101.388769c-0.6592 1.4848 0.1984 3.199999 1.7792 3.564799l0.576 0.064 0.563199-0.064a2.611199 2.611199 0 0 0 1.024-0.4736l0.416-0.4032 113.196765-137.631957a4.569599 4.569599 0 0 0-2.2528-7.295998l-0.64-0.1344-28.447991-3.987199 51.852784-99.039969a4.569599 4.569599 0 0 0-1.414399-5.855998l-0.5888-0.352-56.953582-28.588791a4.543999 4.543999 0 0 0-1.792-0.48z" fill="#106FFB" /></svg>