<svg class="icon" width="200px" height="197.68px" viewBox="0 0 1036 1024" version="1.1" xmlns="http://www.w3.org/2000/svg"><path d="M114.7968 910.9888h807.2064c25.5744 0 41.7984-27.4048 29.5168-49.8304L547.9168 124.1024c-12.768-23.3216-46.2592-23.3216-59.0336 0L85.28 861.1584c-12.288 22.4256 3.9424 49.8304 29.5168 49.8304zM431.8848 92.8704c37.44-68.3584 135.5968-68.3584 173.0304 0l403.6032 737.0496c36.0128 65.7664-11.5648 146.08-86.5152 146.08H114.7968c-74.944 0-122.528-80.3136-86.5152-146.08L431.8848 92.8704z" fill="#E7EAF2" /><path d="M423.4688 88.256c40.6656-74.2592 146.6432-75.0016 188.608-2.2272l1.2544 2.2272 403.6096 737.056c39.1168 71.4368-11.648 158.528-92.48 160.256l-2.4576 0.032H114.7968c-81.4272 0-133.4016-86.3744-96.0896-158.1184l1.152-2.176L423.4688 88.256z m173.024 9.2224c-33.4528-61.088-120.6272-61.696-155.1552-1.8304l-1.0304 1.8304L36.704 834.528c-32.1856 58.7776 9.5808 130.4256 76.0704 131.8528l2.0224 0.0192h807.2064c66.9824 0 109.7408-71.0592 79.0464-130.0864l-0.9536-1.7856L596.4928 97.4784z m-40.9856 20.5632l0.832 1.4528 403.6032 737.0496c15.5392 28.384-4.4416 62.9632-36.4288 64.0192l-1.5104 0.0256H114.7968c-32.3648 0-53.0816-34.144-38.6432-62.7072l0.704-1.3312L480.4608 119.488c15.872-28.992 56.6656-29.9456 74.176-2.8544l0.8704 1.408z m-57.5424 9.536l-0.6592 1.1392L93.696 865.7728c-8.5952 15.68 2.3232 34.7648 19.9104 35.584l1.184 0.032h807.2064c17.8816 0 29.3696-18.7456 21.6384-34.5664l-0.544-1.056L539.4944 128.7168c-8.704-15.8976-30.8672-16.64-40.8256-2.2208l-0.704 1.088z" fill="#7D91A5" /><path d="M349.1776 770.176c9.6768 0 17.3824 3.136 23.0272 9.4976 5.376 6.0032 8.064 13.9776 8.064 23.8336 0 9.7664-2.688 17.6512-8.064 23.744-5.6448 6.272-13.3504 9.408-23.0272 9.408-9.7664 0-17.472-3.2256-23.0272-9.4976-5.376-6.0928-7.9744-13.9776-7.9744-23.6544 0-9.7664 2.5984-17.6512 7.9744-23.744 5.5552-6.4512 13.2608-9.5872 23.0272-9.5872z m-36.9216 1.2544v8.3328h-33.6896v18.6368h31.808v8.3328h-31.808v28.672H268.8v-63.9744h43.456z m106.2208 0c6.4512 0 11.648 1.4336 15.4112 4.3904 3.9424 3.2256 5.9136 7.7952 5.9136 13.888 0 3.4048-0.896 6.3616-2.688 8.96a14.3168 14.3168 0 0 1-8.3328 5.6448v0.1792c5.7344 1.2544 8.8704 5.0176 9.5872 11.2896l1.0752 10.2144c0.3584 3.9424 1.6128 7.0784 3.7632 9.408h-10.5728c-1.5232-1.9712-2.4192-4.8384-2.7776-8.4224l-0.8064-7.9744c-0.3584-3.584-1.5232-6.0928-3.4048-7.7056-1.9712-1.6128-4.7488-2.3296-8.4224-2.3296h-17.2928v26.432h-9.7664v-63.9744h28.3136z m62.9312 0c6.272 0 11.1104 1.4336 14.6944 4.48 3.4048 2.8672 5.1072 6.72 5.1072 11.648 0 3.584-0.896 6.6304-2.688 9.1392-1.792 2.3296-4.2112 4.1216-7.4368 5.2864 4.2112 0.8064 7.4368 2.5088 9.5872 5.1072 2.1504 2.5984 3.2256 6.0928 3.2256 10.3936 0 6.4512-2.24 11.1104-6.6304 14.1568-3.7632 2.5088-9.0496 3.7632-15.8592 3.7632h-29.2096v-63.9744h29.2096z m42.1632 0v63.9744h-9.6768v-63.9744h9.6768z m36.0128 0c10.304 0 18.0992 2.8672 23.4752 8.6912 5.0176 5.376 7.5264 13.1712 7.5264 23.296 0 10.0352-2.5984 17.8304-7.7056 23.3856-5.376 5.7344-13.1712 8.6016-23.4752 8.6016h-23.1168v-63.9744h23.296z m64.224 0c10.304 0 18.0992 2.8672 23.4752 8.6912 5.0176 5.376 7.5264 13.1712 7.5264 23.296 0 10.0352-2.5984 17.8304-7.7056 23.3856-5.376 5.7344-13.1712 8.6016-23.4752 8.6016H600.512v-63.9744h23.296z m86.8928 0v8.3328h-36.1984v18.6368h34.048v8.3328h-34.048v20.3392h37.7216v8.3328h-47.488v-63.9744h45.9648z m21.2928 0l32.704 47.5776h0.3584v-47.5776h9.7664v63.9744h-9.4976l-33.0624-48.1152h-0.3584v48.1152h-9.7664v-63.9744h9.856z m-382.816 7.3472c-6.8096 0-12.096 2.24-15.8592 6.8992-3.584 4.3904-5.376 10.304-5.376 17.8304 0 7.4368 1.792 13.3504 5.376 17.7408 3.7632 4.48 9.0496 6.8096 15.8592 6.8096 6.8096 0 12.096-2.24 15.7696-6.6304 3.584-4.3008 5.4656-10.304 5.4656-17.92 0-7.7056-1.8816-13.7088-5.4656-18.0992-3.6736-4.48-8.96-6.6304-15.7696-6.6304z m131.1552 27.776h-18.368v20.7872h18.0992c4.1216 0 7.3472-0.7168 9.6768-1.9712 2.8672-1.7024 4.3904-4.3904 4.3904-8.064 0-3.7632-1.1648-6.5408-3.4048-8.2432-2.24-1.7024-5.7344-2.5088-10.3936-2.5088z m77.4592-26.7904H546.048v47.3088h11.5584c8.064 0 14.0672-1.9712 17.8304-5.824 3.6736-3.8528 5.5552-9.7664 5.5552-17.8304 0-8.2432-1.8816-14.1568-5.4656-17.92-3.7632-3.8528-9.6768-5.7344-17.7408-5.7344z m64.224 0h-11.7376v47.3088h11.5584c8.064 0 14.0672-1.9712 17.8304-5.824 3.6736-3.8528 5.5552-9.7664 5.5552-17.8304 0-8.2432-1.8816-14.1568-5.4656-17.92-3.7632-3.8528-9.6768-5.7344-17.7408-5.7344z m-204.8832 0h-17.2032v20.8768h17.2928c4.3008 0 7.5264-0.9856 9.6768-2.7776 2.0608-1.792 3.136-4.3904 3.136-7.7952 0-3.584-1.0752-6.1824-3.0464-7.7952-2.1504-1.7024-5.376-2.5088-9.856-2.5088z m61.856-0.2688h-17.024v19.0848h16.8448c4.48 0 7.7056-0.8064 9.6768-2.3296 1.9712-1.6128 2.9568-4.1216 2.9568-7.5264 0-3.2256-0.9856-5.5552-2.9568-6.9888-1.9712-1.5232-5.1968-2.24-9.4976-2.24zM755.2 544v48l-39.1936 32.1792c26.5152 8.576 45.5936 32.4736 45.5936 60.6208 0 35.3472-30.0864 64-67.2 64-27.3344 0-50.8608-15.5392-61.3568-37.856l38.9824-25.216c0.5632 10.1696 10.3616 18.272 22.3744 18.272 12.3712 0 22.4-8.5952 22.4-19.2s-10.0288-19.2-22.4-19.2c-9.0176 0-16.7936 4.5632-20.3392 11.1488a749.92 749.92 0 0 1-21.8816-25.8432l-4.192-5.1392c-3.776-4.6336-7.5328-9.2544-11.3664-13.8624L688.4864 588.8H633.6v-44.8h121.6z m-390.4 0l-22.6688 108.8H371.2v-57.6h44.8v57.6h25.6v44.8h-25.6v44.8h-44.8v-44.8H288l32-153.6h44.8z m172.8 0c42.4128 0 76.8 34.3872 76.8 76.8v44.8c0 42.4128-34.3872 76.8-76.8 76.8s-76.8-34.3872-76.8-76.8v-44.8c0-42.4128 34.3872-76.8 76.8-76.8z m0 44.8a32 32 0 0 0-31.968 30.6112L505.6 620.8v44.8a32 32 0 0 0 63.968 1.3888L569.6 665.6v-44.8a32 32 0 0 0-32-32z m-12.8-153.6a25.6 25.6 0 1 1 0 51.2 25.6 25.6 0 0 1 0-51.2z m0-172.8a25.6 25.6 0 0 1 25.6 25.6v96a25.6 25.6 0 1 1-51.2 0V288a25.6 25.6 0 0 1 25.6-25.6z" fill="#006EFF" /></svg>