<svg class="icon" width="200px" height="200.00px" viewBox="0 0 1024 1024" version="1.1" xmlns="http://www.w3.org/2000/svg"><path d="M682.642286 0l256 256v725.357714c0 21.211429-15.433143 38.765714-35.693715 42.057143L896 1024H128a42.642286 42.642286 0 0 1-42.642286-42.642286V42.642286c0-23.552 19.017143-42.642286 42.642286-42.642286h554.642286zM533.065143 365.714286h-39.424a4.900571 4.900571 0 0 0-4.534857 2.998857l-0.365715 1.901714v343.771429L374.125714 599.771429a4.827429 4.827429 0 0 0-4.315428-1.316572l-2.048 0.804572a4.827429 4.827429 0 0 0-1.755429 2.413714L365.714286 603.282286v57.782857l140.653714 140.653714c3.072 3.072 7.68 3.657143 11.410286 1.828572l2.56-1.828572 140.653714-140.726857v-57.709714a4.827429 4.827429 0 0 0-2.048-4.022857l-2.048-0.804572-2.194286 0.073143-2.121143 1.243429-114.614857 114.688v-343.771429a4.900571 4.900571 0 0 0-2.998857-4.608L533.065143 365.714286z" fill="#2E90FF" /><path d="M682.642286 0l256 256H725.357714a42.642286 42.642286 0 0 1-42.715428-42.642286V0z" fill="#FFFFFF" /></svg>