<svg class="icon" width="200px" height="200.00px" viewBox="0 0 1024 1024" version="1.1" xmlns="http://www.w3.org/2000/svg"><path d="M682.715429 0H128a42.642286 42.642286 0 0 0-42.715429 42.642286v938.715428c0 23.552 19.090286 42.642286 42.715429 42.642286h768a42.642286 42.642286 0 0 0 42.642286-42.642286V256L682.715429 0zM573.366857 374.930286a121.197714 121.197714 0 1 1 171.373714 171.446857l-221.622857 221.622857A163.035429 163.035429 0 0 1 292.571429 537.453714l119.661714-119.661714a8.338286 8.338286 0 0 1 11.849143 0l26.624 26.624a8.338286 8.338286 0 0 1 0 11.776L330.971429 575.926857a108.690286 108.690286 0 1 0 153.673142 153.6l221.622858-221.622857a66.852571 66.852571 0 1 0-94.500572-94.573714l-221.622857 221.622857a25.088 25.088 0 0 0 35.401143 35.547428l149.211428-149.211428a8.338286 8.338286 0 0 1 11.849143 0l26.624 26.550857a8.338286 8.338286 0 0 1 0 11.776l-149.211428 149.211429a79.433143 79.433143 0 1 1-112.347429-112.274286l221.622857-221.622857z" fill="#C0C6CE" /><path d="M682.642286 0l256 256H725.284571a42.642286 42.642286 0 0 1-42.642285-42.642286V0z" fill="#FFFFFF" /></svg>