<svg class="icon" width="200px" height="200.00px" viewBox="0 0 1024 1024" version="1.1" xmlns="http://www.w3.org/2000/svg"><path d="M658.139429 97.645714S599.917714 74.093714 512 74.093714 365.714286 101.083429 365.714286 101.083429L658.285714 398.628571l-0.146285-301.056z" fill="#FB5453" /><path d="M823.954286 205.238857C759.369143 143.945143 697.051429 122.148571 697.051429 122.148571l-2.194286 408.868572 219.428571-207.872s-25.6-56.685714-90.258285-117.906286z" fill="#6468F1" /><path d="M923.355429 362.642286L621.714286 651.190857h305.152s23.917714-57.490286 23.917714-144.310857c-0.073143-86.747429-27.428571-144.237714-27.428571-144.237714z" fill="#5283F0" /><path d="M704.512 903.68s59.245714-23.771429 123.099429-84.041143c63.780571-60.196571 86.601143-118.345143 86.601142-118.345143l-426.569142-1.974857 216.868571 204.361143z" fill="#00B2FE" /><path d="M365.787429 928.182857s58.294857 23.625143 146.285714 23.625143c87.990857 0 146.139429-27.062857 146.139428-27.062857L365.714286 627.126857l0.073143 301.056z" fill="#66D020" /><path d="M212.187429 820.662857c64.585143 61.220571 127.049143 83.017143 127.049142 83.017143l2.121143-408.795429-219.428571 207.872c0.146286-0.146286 25.673143 56.612571 90.258286 117.906286z" fill="#9AD122" /><path d="M97.133714 362.642286s-23.917714 57.417143-23.917714 144.310857c0 86.820571 27.355429 144.237714 27.355429 144.237714L402.285714 362.788571H97.133714v-0.073142z" fill="#FFC71A" /><path d="M331.702857 122.148571s-59.245714 23.844571-123.099428 84.114286c-63.853714 60.123429-86.674286 118.272-86.674286 118.272l426.642286 2.048L331.702857 122.148571z" fill="#FF7612" /></svg>