<svg class="icon" width="200px" height="200.00px" viewBox="0 0 1024 1024" version="1.1" xmlns="http://www.w3.org/2000/svg"><path d="M219.428571 0h585.142858v219.428571L512 365.714286 219.428571 219.428571z" fill="#ECC271" fill-opacity=".4" /><path d="M512 146.285714l402.285714 219.428572v438.857143L512 1024l-402.285714-219.428571V365.714286L512 146.285714z m29.257143 219.428572h-55.954286l-2.486857 0.438857-2.194286 1.243428-75.702857 62.244572a7.314286 7.314286 0 0 0-2.340571 3.510857l-0.292572 2.194286V468.114286a7.314286 7.314286 0 0 0 4.461715 6.729143L409.6 475.428571h65.828571v321.828572a7.314286 7.314286 0 0 0 4.461715 6.729143L482.742857 804.571429h58.514286a7.314286 7.314286 0 0 0 6.729143-4.461715L548.571429 797.257143V373.028571a7.314286 7.314286 0 0 0-4.461715-6.729142L541.257143 365.714286z" fill="#ECC271" /></svg>