<svg class="icon" width="200px" height="200.00px" viewBox="0 0 1024 1024" version="1.1" xmlns="http://www.w3.org/2000/svg"><path d="M682.642286 0l256 256v725.357714c0 21.211429-15.433143 38.765714-35.693715 42.057143L896 1024H128a42.715429 42.715429 0 0 1-42.130286-35.766857l-0.512-6.875429V42.642286c0-21.211429 15.433143-38.765714 35.693715-42.057143L128 0h554.642286z m40.082285 365.714286H300.397714l-3.072 0.585143a7.826286 7.826286 0 0 0-3.145143 2.486857l-1.024 1.682285L292.571429 373.540571l38.546285 381.659429 0.512 2.121143 1.024 1.828571 1.462857 1.462857 2.925715 1.462858L510.902857 804.571429l174.299429-42.642286 2.048-0.731429 1.682285-1.316571 1.243429-1.682286 0.950857-3.072 38.619429-380.781714-0.365715-3.072a7.826286 7.826286 0 0 0-2.048-3.437714l-1.682285-1.170286-2.925715-0.877714zM629.979429 448.877714l3.072 0.585143a7.826286 7.826286 0 0 1 3.145142 2.413714l1.024 1.755429 0.585143 3.072-3.291428 32.914286H428.617143l6.582857 64.219428h184.173714l2.998857 0.658286a7.826286 7.826286 0 0 1 3.145143 2.413714l1.024 1.755429 0.585143 3.803428L614.4 688.347429l-0.512 2.121142-1.024 1.828572-1.462857 1.462857-2.925714 1.462857-97.572572 23.844572-97.133714-23.844572-2.048-0.731428-1.682286-1.316572-1.243428-1.682286-0.950858-3.072-5.485714-53.906285 0.292572-3.145143a7.826286 7.826286 0 0 1 2.194285-3.364572l1.536-1.170285 3.364572-0.950857h32.694857l3.584 35.254857 64.877714 15.945143 65.243429-16.018286 6.729143-66.56H398.336l-13.897143-137.069714 0.365714-3.145143a7.826286 7.826286 0 0 1 2.048-3.364572l1.682286-1.170285 3.364572-0.950858h238.08z" fill="#FF772E" /><path d="M682.642286 0l256 256H725.357714a42.642286 42.642286 0 0 1-42.715428-42.642286V0z" fill="#FFFFFF" /></svg>