<svg class="icon" width="200px" height="200.00px" viewBox="0 0 1024 1024" version="1.1" xmlns="http://www.w3.org/2000/svg"><path d="M682.642286 0l256 256v725.357714a42.642286 42.642286 0 0 1-42.642286 42.642286H128a42.642286 42.642286 0 0 1-42.642286-42.642286V42.642286c0-23.552 19.017143-42.642286 42.642286-42.642286h554.642286zM458.24 546.157714l-112.64 146.944c-10.020571 12.946286-1.170286 32.182857 14.848 32.182857h303.177143c15.652571 0 24.576-18.651429 15.213714-31.744L602.624 587.629714a18.578286 18.578286 0 0 0-30.427429 0l-25.307428 35.181715-58.88-76.653715a18.578286 18.578286 0 0 0-29.769143 0zM640 384a42.642286 42.642286 0 1 0 0 85.357714 42.642286 42.642286 0 0 0 0-85.357714z" fill="#787E86" /><path d="M682.642286 0l256 256H725.357714a42.642286 42.642286 0 0 1-42.715428-42.642286V0z" fill="#FFFFFF" /></svg>