<svg class="icon" width="200px" height="200.00px" viewBox="0 0 1024 1024" version="1.1" xmlns="http://www.w3.org/2000/svg"><path d="M682.642286 0l256 256v725.357714c0 21.211429-15.433143 38.765714-35.693715 42.057143L896 1024H128a42.715429 42.715429 0 0 1-42.130286-35.766857l-0.512-6.875429V42.642286c0-21.211429 15.433143-38.765714 35.693715-42.057143L128 0h554.642286zM590.336 413.988571c-13.165714 0.512-25.892571 4.096-37.376 8.045715l-18.870857 6.802285a63.341714 63.341714 0 0 1-19.163429 4.534858 64.585143 64.585143 0 0 1-20.041143-4.608l-16.310857-5.924572a109.056 109.056 0 0 0-37.741714-7.68 111.177143 111.177143 0 0 0-92.891429 52.516572c-39.570286 64-10.166857 158.866286 28.525715 210.797714 18.797714 25.453714 41.325714 53.979429 70.802285 52.955428 9.947429-0.365714 17.700571-2.56 25.014858-5.266285l14.116571-5.485715a92.891429 92.891429 0 0 1 67.291429-0.146285l12.726857 4.973714a72.411429 72.411429 0 0 0 28.598857 5.412571c20.845714-0.365714 36.498286-12.214857 50.249143-27.794285l5.778285-6.948572 12.726858-16.676571c7.68-10.459429 13.750857-20.845714 18.432-29.915429l4.242285-8.630857 4.827429-11.264 3.437714-9.289143-3.803428-1.755428-7.972572-4.169143-9.581714-6.217143a88.502857 88.502857 0 0 1-38.765714-72.923429c-0.438857-39.350857 25.380571-63.488 39.497142-73.874285l3.876572-2.633143 5.12-3.145143-6.875429-8.411429a105.325714 105.325714 0 0 0-59.172571-31.232l-6.729143-1.097142-9.362286-0.731429-10.605714-0.292571z m24.868571-105.984c-24.429714 0.950857-54.125714 15.36-71.753142 34.742858-15.798857 17.188571-29.622857 44.617143-25.892572 70.948571 27.355429 1.974857 55.296-13.165714 72.338286-32.475429 17.042286-19.382857 28.525714-46.372571 25.380571-73.216z" fill="#C2C4C6" /><path d="M682.642286 0l256 256H725.357714a42.642286 42.642286 0 0 1-42.715428-42.642286V0z" fill="#FFFFFF" /></svg>