<svg class="icon" width="200px" height="200.00px" viewBox="0 0 1024 1024" version="1.1" xmlns="http://www.w3.org/2000/svg"><path d="M736 787.2a32 32 0 1 1 0 64H288a32 32 0 1 1 0-64h448zM272 83.5648V448l-38.9632 84.512A51.1872 51.1872 0 0 0 221.5104 531.2H45.7472a38.4 38.4 0 0 1 2.624-7.6928l194.112-418.08a38.4 38.4 0 0 1 29.5168-21.8624z m658.048 348.672l42.3808 91.2704c0.8576 1.856 1.568 3.7696 2.1248 5.7216l0.4992 1.9712H802.496c-3.1488 0-6.2464 0.288-9.28 0.8448l-2.2528 0.4672-18.3296-39.7568 1.7536 0.0192a229.5552 229.5552 0 0 0 155.6672-60.544z" fill="#E7EAF2" /><path d="M629.5744 83.1936a231.7632 231.7632 0 0 0-20.96 19.2L277.3056 102.4a19.2 19.2 0 0 0-16.8512 10.0096l-0.5632 1.1072L65.9648 531.2h155.5456a51.2 51.2 0 0 1 44.6848 26.2144l0.8768 1.632 37.056 72.3072a51.2 51.2 0 0 0 43.712 27.8144l1.856 0.032h324.6144a51.2 51.2 0 0 0 44.6848-26.2144l0.8768-1.632 37.056-72.3072a51.2 51.2 0 0 1 43.712-27.8144l1.8496-0.032h155.5456l-40.8576-88a231.6736 231.6736 0 0 0 15.104-13.0432l43.3536 93.3632c1.1456 2.464 2.0224 5.0432 2.6176 7.68H979.2v390.4c0 41.76-33.3376 75.7376-74.848 76.7744L902.4 998.4H121.6c-41.76 0-75.7376-33.3376-76.7744-74.848L44.8 921.6V531.2h0.9472c0.448-1.984 1.056-3.9296 1.8112-5.824l0.8128-1.8688 194.112-418.08a38.4 38.4 0 0 1 33.2288-22.1952l1.6-0.032 352.2624-0.0064zM221.5104 550.4H64v371.2a57.6 57.6 0 0 0 55.904 57.5744L121.6 979.2h780.8a57.6 57.6 0 0 0 57.5744-55.904L960 921.6V550.4h-157.5104a32 32 0 0 0-26.9952 14.816l-0.768 1.28-0.7104 1.312-37.056 72.3008a70.4 70.4 0 0 1-60.6208 38.2592l-2.0288 0.032H349.6896a70.4 70.4 0 0 1-61.696-36.4992l-0.9536-1.792-37.056-72.3008a32 32 0 0 0-26.9824-17.376L221.5104 550.4z m259.3152-171.9168a9.6 9.6 0 0 1 5.0432 11.8848l-0.352 0.8576-76.8 166.4a9.6 9.6 0 0 1-17.7792-7.1872l0.3456-0.8576 76.8-166.4a9.6 9.6 0 0 1 12.736-4.6976z m106.4192 18.304c4.16 5.792 8.5888 11.3792 13.2608 16.7488l-44.6464 93.0176a9.6 9.6 0 0 1-17.6704-7.456l0.3584-0.8512L587.2448 396.8z" fill="#7D91A5" /><path d="M774.3872 32c127.2384 0 230.3872 103.1488 230.3872 230.3872 0 127.2384-103.1488 230.3872-230.3872 230.3872C647.1488 492.7744 544 389.632 544 262.3872 544 135.1488 647.1488 32 774.3872 32z m-102.3744 204.8a25.6128 25.6128 0 1 0 0 51.2256 25.6128 25.6128 0 0 0 0-51.2256z m102.4 0a25.6128 25.6128 0 1 0 0 51.2256 25.6128 25.6128 0 0 0 0-51.2256z m102.4 0a25.6128 25.6128 0 1 0 0 51.2256 25.6128 25.6128 0 0 0 0-51.2256z" fill="#106FFB" /></svg>