<svg class="icon" width="200px" height="200.00px" viewBox="0 0 1024 1024" version="1.1" xmlns="http://www.w3.org/2000/svg"><path d="M192 185.6h275.2v51.2H192zM192 377.6h633.6v51.2H192zM192 569.6h633.6v51.2H192zM192 761.6h409.6v51.2H192z" fill="#E7EAF2" /><path d="M742.4 480c0 127.2448-103.1552 230.4-230.4 230.4S281.6 607.2448 281.6 480s103.1552-230.4 230.4-230.4 230.4 103.1552 230.4 230.4z" fill="#106FFB" /><path d="M509.1392 614.4c-10.2208 0-18.5216-8.4672-18.5216-18.8992s8.2944-18.8928 18.5216-18.8928c10.2208 0 18.5216 8.4672 18.5216 18.8928 0 10.432-8.3008 18.8992-18.5216 18.8992z m79.5584-184.0256c-1.0624 20.2112-7.136 36.1472-37.4976 67.1488-15.392 15.7184-25.0944 27.5072-26.08 37.856-0.768 8.1216-7.488 14.1888-15.3088 14.1888-0.512 0-1.024-0.0448-1.536-0.0896-8.4672-0.832-14.624-8.5568-13.8112-17.2032 2.0928-21.7856 17.7408-39.3792 34.976-56.9728 27.5776-28.16 28.0448-37.12 28.5184-46.592 0.5568-11.0464-3.424-21.7408-11.2896-30.1696a47.5712 47.5712 0 0 0-34.72-15.104h-0.0832c-25.2736 0.0448-45.8816 21.088-45.8816 46.9376 0 8.6848-6.88 15.7184-15.392 15.7184-8.512 0-15.392-7.0336-15.392-15.7184 0-20.9152 7.9552-40.5632 22.4-55.36 14.4576-14.8032 33.696-22.976 54.1824-23.0144a78.2336 78.2336 0 0 1 57.2096 24.8896c13.76 14.7136 20.736 33.7024 19.712 53.4848z" fill="#FFFFFF" /><path d="M866.304 0c40.512 0 73.472 32.3328 74.4704 72.6016l0.0256 1.8944v452.64c0.832 0.576 1.6384 1.216 2.4128 1.8944l1.1328 1.0688 67.9552 67.9552a25.6 25.6 0 0 1 0.9664 35.1808l-0.9664 1.024L940.8 705.792v243.7312c0 40.4928-32.32 73.44-72.576 74.4448l-1.8944 0.0256H151.2704c-40.4928 0-73.44-32.32-74.4448-72.576l-0.0256-1.8944V74.4704C76.8 33.984 109.12 1.0304 149.376 0.0256L151.2768 0H866.304z m0 19.2H151.2704A55.2704 55.2704 0 0 0 96 74.4704v875.0592A55.2768 55.2768 0 0 0 151.2704 1004.8h715.0592a55.2768 55.2768 0 0 0 55.2704-55.2704v-224.5184L731.5328 915.2H640a12.8 12.8 0 0 1-12.8-12.8v-91.5328l280.9408-280.768A25.504 25.504 0 0 1 921.6 523.0272V74.496A55.296 55.296 0 0 0 866.304 19.2z m3.232 576.6592L646.4 818.816V896h77.1776l222.9632-223.136-77.0048-77.0048z m52.1856-52.1792l-38.6048 38.6048 76.9984 76.9984 38.6048-38.6048a6.4 6.4 0 0 0 0-9.0496L930.7712 543.68a6.4 6.4 0 0 0-9.0496 0z" fill="#7D91A5" /></svg>