<svg class="icon" width="200px" height="200.00px" viewBox="0 0 1024 1024" version="1.1" xmlns="http://www.w3.org/2000/svg"><path d="M352 579.072L832 339.2v118.528L352 697.6zM275.2 294.9568L755.2 59.008v118.528L275.2 413.504z" fill="#E7EAF2" /><path d="M792.7488 22.5536a57.6128 57.6128 0 0 1 26.4192 46.496l0.032 1.9584v206.2592l58.1952-29.1008c27.2192-13.6064 59.1744 5.6576 60.1792 35.744l0.0256 1.472v389.2416a41.6 41.6 0 0 1-21.5552 36.4544l-1.44 0.7552-91.2512 45.6256c1.8112-8.0256 3.3088-15.936 4.512-23.7248l78.1504-39.0784a22.4 22.4 0 0 0 12.3456-18.7008l0.0384-1.3312V285.376c0-16.2688-16.736-26.9824-31.3984-20.512l-1.024 0.48-614.4 307.2a22.4 22.4 0 0 0-12.3392 18.7008l-0.0384 1.3312v345.024c0 45.952-37.248 83.2-83.2 83.2-45.2928 0-82.1312-36.192-83.1744-81.2352l-0.0256-1.9648V243.968a48 48 0 0 1 24.064-41.6l1.5552-0.864 198.208-104.4608a48 48 0 0 1 43.4304-0.672l1.7024 0.8768 89.4272 48.1472a28.8 28.8 0 0 0 24.8256 1.1904l1.4848-0.6784 258.784-126.6368a57.6128 57.6128 0 0 1 56.4672 3.2832z m-46.4448 13.2288l-1.5872 0.7296-258.7776 126.6432a48 48 0 0 1-42.1376 0.0256l-1.7216-0.8768-89.4208-48.1536a28.8 28.8 0 0 0-25.6512-0.8256l-1.4272 0.704-198.208 104.4608a28.8 28.8 0 0 0-15.3344 24.0256l-0.0384 1.4528V937.6c0 35.3472 28.6528 64 64 64 34.752 0 63.0272-27.6928 63.9744-62.208l0.0256-1.792V592.576a41.6 41.6 0 0 1 21.5552-36.4544l1.44-0.7552L800 286.8672V71.008a38.4064 38.4064 0 0 0-16.2816-31.392l-1.344-0.9088a38.4064 38.4064 0 0 0-36.0704-2.9248zM505.1776 916.544l-123.2832 61.632a9.6 9.6 0 0 1-9.3952-16.7168l0.8064-0.448 126.7328-63.3728c1.4272 6.5536 3.1424 12.864 5.1392 18.8992z" fill="#7D91A5" /><path d="M721.6192 536.2048c87.1872 0 131.7248 103.296 99.4688 230.72-32.2496 127.4304-129.0752 230.7264-216.256 230.7264-87.1936 0-131.7248-103.296-99.4752-230.7264 32.2496-127.424 129.0752-230.72 216.2624-230.72z m-29.2352 263.2c-14.1504 0-29.8624 16.7616-35.0912 37.44-5.2352 20.6784 1.9904 37.44 16.1408 37.44 14.144 0 29.856-16.7616 35.0912-37.44 5.2352-20.6784-1.9904-37.44-16.1408-37.44z m19.5776-141.7536a22.8608 22.8608 0 0 0-27.6032-16.832 38.4192 38.4192 0 0 0-29.344 39.0784l0.1024 1.5296 8.4992 99.8592a12.8256 12.8256 0 0 0 17.9712 10.6368 31.6608 31.6608 0 0 0 18.3936-23.648l0.2176-1.4976 12.2368-100.992a22.8928 22.8928 0 0 0-0.4736-8.1344z" fill="#106FFB" /></svg>