<svg class="icon" width="200px" height="200.00px" viewBox="0 0 1024 1024" version="1.1" xmlns="http://www.w3.org/2000/svg"><path d="M486.4 198.4H211.2v51.2h275.2v-51.2z m358.4 192H211.2v51.2h633.6v-51.2zM211.2 582.4h428.8v51.2H211.2v-51.2z m409.6 192H211.2v51.2h409.6v-51.2z" fill="#E7EAF2" /><path d="M698.176 0L940.8 237.376v199.7824a231.7952 231.7952 0 0 0-19.2-14.3488V251.3408h-205.3824a37.2352 37.2352 0 0 1-37.2096-35.8016l-0.0256-1.4272V19.2H151.2704a55.2704 55.2704 0 0 0-55.2448 53.6128l-0.0256 1.664v875.0528a55.2704 55.2704 0 0 0 53.6128 55.2448l1.664 0.0256h715.0528a55.2704 55.2704 0 0 0 55.2448-53.6128l0.0256-1.6576v-143.5648a231.7952 231.7952 0 0 0 19.2-14.3488v157.9136c0 40.4992-32.32 73.44-72.576 74.4448l-1.8944 0.0256H151.2704c-40.4928 0-73.44-32.32-74.4448-72.576l-0.0256-1.8944V74.4704C76.8 33.984 109.12 1.0304 149.376 0.0256L151.2768 0h546.912z m0.0064 26.8736v187.2384a18.0352 18.0352 0 0 0 15.8528 17.9008l1.088 0.1024 1.0944 0.032 191.7632-0.0128-209.7984-205.2608z" fill="#7D91A5" /><path d="M793.5872 384c127.2384 0 230.3872 103.1488 230.3872 230.3872 0 127.2384-103.1488 230.3872-230.3872 230.3872-127.2384 0-230.3872-103.1488-230.3872-230.3872C563.2 487.1488 666.3488 384 793.5872 384z m23.0144 86.528l-8.7488 8.7488a4.128 4.128 0 0 0 0 5.824L821.9456 499.2l-116.5952 87.4432-14.0864-14.0928a4.1216 4.1216 0 0 0-5.8304 0l-13.12 13.12a4.128 4.128 0 0 0 0 5.824l55.3856 55.3856L659.2 729.9456v14.5728h14.5728l83.072-68.4928 55.3728 55.3664a4.128 4.128 0 0 0 5.8368 0.0128l13.12-13.1136a4.128 4.128 0 0 0 0-5.8304l-14.0864-14.0928 87.4432-116.5888 14.0864 14.0864a4.128 4.128 0 0 0 5.8304 0l8.7424-8.7424a4.1152 4.1152 0 0 0 0-5.8304L822.432 470.528a4.1216 4.1216 0 0 0-5.8304 0z" fill="#106FFB" /></svg>