<svg class="icon" width="200px" height="200.00px" viewBox="0 0 1024 1024" version="1.1" xmlns="http://www.w3.org/2000/svg"><path d="M939.4624 68.9728c39.3408-16.672 83.392 10.6048 84.5184 51.7568l0.0192 1.6128v773.4912c0 41.5104-43.5456 69.536-83.008 53.9968l-1.5296-0.6272-25.1776-10.6688V79.6416l25.1776-10.6688zM160 282.368v458.656h-10.56c-46.5088 0-84.3456-35.9168-85.4144-80.6144l-0.0256-1.9456V364.928c0-44.9472 37.1712-81.504 83.4304-82.5408l2.016-0.0192H160zM160 802.0224h-20.608v149.9136c0 20.256 7.776 38.752 20.608 52.864v-202.7776z" fill="#E7EAF2" /><path d="M305.2544 794.3616v149.6512C305.2544 988.16 268.16 1024 222.3232 1024c-45.152 0-81.8368-34.7968-82.9056-78.0544l-0.0256-1.9392v-149.6512h165.8624z m-19.2 19.1936H158.592v130.4576c0 32.2432 26.4384 58.8928 60.096 60.6976l1.8112 0.064 1.824 0.032c34.7648 0 62.752-26.464 63.7056-59.072l0.0256-1.728v-130.4512zM939.4624 68.9664c39.4112-16.672 83.392 10.6624 84.5184 51.6736l0.0192 1.6064V894.4c0 41.3568-43.4752 69.44-83.008 53.9072l-1.536-0.6272-488.4416-206.6432V275.6096l488.448-206.6432zM1004.8 122.2464c0-27.4752-29.4016-46.5664-56.4864-36.1536l-1.376 0.5568-476.7232 201.6768v439.9808l476.7232 201.6832c26.5344 11.2256 55.8208-6.4 57.76-32.8128l0.0768-1.3952 0.0256-1.3888V122.24zM375.6224 275.6096v465.4208h-226.176c-46.5408 0-84.352-35.8784-85.4208-80.4672l-0.0256-1.9456V358.0288c0-44.8448 37.1456-81.3632 83.424-82.3936l2.0224-0.0256h226.176z m-19.2 19.2h-206.976c-35.5328 0-64.2752 26.6176-66.1504 59.7696l-0.0704 1.7152-0.0256 1.728v300.5952c0 34.1504 28.512 62.2592 64.416 63.1872l1.8304 0.0256h206.976V294.8096z" fill="#7D91A5" /><path d="M460.7744 236.7872c0 127.2384-103.1488 230.3872-230.3872 230.3872C103.1488 467.1744 0 364.032 0 236.7872 0 109.5488 103.1488 6.4 230.3872 6.4 357.632 6.4 460.7744 109.5488 460.7744 236.7872z" fill="#106FFB" /><path d="M460.7744 236.7872c0 127.2384-103.1488 230.3872-230.3872 230.3872C103.1488 467.1744 0 364.032 0 236.7872 0 109.5488 103.1488 6.4 230.3872 6.4 357.632 6.4 460.7744 109.5488 460.7744 236.7872z" fill="#106FFB" /><path d="M160 236.8a32 32 0 1 1-64 0 32 32 0 0 1 64 0zM262.4 236.8a32 32 0 1 1-64 0 32 32 0 0 1 64 0zM332.8 268.8a32 32 0 1 0 0-64 32 32 0 0 0 0 64z" fill="#FFFFFF" /></svg>