<svg class="icon" width="200px" height="200.00px" viewBox="0 0 1024 1024" version="1.1" xmlns="http://www.w3.org/2000/svg"><path d="M682.642286 0l256 256v725.357714a42.642286 42.642286 0 0 1-42.642286 42.642286H128a42.642286 42.642286 0 0 1-42.642286-42.642286V42.642286c0-23.552 19.017143-42.642286 42.642286-42.642286h554.642286z m-51.785143 356.571429h-124.342857a9.728 9.728 0 0 0-9.728 9.728v136.557714h48.713143V405.357714h85.357714a73.142857 73.142857 0 1 1 0 146.285715H435.785143a121.929143 121.929143 0 1 0 0 243.785142h112.201143c5.339429 0 9.728-4.388571 9.728-9.728V649.142857h-48.786286v97.499429h-73.142857a73.142857 73.142857 0 1 1 0-146.285715h195.072a121.929143 121.929143 0 1 0 0-243.785142z" fill="#FF4D52" /><path d="M682.642286 0l256 256H725.357714a42.642286 42.642286 0 0 1-42.715428-42.642286V0z" fill="#FFFFFF" /></svg>