<svg class="icon" width="200px" height="200.00px" viewBox="0 0 1024 1024" version="1.1" xmlns="http://www.w3.org/2000/svg"><path d="M714.277926 0A101.129481 101.129481 0 0 1 815.407407 101.129481v821.722075a101.129481 101.129481 0 0 1-101.129481 101.129481H309.722074A101.129481 101.129481 0 0 1 208.592593 922.851556V101.129481A101.129481 101.129481 0 0 1 309.722074 0h404.555852z m-303.407407 40.448H309.722074a60.681481 60.681481 0 0 0-60.586667 57.249185l-0.094814 3.432296v821.722075a60.681481 60.681481 0 0 0 57.249185 60.586666l3.432296 0.094815h404.555852a60.681481 60.681481 0 0 0 60.586667-57.230222l0.094814-3.451259V101.129481a60.681481 60.681481 0 0 0-57.249185-60.586666l-3.432296-0.094815h-101.148445V60.681481c0 10.42963-7.86963 19.000889-18.014814 20.100741l-2.199704 0.132741h-161.829926c-10.42963 0-19.000889-7.888593-20.100741-18.014815l-0.113777-2.218667V40.448z" fill="#30363E" /><path d="M714.277926 60.681481H633.362963a40.448 40.448 0 0 1-40.448 40.448h-161.829926A40.448 40.448 0 0 1 390.637037 60.681481H309.722074A40.466963 40.466963 0 0 0 269.274074 101.129481v819.427556c0 22.33837 18.128593 40.466963 40.448 40.466963h404.555852a40.466963 40.466963 0 0 0 40.448-40.466963V101.129481A40.466963 40.466963 0 0 0 714.277926 60.681481z" fill="#E8E9EB" /><path d="M410.870519 920.329481c0-5.575111 4.513185-10.107259 10.107259-10.107259h182.044444a10.107259 10.107259 0 0 1 0 20.233482h-182.044444a10.107259 10.107259 0 0 1-10.107259-10.126223z" fill="#30363E" /></svg>