<svg class="icon" width="200px" height="200.00px" viewBox="0 0 1024 1024" version="1.1" xmlns="http://www.w3.org/2000/svg"><path d="M128 0h554.642286l256 256v725.357714a42.642286 42.642286 0 0 1-42.642286 42.642286H128a42.642286 42.642286 0 0 1-42.642286-42.642286V42.642286c0-23.552 19.017143-42.642286 42.642286-42.642286z m591.213714 466.285714c0 45.421714-36.790857 82.285714-82.285714 82.285715H339.017143a3.803429 3.803429 0 0 0-3.803429 3.803428V811.885714c0 6.070857 4.900571 10.971429 10.971429 10.971429h32.914286a10.971429 10.971429 0 0 0 10.971428-10.971429V603.428571h246.857143a137.142857 137.142857 0 0 0 0-274.285714H336.091429a0.877714 0.877714 0 0 0-0.877715 0.877714v53.248c0 0.365714 0.365714 0.731429 0.731429 0.731429h300.982857c45.494857 0 82.285714 36.864 82.285714 82.285714z" fill="#FF772E" /><path d="M682.642286 0l256 256H725.357714a42.642286 42.642286 0 0 1-42.715428-42.642286V0z" fill="#FFFFFF" /></svg>