<svg class="icon" width="200px" height="200.00px" viewBox="0 0 1024 1024" version="1.1" xmlns="http://www.w3.org/2000/svg"><path d="M520.484571 888.905143c78.043429-1.828571 130.925714-28.525714 166.473143-67.730286 65.389714 5.632 115.126857 32.402286 115.126857 64.292572 0 35.986286-62.756571 65.389714-140.873142 65.389714-75.264 0-136.850286-27.574857-140.726858-61.952zM336.969143 821.101714c35.401143 39.131429 88.210286 65.828571 166.034286 67.730286-3.803429 34.450286-65.462857 62.025143-140.653715 62.025143-77.677714 0-140.873143-29.403429-140.873143-65.389714 0-32.329143 49.883429-58.806857 115.492572-64.365715z" fill="#F5B824" /><path d="M508.854857 73.142857l15.506286 0.438857 14.189714 1.316572 11.702857 1.609143 13.312 2.340571 14.628572 3.291429 15.725714 4.388571c80.676571 24.868571 192.585143 95.963429 199.826286 299.008l0.365714 20.260571 31.670857 101.814858 5.046857 6.875428 8.777143 13.238857 3.657143 5.851429 7.606857 13.458286c26.477714 48.713143 58.002286 134.948571 9.142857 213.357714l-4.315428 4.827428c-2.779429 2.925714-6.144 3.657143-13.165715-5.558857l-5.12-7.68a202.678857 202.678857 0 0 1-3.145142-5.12l-7.314286-13.165714-8.923429-17.408-10.678857-22.162286-4.242286 12.141715-7.094857 16.969142c-2.048 4.388571-4.388571 9.142857-7.021714 14.189715l-8.923429 16.091428c-34.742857 58.587429-107.958857 140.726857-247.442285 148.845715l-22.381715 0.658285c-148.187429-1.097143-226.450286-83.382857-264.118857-144.310857l-9.289143-16.018286-7.460571-14.482285-5.632-12.507429-5.558857-14.043428-2.413714-7.533715-10.532572 21.723429-12.580571 24.064-6.436572 10.971428-2.706285 4.242286-4.681143 6.217143c-4.096 4.754286-6.802286 5.558857-8.923429 4.754286l-2.048-1.243429-3.291428-3.218286-1.462858-1.243428c-45.860571-74.459429-19.602286-156.013714 5.851429-205.824l7.972571-14.628572 7.314286-12.214857 8.850286-13.238857 5.12-6.875428 32.036571-101.814858c0-220.891429 118.784-295.131429 202.24-320.073142l15.213715-4.096 14.116571-3.072 12.873143-2.267429 20.992-2.413714 13.165714-0.731429z m233.984 400.237714c-50.322286 41.837714-110.518857 59.538286-156.818286 66.852572l-18.944 2.56-16.822857 1.462857-14.262857 0.731429-11.337143 0.219428h-30.72l-12.873143-0.438857-15.579428-1.097143a413.842286 413.842286 0 0 1-8.777143-0.877714l-18.944-2.56c-46.372571-7.314286-106.569143-25.014857-156.598857-66.852572l-3.584 19.163429-1.755429 11.629714-3.657143 29.842286-1.462857 17.773714-1.170285 19.236572-0.512 20.48 0.146285 21.577143 1.024 22.235428c7.753143 116.662857 56.32 253.659429 241.810286 253.659429 185.417143 0 234.057143-136.996571 241.737143-253.659429l1.024-22.235428 0.146286-21.577143-0.512-20.48a659.163429 659.163429 0 0 0-0.512-9.801143l-1.316572-18.505143-1.682286-16.822857-3.657142-27.794286-4.388572-24.722286zM434.688 210.944c-31.085714 0.438857-57.051429 35.986286-57.051429 80.310857 0 44.324571 25.453714 80.310857 57.051429 80.310857 31.670857 0 57.051429-35.986286 57.051429-80.310857 0-44.324571-25.453714-80.310857-57.051429-80.310857z m146.578286 0c-31.524571 0.438857-57.051429 35.986286-57.051429 80.310857l0.292572 7.314286 0.658285 6.948571 0.804572-2.267428 2.925714-4.022857c7.314286-8.777143 26.916571-25.746286 61.44-17.773715l7.021714 1.974857c7.168 2.413714 13.531429 6.582857 10.24 15.067429-2.486857 6.582857-7.094857 7.68-10.752 7.094857l-3.218285-1.170286-4.388572-2.121142a44.397714 44.397714 0 0 0-52.516571 10.532571c-1.828571 1.828571-5.12 2.486857-8.192 0.292571a8.265143 8.265143 0 0 1-2.779429-3.657142c5.851429 35.547429 28.452571 62.098286 55.588572 62.098285 31.524571 0 57.051429-35.986286 57.051428-80.310857 0-44.324571-25.526857-80.310857-57.051428-80.310857z m-128.073143 45.641143l4.900571 0.731428c11.264 3.145143 19.675429 17.042286 19.675429 33.938286s-8.411429 30.72-19.675429 33.938286l-4.900571 0.731428c-13.604571 0-24.576-15.798857-24.576-34.669714 0-16.530286 8.338286-30.354286 19.602286-33.792l4.973714-0.877714z" fill="#161616" /><path d="M793.673143 405.796571S716.507429 544.475429 512 544.475429c-204.434286 0-281.673143-138.678857-281.673143-138.678858-32.914286 89.088-32.109714 101.814857-32.109714 101.814858 31.670857 35.108571 69.412571 64.073143 111.030857 85.577142-2.633143 29.842286-6.582857 75.483429-6.070857 98.742858 0.365714 36.425143 22.747429 38.619429 74.093714 43.885714 51.346286 4.827429 40.813714-8.777143 40.813714-32.036572V630.491429c54.491429 10.532571 93.549714 6.582857 93.549715 6.582857s178.980571 18.432 313.782857-130.340572c0.365714 0.877714 1.316571-11.849143-31.670857-100.937143z" fill="#D53118" /><path d="M662.528 422.473143c-46.08-21.942857-120.685714-28.964571-150.528-28.964572-29.842286 0-104.448 7.021714-150.528 28.964572-21.942857 7.460571-30.72 13.165714-30.72 20.626286 0 0.877714 0.877714 2.194286 2.194286 3.510857 43.008 26.770286 107.52 43.885714 179.492571 43.885714 71.972571 0 136.484571-17.115429 179.492572-43.885714 1.316571-1.755429 2.194286-2.633143 2.194285-3.510857-0.438857-7.460571-9.216-13.165714-31.597714-20.626286z" fill="#F0B225" /></svg>