<svg class="icon" width="200px" height="200.00px" viewBox="0 0 1024 1024" version="1.1" xmlns="http://www.w3.org/2000/svg"><path d="M219.428571 0h585.142858v219.428571L512 365.714286 219.428571 219.428571z" fill="#C7C9CC" fill-opacity=".4" /><path d="M512 146.285714l402.285714 219.428572v438.857143L512 1024l-402.285714-219.428571V365.714286L512 146.285714z m0 219.428572c-50.176 0-87.332571 25.453714-110.811429 54.857143C378.514286 448.804571 365.714286 484.059429 365.714286 512v7.460571a7.314286 7.314286 0 0 0 7.314285 7.314286h58.514286a7.314286 7.314286 0 0 0 7.314286-7.314286V512c0-8.630857 5.412571-28.233143 19.382857-45.714286C471.332571 449.974857 488.96 438.857143 512 438.857143c27.355429 0 44.544 9.362286 55.222857 21.065143 11.117714 12.288 17.92 30.500571 17.92 52.077714 0 22.089143-10.24 40.228571-32.548571 58.733714-23.552 19.602286-55.881143 36.059429-93.549715 54.857143C384.950857 662.674286 365.714286 733.842286 365.714286 768v29.257143a7.314286 7.314286 0 0 0 7.314285 7.314286h277.942858a7.314286 7.314286 0 0 0 7.314285-7.314286v-58.514286a7.314286 7.314286 0 0 0-7.314285-7.314286H449.609143c6.582857-12.141714 16.822857-24.795429 32.256-34.816l11.995428-6.656c35.108571-17.554286 74.825143-37.376 105.545143-62.976C631.954286 599.771429 658.285714 563.053714 658.285714 512c0-36.498286-11.483429-73.142857-36.937143-101.229714-23.332571-25.673143-56.173714-41.691429-95.817142-44.617143L512 365.714286z" fill="#C7C9CC" /></svg>