<svg class="icon" width="200px" height="200.00px" viewBox="0 0 1024 1024" version="1.1" xmlns="http://www.w3.org/2000/svg"><path d="M950.857143 73.142857v622.445714a18.285714 18.285714 0 0 1-7.533714 14.701715l-420.571429 305.883428a18.285714 18.285714 0 0 1-21.504 0l-420.571429-305.883428A18.285714 18.285714 0 0 1 73.142857 695.588571V73.142857h877.714286zM512 219.428571a22.893714 22.893714 0 0 0-18.066286 9.142858l-2.925714 4.681142-55.003429 116.662858-124.342857 18.944a22.674286 22.674286 0 0 0-18.066285 16.310857 25.380571 25.380571 0 0 0 2.633142 20.48l3.218286 4.096 89.673143 91.428571-21.065143 128.146286a25.6 25.6 0 0 0 8.996572 24.137143c5.632 4.388571 12.726857 5.851429 19.309714 4.096l4.827428-1.974857L512 594.578286l110.811429 61.001143a21.650286 21.650286 0 0 0 24.137142-2.121143 25.234286 25.234286 0 0 0 9.289143-18.651429l-0.292571-5.485714-21.065143-128.146286 89.673143-91.428571a25.088 25.088 0 0 0 5.851428-24.576 23.186286 23.186286 0 0 0-13.165714-14.994286l-4.900571-1.316571-124.342857-18.944-55.076572-116.662858A23.405714 23.405714 0 0 0 512 219.428571z" fill="#FF772E" /><path d="M0 0h1024v73.142857H0z" fill="#FF772E" fill-opacity=".5" /></svg>