<svg class="icon" width="200px" height="200.00px" viewBox="0 0 1024 1024" version="1.1" xmlns="http://www.w3.org/2000/svg"><path d="M682.642286 0l256 256v725.357714a42.642286 42.642286 0 0 1-42.642286 42.642286H128a42.642286 42.642286 0 0 1-42.642286-42.642286V42.642286c0-23.552 19.017143-42.642286 42.642286-42.642286h554.642286z m43.300571 365.714286h-427.885714A5.485714 5.485714 0 0 0 292.571429 371.2v43.885714c0 2.998857 2.486857 5.485714 5.485714 5.485715h186.514286v378.514285c0 2.998857 2.486857 5.485714 5.485714 5.485715h43.885714a5.485714 5.485714 0 0 0 5.485714-5.485715V420.571429h186.514286A5.485714 5.485714 0 0 0 731.428571 415.085714v-43.885714A5.485714 5.485714 0 0 0 725.942857 365.714286z" fill="#787E86" /><path d="M682.642286 0l256 256H725.357714a42.642286 42.642286 0 0 1-42.715428-42.642286V0z" fill="#FFFFFF" /></svg>