<svg class="icon" width="200px" height="200.00px" viewBox="0 0 1024 1024" version="1.1" xmlns="http://www.w3.org/2000/svg"><path d="M682.715429 0l256 256v725.357714a42.642286 42.642286 0 0 1-42.642286 42.642286H128a42.642286 42.642286 0 0 1-42.715429-42.642286V42.642286c0-23.552 19.090286-42.642286 42.715429-42.642286h554.642286z m-175.542858 719.213714h-32.914285a10.971429 10.971429 0 0 0-10.971429 10.971429v32.914286c0 6.070857 4.900571 10.971429 10.971429 10.971428h32.914285a10.971429 10.971429 0 0 0 10.971429-10.971428v-32.914286a10.971429 10.971429 0 0 0-10.971429-10.971429z m-15.945142-384c-39.204571 0-70.802286 10.532571-94.646858 31.597715-21.650286 19.163429-35.474286 45.860571-41.472 80.164571a10.532571 10.532571 0 0 0 9.362286 12.214857l32.182857 3.803429c5.851429 0.731429 11.190857-3.364571 12.434286-9.142857 5.12-24.283429 14.262857-42.569143 27.355429-54.857143 14.921143-13.897143 33.426286-20.845714 55.661714-20.845715 23.04 0 42.422857 7.68 58.294857 23.04a72.411429 72.411429 0 0 1 23.771429 53.540572 61.44 61.44 0 0 1-8.118858 31.012571c-5.412571 9.508571-17.188571 22.162286-35.254857 38.034286a390.656 390.656 0 0 0-37.522285 36.425143c-9.508571 11.410286-16.310857 22.747429-20.553143 33.938286-5.851429 14.921143-8.777143 32.621714-8.777143 53.101714l0.073143 6.436571a10.825143 10.825143 0 0 0 10.971428 10.678857h28.672a11.190857 11.190857 0 0 0 11.117715-10.752c0.585143-15.798857 1.974857-28.379429 4.022857-35.986285 2.486857-9.289143 6.363429-17.481143 11.556571-24.649143 5.266286-7.094857 16.384-18.285714 33.353143-33.28 25.307429-22.454857 42.349714-41.472 51.053714-57.124572a103.862857 103.862857 0 0 0 13.019429-51.346285c0-32.109714-12.361143-59.465143-37.083429-82.066286-24.722286-22.601143-57.929143-33.938286-99.474285-33.938286z" fill="#C0C6CE" /><path d="M682.642286 0l256 256H725.284571a42.642286 42.642286 0 0 1-42.642285-42.642286V0z" fill="#FFFFFF" /></svg>