<svg class="icon" width="200px" height="200.00px" viewBox="0 0 1024 1024" version="1.1" xmlns="http://www.w3.org/2000/svg"><path d="M682.642286 0l256 256v725.357714c0 21.211429-15.433143 38.765714-35.693715 42.057143L896 1024H128a42.642286 42.642286 0 0 1-42.642286-42.642286V42.642286c0-23.552 19.017143-42.642286 42.642286-42.642286h554.642286z m-31.451429 559.542857a4.827429 4.827429 0 0 0 4.388572 1.462857l1.974857-0.877714a4.827429 4.827429 0 0 0 2.121143-4.022857v-57.782857L518.948571 357.668571a9.801143 9.801143 0 0 0-5.412571-2.779428h-3.072a9.801143 9.801143 0 0 0-5.412571 2.779428L364.251429 498.395429v57.709714c0 2.633143 1.974857 4.461714 4.169142 4.827428l2.194286-0.146285 2.048-1.243429 114.688-114.614857v343.771429c0 2.779429 2.194286 4.973714 4.900572 4.973714h39.350857c2.706286 0 4.900571-2.194286 4.900571-4.900572v-343.771428L651.264 559.542857z" fill="#2E90FF" /><path d="M682.642286 0l256 256H725.357714a42.642286 42.642286 0 0 1-42.715428-42.642286V0z" fill="#FFFFFF" /></svg>