<svg class="icon" width="200px" height="200.00px" viewBox="0 0 1024 1024" version="1.1" xmlns="http://www.w3.org/2000/svg"><path d="M682.642286 0l256 256v725.357714a42.642286 42.642286 0 0 1-42.642286 42.642286H128a42.642286 42.642286 0 0 1-42.642286-42.642286V42.642286c0-23.552 19.017143-42.642286 42.642286-42.642286h554.642286zM576 426.642286h-256a21.357714 21.357714 0 0 0-20.772571 16.457143l-0.585143 4.900571v213.357714c0 10.093714 7.021714 18.505143 16.457143 20.772572l4.900571 0.512h256a21.357714 21.357714 0 0 0 20.772571-16.384l0.585143-4.900572V448a21.357714 21.357714 0 0 0-16.457143-20.772571l-4.900571-0.585143z m136.411429 33.353143l-72.411429 43.446857v102.4l72.411429 43.446857a8.557714 8.557714 0 0 0 12.946285-7.314286V467.382857a8.557714 8.557714 0 0 0-12.946285-7.314286z" fill="#2E90FF" /><path d="M682.642286 0l256 256H725.357714a42.642286 42.642286 0 0 1-42.715428-42.642286V0z" fill="#FFFFFF" /></svg>