<svg class="icon" width="200px" height="200.00px" viewBox="0 0 1024 1024" version="1.1" xmlns="http://www.w3.org/2000/svg"><path d="M682.642286 0l256 256v725.357714a42.642286 42.642286 0 0 1-42.642286 42.642286H128a42.642286 42.642286 0 0 1-42.642286-42.642286V42.642286c0-23.552 19.017143-42.642286 42.642286-42.642286h554.642286z m42.203428 408.356571H576.512a6.436571 6.436571 0 0 0-4.900571 2.340572l-1.389715 2.633143L495.908571 683.081143a120.758857 120.758857 0 0 0-73.874285-42.422857c-61.878857-10.532571-119.369143 26.770286-128.219429 83.382857-8.923429 56.539429 34.157714 110.884571 96.109714 121.417143 53.979429 9.142857 104.594286-17.993143 122.587429-62.610286l3.145143-9.142857 82.944-300.836572h113.005714a6.436571 6.436571 0 0 0 4.973714-2.413714l1.316572-2.56 13.385143-50.907428a6.875429 6.875429 0 0 0-3.876572-8.118858l-2.486857-0.512z" fill="#2E90FF" /><path d="M682.642286 0l256 256H725.357714a42.642286 42.642286 0 0 1-42.715428-42.642286V0z" fill="#FFFFFF" /></svg>