<svg class="icon" width="200px" height="200.00px" viewBox="0 0 1024 1024" version="1.1" xmlns="http://www.w3.org/2000/svg"><path d="M851.382857 590.189714c-22.162286-66.194286-90.404571-90.404571-105.910857-91.867428-15.506286-1.462857-29.549714-9.947429-19.309714-27.501715 10.313143-17.554286 29.330286-68.681143-7.241143-104.667428-36.571429-36.132571-116.516571-22.454857-173.056 0.877714-56.466286 23.332571-53.394286 7.021714-51.638857-8.923428 1.901714-16.822857 32.329143-111.030857-60.781715-122.441143C311.369143 220.891429 154.843429 370.834286 99.474286 457.142857 16.091429 587.629714 29.257143 675.84 29.257143 675.84h0.585143c10.020571 121.856 190.829714 218.916571 412.379428 218.916571 190.464 0 350.939429-71.899429 398.409143-169.472 0 0 0.073143-0.438857 0.512-1.170285 4.973714-10.532571 8.777143-21.211429 11.044572-32.256 6.656-26.185143 11.702857-64.219429-0.731429-101.668572z m-436.662857 251.245715c-157.696 0-285.696-84.114286-285.696-187.757715 0-103.643429 127.853714-187.757714 285.696-187.757714 157.696 0 285.622857 84.114286 285.622857 187.757714 0 103.862857-128 187.757714-285.622857 187.757715z" fill="#E71F19" /><path d="M803.108571 425.325714a23.113143 23.113143 0 0 0 30.354286-12.214857 111.908571 111.908571 0 0 0 8.923429-44.251428c0-62.464-51.2-113.298286-114.102857-113.298286-15.433143 0-30.354286 2.998857-44.470858 8.923428a23.04 23.04 0 1 0 18.139429 42.422858 67.584 67.584 0 0 1 94.134857 61.952 65.097143 65.097143 0 0 1-5.339428 26.258285 22.674286 22.674286 0 0 0 12.361142 30.208z" fill="#F5AA15" /><path d="M726.893714 114.102857c-25.965714 0-51.638857 3.803429-76.288 10.971429a34.596571 34.596571 0 0 0-23.478857 42.934857c5.485714 18.285714 24.795429 28.672 43.154286 23.332571a201.874286 201.874286 0 0 1 56.612571-8.045714c109.275429 0 198.217143 88.283429 198.217143 196.681143 0 19.456-2.925714 38.765714-8.411428 57.124571a34.450286 34.450286 0 0 0 33.353142 44.544 35.035429 35.035429 0 0 0 33.353143-24.502857c7.606857-24.868571 11.483429-50.834286 11.483429-77.165714C994.742857 233.325714 874.642286 114.102857 726.893714 114.102857z" fill="#F5AA15" /><path d="M388.315429 534.454857c-84.114286 0-152.356571 59.245714-152.356572 132.388572s68.169143 132.315429 152.356572 132.315428c84.114286 0 152.283429-59.245714 152.283428-132.388571S472.502857 534.454857 388.388571 534.454857z m-49.737143 218.331429a53.248 53.248 0 0 1-53.394286-53.028572c0-29.257143 23.917714-52.955429 53.394286-52.955428 29.403429 0 53.394286 23.771429 53.394285 52.955428 0 29.257143-23.990857 53.028571-53.394285 53.028572z m99.766857-95.524572c-6.363429 11.117714-19.309714 15.725714-28.745143 10.24-9.435429-5.339429-11.702857-18.724571-5.339429-29.769143 6.363429-11.117714 19.309714-15.725714 28.745143-10.24 9.435429 5.485714 11.702857 18.870857 5.339429 29.769143z" fill="#040000" /></svg>