<svg class="icon" width="200px" height="200.00px" viewBox="0 0 1024 1024" version="1.1" xmlns="http://www.w3.org/2000/svg"><path fill="#bfbfbf" d="M0 381.366857C0 208.969143 163.108571 73.142857 362.422857 73.142857c178.176 0 334.262857 108.470857 365.714286 254.464a302.006857 302.006857 0 0 0-34.889143-2.194286c-172.105143 0-308.150857 128.512-308.150857 286.939429 0 26.331429 4.096 51.712 11.190857 75.922286a411.794286 411.794286 0 0 1-33.865143 1.462857c-37.888 0-69.485714-6.509714-105.398857-13.824l-21.577143-4.388572-126.683428 63.634286 36.278857-109.056C54.345143 562.688 0 480.914286 0 381.366857z m191.634286-108.763428a49.298286 49.298286 0 1 0 98.523428 0 49.298286 49.298286 0 0 0-98.596571 0zM493.714286 321.828571a49.298286 49.298286 0 1 1 0-98.523428 49.298286 49.298286 0 0 1 0 98.523428z m222.354285 23.186286C878.957714 345.014857 1024 463.067429 1024 608.036571c0 81.700571-54.198857 154.038857-126.976 208.676572l27.282286 90.477714-99.328-54.345143-0.658286 0.146286c-35.986286 8.996571-72.265143 17.993143-108.178286 17.993143-172.397714 0-308.224-117.76-308.224-262.948572 0-144.822857 135.826286-263.021714 308.224-263.021714z m-136.045714 181.686857a41.033143 41.033143 0 1 0 82.139429 0 41.033143 41.033143 0 0 0-82.066286 0z m240.054857 40.740572a41.033143 41.033143 0 1 1 0-82.066286 41.033143 41.033143 0 0 1 0 82.066286z"  /></svg>