<svg class="icon" width="200px" height="200.00px" viewBox="0 0 1024 1024" version="1.1" xmlns="http://www.w3.org/2000/svg"><path d="M682.642286 0l256 256v725.357714c0 21.211429-15.433143 38.765714-35.693715 42.057143L896 1024H128a42.642286 42.642286 0 0 1-42.642286-42.642286V42.642286c0-23.552 19.017143-42.642286 42.642286-42.642286h554.642286zM676.571429 773.705143v0.365714h43.885714a10.971429 10.971429 0 0 0 10.971428-10.971428v-416.914286a10.971429 10.971429 0 0 0-10.971428-10.971429H687.542857a10.971429 10.971429 0 0 0-10.971428 10.971429v349.915428L531.382857 550.985143a27.355429 27.355429 0 0 0-16.384-7.899429H509.074286a27.355429 27.355429 0 0 0-16.384 7.899429L347.428571 696.100571V346.185143a10.971429 10.971429 0 0 0-10.971428-10.971429h-32.914286a10.971429 10.971429 0 0 0-10.971428 10.971429v416.914286c0 6.070857 4.900571 10.971429 10.971428 10.971428h43.885714v-0.365714L512 609.133714l164.571429 164.571429z" fill="#006EFF" /><path d="M682.642286 0l256 256H725.357714a42.642286 42.642286 0 0 1-42.715428-42.642286V0z" fill="#FFFFFF" /></svg>