<svg class="icon" width="200px" height="200.00px" viewBox="0 0 1024 1024" version="1.1" xmlns="http://www.w3.org/2000/svg"><path d="M682.642286 0l256 256v725.357714c0 21.211429-15.433143 38.765714-35.693715 42.057143L896 1024H128a42.642286 42.642286 0 0 1-42.642286-42.642286V42.642286c0-23.552 19.017143-42.642286 42.642286-42.642286h554.642286z m-6.363429 356.571429H461.750857a121.929143 121.929143 0 0 0 0 243.785142h121.856a73.142857 73.142857 0 0 1 8.557714 145.846858l-8.557714 0.438857H344.722286a4.900571 4.900571 0 0 0-4.900572 4.900571v38.985143c0 2.706286 2.194286 4.900571 4.900572 4.900571h238.884571a121.929143 121.929143 0 0 0 0-243.785142H461.750857a73.142857 73.142857 0 0 1 0-146.285715h214.528c2.706286 0 4.900571-2.194286 4.900572-4.900571v-38.985143a4.900571 4.900571 0 0 0-4.900572-4.900571z" fill="#FFB039" /><path d="M682.642286 0l256 256H725.357714a42.642286 42.642286 0 0 1-42.715428-42.642286V0z" fill="#FFFFFF" /></svg>