<?xml version="1.0" standalone="no"?><!DOCTYPE svg PUBLIC "-//W3C//DTD SVG 1.1//EN" "http://www.w3.org/Graphics/SVG/1.1/DTD/svg11.dtd"><svg class="icon" width="200px" height="200.00px" viewBox="0 0 1024 1024" version="1.1" xmlns="http://www.w3.org/2000/svg"><path d="M493.714286 10.532571a36.571429 36.571429 0 0 1 36.571428 0l406.820572 234.788572a36.571429 36.571429 0 0 1 18.285714 31.597714v469.577143a36.571429 36.571429 0 0 1-18.285714 31.597714l-406.820572 234.788572a36.571429 36.571429 0 0 1-36.571428 0l-406.820572-234.788572a36.571429 36.571429 0 0 1-18.285714-31.670857V276.918857a36.571429 36.571429 0 0 1 18.285714-31.597714z m251.757714 354.962286a47.542857 47.542857 0 0 0-63.414857-20.626286L512 429.860571 341.942857 344.868571a47.542857 47.542857 0 0 0-42.422857 84.992L464.457143 512.292571v189.952a47.542857 47.542857 0 0 0 95.085714 0V512.292571l165.010286-82.432a47.542857 47.542857 0 0 0 20.918857-64.365714z" /></svg>