<?xml version="1.0" standalone="no"?><!DOCTYPE svg PUBLIC "-//W3C//DTD SVG 1.1//EN" "http://www.w3.org/Graphics/SVG/1.1/DTD/svg11.dtd"><svg class="icon" width="200px" height="200.00px" viewBox="0 0 1024 1024" version="1.1" xmlns="http://www.w3.org/2000/svg"><path d="M987.428571 73.142857a36.571429 36.571429 0 0 1 36.571429 36.571429v804.571428a36.571429 36.571429 0 0 1-36.571429 36.571429H36.571429a36.571429 36.571429 0 0 1-36.571429-36.571429v-804.571428A36.571429 36.571429 0 0 1 36.571429 73.142857h950.857142zM365.714286 277.942857a146.285714 146.285714 0 0 0-85.577143 264.996572A193.536 193.536 0 0 0 171.885714 716.8v18.285714c0 10.093714 8.192 18.285714 18.285715 18.285715h58.514285a18.285714 18.285714 0 0 0 18.285715-18.285715V716.8a98.742857 98.742857 0 1 1 197.485714 0v18.285714c0 10.093714 8.192 18.285714 18.285714 18.285715h58.514286a18.285714 18.285714 0 0 0 18.285714-18.285715V716.8a193.828571 193.828571 0 0 0-108.324571-174.006857A146.285714 146.285714 0 0 0 365.714286 277.942857z m457.142857 288.914286h-146.285714A18.285714 18.285714 0 0 0 658.285714 585.142857v58.514286c0 10.093714 8.192 18.285714 18.285715 18.285714h146.285714a18.285714 18.285714 0 0 0 18.285714-18.285714V585.142857a18.285714 18.285714 0 0 0-18.285714-18.285714zM365.714286 373.028571a51.2 51.2 0 1 1 0 102.4 51.2 51.2 0 0 1 0-102.4z m457.142857-25.6h-219.428572A18.285714 18.285714 0 0 0 585.142857 365.714286v58.514285c0 10.093714 8.192 18.285714 18.285714 18.285715h219.428572a18.285714 18.285714 0 0 0 18.285714-18.285715V365.714286a18.285714 18.285714 0 0 0-18.285714-18.285715z" /></svg>