<?xml version="1.0" standalone="no"?><!DOCTYPE svg PUBLIC "-//W3C//DTD SVG 1.1//EN" "http://www.w3.org/Graphics/SVG/1.1/DTD/svg11.dtd"><svg class="icon" width="200px" height="200.00px" viewBox="0 0 1024 1024" version="1.1" xmlns="http://www.w3.org/2000/svg"><path d="M73.142857 987.428571a36.571429 36.571429 0 0 0 36.571429 36.571429h649.435428a51.346286 51.346286 0 0 1-2.121143-14.628571v-84.114286H672.914286a51.2 51.2 0 0 1-51.2-51.2v-65.828572a51.2 51.2 0 0 1 51.2-51.2h84.114285V672.914286a51.2 51.2 0 0 1 51.2-51.2h65.828572a51.2 51.2 0 0 1 51.2 51.2H950.857143V109.714286a36.571429 36.571429 0 0 0-36.571429-36.571429h-804.571428a36.571429 36.571429 0 0 0-36.571429 36.571429v877.714285z m512-460.8a14.628571 14.628571 0 0 0-14.628571-14.628571H307.2a14.628571 14.628571 0 0 0-14.628571 14.628571v65.828572c0 8.045714 6.582857 14.628571 14.628571 14.628571h263.314286a14.628571 14.628571 0 0 0 14.628571-14.628571v-65.828572z m-292.571428-219.428571c0-8.045714 6.582857-14.628571 14.628571-14.628571h409.6c8.045714 0 14.628571 6.582857 14.628571 14.628571v65.828571a14.628571 14.628571 0 0 1-14.628571 14.628572H307.2a14.628571 14.628571 0 0 1-14.628571-14.628572v-65.828571z m596.114285 365.714286a14.628571 14.628571 0 0 0-14.628571-14.628572h-65.828572a14.628571 14.628571 0 0 0-14.628571 14.628572v120.685714H672.914286a14.628571 14.628571 0 0 0-14.628572 14.628571v65.828572c0 8.045714 6.582857 14.628571 14.628572 14.628571h120.685714v120.685715c0 8.045714 6.582857 14.628571 14.628571 14.628571h65.828572a14.628571 14.628571 0 0 0 14.628571-14.628571v-120.685715h120.685715a14.628571 14.628571 0 0 0 14.628571-14.628571v-65.828572a14.628571 14.628571 0 0 0-14.628571-14.628571h-120.685715V672.914286z" /></svg>