<?xml version="1.0" standalone="no"?><!DOCTYPE svg PUBLIC "-//W3C//DTD SVG 1.1//EN" "http://www.w3.org/Graphics/SVG/1.1/DTD/svg11.dtd"><svg class="icon" width="200px" height="186.69px" viewBox="0 0 1097 1024" version="1.1" xmlns="http://www.w3.org/2000/svg"><path d="M761.270857 0a14.628571 14.628571 0 0 1 11.117714 5.12l211.529143 246.784a14.628571 14.628571 0 0 1 3.510857 9.508571V987.428571a36.571429 36.571429 0 0 1-29.988571 35.986286L950.857143 1024H146.285714a36.571429 36.571429 0 0 1-36.571428-36.571429V36.571429A36.571429 36.571429 0 0 1 146.285714 0zM581.485714 365.714286h-65.828571a14.628571 14.628571 0 0 0-14.628572 14.628571v120.685714H380.342857a14.628571 14.628571 0 0 0-14.628571 14.628572v65.828571c0 8.045714 6.582857 14.628571 14.628571 14.628572h120.685714V716.8c0 8.045714 6.582857 14.628571 14.628572 14.628571h65.828571l3.876572-0.512A14.628571 14.628571 0 0 0 596.114286 716.8V596.114286H716.8l3.876571-0.512A14.628571 14.628571 0 0 0 731.428571 581.485714v-65.828571a14.628571 14.628571 0 0 0-14.628571-14.628572H596.114286V380.342857a14.628571 14.628571 0 0 0-14.628572-14.628571zM731.721143 71.68v219.428571h190.902857l-190.902857-219.428571z" /></svg>