<?xml version="1.0" standalone="no"?><!DOCTYPE svg PUBLIC "-//W3C//DTD SVG 1.1//EN" "http://www.w3.org/Graphics/SVG/1.1/DTD/svg11.dtd"><svg class="icon" width="200px" height="200.00px" viewBox="0 0 1024 1024" version="1.1" xmlns="http://www.w3.org/2000/svg"><path d="M512 0a438.857143 438.857143 0 0 1 438.857143 438.857143c0 256-365.714286 585.142857-438.857143 585.142857S73.142857 694.857143 73.142857 438.857143a438.857143 438.857143 0 0 1 438.857143-438.857143z m0 245.028571a193.828571 193.828571 0 1 0 0 387.657143 193.828571 193.828571 0 0 0 0-387.657143z m0 95.085715a98.742857 98.742857 0 1 1 0 197.485714 98.742857 98.742857 0 0 1 0-197.485714z" /></svg>