<?xml version="1.0" standalone="no"?><!DOCTYPE svg PUBLIC "-//W3C//DTD SVG 1.1//EN" "http://www.w3.org/Graphics/SVG/1.1/DTD/svg11.dtd"><svg class="icon" width="200px" height="200.00px" viewBox="0 0 1024 1024" version="1.1" xmlns="http://www.w3.org/2000/svg"><path d="M512 0a512 512 0 1 1 0 1024A512 512 0 0 1 512 0z m-23.625143 267.044571a25.746286 25.746286 0 0 0-36.425143 0.365715l-21.796571 22.235428a25.746286 25.746286 0 0 0 0 35.986286L612.937143 512 430.08 698.368a25.746286 25.746286 0 0 0 0 35.986286l21.796571 22.235428c10.532571 10.24 26.843429 10.166857 36.790858 0l222.134857-226.596571a25.746286 25.746286 0 0 0 0-35.986286L488.740571 267.410286z" /></svg>