<?xml version="1.0" standalone="no"?><!DOCTYPE svg PUBLIC "-//W3C//DTD SVG 1.1//EN" "http://www.w3.org/Graphics/SVG/1.1/DTD/svg11.dtd"><svg class="icon" width="200px" height="200.00px" viewBox="0 0 1024 1024" version="1.1" xmlns="http://www.w3.org/2000/svg"><path d="M512 0a512 512 0 1 1 0 1024A512 512 0 0 1 512 0z m60.635429 299.154286a27.282286 27.282286 0 0 0-38.546286-1.243429l-1.243429 1.243429-15.36 16.310857a27.282286 27.282286 0 0 0 0 37.302857L666.916571 512 517.558857 671.232a27.282286 27.282286 0 0 0 0 37.302857l15.286857 16.310857a27.282286 27.282286 0 0 0 39.789715 0l181.979428-194.194285a27.282286 27.282286 0 0 0 0-37.302858z m-248.173715 0a27.282286 27.282286 0 0 0-38.546285-1.243429l-1.243429 1.243429-15.286857 16.310857a27.282286 27.282286 0 0 0 0 37.302857L418.669714 512l-149.211428 159.232a27.282286 27.282286 0 0 0 0 37.302857l15.213714 16.310857a27.282286 27.282286 0 0 0 39.789714 0l181.979429-194.194285a27.282286 27.282286 0 0 0 0-37.302858z" /></svg>