<?xml version="1.0" standalone="no"?><!DOCTYPE svg PUBLIC "-//W3C//DTD SVG 1.1//EN" "http://www.w3.org/Graphics/SVG/1.1/DTD/svg11.dtd"><svg class="icon" width="200px" height="200.00px" viewBox="0 0 1024 1024" version="1.1" xmlns="http://www.w3.org/2000/svg"><path d="M512 0a512 512 0 1 1 0 1024A512 512 0 0 1 512 0z m22.381714 375.661714a32.182857 32.182857 0 0 0-44.763428 0L272.530286 585.728l-0.731429 0.731429a32.182857 32.182857 0 0 0 0.731429 45.494857l16.969143 16.384a32.182857 32.182857 0 0 0 44.763428 0L512 476.306286l177.737143 172.032a32.182857 32.182857 0 0 0 44.763428 0l16.969143-16.384 0.731429-0.731429a32.182857 32.182857 0 0 0-0.731429-45.494857z" /></svg>