<?xml version="1.0" standalone="no"?><!DOCTYPE svg PUBLIC "-//W3C//DTD SVG 1.1//EN" "http://www.w3.org/Graphics/SVG/1.1/DTD/svg11.dtd"><svg class="icon" width="200px" height="200.00px" viewBox="0 0 1024 1024" version="1.1" xmlns="http://www.w3.org/2000/svg"><path d="M512 0a512 512 0 1 1 0 1024A512 512 0 0 1 512 0z m85.650286 270.409143a30.208 30.208 0 0 0-42.715429 0.731428l-212.845714 219.867429a30.208 30.208 0 0 0 0 41.984l212.845714 219.940571a30.208 30.208 0 0 0 43.446857 0l19.090286-19.748571a30.208 30.208 0 0 0 0-42.057143L444.123429 512l173.348571-179.2a30.208 30.208 0 0 0 0-41.910857l-19.090286-19.748572a30.208 30.208 0 0 0-0.731428-0.731428z" /></svg>