<?xml version="1.0" standalone="no"?><!DOCTYPE svg PUBLIC "-//W3C//DTD SVG 1.1//EN" "http://www.w3.org/Graphics/SVG/1.1/DTD/svg11.dtd"><svg class="icon" width="200px" height="200.00px" viewBox="0 0 1024 1024" version="1.1" xmlns="http://www.w3.org/2000/svg"><path d="M512 0a512 512 0 1 1 0 1024A512 512 0 0 1 512 0z m-29.037714 281.819429a26.331429 26.331429 0 0 0-33.060572 4.461714l-194.56 207.725714a26.331429 26.331429 0 0 0 0 36.059429l195.145143 208.237714 4.900572 3.876571a26.331429 26.331429 0 0 0 32.987428-4.461714l19.236572-20.48a26.331429 26.331429 0 0 0 0-36.132571L349.110857 512 507.611429 342.893714a26.331429 26.331429 0 0 0 0-36.059428l-19.748572-21.211429z m261.12 0a26.331429 26.331429 0 0 0-33.060572 4.461714L516.388571 494.006857a26.331429 26.331429 0 0 0 0 36.059429l195.218286 208.237714 4.827429 3.876571a26.331429 26.331429 0 0 0 33.060571-4.461714l19.236572-20.48a26.331429 26.331429 0 0 0 0-36.132571L610.157714 512l158.573715-169.106286a26.331429 26.331429 0 0 0 0-36.059428l-19.821715-21.211429z" /></svg>