<?xml version="1.0" standalone="no"?><!DOCTYPE svg PUBLIC "-//W3C//DTD SVG 1.1//EN" "http://www.w3.org/Graphics/SVG/1.1/DTD/svg11.dtd"><svg class="icon" width="200px" height="200.00px" viewBox="0 0 1024 1024" version="1.1" xmlns="http://www.w3.org/2000/svg"><path d="M512 0a512 512 0 1 1 0 1024A512 512 0 0 1 512 0zM325.632 371.638857a25.746286 25.746286 0 0 0-35.986286 0l-22.235428 21.796572a25.819429 25.819429 0 0 0 0 36.790857l226.596571 222.134857a25.746286 25.746286 0 0 0 35.986286 0l226.596571-222.134857a25.819429 25.819429 0 0 0 0-36.790857l-22.235428-21.796572a25.746286 25.746286 0 0 0-35.986286 0L512 554.422857z" /></svg>