<?xml version="1.0" standalone="no"?><!DOCTYPE svg PUBLIC "-//W3C//DTD SVG 1.1//EN" "http://www.w3.org/Graphics/SVG/1.1/DTD/svg11.dtd"><svg class="icon" width="200px" height="200.00px" viewBox="0 0 1024 1024" version="1.1" xmlns="http://www.w3.org/2000/svg"><path d="M520.630857 6.290286l424.228572 308.516571a14.628571 14.628571 0 0 1 5.997714 11.849143V1009.371429a14.628571 14.628571 0 0 1-14.628572 14.628571H87.771429a14.628571 14.628571 0 0 1-14.628572-14.628571V326.656a14.628571 14.628571 0 0 1 5.997714-11.849143l424.228572-308.516571a14.628571 14.628571 0 0 1 17.261714 0zM424.155429 369.371429a18.285714 18.285714 0 0 0-25.746286-2.340572l-44.909714 37.449143a18.285714 18.285714 0 0 0-2.340572 25.746286l60.562286 72.630857H365.714286a18.285714 18.285714 0 0 0-18.285715 18.285714v58.514286c0 10.093714 8.192 18.285714 18.285715 18.285714h98.742857v37.814857H365.714286a18.285714 18.285714 0 0 0-18.285715 18.285715v58.514285c0 10.093714 8.192 18.285714 18.285715 18.285715h98.742857v68.169142c0 10.093714 8.192 18.285714 18.285714 18.285715h58.514286a18.285714 18.285714 0 0 0 18.285714-18.285715v-68.169142h92.891429a18.285714 18.285714 0 0 0 18.285714-18.285715v-58.514285a18.285714 18.285714 0 0 0-18.285714-18.285715H559.542857v-37.814857h92.891429a18.285714 18.285714 0 0 0 18.285714-18.285714v-58.514286a18.285714 18.285714 0 0 0-18.285714-18.285714h-38.912l59.538285-71.021714a18.285714 18.285714 0 0 0-2.340571-25.746286l-44.982857-37.449143a18.285714 18.285714 0 0 0-25.746286 2.340571L512.585143 475.428571z" /></svg>