<?xml version="1.0" standalone="no"?><!DOCTYPE svg PUBLIC "-//W3C//DTD SVG 1.1//EN" "http://www.w3.org/Graphics/SVG/1.1/DTD/svg11.dtd"><svg class="icon" width="200px" height="186.69px" viewBox="0 0 1097 1024" version="1.1" xmlns="http://www.w3.org/2000/svg"><path d="M387.657143 69.193143a14.628571 14.628571 0 0 0-14.628572-14.628572h-65.828571a14.628571 14.628571 0 0 0-14.628571 14.628572V146.285714H120.685714a36.571429 36.571429 0 0 0-36.571428 36.571429v171.885714h877.714285V182.857143a36.571429 36.571429 0 0 0-36.571428-36.571429H753.371429V69.193143a14.628571 14.628571 0 0 0-14.628572-14.628572h-65.828571a14.628571 14.628571 0 0 0-14.628572 14.628572V146.285714H387.657143V69.193143zM961.828571 449.828571h-877.714285v537.6a36.571429 36.571429 0 0 0 36.571428 36.571429h804.571429a36.571429 36.571429 0 0 0 36.571428-36.571429V449.828571z" /></svg>