<?xml version="1.0" standalone="no"?><!DOCTYPE svg PUBLIC "-//W3C//DTD SVG 1.1//EN" "http://www.w3.org/Graphics/SVG/1.1/DTD/svg11.dtd"><svg class="icon" width="200px" height="200.00px" viewBox="0 0 1024 1024" version="1.1" xmlns="http://www.w3.org/2000/svg"><path d="M708.827429 73.142857a36.571429 36.571429 0 0 1 32.694857 20.187429L804.571429 219.428571h182.857142a36.571429 36.571429 0 0 1 36.571429 36.571429v658.285714a36.571429 36.571429 0 0 1-36.571429 36.571429H36.571429a36.571429 36.571429 0 0 1-36.571429-36.571429v-658.285714A36.571429 36.571429 0 0 1 36.571429 219.428571H219.428571l63.049143-126.098285A36.571429 36.571429 0 0 1 315.172571 73.142857h393.654858zM512 329.142857a219.428571 219.428571 0 1 0 0 438.857143 219.428571 219.428571 0 0 0 0-438.857143z m0 95.085714a124.342857 124.342857 0 1 1 0 248.685715 124.342857 124.342857 0 0 1 0-248.685715z m329.142857-58.514285a36.571429 36.571429 0 1 0 0 73.142857 36.571429 36.571429 0 0 0 0-73.142857z" /></svg>