<?xml version="1.0" standalone="no"?><!DOCTYPE svg PUBLIC "-//W3C//DTD SVG 1.1//EN" "http://www.w3.org/Graphics/SVG/1.1/DTD/svg11.dtd"><svg class="icon" width="200px" height="200.00px" viewBox="0 0 1024 1024" version="1.1" xmlns="http://www.w3.org/2000/svg"><path d="M503.369143 6.290286a14.628571 14.628571 0 0 1 17.261714 0l424.228572 308.516571a14.628571 14.628571 0 0 1 5.997714 11.776V936.228571a14.628571 14.628571 0 0 1-14.628572 14.628572H87.771429a14.628571 14.628571 0 0 1-14.628572-14.628572V326.582857a14.628571 14.628571 0 0 1 5.997714-11.776zM676.571429 647.314286h-329.142858a18.285714 18.285714 0 0 0-18.285714 18.285714v58.514286c0 10.093714 8.192 18.285714 18.285714 18.285714h329.142858a18.285714 18.285714 0 0 0 18.285714-18.285714v-58.514286a18.285714 18.285714 0 0 0-18.285714-18.285714z m0-182.857143h-329.142858a18.285714 18.285714 0 0 0-18.285714 18.285714v58.514286c0 10.093714 8.192 18.285714 18.285714 18.285714h329.142858a18.285714 18.285714 0 0 0 18.285714-18.285714v-58.514286a18.285714 18.285714 0 0 0-18.285714-18.285714z" /></svg>