<?xml version="1.0" standalone="no"?><!DOCTYPE svg PUBLIC "-//W3C//DTD SVG 1.1//EN" "http://www.w3.org/Graphics/SVG/1.1/DTD/svg11.dtd"><svg class="icon" width="200px" height="200.00px" viewBox="0 0 1024 1024" version="1.1" xmlns="http://www.w3.org/2000/svg"><path d="M877.714286 0a73.142857 73.142857 0 0 1 73.142857 73.142857v877.714286a73.142857 73.142857 0 0 1-73.142857 73.142857H146.285714a73.142857 73.142857 0 0 1-73.142857-73.142857V73.142857a73.142857 73.142857 0 0 1 73.142857-73.142857h731.428572zM643.657143 731.428571H380.342857a14.628571 14.628571 0 0 0-14.628571 14.628572v65.828571c0 8.045714 6.582857 14.628571 14.628571 14.628572h263.314286l3.876571-0.512A14.628571 14.628571 0 0 0 658.285714 811.885714v-65.828571a14.628571 14.628571 0 0 0-14.628571-14.628572zM390.582857 292.571429H290.011429a7.314286 7.314286 0 0 0-6.436572 10.752l171.154286 321.609142a14.628571 14.628571 0 0 0 12.873143 7.753143h88.502857a14.628571 14.628571 0 0 0 13.092571-8.045714l118.491429-236.982857h27.209143a14.628571 14.628571 0 0 0 13.312-8.484572l35.035428-76.214857A7.314286 7.314286 0 0 0 756.589714 292.571429H651.483429a36.571429 36.571429 0 0 0-32.694858 20.187428L512 526.336l-114.834286-229.668571A7.314286 7.314286 0 0 0 390.582857 292.571429z" /></svg>