<?xml version="1.0" standalone="no"?><!DOCTYPE svg PUBLIC "-//W3C//DTD SVG 1.1//EN" "http://www.w3.org/Graphics/SVG/1.1/DTD/svg11.dtd"><svg class="icon" width="200px" height="200.00px" viewBox="0 0 1024 1024" version="1.1" xmlns="http://www.w3.org/2000/svg"><path d="M804.571429 0a219.428571 219.428571 0 0 1 219.428571 219.428571v365.714286a219.428571 219.428571 0 0 1-219.428571 219.428572H585.142857l-272.310857 181.540571a36.571429 36.571429 0 0 1-56.832-30.427429V804.571429H219.428571a219.428571 219.428571 0 0 1-219.428571-219.428572V219.428571a219.428571 219.428571 0 0 1 219.428571-219.428571h585.142858zM299.885714 343.771429a65.828571 65.828571 0 1 0 0 131.657142 65.828571 65.828571 0 0 0 0-131.657142z m212.114286 0a65.828571 65.828571 0 1 0 0 131.657142 65.828571 65.828571 0 0 0 0-131.657142z m212.114286 0a65.828571 65.828571 0 1 0 0 131.657142 65.828571 65.828571 0 0 0 0-131.657142z" /></svg>