<?xml version="1.0" standalone="no"?><!DOCTYPE svg PUBLIC "-//W3C//DTD SVG 1.1//EN" "http://www.w3.org/Graphics/SVG/1.1/DTD/svg11.dtd"><svg class="icon" width="200px" height="200.00px" viewBox="0 0 1024 1024" version="1.1" xmlns="http://www.w3.org/2000/svg"><path d="M731.428571 118.784a14.628571 14.628571 0 0 0-8.045714-13.165714l-204.8-102.4a14.628571 14.628571 0 0 0-13.165714 0l-204.8 102.4a14.628571 14.628571 0 0 0-8.045714 13.165714v274.432a14.628571 14.628571 0 0 0 8.045714 13.165714l204.8 102.4a14.628571 14.628571 0 0 0 13.165714 0l204.8-102.4a14.628571 14.628571 0 0 0 8.045714-13.165714V118.784z m-518.582857 396.434286a14.628571 14.628571 0 0 1 13.165715 0l204.8 102.4a14.628571 14.628571 0 0 1 8.045714 13.165714v274.432a14.628571 14.628571 0 0 1-8.045714 13.165714l-204.8 102.4a14.628571 14.628571 0 0 1-13.165715 0l-204.8-102.4a14.628571 14.628571 0 0 1-8.045714-13.165714V630.784a14.628571 14.628571 0 0 1 8.045714-13.165714l204.8-102.4z m598.308572 0a14.628571 14.628571 0 0 0-13.165715 0l-204.8 102.4a14.628571 14.628571 0 0 0-8.045714 13.165714v274.432a14.628571 14.628571 0 0 0 8.045714 13.165714l204.8 102.4a14.628571 14.628571 0 0 0 13.165715 0l204.8-102.4a14.628571 14.628571 0 0 0 8.045714-13.165714V630.784a14.628571 14.628571 0 0 0-8.045714-13.165714l-204.8-102.4z" /></svg>