<?xml version="1.0" standalone="no"?><!DOCTYPE svg PUBLIC "-//W3C//DTD SVG 1.1//EN" "http://www.w3.org/Graphics/SVG/1.1/DTD/svg11.dtd"><svg class="icon" width="200px" height="186.69px" viewBox="0 0 1097 1024" version="1.1" xmlns="http://www.w3.org/2000/svg"><path d="M383.268571 325.12l576.804572 376.173714c-5.485714 10.971429-11.190857 22.162286-17.261714 33.499429-30.72 57.782857-78.482286 124.342857-117.248 175.177143-23.113143 30.281143-46.811429 59.977143-71.241143 89.234285a47.542857 47.542857 0 0 1-63.341715 8.411429l-399.36-274.578286 105.033143-183.661714-203.264 116.150857-114.834285-78.994286a25.6 25.6 0 0 1 0.731428-42.642285c40.228571-25.6 80.237714-51.638857 119.588572-78.555429 52.004571-35.620571 114.322286-80.237714 159.232-118.272 8.484571-7.168 16.822857-14.482286 25.161142-21.942857zM938.496 17.554286a18.285714 18.285714 0 0 1 25.526857-4.242286l65.536 46.592a18.285714 18.285714 0 0 1 4.388572 25.526857l-143.579429 201.728 151.844571 96.548572a36.571429 36.571429 0 0 1 16.457143 36.864 517.851429 517.851429 0 0 1-6.436571 32.329142c-7.826286 33.645714-25.526857 98.596571-61.074286 181.394286l-552.96-360.594286a3347.163429 3347.163429 0 0 0 113.883429-118.710857c9.069714-9.874286 18.066286-19.748571 27.062857-29.769143a36.571429 36.571429 0 0 1 46.811428-6.363428l165.595429 105.325714z" /></svg>