<?xml version="1.0" standalone="no"?><!DOCTYPE svg PUBLIC "-//W3C//DTD SVG 1.1//EN" "http://www.w3.org/Graphics/SVG/1.1/DTD/svg11.dtd"><svg class="icon" width="200px" height="200.00px" viewBox="0 0 1024 1024" version="1.1" xmlns="http://www.w3.org/2000/svg"><path d="M149.965333 149.939002a511.986835 511.986835 0 1 1 724.095666 724.095666 511.986835 511.986835 0 0 1-724.095666-724.095666z m201.649672 81.186483l-44.90856 37.44818a18.285244 18.285244 0 0 0-2.340511 25.745624l107.370953 128.8744H310.875481a18.285244 18.285244 0 0 0-18.285244 18.285244v58.512781c0 10.093455 8.191789 18.285244 18.285244 18.285245h153.59605v57.342525h-153.59605a18.285244 18.285244 0 0 0-18.285244 18.285244v58.512781c0 10.093455 8.191789 18.285244 18.285244 18.285244h153.59605v80.455074c0 10.093455 8.191789 18.285244 18.285245 18.285244h58.512781a18.285244 18.285244 0 0 0 18.285244-18.285244v-80.455074h153.59605a18.285244 18.285244 0 0 0 18.285244-18.285244v-58.512781a18.285244 18.285244 0 0 0-18.285244-18.285244h-153.59605v-57.342525h153.59605a18.285244 18.285244 0 0 0 18.285244-18.285245v-58.512781a18.285244 18.285244 0 0 0-18.285244-18.285244H613.532841l106.127557-127.411581a18.285244 18.285244 0 0 0-2.340511-25.745623l-44.90856-37.44818a18.285244 18.285244 0 0 0-25.745623 2.340511L512.598294 395.765823 377.43377 233.465997a18.285244 18.285244 0 0 0-25.745624-2.340512z" /></svg>