<?xml version="1.0" standalone="no"?><!DOCTYPE svg PUBLIC "-//W3C//DTD SVG 1.1//EN" "http://www.w3.org/Graphics/SVG/1.1/DTD/svg11.dtd"><svg class="icon" width="200px" height="200.00px" viewBox="0 0 1024 1024" version="1.1" xmlns="http://www.w3.org/2000/svg"><path d="M548.566727 73.14223c14.921015 0 29.622603 0.731422 44.177907 2.047983v429.198607h429.198606A475.424496 475.424496 0 1 1 548.566727 73.14223zM650.453853 83.382142a10.239912 10.239912 0 0 1 10.239912-10.239912h67.87599a10.239912 10.239912 0 0 1 10.16677 10.239912v353.130688a10.239912 10.239912 0 0 1-10.239912 10.239912h-67.87599a10.239912 10.239912 0 0 1-10.239912-10.239912V83.309zM786.278975 194.558332a10.239912 10.239912 0 0 1 10.239912-10.239912h67.87599a10.239912 10.239912 0 0 1 10.239912 10.239912v241.954498a10.239912 10.239912 0 0 1-10.239912 10.239912h-67.949132a10.239912 10.239912 0 0 1-10.16677-10.239912V194.558332zM1010.386768 381.948726a10.239912 10.239912 0 0 0-10.16677-10.239912h-67.949132a10.239912 10.239912 0 0 0-10.16677 10.239912v54.564104c0 5.631952 4.607961 10.239912 10.239912 10.239912h67.87599a10.239912 10.239912 0 0 0 10.239912-10.239912v-54.564104z" /></svg>