<?xml version="1.0" standalone="no"?><!DOCTYPE svg PUBLIC "-//W3C//DTD SVG 1.1//EN" "http://www.w3.org/Graphics/SVG/1.1/DTD/svg11.dtd"><svg class="icon" width="200px" height="186.69px" viewBox="0 0 1097 1024" version="1.1" xmlns="http://www.w3.org/2000/svg"><path d="M36.571429 186.514286c0-8.045714 6.582857-14.628571 14.628571-14.628572H219.428571V73.142857a73.142857 73.142857 0 0 1 73.142858-73.142857h512a73.142857 73.142857 0 0 1 73.142857 73.142857v98.742857h168.228571c8.045714 0 14.628571 6.582857 14.628572 14.628572v65.828571a14.628571 14.628571 0 0 1-14.628572 14.628572H51.2a14.628571 14.628571 0 0 1-14.628571-14.628572v-65.828571zM930.377143 365.714286l-47.250286 590.994285a73.142857 73.142857 0 0 1-72.923428 67.291429H286.939429a73.142857 73.142857 0 0 1-72.923429-67.291429L166.765714 365.714286h763.611429z" /></svg>