<?xml version="1.0" standalone="no"?><!DOCTYPE svg PUBLIC "-//W3C//DTD SVG 1.1//EN" "http://www.w3.org/Graphics/SVG/1.1/DTD/svg11.dtd"><svg class="icon" width="200px" height="200.00px" viewBox="0 0 1024 1024" version="1.1" xmlns="http://www.w3.org/2000/svg"><path d="M877.714286 0a73.142857 73.142857 0 0 1 73.142857 73.142857v877.714286a73.142857 73.142857 0 0 1-73.142857 73.142857H146.285714a73.142857 73.142857 0 0 1-73.142857-73.142857V73.142857a73.142857 73.142857 0 0 1 73.142857-73.142857h731.428572zM493.714286 658.285714h-182.857143a18.285714 18.285714 0 0 0-18.285714 18.285715v58.514285c0 10.093714 8.192 18.285714 18.285714 18.285715h182.857143a18.285714 18.285714 0 0 0 18.285714-18.285715v-58.514285A18.285714 18.285714 0 0 0 493.714286 658.285714z m219.428571-219.428571h-402.285714a18.285714 18.285714 0 0 0-18.285714 18.285714v58.514286c0 10.093714 8.192 18.285714 18.285714 18.285714h402.285714a18.285714 18.285714 0 0 0 18.285714-18.285714v-58.514286A18.285714 18.285714 0 0 0 713.142857 438.857143z m0-219.428572h-402.285714a18.285714 18.285714 0 0 0-18.285714 18.285715v58.514285c0 10.093714 8.192 18.285714 18.285714 18.285715h402.285714a18.285714 18.285714 0 0 0 18.285714-18.285715v-58.514285A18.285714 18.285714 0 0 0 713.142857 219.428571z" /></svg>