<?xml version="1.0" standalone="no"?><!DOCTYPE svg PUBLIC "-//W3C//DTD SVG 1.1//EN" "http://www.w3.org/Graphics/SVG/1.1/DTD/svg11.dtd"><svg class="icon" width="200px" height="200.00px" viewBox="0 0 1024 1024" version="1.1" xmlns="http://www.w3.org/2000/svg"><path d="M724.699429 0a14.628571 14.628571 0 0 1 11.117714 5.12l211.529143 246.784a14.628571 14.628571 0 0 1 3.510857 9.508571V987.428571a36.571429 36.571429 0 0 1-29.988572 35.986286L914.285714 1024h-804.571428a36.571429 36.571429 0 0 1-36.571429-36.571429V36.571429a36.571429 36.571429 0 0 1 36.571429-36.571429h614.985143zM717.531429 683.885714H310.857143A18.285714 18.285714 0 0 0 292.571429 702.171429v58.514285c0 10.093714 8.192 18.285714 18.285714 18.285715h406.674286a18.285714 18.285714 0 0 0 18.285714-18.285715v-58.514285a18.285714 18.285714 0 0 0-18.285714-18.285715z m0-219.428571H310.857143A18.285714 18.285714 0 0 0 292.571429 482.742857v58.514286c0 10.093714 8.192 18.285714 18.285714 18.285714h406.674286a18.285714 18.285714 0 0 0 18.285714-18.285714v-58.514286a18.285714 18.285714 0 0 0-18.285714-18.285714z m-260.388572-219.428572h-146.285714A18.285714 18.285714 0 0 0 292.571429 263.314286v58.514285c0 10.093714 8.192 18.285714 18.285714 18.285715h146.285714a18.285714 18.285714 0 0 0 18.285714-18.285715v-58.514285a18.285714 18.285714 0 0 0-18.285714-18.285715zM695.149714 71.68v219.428571h190.902857l-190.902857-219.428571z" /></svg>