<?xml version="1.0" standalone="no"?><!DOCTYPE svg PUBLIC "-//W3C//DTD SVG 1.1//EN" "http://www.w3.org/Graphics/SVG/1.1/DTD/svg11.dtd"><svg class="icon" width="200px" height="186.69px" viewBox="0 0 1097 1024" version="1.1" xmlns="http://www.w3.org/2000/svg"><path d="M914.285714 0a146.285714 146.285714 0 0 1 146.285715 146.285714v731.428572a146.285714 146.285714 0 0 1-146.285715 146.285714h-731.428571a146.285714 146.285714 0 0 1-146.285714-146.285714V146.285714a146.285714 146.285714 0 0 1 146.285714-146.285714z m-173.714285 689.737143h-384a18.285714 18.285714 0 0 0-18.285715 18.285714v58.514286c0 10.166857 8.192 18.285714 18.285715 18.285714h384a18.285714 18.285714 0 0 0 18.285714-18.285714v-58.514286a18.285714 18.285714 0 0 0-18.285714-18.285714zM578.413714 219.428571h-65.828571a14.628571 14.628571 0 0 0-14.628572 14.628572v272.822857L409.234286 418.230857a18.285714 18.285714 0 0 0-25.892572 0l-41.252571 41.325714a18.285714 18.285714 0 0 0-0.073143 25.819429l7.168 7.168 28.818286 28.818286 36.352 36.425143 26.550857 26.550857 65.316571 65.389714c21.942857 21.138286 56.685714 21.138286 78.628572 0L676.571429 557.714286l36.425142-36.425143 28.745143-28.818286 7.241143-7.168a18.285714 18.285714 0 0 0 0-25.819428l-41.325714-41.325715a18.285714 18.285714 0 0 0-25.892572 0L593.042286 506.953143V234.057143a14.628571 14.628571 0 0 0-14.628572-14.628572z" /></svg>