<?xml version="1.0" standalone="no"?><!DOCTYPE svg PUBLIC "-//W3C//DTD SVG 1.1//EN" "http://www.w3.org/Graphics/SVG/1.1/DTD/svg11.dtd"><svg class="icon" width="200px" height="200.00px" viewBox="0 0 1024 1024" version="1.1" xmlns="http://www.w3.org/2000/svg"><path d="M512 0A438.772522 438.772522 0 0 1 688.971584 840.468767l-6.581588 39.050754a172.583859 172.583859 0 0 1-340.560606 0l-6.508459-39.050754A438.845651 438.845651 0 0 1 512.073129 0z m73.860041 255.950638H492.986524a25.010034 25.010034 0 0 0-22.084884 12.431888L368.448256 454.568333c-8.19042 14.918266 3.656438 32.469167 22.084884 32.469167H468.122748L412.544895 589.198369c-8.117292 14.918266 3.802695 32.396038 22.084884 32.396038h52.140801a25.375678 25.375678 0 0 0 20.695437-10.238026l146.988795-206.296214c10.530541-14.918266-1.243189-34.589901-20.768566-34.589901h-74.591329l48.484364-81.392302c8.921708-14.991395-2.92515-33.127325-21.646111-33.127326z" /></svg>