<?xml version="1.0" standalone="no"?><!DOCTYPE svg PUBLIC "-//W3C//DTD SVG 1.1//EN" "http://www.w3.org/Graphics/SVG/1.1/DTD/svg11.dtd"><svg class="icon" width="200px" height="200.00px" viewBox="0 0 1024 1024" version="1.1" xmlns="http://www.w3.org/2000/svg"><path d="M512 36.571429a365.714286 365.714286 0 0 1 365.714286 365.714285v471.771429h54.857143a18.285714 18.285714 0 0 1 17.773714 14.116571L950.857143 892.342857v58.514286a18.285714 18.285714 0 0 1-18.285714 18.285714H91.428571A18.285714 18.285714 0 0 1 73.142857 950.857143v-58.514286a18.285714 18.285714 0 0 1 18.285714-18.285714H146.285714V402.285714A365.714286 365.714286 0 0 1 496.128 36.937143L512 36.571429z m110.665143 219.428571h-140.434286a17.042286 17.042286 0 0 0-16.310857 12.214857L388.022857 530.505143c-3.218286 10.971429 4.973714 21.942857 16.384 21.942857h65.097143l-70.729143 204.214857a8.557714 8.557714 0 0 0 8.045714 11.337143h24.356572c5.705143 0 11.044571-2.925714 14.189714-7.606857L619.885714 498.102857a17.042286 17.042286 0 0 0-14.189714-26.550857h-52.150857l77.092571-204.068571a8.557714 8.557714 0 0 0-8.045714-11.483429z" /></svg>