<?xml version="1.0" standalone="no"?><!DOCTYPE svg PUBLIC "-//W3C//DTD SVG 1.1//EN" "http://www.w3.org/Graphics/SVG/1.1/DTD/svg11.dtd"><svg class="icon" width="200px" height="186.69px" viewBox="0 0 1097 1024" version="1.1" xmlns="http://www.w3.org/2000/svg"><path d="M728.86701 25.016998a85.284389 85.284389 0 0 1 120.612313 0l186.660171 186.587029a85.284389 85.284389 0 0 1 0 120.685455l-611.692404 611.619261a25.599945 25.599945 0 0 1-18.066247 7.460555H135.313996a25.599945 25.599945 0 0 1-25.599945-25.599945V654.702506a25.599945 25.599945 0 0 1 7.533698-18.066247L728.86701 25.016998zM840.994769 394.972776l120.978027-123.026022-172.836201-172.836201-120.904884 123.026022L840.994769 394.972776zM983.76932 856.283788a25.599945 25.599945 0 0 1 25.599946 25.599945v43.88562a25.599945 25.599945 0 0 1-25.599946 25.599945H533.064001l95.08551-95.08551h355.619809z" /></svg>