<?xml version="1.0" standalone="no"?><!DOCTYPE svg PUBLIC "-//W3C//DTD SVG 1.1//EN" "http://www.w3.org/Graphics/SVG/1.1/DTD/svg11.dtd"><svg class="icon" width="200px" height="200.00px" viewBox="0 0 1024 1024" version="1.1" xmlns="http://www.w3.org/2000/svg"><path d="M512.292571 0a512 512 0 1 1 0 1024 512 512 0 0 1 0-1024z m245.833143 329.142857a14.628571 14.628571 0 0 0-20.626285 0L491.885714 574.756571 352.987429 435.931429a14.628571 14.628571 0 0 0-20.699429 0l-46.518857 46.592a14.628571 14.628571 0 0 0 0 20.626285L465.92 683.373714a36.571429 36.571429 0 0 0 51.785143 0l287.085714-287.085714a14.628571 14.628571 0 0 0 0-20.772571z" /></svg>