<?xml version="1.0" standalone="no"?><!DOCTYPE svg PUBLIC "-//W3C//DTD SVG 1.1//EN" "http://www.w3.org/Graphics/SVG/1.1/DTD/svg11.dtd"><svg class="icon" width="200px" height="186.69px" viewBox="0 0 1097 1024" version="1.1" xmlns="http://www.w3.org/2000/svg"><path d="M705.828571 0a36.571429 36.571429 0 0 1 36.571429 36.571429V73.142857h182.857143a36.571429 36.571429 0 0 1 36.571428 36.571429v877.714285a36.571429 36.571429 0 0 1-36.571428 36.571429h-804.571429a36.571429 36.571429 0 0 1-36.571428-36.571429v-877.714285a36.571429 36.571429 0 0 1 36.571428-36.571429h182.857143V36.571429a36.571429 36.571429 0 0 1 36.571429-36.571429z m17.334858 406.381714l-209.188572 209.188572-138.971428-138.898286a14.628571 14.628571 0 0 0-20.626286 0l-46.518857 46.592a14.628571 14.628571 0 0 0 0 20.626286l180.224 180.297143a36.571429 36.571429 0 0 0 51.712 0l250.587428-250.587429a14.628571 14.628571 0 0 0 0-20.626286l-46.518857-46.592a14.628571 14.628571 0 0 0-20.699428 0zM647.314286 95.085714h-248.685715v102.4h248.685715V95.085714z" /></svg>