<?xml version="1.0" standalone="no"?><!DOCTYPE svg PUBLIC "-//W3C//DTD SVG 1.1//EN" "http://www.w3.org/Graphics/SVG/1.1/DTD/svg11.dtd"><svg class="icon" width="200px" height="200.00px" viewBox="0 0 1024 1024" version="1.1" xmlns="http://www.w3.org/2000/svg"><path d="M512.292571 0a512 512 0 1 1 0 1024 512 512 0 0 1 0-1024zM349.403429 281.819429a14.628571 14.628571 0 0 0-20.699429 0l-46.592 46.592a14.628571 14.628571 0 0 0 0 20.699428L445.074286 512 282.112 674.889143a14.628571 14.628571 0 0 0 0 20.699428l46.592 46.592a14.628571 14.628571 0 0 0 20.699429 0l162.889142-162.962285 162.889143 162.962285a14.628571 14.628571 0 0 0 20.699429 0l46.518857-46.592a14.628571 14.628571 0 0 0 0-20.699428L579.510857 512l162.889143-162.889143a14.628571 14.628571 0 0 0 0-20.699428l-46.518857-46.592a14.628571 14.628571 0 0 0-20.699429 0L512.292571 444.781714z" /></svg>