<?xml version="1.0" standalone="no"?><!DOCTYPE svg PUBLIC "-//W3C//DTD SVG 1.1//EN" "http://www.w3.org/Graphics/SVG/1.1/DTD/svg11.dtd"><svg class="icon" width="200px" height="200.00px" viewBox="0 0 1024 1024" version="1.1" xmlns="http://www.w3.org/2000/svg"><path d="M272.969143 73.142857a36.571429 36.571429 0 0 1 30.427428 16.310857L365.714286 182.857143h643.657143c8.045714 0 14.628571 6.582857 14.628571 14.628571v738.742857a14.628571 14.628571 0 0 1-14.628571 14.628572H36.571429a36.571429 36.571429 0 0 1-36.571429-36.571429v-804.571428A36.571429 36.571429 0 0 1 36.571429 73.142857z m513.316571 354.742857H234.057143a14.628571 14.628571 0 0 0-14.628572 14.628572v65.828571c0 8.045714 6.582857 14.628571 14.628572 14.628572h552.228571A18.285714 18.285714 0 0 0 804.571429 504.685714v-58.514285a18.285714 18.285714 0 0 0-18.285715-18.285715z" /></svg>