<?xml version="1.0" standalone="no"?><!DOCTYPE svg PUBLIC "-//W3C//DTD SVG 1.1//EN" "http://www.w3.org/Graphics/SVG/1.1/DTD/svg11.dtd"><svg class="icon" width="200px" height="186.69px" viewBox="0 0 1097 1024" version="1.1" xmlns="http://www.w3.org/2000/svg"><path d="M636.781714 5.12a14.628571 14.628571 0 0 0-20.699428 0l-31.012572 31.085714a14.628571 14.628571 0 0 0 0 20.699429l49.956572 49.956571-413.769143 310.345143-49.956572-50.029714a14.628571 14.628571 0 0 0-20.699428 0l-46.592 46.518857a14.628571 14.628571 0 0 0 0 20.699429L300.617143 630.930286l-243.126857 294.765714v51.785143h51.712l294.765714-243.126857 196.534857 196.534857a14.628571 14.628571 0 0 0 20.772572 0l46.518857-46.518857a14.628571 14.628571 0 0 0 0-20.699429l-50.029715-49.956571 310.345143-413.769143 50.029715 49.956571a14.628571 14.628571 0 0 0 20.626285 0l31.085715-31.012571a14.628571 14.628571 0 0 0 0-20.699429L636.781714 5.12z" /></svg>