<?xml version="1.0" standalone="no"?><!DOCTYPE svg PUBLIC "-//W3C//DTD SVG 1.1//EN" "http://www.w3.org/Graphics/SVG/1.1/DTD/svg11.dtd"><svg class="icon" width="200px" height="200.00px" viewBox="0 0 1024 1024" version="1.1" xmlns="http://www.w3.org/2000/svg"><path d="M544.914286 0c8.045714 0 14.628571 6.582857 14.628571 14.628571v61.074286a439.003429 439.003429 0 0 1 388.754286 388.754286h61.074286c8.045714 0 14.628571 6.582857 14.628571 14.628571v65.828572a14.628571 14.628571 0 0 1-14.628571 14.628571h-61.074286a439.003429 439.003429 0 0 1-388.754286 388.754286v61.074286a14.628571 14.628571 0 0 1-14.628571 14.628571h-65.828572a14.628571 14.628571 0 0 1-14.628571-14.628571v-61.074286A439.003429 439.003429 0 0 1 75.702857 559.542857H14.628571a14.628571 14.628571 0 0 1-14.628571-14.628571v-65.828572c0-8.045714 6.582857-14.628571 14.628571-14.628571h61.074286A439.003429 439.003429 0 0 1 464.457143 75.702857V14.628571c0-8.045714 6.582857-14.628571 14.628571-14.628571zM512 318.171429a193.828571 193.828571 0 1 0 0 387.657142 193.828571 193.828571 0 0 0 0-387.657142z m0 95.085714a98.742857 98.742857 0 1 1 0 197.485714 98.742857 98.742857 0 0 1 0-197.485714z" /></svg>