<?xml version="1.0" standalone="no"?><!DOCTYPE svg PUBLIC "-//W3C//DTD SVG 1.1//EN" "http://www.w3.org/Graphics/SVG/1.1/DTD/svg11.dtd"><svg class="icon" width="200px" height="200.00px" viewBox="0 0 1024 1024" version="1.1" xmlns="http://www.w3.org/2000/svg"><path d="M36.571429 104.521143C36.571429 66.998857 66.998857 36.571429 104.521143 36.571429H919.405714c37.522286 0 67.949714 30.427429 67.949715 67.949714V919.405714a67.949714 67.949714 0 0 1-67.949715 67.949715H104.594286a67.949714 67.949714 0 0 1-67.949715-67.949715V104.594286z m424.521142 135.826286H138.459429v151.405714h322.56v-151.405714z m101.814858 0v151.405714h322.633142v-151.405714h-322.56zM461.092571 493.641143H138.459429v154.185143h322.56V493.714286z m101.814858 154.185143V493.714286h322.633142v154.185143h-322.56zM461.092571 749.714286H138.459429v135.826285h322.56V749.714286z m101.814858 135.826285V749.714286h322.633142v135.826285h-322.56z" /></svg>