<?xml version="1.0" standalone="no"?><!DOCTYPE svg PUBLIC "-//W3C//DTD SVG 1.1//EN" "http://www.w3.org/Graphics/SVG/1.1/DTD/svg11.dtd"><svg class="icon" width="200px" height="200.00px" viewBox="0 0 1024 1024" version="1.1" xmlns="http://www.w3.org/2000/svg"><path d="M512 0a512 512 0 1 1 0 1024A512 512 0 0 1 512 0z m29.257143 182.857143h-58.514286a18.285714 18.285714 0 0 0-18.285714 18.285714v321.828572a36.571429 36.571429 0 0 0 36.571428 36.571428h321.828572a18.285714 18.285714 0 0 0 18.285714-18.285714v-58.514286a18.285714 18.285714 0 0 0-18.285714-18.285714h-263.314286v-263.314286a18.285714 18.285714 0 0 0-18.285714-18.285714z" /></svg>