<?xml version="1.0" standalone="no"?><!DOCTYPE svg PUBLIC "-//W3C//DTD SVG 1.1//EN" "http://www.w3.org/Graphics/SVG/1.1/DTD/svg11.dtd"><svg class="icon" width="200px" height="200.00px" viewBox="0 0 1024 1024" version="1.1" xmlns="http://www.w3.org/2000/svg"><path d="M512 0l438.857143 181.101714v378.806857c0 90.550857-40.594286 209.554286-150.162286 305.590858C697.490286 956.050286 512 1024 512 1024s-185.490286-67.949714-288.694857-158.500571C113.737143 769.462857 73.142857 650.459429 73.142857 559.908571V181.101714L512 0z m0 263.753143a146.285714 146.285714 0 0 0-47.542857 284.672v216.356571c0 8.045714 6.582857 14.628571 14.628571 14.628572h66.633143c3.072-0.292571 13.824-2.121143 13.824-14.628572v-47.542857h47.542857a14.628571 14.628571 0 0 0 14.628572-14.628571v-65.828572a14.628571 14.628571 0 0 0-14.628572-14.628571h-47.542857V548.425143A146.285714 146.285714 0 0 0 512 263.753143z m0 95.085714a51.2 51.2 0 1 1 0 102.4 51.2 51.2 0 0 1 0-102.4z" /></svg>