<?xml version="1.0" standalone="no"?><!DOCTYPE svg PUBLIC "-//W3C//DTD SVG 1.1//EN" "http://www.w3.org/Graphics/SVG/1.1/DTD/svg11.dtd"><svg class="icon" width="200px" height="200.00px" viewBox="0 0 1024 1024" version="1.1" xmlns="http://www.w3.org/2000/svg"><path d="M912.822857 73.142857a38.034286 38.034286 0 0 1 38.034286 38.034286v376.393143a36.571429 36.571429 0 0 1-10.678857 25.892571l-499.492572 499.419429a37.961143 37.961143 0 0 1-53.686857 0L11.117714 636.928a38.034286 38.034286 0 0 1 0-53.613714L510.537143 83.821714A36.571429 36.571429 0 0 1 536.429714 73.142857zM731.428571 219.428571a73.142857 73.142857 0 1 0 0 146.285715 73.142857 73.142857 0 0 0 0-146.285715z" /></svg>