<?xml version="1.0" standalone="no"?><!DOCTYPE svg PUBLIC "-//W3C//DTD SVG 1.1//EN" "http://www.w3.org/Graphics/SVG/1.1/DTD/svg11.dtd"><svg class="icon" width="200px" height="186.69px" viewBox="0 0 1097 1024" version="1.1" xmlns="http://www.w3.org/2000/svg"><path d="M888.652072 0c40.373329 0 73.140088 32.401059 73.140089 72.408687v878.997581c0 57.78067-65.094679 92.375931-113.732838 60.267433L522.951631 796.934402l-325.107692 214.739299c-48.638159 32.108499-113.732837-2.413623-113.732837-60.267433V72.408687c0-40.080768 32.76676-72.481827 73.140088-72.481827h731.400882z m-197.478238 242.678813h-336.444406a14.628018 14.628018 0 0 0-14.628018 14.554877v65.167819a14.628018 14.628018 0 0 0 14.628018 14.481738h336.444406a14.628018 14.628018 0 0 0 14.628018-14.481738v-65.167819a14.628018 14.628018 0 0 0-14.628018-14.554877z" /></svg>