<?xml version="1.0" standalone="no"?><!DOCTYPE svg PUBLIC "-//W3C//DTD SVG 1.1//EN" "http://www.w3.org/Graphics/SVG/1.1/DTD/svg11.dtd"><svg class="icon" width="200px" height="200.00px" viewBox="0 0 1024 1024" version="1.1" xmlns="http://www.w3.org/2000/svg"><path d="M512 0a256 256 0 0 1 256 256V365.714286h36.571429a146.285714 146.285714 0 0 1 146.285714 146.285714v365.714286a146.285714 146.285714 0 0 1-146.285714 146.285714H219.428571a146.285714 146.285714 0 0 1-146.285714-146.285714V512a146.285714 146.285714 0 0 1 146.285714-146.285714h36.571429V256A256 256 0 0 1 512 0z m0 548.571429a73.142857 73.142857 0 0 0-47.542857 128.731428v108.982857c0 10.093714 8.192 18.285714 18.285714 18.285715h58.514286a18.285714 18.285714 0 0 0 18.285714-18.285715V677.302857A73.142857 73.142857 0 0 0 512 548.571429z m0-453.485715a160.914286 160.914286 0 0 0-160.914286 160.914286V365.714286h321.828572V256A160.914286 160.914286 0 0 0 512 95.085714z" /></svg>