<?xml version="1.0" standalone="no"?><!DOCTYPE svg PUBLIC "-//W3C//DTD SVG 1.1//EN" "http://www.w3.org/Graphics/SVG/1.1/DTD/svg11.dtd"><svg class="icon" width="200px" height="200.00px" viewBox="0 0 1024 1024" version="1.1" xmlns="http://www.w3.org/2000/svg"><path d="M694.857143 0a36.571429 36.571429 0 0 1 36.571428 36.571429V73.142857h182.857143a36.571429 36.571429 0 0 1 36.571429 36.571429v877.714285a36.571429 36.571429 0 0 1-36.571429 36.571429h-804.571428a36.571429 36.571429 0 0 1-36.571429-36.571429v-877.714285a36.571429 36.571429 0 0 1 36.571429-36.571429H292.571429V36.571429a36.571429 36.571429 0 0 1 36.571428-36.571429h365.714286zM512 658.285714H292.571429v95.085715h219.428571V658.285714z m219.428571-219.428571H292.571429v95.085714h438.857142V438.857143zM636.342857 95.085714H387.657143v102.4h248.685714V95.085714z" /></svg>