<?xml version="1.0" standalone="no"?><!DOCTYPE svg PUBLIC "-//W3C//DTD SVG 1.1//EN" "http://www.w3.org/Graphics/SVG/1.1/DTD/svg11.dtd"><svg class="icon" width="200px" height="200.00px" viewBox="0 0 1024 1024" version="1.1" xmlns="http://www.w3.org/2000/svg"><path d="M73.142857 391.094857a73.142857 73.142857 0 0 0 72.850286 73.142857h245.613714a73.142857 73.142857 0 0 0 72.850286-72.850285V146.212571a73.142857 73.142857 0 0 0-73.142857-73.142857H146.285714a73.142857 73.142857 0 0 0-73.142857 73.142857v244.882286zM559.542857 391.094857a73.142857 73.142857 0 0 0 72.850286 73.142857h245.613714A73.142857 73.142857 0 0 0 950.857143 391.314286V146.212571a73.142857 73.142857 0 0 0-73.142857-73.142857H632.685714a73.142857 73.142857 0 0 0-73.142857 73.142857v244.882286zM73.142857 877.202286a73.142857 73.142857 0 0 0 72.850286 73.142857h245.613714a73.142857 73.142857 0 0 0 72.850286-72.850286V632.32a73.142857 73.142857 0 0 0-73.142857-73.142857H146.285714a73.142857 73.142857 0 0 0-73.142857 73.142857v244.882286zM559.542857 877.202286a73.142857 73.142857 0 0 0 72.850286 73.142857h245.613714a73.142857 73.142857 0 0 0 72.850286-72.850286V632.32a73.142857 73.142857 0 0 0-73.142857-73.142857H632.685714a73.142857 73.142857 0 0 0-73.142857 73.142857v244.882286z" /></svg>