<?xml version="1.0" standalone="no"?><!DOCTYPE svg PUBLIC "-//W3C//DTD SVG 1.1//EN" "http://www.w3.org/Graphics/SVG/1.1/DTD/svg11.dtd"><svg class="icon" width="200px" height="200.00px" viewBox="0 0 1024 1024" version="1.1" xmlns="http://www.w3.org/2000/svg"><path d="M272.969143 73.142857a36.571429 36.571429 0 0 1 30.427428 16.310857L365.714286 182.857143h643.657143c8.045714 0 14.628571 6.582857 14.628571 14.628571v738.742857a14.628571 14.628571 0 0 1-14.628571 14.628572H36.571429a36.571429 36.571429 0 0 1-36.571429-36.571429v-804.571428A36.571429 36.571429 0 0 1 36.571429 73.142857zM579.291429 402.285714H462.409143a7.314286 7.314286 0 0 0-5.12 12.434286L543.451429 501.028571H307.2a14.628571 14.628571 0 0 0-14.628571 14.628572v65.828571c0 8.045714 6.582857 14.628571 14.628571 14.628572h236.251429L457.289143 682.422857a7.314286 7.314286 0 0 0 5.193143 12.434286H579.291429l130.779428-130.779429a21.942857 21.942857 0 0 0 0-31.012571L579.291429 402.285714z" /></svg>