<?xml version="1.0" standalone="no"?><!DOCTYPE svg PUBLIC "-//W3C//DTD SVG 1.1//EN" "http://www.w3.org/Graphics/SVG/1.1/DTD/svg11.dtd"><svg class="icon" width="200px" height="200.00px" viewBox="0 0 1024 1024" version="1.1" xmlns="http://www.w3.org/2000/svg"><path d="M477.842286 58.002286a419.84 419.84 0 0 1 326.582857 683.739428l148.918857 148.845715a23.917714 23.917714 0 0 1 0 33.792l-28.964571 28.964571a23.917714 23.917714 0 0 1-33.792 0l-148.918858-148.845714A419.84 419.84 0 1 1 477.842286 58.075429z m191.195428 375.515428H286.72a23.917714 23.917714 0 0 0-23.917714 23.844572v40.96c0 13.165714 10.752 23.917714 23.917714 23.917714h382.317714c13.165714 0 23.844571-10.678857 23.844572-23.917714v-40.96a23.917714 23.917714 0 0 0-23.844572-23.844572z" /></svg>