<?xml version="1.0" standalone="no"?><!DOCTYPE svg PUBLIC "-//W3C//DTD SVG 1.1//EN" "http://www.w3.org/Graphics/SVG/1.1/DTD/svg11.dtd"><svg class="icon" width="200px" height="200.00px" viewBox="0 0 1024 1024" version="1.1" xmlns="http://www.w3.org/2000/svg"><path d="M36.571429 0a36.571429 36.571429 0 0 0-36.571429 36.571429v219.428571a36.571429 36.571429 0 0 0 36.571429 36.571429h171.885714v512c0 66.633143 54.052571 120.685714 120.685714 120.685714H512v62.171428a36.571429 36.571429 0 0 0 36.571429 36.571429h365.714285a36.571429 36.571429 0 0 0 36.571429-36.571429v-219.428571a36.571429 36.571429 0 0 0-36.571429-36.571429h-365.714285a36.571429 36.571429 0 0 0-36.571429 36.571429v62.171429H329.142857a25.6 25.6 0 0 1-25.6-25.6V559.542857H512v62.171429a36.571429 36.571429 0 0 0 36.571429 36.571428h365.714285a36.571429 36.571429 0 0 0 36.571429-36.571428v-219.428572a36.571429 36.571429 0 0 0-36.571429-36.571428h-365.714285a36.571429 36.571429 0 0 0-36.571429 36.571428v62.171429H303.542857V292.571429H475.428571a36.571429 36.571429 0 0 0 36.571429-36.571429v-219.428571a36.571429 36.571429 0 0 0-36.571429-36.571429h-438.857142z" /></svg>