<?xml version="1.0" standalone="no"?><!DOCTYPE svg PUBLIC "-//W3C//DTD SVG 1.1//EN" "http://www.w3.org/Graphics/SVG/1.1/DTD/svg11.dtd"><svg class="icon" width="200px" height="200.00px" viewBox="0 0 1024 1024" version="1.1" xmlns="http://www.w3.org/2000/svg"><path d="M438.857143 0a120.685714 120.685714 0 0 0-120.685714 120.685714v109.714286c0 66.633143 54.052571 120.685714 120.685714 120.685714h25.6v113.371429H256A120.685714 120.685714 0 0 0 135.314286 585.142857v73.142857H109.714286A109.714286 109.714286 0 0 0 0 768v146.285714A109.714286 109.714286 0 0 0 109.714286 1024h146.285714A109.714286 109.714286 0 0 0 365.714286 914.285714v-146.285714A109.714286 109.714286 0 0 0 256 658.285714h-25.6V585.142857a25.6 25.6 0 0 1 25.6-25.6h512a25.6 25.6 0 0 1 25.6 25.6v73.142857h-25.6A109.714286 109.714286 0 0 0 658.285714 768v146.285714a109.714286 109.714286 0 0 0 109.714286 109.714286h146.285714a109.714286 109.714286 0 0 0 109.714286-109.714286v-146.285714A109.714286 109.714286 0 0 0 914.285714 658.285714h-25.6V585.142857a120.685714 120.685714 0 0 0-120.685714-120.685714H559.542857V351.085714H585.142857a120.685714 120.685714 0 0 0 120.685714-120.685714v-109.714286A120.685714 120.685714 0 0 0 585.142857 0H438.857143z" /></svg>