<?xml version="1.0" standalone="no"?><!DOCTYPE svg PUBLIC "-//W3C//DTD SVG 1.1//EN" "http://www.w3.org/Graphics/SVG/1.1/DTD/svg11.dtd"><svg class="icon" width="200px" height="200.00px" viewBox="0 0 1024 1024" version="1.1" xmlns="http://www.w3.org/2000/svg"><path d="M559.542857 64.950857V18.285714A18.285714 18.285714 0 0 0 541.257143 0h-58.514286a18.285714 18.285714 0 0 0-18.285714 18.285714v46.665143A402.285714 402.285714 0 0 0 109.714286 464.457143v140.873143c0 53.906286-35.328 101.522286-86.966857 117.174857a32.109714 32.109714 0 0 0-22.747429 30.72v108.982857c0 14.628571 11.849143 26.477714 26.477714 26.477714h329.801143a157.257143 157.257143 0 0 0 311.442286 0h329.728c14.628571 0 26.550857-11.849143 26.550857-26.550857v-108.982857a32.109714 32.109714 0 0 0-22.820571-30.72A122.441143 122.441143 0 0 1 914.285714 605.403429V464.457143A402.285714 402.285714 0 0 0 559.542857 64.950857z" /></svg>