<?xml version="1.0" standalone="no"?><!DOCTYPE svg PUBLIC "-//W3C//DTD SVG 1.1//EN" "http://www.w3.org/Graphics/SVG/1.1/DTD/svg11.dtd"><svg class="icon" width="200px" height="200.00px" viewBox="0 0 1024 1024" version="1.1" xmlns="http://www.w3.org/2000/svg"><path d="M950.857143 0a73.142857 73.142857 0 0 1 73.142857 73.142857v877.714286a73.142857 73.142857 0 0 1-73.142857 73.142857H73.142857a73.142857 73.142857 0 0 1-73.142857-73.142857V73.142857a73.142857 73.142857 0 0 1 73.142857-73.142857z m-155.794286 512H528.091429a18.285714 18.285714 0 0 0-18.285715 18.285714v58.514286c0 10.093714 8.192 18.285714 18.285715 18.285714h122.953142l-206.848 206.848a18.285714 18.285714 0 0 0 0 25.819429l41.398858 41.398857a18.285714 18.285714 0 0 0 25.819428 0L718.262857 674.377143V797.257143c0 10.093714 8.192 18.285714 18.285714 18.285714h58.514286a18.285714 18.285714 0 0 0 18.285714-18.285714V530.285714a18.285714 18.285714 0 0 0-18.285714-18.285714z m115.565714-416.914286H113.371429a18.285714 18.285714 0 0 0-18.285715 18.285715V292.571429h833.828572V113.371429a18.285714 18.285714 0 0 0-18.285715-18.285715z" /></svg>