<?xml version="1.0" standalone="no"?><!DOCTYPE svg PUBLIC "-//W3C//DTD SVG 1.1//EN" "http://www.w3.org/Graphics/SVG/1.1/DTD/svg11.dtd"><svg class="icon" width="200px" height="200.00px" viewBox="0 0 1024 1024" version="1.1" xmlns="http://www.w3.org/2000/svg"><path d="M512 1024A512 512 0 1 0 512 0a512 512 0 0 0 0 1024z m160.036571-718.701714c0 87.771429-71.68 159.012571-160.036571 159.012571a159.451429 159.451429 0 0 1-160.036571-159.012571C352.036571 217.526857 423.716571 146.285714 512 146.285714a159.451429 159.451429 0 0 1 160.036571 159.012572zM234.569143 655.140571c-18.066286 15.652571-26.550857 39.131429-26.550857 63.049143A368.274286 368.274286 0 0 0 512 877.714286c126.317714 0 237.714286-63.195429 303.981714-159.524572 0-23.917714-8.484571-47.396571-26.550857-63.049143-67.437714-58.514286-166.765714-95.451429-277.430857-95.451428-110.665143 0-209.92 36.937143-277.430857 95.451428z" /></svg>