<?xml version="1.0" standalone="no"?><!DOCTYPE svg PUBLIC "-//W3C//DTD SVG 1.1//EN" "http://www.w3.org/Graphics/SVG/1.1/DTD/svg11.dtd"><svg class="icon" width="200px" height="200.00px" viewBox="0 0 1024 1024" version="1.1" xmlns="http://www.w3.org/2000/svg"><path d="M877.714286 0a73.142857 73.142857 0 0 1 73.142857 73.142857v877.714286a73.142857 73.142857 0 0 1-73.142857 73.142857H146.285714a73.142857 73.142857 0 0 1-73.142857-73.142857V73.142857a73.142857 73.142857 0 0 1 73.142857-73.142857zM643.657143 731.428571H380.342857a14.628571 14.628571 0 0 0-14.628571 14.628572v65.828571c0 8.045714 6.582857 14.628571 14.628571 14.628572h263.314286a14.628571 14.628571 0 0 0 14.628571-14.628572v-65.828571a14.628571 14.628571 0 0 0-14.628571-14.628572z" /></svg>