<?xml version="1.0" standalone="no"?><!DOCTYPE svg PUBLIC "-//W3C//DTD SVG 1.1//EN" "http://www.w3.org/Graphics/SVG/1.1/DTD/svg11.dtd"><svg class="icon" width="200px" height="200.00px" viewBox="0 0 1024 1024" version="1.1" xmlns="http://www.w3.org/2000/svg"><path d="M512 0a512 512 0 1 1 0 1024A512 512 0 0 1 512 0zM367.177143 277.942857h-21.942857a29.257143 29.257143 0 0 0-29.257143 29.257143v409.6c0 16.091429 13.019429 29.257143 29.257143 29.257143h21.942857a29.257143 29.257143 0 0 0 29.257143-29.257143V307.2a29.257143 29.257143 0 0 0-29.257143-29.257143z m317.147428 18.285714a29.257143 29.257143 0 0 0-41.398857 1.316572L460.580571 491.958857a29.257143 29.257143 0 0 0 0 40.082286L642.925714 726.454857a29.257143 29.257143 0 0 0 42.715429 0l13.165714-14.116571a29.257143 29.257143 0 0 0 0-40.082286L548.571429 512.073143l150.308571-160.329143a29.257143 29.257143 0 0 0 0-40.082286l-13.238857-14.116571a29.257143 29.257143 0 0 0-1.316572-1.316572z" /></svg>