<?xml version="1.0" standalone="no"?><!DOCTYPE svg PUBLIC "-//W3C//DTD SVG 1.1//EN" "http://www.w3.org/Graphics/SVG/1.1/DTD/svg11.dtd"><svg class="icon" width="200px" height="200.00px" viewBox="0 0 1024 1024" version="1.1" xmlns="http://www.w3.org/2000/svg"><path d="M742.4 131.657143a58.514286 58.514286 0 0 1 58.514286-58.514286h164.571428a58.514286 58.514286 0 0 1 58.514286 58.514286v709.485714a10.971429 10.971429 0 0 1-10.971429 10.971429H753.371429a10.971429 10.971429 0 0 1-10.971429-10.971429V131.657143z m-365.714286 245.028571a58.514286 58.514286 0 0 1 58.514286-58.514285H599.771429a58.514286 58.514286 0 0 1 58.514285 58.514285v464.457143a10.971429 10.971429 0 0 1-10.971428 10.971429H387.657143a10.971429 10.971429 0 0 1-10.971429-10.971429V376.685714zM0 947.2a18.285714 18.285714 0 0 1 18.285714-18.285714h987.428572a18.285714 18.285714 0 0 1 18.285714 18.285714v58.514286a18.285714 18.285714 0 0 1-18.285714 18.285714H18.285714a18.285714 18.285714 0 0 1-18.285714-18.285714v-58.514286z m58.514286-482.742857a58.514286 58.514286 0 0 0-58.514286 58.514286v318.171428c0 6.070857 4.900571 10.971429 10.971429 10.971429H270.628571a10.971429 10.971429 0 0 0 10.971429-10.971429V522.971429a58.514286 58.514286 0 0 0-58.514286-58.514286H58.514286z" /></svg>