<?xml version="1.0" standalone="no"?><!DOCTYPE svg PUBLIC "-//W3C//DTD SVG 1.1//EN" "http://www.w3.org/Graphics/SVG/1.1/DTD/svg11.dtd"><svg class="icon" width="200px" height="200.00px" viewBox="0 0 1024 1024" version="1.1" xmlns="http://www.w3.org/2000/svg"><path d="M72.996571 357.083429C189.513143 423.277714 336.091429 455.972571 512 455.972571c169.179429 0 326.509714-28.598857 438.857143-89.673142V950.857143a73.142857 73.142857 0 0 1-73.142857 73.142857H146.285714a73.142857 73.142857 0 0 1-73.142857-73.142857L72.996571 357.083429zM877.714286 0a73.142857 73.142857 0 0 1 73.142857 73.142857v161.28c-87.771429 75.337143-253.952 111.835429-438.857143 111.835429-177.005714 0-316.196571-35.693714-418.816-105.764572L73.142857 226.230857V73.142857a73.142857 73.142857 0 0 1 73.142857-73.142857h731.428572z" /></svg>