<?xml version="1.0" standalone="no"?><!DOCTYPE svg PUBLIC "-//W3C//DTD SVG 1.1//EN" "http://www.w3.org/Graphics/SVG/1.1/DTD/svg11.dtd"><svg class="icon" width="200px" height="200.00px" viewBox="0 0 1024 1024" version="1.1" xmlns="http://www.w3.org/2000/svg"><path d="M420.571429 980.260571l100.937142-141.312 186.514286 93.184a36.571429 36.571429 0 0 0 51.712-23.259428l220.306286-827.830857a36.571429 36.571429 0 0 0-53.174857-41.325715L38.765714 533.504a36.571429 36.571429 0 0 0 1.462857 64.731429L283.209143 719.725714l366.006857-338.432a16.310857 16.310857 0 0 1 21.504-1.243428c6.217143 4.900571 7.314286 13.897143 2.267429 20.114285l-273.261715 354.889143-0.950857 218.112a12.068571 12.068571 0 0 0 21.796572 7.094857z" /></svg>