<?xml version="1.0" standalone="no"?><!DOCTYPE svg PUBLIC "-//W3C//DTD SVG 1.1//EN" "http://www.w3.org/Graphics/SVG/1.1/DTD/svg11.dtd"><svg class="icon" width="200px" height="200.00px" viewBox="0 0 1024 1024" version="1.1" xmlns="http://www.w3.org/2000/svg"><path d="M544.914286 0c8.045714 0 14.628571 6.582857 14.628571 14.628571v47.542858h449.828572c8.045714 0 14.628571 6.582857 14.628571 14.628571v65.828571a14.628571 14.628571 0 0 1-14.628571 14.628572h-47.542858v563.2h47.542858c8.045714 0 14.628571 6.582857 14.628571 14.628571v65.828572a14.628571 14.628571 0 0 1-14.628571 14.628571h-255.853715l93.622857 187.245714a14.628571 14.628571 0 0 1-13.092571 21.211429h-73.581714a14.628571 14.628571 0 0 1-13.092572-8.045714l-100.205714-200.411429H376.832l-100.205714 200.411429a14.628571 14.628571 0 0 1-13.092572 8.045714H189.952a14.628571 14.628571 0 0 1-13.092571-21.211429l93.622857-187.245714H14.628571a14.628571 14.628571 0 0 1-14.628571-14.628571v-65.828572c0-8.045714 6.582857-14.628571 14.628571-14.628571h47.542858v-563.2H14.628571a14.628571 14.628571 0 0 1-14.628571-14.628572v-65.828571c0-8.045714 6.582857-14.628571 14.628571-14.628571h449.828572V14.628571c0-8.045714 6.582857-14.628571 14.628571-14.628571z m25.6 464.457143H307.2a14.628571 14.628571 0 0 0-14.628571 14.628571v65.828572c0 8.045714 6.582857 14.628571 14.628571 14.628571h263.314286a14.628571 14.628571 0 0 0 14.628571-14.628571v-65.828572a14.628571 14.628571 0 0 0-14.628571-14.628571z m146.285714-182.857143H307.2a14.628571 14.628571 0 0 0-14.628571 14.628571v65.828572c0 8.045714 6.582857 14.628571 14.628571 14.628571h409.6a14.628571 14.628571 0 0 0 14.628571-14.628571v-65.828572a14.628571 14.628571 0 0 0-14.628571-14.628571z" /></svg>