<?xml version="1.0" standalone="no"?><!DOCTYPE svg PUBLIC "-//W3C//DTD SVG 1.1//EN" "http://www.w3.org/Graphics/SVG/1.1/DTD/svg11.dtd"><svg class="icon" width="200px" height="200.00px" viewBox="0 0 1024 1024" version="1.1" xmlns="http://www.w3.org/2000/svg"><path d="M724.845714 0a14.628571 14.628571 0 0 1 11.044572 5.12l211.529143 246.784a14.628571 14.628571 0 0 1 3.584 9.508571V987.428571a36.571429 36.571429 0 0 1-36.571429 36.571429h-804.571429a36.571429 36.571429 0 0 1-36.571428-36.571429V36.571429a36.571429 36.571429 0 0 1 36.571428-36.571429h183.954286v245.76c0 23.844571 17.554286 43.593143 40.521143 47.030857l7.021714 0.512H611.474286a47.542857 47.542857 0 0 0 47.542857-47.542857V0h65.828571z m-7.899428 658.285714h-409.6a14.628571 14.628571 0 0 0-14.628572 14.628572v65.828571c0 8.045714 6.509714 14.628571 14.628572 14.628572h409.6a14.628571 14.628571 0 0 0 14.628571-14.628572v-65.828571a14.628571 14.628571 0 0 0-14.628571-14.628572zM563.858286 0v198.144H388.827429V0h174.957714z" /></svg>