<?xml version="1.0" standalone="no"?><!DOCTYPE svg PUBLIC "-//W3C//DTD SVG 1.1//EN" "http://www.w3.org/Graphics/SVG/1.1/DTD/svg11.dtd"><svg class="icon" width="200px" height="200.00px" viewBox="0 0 1024 1024" version="1.1" xmlns="http://www.w3.org/2000/svg"><path d="M749.714286 73.142857a201.142857 201.142857 0 1 1 0 402.285714h-475.428572a201.142857 201.142857 0 0 1 0-402.285714h475.428572z m-36.571429 109.714286a91.428571 91.428571 0 1 0 0 182.857143 91.428571 91.428571 0 0 0 0-182.857143zM749.714286 548.571429a201.142857 201.142857 0 1 1 0 402.285714h-475.428572a201.142857 201.142857 0 1 1 0-402.285714h475.428572z m-438.857143 109.714285a91.428571 91.428571 0 1 0 0 182.857143 91.428571 91.428571 0 0 0 0-182.857143z" /></svg>