<?xml version="1.0" standalone="no"?><!DOCTYPE svg PUBLIC "-//W3C//DTD SVG 1.1//EN" "http://www.w3.org/Graphics/SVG/1.1/DTD/svg11.dtd"><svg class="icon" width="200px" height="186.86px" viewBox="0 0 1096 1024" version="1.1" xmlns="http://www.w3.org/2000/svg"><path d="M658.280494 0a36.542716 36.542716 0 0 1 36.542716 36.542716v32.01142a109.628149 109.628149 0 0 0 164.442224 94.937977l27.772465-16.078795a36.542716 36.542716 0 0 1 49.844265 13.44772l109.628149 189.875954a36.542716 36.542716 0 0 1-13.374634 49.917351l-27.772464 16.078795a109.628149 109.628149 0 0 0 0.073085 189.802869l27.772465 16.00571a36.542716 36.542716 0 0 1 13.301548 49.917351l-109.628149 189.875954a36.542716 36.542716 0 0 1-49.917351 13.374635l-27.699379-16.00571a109.628149 109.628149 0 0 0-164.442224 95.011063v31.938334a36.542716 36.542716 0 0 1-36.542716 36.542716h-219.256299a36.542716 36.542716 0 0 1-36.542716-36.542716v-32.01142a109.628149 109.628149 0 0 0-164.442224-94.937977l-27.772465 16.00571a36.542716 36.542716 0 0 1-49.844265-13.374635l-109.628149-189.875954a36.542716 36.542716 0 0 1 13.374634-49.917351l27.772465-16.00571c73.012347-42.170295 73.012347-147.632574-0.073086-189.875954l-27.772464-16.00571A36.542716 36.542716 0 0 1 50.867461 350.810078l109.62815-189.875955a36.542716 36.542716 0 0 1 49.91735-13.374634l27.699379 16.00571a109.628149 109.628149 0 0 0 164.442224-95.011063V36.542716a36.542716 36.542716 0 0 1 36.542717-36.542716h219.256298z m-109.628149 310.61309a200.98494 200.98494 0 1 0 0 401.969881 200.98494 200.98494 0 0 0 0-401.969881z m0 109.628149a91.356791 91.356791 0 1 1 0 182.713582 91.356791 91.356791 0 0 1 0-182.713582z" /></svg>