<?xml version="1.0" standalone="no"?><!DOCTYPE svg PUBLIC "-//W3C//DTD SVG 1.1//EN" "http://www.w3.org/Graphics/SVG/1.1/DTD/svg11.dtd"><svg class="icon" width="200px" height="186.69px" viewBox="0 0 1097 1024" version="1.1" xmlns="http://www.w3.org/2000/svg"><path d="M522.971429 365.714286a182.857143 182.857143 0 1 0 0-365.714286 182.857143 182.857143 0 0 0 0 365.714286z m-126.317715 514.486857a353.792 353.792 0 0 0 126.317715 23.113143c44.617143 0 87.113143-8.192 126.317714-23.113143a47.542857 47.542857 0 1 1 33.865143 88.795428c-49.810286 19.017143-103.862857 29.403429-160.182857 29.403429s-110.372571-10.386286-160.182858-29.403429a47.542857 47.542857 0 1 1 33.865143-88.795428zM193.828571 585.142857a182.857143 182.857143 0 1 1 0 365.714286 182.857143 182.857143 0 0 1 0-365.714286z m658.285715 0a182.857143 182.857143 0 1 1 0 365.714286 182.857143 182.857143 0 0 1 0-365.714286zM310.125714 264.777143a47.542857 47.542857 0 1 0-57.051428-76.068572 449.243429 449.243429 0 0 0-179.565715 341.942858 47.542857 47.542857 0 0 0 95.012572 3.657142A354.157714 354.157714 0 0 1 310.125714 264.777143z m482.742857-76.068572a47.542857 47.542857 0 1 0-57.051428 76.068572 354.157714 354.157714 0 0 1 141.604571 269.604571 47.542857 47.542857 0 1 0 95.085715-3.730285A449.243429 449.243429 0 0 0 792.868571 188.708571z" /></svg>