<?xml version="1.0" standalone="no"?><!DOCTYPE svg PUBLIC "-//W3C//DTD SVG 1.1//EN" "http://www.w3.org/Graphics/SVG/1.1/DTD/svg11.dtd"><svg class="icon" width="200px" height="200.00px" viewBox="0 0 1024 1024" version="1.1" xmlns="http://www.w3.org/2000/svg"><path d="M987.428571 73.142857a36.571429 36.571429 0 0 1 36.571429 36.571429v804.571428a36.571429 36.571429 0 0 1-36.571429 36.571429H36.571429a36.571429 36.571429 0 0 1-36.571429-36.571429v-804.571428A36.571429 36.571429 0 0 1 36.571429 73.142857h950.857142zM431.542857 482.523429c-89.746286-9.947429-186.514286 26.916571-285.257143 145.334857a47.542857 47.542857 0 1 0 73.142857 60.854857C303.542857 587.702857 371.273143 571.538286 421.010286 577.097143c51.492571 5.705143 95.232 34.742857 136.777143 62.390857l10.678857 7.021714c47.396571 31.232 98.230857 58.368 150.381714 65.097143 56.173714 7.314286 109.275429-9.654857 155.794286-56.173714a47.542857 47.542857 0 1 0-67.218286-67.291429c-26.550857 26.624-50.614857 32.548571-76.361143 29.257143-29.769143-3.876571-65.536-20.845714-110.299428-50.322286l-11.190858-7.460571c-39.277714-26.331429-102.180571-68.608-178.102857-77.019429zM734.354286 292.571429a73.142857 73.142857 0 1 0 0 146.285714 73.142857 73.142857 0 0 0 0-146.285714z" /></svg>