<?xml version="1.0" standalone="no"?><!DOCTYPE svg PUBLIC "-//W3C//DTD SVG 1.1//EN" "http://www.w3.org/Graphics/SVG/1.1/DTD/svg11.dtd"><svg class="icon" width="200px" height="200.00px" viewBox="0 0 1024 1024" version="1.1" xmlns="http://www.w3.org/2000/svg"><path d="M512 0a512 512 0 1 1 0 1024A512 512 0 0 1 512 0z m-42.349714 308.443429l-38.473143 38.473142-40.228572 40.228572-13.165714 13.165714-36.352 36.498286-10.678857 10.605714-25.307429 25.380572a18.285714 18.285714 0 0 0 0 25.819428l41.325715 41.252572a18.285714 18.285714 0 0 0 25.892571 0l88.722286-88.722286v272.822857c0 8.118857 6.582857 14.628571 14.628571 14.628571h65.828572a14.628571 14.628571 0 0 0 14.628571-14.628571v-272.822857L645.266286 539.794286a18.285714 18.285714 0 0 0 25.892571 0l41.252572-41.252572a18.285714 18.285714 0 0 0 0-25.819428l-25.234286-25.380572-10.678857-10.605714-36.425143-36.425143-91.794286-91.940571a56.612571 56.612571 0 0 0-78.628571 0z" /></svg>