<?xml version="1.0" standalone="no"?><!DOCTYPE svg PUBLIC "-//W3C//DTD SVG 1.1//EN" "http://www.w3.org/Graphics/SVG/1.1/DTD/svg11.dtd"><svg class="icon" width="200px" height="186.69px" viewBox="0 0 1097 1024" version="1.1" xmlns="http://www.w3.org/2000/svg"><path d="M549.083429 0a512 512 0 1 1 0 1024 512 512 0 0 1 0-1024z m-65.828572 365.714286h-65.828571a14.628571 14.628571 0 0 0-14.628572 14.628571v263.314286c0 8.045714 6.582857 14.628571 14.628572 14.628571h65.828571a14.628571 14.628571 0 0 0 14.628572-14.628571V380.342857a14.628571 14.628571 0 0 0-14.628572-14.628571z m197.485714 0h-65.828571a14.628571 14.628571 0 0 0-14.628571 14.628571v263.314286c0 8.045714 6.582857 14.628571 14.628571 14.628571h65.828571a14.628571 14.628571 0 0 0 14.628572-14.628571V380.342857a14.628571 14.628571 0 0 0-14.628572-14.628571z" /></svg>