<?xml version="1.0" standalone="no"?><!DOCTYPE svg PUBLIC "-//W3C//DTD SVG 1.1//EN" "http://www.w3.org/Graphics/SVG/1.1/DTD/svg11.dtd"><svg class="icon" width="200px" height="200.00px" viewBox="0 0 1024 1024" version="1.1" xmlns="http://www.w3.org/2000/svg"><path d="M512.073143 0a512 512 0 1 1 0 1024 512 512 0 0 1 0-1024z m204.8 548.571429h-409.6a14.628571 14.628571 0 0 0-14.628572 14.628571v33.060571a14.628571 14.628571 0 0 0 6.070858 11.849143l128.658285 92.964572A7.314286 7.314286 0 0 0 438.857143 695.222857V636.342857h277.942857a14.628571 14.628571 0 0 0 14.628571-14.628571v-58.514286a14.628571 14.628571 0 0 0-14.628571-14.628571z m-119.954286-225.645715a7.314286 7.314286 0 0 0-11.702857 5.851429V387.657143h-277.942857a14.628571 14.628571 0 0 0-14.628572 14.628571v58.514286c0 8.045714 6.582857 14.628571 14.628572 14.628571h409.6a14.628571 14.628571 0 0 0 14.628571-14.628571v-33.060571a14.628571 14.628571 0 0 0-5.997714-11.849143z" /></svg>