<?xml version="1.0" standalone="no"?><!DOCTYPE svg PUBLIC "-//W3C//DTD SVG 1.1//EN" "http://www.w3.org/Graphics/SVG/1.1/DTD/svg11.dtd"><svg class="icon" width="200px" height="186.69px" viewBox="0 0 1097 1024" version="1.1" xmlns="http://www.w3.org/2000/svg"><path d="M73.142857 98.742857A25.6 25.6 0 0 1 98.742857 73.142857h848.457143a25.6 25.6 0 0 1 25.6 25.6v364.690286l-71.021714-42.569143a53.76 53.76 0 0 0-73.947429 19.017143l-9.216 15.579428a3.510857 3.510857 0 0 1-6.144 0l-9.216-15.652571a53.76 53.76 0 0 0-73.874286-18.944l-89.014857 53.321143a54.052571 54.052571 0 0 0-18.797714 73.728l5.266286 8.996571a3.949714 3.949714 0 0 1 0 4.242286 4.754286 4.754286 0 0 1-0.731429 1.024 3.510857 3.510857 0 0 1-0.585143 0.512 2.486857 2.486857 0 0 1-0.585143 0.292571 4.022857 4.022857 0 0 1-1.170285 0.146286h-10.386286a53.906286 53.906286 0 0 0-53.833143 53.906286v104.448c0 11.849143 3.876571 22.893714 10.459429 31.890286H98.742857A25.6 25.6 0 0 1 73.142857 727.771429v-629.028572zM292.571429 892.342857c0-8.045714 6.582857-14.628571 14.628571-14.628571h426.642286l-74.678857-44.763429a17.481143 17.481143 0 0 1-6.070858-23.844571l5.266286-8.923429a40.594286 40.594286 0 0 0-34.596571-61.366857h-10.386286a17.334857 17.334857 0 0 1-17.261714-17.334857V617.033143c0-9.508571 7.753143-17.334857 17.261714-17.334857h10.386286c31.158857 0 50.468571-34.304 34.596571-61.366857l-5.266286-8.923429a17.481143 17.481143 0 0 1 6.070858-23.844571l88.941714-53.321143a17.188571 17.188571 0 0 1 23.625143 6.144l9.216 15.579428a40.082286 40.082286 0 0 0 69.193143 0l9.216-15.579428a17.188571 17.188571 0 0 1 23.625142-6.144l91.428572 54.857143a14.555429 14.555429 0 0 1 5.12 19.748571 48.274286 48.274286 0 0 0 41.106286 72.850286c7.899429 0 14.336 6.436571 14.336 14.409143v107.373714a17.334857 17.334857 0 0 1-17.261715 17.334857h-10.386285a40.594286 40.594286 0 0 0-34.596572 61.366857l5.266286 8.923429a17.481143 17.481143 0 0 1-6.070857 23.844571l-88.941715 53.321143a17.115429 17.115429 0 0 1-23.625142-6.144l-9.216-15.579429a40.082286 40.082286 0 0 0-69.193143 0l-9.216 15.579429a17.188571 17.188571 0 0 1-19.017143 8.045714 14.555429 14.555429 0 0 1 0.658286 4.169143v65.828572a14.628571 14.628571 0 0 1-14.628572 14.628571H307.2a14.628571 14.628571 0 0 1-14.628571-14.628571v-65.828572z m522.971428-129.024a94.061714 94.061714 0 1 0 0-188.123428 94.061714 94.061714 0 0 0 0 188.123428z" /></svg>