<?xml version="1.0" standalone="no"?><!DOCTYPE svg PUBLIC "-//W3C//DTD SVG 1.1//EN" "http://www.w3.org/Graphics/SVG/1.1/DTD/svg11.dtd"><svg class="icon" width="200px" height="186.69px" viewBox="0 0 1097 1024" version="1.1" xmlns="http://www.w3.org/2000/svg"><path d="M877.714286 0a157.257143 157.257143 0 0 1 157.257143 157.257143v490.057143A157.257143 157.257143 0 0 1 877.714286 804.571429H168.228571A157.257143 157.257143 0 0 1 10.971429 647.314286v-490.057143A157.257143 157.257143 0 0 1 168.228571 0zM532.187429 219.428571H421.302857l-11.702857 11.702858 88.210286 88.283428v36.205714H461.531429L373.979429 268.141714a7.753143 7.753143 0 0 0-0.731429-0.731428l-11.702857 11.702857v110.957714l56.32 56.32a14.628571 14.628571 0 0 0 10.24 4.315429h97.426286l106.057142 105.984a14.628571 14.628571 0 0 0 20.626286 0l46.518857-46.592a14.628571 14.628571 0 0 0 0-20.699429L592.822857 383.488V285.988571a14.628571 14.628571 0 0 0-4.388571-10.313142L532.260571 219.428571zM724.114286 1024a18.285714 18.285714 0 0 0 18.285714-18.285714v-58.514286a18.285714 18.285714 0 0 0-18.285714-18.285714H321.828571a18.285714 18.285714 0 0 0-18.285714 18.285714v58.514286c0 10.093714 8.192 18.285714 18.285714 18.285714h402.285715z" /></svg>