<?xml version="1.0" standalone="no"?><!DOCTYPE svg PUBLIC "-//W3C//DTD SVG 1.1//EN" "http://www.w3.org/Graphics/SVG/1.1/DTD/svg11.dtd"><svg class="icon" width="200px" height="200.00px" viewBox="0 0 1024 1024" version="1.1" xmlns="http://www.w3.org/2000/svg"><path d="M877.714286 0a73.142857 73.142857 0 0 1 73.142857 73.142857v877.714286a73.142857 73.142857 0 0 1-73.142857 73.142857H146.285714a73.142857 73.142857 0 0 1-73.142857-73.142857V73.142857a73.142857 73.142857 0 0 1 73.142857-73.142857h731.428572zM462.482286 575.853714L362.788571 675.620571l-63.195428-63.195428a18.285714 18.285714 0 0 0-25.892572 0l-41.325714 41.398857a18.285714 18.285714 0 0 0 0 25.819429L349.842286 797.257143a18.285714 18.285714 0 0 0 25.819428 0l154.038857-154.112a18.285714 18.285714 0 0 0 0-25.819429l-41.325714-41.398857a18.285714 18.285714 0 0 0-25.892571 0z m323.803428 60.196572h-182.857143a18.285714 18.285714 0 0 0-18.285714 18.285714v58.514286c0 10.166857 8.192 18.285714 18.285714 18.285714h182.857143a18.285714 18.285714 0 0 0 18.285715-18.285714v-58.514286a18.285714 18.285714 0 0 0-18.285715-18.285714zM358.4 219.428571a138.971429 138.971429 0 1 0 0 277.942858 138.971429 138.971429 0 0 0 0-277.942858z m427.885714 98.742858h-182.857143A18.285714 18.285714 0 0 0 585.142857 336.457143v58.514286c0 10.093714 8.192 18.285714 18.285714 18.285714h182.857143A18.285714 18.285714 0 0 0 804.571429 394.971429v-58.514286a18.285714 18.285714 0 0 0-18.285715-18.285714zM358.4 314.514286a43.885714 43.885714 0 1 1 0 87.771428 43.885714 43.885714 0 0 1 0-87.771428z" /></svg>