<?xml version="1.0" standalone="no"?><!DOCTYPE svg PUBLIC "-//W3C//DTD SVG 1.1//EN" "http://www.w3.org/Graphics/SVG/1.1/DTD/svg11.dtd"><svg class="icon" width="200px" height="200.00px" viewBox="0 0 1024 1024" version="1.1" xmlns="http://www.w3.org/2000/svg"><path d="M866.742857 0A157.257143 157.257143 0 0 1 1024 157.257143v490.057143A157.257143 157.257143 0 0 1 866.742857 804.571429h-709.485714A157.257143 157.257143 0 0 1 0 647.314286v-490.057143A157.257143 157.257143 0 0 1 157.257143 0z m-108.178286 240.713143a14.628571 14.628571 0 0 0-20.626285 0L559.762286 418.962286l-99.401143-99.474286a14.628571 14.628571 0 0 0-20.699429 0l-198.948571 198.948571a14.628571 14.628571 0 0 0 0 20.772572l46.592 46.518857a14.628571 14.628571 0 0 0 20.699428 0l142.043429-142.043429L549.302857 543.085714a14.628571 14.628571 0 0 0 20.699429 0l235.081143-235.081143a14.628571 14.628571 0 0 0 0-20.699428zM713.142857 1024a18.285714 18.285714 0 0 0 18.285714-18.285714v-58.514286a18.285714 18.285714 0 0 0-18.285714-18.285714h-402.285714a18.285714 18.285714 0 0 0-18.285714 18.285714v58.514286c0 10.093714 8.192 18.285714 18.285714 18.285714h402.285714z" /></svg>