<?xml version="1.0" standalone="no"?><!DOCTYPE svg PUBLIC "-//W3C//DTD SVG 1.1//EN" "http://www.w3.org/Graphics/SVG/1.1/DTD/svg11.dtd"><svg class="icon" width="200px" height="200.00px" viewBox="0 0 1024 1024" version="1.1" xmlns="http://www.w3.org/2000/svg"><path d="M20.041143 303.981714a13.165714 13.165714 0 0 1 0-22.820571L499.273143 7.241143a25.6 25.6 0 0 1 25.453714 0l479.305143 273.92a13.165714 13.165714 0 0 1 0 22.820571L524.726857 577.901714a25.6 25.6 0 0 1-25.453714 0L20.041143 303.981714zM83.309714 464.457143a25.6 25.6 0 0 1 25.380572 0L512 694.857143l403.309714-230.4a25.6 25.6 0 0 1 25.380572 0l63.341714 36.132571a13.165714 13.165714 0 0 1 0 22.820572l-479.305143 273.92a25.6 25.6 0 0 1-25.453714 0L20.041143 523.410286a13.165714 13.165714 0 0 1 0-22.820572l63.268571-36.205714zM108.690286 683.885714a25.6 25.6 0 0 0-25.380572 0l-65.536 37.376a11.702857 11.702857 0 0 0 0 20.333715L499.273143 1016.685714a25.6 25.6 0 0 0 25.453714 0l481.499429-275.163428a11.702857 11.702857 0 0 0 0-20.333715l-65.536-37.449142a25.6 25.6 0 0 0-25.380572 0L512 914.285714 108.690286 683.885714z" /></svg>