<?xml version="1.0" standalone="no"?><!DOCTYPE svg PUBLIC "-//W3C//DTD SVG 1.1//EN" "http://www.w3.org/Graphics/SVG/1.1/DTD/svg11.dtd"><svg class="icon" width="200px" height="186.69px" viewBox="0 0 1097 1024" version="1.1" xmlns="http://www.w3.org/2000/svg"><path d="M522.971429 0a512 512 0 1 1 0 1024 512 512 0 0 1 0-1024z m21.942857 193.828571h-43.885715A25.6 25.6 0 0 0 475.428571 219.428571v286.72a54.857143 54.857143 0 0 0 42.934858 53.540572l309.174857 68.754286a25.6 25.6 0 0 0 30.500571-19.529143l9.508572-42.788572a25.6 25.6 0 0 0-19.382858-30.573714L570.514286 473.965714V219.428571a25.6 25.6 0 0 0-25.6-25.6z" /></svg>