<?xml version="1.0" standalone="no"?><!DOCTYPE svg PUBLIC "-//W3C//DTD SVG 1.1//EN" "http://www.w3.org/Graphics/SVG/1.1/DTD/svg11.dtd"><svg class="icon" width="200px" height="186.86px" viewBox="0 0 1096 1024" version="1.1" xmlns="http://www.w3.org/2000/svg"><path d="M10.968044 440.611194c0-45.627064 6.946428-89.645481 19.74248-130.958447l0.731203-1.974248a436.966879 436.966879 0 0 1 31.441726-74.728941 14.185337 14.185337 0 0 1 22.594171-3.071052L383.150342 527.624344a14.624059 14.624059 0 0 0 20.693043 0l134.395101-134.3951a14.624059 14.624059 0 0 0 0-20.693044L240.565768 74.790362A14.185337 14.185337 0 0 1 243.636821 52.196191 438.283044 438.283044 0 0 1 318.365761 20.754464l1.974248-0.731203a440.330412 440.330412 0 0 1 528.367247 610.335097l142.950175 143.096416a146.752431 146.752431 0 0 1-207.588515 207.515395l-142.950175-143.023295A440.330412 440.330412 0 0 1 10.968044 440.538074z" /></svg>