<?xml version="1.0" standalone="no"?><!DOCTYPE svg PUBLIC "-//W3C//DTD SVG 1.1//EN" "http://www.w3.org/Graphics/SVG/1.1/DTD/svg11.dtd"><svg class="icon" width="200px" height="200.00px" viewBox="0 0 1024 1024" version="1.1" xmlns="http://www.w3.org/2000/svg"><path d="M512 0a512 512 0 1 1 0 1024A512 512 0 0 1 512 0z m131.657143 647.314286H380.342857a14.628571 14.628571 0 0 0-14.628571 14.628571v65.828572c0 8.045714 6.582857 14.628571 14.628571 14.628571h263.314286a14.628571 14.628571 0 0 0 14.628571-14.628571v-65.828572a14.628571 14.628571 0 0 0-14.628571-14.628571z m146.285714-182.857143H234.057143a14.628571 14.628571 0 0 0-14.628572 14.628571v65.828572c0 8.045714 6.582857 14.628571 14.628572 14.628571h555.885714a14.628571 14.628571 0 0 0 14.628572-14.628571v-65.828572a14.628571 14.628571 0 0 0-14.628572-14.628571z m-146.285714-182.857143H380.342857a14.628571 14.628571 0 0 0-14.628571 14.628571v65.828572c0 8.045714 6.582857 14.628571 14.628571 14.628571h263.314286a14.628571 14.628571 0 0 0 14.628571-14.628571v-65.828572a14.628571 14.628571 0 0 0-14.628571-14.628571z" /></svg>