<?xml version="1.0" standalone="no"?><!DOCTYPE svg PUBLIC "-//W3C//DTD SVG 1.1//EN" "http://www.w3.org/Graphics/SVG/1.1/DTD/svg11.dtd"><svg class="icon" width="200px" height="186.69px" viewBox="0 0 1097 1024" version="1.1" xmlns="http://www.w3.org/2000/svg"><path d="M548.571429 73.142857c138.971429 0 255.268571 96.914286 285.184 226.816A292.717714 292.717714 0 0 1 768 877.714286H596.041143l0.073143-324.022857 73.801143 73.728a14.628571 14.628571 0 0 0 24.941714-10.386286V523.995429a14.628571 14.628571 0 0 0-4.315429-10.386286L574.464 397.458286a36.571429 36.571429 0 0 0-51.785143 0L406.674286 513.609143a14.628571 14.628571 0 0 0-4.315429 10.386286v93.037714a14.628571 14.628571 0 0 0 24.941714 10.386286L501.028571 553.618286 500.955429 877.714286H329.142857a292.571429 292.571429 0 0 1-65.755428-577.755429A292.717714 292.717714 0 0 1 548.571429 73.142857z" /></svg>