<?xml version="1.0" standalone="no"?><!DOCTYPE svg PUBLIC "-//W3C//DTD SVG 1.1//EN" "http://www.w3.org/Graphics/SVG/1.1/DTD/svg11.dtd"><svg class="icon" width="200px" height="200.00px" viewBox="0 0 1024 1024" version="1.1" xmlns="http://www.w3.org/2000/svg"><path d="M877.714286 36.571429a146.285714 146.285714 0 0 1 146.285714 146.285714V731.428571a146.285714 146.285714 0 0 1-146.285714 146.285715h-109.714286l-201.289143 114.980571A36.571429 36.571429 0 0 1 512 961.024V877.714286H146.285714a146.285714 146.285714 0 0 1-146.285714-146.285715V182.857143a146.285714 146.285714 0 0 1 146.285714-146.285714zM336.457143 365.714286h-65.828572a14.628571 14.628571 0 0 0-14.628571 14.628571v153.6c0 8.045714 6.582857 14.628571 14.628571 14.628572h65.828572a14.628571 14.628571 0 0 0 14.628571-14.628572V380.342857a14.628571 14.628571 0 0 0-14.628571-14.628571z m219.428571 0h-65.828571a14.628571 14.628571 0 0 0-14.628572 14.628571v153.6c0 8.045714 6.582857 14.628571 14.628572 14.628572h65.828571a14.628571 14.628571 0 0 0 14.628572-14.628572V380.342857a14.628571 14.628571 0 0 0-14.628572-14.628571z m219.428572 0h-65.828572a14.628571 14.628571 0 0 0-14.628571 14.628571v153.6c0 8.045714 6.582857 14.628571 14.628571 14.628572h65.828572a14.628571 14.628571 0 0 0 14.628571-14.628572V380.342857a14.628571 14.628571 0 0 0-14.628571-14.628571z" /></svg>