<?xml version="1.0" standalone="no"?><!DOCTYPE svg PUBLIC "-//W3C//DTD SVG 1.1//EN" "http://www.w3.org/Graphics/SVG/1.1/DTD/svg11.dtd"><svg class="icon" width="200px" height="200.00px" viewBox="0 0 1024 1024" version="1.1" xmlns="http://www.w3.org/2000/svg"><path d="M512 0l438.857143 181.101714v378.806857c0 90.550857-40.594286 209.554286-150.162286 305.590858C697.490286 956.050286 512 1024 512 1024s-185.490286-67.949714-288.694857-158.500571C113.737143 769.462857 73.142857 650.459429 73.142857 559.908571V181.101714L512 0z m178.468571 345.380571l-212.114285 212.114286-122.368-122.441143a14.628571 14.628571 0 0 0-20.626286 0l-46.592 46.592a14.628571 14.628571 0 0 0 0 20.626286l163.766857 163.84a36.571429 36.571429 0 0 0 51.712 0l253.44-253.513143a14.628571 14.628571 0 0 0 0-20.626286l-46.592-46.592a14.628571 14.628571 0 0 0-20.699428 0z" /></svg>