<?xml version="1.0" standalone="no"?><!DOCTYPE svg PUBLIC "-//W3C//DTD SVG 1.1//EN" "http://www.w3.org/Graphics/SVG/1.1/DTD/svg11.dtd"><svg class="icon" width="200px" height="200.00px" viewBox="0 0 1024 1024" version="1.1" xmlns="http://www.w3.org/2000/svg"><path d="M987.428571 73.142857a36.571429 36.571429 0 0 1 36.571429 36.571429v804.571428a36.571429 36.571429 0 0 1-36.571429 36.571429H36.571429a36.571429 36.571429 0 0 1-36.571429-36.571429v-804.571428A36.571429 36.571429 0 0 1 36.571429 73.142857zM422.985143 292.571429A57.270857 57.270857 0 0 0 365.714286 349.842286v324.315428a57.270857 57.270857 0 0 0 86.747428 49.078857l268.434286-161.060571a58.514286 58.514286 0 0 0 0-100.352l-268.434286-161.060571A57.270857 57.270857 0 0 0 422.985143 292.571429zM460.8 416.621714L619.739429 512 460.8 607.378286V416.621714z" /></svg>