<?xml version="1.0" standalone="no"?><!DOCTYPE svg PUBLIC "-//W3C//DTD SVG 1.1//EN" "http://www.w3.org/Graphics/SVG/1.1/DTD/svg11.dtd"><svg class="icon" width="200px" height="200.00px" viewBox="0 0 1024 1024" version="1.1" xmlns="http://www.w3.org/2000/svg"><path d="M525.312 950.857143L226.011429 762.806857H73.142857a73.142857 73.142857 0 0 1-73.142857-73.142857V334.262857a73.142857 73.142857 0 0 1 73.142857-73.142857h152.868572L525.385143 73.142857H570.514286c8.045714 0 14.628571 6.582857 14.628571 14.628572v848.457142a14.628571 14.628571 0 0 1-14.628571 14.628572h-45.202286z m410.185143-129.316572a14.336 14.336 0 0 1-20.918857 3.584l-52.370286-40.740571a14.921143 14.921143 0 0 1-3.437714-19.529143A487.862857 487.862857 0 0 0 928.914286 512a487.862857 487.862857 0 0 0-70.217143-252.854857 14.921143 14.921143 0 0 1 3.510857-19.529143l52.370286-40.667429a14.336 14.336 0 0 1 20.992 3.510858A582.436571 582.436571 0 0 1 1024 512a582.363429 582.363429 0 0 1-88.502857 309.540571z m-174.372572-482.596571a14.116571 14.116571 0 0 0-21.211428-4.242286l-53.028572 41.252572a15.213714 15.213714 0 0 0-4.096 18.651428C699.904 430.08 709.485714 469.942857 709.485714 512s-9.581714 81.92-26.697143 117.394286a15.213714 15.213714 0 0 0 4.096 18.651428l53.028572 41.252572a14.116571 14.116571 0 0 0 21.211428-4.242286C788.845714 633.417143 804.571429 574.610286 804.571429 512c0-62.610286-15.725714-121.490286-43.446858-173.056z" /></svg>