<?xml version="1.0" standalone="no"?><!DOCTYPE svg PUBLIC "-//W3C//DTD SVG 1.1//EN" "http://www.w3.org/Graphics/SVG/1.1/DTD/svg11.dtd"><svg class="icon" width="200px" height="200.00px" viewBox="0 0 1024 1024" version="1.1" xmlns="http://www.w3.org/2000/svg"><path d="M512 0a512 512 0 1 1 0 1024A512 512 0 0 1 512 0z m-0.219429 640a63.268571 63.268571 0 0 0-64.146285 63.414857c0 36.059429 28.818286 63.488 64.146285 63.488a63.122286 63.122286 0 0 0 64.438858-63.488 63.122286 63.122286 0 0 0-64.438858-63.414857z m24.283429-365.714286h-48.274286a32.914286 32.914286 0 0 0-32.914285 33.499429L460.068571 548.571429a32.914286 32.914286 0 0 0 32.914286 32.329142h38.034286a32.914286 32.914286 0 0 0 32.914286-32.329142l5.12-240.786286a32.914286 32.914286 0 0 0-32.914286-33.499429z" /></svg>