<svg class="icon" width="200px" height="200.00px" viewBox="0 0 1024 1024" version="1.1" xmlns="http://www.w3.org/2000/svg"><path  d="M687.542857 376.685714A157.257143 157.257143 0 0 1 844.8 219.428571h10.971429A168.228571 168.228571 0 0 1 1024 387.657143v7.314286c0 50.468571-21.284571 84.992-55.442286 117.028571 34.157714 32.036571 55.442286 66.56 55.442286 117.028571v7.314286a168.228571 168.228571 0 0 1-168.228571 168.228572h-10.971429A157.257143 157.257143 0 0 1 687.542857 647.314286V629.028571a18.285714 18.285714 0 0 1 18.285714-18.285714h58.514286a18.285714 18.285714 0 0 1 18.285714 18.285714v18.285715c0 34.377143 27.794286 62.171429 62.171429 62.171428h10.971429a73.142857 73.142857 0 0 0 73.142857-73.142857v-7.314286c0-44.032-35.328-69.12-79.213715-69.778285h-48.786285a18.285714 18.285714 0 0 1-18.285715-18.285715v-58.002285a18.285714 18.285714 0 0 1 18.285715-18.285715h48.786285c43.885714-0.658286 79.213714-25.673143 79.213715-69.705142v-7.314286a73.142857 73.142857 0 0 0-73.142857-73.142857h-10.971429a62.171429 62.171429 0 0 0-62.171429 62.171428v18.285715a18.285714 18.285714 0 0 1-18.285714 18.285714h-58.514286a18.285714 18.285714 0 0 1-18.285714-18.285714v-18.285715zM121.417143 219.428571a18.285714 18.285714 0 0 0-10.313143 3.218286L0 298.715429v89.819428c0 8.777143 9.874286 14.043429 17.188571 9.069714l81.554286-55.881142v444.562285c0 10.093714 8.192 18.285714 18.285714 18.285715h58.514286a18.285714 18.285714 0 0 0 18.285714-18.285715v-548.571428A18.285714 18.285714 0 0 0 175.542857 219.428571h-54.125714zM460.946286 311.076571c-46.518857 0-84.260571 36.352-84.260572 81.188572v12.507428a10.971429 10.971429 0 0 1-10.971428 10.971429H292.571429a10.971429 10.971429 0 0 1-10.971429-10.971429v-12.434285C281.6 296.740571 361.910857 219.428571 460.946286 219.428571h10.971428c107.52 0 188.123429 94.793143 167.058286 196.315429a176.128 176.128 0 0 1-42.276571 82.651429L401.92 712.850286H610.742857a10.971429 10.971429 0 0 1 10.971429 10.971428v69.705143a10.971429 10.971429 0 0 1-10.971429 10.971429H299.885714a18.285714 18.285714 0 0 1-18.285714-18.285715V706.267429l243.565714-268.288c10.386286-11.410286 17.481143-25.307429 20.553143-40.228572 9.289143-44.836571-26.331429-86.674286-73.728-86.674286h-11.044571z" /></svg>