<svg class="icon" width="200px" height="200.00px" viewBox="0 0 1024 1024" version="1.1" xmlns="http://www.w3.org/2000/svg"><path  d="M987.428571 73.142857a36.571429 36.571429 0 0 1 35.986286 29.988572L1024 109.714286v804.571428a36.571429 36.571429 0 0 1-29.988571 35.986286L987.428571 950.857143H36.571429a36.571429 36.571429 0 0 1-35.986286-29.988572L0 914.285714v-804.571428a36.571429 36.571429 0 0 1 29.988571-35.986286L36.571429 73.142857h950.857142z m-58.514285 95.085714H95.085714v687.542858h833.828572V168.228571zM324.900571 292.571429c2.998857 0 5.558857 2.194286 6.656 5.339428l0.585143 3.437714V555.885714h28.745143c2.998857 0 5.558857 2.194286 6.656 5.339429l0.585143 3.437714v70.217143c0 3.657143-1.828571 6.729143-4.388571 8.045714l-2.852572 0.731429h-28.745143v78.994286c0 3.657143-1.828571 6.729143-4.388571 8.045714l-2.779429 0.731428h-57.563428c-2.998857 0-5.558857-2.194286-6.656-5.339428l-0.585143-3.437714V643.657143H153.453714c-2.925714 0-5.485714-2.194286-6.582857-5.339429L146.285714 634.88V543.744L237.933714 297.691429a8.045714 8.045714 0 0 1 3.803429-4.461715L244.443429 292.571429h80.457142zM512 292.571429c59.611429 0 107.885714 58.953143 107.885714 131.657142v175.542858c0 72.704-48.274286 131.657143-107.885714 131.657142-59.611429 0-107.885714-58.953143-107.885714-131.657142V424.228571c0-72.704 48.274286-131.657143 107.885714-131.657142z m322.56 0c3.949714 0 7.168 3.949714 7.168 8.777142V555.885714h28.818286c3.949714 0 7.168 3.949714 7.168 8.777143v70.217143c0 4.827429-3.218286 8.777143-7.168 8.777143h-28.818286v78.994286c0 4.827429-3.218286 8.777143-7.168 8.777142h-57.563429c-3.949714 0-7.168-3.949714-7.168-8.777142V643.657143h-106.788571c-3.949714 0-7.168-3.949714-7.168-8.777143V543.744L747.52 297.691429c1.170286-3.072 3.657143-5.12 6.582857-5.12h80.457143zM512 380.342857c-19.894857 0-35.986286 19.675429-35.986286 43.885714v175.542858c0 24.210286 16.091429 43.885714 35.986286 43.885714s35.986286-19.675429 35.986286-43.885714V424.228571c0-24.210286-16.091429-43.885714-35.986286-43.885714zM260.169143 455.314286L224.182857 555.885714h35.986286V455.314286z m509.659428 0L733.769143 555.885714h35.986286V455.314286z" /></svg>