<?xml version="1.0" standalone="no"?><!DOCTYPE svg PUBLIC "-//W3C//DTD SVG 1.1//EN" "http://www.w3.org/Graphics/SVG/1.1/DTD/svg11.dtd"><svg class="icon" width="200px" height="200.00px" viewBox="0 0 1024 1024" version="1.1" xmlns="http://www.w3.org/2000/svg"><path d="M73.142857 987.428571a36.571429 36.571429 0 0 0 36.571429 36.571429h420.571428a18.285714 18.285714 0 0 0 18.285715-18.285714v-58.514286a18.285714 18.285714 0 0 0-18.285715-18.285714H168.228571V168.228571h687.542858v325.485715c0 10.093714 8.192 18.285714 18.285714 18.285714h58.514286a18.285714 18.285714 0 0 0 18.285714-18.285714V109.714286a36.571429 36.571429 0 0 0-36.571429-36.571429h-804.571428a36.571429 36.571429 0 0 0-36.571429 36.571429v877.714285zM292.571429 307.2c0-8.045714 6.582857-14.628571 14.628571-14.628571h409.6c8.045714 0 14.628571 6.582857 14.628571 14.628571v65.828571a14.628571 14.628571 0 0 1-14.628571 14.628572H307.2a14.628571 14.628571 0 0 1-14.628571-14.628572v-65.828571zM292.571429 526.628571c0-8.045714 6.582857-14.628571 14.628571-14.628571h226.742857c8.045714 0 14.628571 6.582857 14.628572 14.628571v65.828572a14.628571 14.628571 0 0 1-14.628572 14.628571H307.2a14.628571 14.628571 0 0 1-14.628571-14.628571v-65.828572zM720.457143 672.914286c0-8.045714 6.582857-14.628571 14.628571-14.628572h65.828572c8.045714 0 14.628571 6.582857 14.628571 14.628572v47.542857h47.542857c8.045714 0 14.628571 6.582857 14.628572 14.628571v65.828572a14.628571 14.628571 0 0 1-14.628572 14.628571h-106.057143a36.571429 36.571429 0 0 1-36.571428-36.571428V672.914286zM768 1024a256 256 0 1 1 0-512 256 256 0 0 1 0 512z m0-95.085714a160.914286 160.914286 0 1 0 0-321.828572 160.914286 160.914286 0 0 0 0 321.828572zM720.457143 672.914286c0-8.045714 6.582857-14.628571 14.628571-14.628572h65.828572c8.045714 0 14.628571 6.582857 14.628571 14.628572v47.542857h47.542857c8.045714 0 14.628571 6.582857 14.628572 14.628571v65.828572a14.628571 14.628571 0 0 1-14.628572 14.628571h-106.057143a36.571429 36.571429 0 0 1-36.571428-36.571428V672.914286zM768 1024a256 256 0 1 1 0-512 256 256 0 0 1 0 512z m0-95.085714a160.914286 160.914286 0 1 0 0-321.828572 160.914286 160.914286 0 0 0 0 321.828572z" /></svg>