<?xml version="1.0" standalone="no"?><!DOCTYPE svg PUBLIC "-//W3C//DTD SVG 1.1//EN" "http://www.w3.org/Graphics/SVG/1.1/DTD/svg11.dtd"><svg class="icon" width="200px" height="200.00px" viewBox="0 0 1024 1024" version="1.1" xmlns="http://www.w3.org/2000/svg"><path d="M512 109.714286l348.306286 200.996571v401.993143L512 913.700571 163.693714 712.704V310.710857L512 109.714286zM530.285714 10.532571a36.571429 36.571429 0 0 0-36.571428 0l-406.820572 234.788572a36.571429 36.571429 0 0 0-18.285714 31.597714v469.577143a36.571429 36.571429 0 0 0 18.285714 31.597714l406.820572 234.788572a36.571429 36.571429 0 0 0 36.571428 0l406.820572-234.788572a36.571429 36.571429 0 0 0 18.285714-31.670857V276.918857a36.571429 36.571429 0 0 0-18.285714-31.597714L530.285714 10.532571zM278.528 365.494857a47.542857 47.542857 0 0 1 63.414857-20.626286L512 429.860571l170.057143-84.992a47.542857 47.542857 0 0 1 42.422857 84.992L559.542857 512.292571v189.952a47.542857 47.542857 0 0 1-95.085714 0V512.292571L299.446857 429.860571a47.542857 47.542857 0 0 1-20.918857-64.365714zM512 109.714286l348.306286 200.996571v401.993143L512 913.700571 163.693714 712.704V310.710857L512 109.714286zM530.285714 10.532571a36.571429 36.571429 0 0 0-36.571428 0l-406.820572 234.788572a36.571429 36.571429 0 0 0-18.285714 31.597714v469.577143a36.571429 36.571429 0 0 0 18.285714 31.597714l406.820572 234.788572a36.571429 36.571429 0 0 0 36.571428 0l406.820572-234.788572a36.571429 36.571429 0 0 0 18.285714-31.670857V276.918857a36.571429 36.571429 0 0 0-18.285714-31.597714L530.285714 10.532571zM278.528 365.494857a47.542857 47.542857 0 0 1 63.414857-20.626286L512 429.860571l170.057143-84.992a47.542857 47.542857 0 0 1 42.422857 84.992L559.542857 512.292571v189.952a47.542857 47.542857 0 0 1-95.085714 0V512.292571L299.446857 429.860571a47.542857 47.542857 0 0 1-20.918857-64.365714z" /></svg>