<?xml version="1.0" standalone="no"?><!DOCTYPE svg PUBLIC "-//W3C//DTD SVG 1.1//EN" "http://www.w3.org/Graphics/SVG/1.1/DTD/svg11.dtd"><svg class="icon" width="200px" height="200.00px" viewBox="0 0 1024 1024" version="1.1" xmlns="http://www.w3.org/2000/svg"><path d="M658.285714 358.4a18.285714 18.285714 0 0 0-18.285714-18.285714h-329.142857A18.285714 18.285714 0 0 0 292.571429 358.4v58.514286c0 10.093714 8.192 18.285714 18.285714 18.285714h329.142857A18.285714 18.285714 0 0 0 658.285714 416.914286v-58.514286zM768 73.142857c46.445714 0 84.114286 37.668571 84.114286 84.114286v424.667428a162.596571 162.596571 0 0 1 125.293714 23.478858c43.154286 28.818286 51.2 89.014857 16.969143 128.073142l-241.371429 275.894858H18.285714a18.285714 18.285714 0 0 1-18.285714-18.285715v-351.085714a18.285714 18.285714 0 0 1 18.285714-18.285714h80.457143V157.257143C98.742857 110.811429 136.411429 73.142857 182.857143 73.142857h585.142857z m74.678857 616.740572l-218.258286 191.049142a18.285714 18.285714 0 0 1-17.993142 3.510858l-82.358858-28.233143a7.314286 7.314286 0 0 1-2.413714-12.434286l58.660572-50.614857-116.370286-58.221714A171.885714 171.885714 0 0 0 387.072 716.8H95.085714v197.485714h614.765715l205.531428-234.934857a67.584 67.584 0 0 0-72.704 10.532572zM757.028571 168.228571h-563.2v453.485715h193.243429a266.971429 266.971429 0 0 1 119.369143 28.16L657.627429 725.577143 757.028571 638.537143V168.228571z" /></svg>