<?xml version="1.0" standalone="no"?><!DOCTYPE svg PUBLIC "-//W3C//DTD SVG 1.1//EN" "http://www.w3.org/Graphics/SVG/1.1/DTD/svg11.dtd"><svg class="icon" width="200px" height="200.00px" viewBox="0 0 1024 1024" version="1.1" xmlns="http://www.w3.org/2000/svg"><path d="M365.714286 277.942857a146.285714 146.285714 0 1 1 0 292.571429 146.285714 146.285714 0 0 1 0-292.571429z m0 95.085714a51.2 51.2 0 1 0 0 102.4 51.2 51.2 0 0 0 0-102.4zM365.714286 522.971429A193.828571 193.828571 0 0 0 171.885714 716.8v18.285714c0 10.093714 8.192 18.285714 18.285715 18.285715h58.514285a18.285714 18.285714 0 0 0 18.285715-18.285715V716.8a98.742857 98.742857 0 1 1 197.485714 0v18.285714c0 10.093714 8.192 18.285714 18.285714 18.285715h58.514286a18.285714 18.285714 0 0 0 18.285714-18.285715V716.8A193.828571 193.828571 0 0 0 365.714286 522.971429zM603.428571 442.514286A18.285714 18.285714 0 0 1 585.142857 424.228571V365.714286a18.285714 18.285714 0 0 1 18.285714-18.285715h219.428572a18.285714 18.285714 0 0 1 18.285714 18.285715v58.514285a18.285714 18.285714 0 0 1-18.285714 18.285715h-219.428572zM822.857143 661.942857a18.285714 18.285714 0 0 0 18.285714-18.285714V585.142857a18.285714 18.285714 0 0 0-18.285714-18.285714h-146.285714A18.285714 18.285714 0 0 0 658.285714 585.142857v58.514286c0 10.093714 8.192 18.285714 18.285715 18.285714h146.285714zM0 109.714286A36.571429 36.571429 0 0 1 36.571429 73.142857h950.857142a36.571429 36.571429 0 0 1 36.571429 36.571429v804.571428a36.571429 36.571429 0 0 1-36.571429 36.571429H36.571429a36.571429 36.571429 0 0 1-36.571429-36.571429v-804.571428z m95.085714 58.514285v687.542858h833.828572V168.228571H95.085714z" /></svg>