<?xml version="1.0" standalone="no"?><!DOCTYPE svg PUBLIC "-//W3C//DTD SVG 1.1//EN" "http://www.w3.org/Graphics/SVG/1.1/DTD/svg11.dtd"><svg class="icon" width="200px" height="200.00px" viewBox="0 0 1024 1024" version="1.1" xmlns="http://www.w3.org/2000/svg"><path d="M731.428571 292.571429a219.428571 219.428571 0 1 1-438.857142 0 219.428571 219.428571 0 0 1 438.857142 0zM387.657143 292.571429a124.342857 124.342857 0 1 0 248.685714 0 124.342857 124.342857 0 0 0-248.685714 0zM73.142857 804.571429a219.428571 219.428571 0 0 1 219.428572-219.428572h299.154285c6.729143 0 10.020571 8.484571 5.266286 13.238857a293.302857 293.302857 0 0 0-55.296 77.677715 7.460571 7.460571 0 0 1-6.656 4.169142H292.571429A124.342857 124.342857 0 0 0 168.228571 804.571429v124.342857h366.811429c2.779429 0 5.412571 1.609143 6.582857 4.169143 14.189714 28.891429 32.914286 55.076571 55.369143 77.677714 4.754286 4.754286 1.462857 13.238857-5.266286 13.238857H80.457143a7.314286 7.314286 0 0 1-7.314286-7.314286V804.571429zM804.571429 1024a219.428571 219.428571 0 1 0 0-438.857143 219.428571 219.428571 0 0 0 0 438.857143z m124.342857-219.428571a124.342857 124.342857 0 0 1-165.010286 117.540571l152.502857-171.958857c8.045714 16.384 12.507429 34.889143 12.507429 54.418286z m-83.675429-117.540572l-152.502857 171.958857a124.342857 124.342857 0 0 1 152.502857-171.958857z" /></svg>