<?xml version="1.0" standalone="no"?><!DOCTYPE svg PUBLIC "-//W3C//DTD SVG 1.1//EN" "http://www.w3.org/Graphics/SVG/1.1/DTD/svg11.dtd"><svg class="icon" width="200px" height="200.00px" viewBox="0 0 1024 1024" version="1.1" xmlns="http://www.w3.org/2000/svg"><path d="M73.142857 987.428571a36.571429 36.571429 0 0 0 36.571429 36.571429h457.142857a18.285714 18.285714 0 0 0 18.285714-18.285714v-58.514286a18.285714 18.285714 0 0 0-18.285714-18.285714H168.228571V168.228571h687.542858v398.628572c0 10.093714 8.192 18.285714 18.285714 18.285714h58.514286a18.285714 18.285714 0 0 0 18.285714-18.285714V109.714286a36.571429 36.571429 0 0 0-36.571429-36.571429h-804.571428a36.571429 36.571429 0 0 0-36.571429 36.571429v877.714285zM292.571429 307.2c0-8.045714 6.582857-14.628571 14.628571-14.628571h409.6c8.045714 0 14.628571 6.582857 14.628571 14.628571v65.828571a14.628571 14.628571 0 0 1-14.628571 14.628572H307.2a14.628571 14.628571 0 0 1-14.628571-14.628572v-65.828571zM307.2 512a14.628571 14.628571 0 0 0-14.628571 14.628571v65.828572c0 8.045714 6.582857 14.628571 14.628571 14.628571h263.314286a14.628571 14.628571 0 0 0 14.628571-14.628571v-65.828572a14.628571 14.628571 0 0 0-14.628571-14.628571H307.2zM874.057143 658.285714c8.045714 0 14.628571 6.582857 14.628571 14.628572v120.685714h120.685715c8.045714 0 14.628571 6.582857 14.628571 14.628571v65.828572a14.628571 14.628571 0 0 1-14.628571 14.628571h-120.685715v120.685715a14.628571 14.628571 0 0 1-14.628571 14.628571h-65.828572a14.628571 14.628571 0 0 1-14.628571-14.628571v-120.685715H672.914286a14.628571 14.628571 0 0 1-14.628572-14.628571v-65.828572c0-8.045714 6.582857-14.628571 14.628572-14.628571h120.685714V672.914286c0-8.045714 6.582857-14.628571 14.628571-14.628572h65.828572z" /></svg>