<?xml version="1.0" standalone="no"?><!DOCTYPE svg PUBLIC "-//W3C//DTD SVG 1.1//EN" "http://www.w3.org/Graphics/SVG/1.1/DTD/svg11.dtd"><svg class="icon" width="200px" height="186.69px" viewBox="0 0 1097 1024" version="1.1" xmlns="http://www.w3.org/2000/svg"><path d="M596.084056 559.540812h230.388316a14.62783 14.62783 0 0 0 14.627829-14.62783v-65.825233a14.62783 14.62783 0 0 0-14.627829-14.627829H596.084056V234.071604a14.62783 14.62783 0 0 0-14.62783-14.62783h-65.825233a14.62783 14.62783 0 0 0-14.62783 14.62783v230.388316H270.614847a14.62783 14.62783 0 0 0-14.627829 14.627829v65.825233c0 8.045306 6.582523 14.62783 14.627829 14.62783h230.388316v230.388316c0 8.045306 6.582523 14.62783 14.62783 14.627829h65.825233a14.62783 14.62783 0 0 0 14.62783-14.627829V559.540812zM910.582392 149.961583a511.974036 511.974036 0 1 1-724.077565 724.077565 511.974036 511.974036 0 0 1 724.077565-724.077565z m-656.789549 656.789549a416.893143 416.893143 0 1 0 589.501533-589.501533 416.893143 416.893143 0 0 0-589.501533 589.501533z" /></svg>