<?xml version="1.0" standalone="no"?><!DOCTYPE svg PUBLIC "-//W3C//DTD SVG 1.1//EN" "http://www.w3.org/Graphics/SVG/1.1/DTD/svg11.dtd"><svg class="icon" width="200px" height="186.69px" viewBox="0 0 1097 1024" version="1.1" xmlns="http://www.w3.org/2000/svg"><path d="M501.028571 559.542857v376.685714c0 8.045714 6.582857 14.628571 14.628572 14.628572h65.828571a14.628571 14.628571 0 0 0 14.628572-14.628572V559.542857h376.685714a14.628571 14.628571 0 0 0 14.628571-14.628571v-65.828572a14.628571 14.628571 0 0 0-14.628571-14.628571H596.114286V87.771429a14.628571 14.628571 0 0 0-14.628572-14.628572h-65.828571a14.628571 14.628571 0 0 0-14.628572 14.628572v376.685714H124.342857a14.628571 14.628571 0 0 0-14.628571 14.628571v65.828572c0 8.045714 6.582857 14.628571 14.628571 14.628571h376.685714zM501.028571 559.542857v376.685714c0 8.045714 6.582857 14.628571 14.628572 14.628572h65.828571a14.628571 14.628571 0 0 0 14.628572-14.628572V559.542857h376.685714a14.628571 14.628571 0 0 0 14.628571-14.628571v-65.828572a14.628571 14.628571 0 0 0-14.628571-14.628571H596.114286V87.771429a14.628571 14.628571 0 0 0-14.628572-14.628572h-65.828571a14.628571 14.628571 0 0 0-14.628572 14.628572v376.685714H124.342857a14.628571 14.628571 0 0 0-14.628571 14.628571v65.828572c0 8.045714 6.582857 14.628571 14.628571 14.628571h376.685714z" /></svg>