<?xml version="1.0" standalone="no"?><!DOCTYPE svg PUBLIC "-//W3C//DTD SVG 1.1//EN" "http://www.w3.org/Graphics/SVG/1.1/DTD/svg11.dtd"><svg class="icon" width="200px" height="186.69px" viewBox="0 0 1097 1024" version="1.1" xmlns="http://www.w3.org/2000/svg"><path d="M596.114286 380.342857a14.628571 14.628571 0 0 0-14.628572-14.628571h-65.828571a14.628571 14.628571 0 0 0-14.628572 14.628571v120.685714H380.342857a14.628571 14.628571 0 0 0-14.628571 14.628572v65.828571c0 8.045714 6.582857 14.628571 14.628571 14.628572h120.685714V716.8c0 8.045714 6.582857 14.628571 14.628572 14.628571h65.828571l3.876572-0.512A14.628571 14.628571 0 0 0 596.114286 716.8V596.114286H716.8l3.876571-0.512A14.628571 14.628571 0 0 0 731.428571 581.485714v-65.828571a14.628571 14.628571 0 0 0-14.628571-14.628572H596.114286V380.342857zM772.388571 5.12a14.628571 14.628571 0 0 0-11.117714-5.12H146.285714a36.571429 36.571429 0 0 0-36.571428 36.571429v950.857142a36.571429 36.571429 0 0 0 36.571428 36.571429h804.571429l6.582857-0.585143a36.571429 36.571429 0 0 0 29.988571-35.986286V261.412571a14.628571 14.628571 0 0 0-3.510857-9.508571L772.388571 5.12zM204.8 95.085714h433.005714v241.371429c0 8.045714 6.582857 14.628571 14.628572 14.628571h239.908571v577.828572H204.8V95.085714z m528.091429 160.914286v-146.285714l127.268571 146.285714h-127.268571z" /></svg>