<?xml version="1.0" standalone="no"?><!DOCTYPE svg PUBLIC "-//W3C//DTD SVG 1.1//EN" "http://www.w3.org/Graphics/SVG/1.1/DTD/svg11.dtd"><svg class="icon" width="200px" height="200.00px" viewBox="0 0 1024 1024" version="1.1" xmlns="http://www.w3.org/2000/svg"><path d="M475.428571 73.142857a36.571429 36.571429 0 0 1 36.571429 36.571429v804.571428a36.571429 36.571429 0 0 1-36.571429 36.571429h-365.714285a36.571429 36.571429 0 0 1-36.571429-36.571429v-804.571428a36.571429 36.571429 0 0 1 36.571429-36.571429h365.714285z m-58.514285 95.085714H168.228571v687.542858h248.685715V168.228571z m303.542857 175.542858c0-8.045714 6.582857-14.628571 14.628571-14.628572h65.828572c8.045714 0 14.628571 6.582857 14.628571 14.628572v120.685714h120.685714c8.045714 0 14.628571 6.582857 14.628572 14.628571v65.828572a14.628571 14.628571 0 0 1-14.628572 14.628571h-120.685714V680.228571a14.628571 14.628571 0 0 1-14.628571 14.628572h-65.828572a14.628571 14.628571 0 0 1-14.628571-14.628572V559.542857H599.771429a14.628571 14.628571 0 0 1-14.628572-14.628571v-65.828572c0-8.045714 6.582857-14.628571 14.628572-14.628571h120.685714V343.771429z" /></svg>