<?xml version="1.0" standalone="no"?><!DOCTYPE svg PUBLIC "-//W3C//DTD SVG 1.1//EN" "http://www.w3.org/Graphics/SVG/1.1/DTD/svg11.dtd"><svg class="icon" width="200px" height="200.00px" viewBox="0 0 1024 1024" version="1.1" xmlns="http://www.w3.org/2000/svg"><path d="M512 245.028571a193.828571 193.828571 0 1 0 0 387.657143 193.828571 193.828571 0 0 0 0-387.657143zM413.257143 438.857143a98.742857 98.742857 0 1 1 197.485714 0 98.742857 98.742857 0 0 1-197.485714 0zM950.857143 438.857143c0 256-365.714286 585.142857-438.857143 585.142857S73.142857 694.857143 73.142857 438.857143a438.857143 438.857143 0 1 1 877.714286 0z m-95.085714 0a343.771429 343.771429 0 1 0-687.542858 0c0 42.569143 15.652571 95.378286 47.250286 154.916571 31.012571 58.587429 74.24 117.613714 121.051429 170.861715 46.811429 53.101714 95.085714 98.084571 134.582857 129.024 16.384 12.8 30.208 22.381714 40.886857 28.891428 10.678857-6.582857 24.502857-16.091429 40.886857-28.891428a1045.796571 1045.796571 0 0 0 134.582857-129.024c46.811429-53.248 89.965714-112.274286 121.051429-170.861715 31.597714-59.538286 47.250286-112.347429 47.250286-154.916571zM512 245.028571a193.828571 193.828571 0 1 0 0 387.657143 193.828571 193.828571 0 0 0 0-387.657143zM413.257143 438.857143a98.742857 98.742857 0 1 1 197.485714 0 98.742857 98.742857 0 0 1-197.485714 0zM950.857143 438.857143c0 256-365.714286 585.142857-438.857143 585.142857S73.142857 694.857143 73.142857 438.857143a438.857143 438.857143 0 1 1 877.714286 0z m-95.085714 0a343.771429 343.771429 0 1 0-687.542858 0c0 42.569143 15.652571 95.378286 47.250286 154.916571 31.012571 58.587429 74.24 117.613714 121.051429 170.861715 46.811429 53.101714 95.085714 98.084571 134.582857 129.024 16.384 12.8 30.208 22.381714 40.886857 28.891428 10.678857-6.582857 24.502857-16.091429 40.886857-28.891428a1045.796571 1045.796571 0 0 0 134.582857-129.024c46.811429-53.248 89.965714-112.274286 121.051429-170.861715 31.597714-59.538286 47.250286-112.347429 47.250286-154.916571z" /></svg>