<?xml version="1.0" standalone="no"?><!DOCTYPE svg PUBLIC "-//W3C//DTD SVG 1.1//EN" "http://www.w3.org/Graphics/SVG/1.1/DTD/svg11.dtd"><svg class="icon" width="200px" height="200.00px" viewBox="0 0 1024 1024" version="1.1" xmlns="http://www.w3.org/2000/svg"><path d="M292.571429 292.571429a219.428571 219.428571 0 1 0 438.857142 0.073142A219.428571 219.428571 0 0 0 292.571429 292.571429z m343.771428 0a124.342857 124.342857 0 1 1-248.685714 0 124.342857 124.342857 0 0 1 248.685714 0zM830.171429 925.257143v84.114286c0 8.045714 6.582857 14.628571 14.628571 14.628571h65.828571a14.628571 14.628571 0 0 0 14.628572-14.628571v-84.114286h84.114286a14.628571 14.628571 0 0 0 14.628571-14.628572v-65.828571a14.628571 14.628571 0 0 0-14.628571-14.628571h-84.114286V746.057143a14.628571 14.628571 0 0 0-14.628572-14.628572h-65.828571a14.628571 14.628571 0 0 0-14.628571 14.628572v84.114286H746.057143a14.628571 14.628571 0 0 0-14.628572 14.628571v65.828571c0 8.045714 6.582857 14.628571 14.628572 14.628572h84.114286zM168.228571 804.571429A124.342857 124.342857 0 0 1 292.571429 680.228571h602.916571c6.875429 0 11.483429-7.533714 7.168-12.873142A218.989714 218.989714 0 0 0 731.428571 585.142857H292.571429a219.428571 219.428571 0 0 0-219.428572 219.428572v182.857142a36.571429 36.571429 0 0 0 36.571429 36.571429h541.257143a7.314286 7.314286 0 0 0 7.314285-7.314286v-80.457143a7.314286 7.314286 0 0 0-7.314285-7.314285H168.228571V804.571429z" /></svg>