<svg class="icon" width="200px" height="200.00px" viewBox="0 0 1024 1024" version="1.1" xmlns="http://www.w3.org/2000/svg"><path  d="M438.857143 0a365.714286 365.714286 0 0 1 365.714286 365.714286v148.845714a256 256 0 0 1-22.528 509.074286L768 1024c-59.830857 0-114.834286-20.48-158.354286-54.857143H18.285714A18.285714 18.285714 0 0 1 0 950.857143v-58.514286a18.285714 18.285714 0 0 1 18.285714-18.285714h516.681143A256.073143 256.073143 0 0 1 709.485714 518.729143V365.714286a270.628571 270.628571 0 0 0-541.257143 0v438.857143H73.142857V365.714286a365.714286 365.714286 0 0 1 365.714286-365.714286z m329.142857 607.085714a160.914286 160.914286 0 1 0 0 321.828572 160.914286 160.914286 0 0 0 0-321.828572z m36.571429 40.228572a10.971429 10.971429 0 0 1 10.971428 10.971428v62.171429H877.714286a10.971429 10.971429 0 0 1 10.971428 10.971428v73.142858a10.971429 10.971429 0 0 1-7.533714 10.386285L877.714286 815.542857h-138.971429a18.285714 18.285714 0 0 1-18.285714-18.285714V658.285714a10.971429 10.971429 0 0 1 10.971428-10.971428h73.142858zM543.158857 256a7.314286 7.314286 0 0 1 7.314286 7.021714l-0.512 2.925715-66.048 174.811428h44.617143a14.628571 14.628571 0 0 1 14.043428 19.017143l-1.828571 3.730286-149.577143 224.841143a14.628571 14.628571 0 0 1-8.557714 6.070857l-3.657143 0.438857h-20.772572a7.314286 7.314286 0 0 1-7.314285-6.875429l0.365714-2.852571 60.708571-175.030857h-55.881142a14.628571 14.628571 0 0 1-14.628572-14.848l0.585143-3.949715 66.779429-224.841142a14.628571 14.628571 0 0 1 10.24-9.947429L422.765714 256h120.393143z" /></svg>