<svg class="icon" width="200px" height="200.00px" viewBox="0 0 1024 1024" version="1.1" xmlns="http://www.w3.org/2000/svg"><path  d="M748.096809 0.292425l7.31063 0.438638a47.519098 47.519098 0 0 1 35.968302 67.988863l-4.020847 6.652673-60.385807 84.6571a328.247305 328.247305 0 0 1 112.583708 247.830371v441.269651a29.242522 29.242522 0 0 1-23.320911 28.657671l-5.848504 0.58485H705.475834v97.743129a47.519098 47.519098 0 0 1-40.500893 47.007353L657.956736 1023.634468a47.519098 47.519098 0 0 1-47.007354-40.500892l-0.511744-7.018205v-97.743129h-197.38702v97.743129a47.519098 47.519098 0 0 1-40.500893 47.007353L365.53152 1023.634468a47.519098 47.519098 0 0 1-47.007354-40.500892l-0.511744-7.018205v-97.743129H210.911687a29.242522 29.242522 0 0 1-29.242522-29.242521V407.86007a328.247305 328.247305 0 0 1 113.534091-248.63454l-59.654745-83.852931-4.020846-6.579567A47.519098 47.519098 0 0 1 274.879703 0.292425l7.31063 0.657957a47.519098 47.519098 0 0 1 20.104234 8.480331l5.702292 4.898123 4.971228 5.848504 62.50589 87.727565a327.808667 327.808667 0 0 1 135.246663-29.023203c48.615692 0 94.818876 10.600414 136.343257 29.534947L709.935318 20.250446a47.372885 47.372885 0 0 1 30.85086-19.300064l7.310631-0.657957zM47.519098 399.014207a47.519098 47.519098 0 0 1 47.007353 40.427786l0.511744 7.091312v292.425216a47.519098 47.519098 0 0 1-40.500892 46.934247l-7.018205 0.58485a47.519098 47.519098 0 0 1-47.007354-40.500892L0 738.958521v-292.425216a47.519098 47.519098 0 0 1 47.519098-47.519098z m928.45006 0a47.519098 47.519098 0 0 1 47.007354 40.427786l0.511744 7.091312v292.425216a47.519098 47.519098 0 0 1-40.500893 46.934247l-7.018205 0.58485a47.519098 47.519098 0 0 1-47.007353-40.500892l-0.511744-7.018205v-292.425216a47.519098 47.519098 0 0 1 47.519097-47.519098z m-231.454558 56.584279h-467.880346v327.735561h467.880346V455.598486z m-233.940173-281.678589a233.940173 233.940173 0 0 0-232.478047 208.645392h465.102306a233.940173 233.940173 0 0 0-219.318912-208.27986l-13.232241-0.365532zM406.763475 256.895552a36.553152 36.553152 0 0 1 6.579568 72.448347l-6.579568 0.657957a36.553152 36.553152 0 0 1 0-73.106304z m214.713215 0a36.553152 36.553152 0 0 1 6.579568 72.448347l-6.579568 0.657957a36.553152 36.553152 0 1 1 0-73.106304z" /></svg>