<?xml version="1.0" standalone="no"?><!DOCTYPE svg PUBLIC "-//W3C//DTD SVG 1.1//EN" "http://www.w3.org/Graphics/SVG/1.1/DTD/svg11.dtd"><svg class="icon" width="200px" height="200.00px" viewBox="0 0 1024 1024" version="1.1" xmlns="http://www.w3.org/2000/svg"><path d="M950.72808 6.13986a18.273393 18.273393 0 0 1 25.875125 0l41.370961 41.370961a18.273393 18.273393 0 0 1 0 25.802031l-53.358307 53.358307a303.33832 303.33832 0 0 1-30.991674 392.804851l-137.050446 137.050446L718.948366 578.901084l-69.80436 69.731267-67.246086-67.172992 69.804361-69.804361-139.608721-139.608721-69.877454 69.804361-67.246086-67.172992 69.804361-69.804361-77.552279-77.479185 137.050446-137.050446a303.776882 303.776882 0 0 1 393.097226-30.991674zM571.518633 157.662833l-69.80436 69.731267 294.859466 294.713279 69.80436-69.80436a208.316678 208.316678 0 0 0 0-294.640186 208.535959 208.535959 0 0 0-294.859466 0zM264.013979 356.258066l403.476513 403.257232a18.273393 18.273393 0 0 1 0 25.802031l-124.259071 124.03979a303.776882 303.776882 0 0 1-393.024132 30.991674L72.581916 1017.974166a18.273393 18.273393 0 0 1-25.875124 0l-41.370961-41.370961a18.273393 18.273393 0 0 1 0-25.875125l77.625372-77.552279a303.33832 303.33832 0 0 1 30.991674-392.877945l124.185978-124.03979a18.273393 18.273393 0 0 1 25.875124 0z m-12.937562 121.481515l-69.877454 69.804361a208.316678 208.316678 0 0 0 0 294.640185 208.535959 208.535959 0 0 0 294.859466 0l69.804361-69.80436-294.786373-294.567092z" /></svg>