<?xml version="1.0" standalone="no"?><!DOCTYPE svg PUBLIC "-//W3C//DTD SVG 1.1//EN" "http://www.w3.org/Graphics/SVG/1.1/DTD/svg11.dtd"><svg class="icon" width="200px" height="200.00px" viewBox="0 0 1024 1024" version="1.1" xmlns="http://www.w3.org/2000/svg"><path d="M671.817143 219.428571l4.681143 0.585143a18.285714 18.285714 0 0 1 5.851428 2.633143l2.486857 2.194286 250.953143 250.88 5.412572 6.436571a51.419429 51.419429 0 0 1 0 59.977143l-5.412572 6.363429-250.733714 250.733714a18.285714 18.285714 0 0 1-8.265143 4.754286L672.109714 804.571429l-4.681143-0.585143a18.066286 18.066286 0 0 1-5.778285-2.706286l-2.56-2.048-41.545143-41.618286a18.358857 18.358857 0 0 1-2.925714-22.016l2.925714-3.949714 171.885714-171.885714-698.075428 0.146285-4.242286-0.512a18.358857 18.358857 0 0 1-13.458286-12.873142l-0.658286-5.046858V482.742857c0-8.704 6.070857-15.945143 14.116572-17.846857l4.242286-0.512h698.221714L617.325714 292.278857l-2.998857-3.949714a18.358857 18.358857 0 0 1 0-18.139429l2.925714-3.876571 41.618286-41.545143A18.285714 18.285714 0 0 1 671.817143 219.428571z" /></svg>