<?xml version="1.0" standalone="no"?><!DOCTYPE svg PUBLIC "-//W3C//DTD SVG 1.1//EN" "http://www.w3.org/Graphics/SVG/1.1/DTD/svg11.dtd"><svg class="icon" width="200px" height="200.00px" viewBox="0 0 1024 1024" version="1.1" xmlns="http://www.w3.org/2000/svg"><path d="M364.982857 224.841143l41.545143 41.545143a18.285714 18.285714 0 0 1 2.998857 22.016l-2.925714 3.949714-172.324572 171.958857 698.221715 0.073143c10.166857 0 18.358857 8.192 18.358857 18.358857v58.733714a18.358857 18.358857 0 0 1-14.189714 17.92l-4.169143 0.512-698.075429-0.073142 171.885714 171.885714a18.358857 18.358857 0 0 1 0 25.892571l-41.545142 41.618286a18.285714 18.285714 0 0 1-8.338286 4.754286L351.744 804.571429a18.285714 18.285714 0 0 1-12.946286-5.339429L88.064 548.498286a51.419429 51.419429 0 0 1-5.412571-66.340572l5.412571-6.363428 250.953143-250.953143a18.358857 18.358857 0 0 1 25.965714 0z" /></svg>