<?xml version="1.0" standalone="no"?><!DOCTYPE svg PUBLIC "-//W3C//DTD SVG 1.1//EN" "http://www.w3.org/Graphics/SVG/1.1/DTD/svg11.dtd"><svg class="icon" width="200px" height="200.00px" viewBox="0 0 1024 1024" version="1.1" xmlns="http://www.w3.org/2000/svg"><path d="M541.403429 73.069714l5.046857 0.731429c4.754286 1.316571 8.777143 4.534857 11.117714 8.777143l1.755429 4.608 0.512 4.242285-0.073143 698.075429 171.885714-171.885714 3.876571-2.925715a18.285714 18.285714 0 0 1 5.924572-2.194285l3.145143-0.219429 4.681143 0.585143c1.974857 0.512 3.949714 1.462857 5.778285 2.633143l2.486857 2.194286 41.618286 41.472 2.048 2.56 1.609143 2.779428 1.097143 2.998857 0.585143 4.681143-0.585143 4.681143a18.066286 18.066286 0 0 1-2.706286 5.778286l-2.121143 2.486857-250.660571 250.733714-6.363429 5.412572a50.980571 50.980571 0 0 1-14.409143 7.241142l-7.753142 1.828572-7.826286 0.585143-7.899429-0.585143a51.419429 51.419429 0 0 1-15.140571-4.827429l-6.948572-4.242285-6.363428-5.412572-250.953143-250.953143-2.998857-3.949714a18.432 18.432 0 0 1 0-18.139429l2.925714-3.876571 41.618286-41.545143 3.876571-2.998857a18.285714 18.285714 0 0 1 5.924572-2.194286l3.145143-0.219428 4.681142 0.585143 2.194286 0.731428 2.194286 1.097143 3.949714 2.925714 171.958857 172.324572 0.073143-698.221715 0.512-4.242285a18.432 18.432 0 0 1 12.873143-13.458286L482.669714 73.142857h58.733715z" /></svg>