<?xml version="1.0" standalone="no"?><!DOCTYPE svg PUBLIC "-//W3C//DTD SVG 1.1//EN" "http://www.w3.org/Graphics/SVG/1.1/DTD/svg11.dtd"><svg class="icon" width="200px" height="200.00px" viewBox="0 0 1024 1024" version="1.1" xmlns="http://www.w3.org/2000/svg"><path d="M797.037714 385.682286L542.208 86.454857a35.84 35.84 0 0 0-7.533714-6.656 41.252571 41.252571 0 0 0-52.882286 6.582857L226.962286 385.755429A30.72 30.72 0 0 0 219.428571 405.577143c0 18.358857 16.896 33.28 37.741715 33.28h509.659428c8.118857 0 16.091429-2.340571 22.674286-6.582857 16.676571-11.117714 20.041143-31.890286 7.533714-46.592z m-254.829714 551.862857l254.829714-299.154286A30.72 30.72 0 0 0 804.571429 618.349714c0-18.358857-16.896-33.28-37.741715-33.28H257.170286a41.252571 41.252571 0 0 0-22.674286 6.582857c-16.676571 11.117714-20.041143 31.890286-7.533714 46.592l254.829714 299.227429c2.194286 2.56 4.681143 4.754286 7.533714 6.656 16.676571 10.971429 40.374857 8.045714 52.882286-6.582857z" /></svg>