<?xml version="1.0" standalone="no"?><!DOCTYPE svg PUBLIC "-//W3C//DTD SVG 1.1//EN" "http://www.w3.org/Graphics/SVG/1.1/DTD/svg11.dtd"><svg class="icon" width="200px" height="200.00px" viewBox="0 0 1024 1024" version="1.1" xmlns="http://www.w3.org/2000/svg"><path d="M82.651429 226.450286l411.209142 411.209143a25.6 25.6 0 0 0 36.205715 0l411.209143-411.209143a18.285714 18.285714 0 0 0 0-25.892572l-41.325715-41.325714a18.285714 18.285714 0 0 0-25.892571 0L512 521.289143l-362.057143-362.057143a18.285714 18.285714 0 0 0-25.892571 0l-41.325715 41.398857a18.285714 18.285714 0 0 0 0 25.819429zM82.651429 519.021714l411.209142 411.209143a25.6 25.6 0 0 0 36.205715 0l411.209143-411.209143a18.285714 18.285714 0 0 0 0-25.892571l-41.325715-41.325714a18.285714 18.285714 0 0 0-25.892571 0L512 813.860571l-362.057143-362.057142a18.285714 18.285714 0 0 0-25.892571 0l-41.325715 41.398857a18.285714 18.285714 0 0 0 0 25.819428z" /></svg>