<?xml version="1.0" standalone="no"?><!DOCTYPE svg PUBLIC "-//W3C//DTD SVG 1.1//EN" "http://www.w3.org/Graphics/SVG/1.1/DTD/svg11.dtd"><svg class="icon" width="200px" height="200.00px" viewBox="0 0 1024 1024" version="1.1" xmlns="http://www.w3.org/2000/svg"><path d="M797.549714 82.651429L386.340571 493.933714a25.6 25.6 0 0 0 0 36.205715l411.209143 411.209142a18.285714 18.285714 0 0 0 25.892572 0l41.325714-41.325714a18.285714 18.285714 0 0 0 0-25.892571L502.710857 512l362.057143-362.057143a18.285714 18.285714 0 0 0 0-25.892571l-41.398857-41.325715a18.285714 18.285714 0 0 0-25.819429 0zM504.978286 82.651429L93.769143 493.933714a25.6 25.6 0 0 0 0 36.205715l411.209143 411.209142a18.285714 18.285714 0 0 0 25.892571 0l41.325714-41.325714a18.285714 18.285714 0 0 0 0-25.892571L210.139429 512l362.057142-362.057143a18.285714 18.285714 0 0 0 0-25.892571l-41.398857-41.325715a18.285714 18.285714 0 0 0-25.819428 0z" /></svg>