<?xml version="1.0" standalone="no"?><!DOCTYPE svg PUBLIC "-//W3C//DTD SVG 1.1//EN" "http://www.w3.org/Graphics/SVG/1.1/DTD/svg11.dtd"><svg class="icon" width="200px" height="200.00px" viewBox="0 0 1024 1024" version="1.1" xmlns="http://www.w3.org/2000/svg"><path d="M226.450286 82.651429l411.209143 411.209142a25.6 25.6 0 0 1 0 36.205715L226.450286 941.348571a18.285714 18.285714 0 0 1-25.892572 0l-41.325714-41.325714a18.285714 18.285714 0 0 1 0-25.892571L521.289143 512l-362.057143-362.057143a18.285714 18.285714 0 0 1 0-25.892571l41.398857-41.325715a18.285714 18.285714 0 0 1 25.819429 0zM519.021714 82.651429l411.209143 411.209142a25.6 25.6 0 0 1 0 36.205715L519.021714 941.348571a18.285714 18.285714 0 0 1-25.892571 0l-41.325714-41.325714a18.285714 18.285714 0 0 1 0-25.892571L813.860571 512l-362.057142-362.057143a18.285714 18.285714 0 0 1 0-25.892571l41.398857-41.325715a18.285714 18.285714 0 0 1 25.819428 0z" /></svg>