<?xml version="1.0" standalone="no"?><!DOCTYPE svg PUBLIC "-//W3C//DTD SVG 1.1//EN" "http://www.w3.org/Graphics/SVG/1.1/DTD/svg11.dtd"><svg class="icon" width="200px" height="200.00px" viewBox="0 0 1024 1024" version="1.1" xmlns="http://www.w3.org/2000/svg"><path d="M512 73.069714l7.899429 0.585143a51.2 51.2 0 0 1 22.162285 9.069714l6.363429 5.412572 250.660571 250.660571a18.285714 18.285714 0 0 1 4.827429 8.338286l0.585143 4.681143-0.585143 4.681143a18.066286 18.066286 0 0 1-2.706286 5.778285l-2.121143 2.56-41.545143 41.545143a18.285714 18.285714 0 0 1-8.265142 4.754286l-4.681143 0.585143a18.285714 18.285714 0 0 1-9.069715-2.413714l-3.949714-2.925715-171.885714-171.885714 0.146286 698.075429-0.512 4.169142a18.432 18.432 0 0 1-12.873143 13.458286l-5.046857 0.731429H482.742857a18.358857 18.358857 0 0 1-17.846857-14.189715l-0.512-4.169142V234.349714L292.205714 406.674286l-3.949714 2.998857a18.285714 18.285714 0 0 1-4.388571 1.828571l-4.681143 0.585143a18.285714 18.285714 0 0 1-9.069715-2.413714l-3.876571-2.925714-41.545143-41.618286a18.358857 18.358857 0 0 1-2.998857-22.016l2.925714-3.949714 251.026286-250.953143 6.363429-5.412572a51.2 51.2 0 0 1 22.089142-9.069714L512.073143 73.142857z" /></svg>