<?xml version="1.0" standalone="no"?><!DOCTYPE svg PUBLIC "-//W3C//DTD SVG 1.1//EN" "http://www.w3.org/Graphics/SVG/1.1/DTD/svg11.dtd"><svg class="icon" width="200px" height="200.00px" viewBox="0 0 1024 1024" version="1.1" xmlns="http://www.w3.org/2000/svg"><path d="M1024.292571 511.780571a511.926857 511.926857 0 0 1-512 511.780572c-282.770286 0-512-229.156571-512-511.780572a511.926857 511.926857 0 0 1 512-511.780571c282.770286 0 512 229.156571 512 511.780571z m-95.085714 0a416.841143 416.841143 0 0 0-416.914286-416.768 416.841143 416.841143 0 1 0 0 833.536c230.253714 0 416.914286-186.587429 416.914286-416.768zM512 208.822857a193.828571 193.828571 0 0 0-172.178286 282.843429 47.542857 47.542857 0 0 0 84.406857-43.739429 98.742857 98.742857 0 1 1 135.021715 41.325714 221.403429 221.403429 0 0 0-61.586286 48.274286c-18.139429 21.211429-33.206857 49.737143-33.206857 84.333714v14.628572a47.542857 47.542857 0 0 0 95.085714 0v-14.628572c0-5.705143 2.340571-13.092571 10.313143-22.381714 8.265143-9.654857 20.626286-19.017143 35.108571-26.916571A193.682286 193.682286 0 0 0 512 208.822857zM511.780571 712.045714a55.954286 55.954286 0 0 0-56.832 56.027429c0 31.890286 25.453714 56.100571 56.832 56.100571a55.808 55.808 0 0 0 57.124572-56.100571 55.808 55.808 0 0 0-57.124572-56.027429z" /></svg>