<?xml version="1.0" standalone="no"?><!DOCTYPE svg PUBLIC "-//W3C//DTD SVG 1.1//EN" "http://www.w3.org/Graphics/SVG/1.1/DTD/svg11.dtd"><svg class="icon" width="200px" height="200.00px" viewBox="0 0 1024 1024" version="1.1" xmlns="http://www.w3.org/2000/svg"><path d="M559.542857 597.942857v37.814857h92.891429a18.285714 18.285714 0 0 1 18.285714 18.285715v58.514285a18.285714 18.285714 0 0 1-18.285714 18.285715H559.542857v68.169142a18.285714 18.285714 0 0 1-18.285714 18.285715h-58.514286a18.285714 18.285714 0 0 1-18.285714-18.285715v-68.169142H365.714286a18.285714 18.285714 0 0 1-18.285715-18.285715v-58.514285a18.285714 18.285714 0 0 1 18.285715-18.285715h98.742857v-37.814857H365.714286a18.285714 18.285714 0 0 1-18.285715-18.285714v-58.514286a18.285714 18.285714 0 0 1 18.285715-18.285714h46.006857L351.085714 430.226286a18.285714 18.285714 0 0 1 2.340572-25.746286l44.909714-37.449143a18.285714 18.285714 0 0 1 25.746286 2.340572L512.731429 475.428571l87.332571-104.448a18.285714 18.285714 0 0 1 25.746286-2.340571l44.982857 37.449143a18.285714 18.285714 0 0 1 2.340571 25.746286l-59.538285 71.021714h38.912a18.285714 18.285714 0 0 1 18.285714 18.285714v58.514286a18.285714 18.285714 0 0 1-18.285714 18.285714H559.542857zM503.369143 6.290286a14.628571 14.628571 0 0 1 17.261714 0l424.228572 308.516571a14.628571 14.628571 0 0 1 5.997714 11.849143V1009.371429a14.628571 14.628571 0 0 1-14.628572 14.628571H87.771429a14.628571 14.628571 0 0 1-14.628572-14.628571V326.656a14.628571 14.628571 0 0 1 5.997714-11.849143l424.228572-308.516571zM512 117.613714L168.228571 367.616V928.914286h687.542858V367.616L512 117.613714z" /></svg>