<svg class="icon" width="200px" height="200.00px" viewBox="0 0 1024 1024" version="1.1" xmlns="http://www.w3.org/2000/svg"><path  d="M559.542857 448.950857l181.394286-51.785143a14.628571 14.628571 0 0 1 17.993143 10.020572l18.139428 63.341714a14.628571 14.628571 0 0 1-10.093714 18.066286l-171.739429 49.005714 126.756572 152.137143a14.628571 14.628571 0 0 1-1.828572 20.626286l-50.614857 42.130285a14.628571 14.628571 0 0 1-20.553143-1.901714L512 586.24l-136.996571 164.352a14.628571 14.628571 0 0 1-20.553143 1.901714l-50.614857-42.130285a14.628571 14.628571 0 0 1-1.828572-20.626286l126.756572-152.137143-171.739429-49.005714a14.628571 14.628571 0 0 1-10.093714-18.066286l18.139428-63.341714a14.628571 14.628571 0 0 1 18.066286-10.020572l181.321143 51.785143V270.628571c0-8.045714 6.582857-14.628571 14.628571-14.628571h65.828572c8.045714 0 14.628571 6.582857 14.628571 14.628571v178.322286zM559.542857 448.950857l181.394286-51.785143a14.628571 14.628571 0 0 1 17.993143 10.020572l18.139428 63.341714a14.628571 14.628571 0 0 1-10.093714 18.066286l-171.739429 49.005714 126.756572 152.137143a14.628571 14.628571 0 0 1-1.828572 20.626286l-50.614857 42.130285a14.628571 14.628571 0 0 1-20.553143-1.901714L512 586.24l-136.996571 164.352a14.628571 14.628571 0 0 1-20.553143 1.901714l-50.614857-42.130285a14.628571 14.628571 0 0 1-1.828572-20.626286l126.756572-152.137143-171.739429-49.005714a14.628571 14.628571 0 0 1-10.093714-18.066286l18.139428-63.341714a14.628571 14.628571 0 0 1 18.066286-10.020572l181.321143 51.785143V270.628571c0-8.045714 6.582857-14.628571 14.628571-14.628571h65.828572c8.045714 0 14.628571 6.582857 14.628571 14.628571v178.322286z" /></svg>