<?xml version="1.0" standalone="no"?><!DOCTYPE svg PUBLIC "-//W3C//DTD SVG 1.1//EN" "http://www.w3.org/Graphics/SVG/1.1/DTD/svg11.dtd"><svg class="icon" width="200px" height="200.00px" viewBox="0 0 1024 1024" version="1.1" xmlns="http://www.w3.org/2000/svg"><path d="M731.428571 292.571429a219.428571 219.428571 0 1 1-438.857142 0 219.428571 219.428571 0 0 1 438.857142 0zM387.657143 292.571429a124.342857 124.342857 0 1 0 248.685714 0 124.342857 124.342857 0 0 0-248.685714 0zM658.285714 599.771429a14.628571 14.628571 0 0 0-14.628571-14.628572H292.571429a219.428571 219.428571 0 0 0-219.428572 219.428572v219.428571h643.657143a14.628571 14.628571 0 0 0 14.628571-14.628571v-65.828572a14.628571 14.628571 0 0 0-14.628571-14.628571H168.228571V804.571429A124.342857 124.342857 0 0 1 292.571429 680.228571h351.085714a14.628571 14.628571 0 0 0 14.628571-14.628571v-65.828571zM925.257143 796.672a146.285714 146.285714 0 1 0-95.085714 0v209.042286c0 10.093714 8.192 18.285714 18.285714 18.285714h58.514286a18.285714 18.285714 0 0 0 18.285714-18.285714v-43.885715h43.885714a18.285714 18.285714 0 0 0 18.285714-18.285714v-58.514286a18.285714 18.285714 0 0 0-18.285714-18.285714h-43.885714v-70.070857zM928.914286 658.285714a51.2 51.2 0 1 1-102.4 0 51.2 51.2 0 0 1 102.4 0z" /></svg>