<?xml version="1.0" standalone="no"?><!DOCTYPE svg PUBLIC "-//W3C//DTD SVG 1.1//EN" "http://www.w3.org/Graphics/SVG/1.1/DTD/svg11.dtd"><svg class="icon" width="200px" height="200.00px" viewBox="0 0 1024 1024" version="1.1" xmlns="http://www.w3.org/2000/svg"><path d="M804.571429 961.828571A157.257143 157.257143 0 0 0 961.828571 804.571429V219.428571A157.257143 157.257143 0 0 0 804.571429 62.171429H219.428571A157.257143 157.257143 0 0 0 62.171429 219.428571v58.514286c0 14.116571 11.483429 25.6 25.6 25.6h43.885714a25.6 25.6 0 0 0 25.6-25.6V219.428571c0-34.377143 27.794286-62.171429 62.171428-62.171428h585.142858c34.377143 0 62.171429 27.794286 62.171428 62.171428v585.142858c0 34.377143-27.794286 62.171429-62.171428 62.171428H526.628571a25.6 25.6 0 0 0-25.6 25.6v43.885714c0 14.116571 11.483429 25.6 25.6 25.6H804.571429zM192.731429 533.942857a18.285714 18.285714 0 0 1-18.285715-18.285714v-58.514286a18.285714 18.285714 0 0 1 18.285715-18.285714h340.114285a18.285714 18.285714 0 0 1 18.285715 18.285714v340.114286a18.285714 18.285714 0 0 1-18.285715 18.285714h-58.514285a18.285714 18.285714 0 0 1-18.285715-18.285714V601.234286L145.700571 911.36a18.285714 18.285714 0 0 1-25.819428 0l-41.398857-41.325714a18.285714 18.285714 0 0 1 0-25.892572L388.754286 533.942857h-196.022857z" /></svg>