<?xml version="1.0" standalone="no"?><!DOCTYPE svg PUBLIC "-//W3C//DTD SVG 1.1//EN" "http://www.w3.org/Graphics/SVG/1.1/DTD/svg11.dtd"><svg class="icon" width="200px" height="200.00px" viewBox="0 0 1024 1024" version="1.1" xmlns="http://www.w3.org/2000/svg"><path d="M783.140571 69.705143A25.6 25.6 0 0 0 765.074286 62.171429h-62.171429a25.6 25.6 0 0 0-18.066286 43.739428l102.619429 102.546286H476.452571a431.542857 431.542857 0 0 0-431.542857 431.542857v182.857143c0 10.093714 8.192 18.285714 18.285715 18.285714h58.514285a18.285714 18.285714 0 0 0 18.285715-18.285714v-182.857143a336.457143 336.457143 0 0 1 336.457142-336.457143h310.857143L684.690286 406.089143a25.6 25.6 0 0 0 18.139428 43.739428h62.098286a25.6 25.6 0 0 0 18.066286-7.533714l173.494857-173.421714a18.285714 18.285714 0 0 0 0-25.892572l-173.348572-173.348571z" /></svg>