<?xml version="1.0" standalone="no"?><!DOCTYPE svg PUBLIC "-//W3C//DTD SVG 1.1//EN" "http://www.w3.org/Graphics/SVG/1.1/DTD/svg11.dtd"><svg class="icon" width="200px" height="200.00px" viewBox="0 0 1024 1024" version="1.1" xmlns="http://www.w3.org/2000/svg"><path d="M859.428571 168.228571a18.285714 18.285714 0 0 0 18.285715-18.285714v-58.514286a18.285714 18.285714 0 0 0-18.285715-18.285714h-694.857142a18.285714 18.285714 0 0 0-18.285715 18.285714v58.514286c0 10.093714 8.192 18.285714 18.285715 18.285714h694.857142z m-339.529142 51.712L512.073143 219.428571l-7.899429 0.585143a51.2 51.2 0 0 0-22.089143 9.069715l-6.363428 5.412571-250.953143 250.953143-2.998857 3.949714a18.358857 18.358857 0 0 0 2.925714 22.016l41.618286 41.545143 3.876571 2.998857a18.285714 18.285714 0 0 0 9.069715 2.413714l4.681142-0.585142a18.285714 18.285714 0 0 0 4.388572-1.828572l3.949714-2.925714 171.958857-172.324572 0.073143 551.936 0.512 4.169143c1.901714 8.118857 9.142857 14.189714 17.846857 14.189715h58.733715l5.046857-0.731429a18.432 18.432 0 0 0 12.873143-13.458286l0.512-4.169143-0.073143-551.789714 171.885714 171.885714 3.876571 2.925715a18.285714 18.285714 0 0 0 9.069715 2.413714l4.681143-0.585143a18.285714 18.285714 0 0 0 8.265142-4.754286l41.618286-41.545142 2.048-2.56a18.066286 18.066286 0 0 0 2.706286-5.851429l0.585143-4.608-0.585143-4.681143a18.285714 18.285714 0 0 0-4.827429-8.338286L548.425143 234.422857 541.988571 228.937143a51.2 51.2 0 0 0-22.162285-9.069714z" /></svg>