<?xml version="1.0" standalone="no"?><!DOCTYPE svg PUBLIC "-//W3C//DTD SVG 1.1//EN" "http://www.w3.org/Graphics/SVG/1.1/DTD/svg11.dtd"><svg class="icon" width="200px" height="200.00px" viewBox="0 0 1024 1024" version="1.1" xmlns="http://www.w3.org/2000/svg"><path d="M223.597714 69.705143A25.6 25.6 0 0 1 241.737143 62.171429h62.098286a25.6 25.6 0 0 1 18.066285 43.739428L219.282286 208.457143H530.285714a431.542857 431.542857 0 0 1 431.542857 431.542857v182.857143a18.285714 18.285714 0 0 1-18.285714 18.285714h-58.514286a18.285714 18.285714 0 0 1-18.285714-18.285714v-182.857143a336.457143 336.457143 0 0 0-336.457143-336.457143H219.428571l102.619429 102.546286a25.6 25.6 0 0 1-18.139429 43.739428h-62.098285a25.6 25.6 0 0 1-18.066286-7.533714L50.249143 268.873143a18.285714 18.285714 0 0 1 0-25.892572l173.348571-173.348571z" /></svg>