<svg class="icon" width="200px" height="200.00px" viewBox="0 0 1024 1024" version="1.1" xmlns="http://www.w3.org/2000/svg"><path  d="M835.291429 73.142857a73.142857 73.142857 0 0 1 69.485714 50.468572l2.194286 8.338285L1022.537143 658.285714c8.484571 42.422857-20.114286 69.558857-61.732572 72.850286l-8.557714 0.292571H675.84v168.521143c0 64.877714-49.810286 118.198857-113.371429 123.611429L551.789714 1024c-52.443429 0-98.816-32.914286-116.516571-81.554286l-3.364572-10.605714L292.571429 585.142857V87.771429a14.628571 14.628571 0 0 1 10.752-14.116572L307.2 73.142857h528.091429z m-17.700572 95.085714H387.657143v398.555429l134.582857 334.994286 1.462857 5.632c2.925714 10.825143 11.776 18.870857 22.528 20.992l5.485714 0.512 5.851429-0.585143a28.964571 28.964571 0 0 0 22.528-22.528l0.585143-5.851429V636.342857h339.675428l-102.765714-468.114286zM204.8 73.142857a14.628571 14.628571 0 0 1 14.116571 10.752L219.428571 87.771429v65.828571a14.628571 14.628571 0 0 1-10.752 14.116571L204.8 168.228571H95.085714v321.828572h109.714286a14.628571 14.628571 0 0 1 14.116571 10.752L219.428571 504.685714v65.828572a14.628571 14.628571 0 0 1-10.752 14.116571L204.8 585.142857H73.142857a73.142857 73.142857 0 0 1-72.630857-64.585143L0 512V146.285714a73.142857 73.142857 0 0 1 64.585143-72.630857L73.142857 73.142857h131.657143z" /></svg>