<?xml version="1.0" standalone="no"?><!DOCTYPE svg PUBLIC "-//W3C//DTD SVG 1.1//EN" "http://www.w3.org/Graphics/SVG/1.1/DTD/svg11.dtd"><svg class="icon" width="200px" height="200.00px" viewBox="0 0 1024 1024" version="1.1" xmlns="http://www.w3.org/2000/svg"><path d="M928.402286 178.688a14.628571 14.628571 0 0 1 0 20.699429l-150.089143 150.089142a14.628571 14.628571 0 0 1-20.626286 0L635.026286 226.742857a14.628571 14.628571 0 0 1 0-20.699428l46.518857-46.518858a14.628571 14.628571 0 0 1 20.699428 0l55.442286 55.369143a14.628571 14.628571 0 0 0 20.626286 0l82.870857-82.797714a14.628571 14.628571 0 0 1 20.699429 0l46.518857 46.518857zM512 215.771429a14.628571 14.628571 0 0 1-14.628571 14.628571H160.914286a14.628571 14.628571 0 0 1-14.628572-14.628571v-65.828572c0-8.045714 6.582857-14.628571 14.628572-14.628571h336.457143c8.045714 0 14.628571 6.582857 14.628571 14.628571v65.828572zM512 544.914286a14.628571 14.628571 0 0 1-14.628571 14.628571H160.914286a14.628571 14.628571 0 0 1-14.628572-14.628571v-65.828572c0-8.045714 6.582857-14.628571 14.628572-14.628571h336.457143c8.045714 0 14.628571 6.582857 14.628571 14.628571v65.828572zM146.285714 874.057143c0 8.045714 6.582857 14.628571 14.628572 14.628571h336.457143a14.628571 14.628571 0 0 0 14.628571-14.628571v-65.828572a14.628571 14.628571 0 0 0-14.628571-14.628571H160.914286a14.628571 14.628571 0 0 0-14.628572 14.628571v65.828572zM928.402286 747.958857a14.628571 14.628571 0 0 0 0-20.699428l-46.518857-46.518858a14.628571 14.628571 0 0 0-20.699429 0l-82.870857 82.797715a14.628571 14.628571 0 0 1-20.626286 0L702.171429 708.169143a14.628571 14.628571 0 0 0-20.699429 0l-46.518857 46.518857a14.628571 14.628571 0 0 0 0 20.699429l122.660571 122.660571a14.628571 14.628571 0 0 0 20.626286 0l150.089143-150.089143zM928.402286 178.688a14.628571 14.628571 0 0 1 0 20.699429l-150.089143 150.089142a14.628571 14.628571 0 0 1-20.626286 0L635.026286 226.742857a14.628571 14.628571 0 0 1 0-20.699428l46.518857-46.518858a14.628571 14.628571 0 0 1 20.699428 0l55.442286 55.369143a14.628571 14.628571 0 0 0 20.626286 0l82.870857-82.797714a14.628571 14.628571 0 0 1 20.699429 0l46.518857 46.518857zM512 215.771429a14.628571 14.628571 0 0 1-14.628571 14.628571H160.914286a14.628571 14.628571 0 0 1-14.628572-14.628571v-65.828572c0-8.045714 6.582857-14.628571 14.628572-14.628571h336.457143c8.045714 0 14.628571 6.582857 14.628571 14.628571v65.828572zM512 544.914286a14.628571 14.628571 0 0 1-14.628571 14.628571H160.914286a14.628571 14.628571 0 0 1-14.628572-14.628571v-65.828572c0-8.045714 6.582857-14.628571 14.628572-14.628571h336.457143c8.045714 0 14.628571 6.582857 14.628571 14.628571v65.828572zM146.285714 874.057143c0 8.045714 6.582857 14.628571 14.628572 14.628571h336.457143a14.628571 14.628571 0 0 0 14.628571-14.628571v-65.828572a14.628571 14.628571 0 0 0-14.628571-14.628571H160.914286a14.628571 14.628571 0 0 0-14.628572 14.628571v65.828572zM928.402286 747.958857a14.628571 14.628571 0 0 0 0-20.699428l-46.518857-46.518858a14.628571 14.628571 0 0 0-20.699429 0l-82.870857 82.797715a14.628571 14.628571 0 0 1-20.626286 0L702.171429 708.169143a14.628571 14.628571 0 0 0-20.699429 0l-46.518857 46.518857a14.628571 14.628571 0 0 0 0 20.699429l122.660571 122.660571a14.628571 14.628571 0 0 0 20.626286 0l150.089143-150.089143z" /></svg>