<svg class="icon" width="200px" height="200.00px" viewBox="0 0 1024 1024" version="1.1" xmlns="http://www.w3.org/2000/svg"><path  d="M742.4 14.628571V73.142857h171.885714a36.571429 36.571429 0 0 1 36.571429 36.571429v804.571428a36.571429 36.571429 0 0 1-29.988572 35.986286L914.285714 950.857143h-804.571428a36.571429 36.571429 0 0 1-36.571429-36.571429v-804.571428a36.571429 36.571429 0 0 1 36.571429-36.571429h171.885714V14.628571c0-8.045714 6.582857-14.628571 14.628571-14.628571h65.828572c8.045714 0 14.628571 6.582857 14.628571 14.628571V73.142857h270.628572V14.628571c0-8.045714 6.582857-14.628571 14.628571-14.628571h65.828572c8.045714 0 14.628571 6.582857 14.628571 14.628571z m-460.8 153.6H168.228571v687.542858h687.542858V168.228571h-113.371429v36.571429a14.628571 14.628571 0 0 1-10.752 14.116571L727.771429 219.428571h-65.828572a14.628571 14.628571 0 0 1-14.628571-14.628571v-36.571429h-270.628572v36.571429a14.628571 14.628571 0 0 1-10.752 14.116571L362.057143 219.428571h-65.828572a14.628571 14.628571 0 0 1-14.628571-14.628571v-36.571429z m353.865143 106.057143l45.641143 36.571429a18.285714 18.285714 0 0 1 2.925714 25.673143l-102.4 127.926857H676.571429a18.285714 18.285714 0 0 1 18.285714 18.285714v58.514286a18.285714 18.285714 0 0 1-14.116572 17.773714l-4.169142 0.512h-117.028572v51.2h117.028572a18.285714 18.285714 0 0 1 18.285714 18.285714v58.514286a18.285714 18.285714 0 0 1-14.116572 17.773714l-4.169142 0.512h-117.028572v43.885715a18.285714 18.285714 0 0 1-14.116571 17.773714L541.257143 768h-58.514286a18.285714 18.285714 0 0 1-18.285714-18.285714v-43.885715h-117.028572a18.285714 18.285714 0 0 1-18.285714-18.285714v-58.514286a18.285714 18.285714 0 0 1 18.285714-18.285714h117.028572v-51.2h-117.028572a18.285714 18.285714 0 0 1-18.285714-18.285714v-58.514286a18.285714 18.285714 0 0 1 18.285714-18.285714h94.939429l-102.4-127.926857a18.285714 18.285714 0 0 1 2.925714-25.673143l45.641143-36.571429a18.285714 18.285714 0 0 1 13.458286-3.876571l4.534857 1.097143c2.925714 1.097143 5.632 2.998857 7.753143 5.632L512 399.36l97.718857-122.148571a18.285714 18.285714 0 0 1 25.746286-2.852572z" /></svg>