<?xml version="1.0" standalone="no"?><!DOCTYPE svg PUBLIC "-//W3C//DTD SVG 1.1//EN" "http://www.w3.org/Graphics/SVG/1.1/DTD/svg11.dtd"><svg class="icon" width="200px" height="200.00px" viewBox="0 0 1024 1024" version="1.1" xmlns="http://www.w3.org/2000/svg"><path d="M877.714286 0a146.285714 146.285714 0 0 1 146.285714 146.285714v438.857143a146.285714 146.285714 0 0 1-146.285714 146.285714h-146.285715v146.285715a146.285714 146.285714 0 0 1-146.285714 146.285714H146.285714a146.285714 146.285714 0 0 1-146.285714-146.285714V438.857143a146.285714 146.285714 0 0 1 146.285714-146.285714h146.285715V146.285714a146.285714 146.285714 0 0 1 146.285714-146.285714h438.857143zM292.571429 387.657143H146.285714a51.2 51.2 0 0 0-51.2 51.2v438.857143a51.2 51.2 0 0 0 51.2 51.2h438.857143a51.2 51.2 0 0 0 51.2-51.2v-146.285715H438.857143a146.285714 146.285714 0 0 1-146.285714-146.285714V387.657143z m585.142857-292.571429H438.857143a51.2 51.2 0 0 0-51.2 51.2v146.285715H585.142857a146.285714 146.285714 0 0 1 146.285714 146.285714v197.485714h146.285715a51.2 51.2 0 0 0 51.2-51.2V146.285714a51.2 51.2 0 0 0-51.2-51.2z m-292.571429 292.571429H387.657143V585.142857a51.2 51.2 0 0 0 51.2 51.2h197.485714V438.857143a51.2 51.2 0 0 0-51.2-51.2z" /></svg>