<?xml version="1.0" standalone="no"?><!DOCTYPE svg PUBLIC "-//W3C//DTD SVG 1.1//EN" "http://www.w3.org/Graphics/SVG/1.1/DTD/svg11.dtd"><svg class="icon" width="200px" height="200.00px" viewBox="0 0 1024 1024" version="1.1" xmlns="http://www.w3.org/2000/svg"><path d="M559.536576 208.564897a109.69979 109.69979 0 1 0-95.073152 0v449.403471h95.073152V208.564897zM277.900649 543.661188A402.013163 402.013163 0 0 1 402.30021 497.148477V594.708156a291.216375 291.216375 0 0 0-75.473455 30.423409c-26.401083 15.79677-34.665134 27.93688-37.078529 32.836803 2.413395 4.899924 10.677446 16.966901 37.078529 32.836804 40.442656 24.28022 105.604331 43.879916 185.173245 43.879916s144.657456-19.599696 185.173245-43.879916c26.32795-15.869903 34.592-27.93688 37.078529-32.909937-2.486529-4.826791-10.677446-16.966901-37.078529-32.76367A291.216375 291.216375 0 0 0 621.69979 594.708156V497.148477c48.267907 9.946114 90.612026 26.254816 124.399561 46.512711 59.237886 35.469599 84.030039 77.521185 84.030039 114.30718 0 36.712863-24.865286 78.764449-84.030039 114.307181-57.628956 34.518867-140.269464 57.409557-234.099351 57.409557-93.829887 0-176.543528-22.890689-234.099351-57.409557-59.237886-35.542732-84.103172-77.521185-84.103172-114.307181 0-36.785996 24.865286-78.837582 84.103172-114.30718zM402.30021 304.223113c-81.909176 12.213243-158.26023 38.102394-222.251774 76.49732C91.26474 433.961398 3.724308 527.425619 3.724308 657.895235c0 130.54275 87.540432 224.080104 176.324128 277.321069 91.855291 55.069294 209.599731 84.541971 331.951564 84.541971 122.351832 0 240.096273-29.472677 331.951564-84.541971 88.783696-53.240965 176.324129-146.778319 176.324128-277.247936 0-130.469617-87.540432-224.006971-176.324128-277.247935-63.991544-38.394926-140.415731-64.35721-222.251774-76.49732v96.243283c65.307941 11.262512 124.692094 32.544271 173.325667 61.724415 74.010791 44.318715 130.177084 112.113185 130.177084 195.777557 0 83.59124-56.166292 151.38571-130.177084 195.777558-74.742123 44.830647-174.934598 70.939197-283.025457 70.939198-108.090859 0-208.283334-26.10855-283.025457-70.939198-74.010791-44.391848-130.177084-112.186318-130.177084-195.777558 0-83.664373 56.166292-151.38571 130.177084-195.777557 48.633573-29.180144 108.017726-50.461903 173.325667-61.724415V304.223113z" /></svg>