<?xml version="1.0" standalone="no"?><!DOCTYPE svg PUBLIC "-//W3C//DTD SVG 1.1//EN" "http://www.w3.org/Graphics/SVG/1.1/DTD/svg11.dtd"><svg class="icon" width="200px" height="200.00px" viewBox="0 0 1024 1024" version="1.1" xmlns="http://www.w3.org/2000/svg"><path d="M362.057143 73.142857c8.045714 0 14.628571 6.582857 14.628571 14.628572V146.285714h270.628572v-58.514285c0-8.045714 6.582857-14.628571 14.628571-14.628572h65.828572c8.045714 0 14.628571 6.582857 14.628571 14.628572V146.285714h171.885714a36.571429 36.571429 0 0 1 36.571429 36.571429v804.571428a36.571429 36.571429 0 0 1-36.571429 36.571429h-804.571428a36.571429 36.571429 0 0 1-36.571429-36.571429v-804.571428a36.571429 36.571429 0 0 1 36.571429-36.571429h171.885714v-58.514285c0-8.045714 6.582857-14.628571 14.628571-14.628572h65.828572z m285.257143 168.228572h-270.628572v36.571428a14.628571 14.628571 0 0 1-14.628571 14.628572h-65.828572a14.628571 14.628571 0 0 1-14.628571-14.628572v-36.571428H168.228571v113.371428h687.542858V241.371429h-113.371429v36.571428a14.628571 14.628571 0 0 1-14.628571 14.628572h-65.828572a14.628571 14.628571 0 0 1-14.628571-14.628572v-36.571428zM168.228571 449.828571v479.085715h687.542858V449.828571H168.228571zM362.057143 73.142857c8.045714 0 14.628571 6.582857 14.628571 14.628572V146.285714h270.628572v-58.514285c0-8.045714 6.582857-14.628571 14.628571-14.628572h65.828572c8.045714 0 14.628571 6.582857 14.628571 14.628572V146.285714h171.885714a36.571429 36.571429 0 0 1 36.571429 36.571429v804.571428a36.571429 36.571429 0 0 1-36.571429 36.571429h-804.571428a36.571429 36.571429 0 0 1-36.571429-36.571429v-804.571428a36.571429 36.571429 0 0 1 36.571429-36.571429h171.885714v-58.514285c0-8.045714 6.582857-14.628571 14.628571-14.628572h65.828572z m285.257143 168.228572h-270.628572v36.571428a14.628571 14.628571 0 0 1-14.628571 14.628572h-65.828572a14.628571 14.628571 0 0 1-14.628571-14.628572v-36.571428H168.228571v113.371428h687.542858V241.371429h-113.371429v36.571428a14.628571 14.628571 0 0 1-14.628571 14.628572h-65.828572a14.628571 14.628571 0 0 1-14.628571-14.628572v-36.571428zM168.228571 449.828571v479.085715h687.542858V449.828571H168.228571z" /></svg>