<?xml version="1.0" standalone="no"?><!DOCTYPE svg PUBLIC "-//W3C//DTD SVG 1.1//EN" "http://www.w3.org/Graphics/SVG/1.1/DTD/svg11.dtd"><svg class="icon" width="200px" height="200.00px" viewBox="0 0 1024 1024" version="1.1" xmlns="http://www.w3.org/2000/svg"><path d="M623.645111 2.15113a51.057383 51.057383 0 1 0-24.615648 99.119983c158.504321 39.443472 283.408648 164.347798 322.998206 322.852119a51.057383 51.057383 0 1 0 99.04694-24.761735A546.657298 546.657298 0 0 0 623.791198 2.224174zM512.838174 237.643264a51.057383 51.057383 0 0 1 61.940859-37.106081 342.135594 342.135594 0 0 1 248.27474 248.713002 51.057383 51.057383 0 1 1-99.119983 24.688691A240.020829 240.020829 0 0 0 550.017298 299.584123a51.057383 51.057383 0 0 1-37.106081-61.940859zM234.761699 95.865897c50.911296 58.653903 141.704324 198.020836 141.704324 198.020836 11.686955 22.497387 18.772171 56.754773-0.730435 77.1339-18.55304 19.575649-47.770427 47.62434-60.333902 59.530424-23.593039 27.975647 8.546086 66.688684 27.683473 89.843463l3.944347 4.820869c52.445208 64.27825 111.026068 121.252153 177.130405 172.236493 18.406953 12.198259 47.478253 27.61043 67.930423 10.883476 12.052172-12.417389 40.539124-41.196515 60.406946-59.457381 23.885213-22.059127 63.109554-9.495651 86.702594 6.208694 31.993038 21.182605 139.220846 93.495636 188.598229 136.591282 20.890431 18.33391 29.947821 48.427818 14.53565 90.646941-22.13217 60.772164-115.91998 169.826058-273.912997 133.815629a561.850339 561.850339 0 0 1-114.166937-40.977384 1046.055475 1046.055475 0 0 1-163.909537-98.82781A1085.352859 1085.352859 0 0 1 112.486937 582.481466C66.323467 511.410174 23.739126 429.528449 6.573912 351.664114-28.048691 194.255445 82.539116 102.074591 143.895628 80.672856c42.584341-14.900867 72.751292-5.69739 90.939115 15.339128zM173.624318 170.881536c-12.198259 4.747825-37.252168 20.45217-55.951295 47.770427-17.311301 25.419126-29.655647 61.356511-18.260866 112.706068 13.439998 61.502598 49.012166 132.208673 92.692158 199.554748a990.469397 990.469397 0 0 0 254.045174 268.653868c46.747818 33.892168 97.14781 65.373902 148.78954 89.843463a467.478181 467.478181 0 0 0 94.518245 34.257385c52.079991 11.833041 88.674768-0.21913 114.532155-17.311301 27.172169-17.895649 42.949558-41.926949 48.208687-54.052165-44.483471-36.083472-121.39824-88.528681-157.262582-112.559981-13.586085 13.293911-27.245213 27.172169-34.76869 34.914777l-3.79826 3.871304-4.163477 3.359999c-42.949558 35.060864-91.304332 31.262603-119.645197 23.59304-27.172169-7.37739-49.377383-21.182605-60.772164-28.779126l-2.921739-1.89913-2.702608-2.045217a1166.431106 1166.431106 0 0 1-192.688663-187.429534l-2.410434-2.921738a332.78603 332.78603 0 0 1-40.539124-58.142599c-14.316519-27.756517-38.493907-94.664332 12.271303-154.852148l3.506086-4.163477 3.944347-3.652173c7.742607-7.304347 21.474779-20.525214 34.76869-33.673038l-2.629565-4.090434a4059.317571 4059.317571 0 0 0-35.937385-53.029557 1843.03273 1843.03273 0 0 0-72.824336-99.923461z" /></svg>