<?xml version="1.0" standalone="no"?><!DOCTYPE svg PUBLIC "-//W3C//DTD SVG 1.1//EN" "http://www.w3.org/Graphics/SVG/1.1/DTD/svg11.dtd"><svg class="icon" width="200px" height="186.69px" viewBox="0 0 1097 1024" version="1.1" xmlns="http://www.w3.org/2000/svg"><path d="M753.371429 559.542857a14.628571 14.628571 0 0 0 14.628571-14.628571v-65.828572a14.628571 14.628571 0 0 0-14.628571-14.628571H343.771429a14.628571 14.628571 0 0 0-14.628572 14.628571v65.828572c0 8.045714 6.582857 14.628571 14.628572 14.628571h409.6zM1060.571429 512a512 512 0 1 1-1024 0 512 512 0 0 1 1024 0z m-102.4 0A409.6 409.6 0 1 0 138.971429 512a409.6 409.6 0 0 0 819.2 0zM753.371429 559.542857a14.628571 14.628571 0 0 0 14.628571-14.628571v-65.828572a14.628571 14.628571 0 0 0-14.628571-14.628571H343.771429a14.628571 14.628571 0 0 0-14.628572 14.628571v65.828572c0 8.045714 6.582857 14.628571 14.628572 14.628571h409.6zM1060.571429 512a512 512 0 1 1-1024 0 512 512 0 0 1 1024 0z m-102.4 0A409.6 409.6 0 1 0 138.971429 512a409.6 409.6 0 0 0 819.2 0z" /></svg>