<?xml version="1.0" standalone="no"?><!DOCTYPE svg PUBLIC "-//W3C//DTD SVG 1.1//EN" "http://www.w3.org/Graphics/SVG/1.1/DTD/svg11.dtd"><svg class="icon" width="200px" height="200.00px" viewBox="0 0 1024 1024" version="1.1" xmlns="http://www.w3.org/2000/svg"><path d="M984.610133 888.695467a10.24 10.24 0 0 1 0 14.472533l-48.264533 48.264533a10.24 10.24 0 0 1-14.472533 0L43.349333 73.045333a10.24 10.24 0 0 1 0-14.472533L91.613867 10.24a10.24 10.24 0 0 1 14.472533 0l878.523733 878.455467zM708.608 500.394667a10.24 10.24 0 0 0 10.24-10.24V364.680533h116.053333v330.1376c0 5.666133 4.5056 10.24 10.24 10.24h68.266667a10.24 10.24 0 0 0 10.24-10.24V310.135467a34.133333 34.133333 0 0 0-34.133333-34.133334h-170.666667v-170.666666a34.133333 34.133333 0 0 0-34.133333-34.133334H299.8272a10.24 10.24 0 0 0-10.24 10.24v68.266667c0 5.666133 4.573867 10.24 10.24 10.24H630.101333v116.053333H504.695467a10.24 10.24 0 0 0-10.24 10.24v68.266667c0 5.666133 4.573867 10.24 10.24 10.24H630.101333V490.154667c0 5.666133 4.573867 10.24 10.24 10.24h68.266667zM182.954667 256.546133a10.24 10.24 0 0 1 10.24 10.24v330.069334h116.053333V471.586133a10.24 10.24 0 0 1 10.24-10.24h68.266667a10.24 10.24 0 0 1 10.24 10.24v125.269334h125.269333a10.24 10.24 0 0 1 10.24 10.24v68.266666a10.24 10.24 0 0 1-10.24 10.24H397.9264v116.053334h330.1376a10.24 10.24 0 0 1 10.24 10.24v68.266666a10.24 10.24 0 0 1-10.24 10.24H343.313067a34.133333 34.133333 0 0 1-34.133334-34.133333v-170.666667h-170.666666a34.133333 34.133333 0 0 1-34.133334-34.133333V266.786133a10.24 10.24 0 0 1 10.24-10.24h68.266667z" /></svg>