<svg class="icon" width="200px" height="200.00px" viewBox="0 0 1024 1024" version="1.1" xmlns="http://www.w3.org/2000/svg"><path  d="M394.678857 0a18.285714 18.285714 0 0 1 12.946286 5.339429L585.142857 182.857143V292.571429h256L1024 475.428571v530.285715a18.285714 18.285714 0 0 1-14.116571 17.773714L1005.714286 1024h-621.714286a18.285714 18.285714 0 0 1-18.285714-18.285714V658.285714H18.285714A18.285714 18.285714 0 0 1 0 640V18.285714A18.285714 18.285714 0 0 1 18.285714 0h376.393143zM81.92 731.428571l26.916571 0.585143c4.022857 0 7.314286 2.925714 8.045715 6.875429 7.826286 46.153143 35.84 84.260571 73.435428 106.349714l19.017143-32.621714a9.874286 9.874286 0 0 1 8.630857-4.973714l3.291429 0.585142c2.194286 0.731429 4.022857 2.194286 5.339428 4.388572l75.629715 131.803428a10.020571 10.020571 0 0 1-8.630857 14.994286l-152.502858 0.658286a10.020571 10.020571 0 0 1-8.704-14.994286l18.139429-31.232a209.334857 209.334857 0 0 1-77.019429-174.592A8.338286 8.338286 0 0 1 81.92 731.428571z m719.798857-343.771428H460.8v541.257143h468.114286V514.779429L801.718857 387.657143zM804.571429 585.142857v95.085714H585.142857V585.142857h219.428572zM362.934857 95.085714H95.085714v468.114286H365.714286V292.571429h124.342857v-70.363429L362.934857 95.085714z m531.017143-21.942857l3.072 0.438857c4.681143 1.462857 7.533714 6.290286 6.802286 10.971429l-1.243429 3.657143-18.066286 31.158857a209.334857 209.334857 0 0 1 77.019429 174.518857 8.338286 8.338286 0 0 1-5.339429 7.314286l-3.145142 0.585143-26.916572-0.585143a8.338286 8.338286 0 0 1-8.045714-6.948572 152.649143 152.649143 0 0 0-63.414857-99.913143l-10.020572-6.363428-18.944 32.548571a9.874286 9.874286 0 0 1-5.339428 4.388572l-3.291429 0.585143a9.947429 9.947429 0 0 1-6.290286-2.194286l-2.340571-2.779429-75.702857-131.730285a10.020571 10.020571 0 0 1 5.12-14.336l3.510857-0.731429L893.952 73.142857z" /></svg>