<svg class="icon" width="200px" height="200.00px" viewBox="0 0 1024 1024" version="1.1" xmlns="http://www.w3.org/2000/svg"><path  d="M694.857143 0a36.571429 36.571429 0 0 1 35.986286 29.988571L731.428571 36.571429V73.142857h182.857143a36.571429 36.571429 0 0 1 35.986286 29.988572L950.857143 109.714286v877.714285a36.571429 36.571429 0 0 1-29.988572 35.986286L914.285714 1024h-804.571428a36.571429 36.571429 0 0 1-35.986286-29.988571L73.142857 987.428571v-877.714285a36.571429 36.571429 0 0 1 29.988572-35.986286L109.714286 73.142857H292.571429V36.571429a36.571429 36.571429 0 0 1 29.988571-35.986286L329.142857 0h365.714286zM292.571429 168.228571H168.228571v760.685715h687.542858V168.228571H731.428571v87.771429a36.571429 36.571429 0 0 1-29.988571 35.986286L694.857143 292.571429h-365.714286a36.571429 36.571429 0 0 1-35.986286-29.988572L292.571429 256V168.228571z m423.862857 487.643429l3.584 0.585143c4.388571 1.609143 7.094857 6.217143 6.436571 10.825143l-1.170286 3.437714-73.581714 133.558857a9.874286 9.874286 0 0 1-5.339428 4.534857l-3.291429 0.658286a9.947429 9.947429 0 0 1-6.363429-2.194286L634.368 804.571429l-18.505143-31.012572-14.336 5.12a210.432 210.432 0 0 1-44.982857 9.069714l-15.36 0.731429a209.188571 209.188571 0 0 1-115.273143-32.475429 8.338286 8.338286 0 0 1-3.803428-8.192l1.024-3.072 13.604571-23.186285a8.338286 8.338286 0 0 1 9.947429-3.657143c17.627429 6.217143 35.693714 8.996571 53.467428 8.777143l13.238857-0.877715a153.6 153.6 0 0 0 50.395429-14.262857l11.556571-6.144-19.309714-32.402285a10.020571 10.020571 0 0 1 4.900571-14.409143l3.584-0.731429 151.917715-1.974857zM437.613714 417.206857h3.072a8.338286 8.338286 0 0 1 3.730286 1.901714l1.462857 1.682286 14.994286 22.308572a8.338286 8.338286 0 0 1-1.097143 10.532571c-29.988571 29.622857-45.202286 68.827429-45.348571 108.105143l0.438857 13.165714 37.595428-3.291428 3.072 0.219428c4.754286 1.097143 8.045714 5.558857 7.753143 10.386286l-0.950857 3.657143-64.512 137.508571a9.874286 9.874286 0 0 1-4.900571 4.900572l-3.218286 0.804571a9.947429 9.947429 0 0 1-6.509714-1.609143l-2.56-2.56L292.571429 600.356571a10.020571 10.020571 0 0 1 3.803428-14.774857l3.510857-0.950857 35.913143-3.072a209.334857 209.334857 0 0 1 98.742857-163.254857l1.462857-0.731429 1.609143-0.365714z m230.619429-31.451428l3.145143 0.438857c4.608 1.462857 7.533714 6.290286 6.802285 10.971428l-1.243428 3.657143-18.139429 31.158857a209.334857 209.334857 0 0 1 77.092572 174.518857 8.338286 8.338286 0 0 1-5.339429 7.314286l-3.145143 0.585143-26.916571-0.585143a8.338286 8.338286 0 0 1-8.045714-6.948571A152.649143 152.649143 0 0 0 629.028571 506.953143l-10.020571-6.363429-18.944 32.548572a9.874286 9.874286 0 0 1-5.339429 4.388571l-3.291428 0.585143a9.947429 9.947429 0 0 1-6.363429-2.194286l-2.340571-2.779428-75.629714-131.803429a10.020571 10.020571 0 0 1 5.12-14.262857l3.510857-0.731429 152.502857-0.585142zM636.342857 95.085714H387.657143v102.4h248.685714V95.085714z" /></svg>