<?xml version="1.0" standalone="no"?><!DOCTYPE svg PUBLIC "-//W3C//DTD SVG 1.1//EN" "http://www.w3.org/Graphics/SVG/1.1/DTD/svg11.dtd"><svg class="icon" width="200px" height="200.00px" viewBox="0 0 1024 1024" version="1.1" xmlns="http://www.w3.org/2000/svg"><path d="M347.428571 559.542857a18.285714 18.285714 0 0 1-18.285714-18.285714v-58.514286a18.285714 18.285714 0 0 1 18.285714-18.285714h329.142858a18.285714 18.285714 0 0 1 18.285714 18.285714v58.514286a18.285714 18.285714 0 0 1-18.285714 18.285714h-329.142858zM347.428571 647.314286a18.285714 18.285714 0 0 0-18.285714 18.285714v58.514286c0 10.093714 8.192 18.285714 18.285714 18.285714h329.142858a18.285714 18.285714 0 0 0 18.285714-18.285714v-58.514286a18.285714 18.285714 0 0 0-18.285714-18.285714h-329.142858zM520.630857 6.290286a14.628571 14.628571 0 0 0-17.261714 0l-424.228572 308.516571A14.628571 14.628571 0 0 0 73.142857 326.582857V936.228571c0 8.045714 6.582857 14.628571 14.628572 14.628572h848.457142a14.628571 14.628571 0 0 0 14.628572-14.628572V326.582857a14.628571 14.628571 0 0 0-5.997714-11.776L520.630857 6.290286zM168.228571 367.616L512 117.540571l343.771429 250.075429V855.771429H168.228571V367.616z" /></svg>