<svg class="icon" width="200px" height="200.00px" viewBox="0 0 1024 1024" version="1.1" xmlns="http://www.w3.org/2000/svg"><path  d="M295.731931 210.212571c1.243429 23.186286-14.262857 43.52-35.620571 52.662858A270.701714 270.701714 0 0 0 365.949074 782.628571h219.428572c39.350857 0 45.860571 37.888 24.137143 67.291429l-94.646858 95.524571a18.285714 18.285714 0 0 1-8.192 4.754286L501.921646 950.857143H392.71936a7.314286 7.314286 0 0 1-5.12-12.434286l60.562286-60.708571H365.949074a365.714286 365.714286 0 0 1-127.561143-708.534857c27.940571-10.459429 55.808 11.190857 57.344 40.96zM658.520503 146.285714a365.714286 365.714286 0 0 1 365.714286 365.714286l-0.365715 16.969143a365.933714 365.933714 0 0 1-243.053714 327.826286l-6.582857 1.755428-6.436572 0.658286a44.105143 44.105143 0 0 1-42.130285-32.621714l-1.462857-6.582858-2.56-17.700571a30.354286 30.354286 0 0 1 16.530285-31.012571l5.12-2.194286 13.312-4.754286a270.774857 270.774857 0 0 0 172.105143-237.421714L929.149074 512c0-70.070857-26.624-133.851429-70.290285-181.979429l-10.093715-10.532571a269.750857 269.750857 0 0 0-173.275428-77.531429L658.520503 241.371429H443.114789c-33.938286 0-39.862857-33.28-22.966858-61.44l3.949715-5.851429 94.573714-95.524571a18.285714 18.285714 0 0 1 8.265143-4.754286L531.690789 73.142857h109.202285a7.314286 7.314286 0 0 1 6.802286 9.947429l-1.682286 2.56L585.377646 146.285714h73.142857z" /></svg>