<?xml version="1.0" standalone="no"?><!DOCTYPE svg PUBLIC "-//W3C//DTD SVG 1.1//EN" "http://www.w3.org/Graphics/SVG/1.1/DTD/svg11.dtd"><svg class="icon" width="200px" height="200.00px" viewBox="0 0 1024 1024" version="1.1" xmlns="http://www.w3.org/2000/svg"><path d="M362.057143 0c8.045714 0 14.628571 6.582857 14.628571 14.628571V73.142857h270.628572V14.628571c0-8.045714 6.582857-14.628571 14.628571-14.628571h65.828572c8.045714 0 14.628571 6.582857 14.628571 14.628571V73.142857h171.885714a36.571429 36.571429 0 0 1 36.571429 36.571429v387.657143a14.628571 14.628571 0 0 1-14.628572 14.628571h-65.828571a14.628571 14.628571 0 0 1-14.628571-14.628571V376.685714H168.228571v479.085715h402.285715c8.045714 0 14.628571 6.582857 14.628571 14.628571v65.828571a14.628571 14.628571 0 0 1-14.628571 14.628572H109.714286a36.571429 36.571429 0 0 1-36.571429-36.571429v-804.571428a36.571429 36.571429 0 0 1 36.571429-36.571429h171.885714V14.628571c0-8.045714 6.582857-14.628571 14.628571-14.628571h65.828572z m14.628571 204.8a14.628571 14.628571 0 0 1-14.628571 14.628571h-65.828572a14.628571 14.628571 0 0 1-14.628571-14.628571v-36.571429H168.228571v113.371429h687.542858V168.228571h-113.371429v36.571429a14.628571 14.628571 0 0 1-14.628571 14.628571h-65.828572a14.628571 14.628571 0 0 1-14.628571-14.628571v-36.571429h-270.628572v36.571429zM680.228571 861.549714a10.971429 10.971429 0 0 0-2.925714 5.12l-18.797714 74.898286a7.314286 7.314286 0 0 0 8.850286 8.850286l74.971428-18.724572a10.971429 10.971429 0 0 0 5.12-2.925714l272.091429-272.237714a14.262857 14.262857 0 0 0 0-20.187429l-46.957715-47.030857a14.262857 14.262857 0 0 0-20.187428 0L680.155429 861.622857zM464.457143 449.828571v168.228572a51.2 51.2 0 0 0 51.2 51.2h168.228571A10.971429 10.971429 0 0 0 694.857143 658.285714V585.142857a10.971429 10.971429 0 0 0-10.971429-10.971428h-124.342857v-124.342858A10.971429 10.971429 0 0 0 548.571429 438.857143h-73.142858a10.971429 10.971429 0 0 0-10.971428 10.971428z" /></svg>