<?xml version="1.0" standalone="no"?><!DOCTYPE svg PUBLIC "-//W3C//DTD SVG 1.1//EN" "http://www.w3.org/Graphics/SVG/1.1/DTD/svg11.dtd"><svg class="icon" width="200px" height="200.00px" viewBox="0 0 1024 1024" version="1.1" xmlns="http://www.w3.org/2000/svg"><path d="M365.714286 746.057143c0-8.045714 6.582857-14.628571 14.628571-14.628572h263.314286c8.045714 0 14.628571 6.582857 14.628571 14.628572v65.828571a14.628571 14.628571 0 0 1-14.628571 14.628572H380.342857a14.628571 14.628571 0 0 1-14.628571-14.628572v-65.828571zM365.714286 746.057143c0-8.045714 6.582857-14.628571 14.628571-14.628572h263.314286c8.045714 0 14.628571 6.582857 14.628571 14.628572v65.828571a14.628571 14.628571 0 0 1-14.628571 14.628572H380.342857a14.628571 14.628571 0 0 1-14.628571-14.628572v-65.828571zM390.582857 292.571429a7.314286 7.314286 0 0 1 6.582857 4.022857L512 526.409143l106.788571-213.577143A36.571429 36.571429 0 0 1 651.483429 292.571429h105.106285a7.314286 7.314286 0 0 1 6.582857 10.386285l-34.962285 76.214857a14.628571 14.628571 0 0 1-13.312 8.484572h-27.209143l-118.491429 236.982857a14.628571 14.628571 0 0 1-13.092571 8.045714h-88.502857a14.628571 14.628571 0 0 1-12.873143-7.753143l-171.154286-321.609142A7.314286 7.314286 0 0 1 290.011429 292.571429H390.582857zM146.285714 1024a73.142857 73.142857 0 0 1-73.142857-73.142857V73.142857a73.142857 73.142857 0 0 1 73.142857-73.142857h731.428572a73.142857 73.142857 0 0 1 73.142857 73.142857v877.714286a73.142857 73.142857 0 0 1-73.142857 73.142857H146.285714z m21.942857-95.085714h687.542858V95.085714H168.228571v833.828572z" /></svg>