<?xml version="1.0" standalone="no"?><!DOCTYPE svg PUBLIC "-//W3C//DTD SVG 1.1//EN" "http://www.w3.org/Graphics/SVG/1.1/DTD/svg11.dtd"><svg class="icon" width="200px" height="200.00px" viewBox="0 0 1024 1024" version="1.1" xmlns="http://www.w3.org/2000/svg"><path d="M299.885714 343.771429a65.828571 65.828571 0 1 0 0 131.657142 65.828571 65.828571 0 0 0 0-131.657142zM512 343.771429a65.828571 65.828571 0 1 0 0 131.657142 65.828571 65.828571 0 0 0 0-131.657142zM658.285714 409.6a65.828571 65.828571 0 1 1 131.657143 0 65.828571 65.828571 0 0 1-131.657143 0zM804.571429 0a219.428571 219.428571 0 0 1 219.428571 219.428571v365.714286a219.428571 219.428571 0 0 1-219.428571 219.428572H585.142857l-272.310857 181.540571a36.571429 36.571429 0 0 1-56.832-30.427429V804.571429H219.428571a219.428571 219.428571 0 0 1-219.428571-219.428572V219.428571a219.428571 219.428571 0 0 1 219.428571-219.428571h585.142858z m0 95.085714H219.428571A124.342857 124.342857 0 0 0 95.085714 219.428571v365.714286A124.342857 124.342857 0 0 0 219.428571 709.485714h131.657143v136.777143L556.324571 709.485714H804.571429A124.342857 124.342857 0 0 0 928.914286 585.142857V219.428571A124.342857 124.342857 0 0 0 804.571429 95.085714z" /></svg>