<svg class="icon" width="200px" height="200.00px" viewBox="0 0 1024 1024" version="1.1" xmlns="http://www.w3.org/2000/svg"><path  d="M727.259429 14.116571L727.771429 18.285714V146.285714h40.228571a109.714286 109.714286 0 0 1 109.202286 99.181715L877.714286 256v40.228571h128a18.285714 18.285714 0 0 1 17.773714 14.116572L1024 314.514286v58.514285a18.285714 18.285714 0 0 1-14.116571 17.773715l-4.169143 0.512H877.714286v73.142857h128a18.285714 18.285714 0 0 1 17.773714 14.116571L1024 482.742857v58.514286a18.285714 18.285714 0 0 1-14.116571 17.773714l-4.169143 0.512H877.714286v73.142857h128a18.285714 18.285714 0 0 1 17.773714 14.116572L1024 650.971429v58.514285a18.285714 18.285714 0 0 1-14.116571 17.773715l-4.169143 0.512H877.714286v40.228571a109.714286 109.714286 0 0 1-99.181715 109.202286L768 877.714286h-40.228571v128a18.285714 18.285714 0 0 1-14.116572 17.773714L709.485714 1024h-58.514285a18.285714 18.285714 0 0 1-17.773715-14.116571l-0.512-4.169143V877.714286h-73.142857v128a18.285714 18.285714 0 0 1-14.116571 17.773714L541.257143 1024h-58.514286a18.285714 18.285714 0 0 1-17.773714-14.116571l-0.512-4.169143V877.714286h-73.142857v128a18.285714 18.285714 0 0 1-14.116572 17.773714L373.028571 1024h-58.514285a18.285714 18.285714 0 0 1-17.773715-14.116571l-0.512-4.169143V877.714286H256a109.714286 109.714286 0 0 1-109.202286-99.181715L146.285714 768v-40.228571H18.285714a18.285714 18.285714 0 0 1-17.773714-14.116572L0 709.485714v-58.514285a18.285714 18.285714 0 0 1 14.116571-17.773715L18.285714 632.685714H146.285714v-73.142857H18.285714a18.285714 18.285714 0 0 1-17.773714-14.116571L0 541.257143v-58.514286a18.285714 18.285714 0 0 1 14.116571-17.773714L18.285714 464.457143H146.285714v-73.142857H18.285714a18.285714 18.285714 0 0 1-17.773714-14.116572L0 373.028571v-58.514285a18.285714 18.285714 0 0 1 14.116571-17.773715L18.285714 296.228571H146.285714V256a109.714286 109.714286 0 0 1 99.181715-109.202286L256 146.285714h40.228571V18.285714a18.285714 18.285714 0 0 1 14.116572-17.773714L314.514286 0h58.514285a18.285714 18.285714 0 0 1 17.773715 14.116571L391.314286 18.285714V146.285714h73.142857V18.285714a18.285714 18.285714 0 0 1 14.116571-17.773714L482.742857 0h58.514286a18.285714 18.285714 0 0 1 17.773714 14.116571L559.542857 18.285714V146.285714h73.142857V18.285714a18.285714 18.285714 0 0 1 14.116572-17.773714L650.971429 0h58.514285a18.285714 18.285714 0 0 1 17.773715 14.116571zM746.057143 241.371429H277.942857a36.571429 36.571429 0 0 0-36.571428 36.571428v468.114286a36.571429 36.571429 0 0 0 36.571428 36.571428h468.114286a36.571429 36.571429 0 0 0 36.571428-36.571428V277.942857a36.571429 36.571429 0 0 0-36.571428-36.571428zM629.028571 318.171429c42.422857 0 76.8 34.377143 76.8 76.8v234.057142c0 39.570286-29.988571 72.192-68.388571 76.361143L629.028571 705.828571H394.971429c-42.422857 0-76.8-34.377143-76.8-76.8V394.971429c0-42.422857 34.377143-76.8 76.8-76.8h234.057142z m-18.285714 95.085714h-197.485714v197.485714h197.485714v-197.485714z" /></svg>