<?xml version="1.0" standalone="no"?><!DOCTYPE svg PUBLIC "-//W3C//DTD SVG 1.1//EN" "http://www.w3.org/Graphics/SVG/1.1/DTD/svg11.dtd"><svg class="icon" width="200px" height="200.00px" viewBox="0 0 1024 1024" version="1.1" xmlns="http://www.w3.org/2000/svg"><path d="M329.164069 95.085714a234.057143 234.057143 0 0 1 233.837714 223.085715l94.646857 31.670857A329.142857 329.142857 0 1 0 334.722926 658.285714l-26.624-96.036571A234.057143 234.057143 0 0 1 329.164069 95.085714zM381.607497 296.155429l596.187429 199.168c58.514286 19.529143 62.464 100.937143 6.070857 126.098285l-277.577143 123.611429-120.466286 241.517714c-27.648 55.442286-108.982857 47.542857-125.513143-12.141714L295.15264 378.514286a67.657143 67.657143 0 0 1 86.454857-82.358857z m18.944 106.569142l132.242286 477.184L636.364069 672.109714 880.88064 563.2 400.551497 402.724571z" /></svg>