<?xml version="1.0" standalone="no"?><!DOCTYPE svg PUBLIC "-//W3C//DTD SVG 1.1//EN" "http://www.w3.org/Graphics/SVG/1.1/DTD/svg11.dtd"><svg class="icon" width="200px" height="200.00px" viewBox="0 0 1024 1024" version="1.1" xmlns="http://www.w3.org/2000/svg"><path d="M514.194286 1.901714l4.388571 1.389715 204.8 102.4a14.628571 14.628571 0 0 1 8.045714 13.092571v274.432a14.628571 14.628571 0 0 1-8.045714 13.165714l-204.8 102.4a14.628571 14.628571 0 0 1-13.165714 0l-204.8-102.4a14.628571 14.628571 0 0 1-8.045714-13.165714V118.784a14.628571 14.628571 0 0 1 8.045714-13.165714l204.8-102.4a14.628571 14.628571 0 0 1 13.165714 0zM512 106.276571l-124.342857 62.171429v175.104l124.342857 62.171429 124.342857-62.171429V168.448L512 106.276571zM226.011429 515.291429l204.8 102.4a14.628571 14.628571 0 0 1 8.045714 13.092571v274.432a14.628571 14.628571 0 0 1-8.045714 13.165714l-204.8 102.4a14.628571 14.628571 0 0 1-13.165715 0l-204.8-102.4a14.628571 14.628571 0 0 1-8.045714-13.165714V630.784a14.628571 14.628571 0 0 1 8.045714-13.165714l204.8-102.4a14.628571 14.628571 0 0 1 13.165715 0zM219.428571 618.276571l-124.342857 62.171429v175.104l124.342857 62.171429 124.342858-62.171429V680.448L219.428571 618.276571zM806.765714 513.901714l4.388572 1.389715 204.8 102.4a14.628571 14.628571 0 0 1 8.045714 13.092571v274.432a14.628571 14.628571 0 0 1-8.045714 13.165714l-204.8 102.4a14.628571 14.628571 0 0 1-13.165715 0l-204.8-102.4a14.628571 14.628571 0 0 1-8.045714-13.165714V630.784a14.628571 14.628571 0 0 1 8.045714-13.165714l204.8-102.4a14.628571 14.628571 0 0 1 13.165715 0zM804.571429 618.276571l-124.342858 62.171429v175.104l124.342858 62.171429 124.342857-62.171429V680.448l-124.342857-62.171429z" /></svg>