<?xml version="1.0" standalone="no"?><!DOCTYPE svg PUBLIC "-//W3C//DTD SVG 1.1//EN" "http://www.w3.org/Graphics/SVG/1.1/DTD/svg11.dtd"><svg class="icon" width="200px" height="186.69px" viewBox="0 0 1097 1024" version="1.1" xmlns="http://www.w3.org/2000/svg"><path d="M1011.273143 382.902857L849.92 280.137143 1002.276571 66.998857a14.628571 14.628571 0 0 0-3.437714-20.48l-53.686857-38.034286a14.628571 14.628571 0 0 0-20.406857 3.364572l-155.136 217.234286-174.592-111.104a36.571429 36.571429 0 0 0-46.811429 6.363428c-8.923429 9.947429-17.92 19.894857-27.062857 29.769143-61.659429 66.706286-124.635429 133.339429-193.974857 192.146286-44.836571 38.034286-107.154286 82.651429-159.232 118.272-39.350857 26.916571-79.286857 52.955429-119.515429 78.555428a25.6 25.6 0 0 0-0.731428 42.715429l612.425143 421.010286c20.114286 13.897143 47.469714 10.24 63.268571-8.411429 24.429714-29.257143 48.201143-58.953143 71.241143-89.234286 38.765714-50.761143 86.528-117.321143 117.248-175.177143 69.12-129.828571 98.742857-235.666286 109.421714-281.892571a517.851429 517.851429 0 0 0 6.436572-32.402286 36.571429 36.571429 0 0 0-16.457143-36.790857z m-466.066286-115.565714c15.506286-16.237714 29.257143-30.939429 40.228572-42.715429l340.626285 216.722286c-4.096 16.530286-10.386286 39.277714-19.675428 66.852571L545.206857 267.410286z m326.217143 331.849143c-12.141714 28.013714-26.477714 58.294857-43.446857 90.185143-26.989714 50.614857-70.656 112.054857-108.909714 162.157714-15.36 20.114286-29.549714 38.034286-40.96 52.224L354.742857 681.545143 431.104 492.251429 268.580571 622.226286l-81.408-55.881143c10.605714-7.168 22.235429-14.994286 34.450286-23.405714 52.589714-35.84 118.272-82.724571 167.058286-124.123429 28.233143-23.917714 59.172571-53.174857 88.722286-82.358857l394.020571 262.729143z" /></svg>