<?xml version="1.0" standalone="no"?><!DOCTYPE svg PUBLIC "-//W3C//DTD SVG 1.1//EN" "http://www.w3.org/Graphics/SVG/1.1/DTD/svg11.dtd"><svg class="icon" width="200px" height="200.00px" viewBox="0 0 1024 1024" version="1.1" xmlns="http://www.w3.org/2000/svg"><path d="M559.542857 14.628571a14.628571 14.628571 0 0 0-14.628571-14.628571h-65.828572a14.628571 14.628571 0 0 0-14.628571 14.628571v592.457143c0 8.045714 6.582857 14.628571 14.628571 14.628572h65.828572a14.628571 14.628571 0 0 0 14.628571-14.628572V14.628571zM283.062857 139.629714a14.262857 14.262857 0 0 1 19.309714 5.558857l32.621715 57.051429c4.169143 7.314286 1.389714 16.530286-5.924572 20.626286a376.685714 376.685714 0 1 0 365.933715 0 15.140571 15.140571 0 0 1-5.997715-20.553143l32.621715-57.124572a14.262857 14.262857 0 0 1 19.309714-5.558857 471.771429 471.771429 0 1 1-457.874286 0zM559.542857 14.628571a14.628571 14.628571 0 0 0-14.628571-14.628571h-65.828572a14.628571 14.628571 0 0 0-14.628571 14.628571v592.457143c0 8.045714 6.582857 14.628571 14.628571 14.628572h65.828572a14.628571 14.628571 0 0 0 14.628571-14.628572V14.628571zM283.062857 139.629714a14.262857 14.262857 0 0 1 19.309714 5.558857l32.621715 57.051429c4.169143 7.314286 1.389714 16.530286-5.924572 20.626286a376.685714 376.685714 0 1 0 365.933715 0 15.140571 15.140571 0 0 1-5.997715-20.553143l32.621715-57.124572a14.262857 14.262857 0 0 1 19.309714-5.558857 471.771429 471.771429 0 1 1-457.874286 0z" /></svg>