<svg class="icon" width="200px" height="198.26px" viewBox="0 0 1033 1024" version="1.1" xmlns="http://www.w3.org/2000/svg"><path  d="M649.430309 855.771429a18.285714 18.285714 0 0 1 17.773714 14.116571L667.716023 874.057143v58.514286a18.285714 18.285714 0 0 1-14.116572 17.773714L649.430309 950.857143h-256a18.285714 18.285714 0 0 1-17.773715-14.116572L375.144594 932.571429v-58.514286a18.285714 18.285714 0 0 1 14.116572-17.773714l4.169143-0.512h256zM469.864594 417.426286a73.142857 73.142857 0 0 1 96.548572-6.070857l6.948571 6.070857 115.931429 116.004571a73.142857 73.142857 0 0 1 6.070857 96.548572l-6.070857 6.875428-115.931429 116.004572a72.777143 72.777143 0 0 1-38.838857 20.260571l-8.630857 1.024h-8.630857a72.850286 72.850286 0 0 1-40.521143-15.213714l-6.875429-6.070857L353.933166 636.854857a73.142857 73.142857 0 0 1-6.144-96.548571l6.070857-6.875429 116.004571-116.004571zM533.49888 73.142857c127.853714 0 235.666286 84.845714 270.701714 201.142857l12.288 44.763429h13.385143A218.550857 218.550857 0 0 1 1033.430309 527.36a217.746286 217.746286 0 0 1-208.384 226.450286v0.219428H667.862309V731.428571l72.411428-72.411428h76.214857l4.608-0.146286a122.660571 122.660571 0 0 0 117.321143-127.707428 123.538286 123.538286 0 0 0-111.908571-117.028572h-82.651429l-28.233143-103.424a187.830857 187.830857 0 0 0-168.96-142.043428l-13.165714-0.438858c-87.917714 0-162.011429 60.708571-182.125714 142.628572l-19.163429 78.336-86.820571-6.582857h-2.486857a138.24 138.24 0 0 0-8.338286 276.187428l4.388571 0.292572h64l72.411429 72.338285v22.674286h-146.285714v-0.365714a233.325714 233.325714 0 1 1 29.988571-465.481143A282.697143 282.697143 0 0 1 533.572023 73.142857z m-11.922286 427.008L436.73088 585.142857l84.845714 84.992L606.568594 585.142857 521.576594 500.150857z" /></svg>