<?xml version="1.0" standalone="no"?><!DOCTYPE svg PUBLIC "-//W3C//DTD SVG 1.1//EN" "http://www.w3.org/Graphics/SVG/1.1/DTD/svg11.dtd"><svg class="icon" width="200px" height="200.00px" viewBox="0 0 1024 1024" version="1.1" xmlns="http://www.w3.org/2000/svg"><path d="M437.467429 71.68a83.821714 83.821714 0 0 1 150.162285 1.024l108.544 223.085714 255.634286 35.620572c69.485714 9.728 96.987429 95.451429 46.08 143.798857L816.786286 647.314286l42.788571 243.126857a83.821714 83.821714 0 0 1-120.685714 89.088L512 863.378286l-226.742857 116.150857a83.821714 83.821714 0 0 1-120.832-89.088l42.788571-243.126857L26.185143 475.209143c-50.834286-48.274286-23.405714-133.851429 45.933714-143.725714l252.123429-35.693715L437.467429 71.68z m74.605714 63.122286L386.779429 382.976l-278.162286 39.424 201.142857 191.122286-47.689143 271.067428L512 756.516571l249.929143 128-47.689143-270.994285 201.216-191.122286-282.624-39.424-120.685714-248.173714z" /></svg>