<svg class="icon" width="200px" height="200.00px" viewBox="0 0 1024 1024" version="1.1" xmlns="http://www.w3.org/2000/svg"><path  d="M454.948571 897.901714a32.914286 32.914286 0 0 0 32.914286 33.572572h48.274286a32.914286 32.914286 0 0 0 32.841143-33.572572l-5.12-533.284571a32.914286 32.914286 0 0 0-32.914286-32.329143h-38.034286a32.914286 32.914286 0 0 0-32.914285 32.329143l-5.12 533.284571zM447.634286 209.700571c0 36.059429 28.818286 63.488 64.146285 63.488a63.122286 63.122286 0 0 0 64.438858-63.488A63.122286 63.122286 0 0 0 511.780571 146.285714a63.268571 63.268571 0 0 0-64.146285 63.414857zM454.948571 897.901714a32.914286 32.914286 0 0 0 32.914286 33.572572h48.274286a32.914286 32.914286 0 0 0 32.841143-33.572572l-5.12-533.284571a32.914286 32.914286 0 0 0-32.914286-32.329143h-38.034286a32.914286 32.914286 0 0 0-32.914285 32.329143l-5.12 533.284571zM447.634286 209.700571c0 36.059429 28.818286 63.488 64.146285 63.488a63.122286 63.122286 0 0 0 64.438858-63.488A63.122286 63.122286 0 0 0 511.780571 146.285714a63.268571 63.268571 0 0 0-64.146285 63.414857z" /></svg>