<?xml version="1.0" standalone="no"?><!DOCTYPE svg PUBLIC "-//W3C//DTD SVG 1.1//EN" "http://www.w3.org/Graphics/SVG/1.1/DTD/svg11.dtd"><svg class="icon" width="200px" height="200.00px" viewBox="0 0 1024 1024" version="1.1" xmlns="http://www.w3.org/2000/svg"><path d="M512 0c282.770286 0 512 98.230857 512 219.428571v585.142858c0 121.197714-229.229714 219.428571-512 219.428571s-512-98.230857-512-219.428571V219.428571c0-121.197714 229.229714-219.428571 512-219.428571z m416.914286 639.414857C836.022857 695.076571 683.885714 731.428571 512 731.428571s-324.022857-36.352-416.914286-92.013714V804.571429a12.434286 12.434286 0 0 0 1.097143 3.218285c1.462857 2.998857 4.754286 8.338286 11.702857 15.36 14.555429 14.774857 40.228571 32.329143 79.506286 49.152 78.262857 33.572571 192.950857 56.612571 324.608 56.612572 131.657143 0 246.345143-23.04 324.608-56.612572 39.277714-16.822857 64.950857-34.377143 79.506286-49.078857a59.904 59.904 0 0 0 11.702857-15.36 14.262857 14.262857 0 0 0 1.024-2.779428z m0-292.571428C836.022857 402.505143 683.885714 438.857143 512 438.857143s-324.022857-36.352-416.914286-92.013714V512a12.434286 12.434286 0 0 0 1.097143 3.218286c1.462857 2.998857 4.754286 8.338286 11.702857 15.36 14.555429 14.774857 40.228571 32.329143 79.506286 49.152C265.654857 613.302857 380.342857 636.342857 512 636.342857c131.657143 0 246.345143-23.04 324.608-56.612571 39.277714-16.822857 64.950857-34.377143 79.506286-49.078857a59.830857 59.830857 0 0 0 11.702857-15.36 14.189714 14.189714 0 0 0 1.024-2.779429l0.073143-165.668571zM512 95.085714c-131.657143 0-246.345143 23.04-324.608 56.612572-39.277714 16.822857-64.950857 34.377143-79.506286 49.078857a60.050286 60.050286 0 0 0-11.702857 15.36 14.116571 14.116571 0 0 0-1.024 2.779428 2.194286 2.194286 0 0 0 0 1.024 14.116571 14.116571 0 0 0 1.024 2.706286c1.462857 2.998857 4.754286 8.338286 11.702857 15.36 14.555429 14.774857 40.228571 32.329143 79.506286 49.152C265.654857 320.731429 380.342857 343.771429 512 343.771429c131.657143 0 246.345143-23.04 324.608-56.612572 39.277714-16.822857 64.950857-34.377143 79.506286-49.078857a59.830857 59.830857 0 0 0 11.702857-15.36 14.189714 14.189714 0 0 0 1.024-2.779429v-0.731428a13.531429 13.531429 0 0 0-1.024-2.998857 59.830857 59.830857 0 0 0-11.702857-15.36c-14.555429-14.774857-40.228571-32.329143-79.506286-49.152C758.345143 118.125714 643.657143 95.085714 512 95.085714z" /></svg>