<?xml version="1.0" standalone="no"?><!DOCTYPE svg PUBLIC "-//W3C//DTD SVG 1.1//EN" "http://www.w3.org/Graphics/SVG/1.1/DTD/svg11.dtd"><svg class="icon" width="200px" height="200.00px" viewBox="0 0 1024 1024" version="1.1" xmlns="http://www.w3.org/2000/svg"><path d="M193.841737 357.814857a146.285714 146.285714 0 1 0-95.085714 0V936.228571c0 8.045714 6.582857 14.628571 14.628571 14.628572h65.828572a14.628571 14.628571 0 0 0 14.628571-14.628572V357.814857zM197.49888 219.428571a51.2 51.2 0 1 1-102.4 0 51.2 51.2 0 0 1 102.4 0zM658.29888 804.571429a146.285714 146.285714 0 1 1-193.828571-138.386286V87.771429c0-8.045714 6.582857-14.628571 14.628571-14.628572h65.828571c8.045714 0 14.628571 6.582857 14.628572 14.628572v578.413714A146.285714 146.285714 0 0 1 658.29888 804.571429z m-95.085714 0a51.2 51.2 0 1 0-102.4 0 51.2 51.2 0 0 0 102.4 0zM925.270309 504.100571a146.285714 146.285714 0 0 0 0-276.772571V87.771429a14.628571 14.628571 0 0 0-14.628572-14.628572h-65.828571a14.628571 14.628571 0 0 0-14.628572 14.628572v139.556571a146.285714 146.285714 0 0 0 0 276.772571V936.228571c0 8.045714 6.582857 14.628571 14.628572 14.628572h65.828571a14.628571 14.628571 0 0 0 14.628572-14.628572V504.100571zM877.727451 416.914286a51.2 51.2 0 1 1 0-102.4 51.2 51.2 0 0 1 0 102.4zM193.841737 357.814857a146.285714 146.285714 0 1 0-95.085714 0V936.228571c0 8.045714 6.582857 14.628571 14.628571 14.628572h65.828572a14.628571 14.628571 0 0 0 14.628571-14.628572V357.814857zM197.49888 219.428571a51.2 51.2 0 1 1-102.4 0 51.2 51.2 0 0 1 102.4 0zM658.29888 804.571429a146.285714 146.285714 0 1 1-193.828571-138.386286V87.771429c0-8.045714 6.582857-14.628571 14.628571-14.628572h65.828571c8.045714 0 14.628571 6.582857 14.628572 14.628572v578.413714A146.285714 146.285714 0 0 1 658.29888 804.571429z m-95.085714 0a51.2 51.2 0 1 0-102.4 0 51.2 51.2 0 0 0 102.4 0zM925.270309 504.100571a146.285714 146.285714 0 0 0 0-276.772571V87.771429a14.628571 14.628571 0 0 0-14.628572-14.628572h-65.828571a14.628571 14.628571 0 0 0-14.628572 14.628572v139.556571a146.285714 146.285714 0 0 0 0 276.772571V936.228571c0 8.045714 6.582857 14.628571 14.628572 14.628572h65.828571a14.628571 14.628571 0 0 0 14.628572-14.628572V504.100571zM877.727451 416.914286a51.2 51.2 0 1 1 0-102.4 51.2 51.2 0 0 1 0 102.4z" /></svg>