<?xml version="1.0" standalone="no"?><!DOCTYPE svg PUBLIC "-//W3C//DTD SVG 1.1//EN" "http://www.w3.org/Graphics/SVG/1.1/DTD/svg11.dtd"><svg class="icon" width="200px" height="200.00px" viewBox="0 0 1024 1024" version="1.1" xmlns="http://www.w3.org/2000/svg"><path d="M98.742504 376.684369A376.684369 376.684369 0 0 1 475.426873 0h73.142596a376.684369 376.684369 0 0 1 376.684369 376.684369v0.29257A157.256581 157.256581 0 0 1 1023.996343 522.969561V621.712065c0 67.291188-42.27642 124.781269-101.741351 147.162903-17.919936 109.421323-112.859026 229.521466-227.400331 229.521466H567.586544a73.142596 73.142596 0 1 1 0-95.085374H694.854661c60.269499 0 111.323031-39.350717 128.804112-130.340106A157.256581 157.256581 0 0 1 709.556323 621.712065V522.969561a157.256581 157.256581 0 0 1 120.538998-152.941168A281.598994 281.598994 0 0 0 548.569469 95.085375h-73.142596a281.598994 281.598994 0 0 0-281.525851 274.943018 157.256581 157.256581 0 0 1 120.685283 152.941168V621.712065a157.256581 157.256581 0 1 1-314.513162 0V522.969561a157.256581 157.256581 0 0 1 98.742504-145.992622V376.684369z m-3.657129 146.285192V621.712065a62.171207 62.171207 0 0 0 124.342413 0V522.969561a62.171207 62.171207 0 1 0-124.342413 0z m709.48318 0V621.712065a62.171207 62.171207 0 0 0 124.342413 0V522.969561a62.171207 62.171207 0 0 0-124.342413 0zM98.742504 376.684369A376.684369 376.684369 0 0 1 475.426873 0h73.142596a376.684369 376.684369 0 0 1 376.684369 376.684369v0.29257A157.256581 157.256581 0 0 1 1023.996343 522.969561V621.712065c0 67.291188-42.27642 124.781269-101.741351 147.162903-17.919936 109.421323-112.859026 229.521466-227.400331 229.521466H567.586544a73.142596 73.142596 0 1 1 0-95.085374H694.854661c60.269499 0 111.323031-39.350717 128.804112-130.340106A157.256581 157.256581 0 0 1 709.556323 621.712065V522.969561a157.256581 157.256581 0 0 1 120.538998-152.941168A281.598994 281.598994 0 0 0 548.569469 95.085375h-73.142596a281.598994 281.598994 0 0 0-281.525851 274.943018 157.256581 157.256581 0 0 1 120.685283 152.941168V621.712065a157.256581 157.256581 0 1 1-314.513162 0V522.969561a157.256581 157.256581 0 0 1 98.742504-145.992622V376.684369z m-3.657129 146.285192V621.712065a62.171207 62.171207 0 0 0 124.342413 0V522.969561a62.171207 62.171207 0 1 0-124.342413 0z m709.48318 0V621.712065a62.171207 62.171207 0 0 0 124.342413 0V522.969561a62.171207 62.171207 0 0 0-124.342413 0z" /></svg>