<svg class="icon" width="200px" height="200.00px" viewBox="0 0 1024 1024" version="1.1" xmlns="http://www.w3.org/2000/svg"><path  d="M914.285714 73.142857a36.571429 36.571429 0 0 1 35.986286 29.988572L950.857143 109.714286v804.571428a36.571429 36.571429 0 0 1-29.988572 35.986286L914.285714 950.857143h-804.571428a36.571429 36.571429 0 0 1-35.986286-29.988572L73.142857 914.285714V705.828571H14.628571l-3.876571-0.512a14.628571 14.628571 0 0 1-10.24-10.24L0 691.2v-65.828571a14.628571 14.628571 0 0 1 10.752-14.116572L14.628571 610.742857H73.142857v-234.057143H14.628571l-3.876571-0.512a14.628571 14.628571 0 0 1-10.24-10.24L0 362.057143v-65.828572a14.628571 14.628571 0 0 1 10.752-14.116571L14.628571 281.6H73.142857V109.714286a36.571429 36.571429 0 0 1 29.988572-35.986286L109.714286 73.142857h804.571428z m-58.514285 95.085714H168.228571v113.371429h73.142858a14.628571 14.628571 0 0 1 14.116571 10.752l0.512 3.876571v65.828572a14.628571 14.628571 0 0 1-10.752 14.116571L241.371429 376.685714h-73.142858v234.057143h73.142858a14.628571 14.628571 0 0 1 14.116571 10.752l0.512 3.876572v65.828571a14.628571 14.628571 0 0 1-10.752 14.116571L241.371429 705.828571h-73.142858v149.942858h687.542858V168.228571zM437.394286 292.571429l4.681143 0.585142c5.851429 1.170286 10.459429 4.169143 13.970285 8.192l18.358857 24.868572 36.205715 51.346286a40.96 40.96 0 0 1 4.169143 13.604571c0.585143 5.412571-0.146286 11.556571-4.388572 16.091429l-23.259428 22.893714c-2.194286 2.633143-5.412571 10.678857 1.389714 22.089143l4.388571 6.290285c17.334857 22.454857 36.571429 42.642286 58.075429 60.928l17.261714 13.897143c7.460571 5.412571 13.677714 6.582857 18.285714 6.217143l3.072-0.512a11.483429 11.483429 0 0 0 4.022858-1.974857l13.092571-13.165714c3.510857-3.437714 7.094857-6.948571 10.093714-9.728a17.92 17.92 0 0 1 12.068572-4.388572l4.096 0.146286c3.657143 0.438857 7.168 1.462857 10.020571 2.56l3.949714 1.901714 69.193143 49.517715 6.656 5.193142a24.429714 24.429714 0 0 1 8.118857 14.043429 39.350857 39.350857 0 0 1-2.56 20.845714c-6.875429 19.017143-32.036571 50.322286-73.874285 53.906286L644.681143 658.285714a106.569143 106.569143 0 0 1-21.650286-2.706285c-29.988571-6.875429-61.586286-23.405714-88.941714-41.398858a419.401143 419.401143 0 0 1-125.074286-125.586285c-17.700571-27.355429-34.084571-58.88-40.667428-88.795429-13.385143-60.635429 29.257143-96.109714 52.809142-104.374857A44.909714 44.909714 0 0 1 437.394286 292.571429z" /></svg>