<svg class="icon" width="200px" height="200.00px" viewBox="0 0 1024 1024" version="1.1" xmlns="http://www.w3.org/2000/svg"><path  d="M994.244256 387.409478c8.406055 0 15.715667 5.701498 17.543071 13.888264A511.672895 511.672895 0 0 1 62.780299 756.691115a17.396878 17.396878 0 0 1 11.476092-25.218164L78.495966 730.961278h208.104676l4.53196 0.584769c11.549188 2.850749 17.323782 16.300437 11.402996 26.606991l-2.777653 3.654806-61.254555 64.178401a414.966718 414.966718 0 0 0 252.693314 101.822906L512.029101 928.320823l16.008052-0.292384a416.647929 416.647929 0 0 0 388.505919-516.716528 19.297378 19.297378 0 0 1 13.668976-23.390761l4.458864-0.511672h59.573344z m-543.835191-18.420225l5.84769 0.292385 5.84769 1.31573 5.555306 2.339076L669.916737 479.364406a36.548064 36.548064 0 0 1 5.993882 60.742883l-5.993882 3.874094-202.18389 106.427962a34.574468 34.574468 0 0 1-11.3299 3.654807l-5.920786 0.292384a34.574468 34.574468 0 0 1-32.893258-28.507489L417.004134 619.855164V403.490626a34.574468 34.574468 0 0 1 33.404931-34.501373zM512.029101 0a511.599799 511.599799 0 0 1 449.321897 266.654674 17.396878 17.396878 0 0 1-11.549188 25.218164L945.562235 292.384511h-208.03158a18.274032 18.274032 0 0 1-13.230399-30.919662l61.254555-64.105304a414.893622 414.893622 0 0 0-252.693314-101.822906L512.029101 95.024966a416.647929 416.647929 0 0 0-404.513972 517.008912 19.297378 19.297378 0 0 1-13.668976 23.390761l-4.458864 0.511673H29.813945a17.835455 17.835455 0 0 1-17.54307-13.888264A511.672895 511.672895 0 0 1 512.029101 0z" /></svg>