<svg class="icon" width="200px" height="188.24px" viewBox="0 0 1088 1024" version="1.1" xmlns="http://www.w3.org/2000/svg"><path  d="M200.832 108.48v612.864h-56.32a35.2 35.2 0 0 1-35.264-35.2V52.096a35.2 35.2 0 0 1 35.2-35.2h704.512a35.2 35.2 0 0 1 35.2 35.2v56.32H200.896zM250.176 193.024a35.2 35.2 0 0 1 35.2-35.2h704.512a35.2 35.2 0 0 1 35.2 35.2v704.448a35.2 35.2 0 0 1-35.2 35.2H285.376a35.2 35.2 0 0 1-35.2-35.2V193.024z m91.52 648.128h591.808V249.344H341.76v591.808zM200.832 108.48v612.864h-56.32a35.2 35.2 0 0 1-35.264-35.2V52.096a35.2 35.2 0 0 1 35.2-35.2h704.512a35.2 35.2 0 0 1 35.2 35.2v56.32H200.896zM250.176 193.024a35.2 35.2 0 0 1 35.2-35.2h704.512a35.2 35.2 0 0 1 35.2 35.2v704.448a35.2 35.2 0 0 1-35.2 35.2H285.376a35.2 35.2 0 0 1-35.2-35.2V193.024z m91.52 648.128h591.808V249.344H341.76v591.808zM448 384h384v83.2H448zM448 576h384v83.2H448z" /></svg>