<?xml version="1.0" standalone="no"?><!DOCTYPE svg PUBLIC "-//W3C//DTD SVG 1.1//EN" "http://www.w3.org/Graphics/SVG/1.1/DTD/svg11.dtd"><svg class="icon" width="200px" height="186.69px" viewBox="0 0 1097 1024" version="1.1" xmlns="http://www.w3.org/2000/svg"><path d="M113.371429 168.228571V804.571429h-58.514286a36.571429 36.571429 0 0 1-36.571429-36.571429v-658.285714a36.571429 36.571429 0 0 1 36.571429-36.571429h731.428571a36.571429 36.571429 0 0 1 36.571429 36.571429v58.514285h-709.485714zM237.714286 329.142857a36.571429 36.571429 0 0 1 36.571428-36.571428h731.428572a36.571429 36.571429 0 0 1 36.571428 36.571428v658.285714a36.571429 36.571429 0 0 1-36.571428 36.571429h-731.428572a36.571429 36.571429 0 0 1-36.571428-36.571429v-658.285714z m95.085714 599.771429h614.4V387.657143h-614.4v541.257143zM113.371429 168.228571V804.571429h-58.514286a36.571429 36.571429 0 0 1-36.571429-36.571429v-658.285714a36.571429 36.571429 0 0 1 36.571429-36.571429h731.428571a36.571429 36.571429 0 0 1 36.571429 36.571429v58.514285h-709.485714zM237.714286 329.142857a36.571429 36.571429 0 0 1 36.571428-36.571428h731.428572a36.571429 36.571429 0 0 1 36.571428 36.571428v658.285714a36.571429 36.571429 0 0 1-36.571428 36.571429h-731.428572a36.571429 36.571429 0 0 1-36.571428-36.571429v-658.285714z m95.085714 599.771429h614.4V387.657143h-614.4v541.257143z" /></svg>