<?xml version="1.0" standalone="no"?><!DOCTYPE svg PUBLIC "-//W3C//DTD SVG 1.1//EN" "http://www.w3.org/Graphics/SVG/1.1/DTD/svg11.dtd"><svg class="icon" width="200px" height="200.00px" viewBox="0 0 1024 1024" version="1.1" xmlns="http://www.w3.org/2000/svg"><path d="M559.539728 575.62997v-57.339781h153.5887a18.284369 18.284369 0 0 0 18.284369-18.284369v-58.509981a18.284369 18.284369 0 0 0-18.284369-18.28437H613.515186l106.122478-127.405483a18.284369 18.284369 0 0 0-2.3404-25.744392l-44.90641-37.446388a18.284369 18.284369 0 0 0-25.744392 2.340399L512.585468 395.784916 377.427412 233.492856a18.284369 18.284369 0 0 0-25.744392-2.340399l-44.90641 37.446388a18.284369 18.284369 0 0 0-2.340399 25.744391l107.365815 128.868233H310.872309a18.284369 18.284369 0 0 0-18.284369 18.28437v58.509981c0 10.092972 8.191397 18.284369 18.284369 18.284369h153.5887v57.339781h-153.5887a18.284369 18.284369 0 0 0-18.284369 18.284369v58.509981c0 10.092972 8.191397 18.284369 18.284369 18.284369h153.5887v80.451224c0 10.092972 8.191397 18.284369 18.284369 18.284369h58.509981a18.284369 18.284369 0 0 0 18.284369-18.284369v-80.451224h153.5887a18.284369 18.284369 0 0 0 18.284369-18.284369v-58.509981a18.284369 18.284369 0 0 0-18.284369-18.284369h-153.5887zM874.030876 874.030873a511.962334 511.962334 0 1 0-724.061015-724.061015 511.962334 511.962334 0 0 0 724.061015 724.061015z m-67.286478-67.286478a416.883615 416.883615 0 1 1-589.488059-589.488059 416.883615 416.883615 0 0 1 589.488059 589.488059z" /></svg>