<svg class="icon" width="200px" height="200.00px" viewBox="0 0 1024 1024" version="1.1" xmlns="http://www.w3.org/2000/svg"><path  d="M950.857143 73.142857a73.142857 73.142857 0 0 1 73.142857 73.142857v182.857143c0 17.92-13.165714 32.548571-29.769143 39.058286l-6.436571 2.048a146.285714 146.285714 0 0 0-10.971429 280.283428l10.971429 3.218286c19.602286 4.973714 36.205714 20.918857 36.205714 41.106286V877.714286a73.142857 73.142857 0 0 1-64.585143 72.630857L950.857143 950.857143H73.142857a73.142857 73.142857 0 0 1-73.142857-73.142857V694.857143c0-17.92 13.165714-32.548571 29.769143-39.058286l6.436571-2.048a146.285714 146.285714 0 0 0 10.971429-280.283428l-10.971429-3.218286C16.603429 365.275429 0 349.330286 0 329.142857V146.285714a73.142857 73.142857 0 0 1 73.142857-73.142857h877.714286zM574.171429 168.228571H95.085714v121.856a241.371429 241.371429 0 0 1 12.726857 437.906286l-12.726857 5.924572V855.771429h479.085715v-37.449143h95.085714v37.449143h259.657143v-121.856a241.371429 241.371429 0 0 1-12.726857-437.906286l12.726857-5.924572V168.228571H669.257143v74.093715h-95.085714V168.228571z m95.085714 266.093715v192h-95.085714V434.249143h95.085714z" /></svg>