<?xml version="1.0" standalone="no"?><!DOCTYPE svg PUBLIC "-//W3C//DTD SVG 1.1//EN" "http://www.w3.org/Graphics/SVG/1.1/DTD/svg11.dtd"><svg class="icon" width="200px" height="200.00px" viewBox="0 0 1024 1024" version="1.1" xmlns="http://www.w3.org/2000/svg"><path d="M72.557714 530.432L911.725714 40.96a54.857143 54.857143 0 0 1 80.676572 61.220571l-103.350857 396.141715a18.285714 18.285714 0 0 1-17.700572 13.677714h-60.416a18.285714 18.285714 0 0 1-17.700571-22.893714l59.026285-226.450286-439.003428 520.484571v89.526858l28.525714-28.525715 38.765714-39.936a18.285714 18.285714 0 0 1 31.451429 12.8v83.821715a18.285714 18.285714 0 0 1-5.339429 12.873142L424.228571 996.059429c-39.131429 39.204571-106.130286 11.410286-106.130285-43.885715v-191.341714L76.068571 639.780571a62.171429 62.171429 0 0 1-3.510857-109.348571z m302.518857 152.502857l360.521143-429.202286-562.614857 328.192 202.093714 101.010286zM822.857143 585.142857a18.285714 18.285714 0 0 1 18.285714 18.285714v142.628572h128a18.285714 18.285714 0 0 1 18.285714 18.285714v58.514286a18.285714 18.285714 0 0 1-18.285714 18.285714H841.142857v128a18.285714 18.285714 0 0 1-18.285714 18.285714h-58.514286a18.285714 18.285714 0 0 1-18.285714-18.285714V841.142857H603.428571a18.285714 18.285714 0 0 1-18.285714-18.285714v-58.514286a18.285714 18.285714 0 0 1 18.285714-18.285714h142.628572V603.428571a18.285714 18.285714 0 0 1 18.285714-18.285714h58.514286z" /></svg>