<?xml version="1.0" standalone="no"?><!DOCTYPE svg PUBLIC "-//W3C//DTD SVG 1.1//EN" "http://www.w3.org/Graphics/SVG/1.1/DTD/svg11.dtd"><svg class="icon" width="200px" height="200.00px" viewBox="0 0 1024 1024" version="1.1" xmlns="http://www.w3.org/2000/svg"><path d="M512 0a219.428571 219.428571 0 0 1 207.725714 290.377143 157.257143 157.257143 0 1 1-41.910857 72.777143A218.916571 218.916571 0 0 1 512 438.857143a218.916571 218.916571 0 0 1-165.814857-75.702857A157.549714 157.549714 0 0 1 193.828571 559.542857a157.257143 157.257143 0 1 1 110.445715-269.165714A219.428571 219.428571 0 0 1 512 0zM193.828571 340.114286a62.171429 62.171429 0 1 0 0 124.342857 62.171429 62.171429 0 0 0 0-124.342857z m636.342858 0a62.171429 62.171429 0 1 0 0 124.342857 62.171429 62.171429 0 0 0 0-124.342857zM512 95.085714a124.342857 124.342857 0 1 0 0 248.685715 124.342857 124.342857 0 0 0 0-248.685715zM727.113143 614.765714a219.501714 219.501714 0 0 0-430.226286 0A193.828571 193.828571 0 0 0 0 778.971429v230.4c0 8.045714 6.582857 14.628571 14.628571 14.628571h65.828572a14.628571 14.628571 0 0 0 14.628571-14.628571v-230.4a98.742857 98.742857 0 0 1 197.485715 0v230.4c0 8.045714 6.582857 14.628571 14.628571 14.628571h65.828571a14.628571 14.628571 0 0 0 14.628572-14.628571V658.285714a124.342857 124.342857 0 0 1 248.685714 0v351.085715c0 8.045714 6.582857 14.628571 14.628572 14.628571h65.828571a14.628571 14.628571 0 0 0 14.628571-14.628571v-230.4a98.742857 98.742857 0 1 1 197.485715 0v230.4c0 8.045714 6.582857 14.628571 14.628571 14.628571h65.828572a14.628571 14.628571 0 0 0 14.628571-14.628571v-230.4a193.828571 193.828571 0 0 0-296.886857-164.205715z" /></svg>