<?xml version="1.0" standalone="no"?><!DOCTYPE svg PUBLIC "-//W3C//DTD SVG 1.1//EN" "http://www.w3.org/Graphics/SVG/1.1/DTD/svg11.dtd"><svg class="icon" width="200px" height="200.00px" viewBox="0 0 1024 1024" version="1.1" xmlns="http://www.w3.org/2000/svg"><path d="M735.858834 936.96a19.017143 19.017143 0 0 0-5.558857 26.916571l33.938286 47.542858c5.558857 7.753143 16.091429 9.947429 24.137143 4.827428a512 512 0 1 0-552.667429 0c8.045714 5.12 18.578286 2.925714 24.137143-4.827428l33.938286-47.542858a19.017143 19.017143 0 0 0-5.558857-26.916571 416.914286 416.914286 0 1 1 447.634285 0zM680.562834 415.012571a38.765714 38.765714 0 0 1 67.730286 36.937143l-169.984 383.853715-0.073143-0.073143a73.142857 73.142857 0 1 1-127.049143-71.68l-0.073143-0.073143 229.449143-348.964572z" /></svg>