<?xml version="1.0" standalone="no"?><!DOCTYPE svg PUBLIC "-//W3C//DTD SVG 1.1//EN" "http://www.w3.org/Graphics/SVG/1.1/DTD/svg11.dtd"><svg class="icon" width="200px" height="200.00px" viewBox="0 0 1024 1024" version="1.1" xmlns="http://www.w3.org/2000/svg"><path d="M601.234286 307.053714a14.628571 14.628571 0 0 0-22.454857 12.288v44.982857H307.2a14.628571 14.628571 0 0 0-14.628571 14.628572v65.828571c0 8.045714 6.582857 14.628571 14.628571 14.628572h457.142857a14.628571 14.628571 0 0 0 14.628572-14.628572v-15.798857a14.628571 14.628571 0 0 0-6.729143-12.288l-171.008-109.714286zM936.228571 62.171429a25.6 25.6 0 0 1 25.6 25.6v629.028571a25.6 25.6 0 0 1-25.6 25.6H559.542857v124.342857h168.228572c8.045714 0 14.628571 6.582857 14.628571 14.628572v65.828571a14.628571 14.628571 0 0 1-14.628571 14.628571h-431.542858a14.628571 14.628571 0 0 1-14.628571-14.628571v-65.828571c0-8.045714 6.582857-14.628571 14.628571-14.628572h168.228572v-124.342857H87.771429a25.6 25.6 0 0 1-25.6-25.6V87.771429A25.6 25.6 0 0 1 87.771429 62.171429h848.457142z m-69.485714 95.085714h-709.485714v490.057143h709.485714v-490.057143zM73.142857 881.371429c0-8.045714 6.582857-14.628571 14.628572-14.628572h117.028571c8.045714 0 14.628571 6.582857 14.628571 14.628572v65.828571a14.628571 14.628571 0 0 1-14.628571 14.628571H87.771429a14.628571 14.628571 0 0 1-14.628572-14.628571v-65.828571zM950.857143 881.371429a14.628571 14.628571 0 0 0-14.628572-14.628572h-117.028571a14.628571 14.628571 0 0 0-14.628571 14.628572v65.828571c0 8.045714 6.582857 14.628571 14.628571 14.628571h117.028571a14.628571 14.628571 0 0 0 14.628572-14.628571v-65.828571z" /></svg>