<?xml version="1.0" standalone="no"?><!DOCTYPE svg PUBLIC "-//W3C//DTD SVG 1.1//EN" "http://www.w3.org/Graphics/SVG/1.1/DTD/svg11.dtd"><svg class="icon" width="200px" height="200.00px" viewBox="0 0 1024 1024" version="1.1" xmlns="http://www.w3.org/2000/svg"><path d="M511.998171 0c16.091279 0 31.88999 0.731422 47.542416 2.194265v462.258565h462.258565A511.995246 511.995246 0 1 1 511.998171 0z m-10.971326 559.537661a36.571089 36.571089 0 0 1-36.571089-36.571089V97.791092a416.910414 416.910414 0 1 0 461.746569 461.746569H501.026845zM621.711438 10.971327A10.971327 10.971327 0 0 1 632.682765 0h73.142178a10.971327 10.971327 0 0 1 10.971327 10.971327v380.339325a10.971327 10.971327 0 0 1-10.971327 10.971327h-73.142178a10.971327 10.971327 0 0 1-10.971327-10.971327V10.971327zM767.995794 130.778214a10.971327 10.971327 0 0 1 10.971327-10.971326h73.142178a10.971327 10.971327 0 0 1 10.971327 10.971326V391.310652a10.971327 10.971327 0 0 1-10.971327 10.971327h-73.142178a10.971327 10.971327 0 0 1-10.971327-10.971327V130.778214zM1009.364982 332.577483a10.971327 10.971327 0 0 0-10.971327-10.971326h-73.142178a10.971327 10.971327 0 0 0-10.971327 10.971326v58.733169c0 6.070801 4.900526 10.971327 10.971327 10.971327h73.142178a10.971327 10.971327 0 0 0 10.971327-10.971327v-58.733169z" /></svg>