<?xml version="1.0" standalone="no"?><!DOCTYPE svg PUBLIC "-//W3C//DTD SVG 1.1//EN" "http://www.w3.org/Graphics/SVG/1.1/DTD/svg11.dtd"><svg class="icon" width="200px" height="200.00px" viewBox="0 0 1024 1024" version="1.1" xmlns="http://www.w3.org/2000/svg"><path d="M68.022857 438.857143a449.974857 449.974857 0 0 1 869.522286-73.142857H835.291429a354.816 354.816 0 0 0-670.500572 73.142857H68.096zM859.209143 585.142857h96.694857a447.926857 447.926857 0 0 1-93.988571 209.554286l149.211428 149.211428a14.628571 14.628571 0 0 1 0 20.626286l-46.592 46.518857a14.628571 14.628571 0 0 1-20.699428 0l-149.211429-149.138285A450.048 450.048 0 0 1 86.528 658.285714H188.708571a354.742857 354.742857 0 0 0 670.500572-73.142857zM408.649143 569.490286l62.976-105.033143L571.977143 665.014857a54.857143 54.857143 0 0 0 99.986286-4.169143L727.04 522.971429h282.331429a14.628571 14.628571 0 0 0 14.628571-14.628572v-65.828571a14.628571 14.628571 0 0 0-14.628571-14.628572H699.830857a54.857143 54.857143 0 0 0-50.980571 34.450286l-31.963429 80.018286-92.964571-186.002286a54.857143 54.857143 0 0 0-96.109715-3.657143L338.797714 501.028571H14.628571a14.628571 14.628571 0 0 0-14.628571 14.628572v65.828571c0 8.045714 6.582857 14.628571 14.628571 14.628572h346.916572a54.857143 54.857143 0 0 0 47.104-26.624zM68.022857 438.857143a449.974857 449.974857 0 0 1 869.522286-73.142857H835.291429a354.816 354.816 0 0 0-670.500572 73.142857H68.096zM859.209143 585.142857h96.694857a447.926857 447.926857 0 0 1-93.988571 209.554286l149.211428 149.211428a14.628571 14.628571 0 0 1 0 20.626286l-46.592 46.518857a14.628571 14.628571 0 0 1-20.699428 0l-149.211429-149.138285A450.048 450.048 0 0 1 86.528 658.285714H188.708571a354.742857 354.742857 0 0 0 670.500572-73.142857zM408.649143 569.490286l62.976-105.033143L571.977143 665.014857a54.857143 54.857143 0 0 0 99.986286-4.169143L727.04 522.971429h282.331429a14.628571 14.628571 0 0 0 14.628571-14.628572v-65.828571a14.628571 14.628571 0 0 0-14.628571-14.628572H699.830857a54.857143 54.857143 0 0 0-50.980571 34.450286l-31.963429 80.018286-92.964571-186.002286a54.857143 54.857143 0 0 0-96.109715-3.657143L338.797714 501.028571H14.628571a14.628571 14.628571 0 0 0-14.628571 14.628572v65.828571c0 8.045714 6.582857 14.628571 14.628571 14.628572h346.916572a54.857143 54.857143 0 0 0 47.104-26.624z" /></svg>