<?xml version="1.0" standalone="no"?><!DOCTYPE svg PUBLIC "-//W3C//DTD SVG 1.1//EN" "http://www.w3.org/Graphics/SVG/1.1/DTD/svg11.dtd"><svg class="icon" width="200px" height="200.00px" viewBox="0 0 1024 1024" version="1.1" xmlns="http://www.w3.org/2000/svg"><path d="M708.022857 969.289143a14.336 14.336 0 0 0 19.017143 7.460571A512.073143 512.073143 0 1 0 0 512a512.073143 512.073143 0 0 0 296.96 464.749714c7.314286 3.437714 15.872 0 19.017143-7.460571l25.965714-60.562286a15.067429 15.067429 0 0 0-7.533714-19.456 416.914286 416.914286 0 1 1 355.181714 0 15.067429 15.067429 0 0 0-7.533714 19.456l25.892571 60.562286zM402.505143 767.561143a14.043429 14.043429 0 0 1-19.090286 7.314286 292.571429 292.571429 0 1 1 257.170286 0 14.043429 14.043429 0 0 1-19.017143-7.314286l-25.965714-60.562286a15.506286 15.506286 0 0 1 7.387428-19.748571 197.485714 197.485714 0 1 0-181.979428 0 15.506286 15.506286 0 0 1 7.387428 19.748571l-25.892571 60.562286zM585.142857 512a72.996571 72.996571 0 0 1-25.6 55.588571v332.068572L585.142857 1024H438.857143l25.6-124.342857V567.588571A73.142857 73.142857 0 1 1 585.142857 512z" /></svg>