<?xml version="1.0" standalone="no"?><!DOCTYPE svg PUBLIC "-//W3C//DTD SVG 1.1//EN" "http://www.w3.org/Graphics/SVG/1.1/DTD/svg11.dtd"><svg class="icon" width="200px" height="200.00px" viewBox="0 0 1024 1024" version="1.1" xmlns="http://www.w3.org/2000/svg"><path d="M219.428571 62.171429A157.257143 157.257143 0 0 0 62.171429 219.428571v585.142858A157.257143 157.257143 0 0 0 219.428571 961.828571h585.142858A157.257143 157.257143 0 0 0 961.828571 804.571429V453.485714a25.6 25.6 0 0 0-25.6-25.6h-43.885714a25.6 25.6 0 0 0-25.6 25.6V804.571429c0 34.377143-27.794286 62.171429-62.171428 62.171428H219.428571a62.171429 62.171429 0 0 1-62.171428-62.171428V219.428571c0-34.377143 27.794286-62.171429 62.171428-62.171428h277.942858a25.6 25.6 0 0 0 25.6-25.6v-43.885714A25.6 25.6 0 0 0 497.371429 62.171429H219.428571zM840.411429 116.297143L430.372571 526.482286l-18.432 62.976a18.285714 18.285714 0 0 0 22.674286 22.674285l62.976-18.432L907.702857 183.588571a14.628571 14.628571 0 0 0 0-20.699428l-46.518857-46.518857a14.628571 14.628571 0 0 0-20.699429 0z" /></svg>