<svg class="icon" width="200px" height="200.00px" viewBox="0 0 1024 1024" version="1.1" xmlns="http://www.w3.org/2000/svg"><path  d="M548.580206 841.142857v46.372572a73.142857 73.142857 0 0 1-28.013715 136.045714L512.008777 1024a73.142857 73.142857 0 0 1-36.571428-136.484571V841.142857h73.142857zM877.723063 73.142857a73.142857 73.142857 0 0 1 36.571428 136.484572V351.817143l-146.285714 73.142857v174.226286l146.285714 73.142857v142.116571a73.142857 73.142857 0 0 1-28.013714 136.045715L877.723063 950.857143a73.142857 73.142857 0 0 1-36.571429-136.484572V717.458286l-94.208-47.104L512.008777 804.571429 277.07392 670.354286 182.86592 717.458286v96.914285a73.142857 73.142857 0 0 1-28.013714 136.045715L146.294491 950.857143a73.142857 73.142857 0 0 1-36.571428-136.484572V672.182857l146.285714-73.142857V424.886857l-146.285714-73.142857V209.627429a73.142857 73.142857 0 1 1 73.142857 0v96.914285l94.208 47.104L512.008777 219.428571l234.934857 134.217143 94.208-47.104V209.627429A73.142857 73.142857 0 0 1 877.723063 73.142857zM512.008777 328.923429L351.094491 420.864v182.272L512.008777 695.076571l160.914286-91.940571V420.864L512.008777 328.923429zM950.86592 438.857143a73.142857 73.142857 0 0 1 8.557714 145.773714L950.86592 585.142857a73.142857 73.142857 0 0 1-63.341714-36.571428h-64.658286v-73.142858h64.658286A73.142857 73.142857 0 0 1 950.86592 438.857143zM73.151634 438.857143c24.064 0 45.348571 11.629714 58.733715 29.549714l4.608 7.021714h64.658285v73.142858h-64.658285A73.142857 73.142857 0 1 1 73.151634 438.857143z m438.857143-438.857143a73.142857 73.142857 0 0 1 36.571429 136.484571V182.857143h-73.142857v-46.372572A73.142857 73.142857 0 0 1 512.008777 0z" /></svg>