<?xml version="1.0" standalone="no"?><!DOCTYPE svg PUBLIC "-//W3C//DTD SVG 1.1//EN" "http://www.w3.org/Graphics/SVG/1.1/DTD/svg11.dtd"><svg class="icon" width="200px" height="200.00px" viewBox="0 0 1024 1024" version="1.1" xmlns="http://www.w3.org/2000/svg"><path d="M402.228253 0C624.404514 0 804.456506 114.598486 804.456506 255.963434v231.390944l219.397229 93.097557v193.800886c0 51.777746-22.305385 115.768604-78.251678 166.229967-26.473932 23.98743-61.431224 43.221254-87.173832 55.873161a666.016855 666.016855 0 0 1-44.025711 19.599486l-20.915869 7.971433-5.704328-2.193973-2.193972-0.731324a672.818169 672.818169 0 0 1-57.04328-24.572489 473.386088 473.386088 0 0 1-61.650621-35.834881C596.175404 1000.085702 503.589773 1023.853735 402.228253 1023.853735 180.051993 1023.853735 0 909.255249 0 767.890301v-511.926867C0 114.598486 180.051993 0 402.228253 0zM95.072133 677.206113v90.684188c0 26.912727 17.332381 64.868447 73.790601 100.776461 55.361234 35.249821 137.562063 60.114841 233.365519 60.114841 75.911441 0 143.339523-15.650336 195.629196-39.637766a217.715184 217.715184 0 0 1-34.737895-114.891016v-27.644051a602.75732 602.75732 0 0 1-160.891301 21.281531c-123.154978 0-233.365519-35.249821-307.15612-90.684188z m698.414512-91.269247L658.191687 643.345808v130.907013c0 25.815741 11.554921 63.844594 46.804742 95.657192 7.678903 6.874447 17.186116 13.748893 27.570919 20.257677a422.485931 422.485931 0 0 0 49.583773 26.473933l11.335524 5.046136a573.431224 573.431224 0 0 0 23.036709-10.677332c23.621768-11.554921 48.925582-26.181403 65.380374-41.100414 35.322954-31.812598 46.877875-69.841451 46.877875-95.657192v-130.907013l-135.294958-57.408942zM709.384374 421.24268C635.593772 476.677046 525.383231 511.926868 402.228253 511.926868c-123.154978 0-233.365519-35.249821-307.15612-90.684188V511.926868c0 26.912727 17.332381 64.868447 73.790601 100.77646 55.361234 35.249821 137.562063 60.114841 233.365519 60.114841a494.375089 494.375089 0 0 0 160.891301-25.742608v-66.623626l145.899158-61.943151A65.672904 65.672904 0 0 0 709.384374 511.926868V421.24268zM402.228253 95.072133c-95.803457 0-178.004285 24.865019-233.365519 60.11484C112.404514 191.094986 95.072133 229.050707 95.072133 255.963434c0 26.912727 17.332381 64.868447 73.790601 100.77646 55.361234 35.249821 137.562063 60.114841 233.365519 60.114841 95.803457 0 178.004285-24.865019 233.365519-60.114841C692.051993 320.831881 709.384374 282.876161 709.384374 255.963434c0-26.912727-17.332381-64.868447-73.790602-100.776461C580.232538 119.937152 498.03171 95.072133 402.228253 95.072133z" /></svg>