<svg class="icon" width="200px" height="200.00px" viewBox="0 0 1024 1024" version="1.1" xmlns="http://www.w3.org/2000/svg"><path  d="M273.042286 73.142857a18.285714 18.285714 0 0 1 18.285714 18.285714v841.142858a18.285714 18.285714 0 0 1-14.043429 17.773714L273.115429 950.857143h-58.514286a18.285714 18.285714 0 0 1-18.285714-18.285714l-0.073143-702.390858L29.622857 362.203429a18.212571 18.212571 0 0 1-8.777143 3.803428H16.164571A18.285714 18.285714 0 0 1 0 347.940571v-74.605714a18.285714 18.285714 0 0 1 6.948571-14.336L236.251429 77.092571A18.285714 18.285714 0 0 1 247.661714 73.142857h25.380572z m449.828571 452.973714a18.285714 18.285714 0 0 1 16.091429 9.581715l209.92 388.096a18.285714 18.285714 0 0 1-7.387429 24.795428l-4.242286 1.609143-4.461714 0.585143h-66.56a18.285714 18.285714 0 0 1-16.091428-9.581714l-48.274286-89.088H570.294857l-47.542857 89.014857a18.285714 18.285714 0 0 1-11.117714 8.996571l-4.973715 0.658286h-66.267428a18.285714 18.285714 0 0 1-16.091429-26.916571l207.579429-388.096a18.285714 18.285714 0 0 1 16.091428-9.654858h74.825143z m-37.302857 110.811429l-64.365714 120.100571h129.243428l-64.950857-120.100571z m247.149714-563.712a18.285714 18.285714 0 0 1 18.285715 18.285714v54.272a18.285714 18.285714 0 0 1-7.314286 14.628572L619.300571 406.235429h313.344a18.285714 18.285714 0 0 1 18.285715 18.285714v58.514286a18.285714 18.285714 0 0 1-14.116572 17.846857l-4.169143 0.512H465.042286a18.285714 18.285714 0 0 1-18.285715-18.285715v-56.32a18.285714 18.285714 0 0 1 7.314286-14.628571l321.828572-244.004571H457.142857a18.285714 18.285714 0 0 1-17.773714-14.043429L438.857143 150.016v-58.514286A18.285714 18.285714 0 0 1 457.142857 73.142857h475.574857z" /></svg>