<svg class="icon" width="200px" height="200.00px" viewBox="0 0 1024 1024" version="1.1" xmlns="http://www.w3.org/2000/svg"><path  d="M1024.002926 512a73.142857 73.142857 0 0 1-64.585143 72.630857L950.860069 585.142857a72.923429 72.923429 0 0 1-52.809143-22.528H800.185783a290.962286 290.962286 0 0 1-50.468572 119.954286l55.149715 55.003428a109.714286 109.714286 0 0 1 46.884571 212.772572L841.145783 950.857143a109.714286 109.714286 0 0 1-103.570286-146.066286l-55.003428-55.003428a291.108571 291.108571 0 0 1-123.026286 50.980571v94.500571a73.142857 73.142857 0 0 1-38.985143 128.219429L512.002926 1024a73.142857 73.142857 0 0 1-47.542857-128.731429v-94.573714a291.035429 291.035429 0 0 1-119.369143-48.347428l-57.124572 57.051428a109.714286 109.714286 0 0 1-94.573714 140.946286L182.860069 950.857143a109.714286 109.714286 0 1 1 40.813714-211.602286l53.174857-53.174857a291.108571 291.108571 0 0 1-53.028571-123.465143H125.954926a72.923429 72.923429 0 0 1-44.032 21.942857L73.145783 585.142857a73.142857 73.142857 0 1 1 58.075428-117.613714h91.574858a291.035429 291.035429 0 0 1 51.419428-126.098286l-55.003428-55.003428a109.056 109.056 0 0 1-23.771429 5.412571L182.860069 292.571429a109.714286 109.714286 0 1 1 103.570285-73.362286l55.076572 55.003428a291.035429 291.035429 0 0 1 122.953143-50.907428V128.731429a73.142857 73.142857 0 1 1 95.085714 0v94.573714a291.108571 291.108571 0 0 1 126.537143 53.540571l53.174857-53.174857a109.714286 109.714286 0 1 1 112.420571 68.388572L841.145783 292.571429a109.714286 109.714286 0 0 1-31.670857-4.608l-57.124572 57.051428c24.868571 35.84 41.984 77.531429 48.859429 122.514286h91.574857A73.142857 73.142857 0 0 1 1024.002926 512z m-182.857143 292.571429a36.571429 36.571429 0 1 0 0 73.142857 36.571429 36.571429 0 0 0 0-73.142857z m-658.285714 0a36.571429 36.571429 0 1 0 0 73.142857 36.571429 36.571429 0 0 0 0-73.142857zM512.002926 314.514286l-12.434286 0.365714a197.485714 197.485714 0 0 0 0 394.24L512.002926 709.485714l12.434285-0.365714a197.485714 197.485714 0 0 0 0-394.24L512.002926 314.514286zM512.002926 438.857143a73.142857 73.142857 0 1 1 0 146.285714 73.142857 73.142857 0 0 1 0-146.285714zM182.860069 146.285714a36.571429 36.571429 0 1 0 0 73.142857 36.571429 36.571429 0 0 0 0-73.142857z m658.285714 0l-6.582857 0.585143a36.571429 36.571429 0 0 0 0 71.972572L841.145783 219.428571l6.582857-0.585142a36.571429 36.571429 0 0 0 0-71.972572L841.145783 146.285714z" /></svg>