<?xml version="1.0" standalone="no"?><!DOCTYPE svg PUBLIC "-//W3C//DTD SVG 1.1//EN" "http://www.w3.org/Graphics/SVG/1.1/DTD/svg11.dtd"><svg class="icon" width="200px" height="200.00px" viewBox="0 0 1024 1024" version="1.1" xmlns="http://www.w3.org/2000/svg"><path d="M512 0l438.857143 181.101714v378.806857c0 90.550857-40.594286 209.554286-150.162286 305.590858C697.490286 956.050286 512 1024 512 1024s-185.490286-67.949714-288.694857-158.500571C113.737143 769.462857 73.142857 650.459429 73.142857 559.908571V181.101714L512 0z m0 102.838857l-343.771429 141.897143V464.457143h161.426286l60.342857-108.690286a73.142857 73.142857 0 0 1 63.926857-37.595428H585.142857l50.468572 65.682285a18.285714 18.285714 0 0 1-14.482286 29.403429H488.374857a36.571429 36.571429 0 0 0-31.963428 18.797714L385.609143 559.542857H168.228571c0 64 29.110857 156.818286 117.76 234.496 41.545143 36.425143 104.155429 71.606857 161.353143 98.889143 24.868571 11.922286 47.469714 21.650286 64.658286 28.818286 17.188571-7.168 39.716571-16.896 64.658286-28.818286 57.197714-27.282286 119.808-62.464 161.353143-98.889143 88.649143-77.677714 117.76-170.496 117.76-234.130286V533.942857H694.345143l-60.342857 108.617143a73.142857 73.142857 0 0 1-63.926857 37.668571H438.857143l-50.468572-65.682285A18.285714 18.285714 0 0 1 402.870857 585.142857h132.754286a36.571429 36.571429 0 0 0 31.963428-18.797714L638.390857 438.857143H855.771429V244.736L512 102.838857z" /></svg>