<svg class="icon" width="200px" height="200.00px" viewBox="0 0 1024 1024" version="1.1" xmlns="http://www.w3.org/2000/svg"><path  d="M724.699429 0a14.628571 14.628571 0 0 1 11.117714 5.12l211.529143 246.784a14.628571 14.628571 0 0 1 3.510857 9.508571V987.428571a36.571429 36.571429 0 0 1-29.988572 35.986286L914.285714 1024h-804.571428a36.571429 36.571429 0 0 1-36.571429-36.571429V36.571429a36.571429 36.571429 0 0 1 36.571429-36.571429h614.985143zM601.234286 95.085714H168.228571v833.828572h687.542858V351.085714H615.862857a14.628571 14.628571 0 0 1-14.628571-14.628571V95.085714zM394.605714 370.029714L516.388571 491.812571l111.177143-111.177142a14.628571 14.628571 0 0 1 20.772572 0l46.518857 46.518857a14.628571 14.628571 0 0 1 0 20.699428l-111.177143 111.177143 100.571429 100.571429a14.628571 14.628571 0 0 1 0 20.699428l-46.518858 46.592-3.803428 2.706286-4.388572 1.389714h-4.388571a14.628571 14.628571 0 0 1-8.118857-4.096L516.388571 626.249143l-111.177142 111.177143-3.803429 2.779428-4.315429 1.389715h-4.388571a14.628571 14.628571 0 0 1-8.192-4.096l-46.518857-46.592a14.628571 14.628571 0 0 1 0-20.699429l111.177143-111.177143-121.782857-121.782857a14.628571 14.628571 0 0 1 0-20.699429l46.518857-46.518857a14.628571 14.628571 0 0 1 8.118857-4.169143h4.461714a14.628571 14.628571 0 0 1 8.118857 4.169143zM696.32 109.714286v146.285714h127.268571l-127.268571-146.285714z" /></svg>