<?xml version="1.0" standalone="no"?><!DOCTYPE svg PUBLIC "-//W3C//DTD SVG 1.1//EN" "http://www.w3.org/Graphics/SVG/1.1/DTD/svg11.dtd"><svg class="icon" width="200px" height="200.00px" viewBox="0 0 1024 1024" version="1.1" xmlns="http://www.w3.org/2000/svg"><path d="M362.057143 0c8.045714 0 14.628571 6.582857 14.628571 14.628571V73.142857h270.628572V14.628571c0-8.045714 6.582857-14.628571 14.628571-14.628571h65.828572c8.045714 0 14.628571 6.582857 14.628571 14.628571V73.142857h171.885714a36.571429 36.571429 0 0 1 36.571429 36.571429v314.514285a14.628571 14.628571 0 0 1-14.628572 14.628572h-65.828571a14.628571 14.628571 0 0 1-14.628571-14.628572v-47.542857H168.228571v479.085715h256c8.045714 0 14.628571 6.582857 14.628572 14.628571v65.828571a14.628571 14.628571 0 0 1-14.628572 14.628572H109.714286a36.571429 36.571429 0 0 1-36.571429-36.571429v-804.571428a36.571429 36.571429 0 0 1 36.571429-36.571429h171.885714V14.628571c0-8.045714 6.582857-14.628571 14.628571-14.628571h65.828572z m285.257143 168.228571h-270.628572v36.571429a14.628571 14.628571 0 0 1-14.628571 14.628571h-65.828572a14.628571 14.628571 0 0 1-14.628571-14.628571v-36.571429H168.228571v113.371429h687.542858V168.228571h-113.371429v36.571429a14.628571 14.628571 0 0 1-14.628571 14.628571h-65.828572a14.628571 14.628571 0 0 1-14.628571-14.628571v-36.571429zM720.457143 672.914286c0-8.045714 6.582857-14.628571 14.628571-14.628572h65.828572c8.045714 0 14.628571 6.582857 14.628571 14.628572v47.542857h47.542857c8.045714 0 14.628571 6.582857 14.628572 14.628571v65.828572a14.628571 14.628571 0 0 1-14.628572 14.628571h-106.057143a36.571429 36.571429 0 0 1-36.571428-36.571428V672.914286zM768 1024a256 256 0 1 1 0-512 256 256 0 0 1 0 512z m0-95.085714a160.914286 160.914286 0 1 0 0-321.828572 160.914286 160.914286 0 0 0 0 321.828572zM362.057143 0c8.045714 0 14.628571 6.582857 14.628571 14.628571V73.142857h270.628572V14.628571c0-8.045714 6.582857-14.628571 14.628571-14.628571h65.828572c8.045714 0 14.628571 6.582857 14.628571 14.628571V73.142857h171.885714a36.571429 36.571429 0 0 1 36.571429 36.571429v314.514285a14.628571 14.628571 0 0 1-14.628572 14.628572h-65.828571a14.628571 14.628571 0 0 1-14.628571-14.628572v-47.542857H168.228571v479.085715h256c8.045714 0 14.628571 6.582857 14.628572 14.628571v65.828571a14.628571 14.628571 0 0 1-14.628572 14.628572H109.714286a36.571429 36.571429 0 0 1-36.571429-36.571429v-804.571428a36.571429 36.571429 0 0 1 36.571429-36.571429h171.885714V14.628571c0-8.045714 6.582857-14.628571 14.628571-14.628571h65.828572z m285.257143 168.228571h-270.628572v36.571429a14.628571 14.628571 0 0 1-14.628571 14.628571h-65.828572a14.628571 14.628571 0 0 1-14.628571-14.628571v-36.571429H168.228571v113.371429h687.542858V168.228571h-113.371429v36.571429a14.628571 14.628571 0 0 1-14.628571 14.628571h-65.828572a14.628571 14.628571 0 0 1-14.628571-14.628571v-36.571429zM720.457143 672.914286c0-8.045714 6.582857-14.628571 14.628571-14.628572h65.828572c8.045714 0 14.628571 6.582857 14.628571 14.628572v47.542857h47.542857c8.045714 0 14.628571 6.582857 14.628572 14.628571v65.828572a14.628571 14.628571 0 0 1-14.628572 14.628571h-106.057143a36.571429 36.571429 0 0 1-36.571428-36.571428V672.914286zM768 1024a256 256 0 1 1 0-512 256 256 0 0 1 0 512z m0-95.085714a160.914286 160.914286 0 1 0 0-321.828572 160.914286 160.914286 0 0 0 0 321.828572z" /></svg>