<?xml version="1.0" standalone="no"?><!DOCTYPE svg PUBLIC "-//W3C//DTD SVG 1.1//EN" "http://www.w3.org/Graphics/SVG/1.1/DTD/svg11.dtd"><svg class="icon" width="200px" height="200.00px" viewBox="0 0 1024 1024" version="1.1" xmlns="http://www.w3.org/2000/svg"><path d="M292.571429 237.714286A18.285714 18.285714 0 0 1 310.857143 219.428571h402.285714a18.285714 18.285714 0 0 1 18.285714 18.285715v58.514285a18.285714 18.285714 0 0 1-18.285714 18.285715h-402.285714A18.285714 18.285714 0 0 1 292.571429 296.228571v-58.514285zM292.571429 457.142857A18.285714 18.285714 0 0 1 310.857143 438.857143h402.285714a18.285714 18.285714 0 0 1 18.285714 18.285714v58.514286a18.285714 18.285714 0 0 1-18.285714 18.285714h-402.285714A18.285714 18.285714 0 0 1 292.571429 515.657143v-58.514286zM493.714286 658.285714a18.285714 18.285714 0 0 1 18.285714 18.285715v58.514285a18.285714 18.285714 0 0 1-18.285714 18.285715h-182.857143a18.285714 18.285714 0 0 1-18.285714-18.285715v-58.514285A18.285714 18.285714 0 0 1 310.857143 658.285714h182.857143zM877.714286 0a73.142857 73.142857 0 0 1 73.142857 73.142857v877.714286a73.142857 73.142857 0 0 1-73.142857 73.142857H146.285714a73.142857 73.142857 0 0 1-73.142857-73.142857V73.142857a73.142857 73.142857 0 0 1 73.142857-73.142857h731.428572z m-36.571429 95.085714h-658.285714a14.628571 14.628571 0 0 0-14.628572 14.628572v804.571428c0 8.045714 6.582857 14.628571 14.628572 14.628572h658.285714a14.628571 14.628571 0 0 0 14.628572-14.628572v-804.571428a14.628571 14.628571 0 0 0-14.628572-14.628572z" /></svg>