<svg class="icon" width="200px" height="200.00px" viewBox="0 0 1024 1024" version="1.1" xmlns="http://www.w3.org/2000/svg"><path  d="M987.428571 0a36.571429 36.571429 0 0 1 36.571429 36.571429v266.971428a10.971429 10.971429 0 0 1-10.971429 10.971429H95.085714v614.4h207.725715a10.971429 10.971429 0 0 1 7.826285 3.218285l72.996572 73.142858a10.971429 10.971429 0 0 1-7.826286 18.724571H36.571429a36.571429 36.571429 0 0 1-36.571429-36.571429V36.571429A36.571429 36.571429 0 0 1 36.571429 0h950.857142z m-196.754285 438.857143c7.533714 0 12.8 7.314286 10.459428 14.409143l-186.441143 563.2a10.971429 10.971429 0 0 1-10.386285 7.533714H527.213714a10.971429 10.971429 0 0 1-10.459428-14.409143l186.514285-563.2A10.971429 10.971429 0 0 1 713.581714 438.857143h77.092572z m23.113143 83.236571a6.582857 6.582857 0 0 1 8.557714-4.096l2.340571 1.462857 195.510857 195.510858a6.582857 6.582857 0 0 1 1.462858 7.168l-1.462858 2.194285-213.723428 213.723429-1.170286 0.731428-1.462857 0.292572h-117.028571a6.582857 6.582857 0 0 1-6.144-8.923429l1.462857-2.340571 208.237714-208.164572L785.115429 614.4l-0.950858-1.755429 0.073143-1.974857 29.549715-88.576zM627.858286 512c5.851429 0 8.777143 7.094857 4.681143 11.264L424.228571 731.428571l105.252572 105.252572a3.657143 3.657143 0 0 1 0.877714 3.730286l-29.549714 88.649142a6.582857 6.582857 0 0 1-10.898286 2.56l-195.510857-195.510857a6.582857 6.582857 0 0 1 0-9.289143l214.308571-214.235428 1.316572-0.512L627.858286 512zM928.914286 95.085714H95.085714V219.428571h833.828572V95.085714z" /></svg>