<svg class="icon" width="200px" height="200.00px" viewBox="0 0 1024 1024" version="1.1" xmlns="http://www.w3.org/2000/svg"><path  d="M544.914286 0c8.045714 0 14.628571 6.582857 14.628571 14.628571v994.742858a14.628571 14.628571 0 0 1-10.752 14.116571L544.914286 1024h-65.828572a14.628571 14.628571 0 0 1-14.628571-14.628571V14.628571c0-8.045714 6.582857-14.628571 14.628571-14.628571h65.828572zM672.914286 950.857143a14.628571 14.628571 0 0 1-14.116572-10.752L658.285714 936.228571v-65.828571a14.628571 14.628571 0 0 1 10.752-14.116571L672.914286 855.771429h182.857143a73.142857 73.142857 0 0 0 72.630857-64.585143l0.512-8.557715V731.428571a14.628571 14.628571 0 0 1 10.752-14.116571L943.542857 716.8h65.828572a14.628571 14.628571 0 0 1 14.116571 10.752L1024 731.428571v73.142858a146.285714 146.285714 0 0 1-135.314286 145.92L877.714286 950.857143H672.914286zM146.285714 950.857143a146.285714 146.285714 0 0 1-145.92-135.314286L0 804.571429V219.428571a146.285714 146.285714 0 0 1 135.314286-145.92L146.285714 73.142857h204.8a14.628571 14.628571 0 0 1 14.116572 10.752L365.714286 87.771429v65.828571l-0.512 3.876571a14.628571 14.628571 0 0 1-10.24 10.24L351.085714 168.228571H168.228571a73.142857 73.142857 0 0 0-72.630857 64.585143L95.085714 241.371429v541.257142a73.142857 73.142857 0 0 0 64.585143 72.630858l8.557714 0.512h182.857143a14.628571 14.628571 0 0 1 14.116572 10.752L365.714286 870.4v65.828571a14.628571 14.628571 0 0 1-10.752 14.116572L351.085714 950.857143H146.285714z m797.257143-329.142857a14.628571 14.628571 0 0 1-14.628571-14.628572v-58.514285c0-8.045714 6.582857-14.628571 14.628571-14.628572h65.828572c8.045714 0 14.628571 6.582857 14.628571 14.628572v58.514285a14.628571 14.628571 0 0 1-10.752 14.116572L1009.371429 621.714286h-65.828572z m65.828572-270.628572a14.628571 14.628571 0 0 1 14.116571 10.752L1024 365.714286v58.514285a14.628571 14.628571 0 0 1-10.752 14.116572L1009.371429 438.857143h-65.828572a14.628571 14.628571 0 0 1-14.116571-10.752L928.914286 424.228571V365.714286a14.628571 14.628571 0 0 1 10.752-14.116572L943.542857 351.085714h65.828572z m-65.828572-95.085714a14.628571 14.628571 0 0 1-14.116571-10.752L928.914286 241.371429l-0.512-8.557715a73.142857 73.142857 0 0 0-64.073143-64.073143L855.771429 168.228571H672.914286a14.628571 14.628571 0 0 1-14.116572-10.752L658.285714 153.6v-65.828571a14.628571 14.628571 0 0 1 10.752-14.116572L672.914286 73.142857H877.714286a146.285714 146.285714 0 0 1 145.92 135.314286L1024 219.428571v21.942858a14.628571 14.628571 0 0 1-10.752 14.116571L1009.371429 256h-65.828572z" /></svg>