<svg class="icon" width="200px" height="185.84px" viewBox="0 0 1102 1024" version="1.1" xmlns="http://www.w3.org/2000/svg"><path  d="M145.959385 331.539692l90.584615 543.980308a55.138462 55.138462 0 0 0 46.473846 45.528615l7.955692 0.551385h520.822154a55.138462 55.138462 0 0 0 52.460308-38.360615l1.890462-7.719385 90.663384-543.980308A19.692308 19.692308 0 0 1 976.265846 315.076923h63.803077a19.692308 19.692308 0 0 1 19.692308 19.692308v1.575384l-92.632616 556.032a157.538462 157.538462 0 0 1-142.572307 131.15077l-12.760616 0.472615H290.973538a157.538462 157.538462 0 0 1-152.812307-119.177846l-2.599385-12.445539L43.323077 337.92a19.692308 19.692308 0 0 1 16.147692-22.685538l1.575385-0.157539L126.503385 315.076923a19.692308 19.692308 0 0 1 19.456 16.462769zM794.781538 680.566154l-10.555076 63.015384a19.692308 19.692308 0 0 1-19.377231 16.46277H337.841231a19.692308 19.692308 0 0 1-19.377231-16.46277l-10.555077-63.015384a19.692308 19.692308 0 0 1 19.456-22.921846h448.039385a19.692308 19.692308 0 0 1 19.456 22.921846z m32.768-196.923077l-10.476307 63.015385a19.692308 19.692308 0 0 1-19.456 16.462769H305.073231a19.692308 19.692308 0 0 1-19.456-16.462769l-10.476308-63.015385a19.692308 19.692308 0 0 1 19.377231-22.921846h513.732923a19.692308 19.692308 0 0 1 19.377231 22.921846zM683.480615 13.942154l44.504616 44.504615a19.692308 19.692308 0 0 1 0 27.884308L640.393846 174.08l87.670154 87.670154a19.692308 19.692308 0 0 1 0 27.884308l-44.504615 44.504615a19.692308 19.692308 0 0 1-27.884308 0L567.926154 246.547692 480.177231 334.139077a19.692308 19.692308 0 0 1-27.884308 0l-44.504615-44.504615a19.692308 19.692308 0 0 1 0-27.884308L495.458462 174.08 407.788308 86.331077a19.692308 19.692308 0 0 1 0-27.884308l44.504615-44.504615a19.692308 19.692308 0 0 1 27.884308 0L567.926154 101.612308 655.596308 13.942154a19.692308 19.692308 0 0 1 27.884307 0z" /></svg>