<?xml version="1.0" standalone="no"?><!DOCTYPE svg PUBLIC "-//W3C//DTD SVG 1.1//EN" "http://www.w3.org/Graphics/SVG/1.1/DTD/svg11.dtd"><svg class="icon" width="200px" height="200.00px" viewBox="0 0 1024 1024" version="1.1" xmlns="http://www.w3.org/2000/svg"><path d="M292.571429 321.828571c0 10.093714 8.192 18.285714 18.285714 18.285715h146.285714a18.285714 18.285714 0 0 0 18.285714-18.285715v-58.514285a18.285714 18.285714 0 0 0-18.285714-18.285715h-146.285714A18.285714 18.285714 0 0 0 292.571429 263.314286v58.514285zM735.817143 541.257143a18.285714 18.285714 0 0 1-18.285714 18.285714H310.857143A18.285714 18.285714 0 0 1 292.571429 541.257143v-58.514286a18.285714 18.285714 0 0 1 18.285714-18.285714h406.674286a18.285714 18.285714 0 0 1 18.285714 18.285714v58.514286zM292.571429 760.685714c0 10.093714 8.192 18.285714 18.285714 18.285715h406.674286a18.285714 18.285714 0 0 0 18.285714-18.285715v-58.514285a18.285714 18.285714 0 0 0-18.285714-18.285715H310.857143A18.285714 18.285714 0 0 0 292.571429 702.171429v58.514285zM724.699429 0a14.628571 14.628571 0 0 1 11.117714 5.12l211.529143 246.784a14.628571 14.628571 0 0 1 3.510857 9.508571V1005.714286a18.285714 18.285714 0 0 1-18.285714 18.285714H109.714286a36.571429 36.571429 0 0 1-36.571429-36.571429V36.571429a36.571429 36.571429 0 0 1 36.571429-36.571429h614.985143zM601.234286 95.085714H168.228571v833.828572h687.542858V351.085714H615.862857a14.628571 14.628571 0 0 1-14.628571-14.628571V95.085714z m95.085714 14.628572v146.285714h127.268571l-127.268571-146.285714z" /></svg>