<svg class="icon" width="200px" height="200.00px" viewBox="0 0 1024 1024" version="1.1" xmlns="http://www.w3.org/2000/svg"><path  d="M544.914286 585.142857c8.045714 0 14.628571 6.582857 14.628571 14.628572v120.685714H680.228571c8.045714 0 14.628571 6.582857 14.628572 14.628571v65.828572a14.628571 14.628571 0 0 1-10.752 14.116571l-3.876572 0.512H559.542857v120.685714a14.628571 14.628571 0 0 1-10.752 14.116572L544.914286 950.857143h-65.828572a14.628571 14.628571 0 0 1-14.628571-14.628572v-120.685714H343.771429a14.628571 14.628571 0 0 1-14.628572-14.628571v-65.828572c0-8.045714 6.582857-14.628571 14.628572-14.628571h120.685714V599.771429c0-8.045714 6.582857-14.628571 14.628571-14.628572h65.828572z m369.371428-512a36.571429 36.571429 0 0 1 36.571429 36.571429v365.714285a36.571429 36.571429 0 0 1-29.988572 35.986286L914.285714 512h-804.571428a36.571429 36.571429 0 0 1-36.571429-36.571429v-365.714285a36.571429 36.571429 0 0 1 36.571429-36.571429h804.571428z m-58.514285 95.085714H168.228571v248.685715h687.542858V168.228571z" /></svg>