<?xml version="1.0" standalone="no"?><!DOCTYPE svg PUBLIC "-//W3C//DTD SVG 1.1//EN" "http://www.w3.org/Graphics/SVG/1.1/DTD/svg11.dtd"><svg class="icon" width="200px" height="200.00px" viewBox="0 0 1024 1024" version="1.1" xmlns="http://www.w3.org/2000/svg"><path d="M307.018606 379.318857l-58.075429 13.312A197.632 197.632 0 0 0 293.414034 782.628571h58.514286c8.045714 0 14.628571 6.582857 14.628571 14.628572v65.828571a14.628571 14.628571 0 0 1-14.628571 14.628572H293.414034a292.571429 292.571429 0 0 1-65.755428-577.755429 292.717714 292.717714 0 0 1 570.368 0A292.717714 292.717714 0 0 1 732.271177 877.714286h-58.514286a14.628571 14.628571 0 0 1-14.628571-14.628572v-65.828571c0-8.045714 6.582857-14.628571 14.628571-14.628572h58.514286a197.485714 197.485714 0 0 0 44.470857-389.997714l-58.075428-13.312-13.312-58.075428a197.632 197.632 0 0 0-385.024 0l-13.312 58.075428zM366.556891 610.816a14.628571 14.628571 0 0 1 24.941715-10.313143L465.299749 674.304V328.265143c0-8.045714 6.582857-14.628571 14.628571-14.628572h65.828571c8.045714 0 14.628571 6.582857 14.628572 14.628572v345.965714L634.186606 600.502857A14.628571 14.628571 0 0 1 659.12832 610.816v93.110857a14.628571 14.628571 0 0 1-4.315429 10.386286l-116.077714 116.077714a36.571429 36.571429 0 0 1-51.785143 0L370.945463 714.386286A14.628571 14.628571 0 0 1 366.556891 703.926857V610.816z" /></svg>