<?xml version="1.0" standalone="no"?><!DOCTYPE svg PUBLIC "-//W3C//DTD SVG 1.1//EN" "http://www.w3.org/Graphics/SVG/1.1/DTD/svg11.dtd"><svg class="icon" width="200px" height="186.69px" viewBox="0 0 1097 1024" version="1.1" xmlns="http://www.w3.org/2000/svg"><path d="M519.606857 73.142857a18.285714 18.285714 0 0 0-18.285714 18.285714V621.714286L409.6 529.993143a18.285714 18.285714 0 0 0-25.892571 0l-41.325715 41.398857a18.285714 18.285714 0 0 0 0 25.819429l193.536 193.609142a18.285714 18.285714 0 0 0 25.892572 0l193.536-193.609142a18.285714 18.285714 0 0 0 0-25.819429l-41.398857-41.398857a18.285714 18.285714 0 0 0-25.819429 0L596.406857 621.714286V91.428571a18.285714 18.285714 0 0 0-18.285714-18.285714h-58.514286zM131.949714 548.278857a18.285714 18.285714 0 0 0-18.285714-18.285714h-58.514286a18.285714 18.285714 0 0 0-18.285714 18.285714V950.857143a73.142857 73.142857 0 0 0 73.142857 73.142857h877.714286a73.142857 73.142857 0 0 0 73.142857-73.142857V548.278857a18.285714 18.285714 0 0 0-18.285714-18.285714h-58.514286a18.285714 18.285714 0 0 0-18.285714 18.285714V914.285714a14.628571 14.628571 0 0 1-14.628572 14.628572h-804.571428a14.628571 14.628571 0 0 1-14.628572-14.628572V548.278857z" /></svg>