<?xml version="1.0" standalone="no"?><!DOCTYPE svg PUBLIC "-//W3C//DTD SVG 1.1//EN" "http://www.w3.org/Graphics/SVG/1.1/DTD/svg11.dtd"><svg class="icon" width="200px" height="200.00px" viewBox="0 0 1024 1024" version="1.1" xmlns="http://www.w3.org/2000/svg"><path d="M365.714286 462.409143V579.291429l130.779428 130.779428a21.942857 21.942857 0 0 0 31.012572 0L658.285714 579.291429V462.409143a7.314286 7.314286 0 0 0-12.434285-5.12L559.542857 543.451429V380.342857a14.628571 14.628571 0 0 0-14.628571-14.628571h-65.828572a14.628571 14.628571 0 0 0-14.628571 14.628571v163.181714L378.148571 457.142857a7.314286 7.314286 0 0 0-12.434285 5.193143zM947.346286 251.904a14.628571 14.628571 0 0 1 3.510857 9.508571V987.428571a36.571429 36.571429 0 0 1-36.571429 36.571429h-804.571428a36.571429 36.571429 0 0 1-36.571429-36.571429V36.571429a36.571429 36.571429 0 0 1 36.571429-36.571429h614.985143a14.628571 14.628571 0 0 1 11.117714 5.12l211.529143 246.784zM168.228571 928.914286h687.542858V351.085714H615.862857a14.628571 14.628571 0 0 1-14.628571-14.628571V95.085714H168.228571v833.828572zM696.32 109.714286v146.285714h127.268571l-127.268571-146.285714zM365.714286 462.409143V579.291429l130.779428 130.779428a21.942857 21.942857 0 0 0 31.012572 0L658.285714 579.291429V462.409143a7.314286 7.314286 0 0 0-12.434285-5.12L559.542857 543.451429V380.342857a14.628571 14.628571 0 0 0-14.628571-14.628571h-65.828572a14.628571 14.628571 0 0 0-14.628571 14.628571v163.181714L378.148571 457.142857a7.314286 7.314286 0 0 0-12.434285 5.193143zM947.346286 251.904a14.628571 14.628571 0 0 1 3.510857 9.508571V987.428571a36.571429 36.571429 0 0 1-36.571429 36.571429h-804.571428a36.571429 36.571429 0 0 1-36.571429-36.571429V36.571429a36.571429 36.571429 0 0 1 36.571429-36.571429h614.985143a14.628571 14.628571 0 0 1 11.117714 5.12l211.529143 246.784zM168.228571 928.914286h687.542858V351.085714H615.862857a14.628571 14.628571 0 0 1-14.628571-14.628571V95.085714H168.228571v833.828572zM696.32 109.714286v146.285714h127.268571l-127.268571-146.285714z" /></svg>