<?xml version="1.0" standalone="no"?><!DOCTYPE svg PUBLIC "-//W3C//DTD SVG 1.1//EN" "http://www.w3.org/Graphics/SVG/1.1/DTD/svg11.dtd"><svg class="icon" width="200px" height="200.00px" viewBox="0 0 1024 1024" version="1.1" xmlns="http://www.w3.org/2000/svg"><path d="M305.444571 558.445714a18.285714 18.285714 0 0 1 0-25.819428l41.325715-41.325715a18.285714 18.285714 0 0 1 25.892571 0l88.722286 88.795429V307.2c0-8.045714 6.582857-14.628571 14.628571-14.628571h65.828572c8.045714 0 14.628571 6.582857 14.628571 14.628571v272.822857l88.795429-88.722286a18.285714 18.285714 0 0 1 25.892571 0l41.252572 41.325715a18.285714 18.285714 0 0 1 0 25.819428L548.352 722.797714c-21.942857 21.138286-56.685714 21.138286-78.628571 0L305.444571 558.445714zM512 1024A512 512 0 1 0 512 0a512 512 0 0 0 0 1024zM512 95.085714a416.914286 416.914286 0 1 1 0 833.828572A416.914286 416.914286 0 0 1 512 95.085714z" /></svg>