<?xml version="1.0" standalone="no"?><!DOCTYPE svg PUBLIC "-//W3C//DTD SVG 1.1//EN" "http://www.w3.org/Graphics/SVG/1.1/DTD/svg11.dtd"><svg class="icon" width="200px" height="200.00px" viewBox="0 0 1024 1024" version="1.1" xmlns="http://www.w3.org/2000/svg"><path d="M292.717714 337.481143a10.971429 10.971429 0 0 0 10.678857 13.604571h417.206858a10.971429 10.971429 0 0 0 10.678857-13.604571l-18.285715-73.142857a10.971429 10.971429 0 0 0-10.678857-8.338286H321.682286a10.971429 10.971429 0 0 0-10.678857 8.338286l-18.285715 73.142857zM261.632 461.824a10.971429 10.971429 0 0 1 10.678857-8.338286h479.378286a10.971429 10.971429 0 0 1 10.678857 8.338286l18.285714 73.142857a10.971429 10.971429 0 0 1-10.678857 13.604572H254.025143a10.971429 10.971429 0 0 1-10.678857-13.604572l18.285714-73.142857zM820.662857 73.142857a73.142857 73.142857 0 0 1 70.948572 55.369143L1024 658.285714v292.571429a73.142857 73.142857 0 0 1-73.142857 73.142857H73.142857a73.142857 73.142857 0 0 1-73.142857-73.142857V658.285714l132.388571-529.773714A73.142857 73.142857 0 0 1 203.337143 73.142857z m-544.182857 680.228572H95.085714v175.542857h833.828572v-175.542857h-181.394286l-12.068571 48.274285a18.285714 18.285714 0 0 1-17.773715 13.897143H306.322286a18.285714 18.285714 0 0 1-17.773715-13.897143l-12.068571-48.274285z m526.994286-585.142858h-582.948572L98.011429 658.285714H336.457143a18.285714 18.285714 0 0 1 17.700571 13.897143l8.630857 34.377143a18.285714 18.285714 0 0 0 17.773715 13.897143h262.875428a18.285714 18.285714 0 0 0 17.773715-13.897143l8.630857-34.377143A18.285714 18.285714 0 0 1 687.542857 658.285714h238.445714l-122.514285-490.057143z" /></svg>