<?xml version="1.0" standalone="no"?><!DOCTYPE svg PUBLIC "-//W3C//DTD SVG 1.1//EN" "http://www.w3.org/Graphics/SVG/1.1/DTD/svg11.dtd"><svg class="icon" width="200px" height="200.00px" viewBox="0 0 1024 1024" version="1.1" xmlns="http://www.w3.org/2000/svg"><path d="M292.571429 804.571429a73.142857 73.142857 0 1 0 146.285714 0 73.142857 73.142857 0 0 0-146.285714 0zM585.142857 804.571429a73.142857 73.142857 0 1 0 146.285714 0 73.142857 73.142857 0 0 0-146.285714 0zM292.571429 512a73.142857 73.142857 0 1 0 146.285714 0 73.142857 73.142857 0 0 0-146.285714 0zM585.142857 512a73.142857 73.142857 0 1 0 146.285714 0 73.142857 73.142857 0 0 0-146.285714 0zM292.571429 219.428571a73.142857 73.142857 0 1 0 146.285714 0 73.142857 73.142857 0 0 0-146.285714 0zM585.142857 219.428571a73.142857 73.142857 0 1 0 146.285714 0 73.142857 73.142857 0 0 0-146.285714 0z" /></svg>