<?xml version="1.0" standalone="no"?><!DOCTYPE svg PUBLIC "-//W3C//DTD SVG 1.1//EN" "http://www.w3.org/Graphics/SVG/1.1/DTD/svg11.dtd"><svg class="icon" width="200px" height="200.00px" viewBox="0 0 1024 1024" version="1.1" xmlns="http://www.w3.org/2000/svg"><path d="M321.755429 463.945143V91.428571a18.285714 18.285714 0 0 1 18.285714-18.285714h59.538286a18.285714 18.285714 0 0 1 18.285714 18.285714v841.142858a18.285714 18.285714 0 0 1-18.285714 18.285714H340.114286a18.285714 18.285714 0 0 1-18.285715-18.285714V560.054857H221.842286v42.276572c0 15.36-16.091429 25.307429-29.769143 18.432L11.410286 530.432a20.626286 20.626286 0 0 1 0-36.864l180.662857-90.331429a20.626286 20.626286 0 0 1 29.769143 18.432v42.276572H321.828571zM695.442286 950.857143a18.285714 18.285714 0 0 0 18.285714-18.285714V560.054857h88.429714v42.276572c0 15.36 16.091429 25.307429 29.769143 18.432l180.662857-90.331429a20.626286 20.626286 0 0 0 0-36.864l-180.662857-90.331429a20.626286 20.626286 0 0 0-29.842286 18.432v42.276572H713.728V91.428571a18.285714 18.285714 0 0 0-18.285714-18.285714h-59.611429a18.285714 18.285714 0 0 0-18.285714 18.285714v841.142858c0 10.093714 8.192 18.285714 18.285714 18.285714h59.611429z" /></svg>