<?xml version="1.0" standalone="no"?><!DOCTYPE svg PUBLIC "-//W3C//DTD SVG 1.1//EN" "http://www.w3.org/Graphics/SVG/1.1/DTD/svg11.dtd"><svg class="icon" width="200px" height="200.00px" viewBox="0 0 1024 1024" version="1.1" xmlns="http://www.w3.org/2000/svg"><path d="M487.648125 308.018311a18.282188 18.282188 0 0 1 16.380841-10.091768h68.814157c13.894463 0 22.669914 14.772008 16.088326 26.98451l-35.906218 66.32778h55.212209a18.282188 18.282188 0 0 1 15.357038 28.227698l-108.888714 168.196134a18.282188 18.282188 0 0 1-15.357038 8.336678H460.809872a18.282188 18.282188 0 0 1-16.38084-26.39948L485.673649 486.306212h-57.55233a18.282188 18.282188 0 0 1-16.38084-26.472608l75.907646-151.815293zM335.174673 840.468767A438.845651 438.845651 0 0 1 512 0a438.772522 438.772522 0 0 1 176.825327 840.468767l-6.581588 39.050754a172.583859 172.583859 0 0 1-340.560606 0l-6.50846-39.050754z m100.332651 23.401201a77.516479 77.516479 0 0 0 152.985352 0l0.219387-0.950674H435.214809l0.219386 0.950674z m-61.940055-110.424418l32.615424 14.406364h211.634614l32.615424-14.406364A343.778271 343.778271 0 0 0 512 95.06738a343.705143 343.705143 0 0 0-138.432731 658.37817zM487.648125 308.018311a18.282188 18.282188 0 0 1 16.380841-10.091768h68.814157c13.894463 0 22.669914 14.772008 16.088326 26.98451l-35.906218 66.32778h55.212209a18.282188 18.282188 0 0 1 15.357038 28.227698l-108.888714 168.196134a18.282188 18.282188 0 0 1-15.357038 8.336678H460.809872a18.282188 18.282188 0 0 1-16.38084-26.39948L485.673649 486.306212h-57.55233a18.282188 18.282188 0 0 1-16.38084-26.472608l75.907646-151.815293zM335.174673 840.468767A438.845651 438.845651 0 0 1 512 0a438.772522 438.772522 0 0 1 176.825327 840.468767l-6.581588 39.050754a172.583859 172.583859 0 0 1-340.560606 0l-6.50846-39.050754z m100.332651 23.401201a77.516479 77.516479 0 0 0 152.985352 0l0.219387-0.950674H435.214809l0.219386 0.950674z m-61.940055-110.424418l32.615424 14.406364h211.634614l32.615424-14.406364A343.778271 343.778271 0 0 0 512 95.06738a343.705143 343.705143 0 0 0-138.432731 658.37817z" /></svg>