<?xml version="1.0" standalone="no"?><!DOCTYPE svg PUBLIC "-//W3C//DTD SVG 1.1//EN" "http://www.w3.org/Graphics/SVG/1.1/DTD/svg11.dtd"><svg class="icon" width="200px" height="200.00px" viewBox="0 0 1024 1024" version="1.1" xmlns="http://www.w3.org/2000/svg"><path d="M877.714286 402.285714a365.714286 365.714286 0 0 0-731.428572 0V804.571429h95.085715V402.285714a270.628571 270.628571 0 0 1 541.257142 0V804.571429H877.714286V402.285714zM950.857143 892.342857a18.285714 18.285714 0 0 0-18.285714-18.285714H91.428571a18.285714 18.285714 0 0 0-18.285714 18.285714v58.514286c0 10.093714 8.192 18.285714 18.285714 18.285714h841.142858A18.285714 18.285714 0 0 0 950.857143 950.857143v-58.514286zM429.202286 510.098286a14.628571 14.628571 0 0 1-14.043429-18.797715l66.779429-224.841142A14.628571 14.628571 0 0 1 495.908571 256h120.32a7.314286 7.314286 0 0 1 6.875429 9.874286l-66.048 174.884571h44.617143a14.628571 14.628571 0 0 1 12.214857 22.747429L464.310857 688.347429a14.628571 14.628571 0 0 1-12.141714 6.509714h-20.845714a7.314286 7.314286 0 0 1-6.948572-9.728l60.708572-175.030857h-55.881143z" /></svg>