<?xml version="1.0" standalone="no"?><!DOCTYPE svg PUBLIC "-//W3C//DTD SVG 1.1//EN" "http://www.w3.org/Graphics/SVG/1.1/DTD/svg11.dtd"><svg class="icon" width="200px" height="186.69px" viewBox="0 0 1097 1024" version="1.1" xmlns="http://www.w3.org/2000/svg"><path d="M728.86701 25.016998a85.284389 85.284389 0 0 1 120.612313 0l186.660171 186.587029a85.284389 85.284389 0 0 1 0 120.685455l-611.619261 611.619261a25.599945 25.599945 0 0 1-18.13939 7.460555H135.313996a25.599945 25.599945 0 0 1-25.599945-25.599945V654.702506a25.599945 25.599945 0 0 1 7.533698-18.066247L728.86701 25.016998z m183.441892 296.59365l49.663894-49.663894-172.836201-172.836201-49.590751 49.737037 172.763058 172.763058zM204.799561 683.52073v172.763058h172.836201l467.381856-467.454998-172.763059-172.836201-467.381855 467.528141zM983.76932 856.283788a25.599945 25.599945 0 0 1 25.599946 25.599945v43.88562a25.599945 25.599945 0 0 1-25.599946 25.599945H533.064001l95.08551-95.08551h355.619809z" /></svg>