<?xml version="1.0" standalone="no"?><!DOCTYPE svg PUBLIC "-//W3C//DTD SVG 1.1//EN" "http://www.w3.org/Graphics/SVG/1.1/DTD/svg11.dtd"><svg class="icon" width="200px" height="200.00px" viewBox="0 0 1024 1024" version="1.1" xmlns="http://www.w3.org/2000/svg"><path d="M919.844571 135.168a212.187429 212.187429 0 0 0-299.885714 0l-387.949714 387.657143a138.825143 138.825143 0 0 0 0 196.461714 138.971429 138.971429 0 0 0 196.534857 0l261.12-261.046857a14.628571 14.628571 0 0 0 0-20.699429l-46.518857-46.518857a14.628571 14.628571 0 0 0-20.626286 0L361.325714 652.141714a43.885714 43.885714 0 0 1-62.098285-62.098285l387.876571-387.657143a117.028571 117.028571 0 0 1 165.522286 165.376l-387.876572 387.657143a190.244571 190.244571 0 0 1-268.946285 0 189.952 189.952 0 0 1 0-268.726858l209.481142-209.334857a14.628571 14.628571 0 0 0 0-20.699428l-46.592-46.518857a14.628571 14.628571 0 0 0-20.626285 0L128.585143 419.474286a284.964571 284.964571 0 0 0 0 403.163428 285.403429 285.403429 0 0 0 403.382857 0l387.876571-387.657143a211.894857 211.894857 0 0 0 0-299.812571zM919.844571 135.168a212.187429 212.187429 0 0 0-299.885714 0l-387.949714 387.657143a138.825143 138.825143 0 0 0 0 196.461714 138.971429 138.971429 0 0 0 196.534857 0l261.12-261.046857a14.628571 14.628571 0 0 0 0-20.699429l-46.518857-46.518857a14.628571 14.628571 0 0 0-20.626286 0L361.325714 652.141714a43.885714 43.885714 0 0 1-62.098285-62.098285l387.876571-387.657143a117.028571 117.028571 0 0 1 165.522286 165.376l-387.876572 387.657143a190.244571 190.244571 0 0 1-268.946285 0 189.952 189.952 0 0 1 0-268.726858l209.481142-209.334857a14.628571 14.628571 0 0 0 0-20.699428l-46.592-46.518857a14.628571 14.628571 0 0 0-20.626285 0L128.585143 419.474286a284.964571 284.964571 0 0 0 0 403.163428 285.403429 285.403429 0 0 0 403.382857 0l387.876571-387.657143a211.894857 211.894857 0 0 0 0-299.812571z" /></svg>