<?xml version="1.0" standalone="no"?><!DOCTYPE svg PUBLIC "-//W3C//DTD SVG 1.1//EN" "http://www.w3.org/Graphics/SVG/1.1/DTD/svg11.dtd"><svg class="icon" width="200px" height="200.00px" viewBox="0 0 1024 1024" version="1.1" xmlns="http://www.w3.org/2000/svg"><path d="M804.790857 375.515429a14.628571 14.628571 0 0 1 0 20.772571L517.851429 683.373714a36.571429 36.571429 0 0 1-51.785143 0L285.769143 503.076571a14.628571 14.628571 0 0 1 0-20.626285l46.518857-46.592a14.628571 14.628571 0 0 1 20.699429 0l138.898285 138.971428L737.499429 329.142857a14.628571 14.628571 0 0 1 20.626285 0l46.665143 46.372572zM512.292571 1024a512 512 0 1 0 0-1024 512 512 0 0 0 0 1024z m0-928.914286a416.914286 416.914286 0 1 1 0 833.828572 416.914286 416.914286 0 0 1 0-833.828572z" /></svg>