<?xml version="1.0" standalone="no"?><!DOCTYPE svg PUBLIC "-//W3C//DTD SVG 1.1//EN" "http://www.w3.org/Graphics/SVG/1.1/DTD/svg11.dtd"><svg class="icon" width="200px" height="200.00px" viewBox="0 0 1024 1024" version="1.1" xmlns="http://www.w3.org/2000/svg"><path d="M457.386667 262.826667a23.893333 23.893333 0 0 0-23.893334 23.893333v146.773333H286.72a23.893333 23.893333 0 0 0-23.893333 23.893334v40.96c0 13.175467 10.717867 23.893333 23.893333 23.893333h146.773333V669.013333c0 13.175467 10.717867 23.893333 23.893334 23.893334h40.96a23.893333 23.893333 0 0 0 23.893333-23.893334V522.24H669.013333a23.893333 23.893333 0 0 0 23.893334-23.893333v-40.96a23.893333 23.893333 0 0 0-23.893334-23.893334H522.24V286.72a23.893333 23.893333 0 0 0-23.893333-23.893333h-40.96zM477.866667 58.026667a419.84 419.84 0 1 0 263.850666 746.427733l148.821334 148.821333a23.893333 23.893333 0 0 0 33.792 0l29.013333-28.945066a23.893333 23.893333 0 0 0 0-33.723734l-148.8896-148.8896A419.84 419.84 0 0 0 477.866667 58.026667zM146.773333 477.866667a331.093333 331.093333 0 1 1 662.186667 0 331.093333 331.093333 0 0 1-662.186667 0zM457.386667 262.826667a23.893333 23.893333 0 0 0-23.893334 23.893333v146.773333H286.72a23.893333 23.893333 0 0 0-23.893333 23.893334v40.96c0 13.175467 10.717867 23.893333 23.893333 23.893333h146.773333V669.013333c0 13.175467 10.717867 23.893333 23.893334 23.893334h40.96a23.893333 23.893333 0 0 0 23.893333-23.893334V522.24H669.013333a23.893333 23.893333 0 0 0 23.893334-23.893333v-40.96a23.893333 23.893333 0 0 0-23.893334-23.893334H522.24V286.72a23.893333 23.893333 0 0 0-23.893333-23.893333h-40.96zM477.866667 58.026667a419.84 419.84 0 1 0 263.850666 746.427733l148.821334 148.821333a23.893333 23.893333 0 0 0 33.792 0l29.013333-28.945066a23.893333 23.893333 0 0 0 0-33.723734l-148.8896-148.8896A419.84 419.84 0 0 0 477.866667 58.026667zM146.773333 477.866667a331.093333 331.093333 0 1 1 662.186667 0 331.093333 331.093333 0 0 1-662.186667 0z" /></svg>