<?xml version="1.0" standalone="no"?><!DOCTYPE svg PUBLIC "-//W3C//DTD SVG 1.1//EN" "http://www.w3.org/Graphics/SVG/1.1/DTD/svg11.dtd"><svg class="icon" width="200px" height="200.00px" viewBox="0 0 1024 1024" version="1.1" xmlns="http://www.w3.org/2000/svg"><path d="M732.891429 406.381714a14.628571 14.628571 0 0 0-20.699429 0l-209.188571 209.188572-138.971429-138.898286a14.628571 14.628571 0 0 0-20.626286 0l-46.518857 46.592a14.628571 14.628571 0 0 0 0 20.626286l180.224 180.297143a36.571429 36.571429 0 0 0 51.712 0l250.587429-250.587429a14.628571 14.628571 0 0 0 0-20.626286l-46.518857-46.592zM329.142857 0a36.571429 36.571429 0 0 0-36.571428 36.571429V73.142857H109.714286a36.571429 36.571429 0 0 0-36.571429 36.571429v877.714285a36.571429 36.571429 0 0 0 36.571429 36.571429h804.571428a36.571429 36.571429 0 0 0 36.571429-36.571429v-877.714285a36.571429 36.571429 0 0 0-36.571429-36.571429H731.428571V36.571429a36.571429 36.571429 0 0 0-36.571428-36.571429h-365.714286z m58.514286 95.085714h248.685714v102.4H387.657143V95.085714zM731.428571 256V168.228571h124.342858v760.685715H168.228571V168.228571H292.571429v87.771429a36.571429 36.571429 0 0 0 36.571428 36.571429h365.714286a36.571429 36.571429 0 0 0 36.571428-36.571429zM732.891429 406.381714a14.628571 14.628571 0 0 0-20.699429 0l-209.188571 209.188572-138.971429-138.898286a14.628571 14.628571 0 0 0-20.626286 0l-46.518857 46.592a14.628571 14.628571 0 0 0 0 20.626286l180.224 180.297143a36.571429 36.571429 0 0 0 51.712 0l250.587429-250.587429a14.628571 14.628571 0 0 0 0-20.626286l-46.518857-46.592zM329.142857 0a36.571429 36.571429 0 0 0-36.571428 36.571429V73.142857H109.714286a36.571429 36.571429 0 0 0-36.571429 36.571429v877.714285a36.571429 36.571429 0 0 0 36.571429 36.571429h804.571428a36.571429 36.571429 0 0 0 36.571429-36.571429v-877.714285a36.571429 36.571429 0 0 0-36.571429-36.571429H731.428571V36.571429a36.571429 36.571429 0 0 0-36.571428-36.571429h-365.714286z m58.514286 95.085714h248.685714v102.4H387.657143V95.085714zM731.428571 256V168.228571h124.342858v760.685715H168.228571V168.228571H292.571429v87.771429a36.571429 36.571429 0 0 0 36.571428 36.571429h365.714286a36.571429 36.571429 0 0 0 36.571428-36.571429z" /></svg>