<?xml version="1.0" standalone="no"?><!DOCTYPE svg PUBLIC "-//W3C//DTD SVG 1.1//EN" "http://www.w3.org/Graphics/SVG/1.1/DTD/svg11.dtd"><svg class="icon" width="200px" height="200.00px" viewBox="0 0 1024 1024" version="1.1" xmlns="http://www.w3.org/2000/svg"><path d="M950.857143 91.428571a18.285714 18.285714 0 0 0-18.285714-18.285714H91.428571a18.285714 18.285714 0 0 0-18.285714 18.285714v58.514286c0 10.093714 8.192 18.285714 18.285714 18.285714h841.142858a18.285714 18.285714 0 0 0 18.285714-18.285714v-58.514286zM950.857143 544.914286a14.628571 14.628571 0 0 1-14.628572 14.628571H453.485714a14.628571 14.628571 0 0 1-14.628571-14.628571v-65.828572c0-8.045714 6.582857-14.628571 14.628571-14.628571h482.742857c8.045714 0 14.628571 6.582857 14.628572 14.628571v65.828572zM950.857143 874.057143a18.285714 18.285714 0 0 0-18.285714-18.285714H91.428571a18.285714 18.285714 0 0 0-18.285714 18.285714v58.514286c0 10.093714 8.192 18.285714 18.285714 18.285714h841.142858a18.285714 18.285714 0 0 0 18.285714-18.285714v-58.514286zM336.457143 390.948571a25.6 25.6 0 0 0-38.326857-22.235428L86.308571 489.764571a25.6 25.6 0 0 0 0 44.470858l211.894858 121.051428a25.6 25.6 0 0 0 38.326857-22.235428v-242.102858z" /></svg>
