<?xml version="1.0" standalone="no"?><!DOCTYPE svg PUBLIC "-//W3C//DTD SVG 1.1//EN" "http://www.w3.org/Graphics/SVG/1.1/DTD/svg11.dtd"><svg class="icon" width="200px" height="200.00px" viewBox="0 0 1024 1024" version="1.1" xmlns="http://www.w3.org/2000/svg"><path d="M286.581765 783.697725a14.84747 14.84747 0 0 0 0 20.99125l214.95918 214.95918c5.778079 5.778079 15.140031 5.778079 20.91811 0l215.03232-215.03232a14.84747 14.84747 0 0 0 0-20.91811l-47.248598-47.175458a14.84747 14.84747 0 0 0-20.99125 0L560.272562 845.647513V178.315917L669.251527 287.441163c5.85122 5.85122 15.213171 5.85122 20.99125 0l47.175458-47.175458a14.84747 14.84747 0 0 0 0-20.991251L522.459055 4.388415a14.84747 14.84747 0 0 0-20.91811 0L286.508625 219.420735a14.84747 14.84747 0 0 0 0 20.91811l47.248598 47.175458c5.85122 5.85122 15.213171 5.85122 20.99125 0L463.727438 178.389058v667.185314l-109.052105-108.978965a14.84747 14.84747 0 0 0-20.99125 0l-47.175458 47.102318zM286.581765 783.697725a14.84747 14.84747 0 0 0 0 20.99125l214.95918 214.95918c5.778079 5.778079 15.140031 5.778079 20.91811 0l215.03232-215.03232a14.84747 14.84747 0 0 0 0-20.91811l-47.248598-47.175458a14.84747 14.84747 0 0 0-20.99125 0L560.272562 845.647513V178.315917L669.251527 287.441163c5.85122 5.85122 15.213171 5.85122 20.99125 0l47.175458-47.175458a14.84747 14.84747 0 0 0 0-20.991251L522.459055 4.388415a14.84747 14.84747 0 0 0-20.91811 0L286.508625 219.420735a14.84747 14.84747 0 0 0 0 20.91811l47.248598 47.175458c5.85122 5.85122 15.213171 5.85122 20.99125 0L463.727438 178.389058v667.185314l-109.052105-108.978965a14.84747 14.84747 0 0 0-20.99125 0l-47.175458 47.102318z" /></svg>