<?xml version="1.0" standalone="no"?><!DOCTYPE svg PUBLIC "-//W3C//DTD SVG 1.1//EN" "http://www.w3.org/Graphics/SVG/1.1/DTD/svg11.dtd"><svg class="icon" width="200px" height="200.00px" viewBox="0 0 1024 1024" version="1.1" xmlns="http://www.w3.org/2000/svg"><path d="M73.142857 91.428571A18.285714 18.285714 0 0 1 91.428571 73.142857h841.142858a18.285714 18.285714 0 0 1 18.285714 18.285714v58.514286a18.285714 18.285714 0 0 1-18.285714 18.285714H91.428571A18.285714 18.285714 0 0 1 73.142857 149.942857v-58.514286zM816.274286 944.566857a14.628571 14.628571 0 0 1-10.386286 6.217143V950.857143h-21.065143a14.628571 14.628571 0 0 1-14.628571-14.628572V453.485714c0-8.045714 6.582857-14.628571 14.628571-14.628571h65.828572c8.045714 0 14.628571 6.582857 14.628571 14.628571V731.428571h70.802286a14.628571 14.628571 0 0 1 11.995428 22.966858l-131.803428 190.171428zM73.142857 544.914286c0 8.045714 6.582857 14.628571 14.628572 14.628571h482.742857a14.628571 14.628571 0 0 0 14.628571-14.628571v-65.828572a14.628571 14.628571 0 0 0-14.628571-14.628571H87.771429a14.628571 14.628571 0 0 0-14.628572 14.628571v65.828572zM91.428571 855.771429a18.285714 18.285714 0 0 0-18.285714 18.285714v58.514286c0 10.093714 8.192 18.285714 18.285714 18.285714h475.428572a18.285714 18.285714 0 0 0 18.285714-18.285714v-58.514286a18.285714 18.285714 0 0 0-18.285714-18.285714h-475.428572z" /></svg>