<?xml version="1.0" standalone="no"?><!DOCTYPE svg PUBLIC "-//W3C//DTD SVG 1.1//EN" "http://www.w3.org/Graphics/SVG/1.1/DTD/svg11.dtd"><svg class="icon" width="200px" height="200.00px" viewBox="0 0 1024 1024" version="1.1" xmlns="http://www.w3.org/2000/svg"><path d="M73.142857 91.428571A18.285714 18.285714 0 0 1 91.428571 73.142857h841.142858a18.285714 18.285714 0 0 1 18.285714 18.285714v58.514286a18.285714 18.285714 0 0 1-18.285714 18.285714H91.428571A18.285714 18.285714 0 0 1 73.142857 149.942857v-58.514286zM73.142857 544.914286c0 8.045714 6.582857 14.628571 14.628572 14.628571h482.742857a14.628571 14.628571 0 0 0 14.628571-14.628571v-65.828572a14.628571 14.628571 0 0 0-14.628571-14.628571H87.771429a14.628571 14.628571 0 0 0-14.628572 14.628571v65.828572zM73.142857 874.057143a18.285714 18.285714 0 0 1 18.285714-18.285714h841.142858a18.285714 18.285714 0 0 1 18.285714 18.285714v58.514286a18.285714 18.285714 0 0 1-18.285714 18.285714H91.428571a18.285714 18.285714 0 0 1-18.285714-18.285714v-58.514286zM687.542857 390.948571a25.6 25.6 0 0 1 38.326857-22.235428l211.821715 121.051428a25.6 25.6 0 0 1 0 44.470858L725.869714 655.286857a25.6 25.6 0 0 1-38.326857-22.235428v-242.102858z" /></svg>