<?xml version="1.0" standalone="no"?><!DOCTYPE svg PUBLIC "-//W3C//DTD SVG 1.1//EN" "http://www.w3.org/Graphics/SVG/1.1/DTD/svg11.dtd"><svg class="icon" width="200px" height="186.69px" viewBox="0 0 1097 1024" version="1.1" xmlns="http://www.w3.org/2000/svg"><path d="M98.742857 219.428571A157.257143 157.257143 0 0 1 256 62.171429h277.942857a25.6 25.6 0 0 1 25.6 25.6v43.885714a25.6 25.6 0 0 1-25.6 25.6H256a62.171429 62.171429 0 0 0-62.171429 62.171428v585.142858c0 34.377143 27.794286 62.171429 62.171429 62.171428h585.142857c34.377143 0 62.171429-27.794286 62.171429-62.171428V453.485714a25.6 25.6 0 0 1 25.6-25.6h43.885714a25.6 25.6 0 0 1 25.6 25.6V804.571429a157.257143 157.257143 0 0 1-157.257143 157.257142h-585.142857A157.257143 157.257143 0 0 1 98.742857 804.571429V219.428571z m654.043429-126.025142a18.285714 18.285714 0 0 1 12.946285-31.232h79.725715a25.6 25.6 0 0 1 18.066285 7.533714l131.657143 131.657143a25.6 25.6 0 0 1 0 36.205714l-131.657143 131.657143a25.6 25.6 0 0 1-18.066285 7.460571h-79.725715a18.285714 18.285714 0 0 1-12.946285-31.232l78.482285-78.482285H731.428571A98.742857 98.742857 0 0 0 632.685714 365.714286v73.142857a25.6 25.6 0 0 1-25.6 25.6h-43.885714A25.6 25.6 0 0 1 537.6 438.857143V365.714286A193.828571 193.828571 0 0 1 731.428571 171.885714h99.84l-78.482285-78.482285zM98.742857 219.428571A157.257143 157.257143 0 0 1 256 62.171429h277.942857a25.6 25.6 0 0 1 25.6 25.6v43.885714a25.6 25.6 0 0 1-25.6 25.6H256a62.171429 62.171429 0 0 0-62.171429 62.171428v585.142858c0 34.377143 27.794286 62.171429 62.171429 62.171428h585.142857c34.377143 0 62.171429-27.794286 62.171429-62.171428V453.485714a25.6 25.6 0 0 1 25.6-25.6h43.885714a25.6 25.6 0 0 1 25.6 25.6V804.571429a157.257143 157.257143 0 0 1-157.257143 157.257142h-585.142857A157.257143 157.257143 0 0 1 98.742857 804.571429V219.428571z m654.043429-126.025142a18.285714 18.285714 0 0 1 12.946285-31.232h79.725715a25.6 25.6 0 0 1 18.066285 7.533714l131.657143 131.657143a25.6 25.6 0 0 1 0 36.205714l-131.657143 131.657143a25.6 25.6 0 0 1-18.066285 7.460571h-79.725715a18.285714 18.285714 0 0 1-12.946285-31.232l78.482285-78.482285H731.428571A98.742857 98.742857 0 0 0 632.685714 365.714286v73.142857a25.6 25.6 0 0 1-25.6 25.6h-43.885714A25.6 25.6 0 0 1 537.6 438.857143V365.714286A193.828571 193.828571 0 0 1 731.428571 171.885714h99.84l-78.482285-78.482285z" /></svg>