<?xml version="1.0" standalone="no"?><!DOCTYPE svg PUBLIC "-//W3C//DTD SVG 1.1//EN" "http://www.w3.org/Graphics/SVG/1.1/DTD/svg11.dtd"><svg class="icon" width="200px" height="200.00px" viewBox="0 0 1024 1024" version="1.1" xmlns="http://www.w3.org/2000/svg"><path d="M783.725714 747.812571c5.851429 5.778286 15.213714 5.778286 20.992 0l214.966857-215.04a14.848 14.848 0 0 0 0-20.918857L804.571429 296.96a14.848 14.848 0 0 0-20.918858 0l-47.177142 47.177143a14.848 14.848 0 0 0 0 20.992l109.129142 109.129143H178.322286L287.451429 364.982857a14.848 14.848 0 0 0 0-20.992l-47.177143-47.177143a14.848 14.848 0 0 0-20.992 0L4.388571 512a14.848 14.848 0 0 0 0 20.918857L219.428571 747.812571c5.705143 5.778286 15.140571 5.778286 20.918858 0l47.177142-47.177142a14.848 14.848 0 0 0 0-20.992L178.395429 570.514286h667.282285L736.548571 679.643429a14.848 14.848 0 0 0 0 20.992l47.177143 47.177142zM783.725714 747.812571c5.851429 5.778286 15.213714 5.778286 20.992 0l214.966857-215.04a14.848 14.848 0 0 0 0-20.918857L804.571429 296.96a14.848 14.848 0 0 0-20.918858 0l-47.177142 47.177143a14.848 14.848 0 0 0 0 20.992l109.129142 109.129143H178.322286L287.451429 364.982857a14.848 14.848 0 0 0 0-20.992l-47.177143-47.177143a14.848 14.848 0 0 0-20.992 0L4.388571 512a14.848 14.848 0 0 0 0 20.918857L219.428571 747.812571c5.705143 5.778286 15.140571 5.778286 20.918858 0l47.177142-47.177142a14.848 14.848 0 0 0 0-20.992L178.395429 570.514286h667.282285L736.548571 679.643429a14.848 14.848 0 0 0 0 20.992l47.177143 47.177142z" /></svg>