<?xml version="1.0" standalone="no"?><!DOCTYPE svg PUBLIC "-//W3C//DTD SVG 1.1//EN" "http://www.w3.org/Graphics/SVG/1.1/DTD/svg11.dtd"><svg class="icon" width="200px" height="186.69px" viewBox="0 0 1097 1024" version="1.1" xmlns="http://www.w3.org/2000/svg"><path d="M99.035429 219.428571A157.257143 157.257143 0 0 1 256.292571 62.171429h277.942858a25.6 25.6 0 0 1 25.6 25.6v43.885714a25.6 25.6 0 0 1-25.6 25.6h-277.942858a62.171429 62.171429 0 0 0-62.171428 62.171428v647.314286c0 34.377143 27.794286 62.171429 62.171428 62.171429h585.142858c34.377143 0 62.171429-27.794286 62.171428-62.171429V453.485714a25.6 25.6 0 0 1 25.6-25.6h43.885714a25.6 25.6 0 0 1 25.6 25.6v413.257143a157.257143 157.257143 0 0 1-157.257142 157.257143h-585.142858a157.257143 157.257143 0 0 1-157.257142-157.257143V219.428571zM701.074286 292.571429l218.697143-218.697143a14.628571 14.628571 0 0 1 20.626285 0l46.592 46.592a14.628571 14.628571 0 0 1 0 20.626285l-218.697143 218.697143-63.049142 18.505143a18.285714 18.285714 0 0 1-22.674286-22.674286L701.074286 292.571429zM347.721143 449.828571a18.285714 18.285714 0 0 1-18.285714-18.285714v-58.514286a18.285714 18.285714 0 0 1 18.285714-18.285714h256a18.285714 18.285714 0 0 1 18.285714 18.285714v58.514286a18.285714 18.285714 0 0 1-18.285714 18.285714h-256zM347.721143 705.828571a18.285714 18.285714 0 0 1-18.285714-18.285714v-58.514286a18.285714 18.285714 0 0 1 18.285714-18.285714h402.285714a18.285714 18.285714 0 0 1 18.285714 18.285714v58.514286a18.285714 18.285714 0 0 1-18.285714 18.285714h-402.285714z" /></svg>