<?xml version="1.0" standalone="no"?><!DOCTYPE svg PUBLIC "-//W3C//DTD SVG 1.1//EN" "http://www.w3.org/Graphics/SVG/1.1/DTD/svg11.dtd"><svg class="icon" width="200px" height="200.00px" viewBox="0 0 1024 1024" version="1.1" xmlns="http://www.w3.org/2000/svg"><path d="M786.285714 427.885714a18.285714 18.285714 0 0 1 18.285715 18.285715v58.514285a18.285714 18.285714 0 0 1-18.285715 18.285715H234.057143a14.628571 14.628571 0 0 1-14.628572-14.628572v-65.828571c0-8.045714 6.582857-14.628571 14.628572-14.628572h552.228571zM1009.371429 182.857143H365.714286l-62.317715-93.403429A36.571429 36.571429 0 0 0 272.969143 73.142857H36.571429a36.571429 36.571429 0 0 0-36.571429 36.571429v804.571428a36.571429 36.571429 0 0 0 36.571429 36.571429h972.8a14.628571 14.628571 0 0 0 14.628571-14.628572V197.485714a14.628571 14.628571 0 0 0-14.628571-14.628571z m-80.457143 95.085714v577.828572H95.085714V168.228571h146.578286l62.317714 93.403429a36.571429 36.571429 0 0 0 30.427429 16.310857H928.914286z" /></svg>