<svg class="icon" width="200px" height="200.00px" viewBox="0 0 1024 1024" version="1.1" xmlns="http://www.w3.org/2000/svg"><path  d="M936.223723 73.142021a14.628404 14.628404 0 0 1 14.11641 10.751877L950.852127 87.770425v116.442098a80.456223 80.456223 0 0 1-17.554085 50.102285l-5.997645 6.802208-281.231072 281.157929v347.205175c0 24.868287-12.434144 47.834882-32.840768 61.439298l-7.97248 4.607947-120.464909 60.195884a74.239152 74.239152 0 0 1-23.624873 7.314202l-7.899338 0.585136a74.092868 74.092868 0 0 1-74.89743-65.462109l-0.438852-8.484474v-407.401059L96.699603 261.117016a80.456223 80.456223 0 0 1-23.039736-47.834882L73.147873 204.212523V87.770425a14.628404 14.628404 0 0 1 10.751877-14.11641L87.776277 73.142021h848.447446z m-80.456223 95.084628H168.2325v29.988229l304.782803 304.70966v412.447858l77.969394-39.05784V502.924538L855.7675 198.141736V168.226649z" /></svg>