<?xml version="1.0" standalone="no"?><!DOCTYPE svg PUBLIC "-//W3C//DTD SVG 1.1//EN" "http://www.w3.org/Graphics/SVG/1.1/DTD/svg11.dtd"><svg class="icon" width="200px" height="200.00px" viewBox="0 0 1024 1024" version="1.1" xmlns="http://www.w3.org/2000/svg"><path d="M625.810286 5.12a14.628571 14.628571 0 0 0-20.699429 0l-31.012571 31.085714a14.628571 14.628571 0 0 0 0 20.699429l49.956571 49.956571-413.769143 310.345143-49.956571-50.029714a14.628571 14.628571 0 0 0-20.699429 0l-46.592 46.518857a14.628571 14.628571 0 0 0 0 20.699429L289.645714 630.930286l-243.126857 294.765714v51.785143h51.712l294.765714-243.126857 196.534858 196.534857a14.628571 14.628571 0 0 0 20.772571 0l46.518857-46.518857a14.628571 14.628571 0 0 0 0-20.699429l-50.029714-49.956571 310.345143-413.769143 50.029714 49.956571a14.628571 14.628571 0 0 0 20.626286 0l31.085714-31.012571a14.628571 14.628571 0 0 0 0-20.699429L625.810286 5.12z m210.139428 344.649143l-297.033143 395.995428-260.681142-260.681142 395.995428-296.96 161.645714 161.645714zM625.810286 5.12a14.628571 14.628571 0 0 0-20.699429 0l-31.012571 31.085714a14.628571 14.628571 0 0 0 0 20.699429l49.956571 49.956571-413.769143 310.345143-49.956571-50.029714a14.628571 14.628571 0 0 0-20.699429 0l-46.592 46.518857a14.628571 14.628571 0 0 0 0 20.699429L289.645714 630.930286l-243.126857 294.765714v51.785143h51.712l294.765714-243.126857 196.534858 196.534857a14.628571 14.628571 0 0 0 20.772571 0l46.518857-46.518857a14.628571 14.628571 0 0 0 0-20.699429l-50.029714-49.956571 310.345143-413.769143 50.029714 49.956571a14.628571 14.628571 0 0 0 20.626286 0l31.085714-31.012571a14.628571 14.628571 0 0 0 0-20.699429L625.810286 5.12z m210.139428 344.649143l-297.033143 395.995428-260.681142-260.681142 395.995428-296.96 161.645714 161.645714z" /></svg>