<?xml version="1.0" standalone="no"?><!DOCTYPE svg PUBLIC "-//W3C//DTD SVG 1.1//EN" "http://www.w3.org/Graphics/SVG/1.1/DTD/svg11.dtd"><svg class="icon" width="200px" height="200.00px" viewBox="0 0 1024 1024" version="1.1" xmlns="http://www.w3.org/2000/svg"><path d="M357.818932 193.836614a146.281848 146.281848 0 1 1 0-95.083201H731.422772a230.393911 230.393911 0 1 1 0 460.787822H650.382628a146.281848 146.281848 0 0 1-276.765256 0H329.14769a135.31071 135.31071 0 1 0 0 270.621419h337.033378a146.281848 146.281848 0 1 1 0 95.083202H329.14769a230.393911 230.393911 0 1 1 0-460.787822h44.469682a146.281848 146.281848 0 0 1 276.765256 0H731.422772a135.31071 135.31071 0 0 0 0-270.62142H357.818932zM270.63495 146.295014a51.198647 51.198647 0 1 0-102.397293 0 51.198647 51.198647 0 0 0 102.397293 0z m585.127393 731.409241a51.198647 51.198647 0 1 0-102.397293 0 51.198647 51.198647 0 0 0 102.397293 0zM512 563.198281a51.198647 51.198647 0 1 0 0-102.397294 51.198647 51.198647 0 0 0 0 102.397294zM357.818932 193.836614a146.281848 146.281848 0 1 1 0-95.083201H731.422772a230.393911 230.393911 0 1 1 0 460.787822H650.382628a146.281848 146.281848 0 0 1-276.765256 0H329.14769a135.31071 135.31071 0 1 0 0 270.621419h337.033378a146.281848 146.281848 0 1 1 0 95.083202H329.14769a230.393911 230.393911 0 1 1 0-460.787822h44.469682a146.281848 146.281848 0 0 1 276.765256 0H731.422772a135.31071 135.31071 0 0 0 0-270.62142H357.818932zM270.63495 146.295014a51.198647 51.198647 0 1 0-102.397293 0 51.198647 51.198647 0 0 0 102.397293 0z m585.127393 731.409241a51.198647 51.198647 0 1 0-102.397293 0 51.198647 51.198647 0 0 0 102.397293 0zM512 563.198281a51.198647 51.198647 0 1 0 0-102.397294 51.198647 51.198647 0 0 0 0 102.397294z" /></svg>