<?xml version="1.0" standalone="no"?><!DOCTYPE svg PUBLIC "-//W3C//DTD SVG 1.1//EN" "http://www.w3.org/Graphics/SVG/1.1/DTD/svg11.dtd"><svg class="icon" width="200px" height="200.00px" viewBox="0 0 1024 1024" version="1.1" xmlns="http://www.w3.org/2000/svg"><path d="M512 318.171429a193.828571 193.828571 0 1 0 0 387.657142 193.828571 193.828571 0 0 0 0-387.657142zM413.257143 512a98.742857 98.742857 0 1 1 197.485714 0 98.742857 98.742857 0 0 1-197.485714 0zM75.702857 559.542857a439.003429 439.003429 0 0 0 388.754286 388.754286v61.074286c0 8.045714 6.582857 14.628571 14.628571 14.628571h65.828572a14.628571 14.628571 0 0 0 14.628571-14.628571v-61.074286a439.003429 439.003429 0 0 0 388.754286-388.754286h61.074286a14.628571 14.628571 0 0 0 14.628571-14.628571v-65.828572a14.628571 14.628571 0 0 0-14.628571-14.628571h-61.074286A439.003429 439.003429 0 0 0 559.542857 75.702857V14.628571a14.628571 14.628571 0 0 0-14.628571-14.628571h-65.828572a14.628571 14.628571 0 0 0-14.628571 14.628571v61.074286A439.003429 439.003429 0 0 0 75.702857 464.457143H14.628571a14.628571 14.628571 0 0 0-14.628571 14.628571v65.828572c0 8.045714 6.582857 14.628571 14.628571 14.628571h61.074286z m388.754286 292.937143a343.771429 343.771429 0 1 1 95.232-680.96 343.771429 343.771429 0 0 1-95.232 680.96zM512 318.171429a193.828571 193.828571 0 1 0 0 387.657142 193.828571 193.828571 0 0 0 0-387.657142zM413.257143 512a98.742857 98.742857 0 1 1 197.485714 0 98.742857 98.742857 0 0 1-197.485714 0zM75.702857 559.542857a439.003429 439.003429 0 0 0 388.754286 388.754286v61.074286c0 8.045714 6.582857 14.628571 14.628571 14.628571h65.828572a14.628571 14.628571 0 0 0 14.628571-14.628571v-61.074286a439.003429 439.003429 0 0 0 388.754286-388.754286h61.074286a14.628571 14.628571 0 0 0 14.628571-14.628571v-65.828572a14.628571 14.628571 0 0 0-14.628571-14.628571h-61.074286A439.003429 439.003429 0 0 0 559.542857 75.702857V14.628571a14.628571 14.628571 0 0 0-14.628571-14.628571h-65.828572a14.628571 14.628571 0 0 0-14.628571 14.628571v61.074286A439.003429 439.003429 0 0 0 75.702857 464.457143H14.628571a14.628571 14.628571 0 0 0-14.628571 14.628571v65.828572c0 8.045714 6.582857 14.628571 14.628571 14.628571h61.074286z m388.754286 292.937143a343.771429 343.771429 0 1 1 95.232-680.96 343.771429 343.771429 0 0 1-95.232 680.96z" /></svg>