<?xml version="1.0" standalone="no"?><!DOCTYPE svg PUBLIC "-//W3C//DTD SVG 1.1//EN" "http://www.w3.org/Graphics/SVG/1.1/DTD/svg11.dtd"><svg class="icon" width="200px" height="200.00px" viewBox="0 0 1024 1024" version="1.1" xmlns="http://www.w3.org/2000/svg"><path d="M951.369143 33.28c18.724571 0 33.938286 15.213714 33.938286 33.938286v882.395428a33.938286 33.938286 0 0 1-33.938286 33.938286H68.388571a33.938286 33.938286 0 0 1-33.938285-33.938286V67.291429C34.377143 48.493714 49.664 33.28 68.388571 33.28z m-485.668572 722.870857H122.733714v139.190857h343.04v-139.190857z m431.323429 0h-343.04v139.190857h343.04v-139.190857zM465.700571 552.521143H122.733714v115.419428h343.04V552.521143z m431.323429 0h-343.04v115.419428h343.04V552.521143zM465.700571 325.12H122.733714v139.190857h343.04V325.12z m431.323429 0h-343.04v139.190857h343.04V325.12z m0-203.629714H122.733714V236.982857h774.290286V121.490286z" /></svg>