<?xml version="1.0" standalone="no"?><!DOCTYPE svg PUBLIC "-//W3C//DTD SVG 1.1//EN" "http://www.w3.org/Graphics/SVG/1.1/DTD/svg11.dtd"><svg class="icon" width="200px" height="186.69px" viewBox="0 0 1097 1024" version="1.1" xmlns="http://www.w3.org/2000/svg"><path d="M661.211429 30.281143a72.850286 72.850286 0 0 1 50.907428 21.430857l290.669714 290.742857a73.142857 73.142857 0 0 1 0 103.497143L519.826286 928.914286h522.459428V1024h-1024v-95.085714H359.862857L97.353143 666.477714a73.142857 73.142857 0 0 1 0-103.424L608.548571 51.785143A72.996571 72.996571 0 0 1 661.211429 30.208zM347.062857 447.707429L180.077714 614.765714l259.730286 259.657143 167.058286-166.985143L347.136 447.634286z m313.197714-313.270858L414.354286 380.489143l259.730285 259.657143L920.137143 394.24 660.48 134.582857z" /></svg>