<svg class="icon" width="200px" height="200.00px" viewBox="0 0 1024 1024" version="1.1" xmlns="http://www.w3.org/2000/svg"><path  d="M512.001463 0l17.554286 0.292571a512 512 0 1 1-35.108572 0L512.001463 0z m344.649143 277.357714l-122.660572 136.265143a73.142857 73.142857 0 0 1 34.011429 61.805714v219.428572a73.142857 73.142857 0 0 1-64.585143 72.630857L694.858606 768H415.087177l-100.278857 111.396571a416.914286 416.914286 0 0 0 552.886857-585.142857l-11.044571-16.896zM657.994606 355.986286L793.967177 204.8a416.914286 416.914286 0 0 0-557.787428 619.739429l58.660571-65.097143A73.142857 73.142857 0 0 1 256.001463 694.857143v-219.428572a73.142857 73.142857 0 0 1 73.142857-73.142857H365.715749V365.714286a146.285714 146.285714 0 0 1 292.278857-9.728zM530.726034 497.371429H351.087177v175.542857h21.650286l157.988571-175.542857z m142.189715 0h-14.262858l-157.988571 175.542857H672.915749V497.371429zM512.001463 314.514286l-6.948572 0.438857a51.2 51.2 0 0 0-43.666285 43.154286L460.801463 365.714286v36.571428h102.4V365.714286a51.2 51.2 0 0 0-44.251429-50.761143L512.001463 314.514286z" /></svg>