<?xml version="1.0" standalone="no"?><!DOCTYPE svg PUBLIC "-//W3C//DTD SVG 1.1//EN" "http://www.w3.org/Graphics/SVG/1.1/DTD/svg11.dtd"><svg class="icon" width="200px" height="200.00px" viewBox="0 0 1024 1024" version="1.1" xmlns="http://www.w3.org/2000/svg"><path d="M309.794133 221.3888c0-7.509333 6.144-13.653333 13.653334-13.653333h382.293333c7.509333 0 13.653333 6.144 13.653333 13.653333v61.44a13.653333 13.653333 0 0 1-13.653333 13.653333h-382.293333a13.653333 13.653333 0 0 1-13.653334-13.653333v-61.44zM309.794133 426.1888c0-7.509333 6.144-13.653333 13.653334-13.653333h245.76c7.509333 0 13.653333 6.144 13.653333 13.653333v61.44a13.653333 13.653333 0 0 1-13.653333 13.653333h-245.76a13.653333 13.653333 0 0 1-13.653334-13.653333v-61.44zM924.194133 552.5504V37.137067a34.133333 34.133333 0 0 0-34.133333-34.133334h-750.933333a34.133333 34.133333 0 0 0-34.133334 34.133334v819.2a34.133333 34.133333 0 0 0 34.133334 34.133333h447.146666a238.933333 238.933333 0 0 0 337.92-337.92z m-730.453333-460.8h641.706667v403.456a238.933333 238.933333 0 0 0-306.449067 306.449067H193.877333v-709.973334z m559.786667 778.24a149.640533 149.640533 0 0 1-102.058667-40.072533l248.490667-143.496534a150.186667 150.186667 0 0 1-146.500267 183.5008z m-146.432-116.872533a150.186667 150.186667 0 0 1 248.490666-143.496534l-248.490666 143.496534zM309.794133 221.3888c0-7.509333 6.144-13.653333 13.653334-13.653333h382.293333c7.509333 0 13.653333 6.144 13.653333 13.653333v61.44a13.653333 13.653333 0 0 1-13.653333 13.653333h-382.293333a13.653333 13.653333 0 0 1-13.653334-13.653333v-61.44zM309.794133 426.1888c0-7.509333 6.144-13.653333 13.653334-13.653333h245.76c7.509333 0 13.653333 6.144 13.653333 13.653333v61.44a13.653333 13.653333 0 0 1-13.653333 13.653333h-245.76a13.653333 13.653333 0 0 1-13.653334-13.653333v-61.44zM924.194133 552.5504V37.137067a34.133333 34.133333 0 0 0-34.133333-34.133334h-750.933333a34.133333 34.133333 0 0 0-34.133334 34.133334v819.2a34.133333 34.133333 0 0 0 34.133334 34.133333h447.146666a238.933333 238.933333 0 0 0 337.92-337.92z m-730.453333-460.8h641.706667v403.456a238.933333 238.933333 0 0 0-306.449067 306.449067H193.877333v-709.973334z m559.786667 778.24a149.640533 149.640533 0 0 1-102.058667-40.072533l248.490667-143.496534a150.186667 150.186667 0 0 1-146.500267 183.5008z m-146.432-116.872533a150.186667 150.186667 0 0 1 248.490666-143.496534l-248.490666 143.496534z" /></svg>