<svg class="icon" width="200px" height="200.00px" viewBox="0 0 1024 1024" version="1.1" xmlns="http://www.w3.org/2000/svg"><path  d="M936.228571 621.714286c8.045714 0 14.628571 6.582857 14.628572 14.628571v299.885714a14.628571 14.628571 0 0 1-10.752 14.116572L936.228571 950.857143H636.342857a14.628571 14.628571 0 0 1-14.628571-14.628572v-65.828571c0-8.045714 6.582857-14.628571 14.628571-14.628571h219.428572v-219.428572c0-8.045714 6.582857-14.628571 14.628571-14.628571h65.828571z m-548.571428 0c8.045714 0 14.628571 6.582857 14.628571 14.628571v299.885714a14.628571 14.628571 0 0 1-10.752 14.116572L387.657143 950.857143h-65.828572a14.628571 14.628571 0 0 1-14.628571-14.628572v-158.134857l-156.525714 156.525715-3.730286 2.706285-4.388571 1.389715h-4.388572a14.628571 14.628571 0 0 1-8.118857-4.096l-46.592-46.592a14.628571 14.628571 0 0 1 0-20.626286L234.057143 716.8h-146.285714a14.628571 14.628571 0 0 1-14.628572-14.628571v-65.828572c0-8.045714 6.582857-14.628571 14.628572-14.628571h299.885714z m0-548.571429a14.628571 14.628571 0 0 1 14.116571 10.752L402.285714 87.771429v65.828571a14.628571 14.628571 0 0 1-10.752 14.116571L387.657143 168.228571h-219.428572v219.428572a14.628571 14.628571 0 0 1-10.752 14.116571L153.6 402.285714h-65.828571a14.628571 14.628571 0 0 1-14.116572-10.752L73.142857 387.657143V87.771429a14.628571 14.628571 0 0 1 10.752-14.116572L87.771429 73.142857h299.885714z m314.514286 0a14.628571 14.628571 0 0 1 14.116571 10.752L716.8 87.771429v152.137142l153.526857-153.453714a14.628571 14.628571 0 0 1 16.822857-2.779428l3.876572 2.779428 46.518857 46.518857a14.628571 14.628571 0 0 1 2.779428 16.896l-2.779428 3.803429L784.091429 307.2H936.228571a14.628571 14.628571 0 0 1 14.116572 10.752L950.857143 321.828571v65.828572a14.628571 14.628571 0 0 1-10.752 14.116571L936.228571 402.285714H636.342857a14.628571 14.628571 0 0 1-14.116571-10.752L621.714286 387.657143V87.771429a14.628571 14.628571 0 0 1 10.752-14.116572L636.342857 73.142857h65.828572z" /></svg>