<?xml version="1.0" standalone="no"?><!DOCTYPE svg PUBLIC "-//W3C//DTD SVG 1.1//EN" "http://www.w3.org/Graphics/SVG/1.1/DTD/svg11.dtd"><svg class="icon" width="200px" height="200.00px" viewBox="0 0 1024 1024" version="1.1" xmlns="http://www.w3.org/2000/svg"><path d="M636.342857 73.142857a14.628571 14.628571 0 0 0-14.628571 14.628572v299.885714c0 8.045714 6.582857 14.628571 14.628571 14.628571h299.885714a14.628571 14.628571 0 0 0 14.628572-14.628571v-65.828572a14.628571 14.628571 0 0 0-14.628572-14.628571h-152.137142l153.453714-153.526857a14.628571 14.628571 0 0 0 0-20.699429l-46.518857-46.518857a14.628571 14.628571 0 0 0-20.699429 0L716.8 239.908571V87.771429a14.628571 14.628571 0 0 0-14.628571-14.628572h-65.828572zM402.285714 936.228571a14.628571 14.628571 0 0 1-14.628571 14.628572h-65.828572a14.628571 14.628571 0 0 1-14.628571-14.628572v-158.134857l-156.525714 156.525715a14.628571 14.628571 0 0 1-20.626286 0l-46.592-46.592a14.628571 14.628571 0 0 1 0-20.626286L234.057143 716.8h-146.285714a14.628571 14.628571 0 0 1-14.628572-14.628571v-65.828572c0-8.045714 6.582857-14.628571 14.628572-14.628571h299.885714c8.045714 0 14.628571 6.582857 14.628571 14.628571v299.885714zM950.857143 636.342857a14.628571 14.628571 0 0 0-14.628572-14.628571H636.342857a14.628571 14.628571 0 0 0-14.628571 14.628571v299.885714c0 8.045714 6.582857 14.628571 14.628571 14.628572h65.828572a14.628571 14.628571 0 0 0 14.628571-14.628572v-152.137142l153.526857 153.453714a14.628571 14.628571 0 0 0 20.699429 0l46.518857-46.518857a14.628571 14.628571 0 0 0 0-20.699429L784.091429 716.8H936.228571a14.628571 14.628571 0 0 0 14.628572-14.628571v-65.828572zM87.771429 402.285714a14.628571 14.628571 0 0 1-14.628572-14.628571v-65.828572c0-8.045714 6.582857-14.628571 14.628572-14.628571h158.061714L89.380571 150.674286a14.628571 14.628571 0 0 1 0-20.626286l46.592-46.592a14.628571 14.628571 0 0 1 20.626286 0L307.2 234.057143v-146.285714c0-8.045714 6.582857-14.628571 14.628571-14.628572h65.828572c8.045714 0 14.628571 6.582857 14.628571 14.628572v299.885714a14.628571 14.628571 0 0 1-14.628571 14.628571H87.771429z" /></svg>