<svg class="icon" width="200px" height="200.00px" viewBox="0 0 1024 1024" version="1.1" xmlns="http://www.w3.org/2000/svg"><path  d="M936.228571 621.714286c8.045714 0 14.628571 6.582857 14.628572 14.628571v299.885714a14.628571 14.628571 0 0 1-10.752 14.116572L936.228571 950.857143H636.342857a14.628571 14.628571 0 0 1-14.628571-14.628572v-65.828571c0-8.045714 6.582857-14.628571 14.628571-14.628571h219.428572v-219.428572c0-8.045714 6.582857-14.628571 14.628571-14.628571h65.828571z m-577.901714-23.259429a14.628571 14.628571 0 0 1 16.822857-2.779428l3.876572 2.779428 46.518857 46.518857a14.628571 14.628571 0 0 1 2.779428 16.896l-2.779428 3.803429L235.52 855.771429H387.657143a14.628571 14.628571 0 0 1 14.116571 10.752l0.512 3.876571v65.828571a14.628571 14.628571 0 0 1-10.752 14.116572L387.657143 950.857143H87.771429a14.628571 14.628571 0 0 1-14.116572-10.752L73.142857 936.228571V636.342857a14.628571 14.628571 0 0 1 10.752-14.116571L87.771429 621.714286h65.828571l3.876571 0.512a14.628571 14.628571 0 0 1 10.24 10.24L168.228571 636.342857v152.137143l190.098286-190.025143zM936.228571 73.142857a14.628571 14.628571 0 0 1 14.116572 10.752L950.857143 87.771429v299.885714a14.628571 14.628571 0 0 1-10.752 14.116571L936.228571 402.285714h-65.828571a14.628571 14.628571 0 0 1-14.116571-10.752L855.771429 387.657143V235.52L665.673143 425.472a14.628571 14.628571 0 0 1-3.803429 2.779429l-4.315428 1.316571H653.165714a14.628571 14.628571 0 0 1-5.632-2.121143l-2.486857-1.974857-46.518857-46.518857a14.628571 14.628571 0 0 1-2.779429-16.896l2.779429-3.803429L788.48 168.228571H636.342857l-3.876571-0.512a14.628571 14.628571 0 0 1-10.24-10.24L621.714286 153.6v-65.828571a14.628571 14.628571 0 0 1 10.752-14.116572L636.342857 73.142857h299.885714zM387.657143 73.142857c8.045714 0 14.628571 6.582857 14.628571 14.628572v65.828571a14.628571 14.628571 0 0 1-10.752 14.116571L387.657143 168.228571h-219.428572v219.428572a14.628571 14.628571 0 0 1-10.752 14.116571L153.6 402.285714h-65.828571a14.628571 14.628571 0 0 1-14.628572-14.628571V87.771429c0-8.045714 6.582857-14.628571 14.628572-14.628572h299.885714z" /></svg>