<?xml version="1.0" standalone="no"?><!DOCTYPE svg PUBLIC "-//W3C//DTD SVG 1.1//EN" "http://www.w3.org/Graphics/SVG/1.1/DTD/svg11.dtd"><svg class="icon" width="200px" height="200.00px" viewBox="0 0 1024 1024" version="1.1" xmlns="http://www.w3.org/2000/svg"><path d="M87.771429 621.714286a14.628571 14.628571 0 0 0-14.628572 14.628571v299.885714c0 8.045714 6.582857 14.628571 14.628572 14.628572h299.885714a14.628571 14.628571 0 0 0 14.628571-14.628572v-65.828571a14.628571 14.628571 0 0 0-14.628571-14.628571H235.52l190.025143-190.098286a14.628571 14.628571 0 0 0 0-20.699429l-46.518857-46.518857a14.628571 14.628571 0 0 0-20.699429 0L168.228571 788.48V636.342857a14.628571 14.628571 0 0 0-14.628571-14.628571h-65.828571zM936.228571 402.285714a14.628571 14.628571 0 0 0 14.628572-14.628571V87.771429a14.628571 14.628571 0 0 0-14.628572-14.628572H636.342857a14.628571 14.628571 0 0 0-14.628571 14.628572v65.828571c0 8.045714 6.582857 14.628571 14.628571 14.628571h152.137143L598.528 358.326857a14.628571 14.628571 0 0 0 0 20.699429l46.518857 46.518857a14.628571 14.628571 0 0 0 20.699429 0L855.771429 235.52V387.657143c0 8.045714 6.582857 14.628571 14.628571 14.628571h65.828571zM402.285714 87.771429a14.628571 14.628571 0 0 0-14.628571-14.628572H87.771429a14.628571 14.628571 0 0 0-14.628572 14.628572v299.885714c0 8.045714 6.582857 14.628571 14.628572 14.628571h65.828571a14.628571 14.628571 0 0 0 14.628571-14.628571V235.52l190.098286 190.025143a14.628571 14.628571 0 0 0 20.699429 0l46.518857-46.518857a14.628571 14.628571 0 0 0 0-20.699429L235.52 168.228571H387.657143a14.628571 14.628571 0 0 0 14.628571-14.628571v-65.828571zM621.714286 936.228571c0 8.045714 6.582857 14.628571 14.628571 14.628572h299.885714a14.628571 14.628571 0 0 0 14.628572-14.628572V636.342857a14.628571 14.628571 0 0 0-14.628572-14.628571h-65.828571a14.628571 14.628571 0 0 0-14.628571 14.628571v152.137143L665.673143 598.528a14.628571 14.628571 0 0 0-20.699429 0l-46.518857 46.518857a14.628571 14.628571 0 0 0 0 20.699429L788.48 855.771429H636.342857a14.628571 14.628571 0 0 0-14.628571 14.628571v65.828571z" /></svg>