<svg class="icon" width="200px" height="200.00px" viewBox="0 0 1024 1024" version="1.1" xmlns="http://www.w3.org/2000/svg"><path  d="M394.595147 47.018688l8.044007 9.067791L511.891406 189.617008 621.07053 56.086479a151.95862 151.95862 0 0 1 121.6839-55.796163l11.261611 0.658146a152.397384 152.397384 0 0 1 114.078656 232.764335l-7.97088 11.480993h42.998878a120.660117 120.660117 0 0 1 120.221353 110.276034L1023.782812 365.853907v179.161992a14.625469 14.625469 0 0 1-10.74972 14.113577l-3.875749 0.511892h-80.440078V950.872656a73.127344 73.127344 0 0 1-64.571445 72.615453L855.589921 1024H168.192891a73.127344 73.127344 0 0 1-72.615453-64.571444L95.065547 950.872656V559.641368H14.625469l-3.875749-0.511892a14.625469 14.625469 0 0 1-10.237829-10.237828L0 545.015899V365.853907a120.660117 120.660117 0 0 1 110.276034-120.221353l10.384083-0.438764h42.998878l-0.877528-1.096911A152.397384 152.397384 0 0 1 394.595147 47.018688z m69.763485 512.62268H190.131094v369.293085h274.227538V559.641368z m369.293086 0H559.424179v369.293085h274.227539V559.641368z m-369.293086-219.382032h-343.698515a25.59457 25.59457 0 0 0-25.082679 20.475657L95.065547 365.853907v98.721914h369.293085v-124.316485z m438.764063 0h-343.698516v124.316485h369.293086V365.853907a25.59457 25.59457 0 0 0-25.59457-25.594571z m-166.949726-244.903474l-7.678371 0.877528a57.039328 57.039328 0 0 0-33.784833 20.11002L589.260136 245.19379h152.104874l43.583897-58.136239a57.331837 57.331837 0 0 0-40.951312-91.555434l-7.824626-0.146255z m-448.563126 0l-7.824626 0.146255a57.331837 57.331837 0 0 0-45.485208 84.462082l4.533896 7.093352 43.657024 58.136239h152.104875L329.073047 116.34341a57.039328 57.039328 0 0 0-33.784833-20.11002l-7.678371-0.877528z" /></svg>