<svg class="icon" width="200px" height="200.00px" viewBox="0 0 1024 1024" version="1.1" xmlns="http://www.w3.org/2000/svg"><path  d="M204.8 512c8.045714 0 14.628571 6.582857 14.628571 14.628571v65.828572a14.628571 14.628571 0 0 1-10.752 14.116571L204.8 607.085714H95.085714v321.828572h109.714286c8.045714 0 14.628571 6.582857 14.628571 14.628571v65.828572a14.628571 14.628571 0 0 1-10.752 14.116571L204.8 1024H73.142857a73.142857 73.142857 0 0 1-73.142857-73.142857V585.142857a73.142857 73.142857 0 0 1 73.142857-73.142857h131.657143z m346.916571-438.857143c68.534857 0 124.050286 55.588571 124.050286 124.050286V365.714286h276.48c46.153143 0 79.36 27.867429 70.290286 73.142857l-115.565714 526.336a73.142857 73.142857 0 0 1-63.122286 58.294857l-8.630857 0.512H307.2a14.628571 14.628571 0 0 1-14.628571-14.628571V512l139.264-346.697143c14.482286-54.345143 63.634286-92.16 119.954285-92.16z m0 95.085714c-13.165714 0-24.576 8.777143-27.940571 21.504l-1.462857 5.632L387.657143 530.358857V928.914286h429.933714l102.765714-468.114286H580.754286V197.193143a28.964571 28.964571 0 0 0-23.113143-28.379429l-5.851429-0.585143z" /></svg>