<svg class="icon" width="200px" height="200.00px" viewBox="0 0 1024 1024" version="1.1" xmlns="http://www.w3.org/2000/svg"><path  d="M950.857143 0a73.142857 73.142857 0 0 1 57.051428 118.857143L810.422857 365.714286l197.485714 246.857143a73.142857 73.142857 0 0 1-48.859428 118.491428L950.857143 731.428571H168.228571v274.285715a18.285714 18.285714 0 0 1-14.116571 17.773714L149.942857 1024h-58.514286a18.285714 18.285714 0 0 1-18.285714-18.285714V18.285714A18.285714 18.285714 0 0 1 91.428571 0H950.857143z m-45.641143 95.085714H168.228571v541.257143h736.987429L697.782857 377.124571a18.285714 18.285714 0 0 1-2.56-18.505142l2.56-4.388572L905.216 95.085714z" /></svg>