<?xml version="1.0" standalone="no"?><!DOCTYPE svg PUBLIC "-//W3C//DTD SVG 1.1//EN" "http://www.w3.org/Graphics/SVG/1.1/DTD/svg11.dtd"><svg class="icon" width="200px" height="200.00px" viewBox="0 0 1024 1024" version="1.1" xmlns="http://www.w3.org/2000/svg"><path d="M104.379733 924.535467a34.133333 34.133333 0 0 0 34.133334 34.133333h375.466666v-88.746667h-320.853333v-709.973333h641.706667v389.12h88.746666v-443.733333a34.133333 34.133333 0 0 0-34.133333-34.133334h-750.933333a34.133333 34.133333 0 0 0-34.133334 34.133334v819.2z m204.8-634.88c0-7.509333 6.144-13.653333 13.653334-13.653334h382.293333c7.509333 0 13.653333 6.144 13.653333 13.653334v61.44a13.653333 13.653333 0 0 1-13.653333 13.653333h-382.293333a13.653333 13.653333 0 0 1-13.653334-13.653333v-61.44z m13.653334 191.146666a13.653333 13.653333 0 0 0-13.653334 13.653334v61.44c0 7.5776 6.144 13.653333 13.653334 13.653333h245.76a13.653333 13.653333 0 0 0 13.653333-13.653333v-61.44a13.653333 13.653333 0 0 0-13.653333-13.653334h-245.76z m664.644266 217.975467a13.653333 13.653333 0 0 1 0 19.319467l-209.169066 209.169066a34.133333 34.133333 0 0 1-48.264534 0l-156.125866-156.125866a13.653333 13.653333 0 0 1 0-19.319467l43.485866-43.4176a13.653333 13.653333 0 0 1 19.2512 0l117.486934 117.486933 170.461866-170.3936a13.653333 13.653333 0 0 1 19.2512 0l43.6224 43.281067z" /></svg>