<?xml version="1.0" standalone="no"?><!DOCTYPE svg PUBLIC "-//W3C//DTD SVG 1.1//EN" "http://www.w3.org/Graphics/SVG/1.1/DTD/svg11.dtd"><svg class="icon" width="200px" height="200.00px" viewBox="0 0 1024 1024" version="1.1" xmlns="http://www.w3.org/2000/svg"><path d="M524.873143 294.546286a18.285714 18.285714 0 0 1-25.746286 0l-69.997714-69.046857a195.949714 195.949714 0 0 0-276.772572 0 195.949714 195.949714 0 0 0 0 276.772571L512 861.988571l359.643429-359.716571a195.949714 195.949714 0 0 0 0-276.772571 195.949714 195.949714 0 0 0-276.772572 0l-69.997714 69.046857zM510.537143 172.470857h2.779428l14.189715-14.189714a291.035429 291.035429 0 0 1 411.282285 0 290.962286 290.962286 0 0 1 0 411.282286L515.657143 992.841143a5.12 5.12 0 0 1-7.168 0L85.138286 569.563429a291.035429 291.035429 0 0 1 0-411.282286 291.035429 291.035429 0 0 1 411.282285 0l14.189715 14.189714z" /></svg>