<?xml version="1.0" standalone="no"?><!DOCTYPE svg PUBLIC "-//W3C//DTD SVG 1.1//EN" "http://www.w3.org/Graphics/SVG/1.1/DTD/svg11.dtd"><svg class="icon" width="200px" height="200.00px" viewBox="0 0 1024 1024" version="1.1" xmlns="http://www.w3.org/2000/svg"><path d="M103.221961 594.261991a15.211965 15.211965 0 0 0-22.452275-10.385091l-59.238902 34.811996a14.407486 14.407486 0 0 0-6.728369 15.797041 511.941127 511.941127 0 1 0 55.216508-381.030467l-49.00008-23.695561A14.626889 14.626889 0 0 0 0.029257 242.924109V448.431905a14.626889 14.626889 0 0 0 22.671679 12.286587L203.562422 343.118301a14.626889 14.626889 0 0 0-1.608958-25.377653l-46.147835-22.452275a416.866346 416.866346 0 1 1-52.656802 298.973618zM490.03005 193.92403a25.597056 25.597056 0 0 0-25.597056 25.597057v286.68703a54.850835 54.850835 0 0 0 43.003054 53.534415l309.066172 68.74638a25.597056 25.597056 0 0 0 30.570199-19.526897l9.507478-42.783651a25.597056 25.597056 0 0 0-19.453763-30.570199L559.507774 474.028961V219.521087a25.597056 25.597056 0 0 0-25.597056-25.597057h-43.880668z" /></svg>