<?xml version="1.0" standalone="no"?><!DOCTYPE svg PUBLIC "-//W3C//DTD SVG 1.1//EN" "http://www.w3.org/Graphics/SVG/1.1/DTD/svg11.dtd"><svg class="icon" width="200px" height="200.00px" viewBox="0 0 1024 1024" version="1.1" xmlns="http://www.w3.org/2000/svg"><path d="M365.714286 563.2a21.942857 21.942857 0 0 0-21.942857 21.942857v270.628572H168.228571V367.616L512 117.540571l343.771429 250.075429V855.771429H680.228571V585.142857a21.942857 21.942857 0 0 0-21.942857-21.942857H365.714286zM520.630857 6.290286a14.628571 14.628571 0 0 0-17.261714 0l-424.228572 308.516571A14.628571 14.628571 0 0 0 73.142857 326.582857V936.228571c0 8.045714 6.582857 14.628571 14.628572 14.628572h336.457142a14.628571 14.628571 0 0 0 14.628572-14.628572V665.6a7.314286 7.314286 0 0 1 7.314286-7.314286h131.657142a7.314286 7.314286 0 0 1 7.314286 7.314286v270.628571c0 8.045714 6.582857 14.628571 14.628572 14.628572h336.457142a14.628571 14.628571 0 0 0 14.628572-14.628572V326.582857a14.628571 14.628571 0 0 0-5.997714-11.776L520.630857 6.290286zM365.714286 563.2a21.942857 21.942857 0 0 0-21.942857 21.942857v270.628572H168.228571V367.616L512 117.540571l343.771429 250.075429V855.771429H680.228571V585.142857a21.942857 21.942857 0 0 0-21.942857-21.942857H365.714286zM520.630857 6.290286a14.628571 14.628571 0 0 0-17.261714 0l-424.228572 308.516571A14.628571 14.628571 0 0 0 73.142857 326.582857V936.228571c0 8.045714 6.582857 14.628571 14.628572 14.628572h336.457142a14.628571 14.628571 0 0 0 14.628572-14.628572V665.6a7.314286 7.314286 0 0 1 7.314286-7.314286h131.657142a7.314286 7.314286 0 0 1 7.314286 7.314286v270.628571c0 8.045714 6.582857 14.628571 14.628572 14.628572h336.457142a14.628571 14.628571 0 0 0 14.628572-14.628572V326.582857a14.628571 14.628571 0 0 0-5.997714-11.776L520.630857 6.290286z" /></svg>