<svg width="200px" height="200.00px" viewBox="0 0 14 14" version="1.1" xmlns="http://www.w3.org/2000/svg" xmlns:xlink="http://www.w3.org/1999/xlink">    <title>Hot</title><path d="M8.04,0.0852025918 C7.98,0.495202592 8.07,0.885202592 8.25,1.26520259 C8.554,1.85720259 9.1012,2.43640259 9.7124,3.01304259 L10.18,3.44520259 C11.22,4.41520259 12.33,5.43520259 12.71,6.70520259 C12.95,7.39520259 13.05,8.13520259 12.97,8.96520259 C12.91,9.55520259 12.74,10.0952026 12.5,10.5952026 C11.53,12.7152026 9.28,14.0052026 6.98,14.0052026 C4.11,14.0052026 1.7,12.1152026 1.13,9.59520259 C1.04,9.22520259 1,8.83520259 1,8.43520259 C1,7.55520259 1.21,6.73520259 1.6,5.99520259 C1.69,5.82520259 1.79,5.65520259 1.89,5.49520259 C2.13,5.14520259 2.41,4.81520259 2.72,4.52520259 C2.72,4.86520259 2.8,5.34520259 2.88,5.80520259 L2.92625,6.01395259 L2.98,6.21520259 C3.17,6.94520259 3.52,7.57520259 4.12,7.63520259 C4.7,7.69520259 4.79,7.25520259 4.69,6.70520259 C4.41933333,5.39053593 4.52244444,2.72092481 6.53493704,0.936544073 L6.81625,0.700202592 L6.89,0.645202592 C7.2,0.415202592 7.55,0.195202592 7.94,0.00520259177 C7.99,-0.0147974082 8.05,0.0252025918 8.04,0.0852025918 Z M7.21,2.08520259 C7.12,2.17520259 7.04,2.26520259 6.95,2.36520259 C6.61,2.77520259 6.35,3.25520259 6.17,3.79520259 C6,4.26520259 5.91,4.76520259 5.89,5.28520259 C5.874,5.62920259 5.8836,5.94760259 5.92392,6.24040259 L5.96,6.45520259 C6.08,7.04520259 6.03,7.54520259 5.83,7.96520259 C5.74,8.15520259 5.62,8.31520259 5.48,8.45520259 C5.3825,8.55270259 5.27375,8.63332759 5.14953125,8.70129634 L4.9,8.82520259 C4.63,8.92520259 4.33,8.96520259 4,8.93520259 C3.85,8.91520259 3.7,8.88520259 3.56,8.84520259 C3.39,8.79520259 3.24,8.71520259 3.09,8.62520259 C2.85,8.48520259 2.64,8.30520259 2.45,8.07520259 L2.33,7.91520259 C2.31,8.08520259 2.3,8.25520259 2.3,8.43520259 C2.3,8.56186926 2.30444444,8.68853593 2.3162963,8.81520259 L2.34,9.00520259 C2.35,9.10520259 2.37,9.20520259 2.39,9.30520259 L2.46555556,9.58223963 C2.47888889,9.62742481 2.49333333,9.67186926 2.51,9.71520259 C2.62,10.0352026 2.77,10.3352026 2.96,10.6252026 C3.02,10.7152026 3.08,10.7952026 3.14,10.8752026 C3.38,11.1852026 3.66,11.4652026 3.98,11.7052026 C4.11,11.8052026 4.24,11.8952026 4.38,11.9852026 C4.68,12.1652026 5.01,12.3152026 5.35,12.4352026 C5.51,12.4852026 5.66,12.5352026 5.82,12.5652026 C6.2,12.6552026 6.58,12.7052026 6.98,12.7052026 C7.12,12.7052026 7.26,12.6952026 7.4,12.6852026 C7.71,12.6552026 8.02,12.5952026 8.33,12.5152026 C8.64,12.4252026 8.94,12.3152026 9.22,12.1752026 C9.34,12.1152026 9.46,12.0452026 9.57,11.9852026 C9.93,11.7652026 10.31,11.4452026 10.59,11.1452026 C10.82,10.8952026 11.01,10.6252026 11.17,10.3452026 L11.2818519,10.1303878 L11.33,10.0252026 C11.49,9.69520259 11.6,9.36520259 11.65,9.01520259 L11.66375,8.92520259 L11.67,8.83520259 C11.72,8.35520259 11.69,7.88520259 11.58,7.44520259 L11.47,7.08520259 C11.35,6.69520259 11.1,6.26520259 10.7,5.80520259 C10.564,5.64520259 10.396,5.45960259 10.20112,5.26376259 L9.89058309,4.96045041 L8.82346939,3.96701017 C8.64306122,3.79499851 8.49857143,3.65377402 8.39,3.54520259 C8.04,3.19520259 7.76,2.87520259 7.54,2.58520259 C7.42,2.41520259 7.31,2.24520259 7.21,2.08520259 Z" id="形状" ></path></svg>