<?xml version="1.0" standalone="no"?><!DOCTYPE svg PUBLIC "-//W3C//DTD SVG 1.1//EN" "http://www.w3.org/Graphics/SVG/1.1/DTD/svg11.dtd"><svg class="icon" width="200px" height="200.00px" viewBox="0 0 1024 1024" version="1.1" xmlns="http://www.w3.org/2000/svg"><path d="M455.533714 73.142857c-22.674286 28.452571-41.618286 60.342857-55.661714 95.085714H310.784L118.052571 501.028571h219.648a36.571429 36.571429 0 0 1 35.474286 27.721143l26.916572 107.52a14.628571 14.628571 0 0 0 14.189714 11.044572h195.437714a14.628571 14.628571 0 0 0 14.189714-11.117715l26.916572-107.52a36.571429 36.571429 0 0 1 35.474286-27.648h219.648L700.708571 148.918857l3.730286-5.778286 2.267429-2.706285a163.693714 163.693714 0 0 1 73.508571-46.08l240.420572 415.158857c2.194286 3.657143 3.291429 7.899429 3.291428 12.214857v404.772571c0 13.458286-10.971429 24.356571-24.356571 24.356572H24.356571A24.356571 24.356571 0 0 1 0 926.500571V521.728c0-4.315429 1.097143-8.557714 3.291429-12.214857l245.686857-424.228572A24.356571 24.356571 0 0 1 270.043429 73.142857h185.490285zM292.059429 596.114286H95.085714v259.657143h833.828572V596.114286h-196.900572l-29.696 118.564571a36.571429 36.571429 0 0 1-35.474285 27.721143H357.156571a36.571429 36.571429 0 0 1-35.474285-27.721143L292.059429 596.114286zM790.381714 1.609143L804.571429 3.364571v12.434286C669.037714 27.282286 582.217143 148.187429 576.365714 286.061714l-0.219428 14.848V329.142857h44.032a10.971429 10.971429 0 0 1 10.825143 12.873143l-1.097143 3.218286L529.554286 536.649143a21.504 21.504 0 0 1-35.254857 4.754286l-3.291429-4.754286L390.656 345.234286a10.971429 10.971429 0 0 1 6.363429-15.579429l3.364571-0.512h44.105143v-12.141714a314.514286 314.514286 0 0 1 345.965714-315.392z" /></svg>