<?xml version="1.0" standalone="no"?><!DOCTYPE svg PUBLIC "-//W3C//DTD SVG 1.1//EN" "http://www.w3.org/Graphics/SVG/1.1/DTD/svg11.dtd"><svg class="icon" width="200px" height="200.00px" viewBox="0 0 1024 1024" version="1.1" xmlns="http://www.w3.org/2000/svg"><path d="M219.428571 62.171429A157.257143 157.257143 0 0 0 62.171429 219.428571v585.142858A157.257143 157.257143 0 0 0 219.428571 961.828571h585.142858A157.257143 157.257143 0 0 0 961.828571 804.571429V453.485714a25.6 25.6 0 0 0-25.6-25.6h-43.885714a25.6 25.6 0 0 0-25.6 25.6V804.571429c0 34.377143-27.794286 62.171429-62.171428 62.171428H219.428571a62.171429 62.171429 0 0 1-62.171428-62.171428V219.428571c0-34.377143 27.794286-62.171429 62.171428-62.171428h277.942858a25.6 25.6 0 0 0 25.6-25.6v-43.885714A25.6 25.6 0 0 0 497.371429 62.171429H219.428571zM512 301.275429a18.285714 18.285714 0 0 1 31.232-12.946286L621.714286 366.811429V266.971429A193.828571 193.828571 0 0 1 815.542857 73.142857h73.142857a25.6 25.6 0 0 1 25.6 25.6v43.885714a25.6 25.6 0 0 1-25.6 25.6h-73.142857A98.742857 98.742857 0 0 0 716.8 266.971429v99.84l78.482286-78.482286a18.285714 18.285714 0 0 1 31.232 12.946286v79.725714a25.6 25.6 0 0 1-7.533715 18.066286l-131.657142 131.657142a25.6 25.6 0 0 1-36.132572 0l-131.657143-131.657142A25.6 25.6 0 0 1 512 380.928v-79.725714zM219.428571 62.171429A157.257143 157.257143 0 0 0 62.171429 219.428571v585.142858A157.257143 157.257143 0 0 0 219.428571 961.828571h585.142858A157.257143 157.257143 0 0 0 961.828571 804.571429V453.485714a25.6 25.6 0 0 0-25.6-25.6h-43.885714a25.6 25.6 0 0 0-25.6 25.6V804.571429c0 34.377143-27.794286 62.171429-62.171428 62.171428H219.428571a62.171429 62.171429 0 0 1-62.171428-62.171428V219.428571c0-34.377143 27.794286-62.171429 62.171428-62.171428h277.942858a25.6 25.6 0 0 0 25.6-25.6v-43.885714A25.6 25.6 0 0 0 497.371429 62.171429H219.428571zM512 301.275429a18.285714 18.285714 0 0 1 31.232-12.946286L621.714286 366.811429V266.971429A193.828571 193.828571 0 0 1 815.542857 73.142857h73.142857a25.6 25.6 0 0 1 25.6 25.6v43.885714a25.6 25.6 0 0 1-25.6 25.6h-73.142857A98.742857 98.742857 0 0 0 716.8 266.971429v99.84l78.482286-78.482286a18.285714 18.285714 0 0 1 31.232 12.946286v79.725714a25.6 25.6 0 0 1-7.533715 18.066286l-131.657142 131.657142a25.6 25.6 0 0 1-36.132572 0l-131.657143-131.657142A25.6 25.6 0 0 1 512 380.928v-79.725714z" /></svg>