<svg class="icon" width="200px" height="200.00px" viewBox="0 0 1024 1024" version="1.1" xmlns="http://www.w3.org/2000/svg"><path  d="M454.948571 179.785143A32.914286 32.914286 0 0 1 487.862857 146.285714h48.274286a32.914286 32.914286 0 0 1 32.841143 33.499429l-5.12 533.357714a32.914286 32.914286 0 0 1-32.914286 32.329143h-38.034286a32.914286 32.914286 0 0 1-32.914285-32.329143l-5.12-533.357714zM447.634286 867.986286c0-35.986286 28.818286-63.414857 64.146285-63.414857 35.986286 0 64.438857 27.428571 64.438858 63.414857 0 36.059429-28.525714 63.488-64.438858 63.488a63.268571 63.268571 0 0 1-64.146285-63.488zM454.948571 179.785143A32.914286 32.914286 0 0 1 487.862857 146.285714h48.274286a32.914286 32.914286 0 0 1 32.841143 33.499429l-5.12 533.357714a32.914286 32.914286 0 0 1-32.914286 32.329143h-38.034286a32.914286 32.914286 0 0 1-32.914285-32.329143l-5.12-533.357714zM447.634286 867.986286c0-35.986286 28.818286-63.414857 64.146285-63.414857 35.986286 0 64.438857 27.428571 64.438858 63.414857 0 36.059429-28.525714 63.488-64.438858 63.488a63.268571 63.268571 0 0 1-64.146285-63.488z" /></svg>