<svg class="icon" width="200px" height="200.00px" viewBox="0 0 1024 1024" version="1.1" xmlns="http://www.w3.org/2000/svg"><path  d="M845.019429 293.083429a14.628571 14.628571 0 0 1 10.24 10.24l0.512 3.876571V585.142857h80.457142a14.628571 14.628571 0 0 1 14.116572 10.752L950.857143 599.771429v194.194285A157.257143 157.257143 0 0 1 804.864 950.857143l-11.264 0.365714h-563.2a157.257143 157.257143 0 0 1-156.891429-145.993143L73.142857 793.965714V599.771429a14.628571 14.628571 0 0 1 10.752-14.116572L87.771429 585.142857H146.285714V146.285714a73.142857 73.142857 0 0 1 64.585143-72.630857L219.428571 73.142857h131.657143a14.628571 14.628571 0 0 1 14.116572 10.752L365.714286 87.771429v65.828571a14.628571 14.628571 0 0 1-10.752 14.116571L351.085714 168.228571H256a14.628571 14.628571 0 0 0-14.116571 10.752L241.371429 182.857143V585.142857h519.314285V307.2a14.628571 14.628571 0 0 1 10.752-14.116571L775.314286 292.571429h65.828571l3.876572 0.512zM855.771429 680.228571H168.228571v113.737143c0 31.744 23.698286 57.856 54.345143 61.732572l7.826286 0.438857h563.2a62.171429 62.171429 0 0 0 61.659429-54.345143l0.512-7.826286V680.228571zM669.549714 228.132571v79.725715a25.6 25.6 0 0 1-7.460571 18.066285l-131.657143 131.657143a25.526857 25.526857 0 0 1-9.801143 6.144l-5.558857 1.170286h-5.558857a25.526857 25.526857 0 0 1-15.36-7.314286l-131.657143-131.657143a25.6 25.6 0 0 1-7.460571-18.066285v-79.725715a18.285714 18.285714 0 0 1 19.382857-18.285714l4.169143 0.731429a18.285714 18.285714 0 0 1 7.68 4.608l78.482285 78.482285V193.828571A193.828571 193.828571 0 0 1 658.578286 0h73.142857a25.6 25.6 0 0 1 25.6 25.6v43.885714c0 12.434286-8.777143 22.674286-20.48 25.088l-5.12 0.512h-73.142857a98.742857 98.742857 0 0 0-98.742857 98.742857v99.84l78.482285-78.482285a18.285714 18.285714 0 0 1 31.232 12.946285z" /></svg>