<?xml version="1.0" standalone="no"?><!DOCTYPE svg PUBLIC "-//W3C//DTD SVG 1.1//EN" "http://www.w3.org/Graphics/SVG/1.1/DTD/svg11.dtd"><svg class="icon" width="200px" height="200.00px" viewBox="0 0 1024 1024" version="1.1" xmlns="http://www.w3.org/2000/svg"><path d="M950.825798 76.867652V73.210771a73.137633 73.137633 0 0 0-73.137633-73.137633H219.449468a146.275266 146.275266 0 1 0 0 292.404256h391.286337v204.419685a7.313763 7.313763 0 0 0 11.775159 5.85101L658.275266 475.102064l35.764303 27.49975a7.313763 7.313763 0 0 0 11.775159-5.85101V292.550532h131.647739a18.284408 18.284408 0 0 1 18.284408 18.284408v581.078495a36.568817 36.568817 0 0 1-36.568816 36.568816H204.821941a36.568817 36.568817 0 0 1-36.568816-36.568816V349.524748l-7.533176-1.24334A161.780444 161.780444 0 0 1 73.174202 303.155489v610.626098a109.70645 109.70645 0 0 0 109.706449 109.633312h658.238698a109.70645 109.70645 0 0 0 109.706449-109.70645V270.609242a73.137633 73.137633 0 0 0-73.137633-73.137633H219.449468A51.196343 51.196343 0 1 1 219.449468 95.152061h713.091922a18.284408 18.284408 0 0 0 18.284408-18.284409z" /></svg>
