<?xml version="1.0" standalone="no"?><!DOCTYPE svg PUBLIC "-//W3C//DTD SVG 1.1//EN" "http://www.w3.org/Graphics/SVG/1.1/DTD/svg11.dtd"><svg class="icon" width="200px" height="200.00px" viewBox="0 0 1024 1024" version="1.1" xmlns="http://www.w3.org/2000/svg"><path d="M658.285714 292.571429a73.142857 73.142857 0 1 1 146.285715 0 73.142857 73.142857 0 0 1-146.285715 0zM440.685714 1012.882286l499.492572-499.419429A36.571429 36.571429 0 0 0 950.857143 487.570286V111.177143A38.034286 38.034286 0 0 0 912.822857 73.142857H536.502857a36.571429 36.571429 0 0 0-25.892571 10.678857L11.117714 583.314286a38.034286 38.034286 0 0 0 0 53.686857l375.954286 375.881143a37.961143 37.961143 0 0 0 53.613714 0zM855.771429 168.228571v295.131429l-441.929143 441.929143-295.131429-295.131429L560.64 168.228571H855.771429zM658.285714 292.571429a73.142857 73.142857 0 1 1 146.285715 0 73.142857 73.142857 0 0 1-146.285715 0zM440.685714 1012.882286l499.492572-499.419429A36.571429 36.571429 0 0 0 950.857143 487.570286V111.177143A38.034286 38.034286 0 0 0 912.822857 73.142857H536.502857a36.571429 36.571429 0 0 0-25.892571 10.678857L11.117714 583.314286a38.034286 38.034286 0 0 0 0 53.686857l375.954286 375.881143a37.961143 37.961143 0 0 0 53.613714 0zM855.771429 168.228571v295.131429l-441.929143 441.929143-295.131429-295.131429L560.64 168.228571H855.771429z" /></svg>