<?xml version="1.0" standalone="no"?><!DOCTYPE svg PUBLIC "-//W3C//DTD SVG 1.1//EN" "http://www.w3.org/Graphics/SVG/1.1/DTD/svg11.dtd"><svg class="icon" width="200px" height="200.00px" viewBox="0 0 1024 1024" version="1.1" xmlns="http://www.w3.org/2000/svg"><path d="M680.228571 336.896a14.628571 14.628571 0 0 0 14.628572-14.482286v-65.170285a14.628571 14.628571 0 0 0-14.628572-14.555429H343.771429a14.628571 14.628571 0 0 0-14.628572 14.555429v65.170285a14.628571 14.628571 0 0 0 14.628572 14.482286h336.457142zM877.714286 0c40.374857 0 73.142857 32.402286 73.142857 72.411429v879.030857c0 57.782857-65.097143 92.379429-113.737143 60.269714L512 796.964571l-325.12 214.747429C138.24 1043.748571 73.142857 1009.298286 73.142857 951.442286V72.411429C73.142857 32.402286 105.910857 0 146.285714 0h731.428572z m-21.942857 94.208H168.228571v816.566857L512 683.885714l343.771429 226.962286V94.208z" /></svg>