<?xml version="1.0" standalone="no"?><!DOCTYPE svg PUBLIC "-//W3C//DTD SVG 1.1//EN" "http://www.w3.org/Graphics/SVG/1.1/DTD/svg11.dtd"><svg class="icon" width="200px" height="200.00px" viewBox="0 0 1024 1024" version="1.1" xmlns="http://www.w3.org/2000/svg"><path d="M519.168 3.072l493.714286 211.602286a18.285714 18.285714 0 0 1 11.117714 16.822857V347.428571a18.285714 18.285714 0 0 1-18.285714 18.285715h-80.457143v402.285714H950.857143a73.142857 73.142857 0 0 1 73.142857 73.142857v164.571429a18.285714 18.285714 0 0 1-18.285714 18.285714H18.285714a18.285714 18.285714 0 0 1-18.285714-18.285714V841.142857a73.142857 73.142857 0 0 1 73.142857-73.142857h25.6V365.714286H18.285714A18.285714 18.285714 0 0 1 0 347.428571V231.497143c0-7.314286 4.388571-13.897143 11.117714-16.822857L504.832 3.072a18.285714 18.285714 0 0 1 14.336 0zM928.914286 863.085714H95.085714v65.828572h833.828572v-65.828572zM830.171429 365.714286h-636.342858v402.285714H365.714286V585.142857a146.285714 146.285714 0 1 1 292.571428 0v182.857143h171.885715V365.714286zM512 533.942857a51.2 51.2 0 0 0-51.2 51.2v182.857143h102.4V585.142857a51.2 51.2 0 0 0-51.2-51.2z m0-430.518857L121.929143 270.628571h780.141714L512 103.424z" /></svg>