<?xml version="1.0" standalone="no"?><!DOCTYPE svg PUBLIC "-//W3C//DTD SVG 1.1//EN" "http://www.w3.org/Graphics/SVG/1.1/DTD/svg11.dtd"><svg class="icon" width="200px" height="200.00px" viewBox="0 0 1024 1024" version="1.1" xmlns="http://www.w3.org/2000/svg"><path d="M0 511.707794c0 37.887973 4.095997 74.825089 11.922277 110.372493 1.82857 8.191994 9.142851 13.897133 17.554273 13.897133h59.611386a19.163415 19.163415 0 0 0 18.139416-23.917697 416.767702 416.767702 0 0 1 678.399515-414.719704l-61.220527 64.14624a18.285701 18.285701 0 0 0 13.165705 30.939406h208.237565a17.554273 17.554273 0 0 0 15.798846-25.746267A511.999634 511.999634 0 0 0 511.999634 0.000731C229.229551 0.000731 0 229.083996 0 511.707794zM460.799671 445.659842l-68.169094 113.517633H201.142713a18.285701 18.285701 0 0 1-18.285701-18.285701v-58.441101a18.285701 18.285701 0 0 1 18.285701-18.285702h137.654759l83.090227-138.386187a58.514244 58.514244 0 0 1 106.203352 13.311991l63.487955 211.382706 34.523404-86.30851h196.754145a18.285701 18.285701 0 0 1 18.285701 18.285702v58.514243a18.285701 18.285701 0 0 1-18.285701 18.285702H690.468078l-49.517679 123.684483c-20.553128 51.419392-94.427361 48.127966-110.372492-4.900568L460.799671 445.659842zM916.771917 411.355866a19.163415 19.163415 0 0 1 18.139415-23.917697h59.611386c8.411423 0 15.725703 5.705139 17.554273 13.897133A511.853349 511.853349 0 0 1 511.999634 1023.414858a511.926491 511.926491 0 0 1-449.608821-266.678667 17.554273 17.554273 0 0 1 15.798845-25.746267h208.237566a18.285701 18.285701 0 0 1 13.165705 30.939406l-61.293671 64.073097a416.767702 416.767702 0 0 0 678.399516-414.719704z" /></svg>