<?xml version="1.0" standalone="no"?><!DOCTYPE svg PUBLIC "-//W3C//DTD SVG 1.1//EN" "http://www.w3.org/Graphics/SVG/1.1/DTD/svg11.dtd"><svg class="icon" width="200px" height="200.00px" viewBox="0 0 1024 1024" version="1.1" xmlns="http://www.w3.org/2000/svg"><path d="M511.608717 928.997955a416.547426 416.547426 0 0 0 408.874184-496.349144 15.492641 15.492641 0 0 1 10.23099-17.904231l58.462796-20.023508a17.758074 17.758074 0 0 1 23.238962 12.934894 511.549471 511.549471 0 1 1-51.593418-140.164555 17.538839 17.538839 0 0 1-15.784955 25.72363h-207.981399a18.269624 18.269624 0 0 1-13.227208-30.912203l61.239779-64.089841A416.547426 416.547426 0 1 0 511.608717 928.997955zM460.45377 446.387569L392.344612 559.951551H201.025109a18.269624 18.269624 0 0 1-18.269624-18.269624v-58.462796a18.269624 18.269624 0 0 1 18.269624-18.269624h137.53373l83.017171-138.337593a58.462797 58.462797 0 0 1 106.109976 13.227208l63.432134 211.34301 34.49305-86.232625h196.581154a18.269624 18.269624 0 0 1 18.269624 18.269624v58.462796a18.269624 18.269624 0 0 1-18.269624 18.269624H689.920247l-49.474142 123.721894c-20.535057 51.374183-94.344338 48.08565-110.27545-4.969338L460.45377 446.387569z" /></svg>