<?xml version="1.0" standalone="no"?><!DOCTYPE svg PUBLIC "-//W3C//DTD SVG 1.1//EN" "http://www.w3.org/Graphics/SVG/1.1/DTD/svg11.dtd"><svg class="icon" width="200px" height="200.00px" viewBox="0 0 1024 1024" version="1.1" xmlns="http://www.w3.org/2000/svg"><path d="M91.428571 73.142857a18.285714 18.285714 0 0 0-18.285714 18.285714v58.514286c0 10.093714 8.192 18.285714 18.285714 18.285714h841.142858a18.285714 18.285714 0 0 0 18.285714-18.285714v-58.514286a18.285714 18.285714 0 0 0-18.285714-18.285714H91.428571zM91.428571 855.771429a18.285714 18.285714 0 0 0-18.285714 18.285714v58.514286c0 10.093714 8.192 18.285714 18.285714 18.285714h841.142858a18.285714 18.285714 0 0 0 18.285714-18.285714v-58.514286a18.285714 18.285714 0 0 0-18.285714-18.285714H91.428571zM638.683429 407.552c15.213714 0 24.649143-15.506286 16.822857-27.721143L528.822857 182.857143a20.333714 20.333714 0 0 0-33.645714 0L368.64 379.830857c-7.899429 12.214857 1.536 27.721143 16.822857 27.721143h75.629714V621.714286H385.316571c-15.213714 0-24.649143 15.506286-16.822857 27.721143l126.683429 196.973714a20.333714 20.333714 0 0 0 33.645714 0L655.36 649.435429c7.899429-12.214857-1.536-27.721143-16.822857-27.721143H563.053714V407.552h75.702857z" /></svg>