<?xml version="1.0" standalone="no"?><!DOCTYPE svg PUBLIC "-//W3C//DTD SVG 1.1//EN" "http://www.w3.org/Graphics/SVG/1.1/DTD/svg11.dtd"><svg class="icon" width="200px" height="200.00px" viewBox="0 0 1024 1024" version="1.1" xmlns="http://www.w3.org/2000/svg"><path d="M1024 36.571429v950.857142h-95.085714V36.571429zM0 36.571429h95.085714v950.857142H0zM713.142857 720.457143h-329.142857a153.6 153.6 0 1 1 0-307.2h305.737143l-67.437714 67.510857A18.285714 18.285714 0 0 0 635.172571 512h82.797715a18.285714 18.285714 0 0 0 12.873143-5.339429l128-128a18.285714 18.285714 0 0 0 0-25.892571l-128-128A18.285714 18.285714 0 0 0 717.970286 219.428571H635.172571a18.285714 18.285714 0 0 0-12.873142 31.232l67.510857 67.510858H384a248.685714 248.685714 0 0 0 0 497.371428h329.142857a18.285714 18.285714 0 0 0 18.285714-18.285714v-58.514286a18.285714 18.285714 0 0 0-18.285714-18.285714z" /></svg>