<?xml version="1.0" standalone="no"?><!DOCTYPE svg PUBLIC "-//W3C//DTD SVG 1.1//EN" "http://www.w3.org/Graphics/SVG/1.1/DTD/svg11.dtd"><svg class="icon" width="200px" height="200.00px" viewBox="0 0 1024 1024" version="1.1" xmlns="http://www.w3.org/2000/svg"><path d="M229.741714 633.417143a14.628571 14.628571 0 0 0 0 20.772571l46.592 46.518857a14.628571 14.628571 0 0 0 20.699429 0l129.243428-129.316571 102.692572 102.692571a36.571429 36.571429 0 0 0 51.712 0l15.506286-15.506285 0.731428 0.731428 233.106286-233.033143a14.628571 14.628571 0 0 0 0-20.626285l-12.434286-12.434286a14.628571 14.628571 0 0 0-10.386286-4.315429H631.954286a14.628571 14.628571 0 0 0-7.314286 1.901715l-0.512 0.365714a14.628571 14.628571 0 0 0-3.072 23.04l43.300571 43.300571-108.763428 108.763429-103.424-103.497143a36.571429 36.571429 0 0 0-51.712 0L229.668571 633.490286zM73.142857 109.714286a36.571429 36.571429 0 0 1 36.571429-36.571429h804.571428a36.571429 36.571429 0 0 1 36.571429 36.571429v804.571428a36.571429 36.571429 0 0 1-36.571429 36.571429h-804.571428a36.571429 36.571429 0 0 1-36.571429-36.571429v-804.571428z m95.085714 746.057143h687.542858V168.228571H168.228571v687.542858zM229.741714 633.417143a14.628571 14.628571 0 0 0 0 20.772571l46.592 46.518857a14.628571 14.628571 0 0 0 20.699429 0l129.243428-129.316571 102.692572 102.692571a36.571429 36.571429 0 0 0 51.712 0l15.506286-15.506285 0.731428 0.731428 233.106286-233.033143a14.628571 14.628571 0 0 0 0-20.626285l-12.434286-12.434286a14.628571 14.628571 0 0 0-10.386286-4.315429H631.954286a14.628571 14.628571 0 0 0-7.314286 1.901715l-0.512 0.365714a14.628571 14.628571 0 0 0-3.072 23.04l43.300571 43.300571-108.763428 108.763429-103.424-103.497143a36.571429 36.571429 0 0 0-51.712 0L229.668571 633.490286zM73.142857 109.714286a36.571429 36.571429 0 0 1 36.571429-36.571429h804.571428a36.571429 36.571429 0 0 1 36.571429 36.571429v804.571428a36.571429 36.571429 0 0 1-36.571429 36.571429h-804.571428a36.571429 36.571429 0 0 1-36.571429-36.571429v-804.571428z m95.085714 746.057143h687.542858V168.228571H168.228571v687.542858z" /></svg>