<?xml version="1.0" standalone="no"?><!DOCTYPE svg PUBLIC "-//W3C//DTD SVG 1.1//EN" "http://www.w3.org/Graphics/SVG/1.1/DTD/svg11.dtd"><svg class="icon" width="200px" height="200.00px" viewBox="0 0 1024 1024" version="1.1" xmlns="http://www.w3.org/2000/svg"><path d="M0 987.428571V36.571429h95.085714v950.857142zM1024 987.428571h-95.085714V36.571429H1024zM310.857143 303.542857h329.142857a153.6 153.6 0 1 1 0 307.2H334.262857l67.437714-67.510857A18.285714 18.285714 0 0 0 388.827429 512H306.029714a18.285714 18.285714 0 0 0-12.873143 5.339429l-128 128a18.285714 18.285714 0 0 0 0 25.892571l128 128a18.285714 18.285714 0 0 0 12.873143 5.339429h82.797715a18.285714 18.285714 0 0 0 12.873142-31.232L334.262857 705.828571H640a248.685714 248.685714 0 1 0 0-497.371428h-329.142857A18.285714 18.285714 0 0 0 292.571429 226.742857v58.514286c0 10.093714 8.192 18.285714 18.285714 18.285714z" /></svg>