<?xml version="1.0" standalone="no"?><!DOCTYPE svg PUBLIC "-//W3C//DTD SVG 1.1//EN" "http://www.w3.org/Graphics/SVG/1.1/DTD/svg11.dtd"><svg class="icon" width="200px" height="200.00px" viewBox="0 0 1024 1024" version="1.1" xmlns="http://www.w3.org/2000/svg"><path d="M926.573714 135.168a212.187429 212.187429 0 0 0-299.958857 0L503.954286 257.755429a167.424 167.424 0 0 0-45.860572 151.259428l47.323429 236.397714a120.758857 120.758857 0 0 1-33.060572 109.129143l-104.374857 104.301715A117.028571 117.028571 0 0 1 202.605714 693.467429l157.696-157.696a14.628571 14.628571 0 0 0 0-20.699429l-46.518857-46.518857a14.628571 14.628571 0 0 0-20.699428 0L135.314286 626.249143a211.894857 211.894857 0 0 0 0 299.812571 212.187429 212.187429 0 0 0 300.032 0l104.301714-104.301714a215.771429 215.771429 0 0 0 59.099429-194.998857l-47.323429-236.324572a72.411429 72.411429 0 0 1 19.821714-65.462857l122.660572-122.587428a117.028571 117.028571 0 0 1 165.522285 165.376L701.586286 525.458286a14.628571 14.628571 0 0 0 0 20.626285l46.592 46.592a14.628571 14.628571 0 0 0 20.626285 0l157.769143-157.696a211.894857 211.894857 0 0 0 0-299.812571zM926.573714 135.168a212.187429 212.187429 0 0 0-299.958857 0L503.954286 257.755429a167.424 167.424 0 0 0-45.860572 151.259428l47.323429 236.397714a120.758857 120.758857 0 0 1-33.060572 109.129143l-104.374857 104.301715A117.028571 117.028571 0 0 1 202.605714 693.467429l157.696-157.696a14.628571 14.628571 0 0 0 0-20.699429l-46.518857-46.518857a14.628571 14.628571 0 0 0-20.699428 0L135.314286 626.249143a211.894857 211.894857 0 0 0 0 299.812571 212.187429 212.187429 0 0 0 300.032 0l104.301714-104.301714a215.771429 215.771429 0 0 0 59.099429-194.998857l-47.323429-236.324572a72.411429 72.411429 0 0 1 19.821714-65.462857l122.660572-122.587428a117.028571 117.028571 0 0 1 165.522285 165.376L701.586286 525.458286a14.628571 14.628571 0 0 0 0 20.626285l46.592 46.592a14.628571 14.628571 0 0 0 20.626285 0l157.769143-157.696a211.894857 211.894857 0 0 0 0-299.812571z" /></svg>