<?xml version="1.0" standalone="no"?><!DOCTYPE svg PUBLIC "-//W3C//DTD SVG 1.1//EN" "http://www.w3.org/Graphics/SVG/1.1/DTD/svg11.dtd"><svg class="icon" width="200px" height="200.00px" viewBox="0 0 1024 1024" version="1.1" xmlns="http://www.w3.org/2000/svg"><path d="M146.285714 215.771429c0 8.045714 6.582857 14.628571 14.628572 14.628571h117.028571a14.628571 14.628571 0 0 0 14.628572-14.628571v-65.828572a14.628571 14.628571 0 0 0-14.628572-14.628571H160.914286a14.628571 14.628571 0 0 0-14.628572 14.628571v65.828572zM146.285714 544.914286c0 8.045714 6.582857 14.628571 14.628572 14.628571h117.028571a14.628571 14.628571 0 0 0 14.628572-14.628571v-65.828572a14.628571 14.628571 0 0 0-14.628572-14.628571H160.914286a14.628571 14.628571 0 0 0-14.628572 14.628571v65.828572zM292.571429 874.057143a14.628571 14.628571 0 0 1-14.628572 14.628571H160.914286a14.628571 14.628571 0 0 1-14.628572-14.628571v-65.828572c0-8.045714 6.582857-14.628571 14.628572-14.628571h117.028571c8.045714 0 14.628571 6.582857 14.628572 14.628571v65.828572zM438.857143 215.771429c0 8.045714 6.582857 14.628571 14.628571 14.628571h409.6a14.628571 14.628571 0 0 0 14.628572-14.628571v-65.828572a14.628571 14.628571 0 0 0-14.628572-14.628571H453.485714a14.628571 14.628571 0 0 0-14.628571 14.628571v65.828572zM877.714286 544.914286a14.628571 14.628571 0 0 1-14.628572 14.628571H453.485714a14.628571 14.628571 0 0 1-14.628571-14.628571v-65.828572c0-8.045714 6.582857-14.628571 14.628571-14.628571h409.6c8.045714 0 14.628571 6.582857 14.628572 14.628571v65.828572zM438.857143 874.057143c0 8.045714 6.582857 14.628571 14.628571 14.628571h409.6a14.628571 14.628571 0 0 0 14.628572-14.628571v-65.828572a14.628571 14.628571 0 0 0-14.628572-14.628571H453.485714a14.628571 14.628571 0 0 0-14.628571 14.628571v65.828572zM146.285714 215.771429c0 8.045714 6.582857 14.628571 14.628572 14.628571h117.028571a14.628571 14.628571 0 0 0 14.628572-14.628571v-65.828572a14.628571 14.628571 0 0 0-14.628572-14.628571H160.914286a14.628571 14.628571 0 0 0-14.628572 14.628571v65.828572zM146.285714 544.914286c0 8.045714 6.582857 14.628571 14.628572 14.628571h117.028571a14.628571 14.628571 0 0 0 14.628572-14.628571v-65.828572a14.628571 14.628571 0 0 0-14.628572-14.628571H160.914286a14.628571 14.628571 0 0 0-14.628572 14.628571v65.828572zM292.571429 874.057143a14.628571 14.628571 0 0 1-14.628572 14.628571H160.914286a14.628571 14.628571 0 0 1-14.628572-14.628571v-65.828572c0-8.045714 6.582857-14.628571 14.628572-14.628571h117.028571c8.045714 0 14.628571 6.582857 14.628572 14.628571v65.828572zM438.857143 215.771429c0 8.045714 6.582857 14.628571 14.628571 14.628571h409.6a14.628571 14.628571 0 0 0 14.628572-14.628571v-65.828572a14.628571 14.628571 0 0 0-14.628572-14.628571H453.485714a14.628571 14.628571 0 0 0-14.628571 14.628571v65.828572zM877.714286 544.914286a14.628571 14.628571 0 0 1-14.628572 14.628571H453.485714a14.628571 14.628571 0 0 1-14.628571-14.628571v-65.828572c0-8.045714 6.582857-14.628571 14.628571-14.628571h409.6c8.045714 0 14.628571 6.582857 14.628572 14.628571v65.828572zM438.857143 874.057143c0 8.045714 6.582857 14.628571 14.628571 14.628571h409.6a14.628571 14.628571 0 0 0 14.628572-14.628571v-65.828572a14.628571 14.628571 0 0 0-14.628572-14.628571H453.485714a14.628571 14.628571 0 0 0-14.628571 14.628571v65.828572z" /></svg>