<?xml version="1.0" standalone="no"?><!DOCTYPE svg PUBLIC "-//W3C//DTD SVG 1.1//EN" "http://www.w3.org/Graphics/SVG/1.1/DTD/svg11.dtd"><svg class="icon" width="200px" height="200.00px" viewBox="0 0 1024 1024" version="1.1" xmlns="http://www.w3.org/2000/svg"><path d="M585.142857 621.714286a72.996571 72.996571 0 0 1-25.6 55.588571v108.982857a18.285714 18.285714 0 0 1-18.285714 18.285715h-58.514286a18.285714 18.285714 0 0 1-18.285714-18.285715V677.302857A73.142857 73.142857 0 1 1 585.142857 621.714286zM512 0a256 256 0 0 1 256 256V365.714286h36.571429a146.285714 146.285714 0 0 1 146.285714 146.285714v365.714286a146.285714 146.285714 0 0 1-146.285714 146.285714H219.428571a146.285714 146.285714 0 0 1-146.285714-146.285714V512a146.285714 146.285714 0 0 1 146.285714-146.285714h36.571429V256A256 256 0 0 1 512 0z m292.571429 460.8H219.428571a51.2 51.2 0 0 0-51.2 51.2v365.714286a51.2 51.2 0 0 0 51.2 51.2h585.142858a51.2 51.2 0 0 0 51.2-51.2V512a51.2 51.2 0 0 0-51.2-51.2z m-292.571429-365.714286a160.914286 160.914286 0 0 0-160.914286 160.914286V365.714286h321.828572V256A160.914286 160.914286 0 0 0 512 95.085714z" /></svg>