<?xml version="1.0" standalone="no"?><!DOCTYPE svg PUBLIC "-//W3C//DTD SVG 1.1//EN" "http://www.w3.org/Graphics/SVG/1.1/DTD/svg11.dtd"><svg class="icon" width="200px" height="200.00px" viewBox="0 0 1024 1024" version="1.1" xmlns="http://www.w3.org/2000/svg"><path d="M292.571429 438.857143h438.857142v95.085714H292.571429zM512 658.285714H292.571429v95.085715h219.428571zM292.571429 36.571429a36.571429 36.571429 0 0 1 36.571428-36.571429h365.714286a36.571429 36.571429 0 0 1 36.571428 36.571429V73.142857h182.857143a36.571429 36.571429 0 0 1 36.571429 36.571429v877.714285a36.571429 36.571429 0 0 1-36.571429 36.571429h-804.571428a36.571429 36.571429 0 0 1-36.571429-36.571429v-877.714285a36.571429 36.571429 0 0 1 36.571429-36.571429H292.571429V36.571429z m438.857142 219.428571a36.571429 36.571429 0 0 1-36.571428 36.571429h-365.714286a36.571429 36.571429 0 0 1-36.571428-36.571429V168.228571H168.228571v760.685715h687.542858V168.228571H731.428571v87.771429z m-343.771428-58.514286h248.685714V95.085714H387.657143v102.4z" /></svg>