<?xml version="1.0" standalone="no"?><!DOCTYPE svg PUBLIC "-//W3C//DTD SVG 1.1//EN" "http://www.w3.org/Graphics/SVG/1.1/DTD/svg11.dtd"><svg class="icon" width="200px" height="200.00px" viewBox="0 0 1024 1024" version="1.1" xmlns="http://www.w3.org/2000/svg"><path d="M1024 512A512 512 0 1 1 0 512a512 512 0 0 1 1024 0z m-97.792 47.542857H501.028571a36.571429 36.571429 0 0 1-36.571428-36.571428V97.792a416.914286 416.914286 0 1 0 461.750857 461.750857z m0-95.085714A417.060571 417.060571 0 0 0 559.542857 97.792V464.457143h366.665143zM1024 512A512 512 0 1 1 0 512a512 512 0 0 1 1024 0z m-97.792 47.542857H501.028571a36.571429 36.571429 0 0 1-36.571428-36.571428V97.792a416.914286 416.914286 0 1 0 461.750857 461.750857z m0-95.085714A417.060571 417.060571 0 0 0 559.542857 97.792V464.457143h366.665143z" /></svg>