<svg class="icon" width="200px" height="200.00px" viewBox="0 0 1024 1024" version="1.1" xmlns="http://www.w3.org/2000/svg"><path  d="M146.285714 325.485714c0 8.045714 6.582857 14.628571 14.628572 14.628572h117.028571a14.628571 14.628571 0 0 0 14.628572-14.628572v-65.828571a14.628571 14.628571 0 0 0-14.628572-14.628572H160.914286a14.628571 14.628571 0 0 0-14.628572 14.628572v65.828571z m0 438.857143c0 8.045714 6.582857 14.628571 14.628572 14.628572h117.028571a14.628571 14.628571 0 0 0 14.628572-14.628572v-65.828571a14.628571 14.628571 0 0 0-14.628572-14.628572H160.914286a14.628571 14.628571 0 0 0-14.628572 14.628572v65.828571z m731.428572-438.857143a14.628571 14.628571 0 0 1-14.628572 14.628572H453.485714a14.628571 14.628571 0 0 1-14.628571-14.628572v-65.828571c0-8.045714 6.582857-14.628571 14.628571-14.628572h409.6c8.045714 0 14.628571 6.582857 14.628572 14.628572v65.828571z m-438.857143 438.857143c0 8.045714 6.582857 14.628571 14.628571 14.628572h409.6a14.628571 14.628571 0 0 0 14.628572-14.628572v-65.828571a14.628571 14.628571 0 0 0-14.628572-14.628572H453.485714a14.628571 14.628571 0 0 0-14.628571 14.628572v65.828571z" /></svg>