<?xml version="1.0" standalone="no"?><!DOCTYPE svg PUBLIC "-//W3C//DTD SVG 1.1//EN" "http://www.w3.org/Graphics/SVG/1.1/DTD/svg11.dtd"><svg class="icon" width="200px" height="200.00px" viewBox="0 0 1024 1024" version="1.1" xmlns="http://www.w3.org/2000/svg"><path d="M512 182.857143a109.714286 109.714286 0 1 0 0 219.428571 109.714286 109.714286 0 0 0 0-219.428571zM512 0a292.571429 292.571429 0 0 1 234.057143 468.260571l-15.506286 27.062858 273.773714-20.553143A18.285714 18.285714 0 0 1 1024 492.982857v479.597714c0 9.581714-7.314286 17.554286-16.896 18.285715L564.955429 1024l-229.522286-68.827429-313.490286 64.365715a18.285714 18.285714 0 0 1-21.942857-17.92V522.532571A18.285714 18.285714 0 0 1 14.628571 504.685714l252.562286-51.858285A292.571429 292.571429 0 0 1 512 0zM318.683429 539.355429L95.085714 585.216v322.194286l244.736-50.249143 235.593143 70.729143 353.499429-26.550857V575.780571l-255.268572 19.090286-98.157714 171.739429a73.142857 73.142857 0 0 1-126.976 0L318.683429 539.355429zM512 95.085714a197.485714 197.485714 0 0 0-157.988571 315.977143l3.657142 4.827429L512 686.08l154.331429-270.189714 3.657142-4.827429A197.485714 197.485714 0 0 0 512 95.085714z" /></svg>