<?xml version="1.0" standalone="no"?><!DOCTYPE svg PUBLIC "-//W3C//DTD SVG 1.1//EN" "http://www.w3.org/Graphics/SVG/1.1/DTD/svg11.dtd"><svg class="icon" width="200px" height="200.00px" viewBox="0 0 1024 1024" version="1.1" xmlns="http://www.w3.org/2000/svg"><path d="M292.571429 717.750857a36.571429 36.571429 0 0 0-5.924572-0.438857H109.714286a36.571429 36.571429 0 0 1-36.571429-36.571429v-365.714285a36.571429 36.571429 0 0 1 36.571429-36.571429h176.932571a36.571429 36.571429 0 0 0 11.556572-1.901714l604.525714-201.508572A36.571429 36.571429 0 0 1 950.857143 109.714286v776.265143a36.571429 36.571429 0 0 1-48.128 34.669714L387.657143 748.982857v114.102857a14.628571 14.628571 0 0 1-14.628572 14.628572h-65.828571a14.628571 14.628571 0 0 1-14.628571-14.628572V717.750857z m95.085714-370.834286V648.777143l468.114286 156.013714V190.902857L387.657143 346.989714zM292.571429 373.467429a131.510857 131.510857 0 0 1-5.924572 0.146285H168.228571v248.685715h118.418286c1.974857 0 3.949714 0 5.924572 0.146285V373.321143zM292.571429 717.750857a36.571429 36.571429 0 0 0-5.924572-0.438857H109.714286a36.571429 36.571429 0 0 1-36.571429-36.571429v-365.714285a36.571429 36.571429 0 0 1 36.571429-36.571429h176.932571a36.571429 36.571429 0 0 0 11.556572-1.901714l604.525714-201.508572A36.571429 36.571429 0 0 1 950.857143 109.714286v776.265143a36.571429 36.571429 0 0 1-48.128 34.669714L387.657143 748.982857v114.102857a14.628571 14.628571 0 0 1-14.628572 14.628572h-65.828571a14.628571 14.628571 0 0 1-14.628571-14.628572V717.750857z m95.085714-370.834286V648.777143l468.114286 156.013714V190.902857L387.657143 346.989714zM292.571429 373.467429a131.510857 131.510857 0 0 1-5.924572 0.146285H168.228571v248.685715h118.418286c1.974857 0 3.949714 0 5.924572 0.146285V373.321143z" /></svg>