<?xml version="1.0" standalone="no"?><!DOCTYPE svg PUBLIC "-//W3C//DTD SVG 1.1//EN" "http://www.w3.org/Graphics/SVG/1.1/DTD/svg11.dtd"><svg class="icon" width="200px" height="200.00px" viewBox="0 0 1024 1024" version="1.1" xmlns="http://www.w3.org/2000/svg"><path d="M804.571429 877.714286a73.142857 73.142857 0 1 0 0-146.285715 73.142857 73.142857 0 0 0 0 146.285715zM478.500571 40.594286a36.571429 36.571429 0 0 1 67.072 0l138.605715 318.829714 271.067428-125.147429a18.285714 18.285714 0 0 1 25.6 19.968l-67.364571 359.789715A219.355429 219.355429 0 0 1 804.571429 1024a219.428571 219.428571 0 0 1-219.428572-219.428571H176.64a36.571429 36.571429 0 0 1-35.913143-29.842286L43.081143 254.244571a18.285714 18.285714 0 0 1 25.6-19.968l271.140571 125.074286zM804.571429 680.228571a124.342857 124.342857 0 1 0 0 248.685715 124.342857 124.342857 0 0 0 0-248.685715z m55.442285-297.252571L512 543.597714 163.986286 382.976 225.206857 709.485714h381.586286a219.428571 219.428571 0 0 1 215.186286-123.611428l38.034285-202.898286zM512 201.874286L426.203429 399.36 512 438.857143l85.796571-39.570286L512 201.874286zM135.314286 914.285714a47.542857 47.542857 0 0 1 47.542857-47.542857H512a47.542857 47.542857 0 1 1 0 95.085714H182.857143a47.542857 47.542857 0 0 1-47.542857-47.542857z" /></svg>