<?xml version="1.0" standalone="no"?><!DOCTYPE svg PUBLIC "-//W3C//DTD SVG 1.1//EN" "http://www.w3.org/Graphics/SVG/1.1/DTD/svg11.dtd"><svg class="icon" width="200px" height="200.00px" viewBox="0 0 1024 1024" version="1.1" xmlns="http://www.w3.org/2000/svg"><path d="M512 0c282.770286 0 512 98.230857 512 219.428571v378.587429L968.045714 490.057143H928.914286V346.843429C836.022857 402.505143 683.885714 438.857143 512 438.857143s-324.022857-36.352-416.914286-92.013714v165.302857a13.165714 13.165714 0 0 0 1.097143 3.072c1.462857 2.998857 4.754286 8.338286 11.702857 15.36 14.555429 14.774857 40.228571 32.329143 79.506286 49.152 74.313143 31.890286 181.467429 54.272 304.786286 56.466285l-48.347429 93.330286C300.251429 721.334857 175.396571 687.542857 95.085714 639.414857v165.302857a13.165714 13.165714 0 0 0 1.097143 3.072c1.462857 2.998857 4.754286 8.338286 11.702857 15.36 14.555429 14.774857 40.228571 32.329143 79.506286 49.152 69.558857 29.842286 168.009143 51.419429 281.6 55.808l49.737143 95.817143L512 1024c-282.770286 0-512-98.230857-512-219.428571V219.428571c0-121.197714 229.229714-219.428571 512-219.428571z m0 95.085714c-131.657143 0-246.345143 23.04-324.608 56.612572-39.277714 16.822857-64.950857 34.377143-79.506286 49.078857a60.050286 60.050286 0 0 0-11.702857 15.36 14.116571 14.116571 0 0 0-1.024 2.779428 2.194286 2.194286 0 0 0 0 1.024 14.116571 14.116571 0 0 0 1.024 2.706286c1.462857 2.998857 4.754286 8.338286 11.702857 15.36 14.555429 14.774857 40.228571 32.329143 79.506286 49.152C265.654857 320.731429 380.342857 343.771429 512 343.771429c131.657143 0 246.345143-23.04 324.608-56.612572 39.277714-16.822857 64.950857-34.377143 79.506286-49.078857a59.830857 59.830857 0 0 0 11.702857-15.36 14.189714 14.189714 0 0 0 1.024-2.779429v-0.731428a13.531429 13.531429 0 0 0-1.024-2.998857 59.830857 59.830857 0 0 0-11.702857-15.36c-14.555429-14.774857-40.228571-32.329143-79.506286-49.152C758.345143 118.125714 643.657143 95.085714 512 95.085714zM899.145143 585.142857a18.285714 18.285714 0 0 1 16.164571 9.874286l104.301715 201.142857a18.285714 18.285714 0 0 1 0 16.822857l-104.301715 201.142857a18.285714 18.285714 0 0 1-16.164571 9.874286H636.854857a18.285714 18.285714 0 0 1-16.237714-9.874286l-104.301714-201.142857a18.285714 18.285714 0 0 1 0-16.822857l104.301714-201.142857A18.285714 18.285714 0 0 1 636.928 585.142857h262.217143z m-46.738286 95.085714H683.593143L619.081143 804.571429l64.512 124.342857h168.813714l64.512-124.342857-64.512-124.342858z" /></svg>