<?xml version="1.0" standalone="no"?><!DOCTYPE svg PUBLIC "-//W3C//DTD SVG 1.1//EN" "http://www.w3.org/Graphics/SVG/1.1/DTD/svg11.dtd"><svg class="icon" width="200px" height="200.00px" viewBox="0 0 1024 1024" version="1.1" xmlns="http://www.w3.org/2000/svg"><path d="M731.423243 219.429094c0 68.752616-31.596947 130.117983-81.113459 170.345577l100.934691 201.869383a219.423243 219.423243 0 1 1-160.910377 260.382248l-156.668196 0.073141a219.496384 219.496384 0 1 1-160.910377-260.382248l100.934691-201.942524A219.423243 219.423243 0 1 1 731.423243 219.429094zM512 343.768931a124.339837 124.339837 0 1 0 0-248.679675 124.339837 124.339837 0 0 0 0 248.679675z m154.25454 290.443232l-100.934692-201.869383a219.862089 219.862089 0 0 1-106.639696 0l-100.934692 201.869383A219.423243 219.423243 0 0 1 433.739043 757.016038h156.668196a219.423243 219.423243 0 0 1 75.920442-122.803875zM219.435677 928.897578a124.339837 124.339837 0 1 0 0-248.679675 124.339837 124.339837 0 0 0 0 248.679675z m585.128646 0a124.339837 124.339837 0 1 0 0-248.679675 124.339837 124.339837 0 0 0 0 248.679675z" /></svg>