<?xml version="1.0" standalone="no"?><!DOCTYPE svg PUBLIC "-//W3C//DTD SVG 1.1//EN" "http://www.w3.org/Graphics/SVG/1.1/DTD/svg11.dtd"><svg class="icon" width="200px" height="200.00px" viewBox="0 0 1024 1024" version="1.1" xmlns="http://www.w3.org/2000/svg"><path d="M234.057143 928.914286a14.628571 14.628571 0 0 0-14.628572 14.628571v65.828572c0 8.045714 6.582857 14.628571 14.628572 14.628571h555.885714a14.628571 14.628571 0 0 0 14.628572-14.628571v-65.828572a14.628571 14.628571 0 0 0-14.628572-14.628571H234.057143zM512 0a438.857143 438.857143 0 1 1 0 877.714286A438.857143 438.857143 0 0 1 512 0z m0 95.085714a343.771429 343.771429 0 1 0 333.092571 258.413715 73.142857 73.142857 0 0 0-65.024-129.901715A343.113143 343.113143 0 0 0 512 95.085714zM512 219.428571a219.428571 219.428571 0 1 1 0 438.857143 219.428571 219.428571 0 0 1 0-438.857143z m0 95.085715a124.342857 124.342857 0 1 0 0 248.685714 124.342857 124.342857 0 0 0 0-248.685714z" /></svg>