<svg class="icon" width="200px" height="200.00px" viewBox="0 0 1024 1024" version="1.1" xmlns="http://www.w3.org/2000/svg"><path  d="M512 0a512 512 0 0 1 17.554286 1023.707429L512 1024A512 512 0 1 1 512 0z m0 95.085714a416.914286 416.914286 0 1 0 0 833.828572A416.914286 416.914286 0 0 0 512 95.085714zM495.981714 219.428571l3.949715 0.219429a14.628571 14.628571 0 0 1 11.410285 10.093714l0.658286 4.388572v99.913143h73.142857a212.114286 212.114286 0 0 1 12.434286 423.862857l-12.434286 0.365714H380.342857a14.628571 14.628571 0 0 1-14.116571-10.752L365.714286 743.643429v-65.828572a14.628571 14.628571 0 0 1 10.752-14.116571l3.876571-0.512H585.142857a117.028571 117.028571 0 0 0 10.678857-233.618286L585.142857 429.129143H307.2l-3.876571-0.512a14.628571 14.628571 0 0 1-10.24-10.24L292.571429 414.500571V386.194286a14.628571 14.628571 0 0 1 2.56-8.192l2.925714-3.218286 190.171428-152.137143a14.701714 14.701714 0 0 1 5.12-2.633143L495.908571 219.428571z" /></svg>