<svg class="icon" width="200px" height="200.00px" viewBox="0 0 1024 1024" version="1.1" xmlns="http://www.w3.org/2000/svg"><path  d="M914.285714 658.285714a36.571429 36.571429 0 0 1 36.571429 36.571429v219.428571a36.571429 36.571429 0 0 1-29.988572 35.986286L914.285714 950.857143h-804.571428a36.571429 36.571429 0 0 1-36.571429-36.571429v-219.428571a36.571429 36.571429 0 0 1 36.571429-36.571429h804.571428z m-73.142857 95.085715h-658.285714a14.628571 14.628571 0 0 0-14.628572 14.628571v73.142857c0 8.045714 6.582857 14.628571 14.628572 14.628572h658.285714a14.628571 14.628571 0 0 0 14.628572-14.628572v-73.142857a14.628571 14.628571 0 0 0-14.628572-14.628571zM544.914286 73.142857a14.628571 14.628571 0 0 1 14.116571 10.752l0.512 3.876572v382.537142l86.308572-86.235428a7.314286 7.314286 0 0 1 11.849142 2.194286L658.285714 389.339429V506.148571L527.506286 636.854857a21.869714 21.869714 0 0 1-8.411429 5.266286l-4.681143 1.024h-4.827428a21.869714 21.869714 0 0 1-9.142857-3.145143l-3.949715-3.145143L365.714286 506.148571V389.266286a7.314286 7.314286 0 0 1 7.168-7.314286l2.779428 0.512 2.56 1.609143 86.235429 86.308571V87.771429a14.628571 14.628571 0 0 1 10.752-14.116572L479.085714 73.142857h65.828572z" /></svg>