<svg class="icon" width="200px" height="200.00px" viewBox="0 0 1024 1024" version="1.1" xmlns="http://www.w3.org/2000/svg"><path  d="M831.954822 367.748665a72.916815 72.916815 0 0 1 72.479314 64.458464l0.437501 8.458351v510.417705a72.916815 72.916815 0 0 1-64.385548 72.479314l-8.531267 0.437501h-656.251335a72.916815 72.916815 0 0 1-72.406398-64.385548l-0.510417-8.531267v-510.417705a72.916815 72.916815 0 0 1 64.458464-72.406397l8.458351-0.510418h656.251335z m-21.875045 94.791859h-612.501246v466.667616h612.501246v-466.667616zM679.777429 729.197317c8.02085 0 14.583363 6.562513 14.583363 14.583363v65.625133a14.583363 14.583363 0 0 1-14.583363 14.583363H453.735302a14.583363 14.583363 0 0 1-14.583363-14.583363v-65.625133c0-8.02085 6.562513-14.583363 14.583363-14.583363h226.042127zM701.798307 2.216671l201.614993 126.073173a5.104177 5.104177 0 0 1 2.406255 4.375009v49.583434a7.291682 7.291682 0 0 1-7.291681 7.291682l-566.126152 0.947919c-110.031474 0-238.146318 72.698065-280.729738 172.739934a7.437515 7.437515 0 0 1-6.781264 4.520843H8.869814a7.145848 7.145848 0 0 1-7.072931-8.677101 339.209023 339.209023 0 0 1 330.604839-263.375536l347.08404-0.947919V14.61253a14.583363 14.583363 0 0 1 22.312545-12.395859z" /></svg>