<svg class="icon" width="200px" height="200.00px" viewBox="0 0 1024 1024" version="1.1" xmlns="http://www.w3.org/2000/svg"><path  d="M946.395429 73.728a7.314286 7.314286 0 0 1 3.876571 3.876571L950.857143 80.457143v267.629714a7.241143 7.241143 0 0 1-4.534857 6.729143l-2.633143 0.585143a7.094857 7.094857 0 0 1-3.657143-0.950857l-1.682286-1.243429-100.205714-100.205714L579.291429 512l258.925714 258.925714 100.205714-100.205714a7.314286 7.314286 0 0 1 11.922286 2.194286l0.585143 2.998857V943.542857a7.314286 7.314286 0 0 1-4.461715 6.729143L943.542857 950.857143H675.913143a7.314286 7.314286 0 0 1-6.802286-9.947429l1.682286-2.56 100.205714-100.205714L512 579.291429l-258.925714 258.925714 100.205714 100.205714a7.314286 7.314286 0 0 1-2.194286 11.922286L348.013714 950.857143H80.457143a7.314286 7.314286 0 0 1-6.729143-4.461714L73.142857 943.542857V675.913143a7.314286 7.314286 0 0 1 7.168-7.314286l2.779429 0.512 2.56 1.682286 100.205714 100.205714L444.708571 512 185.782857 253.074286 85.577143 353.28a7.314286 7.314286 0 0 1-2.56 1.609143l-2.779429 0.512a7.387429 7.387429 0 0 1-6.582857-4.388572L73.142857 348.16V80.457143a7.314286 7.314286 0 0 1 4.461714-6.729143L80.457143 73.142857h267.629714a7.314286 7.314286 0 0 1 6.802286 9.947429l-1.682286 2.56-100.205714 100.205714L512 444.708571l258.925714-258.925714-100.205714-100.205714a7.314286 7.314286 0 0 1 2.194286-11.922286L675.986286 73.142857H943.542857l2.852572 0.585143z" /></svg>