<svg class="icon" width="200px" height="200.00px" viewBox="0 0 1024 1024" version="1.1" xmlns="http://www.w3.org/2000/svg"><path  d="M514.413714 380.854857c4.754286 0.512 9.435429 2.633143 13.165715 6.290286L658.285714 517.851429v116.809142a7.241143 7.241143 0 0 1-4.534857 6.729143l-2.633143 0.585143a7.168 7.168 0 0 1-5.339428-2.194286L559.542857 553.691429V936.228571a14.628571 14.628571 0 0 1-10.752 14.116572L544.914286 950.857143h-65.828572a14.628571 14.628571 0 0 1-14.628571-14.628572V553.691429L378.148571 639.853714l-2.486857 1.609143-2.779428 0.512a7.314286 7.314286 0 0 1-7.168-7.314286V517.851429l130.779428-130.779429a21.869714 21.869714 0 0 1 13.165715-6.290286h4.754285zM914.285714 73.142857a36.571429 36.571429 0 0 1 35.986286 29.988572L950.857143 109.714286v219.428571a36.571429 36.571429 0 0 1-29.988572 35.986286L914.285714 365.714286h-804.571428a36.571429 36.571429 0 0 1-35.986286-29.988572L73.142857 329.142857v-219.428571a36.571429 36.571429 0 0 1 29.988572-35.986286L109.714286 73.142857h804.571428z m-73.142857 95.085714h-658.285714a14.628571 14.628571 0 0 0-14.116572 10.752L168.228571 182.857143v73.142857a14.628571 14.628571 0 0 0 10.752 14.116571L182.857143 270.628571h658.285714a14.628571 14.628571 0 0 0 14.116572-10.752L855.771429 256v-73.142857a14.628571 14.628571 0 0 0-10.752-14.116572L841.142857 168.228571z" /></svg>