<?xml version="1.0" standalone="no"?><!DOCTYPE svg PUBLIC "-//W3C//DTD SVG 1.1//EN" "http://www.w3.org/Graphics/SVG/1.1/DTD/svg11.dtd"><svg class="icon" width="200px" height="200.00px" viewBox="0 0 1024 1024" version="1.1" xmlns="http://www.w3.org/2000/svg"><path d="M512 0a512 512 0 1 1 0 1024A512 512 0 0 1 512 0z m47.542857 913.92c24.137143-14.774857 50.907429-41.764571 76.8-87.04 37.888-66.267429 65.389714-159.451429 71.753143-267.337143H559.542857v354.377143z m-95.085714 0V559.542857H315.904c6.363429 107.812571 33.865143 201.069714 71.753143 267.337143 25.892571 45.275429 52.662857 72.265143 76.8 87.04z m95.085714-449.462857h148.553143c-6.363429-107.812571-33.865143-201.069714-71.753143-267.337143-25.892571-45.275429-52.662857-72.265143-76.8-87.04V464.457143z m-95.085714-354.377143c-24.137143 14.774857-50.907429 41.764571-76.8 87.04-37.888 66.267429-65.389714 159.451429-71.753143 267.337143H464.457143V110.08zM718.848 874.057143a417.060571 417.060571 0 0 0 207.36-314.514286h-122.88c-6.436571 122.441143-37.522286 232.374857-84.48 314.514286z m84.48-409.6h122.88a417.060571 417.060571 0 0 0-207.36-314.514286c46.957714 82.139429 78.043429 192.073143 84.48 314.514286z m-498.176-314.514286a417.060571 417.060571 0 0 0-207.36 314.514286h122.88c6.436571-122.441143 37.522286-232.374857 84.48-314.514286z m0 724.114286c-46.957714-82.139429-78.043429-192.073143-84.48-314.514286h-122.88a417.060571 417.060571 0 0 0 207.36 314.514286zM512 0a512 512 0 1 1 0 1024A512 512 0 0 1 512 0z m47.542857 913.92c24.137143-14.774857 50.907429-41.764571 76.8-87.04 37.888-66.267429 65.389714-159.451429 71.753143-267.337143H559.542857v354.377143z m-95.085714 0V559.542857H315.904c6.363429 107.812571 33.865143 201.069714 71.753143 267.337143 25.892571 45.275429 52.662857 72.265143 76.8 87.04z m95.085714-449.462857h148.553143c-6.363429-107.812571-33.865143-201.069714-71.753143-267.337143-25.892571-45.275429-52.662857-72.265143-76.8-87.04V464.457143z m-95.085714-354.377143c-24.137143 14.774857-50.907429 41.764571-76.8 87.04-37.888 66.267429-65.389714 159.451429-71.753143 267.337143H464.457143V110.08zM718.848 874.057143a417.060571 417.060571 0 0 0 207.36-314.514286h-122.88c-6.436571 122.441143-37.522286 232.374857-84.48 314.514286z m84.48-409.6h122.88a417.060571 417.060571 0 0 0-207.36-314.514286c46.957714 82.139429 78.043429 192.073143 84.48 314.514286z m-498.176-314.514286a417.060571 417.060571 0 0 0-207.36 314.514286h122.88c6.436571-122.441143 37.522286-232.374857 84.48-314.514286z m0 724.114286c-46.957714-82.139429-78.043429-192.073143-84.48-314.514286h-122.88a417.060571 417.060571 0 0 0 207.36 314.514286z" /></svg>