<?xml version="1.0" standalone="no"?><!DOCTYPE svg PUBLIC "-//W3C//DTD SVG 1.1//EN" "http://www.w3.org/Graphics/SVG/1.1/DTD/svg11.dtd"><svg class="icon" width="200px" height="200.00px" viewBox="0 0 1024 1024" version="1.1" xmlns="http://www.w3.org/2000/svg"><path d="M62.171429 815.542857A157.257143 157.257143 0 0 0 219.428571 972.8h277.942858a25.6 25.6 0 0 0 25.6-25.6v-43.885714A25.6 25.6 0 0 0 497.371429 877.714286H219.428571a62.171429 62.171429 0 0 1-62.171428-62.171429v-658.285714c0-34.377143 27.794286-62.171429 62.171428-62.171429h585.142858c34.377143 0 62.171429 27.794286 62.171428 62.171429v351.085714c0 14.116571 11.483429 25.6 25.6 25.6h43.885714a25.6 25.6 0 0 0 25.6-25.6v-351.085714A157.257143 157.257143 0 0 0 804.571429 0H219.428571A157.257143 157.257143 0 0 0 62.171429 157.257143v658.285714zM987.428571 931.108571a14.628571 14.628571 0 0 1 0 20.772572l-46.518857 46.518857a14.628571 14.628571 0 0 1-20.699428 0l-87.186286-87.186286a182.857143 182.857143 0 1 1 67.291429-67.291428l87.113142 87.259428z m-245.686857-90.624a87.771429 87.771429 0 1 0 0-175.542857 87.771429 87.771429 0 0 0 0 175.542857zM464.457143 621.714286V486.4H329.142857a18.285714 18.285714 0 0 1-18.285714-18.285714v-58.514286a18.285714 18.285714 0 0 1 18.285714-18.285714h135.314286V256a18.285714 18.285714 0 0 1 18.285714-18.285714h58.514286a18.285714 18.285714 0 0 1 18.285714 18.285714v135.314286h125.220572a18.285714 18.285714 0 0 1 18.285714 18.285714v58.514286a18.285714 18.285714 0 0 1-18.285714 18.285714H559.542857V621.714286a18.285714 18.285714 0 0 1-18.285714 18.285714h-58.514286a18.285714 18.285714 0 0 1-18.285714-18.285714z" /></svg>