<?xml version="1.0" standalone="no"?><!DOCTYPE svg PUBLIC "-//W3C//DTD SVG 1.1//EN" "http://www.w3.org/Graphics/SVG/1.1/DTD/svg11.dtd"><svg class="icon" width="200px" height="200.00px" viewBox="0 0 1024 1024" version="1.1" xmlns="http://www.w3.org/2000/svg"><path d="M475.428571 0a36.571429 36.571429 0 0 1 36.571429 36.571429v219.428571a36.571429 36.571429 0 0 1-36.571429 36.571429H303.542857v171.885714H512V402.285714a36.571429 36.571429 0 0 1 36.571429-36.571428h365.714285a36.571429 36.571429 0 0 1 36.571429 36.571428v219.428572a36.571429 36.571429 0 0 1-36.571429 36.571428h-365.714285a36.571429 36.571429 0 0 1-36.571429-36.571428v-62.171429H303.542857V804.571429c0 14.116571 11.483429 25.6 25.6 25.6H512v-62.171429a36.571429 36.571429 0 0 1 36.571429-36.571429h365.714285a36.571429 36.571429 0 0 1 36.571429 36.571429v219.428571a36.571429 36.571429 0 0 1-36.571429 36.571429h-365.714285a36.571429 36.571429 0 0 1-36.571429-36.571429v-62.171428H329.142857A120.685714 120.685714 0 0 1 208.457143 804.571429V292.571429H36.571429a36.571429 36.571429 0 0 1-36.571429-36.571429v-219.428571A36.571429 36.571429 0 0 1 36.571429 0z m380.342858 826.514286H607.085714v102.4h248.685715v-102.4z m0-365.714286H607.085714v102.4h248.685715V460.8z m-438.857143-365.714286H95.085714v102.4h321.828572V95.085714z" /></svg>