<?xml version="1.0" standalone="no"?><!DOCTYPE svg PUBLIC "-//W3C//DTD SVG 1.1//EN" "http://www.w3.org/Graphics/SVG/1.1/DTD/svg11.dtd"><svg class="icon" width="200px" height="200.00px" viewBox="0 0 1024 1024" version="1.1" xmlns="http://www.w3.org/2000/svg"><path d="M219.432333 0a146.283833 146.283833 0 0 1 138.384506 98.741588H731.42575a230.397038 230.397038 0 1 1 0 460.794075H292.57425a135.312546 135.312546 0 0 0 0 270.625092h373.608911a146.283833 146.283833 0 1 1 0 95.084492H292.57425a230.397038 230.397038 0 1 1 0-460.794076h438.8515a135.312546 135.312546 0 0 0 0-270.625092H357.816839A146.283833 146.283833 0 1 1 219.432333 0z m585.135334 826.503659a51.199342 51.199342 0 1 0 0 102.398684 51.199342 51.199342 0 0 0 0-102.398684z m-585.135334-731.419167a51.199342 51.199342 0 1 0 0 102.398683 51.199342 51.199342 0 0 0 0-102.398683z" /></svg>
