<?xml version="1.0" standalone="no"?><!DOCTYPE svg PUBLIC "-//W3C//DTD SVG 1.1//EN" "http://www.w3.org/Graphics/SVG/1.1/DTD/svg11.dtd"><svg class="icon" width="200px" height="200.00px" viewBox="0 0 1024 1024" version="1.1" xmlns="http://www.w3.org/2000/svg"><path d="M585.142857 0c66.633143 0 120.685714 54.052571 120.685714 120.685714v109.714286A120.685714 120.685714 0 0 1 585.142857 351.085714h-25.6v113.371429h208.457143c66.633143 0 120.685714 54.052571 120.685714 120.685714v73.142857h25.6a109.714286 109.714286 0 0 1 109.714286 109.714286v146.285714a109.714286 109.714286 0 0 1-109.714286 109.714286h-146.285714A109.714286 109.714286 0 0 1 658.285714 914.285714v-146.285714A109.714286 109.714286 0 0 1 768 658.285714h25.6V585.142857a25.6 25.6 0 0 0-25.6-25.6h-512a25.6 25.6 0 0 0-25.6 25.6v73.142857h25.6A109.714286 109.714286 0 0 1 365.714286 768v146.285714A109.714286 109.714286 0 0 1 256 1024h-146.285714A109.714286 109.714286 0 0 1 0 914.285714v-146.285714A109.714286 109.714286 0 0 1 109.714286 658.285714h25.6V585.142857c0-66.633143 54.052571-120.685714 120.685714-120.685714h208.457143V351.085714H438.857143a120.685714 120.685714 0 0 1-120.685714-120.685714v-109.714286C318.171429 54.052571 372.224 0 438.857143 0zM256 753.371429h-146.285714a14.628571 14.628571 0 0 0-14.628572 14.628571v146.285714c0 8.045714 6.582857 14.628571 14.628572 14.628572h146.285714a14.628571 14.628571 0 0 0 14.628571-14.628572v-146.285714a14.628571 14.628571 0 0 0-14.628571-14.628571z m658.285714 0h-146.285714a14.628571 14.628571 0 0 0-14.628571 14.628571v146.285714c0 8.045714 6.582857 14.628571 14.628571 14.628572h146.285714a14.628571 14.628571 0 0 0 14.628572-14.628572v-146.285714a14.628571 14.628571 0 0 0-14.628572-14.628571zM585.142857 95.085714H438.857143a25.6 25.6 0 0 0-25.6 25.6v109.714286c0 14.116571 11.483429 25.6 25.6 25.6h146.285714a25.6 25.6 0 0 0 25.6-25.6v-109.714286A25.6 25.6 0 0 0 585.142857 95.085714z" /></svg>