<?xml version="1.0" standalone="no"?><!DOCTYPE svg PUBLIC "-//W3C//DTD SVG 1.1//EN" "http://www.w3.org/Graphics/SVG/1.1/DTD/svg11.dtd"><svg class="icon" width="200px" height="200.00px" viewBox="0 0 1024 1024" version="1.1" xmlns="http://www.w3.org/2000/svg"><path d="M292.571429 0a73.142857 73.142857 0 0 1 73.142857 73.142857v219.282286a73.142857 73.142857 0 0 1-73.142857 73.069714h-62.171429v25.6H658.285714v-98.742857a73.142857 73.142857 0 0 1 73.142857-73.069714h219.428572a73.142857 73.142857 0 0 1 73.142857 73.142857v219.282286a73.142857 73.142857 0 0 1-73.142857 73.142857h-219.428572a73.142857 73.142857 0 0 1-73.142857-73.142857v-25.6H230.4v244.882285c0 34.377143 27.794286 62.171429 62.171429 62.171429h365.714285v-62.171429a73.142857 73.142857 0 0 1 73.142857-73.142857h219.428572a73.142857 73.142857 0 0 1 73.142857 73.142857v219.282286a73.142857 73.142857 0 0 1-73.142857 73.142857h-219.428572a73.142857 73.142857 0 0 1-73.142857-73.142857v-62.171429H292.571429a157.257143 157.257143 0 0 1-157.257143-157.110857V365.494857H73.142857a73.142857 73.142857 0 0 1-73.142857-73.142857V73.142857A73.142857 73.142857 0 0 1 73.142857 0z m636.342857 752.932571h-175.542857v175.396572h175.542857v-175.396572z m0-438.637714h-175.542857v175.469714h175.542857V314.294857zM270.628571 95.085714H95.085714v175.469715h175.542857V95.012571z" /></svg>