<?xml version="1.0" standalone="no"?><!DOCTYPE svg PUBLIC "-//W3C//DTD SVG 1.1//EN" "http://www.w3.org/Graphics/SVG/1.1/DTD/svg11.dtd"><svg class="icon" width="200px" height="200.00px" viewBox="0 0 1024 1024" version="1.1" xmlns="http://www.w3.org/2000/svg"><path d="M454.948571 716.214857a32.914286 32.914286 0 0 0 32.914286 33.499429h48.274286a32.914286 32.914286 0 0 0 32.841143-33.499429L563.858286 475.428571a32.914286 32.914286 0 0 0-32.914286-32.329142h-38.034286a32.914286 32.914286 0 0 0-32.914285 32.329142l-5.12 240.786286zM447.634286 320.585143c0 35.986286 28.818286 63.414857 64.146285 63.414857a63.122286 63.122286 0 0 0 64.438858-63.414857 63.122286 63.122286 0 0 0-64.438858-63.488 63.268571 63.268571 0 0 0-64.146285 63.488zM1024 512A512 512 0 1 0 0 512a512 512 0 0 0 1024 0z m-95.085714 0A416.914286 416.914286 0 1 1 95.085714 512a416.914286 416.914286 0 0 1 833.828572 0z" /></svg>