<?xml version="1.0" standalone="no"?><!DOCTYPE svg PUBLIC "-//W3C//DTD SVG 1.1//EN" "http://www.w3.org/Graphics/SVG/1.1/DTD/svg11.dtd"><svg class="icon" width="200px" height="200.00px" viewBox="0 0 1024 1024" version="1.1" xmlns="http://www.w3.org/2000/svg"><path d="M541.247864 0a18.285401 18.285401 0 0 1 18.285401 18.285401v46.664343A402.278818 402.278818 0 0 1 914.270041 464.449181v140.870728c0 53.905362 35.327394 101.520545 86.892225 117.172848a32.109164 32.109164 0 0 1 22.82018 30.719474v108.980989c0 14.628321-11.84894 26.47726-26.550402 26.47726H667.782838a157.254447 157.254447 0 0 1-311.436947 0H26.47726A26.47726 26.47726 0 0 1 0 862.120078v-108.980989c0-14.116329 9.215842-26.550402 22.747039-30.719473A122.439044 122.439044 0 0 0 109.712405 605.39305V464.449181A402.278818 402.278818 0 0 1 464.449181 64.949744V18.285401A18.285401 18.285401 0 0 1 482.734582 0z m28.964075 888.67048H453.770507a62.170363 62.170363 0 0 0 116.441432 0zM511.991223 157.254447a307.194734 307.194734 0 0 0-307.194734 307.194734v140.870728c0 78.846648-42.42213 150.013428-108.542139 188.266487h831.473746A217.59627 217.59627 0 0 1 819.185957 605.319909V464.449181A307.194734 307.194734 0 0 0 511.991223 157.254447z" /></svg>