<svg class="icon" width="200px" height="200.00px" viewBox="0 0 1024 1024" version="1.1" xmlns="http://www.w3.org/2000/svg"><path  d="M512 0a512 512 0 1 1 0 1024A512 512 0 0 1 512 0z m0 73.142857a438.857143 438.857143 0 1 0 0 877.714286A438.857143 438.857143 0 0 0 512 73.142857z m0 182.857143c39.497143 0 73.947429 10.678857 103.277714 31.963429 29.696 21.284571 52.809143 51.2 69.193143 89.892571 16.896 38.180571 25.307429 82.797714 25.307429 133.851429 0 50.980571-8.192 95.817143-24.576 134.436571-16.457143 38.180571-39.497143 68.169143-69.266286 89.965714-29.257143 21.211429-63.707429 31.890286-103.204571 31.890286s-74.166857-10.678857-103.862858-31.963429c-29.769143-21.723429-53.028571-51.712-69.924571-89.892571-16.384-38.619429-24.649143-83.382857-24.649143-134.509714 0-51.492571 8.265143-96.256 24.649143-134.436572 16.822857-38.180571 39.936-67.949714 69.266286-89.234285 29.696-21.284571 64.365714-31.963429 103.862857-31.963429z m0 71.241143c-24.356571 0-45.421714 7.533714-63.195429 22.674286-17.773714 15.067429-31.451429 36.352-41.252571 63.853714-9.801143 27.574857-14.628571 60.196571-14.628571 97.865143 0 37.302857 4.827429 69.924571 14.628571 97.938285 9.728 27.501714 23.478857 48.786286 41.252571 63.853715 18.212571 15.140571 39.497143 22.674286 63.926858 22.674285 24.429714 0 45.494857-7.533714 63.268571-22.674285 17.700571-15.067429 31.451429-36.352 41.252571-63.853715 9.801143-27.574857 14.628571-60.196571 14.628572-97.938285 0-37.668571-4.827429-70.290286-14.628572-97.865143-9.728-27.501714-23.552-48.786286-41.252571-63.926857A95.451429 95.451429 0 0 0 512 327.241143z" /></svg>