<svg class="icon" width="200px" height="200.00px" viewBox="0 0 1024 1024" version="1.1" xmlns="http://www.w3.org/2000/svg"><path  d="M512 0a512 512 0 1 1 0 1024A512 512 0 0 1 512 0z m0 73.142857a438.857143 438.857143 0 1 0 0 877.714286A438.857143 438.857143 0 0 0 512 73.142857z m22.820571 182.857143c31.963429 0 59.977143 6.070857 83.821715 18.285714 23.917714 11.702857 42.422857 28.16 55.515428 49.371429 13.531429 21.211429 20.260571 45.714286 20.260572 73.728 0 18.432-3.657143 36.498286-10.825143 54.125714a243.126857 243.126857 0 0 1-31.817143 54.710857 747.52 747.52 0 0 1-42.422857 50.249143L474.697143 700.342857h229.302857v67.657143H369.078857v-57.490286l163.108572-174.445714 30.281142-33.426286 8.192-9.216a236.982857 236.982857 0 0 0 33.792-47.396571c7.241143-13.531429 10.825143-27.721143 10.825143-42.569143 0-24.356571-7.460571-43.081143-22.308571-56.173714-14.848-13.531429-34.011429-20.260571-57.490286-20.260572a98.011429 98.011429 0 0 0-95.597714 67.949715l-3.803429 12.507428L365.714286 387.218286c5.412571-26.624 16.237714-49.590857 32.475428-68.973715 16.237714-19.894857 36.059429-35.181714 59.538286-46.08A184.685714 184.685714 0 0 1 534.820571 256z" /></svg>