<svg class="icon" width="200px" height="200.00px" viewBox="0 0 1024 1024" version="1.1" xmlns="http://www.w3.org/2000/svg"><path  d="M512 0a512 512 0 1 1 0 1024A512 512 0 0 1 512 0z m0 73.142857a438.857143 438.857143 0 1 0 0 877.714286A438.857143 438.857143 0 0 0 512 73.142857z m184.466286 182.857143v64.219429l-109.714286 131.437714c21.211429 2.706286 40.448 8.996571 57.636571 18.724571 22.966857 12.653714 40.813714 30.208 53.394286 52.809143 13.165714 22.089143 19.602286 47.762286 19.602286 77.092572 0 31.524571-7.606857 60.196571-22.966857 85.869714-15.36 25.234286-36.571429 45.348571-63.634286 60.196571a189.878857 189.878857 0 0 1-91.940571 21.650286c-27.062857 0-52.516571-4.973714-76.434286-14.848a179.419429 179.419429 0 0 1-60.854857-41.984A158.573714 158.573714 0 0 1 365.714286 647.606857l67.657143-25.673143c8.996571 23.844571 22.747429 42.422857 41.252571 55.442286 18.505143 13.092571 39.862857 19.602286 64.219429 19.602286 19.821714 0 37.010286-3.803429 51.419428-11.483429 14.848-7.68 26.331429-18.505143 34.523429-32.475428 8.557714-13.970286 12.8-30.866286 12.8-50.761143 0-19.382857-4.242286-36.059429-12.8-50.029715a78.555429 78.555429 0 0 0-34.523429-31.744 113.737143 113.737143 0 0 0-51.419428-10.825142c-8.045714 0-16.457143 0.658286-25.014858 1.974857-8.045714 1.389714-15.36 3.218286-21.650285 5.412571l-17.554286-37.156571L607.085714 323.657143H392.777143V256h303.689143z" /></svg>