<svg class="icon" width="200px" height="200.00px" viewBox="0 0 1024 1024" version="1.1" xmlns="http://www.w3.org/2000/svg"><path  d="M512 0a512 512 0 1 1 0 1024A512 512 0 0 1 512 0z m0 73.142857a438.857143 438.857143 0 1 0 0 877.714286A438.857143 438.857143 0 0 0 512 73.142857z m183.076571 182.857143v67.657143H483.620571l-17.92 130.925714c5.558857-3.876571 11.483429-7.168 17.700572-9.874286 19.382857-8.557714 41.472-12.873143 66.267428-12.873142 32.914286 0 61.586286 7.460571 85.942858 22.308571 24.795429 14.482286 43.885714 34.304 57.490285 59.538286 13.897143 24.868571 20.918857 52.955429 20.918857 84.553143a165.741714 165.741714 0 0 1-85.869714 147.456 178.614857 178.614857 0 0 1-89.965714 22.308571c-26.624 0-51.638857-4.754286-75.044572-14.189714a184.100571 184.100571 0 0 1-60.928-41.252572A149.211429 149.211429 0 0 1 365.714286 648.923429l66.925714-25.6c8.630857 23.844571 22.601143 42.130286 41.984 54.710857 19.382857 12.653714 40.594286 19.017143 63.561143 19.017143 18.944 0 35.620571-4.388571 50.029714-12.946286 14.482286-8.557714 25.746286-20.260571 33.865143-35.108572 8.557714-14.921143 12.8-31.817143 12.8-50.761142 0-19.382857-4.242286-36.278857-12.8-50.761143a85.869714 85.869714 0 0 0-33.865143-34.450286 96.182857 96.182857 0 0 0-50.029714-12.873143c-18.944 0-36.278857 4.315429-52.077714 12.873143a79.579429 79.579429 0 0 0-34.523429 34.450286l-64.219429-14.189715 39.204572-277.284571h268.507428z" /></svg>