<svg class="icon" width="200px" height="200.00px" viewBox="0 0 1024 1024" version="1.1" xmlns="http://www.w3.org/2000/svg"><path  d="M512 0a512 512 0 1 1 0 1024A512 512 0 0 1 512 0z m0 73.142857a438.857143 438.857143 0 1 0 0 877.714286A438.857143 438.857143 0 0 0 512 73.142857z m128.292571 182.857143L493.568 445.878857l4.681143-1.170286a157.769143 157.769143 0 0 1 108.251428 18.285715c23.844571 13.897143 42.569143 32.914286 56.100572 56.758857 13.970286 23.917714 20.992 51.419429 20.992 82.505143 0 31.597714-7.460571 59.977143-22.308572 85.284571a162.377143 162.377143 0 0 1-60.928 58.806857c-25.234286 14.409143-54.564571 21.650286-87.917714 21.650286-32.914286 0-62.171429-7.241143-87.917714-21.650286a160.768 160.768 0 0 1-60.854857-59.538285 169.984 169.984 0 0 1-21.650286-85.869715 221.842286 221.842286 0 0 1 24.356571-102.107428c9.508571-18.066286 22.089143-37.449143 37.888-58.221715L544.914286 256h95.378285zM512.438857 509.659429c-17.115429 0-32.694857 4.022857-46.665143 12.141714a86.308571 86.308571 0 0 0-32.475428 32.475428 95.232 95.232 0 0 0-12.141715 48.713143 91.574857 91.574857 0 0 0 44.617143 81.846857c13.970286 8.045714 29.549714 12.141714 46.665143 12.141715a88.941714 88.941714 0 0 0 79.140572-45.348572c8.118857-14.409143 12.214857-30.646857 12.214857-48.64 0-18.505143-4.096-34.742857-12.214857-48.713143a80.384 80.384 0 0 0-32.475429-32.475428 88.941714 88.941714 0 0 0-46.665143-12.141714z" /></svg>