<svg class="icon" width="200px" height="200.00px" viewBox="0 0 1024 1024" version="1.1" xmlns="http://www.w3.org/2000/svg"><path  d="M512 0a512 512 0 1 1 0 1024A512 512 0 0 1 512 0z m0 73.142857a438.857143 438.857143 0 1 0 0 877.714286A438.857143 438.857143 0 0 0 512 73.142857z m0 182.857143c29.257143 0 55.296 5.778286 77.897143 17.334857 22.674286 11.044571 40.374857 26.624 53.248 46.592 13.312 19.968 19.968 42.788571 19.968 68.534857 0 26.185143-6.875429 49.737143-20.626286 70.582857a110.518857 110.518857 0 0 1-34.377143 33.938286c20.918857 10.459429 37.888 24.283429 51.053715 41.325714 17.700571 23.113143 26.624 50.614857 26.624 82.578286 0 27.940571-7.314286 53.394286-21.942858 76.507429a154.331429 154.331429 0 0 1-60.635428 54.637714c-26.185143 13.312-56.612571 19.968-91.209143 19.968-34.596571 0-65.024-6.656-91.209143-19.968a155.428571 155.428571 0 0 1-59.977143-54.637714 143.213714 143.213714 0 0 1-21.211428-76.507429c0-31.963429 8.630857-59.465143 25.892571-82.651428 13.092571-17.188571 29.915429-31.012571 50.614857-41.325715a113.078857 113.078857 0 0 1-35.254857-34.523428 129.389714 129.389714 0 0 1-19.968-69.924572c0-25.234286 6.436571-47.908571 19.309714-67.876571 13.312-19.968 31.232-35.766857 53.906286-47.250286 23.113143-11.556571 49.005714-17.334857 77.897143-17.334857z m0 272.969143c-18.651429 0-35.108571 3.584-49.298286 10.678857a80.749714 80.749714 0 0 0-33.28 29.988571 84.114286 84.114286 0 0 0-11.995428 45.202286c0 17.334857 4.022857 32.402286 11.995428 45.348572 8.045714 12.8 19.090286 23.04 33.28 30.573714 14.262857 7.094857 30.72 10.678857 49.298286 10.678857 19.017143 0 35.766857-3.584 49.956571-10.678857 14.189714-7.533714 25.307429-17.773714 33.28-30.646857a84.114286 84.114286 0 0 0 11.995429-45.275429 84.114286 84.114286 0 0 0-11.995429-45.275428 80.749714 80.749714 0 0 0-33.28-29.988572A110.372571 110.372571 0 0 0 512 529.042286zM512 322.56c-13.750857 0-26.185143 3.145143-37.302857 9.362286a63.195429 63.195429 0 0 0-25.965714 24.649143 67.803429 67.803429 0 0 0-9.289143 35.913142 67.730286 67.730286 0 0 0 35.254857 61.220572c11.117714 5.851429 23.552 8.704 37.302857 8.704 14.189714 0 26.624-2.925714 37.302857-8.630857a67.730286 67.730286 0 0 0 35.254857-61.293715 67.803429 67.803429 0 0 0-9.289143-35.913142 63.195429 63.195429 0 0 0-25.965714-24.649143A72.630857 72.630857 0 0 0 512 322.56z" /></svg>