<svg class="icon" width="200px" height="200.00px" viewBox="0 0 1024 1024" version="1.1" xmlns="http://www.w3.org/2000/svg"><path  d="M512 0a512 512 0 1 1 0 1024A512 512 0 0 1 512 0z m0 73.142857a438.857143 438.857143 0 1 0 0 877.714286A438.857143 438.857143 0 0 0 512 73.142857z m32.475429 182.857143c33.353143 0 62.683429 7.241143 87.917714 21.650286 25.673143 14.409143 45.787429 34.230857 60.196571 59.538285 14.848 24.795429 22.308571 53.174857 22.308572 85.211429a221.915429 221.915429 0 0 1-24.356572 102.838857c-8.996571 17.554286-21.650286 36.937143-37.888 58.148572L512 768H416.621714l147.529143-190.902857-6.144 1.462857a161.865143 161.865143 0 0 1-107.52-17.554286 156.013714 156.013714 0 0 1-56.832-56.758857 166.985143 166.985143 0 0 1-20.333714-82.505143c0-32.036571 7.460571-60.489143 22.381714-85.284571 14.848-24.795429 35.108571-44.397714 60.854857-58.806857A176.493714 176.493714 0 0 1 544.475429 256z m0 70.948571c-17.115429 0-32.694857 4.096-46.665143 12.214858a85.065143 85.065143 0 0 0-32.475429 33.133714 95.232 95.232 0 0 0-12.141714 48.713143c0 18.066286 3.803429 34.084571 11.483428 48.054857a91.209143 91.209143 0 0 0 79.798858 45.348571 88.941714 88.941714 0 0 0 79.140571-45.348571c8.045714-13.970286 12.141714-29.988571 12.141714-48.054857 0-18.432-4.022857-34.669714-12.141714-48.713143a83.675429 83.675429 0 0 0-33.133714-33.133714 87.625143 87.625143 0 0 0-46.08-12.141715z" /></svg>