<?xml version="1.0" standalone="no"?><!DOCTYPE svg PUBLIC "-//W3C//DTD SVG 1.1//EN" "http://www.w3.org/Graphics/SVG/1.1/DTD/svg11.dtd"><svg class="icon" width="200px" height="200.00px" viewBox="0 0 1024 1024" version="1.1" xmlns="http://www.w3.org/2000/svg"><path d="M95.085714 131.657143v687.542857h106.057143a18.285714 18.285714 0 0 1 18.285714 18.285714v58.514286a18.285714 18.285714 0 0 1-18.285714 18.285714H73.142857a73.142857 73.142857 0 0 1-73.142857-73.142857v-731.428571a73.142857 73.142857 0 0 1 73.142857-73.142857h877.714286a73.142857 73.142857 0 0 1 73.142857 73.142857v731.428571a73.142857 73.142857 0 0 1-73.142857 73.142857h-128a18.285714 18.285714 0 0 1-18.285714-18.285714v-58.514286a18.285714 18.285714 0 0 1 18.285714-18.285714h106.057143V131.657143H95.085714zM805.668571 475.648a17.700571 17.700571 0 0 0-1.243428-25.6A448.073143 448.073143 0 0 0 512 342.162286a448.073143 448.073143 0 0 0-292.425143 108.032 17.700571 17.700571 0 0 0-1.243428 25.6l39.862857 42.788571a19.017143 19.017143 0 0 0 26.112 1.316572A353.28 353.28 0 0 1 512 437.174857a353.28 353.28 0 0 1 227.693714 82.651429 19.017143 19.017143 0 0 0 26.112-1.316572l39.862857-42.861714zM673.792 617.691429a17.334857 17.334857 0 0 0-1.462857-25.307429A254.902857 254.902857 0 0 0 512 535.917714c-60.708571 0-116.516571 21.138286-160.402286 56.466286a17.334857 17.334857 0 0 0-1.389714 25.307429l39.862857 42.861714c6.875429 7.460571 18.358857 7.753143 26.477714 1.755428A160.182857 160.182857 0 0 1 512 631.003429c35.693714 0 68.754286 11.629714 95.451429 31.305142 8.045714 5.997714 19.602286 5.705143 26.477714-1.755428l39.862857-42.861714zM512 924.233143l63.195429 63.195428a18.285714 18.285714 0 0 0 25.819428 0l41.398857-41.398857a18.285714 18.285714 0 0 0 0-25.819428l-63.195428-63.195429 63.195428-63.122286a18.285714 18.285714 0 0 0 0-25.892571l-41.398857-41.398857a18.285714 18.285714 0 0 0-25.819428 0L512 789.796571l-63.195429-63.195428a18.285714 18.285714 0 0 0-25.819428 0l-41.398857 41.398857a18.285714 18.285714 0 0 0 0 25.892571l63.195428 63.122286-63.195428 63.195429a18.285714 18.285714 0 0 0 0 25.819428l41.398857 41.398857a18.285714 18.285714 0 0 0 25.819428 0L512 924.233143z" /></svg>