<svg class="icon" width="200px" height="200.00px" viewBox="0 0 1024 1024" version="1.1" xmlns="http://www.w3.org/2000/svg"><path  d="M1009.371429 135.314286a14.628571 14.628571 0 0 1 14.116571 10.752L1024 149.942857v65.828572a14.628571 14.628571 0 0 1-10.752 14.116571l-3.876571 0.512h-104.301715L1024 575.634286v96.694857l-1.828571 11.702857c-16.091429 81.042286-94.866286 143.36-179.858286 148.772571l-12.141714 0.438858c-93.622857 0-183.003429-70.290286-193.828572-160.914286l-0.073143-5.485714 0.073143-5.485715V575.634286l118.930286-345.307429H559.542857v698.514286H716.8a14.628571 14.628571 0 0 1 14.116571 10.752L731.428571 943.542857v65.828572a14.628571 14.628571 0 0 1-10.752 14.116571L716.8 1024H307.2a14.628571 14.628571 0 0 1-14.116571-10.752L292.571429 1009.371429v-65.828572a14.628571 14.628571 0 0 1 10.752-14.116571L307.2 928.914286h157.257143V230.4H268.726857L387.657143 575.634286v96.694857c-10.386286 86.674286-92.672 154.770286-181.686857 160.475428l-12.141715 0.438858c-93.622857 0-183.003429-70.290286-193.828571-160.914286V575.634286L118.930286 230.4H14.628571a14.628571 14.628571 0 0 1-14.116571-10.752L0 215.771429v-65.828572a14.628571 14.628571 0 0 1 10.752-14.116571L14.628571 135.314286h449.828572V14.628571a14.628571 14.628571 0 0 1 10.752-14.116571L479.085714 0h65.828572a14.628571 14.628571 0 0 1 14.116571 10.752L559.542857 14.628571v120.685715h449.828572zM278.820571 672.329143H108.836571a87.771429 87.771429 0 0 0 167.350858 8.557714l2.633142-8.557714z m636.342858 0h-169.984a87.771429 87.771429 0 0 0 169.984 0zM193.828571 305.152L101.595429 575.634286H285.988571L193.828571 305.005714z m636.342858 0l-92.233143 270.555429h184.466285L830.171429 305.152z" /></svg>