<?xml version="1.0" standalone="no"?><!DOCTYPE svg PUBLIC "-//W3C//DTD SVG 1.1//EN" "http://www.w3.org/Graphics/SVG/1.1/DTD/svg11.dtd"><svg class="icon" width="200px" height="200.00px" viewBox="0 0 1024 1024" version="1.1" xmlns="http://www.w3.org/2000/svg"><path d="M950.857143 0a73.142857 73.142857 0 0 1 73.142857 73.142857v877.714286a73.142857 73.142857 0 0 1-73.142857 73.142857H73.142857a73.142857 73.142857 0 0 1-73.142857-73.142857V73.142857a73.142857 73.142857 0 0 1 73.142857-73.142857h877.714286z m-21.942857 387.657143H95.085714v522.971428c0 10.093714 8.192 18.285714 18.285715 18.285715h797.257142a18.285714 18.285714 0 0 0 18.285715-18.285715V387.657143zM795.062857 512a18.285714 18.285714 0 0 1 18.285714 18.285714v266.971429a18.285714 18.285714 0 0 1-18.285714 18.285714h-58.514286a18.285714 18.285714 0 0 1-18.285714-18.285714V674.377143l-206.848 206.774857a18.285714 18.285714 0 0 1-25.819428 0l-41.398858-41.398857a18.285714 18.285714 0 0 1 0-25.819429L651.044571 607.085714h-122.88a18.285714 18.285714 0 0 1-18.285714-18.285714v-58.514286A18.285714 18.285714 0 0 1 528.091429 512h266.971428z m115.565714-416.914286H113.371429a18.285714 18.285714 0 0 0-18.285715 18.285715V292.571429h833.828572V113.371429a18.285714 18.285714 0 0 0-18.285715-18.285715z" /></svg>