<?xml version="1.0" standalone="no"?><!DOCTYPE svg PUBLIC "-//W3C//DTD SVG 1.1//EN" "http://www.w3.org/Graphics/SVG/1.1/DTD/svg11.dtd"><svg class="icon" width="200px" height="200.00px" viewBox="0 0 1024 1024" version="1.1" xmlns="http://www.w3.org/2000/svg"><path d="M666.038857 288.182857l-64.219428-64.365714a14.628571 14.628571 0 0 1 0-20.626286l46.518857-46.592a14.628571 14.628571 0 0 1 20.626285 0l350.793143 351.378286a14.628571 14.628571 0 0 1 3.510857 14.848l-22.528 70.436571a14.628571 14.628571 0 0 1-24.283428 5.851429l-15.067429-15.067429-185.051428 159.890286 43.593143 42.569143 21.430857 22.601143a14.628571 14.628571 0 0 1 0.512 19.456l-21.942857 26.038857a341.796571 341.796571 0 0 1-477.622858 0L57.051429 576.146286l-19.309715 19.382857a14.628571 14.628571 0 0 1-24.795428-8.192L1.097143 506.148571a14.628571 14.628571 0 0 1 4.096-12.434285l332.068571-332.8a14.628571 14.628571 0 0 1 20.699429 0l46.518857 46.592a14.628571 14.628571 0 0 1 0 20.699428L124.196571 508.928l284.306286 277.577143a247.003429 247.003429 0 0 0 306.834286 30.72L517.266286 623.762286a14.628571 14.628571 0 0 1-0.219429-20.699429l45.860572-47.177143a14.628571 14.628571 0 0 1 20.626285-0.219428l124.781715 121.782857 186.002285-160.694857-157.622857-157.842286-291.401143 147.456a14.628571 14.628571 0 0 1-16.969143-2.779429l-49.005714-49.005714a14.628571 14.628571 0 0 1 3.803429-23.405714L666.038857 288.182857zM666.038857 288.182857l-64.219428-64.365714a14.628571 14.628571 0 0 1 0-20.626286l46.518857-46.592a14.628571 14.628571 0 0 1 20.626285 0l350.793143 351.378286a14.628571 14.628571 0 0 1 3.510857 14.848l-22.528 70.436571a14.628571 14.628571 0 0 1-24.283428 5.851429l-15.067429-15.067429-185.051428 159.890286 43.593143 42.569143 21.430857 22.601143a14.628571 14.628571 0 0 1 0.512 19.456l-21.942857 26.038857a341.796571 341.796571 0 0 1-477.622858 0L57.051429 576.146286l-19.309715 19.382857a14.628571 14.628571 0 0 1-24.795428-8.192L1.097143 506.148571a14.628571 14.628571 0 0 1 4.096-12.434285l332.068571-332.8a14.628571 14.628571 0 0 1 20.699429 0l46.518857 46.592a14.628571 14.628571 0 0 1 0 20.699428L124.196571 508.928l284.306286 277.577143a247.003429 247.003429 0 0 0 306.834286 30.72L517.266286 623.762286a14.628571 14.628571 0 0 1-0.219429-20.699429l45.860572-47.177143a14.628571 14.628571 0 0 1 20.626285-0.219428l124.781715 121.782857 186.002285-160.694857-157.622857-157.842286-291.401143 147.456a14.628571 14.628571 0 0 1-16.969143-2.779429l-49.005714-49.005714a14.628571 14.628571 0 0 1 3.803429-23.405714L666.038857 288.182857z" /></svg>