<?xml version="1.0" standalone="no"?><!DOCTYPE svg PUBLIC "-//W3C//DTD SVG 1.1//EN" "http://www.w3.org/Graphics/SVG/1.1/DTD/svg11.dtd"><svg class="icon" width="200px" height="200.00px" viewBox="0 0 1024 1024" version="1.1" xmlns="http://www.w3.org/2000/svg"><path d="M768 0a182.857143 182.857143 0 1 1-123.099429 318.098286l-213.577142 136.704a219.721143 219.721143 0 0 1 1.024 110.445714l201.874285 100.937143a219.428571 219.428571 0 1 1-42.569143 84.992L389.851429 650.386286a219.428571 219.428571 0 1 1-2.852572-280.064l206.701714-132.242286A182.857143 182.857143 0 0 1 768 0z m36.571429 680.228571a124.342857 124.342857 0 1 0 0 248.685715 124.342857 124.342857 0 0 0 0-248.685715z m-585.142858-292.571428a124.342857 124.342857 0 1 0 0 248.685714 124.342857 124.342857 0 0 0 0-248.685714z m548.571429-292.571429a87.771429 87.771429 0 1 0 0 175.542857 87.771429 87.771429 0 0 0 0-175.542857z" /></svg>