<?xml version="1.0" standalone="no"?><!DOCTYPE svg PUBLIC "-//W3C//DTD SVG 1.1//EN" "http://www.w3.org/Graphics/SVG/1.1/DTD/svg11.dtd"><svg class="icon" width="200px" height="200.00px" viewBox="0 0 1024 1024" version="1.1" xmlns="http://www.w3.org/2000/svg"><path d="M804.571429 365.714286h73.142857a73.142857 73.142857 0 0 1 73.142857 73.142857v512a73.142857 73.142857 0 0 1-73.142857 73.142857H146.285714a73.142857 73.142857 0 0 1-73.142857-73.142857V438.857143a73.142857 73.142857 0 0 1 73.142857-73.142857h73.142857V292.571429a292.571429 292.571429 0 1 1 585.142858 0v73.142857zM168.228571 460.8v468.114286h687.542858V460.8H168.228571zM709.485714 365.714286V292.571429a197.485714 197.485714 0 1 0-394.971428 0v73.142857h394.971428zM804.571429 365.714286h73.142857a73.142857 73.142857 0 0 1 73.142857 73.142857v512a73.142857 73.142857 0 0 1-73.142857 73.142857H146.285714a73.142857 73.142857 0 0 1-73.142857-73.142857V438.857143a73.142857 73.142857 0 0 1 73.142857-73.142857h73.142857V292.571429a292.571429 292.571429 0 1 1 585.142858 0v73.142857zM168.228571 460.8v468.114286h687.542858V460.8H168.228571zM709.485714 365.714286V292.571429a197.485714 197.485714 0 1 0-394.971428 0v73.142857h394.971428z" /></svg>
