<?xml version="1.0" standalone="no"?><!DOCTYPE svg PUBLIC "-//W3C//DTD SVG 1.1//EN" "http://www.w3.org/Graphics/SVG/1.1/DTD/svg11.dtd"><svg class="icon" width="200px" height="200.00px" viewBox="0 0 1024 1024" version="1.1" xmlns="http://www.w3.org/2000/svg"><path d="M512 182.784A159.451429 159.451429 0 0 1 672.036571 341.577143c0 55.149714-28.306286 103.716571-71.241142 132.242286-25.453714 16.822857-55.954286 26.697143-88.795429 26.697142-32.841143 0-63.341714-9.874286-88.795429-26.697142a158.500571 158.500571 0 0 1-71.168-132.242286c0-87.771429 71.606857-158.866286 159.963429-158.866286z m0 95.012571a64.365714 64.365714 0 0 0-64.950857 63.853715c0 34.742857 28.525714 63.926857 64.950857 63.926857a64.365714 64.365714 0 0 0 64.950857-63.926857A64.365714 64.365714 0 0 0 512 277.796571zM808.374857 928.987429A510.976 510.976 0 0 0 1024 511.707429 511.853714 511.853714 0 0 0 512 0C229.229714 0 0 229.083429 0 511.707429a510.829714 510.829714 0 0 0 208.018286 411.794285 511.341714 511.341714 0 0 0 600.356571 5.485715z m-87.478857-56.612572A415.232 415.232 0 0 1 512 928.329143a415.232 415.232 0 0 1-208.896-55.954286v-68.242286c0-24.502857 15.579429-61.074286 57.051429-95.012571A244.662857 244.662857 0 0 1 512 654.409143c56.466286 0 111.542857 21.796571 151.771429 54.710857 41.545143 33.938286 57.124571 70.509714 57.124571 95.012571v68.242286z m94.939429-75.337143c-4.169143-94.061714-91.136-185.929143-203.556572-221.842285A329.874286 329.874286 0 0 0 512 559.396571a329.874286 329.874286 0 0 0-100.205714 15.798858c-112.493714 35.913143-199.460571 127.780571-203.629715 221.842285A416.768 416.768 0 0 1 512 95.085714a416.768 416.768 0 0 1 303.835429 701.952z" /></svg>