<?xml version="1.0" standalone="no"?><!DOCTYPE svg PUBLIC "-//W3C//DTD SVG 1.1//EN" "http://www.w3.org/Graphics/SVG/1.1/DTD/svg11.dtd"><svg class="icon" width="200px" height="200.00px" viewBox="0 0 1024 1024" version="1.1" xmlns="http://www.w3.org/2000/svg"><path d="M509.147443 0.00512A221.694892 221.694892 0 0 1 512 443.468046h-2.852557a221.768034 221.768034 0 0 1 0-443.462926z m0 95.085239a126.609653 126.609653 0 1 0 0 253.292448 126.609653 126.609653 0 0 0 0-253.292448zM512 512.00256c31.158701 0 64.731105 3.437697 98.815506 9.874236 163.107756 30.866131 340.039443 131.5102 340.039443 262.581545v123.90338C950.854949 1011.638919 548.132391 1024 512 1024c-36.132391 0-438.854949-12.434224-438.854949-115.565136v-123.903381c0-130.193635 174.298557-230.252563 336.455461-261.923262 34.303828-6.729109 68.022517-10.386234 99.546931-10.605661H512z m0 95.085239c-73.142491 0-167.05745 23.990737-240.931367 64.87739-79.359603 43.958637-102.838343 87.551562-102.838343 112.566294v95.597236l4.38855 1.901705c27.794147 11.337086 70.289934 21.211323 120.685111 28.891284A1813.202363 1813.202363 0 0 0 512 928.914761c14.774783 0 119.514831-2.9257 218.696049-17.993053 50.395177-7.679962 92.890964-17.554198 120.685111-28.891284l4.38855-1.901705v-95.597236c0-25.014732-23.405597-68.607657-102.838343-112.639437C679.05745 631.151679 585.142491 607.087799 512 607.087799z" /></svg>