<?xml version="1.0" standalone="no"?><!DOCTYPE svg PUBLIC "-//W3C//DTD SVG 1.1//EN" "http://www.w3.org/Graphics/SVG/1.1/DTD/svg11.dtd"><svg class="icon" width="200px" height="200.00px" viewBox="0 0 1024 1024" version="1.1" xmlns="http://www.w3.org/2000/svg"><path d="M532.187429 82.651429l411.209142 411.209142a25.6 25.6 0 0 1 0 36.205715L532.187429 941.348571a18.285714 18.285714 0 0 1-25.892572 0l-41.398857-41.325714a18.285714 18.285714 0 0 1 0-25.892571l314.514286-314.514286H91.428571A18.285714 18.285714 0 0 1 73.142857 541.257143v-58.514286a18.285714 18.285714 0 0 1 18.285714-18.285714h687.981715l-314.514286-314.514286a18.285714 18.285714 0 0 1 0-25.892571l41.398857-41.325715a18.285714 18.285714 0 0 1 25.892572 0z" /></svg>