<?xml version="1.0" standalone="no"?><!DOCTYPE svg PUBLIC "-//W3C//DTD SVG 1.1//EN" "http://www.w3.org/Graphics/SVG/1.1/DTD/svg11.dtd"><svg class="icon" width="200px" height="200.00px" viewBox="0 0 1024 1024" version="1.1" xmlns="http://www.w3.org/2000/svg"><path d="M491.812571 82.651429L80.676571 493.933714a25.6 25.6 0 0 0 0 36.205715l411.136 411.209142a18.285714 18.285714 0 0 0 25.892572 0l41.398857-41.325714a18.285714 18.285714 0 0 0 0-25.892571l-314.514286-314.514286h687.981715A18.285714 18.285714 0 0 0 950.857143 541.257143v-58.514286a18.285714 18.285714 0 0 0-18.285714-18.285714H244.516571l314.514286-314.514286a18.285714 18.285714 0 0 0 0-25.892571l-41.325714-41.325715a18.285714 18.285714 0 0 0-25.892572 0z" /></svg>