<?xml version="1.0" standalone="no"?><!DOCTYPE svg PUBLIC "-//W3C//DTD SVG 1.1//EN" "http://www.w3.org/Graphics/SVG/1.1/DTD/svg11.dtd"><svg class="icon" width="200px" height="200.00px" viewBox="0 0 1024 1024" version="1.1" xmlns="http://www.w3.org/2000/svg"><path d="M475.428571 548.571429a10.971429 10.971429 0 0 1-10.971428-10.971429v-270.628571a10.971429 10.971429 0 0 1 10.971428-10.971429h73.142858a10.971429 10.971429 0 0 1 10.971428 10.971429v270.628571a10.971429 10.971429 0 0 1-10.971428 10.971429h-73.142858zM256 475.428571a10.971429 10.971429 0 0 1-10.971429-10.971428v-124.342857a10.971429 10.971429 0 0 1 10.971429-10.971429h73.142857a10.971429 10.971429 0 0 1 10.971429 10.971429v124.342857a10.971429 10.971429 0 0 1-10.971429 10.971428h-73.142857zM683.885714 340.114286a10.971429 10.971429 0 0 1 10.971429-10.971429h73.142857a10.971429 10.971429 0 0 1 10.971429 10.971429v124.342857a10.971429 10.971429 0 0 1-10.971429 10.971428h-73.142857a10.971429 10.971429 0 0 1-10.971429-10.971428v-124.342857zM0 157.257143A157.257143 157.257143 0 0 1 157.257143 0h709.485714A157.257143 157.257143 0 0 1 1024 157.257143v490.057143A157.257143 157.257143 0 0 1 866.742857 804.571429h-709.485714A157.257143 157.257143 0 0 1 0 647.314286v-490.057143z m157.257143-62.171429a62.171429 62.171429 0 0 0-62.171429 62.171429v490.057143c0 34.377143 27.794286 62.171429 62.171429 62.171428h709.485714c34.377143 0 62.171429-27.794286 62.171429-62.171428v-490.057143a62.171429 62.171429 0 0 0-62.171429-62.171429h-709.485714zM731.428571 1005.714286a18.285714 18.285714 0 0 1-18.285714 18.285714h-402.285714a18.285714 18.285714 0 0 1-18.285714-18.285714v-58.514286a18.285714 18.285714 0 0 1 18.285714-18.285714h402.285714a18.285714 18.285714 0 0 1 18.285714 18.285714v58.514286z" /></svg>