<svg class="icon" width="200px" height="200.00px" viewBox="0 0 1024 1024" version="1.1" xmlns="http://www.w3.org/2000/svg"><path  d="M318.158635 157.178554a157.178554 157.178554 0 0 1 314.357107 0v233.940172h271.224388c72.082816 0 128.082245 62.871421 119.748126 134.588706l-35.675876 306.461626a216.906404 216.906404 0 0 1-215.444278 191.830942H487.619048a169.606625 169.606625 0 0 1-133.419005-64.845292L106.881416 644.285857a158.055829 158.055829 0 0 1 211.277219-229.626901V157.178554z m157.178554-62.140359a62.140358 62.140358 0 0 0-62.140359 62.140359v377.009209c0 46.130078-58.119512 66.526737-86.996502 30.485329l-45.837652-57.388449a63.017634 63.017634 0 0 0-98.693511 78.296852l247.318627 314.868851c14.182623 17.984151 35.822089 28.511459 58.704362 28.511459h284.675948c61.847933 0 113.826515-46.349397 120.990933-107.758692l35.748982-306.461627a25.587206 25.587206 0 0 0-25.440993-28.511458H586.093239a48.688798 48.688798 0 0 1-48.615692-48.761905V157.178554a62.140358 62.140358 0 0 0-62.140358-62.140359z" /></svg>