<?xml version="1.0" standalone="no"?><!DOCTYPE svg PUBLIC "-//W3C//DTD SVG 1.1//EN" "http://www.w3.org/Graphics/SVG/1.1/DTD/svg11.dtd"><svg class="icon" width="200px" height="200.00px" viewBox="0 0 1024 1024" version="1.1" xmlns="http://www.w3.org/2000/svg"><path d="M365.714286 73.142857H146.285714a73.142857 73.142857 0 0 0-73.142857 73.142857v219.428572h95.085714V182.857143c0-8.045714 6.582857-14.628571 14.628572-14.628572H365.714286V73.142857zM658.285714 168.228571V73.142857h219.428572a73.142857 73.142857 0 0 1 73.142857 73.142857v219.428572h-95.085714V182.857143a14.628571 14.628571 0 0 0-14.628572-14.628572H658.285714zM855.771429 841.142857a14.628571 14.628571 0 0 1-14.628572 14.628572H658.285714V950.857143h219.428572a73.142857 73.142857 0 0 0 73.142857-73.142857V658.285714h-95.085714v182.857143zM168.228571 658.285714v182.857143c0 8.045714 6.582857 14.628571 14.628572 14.628572H365.714286V950.857143H146.285714a73.142857 73.142857 0 0 1-73.142857-73.142857V658.285714h95.085714zM219.428571 307.2c0-8.045714 6.582857-14.628571 14.628572-14.628571h65.828571c8.045714 0 14.628571 6.582857 14.628572 14.628571v409.6a14.628571 14.628571 0 0 1-14.628572 14.628571h-65.828571a14.628571 14.628571 0 0 1-14.628572-14.628571V307.2zM482.742857 307.2a14.628571 14.628571 0 0 0-14.628571-14.628571h-65.828572a14.628571 14.628571 0 0 0-14.628571 14.628571v409.6c0 8.045714 6.582857 14.628571 14.628571 14.628571h65.828572a14.628571 14.628571 0 0 0 14.628571-14.628571V307.2zM555.885714 307.2c0-8.045714 6.582857-14.628571 14.628572-14.628571h65.828571c8.045714 0 14.628571 6.582857 14.628572 14.628571v409.6a14.628571 14.628571 0 0 1-14.628572 14.628571h-65.828571a14.628571 14.628571 0 0 1-14.628572-14.628571V307.2zM819.2 307.2A14.628571 14.628571 0 0 0 804.571429 292.571429h-65.828572a14.628571 14.628571 0 0 0-14.628571 14.628571v409.6c0 8.045714 6.582857 14.628571 14.628571 14.628571h65.828572a14.628571 14.628571 0 0 0 14.628571-14.628571V307.2z" /></svg>