<?xml version="1.0" standalone="no"?><!DOCTYPE svg PUBLIC "-//W3C//DTD SVG 1.1//EN" "http://www.w3.org/Graphics/SVG/1.1/DTD/svg11.dtd"><svg class="icon" width="200px" height="200.00px" viewBox="0 0 1024 1024" version="1.1" xmlns="http://www.w3.org/2000/svg"><path d="M215.04 78.848A14.628571 14.628571 0 0 1 226.596571 73.142857h570.733715a14.628571 14.628571 0 0 1 11.629714 5.705143l59.684571 77.604571a7.314286 7.314286 0 0 1-5.851428 11.776H161.206857a7.314286 7.314286 0 0 1-5.851428-11.776l59.757714-77.531428zM675.913143 442.733714a14.555429 14.555429 0 0 0-4.973714-19.748571l-91.501715-54.857143a17.188571 17.188571 0 0 0-23.625143 6.144l-9.216 15.579429a40.082286 40.082286 0 0 1-69.193142 0L468.114286 374.272a17.188571 17.188571 0 0 0-23.625143-6.144l-88.941714 53.321143a17.481143 17.481143 0 0 0-6.070858 23.844571l5.266286 8.923429a40.594286 40.594286 0 0 1-34.596571 61.366857h-10.386286A17.334857 17.334857 0 0 0 292.571429 532.918857v104.448c0 9.508571 7.753143 17.334857 17.261714 17.334857h10.386286c31.158857 0 50.468571 34.304 34.596571 61.366857l-5.266286 8.923429a17.554286 17.554286 0 0 0 6.070857 23.844571l88.941715 53.321143c8.192 4.900571 18.797714 2.194286 23.625143-6.144l9.216-15.579428a40.082286 40.082286 0 0 1 69.193142 0l9.216 15.579428c4.827429 8.338286 15.36 10.971429 23.625143 6.144l88.941715-53.321143a17.554286 17.554286 0 0 0 6.070857-23.844571l-5.266286-8.923429a40.594286 40.594286 0 0 1 34.596571-61.366857h10.386286c9.508571 0 17.261714-7.753143 17.261714-17.334857V529.993143a14.409143 14.409143 0 0 0-14.336-14.409143 48.274286 48.274286 0 0 1-41.179428-72.850286zM606.061714 585.142857a94.061714 94.061714 0 1 1-188.123428 0 94.061714 94.061714 0 0 1 188.123428 0zM914.285714 219.428571a36.571429 36.571429 0 0 1 36.571429 36.571429v658.285714a36.571429 36.571429 0 0 1-36.571429 36.571429h-804.571428a36.571429 36.571429 0 0 1-36.571429-36.571429v-658.285714a36.571429 36.571429 0 0 1 36.571429-36.571429z m-58.514285 95.085715H168.228571v541.257143h687.542858V314.514286z" /></svg>