<svg class="icon" width="200px" height="200.00px" viewBox="0 0 1024 1024" version="1.1" xmlns="http://www.w3.org/2000/svg"><path  d="M920.518117 593.986432a15.207924 15.207924 0 0 1 22.373197-10.382333l59.223167 34.80275a14.403659 14.403659 0 0 1 6.799697 15.792845 511.805148 511.805148 0 1 1-55.201841-380.929261l48.913949-23.689266a14.623004 14.623004 0 0 1 20.984011 13.160703V448.19508a14.623004 14.623004 0 0 1-22.592542 12.283324L820.131193 342.909449a14.623004 14.623004 0 0 1 1.535415-25.370912l46.208694-22.446311a416.755621 416.755621 0 1 0 52.642815 298.894206zM511.805148 208.37781a193.754806 193.754806 0 0 0-172.112759 282.882018A47.524764 47.524764 0 0 0 424.067123 447.46393a98.705279 98.705279 0 1 1 134.970329 41.309987 221.392284 221.392284 0 0 0-61.562848 48.402144c-18.132525 21.203356-33.19422 49.645099-33.194219 84.301619v14.623005a47.524764 47.524764 0 0 0 95.049527 0v-14.623005c0-5.776087 2.339681-13.160704 10.309218-22.446311 8.261997-9.578068 20.618436-18.93679 35.09521-26.833213A193.754806 193.754806 0 0 0 511.805148 208.37781zM511.585803 711.628501a55.932991 55.932991 0 0 0-56.810371 56.079222c0 31.805034 25.444027 56.079221 56.810371 56.079221a55.786761 55.786761 0 0 0 57.102832-56.079221 55.786761 55.786761 0 0 0-57.102832-56.079222z" /></svg>