<?xml version="1.0" standalone="no"?><!DOCTYPE svg PUBLIC "-//W3C//DTD SVG 1.1//EN" "http://www.w3.org/Graphics/SVG/1.1/DTD/svg11.dtd"><svg class="icon" width="200px" height="200.00px" viewBox="0 0 1024 1024" version="1.1" xmlns="http://www.w3.org/2000/svg"><path d="M877.714286 0a73.142857 73.142857 0 0 1 73.142857 73.142857v877.714286a73.142857 73.142857 0 0 1-73.142857 73.142857H146.285714a73.142857 73.142857 0 0 1-73.142857-73.142857V73.142857a73.142857 73.142857 0 0 1 73.142857-73.142857h731.428572z m-21.942857 387.730286l-12.507429 4.534857A1002.496 1002.496 0 0 1 512 449.828571a1002.496 1002.496 0 0 1-343.771429-62.098285V928.914286h687.542858z m0-292.644572H168.228571v190.610286A907.483429 907.483429 0 0 0 512 354.742857a907.483429 907.483429 0 0 0 343.771429-69.046857V95.085714z" /></svg>