<svg class="icon" width="200px" height="200.00px" viewBox="0 0 1024 1024" version="1.1" xmlns="http://www.w3.org/2000/svg"><path  d="M76.8 464.457143a14.628571 14.628571 0 0 0-14.628571 14.628571v65.828572c0 8.045714 6.582857 14.628571 14.628571 14.628571h870.4a14.628571 14.628571 0 0 0 14.628571-14.628571V490.057143v-10.971429a14.628571 14.628571 0 0 0-14.628571-14.628571H76.8zM76.8 464.457143a14.628571 14.628571 0 0 0-14.628571 14.628571v65.828572c0 8.045714 6.582857 14.628571 14.628571 14.628571h870.4a14.628571 14.628571 0 0 0 14.628571-14.628571V490.057143v-10.971429a14.628571 14.628571 0 0 0-14.628571-14.628571H76.8z" /></svg>