<?xml version="1.0" standalone="no"?><!DOCTYPE svg PUBLIC "-//W3C//DTD SVG 1.1//EN" "http://www.w3.org/Graphics/SVG/1.1/DTD/svg11.dtd"><svg class="icon" width="200px" height="200.00px" viewBox="0 0 1024 1024" version="1.1" xmlns="http://www.w3.org/2000/svg"><path d="M0.000731 512.083628c0 37.833439 4.090101 74.790427 11.905117 110.286665 1.825938 8.180203 9.129691 13.87713 17.529007 13.87713h59.525584a19.135832 19.135832 0 0 0 18.113306-23.883271A416.313902 416.313902 0 0 1 784.496805 198.022264l-61.13241 64.05391a18.259382 18.259382 0 0 0 13.146755 30.894874h207.937838a17.529006 17.529006 0 0 0 15.776106-25.709209A511.262686 511.262686 0 0 0 0.000731 512.083628zM915.45309 411.803104a19.135832 19.135832 0 0 1 18.113306-23.883271h59.525585c8.399316 0 15.703068 5.696927 17.529006 13.87713A511.262686 511.262686 0 0 1 62.374779 756.905417 17.529006 17.529006 0 0 1 78.00481 731.196208h207.937838a18.259382 18.259382 0 0 1 13.146755 30.894874l-61.205447 64.05391a416.313902 416.313902 0 0 0 677.423059-414.341888z" /></svg>