<?xml version="1.0" standalone="no"?><!DOCTYPE svg PUBLIC "-//W3C//DTD SVG 1.1//EN" "http://www.w3.org/Graphics/SVG/1.1/DTD/svg11.dtd"><svg class="icon" width="200px" height="186.69px" viewBox="0 0 1097 1024" version="1.1" xmlns="http://www.w3.org/2000/svg"><path d="M930.011429 40.96L90.843429 530.432a62.171429 62.171429 0 0 0 3.510857 109.348571l242.102857 121.051429v191.268571c0 55.442286 66.998857 83.163429 106.130286 43.958858L563.931429 874.788571l0.146285-0.146285 148.260572 74.093714a62.171429 62.171429 0 0 0 87.917714-39.936l210.432-806.619429A54.857143 54.857143 0 0 0 930.011429 40.96zM431.542857 808.374857l42.861714 21.430857-42.861714 42.861715v-64.365715z m49.298286-81.700571l389.705143-464.018286-151.990857 582.948571-237.714286-118.930285z m273.042286-472.868572l-360.594286 429.129143-201.947429-100.937143 562.541715-328.192zM930.011429 40.96L90.843429 530.432a62.171429 62.171429 0 0 0 3.510857 109.348571l242.102857 121.051429v191.268571c0 55.442286 66.998857 83.163429 106.130286 43.958858L563.931429 874.788571l0.146285-0.146285 148.260572 74.093714a62.171429 62.171429 0 0 0 87.917714-39.936l210.432-806.619429A54.857143 54.857143 0 0 0 930.011429 40.96zM431.542857 808.374857l42.861714 21.430857-42.861714 42.861715v-64.365715z m49.298286-81.700571l389.705143-464.018286-151.990857 582.948571-237.714286-118.930285z m273.042286-472.868572l-360.594286 429.129143-201.947429-100.937143 562.541715-328.192z" /></svg>