<?xml version="1.0" standalone="no"?><!DOCTYPE svg PUBLIC "-//W3C//DTD SVG 1.1//EN" "http://www.w3.org/Graphics/SVG/1.1/DTD/svg11.dtd"><svg class="icon" width="200px" height="200.00px" viewBox="0 0 1024 1024" version="1.1" xmlns="http://www.w3.org/2000/svg"><path d="M877.714286 512a73.142857 73.142857 0 0 1 73.142857 73.142857v292.571429a73.142857 73.142857 0 0 1-73.142857 73.142857H585.142857a73.142857 73.142857 0 0 1-73.142857-73.142857V585.142857a73.142857 73.142857 0 0 1 73.142857-73.142857h292.571429zM153.6 585.142857c8.045714 0 14.628571 6.582857 14.628571 14.628572V658.285714A197.485714 197.485714 0 0 0 365.714286 855.771429v-36.571429c0-8.045714 6.582857-14.628571 14.628571-14.628571h16.310857a14.628571 14.628571 0 0 1 9.801143 3.730285l100.717714 90.697143a14.628571 14.628571 0 0 1 4.827429 10.825143v26.404571a14.628571 14.628571 0 0 1-14.628571 14.628572H365.714286a292.571429 292.571429 0 0 1-292.571429-292.571429v-58.514285c0-8.045714 6.582857-14.628571 14.628572-14.628572h65.828571z m702.171429 21.942857H607.085714v248.685715h248.685715V607.085714zM438.857143 73.142857a73.142857 73.142857 0 0 1 73.142857 73.142857v292.571429a73.142857 73.142857 0 0 1-73.142857 73.142857H146.285714a73.142857 73.142857 0 0 1-73.142857-73.142857V146.285714a73.142857 73.142857 0 0 1 73.142857-73.142857h292.571429z m219.428571 0a292.571429 292.571429 0 0 1 292.571429 292.571429v58.514285a14.628571 14.628571 0 0 1-14.628572 14.628572h-65.828571a14.628571 14.628571 0 0 1-14.628571-14.628572V365.714286A197.485714 197.485714 0 0 0 658.285714 168.228571v36.571429a14.628571 14.628571 0 0 1-14.628571 14.628571h-16.310857a14.628571 14.628571 0 0 1-9.801143-3.730285l-100.717714-90.697143A14.628571 14.628571 0 0 1 512 114.249143V87.771429c0-8.045714 6.582857-14.628571 14.628571-14.628572H658.285714zM416.914286 168.228571H168.228571v248.685715h248.685715V168.228571z" /></svg>