<?xml version="1.0" standalone="no"?><!DOCTYPE svg PUBLIC "-//W3C//DTD SVG 1.1//EN" "http://www.w3.org/Graphics/SVG/1.1/DTD/svg11.dtd"><svg class="icon" width="200px" height="200.00px" viewBox="0 0 1024 1024" version="1.1" xmlns="http://www.w3.org/2000/svg"><path d="M943.187631 583.83212a15.212704 15.212704 0 0 0-22.453365 10.385596A417.032869 417.032869 0 0 1 95.079398 512.010605a416.886593 416.886593 0 0 1 773.068646-216.781028l-46.223215 22.453365a14.6276 14.6276 0 0 0-1.535898 25.378886L1001.259202 460.814006A14.6276 14.6276 0 0 0 1023.931982 448.453684V242.86277a14.6276 14.6276 0 0 0-20.990606-13.16484l-49.002459 23.76985a511.965991 511.965991 0 1 0 55.219189 381.048973 14.408186 14.408186 0 0 0-6.728696-15.870946l-59.241779-34.813687z" /></svg>