<?xml version="1.0" standalone="no"?><!DOCTYPE svg PUBLIC "-//W3C//DTD SVG 1.1//EN" "http://www.w3.org/Graphics/SVG/1.1/DTD/svg11.dtd"><svg class="icon" width="200px" height="186.69px" viewBox="0 0 1097 1024" version="1.1" xmlns="http://www.w3.org/2000/svg"><path d="M548.571429 0c16.091429 0 31.890286 0.731429 47.542857 2.194286V614.4a18.285714 18.285714 0 0 1-18.285715 18.285714h-58.514285a18.285714 18.285714 0 0 1-18.285715-18.285714V2.194286C516.681143 0.731429 532.553143 0 548.571429 0zM303.323429 62.464a17.773714 17.773714 0 0 1 24.429714 7.826286l26.185143 52.370285a18.944 18.944 0 0 1-8.045715 24.868572 416.914286 416.914286 0 1 0 405.284572 0 18.944 18.944 0 0 1-7.899429-24.868572l26.112-52.370285a17.773714 17.773714 0 0 1 24.429715-7.826286 512 512 0 1 1-490.496 0z" /></svg>