<?xml version="1.0" standalone="no"?><!DOCTYPE svg PUBLIC "-//W3C//DTD SVG 1.1//EN" "http://www.w3.org/Graphics/SVG/1.1/DTD/svg11.dtd"><svg class="icon" width="200px" height="200.00px" viewBox="0 0 1024 1024" version="1.1" xmlns="http://www.w3.org/2000/svg"><path d="M782.628571 204.8c0 8.045714 6.582857 14.628571 14.628572 14.628571h65.828571a14.628571 14.628571 0 0 0 14.628572-14.628571V73.142857a73.142857 73.142857 0 0 0-73.142857-73.142857H146.285714a73.142857 73.142857 0 0 0-73.142857 73.142857v877.714286a73.142857 73.142857 0 0 0 73.142857 73.142857h274.285715a18.285714 18.285714 0 0 0 18.285714-18.285714v-58.514286a18.285714 18.285714 0 0 0-18.285714-18.285714H168.228571V95.085714h614.4v109.714286zM530.285714 928.914286a18.285714 18.285714 0 0 0-18.285714 18.285714v58.514286c0 10.093714 8.192 18.285714 18.285714 18.285714h146.285715a274.285714 274.285714 0 1 0 0-548.571429H537.161143l78.482286-78.482285A18.285714 18.285714 0 0 0 602.697143 365.714286H522.971429a25.6 25.6 0 0 0-18.066286 7.533714l-131.657143 131.657143a25.6 25.6 0 0 0 0 36.205714l131.657143 131.657143a25.6 25.6 0 0 0 18.066286 7.460571h79.725714a18.285714 18.285714 0 0 0 12.946286-31.232L537.088 570.514286H676.571429a179.2 179.2 0 1 1 0 358.4h-146.285715z" /></svg>