<svg class="icon" width="200px" height="200.00px" viewBox="0 0 1024 1024" version="1.1" xmlns="http://www.w3.org/2000/svg"><path  d="M512 0l438.857143 181.101714V475.428571a18.285714 18.285714 0 0 1-14.774857 17.993143l-4.096 0.292572a18.139429 18.139429 0 0 1-8.338286-2.340572l-58.514286-32.841143a18.285714 18.285714 0 0 1-9.362285-15.945142V244.736L512 102.838857l-343.771429 141.897143v315.172571c0 63.634286 29.110857 156.452571 117.76 234.057143 41.545143 36.571429 104.155429 71.68 161.353143 98.962286l16.969143 7.972571 30.72 13.677715 85.723429 48.054857a18.285714 18.285714 0 0 1-1.755429 32.768L512 1024l-28.672-11.264-26.477714-11.117714-44.397715-20.041143-37.741714-18.505143-26.331428-13.824c-44.105143-23.990857-89.526857-52.516571-125.074286-83.748571C113.737143 769.462857 73.142857 650.459429 73.142857 559.908571V181.101714L512 0z m279.186286 624.859429l105.398857 30.427428a146.285714 146.285714 0 0 1-28.379429 286.354286l-10.386285 0.512a146.285714 146.285714 0 0 1-42.349715-5.778286l-105.398857-30.427428 26.331429-91.355429 105.472 30.427429a51.2 51.2 0 0 0 14.774857 2.048l7.314286-0.585143a51.2 51.2 0 0 0 6.290285-99.84l-105.398857-30.427429 26.331429-91.355428z m-113.517715-4.096l10.752 94.500571-108.982857 12.434286a51.2 51.2 0 0 0 4.534857 102.034285l6.948572-0.365714 108.982857-12.361143 10.752 94.500572-108.982857 12.361143-10.971429 0.804571H580.022857a146.285714 146.285714 0 0 1-11.337143-291.547429l108.982857-12.361142zM424.228571 548.571429c8.045714 0 14.628571 6.582857 14.628572 14.628571v65.828571a14.628571 14.628571 0 0 1-10.752 14.116572L424.228571 643.657143H307.2a14.628571 14.628571 0 0 1-14.628571-14.628572v-65.828571c0-8.045714 6.582857-14.628571 14.628571-14.628571h117.028571z m407.186286-61.732572l69.705143 53.613714-152.429714 87.478858 2.413714-36.498286 80.310857-104.594286zM661.211429 475.428571l53.467428 113.590858-2.413714 36.425142-102.985143-104.594285 51.931429-45.421715z m55.661714-146.285714c8.045714 0 14.628571 6.582857 14.628571 14.628572v65.828571a14.628571 14.628571 0 0 1-10.752 14.116571L716.8 424.228571H307.2a14.628571 14.628571 0 0 1-14.628571-14.628571v-65.828571c0-8.045714 6.582857-14.628571 14.628571-14.628572h409.6z" /></svg>