<?xml version="1.0" standalone="no"?><!DOCTYPE svg PUBLIC "-//W3C//DTD SVG 1.1//EN" "http://www.w3.org/Graphics/SVG/1.1/DTD/svg11.dtd"><svg class="icon" width="200px" height="200.00px" viewBox="0 0 1024 1024" version="1.1" xmlns="http://www.w3.org/2000/svg"><path d="M12.235473 622.304682a511.346207 511.346207 0 0 1 948.401116-355.166466 17.53187 17.53187 0 0 1-15.705634 25.713409h-207.898758a18.262365 18.262365 0 0 1-13.221952-30.89992l61.215446-64.064375a416.381912 416.381912 0 0 0-677.533724 414.409576 19.138958 19.138958 0 0 1-18.262365 23.887173H29.840393a17.824068 17.824068 0 0 1-17.53187-13.879397zM934.046586 387.815921a19.138958 19.138958 0 0 0-18.116266 23.887173A416.381912 416.381912 0 0 1 238.396596 826.11267l61.142396-64.064375a18.262365 18.262365 0 0 0-13.148902-30.89992H78.418282a17.53187 17.53187 0 0 0-15.778683 25.713409A511.346207 511.346207 0 0 0 1011.040715 401.695318a17.824068 17.824068 0 0 0-17.53187-13.879397h-59.462259zM473.104505 264.654535l-67.570749 270.282995a10.957419 10.957419 0 0 0 10.592171 13.587199H475.14989l-34.333246 206.364719a10.957419 10.957419 0 0 0 10.738271 12.783656h17.53187a10.957419 10.957419 0 0 0 9.277281-5.113462l168.963397-270.282996a10.957419 10.957419 0 0 0-9.350331-16.801375H548.199348l68.228194-204.757631a10.957419 10.957419 0 0 0-10.373023-14.390744H483.696676a10.957419 10.957419 0 0 0-10.592171 8.327639z" /></svg>