<svg class="icon" width="200px" height="200.00px" viewBox="0 0 1024 1024" version="1.1" xmlns="http://www.w3.org/2000/svg"><path  d="M164.571429 1024a18.285714 18.285714 0 0 1-17.773715-14.116571L146.285714 1005.714286V521.508571c0-96.109714 37.083429-183.588571 97.645715-248.832l12.434285-12.726857L150.747429 154.331429A47.542857 47.542857 0 0 1 183.296 73.142857l7.533714 0.438857a47.250286 47.250286 0 0 1 21.065143 8.338286l6.070857 5.12 115.273143 115.273143a363.52 363.52 0 0 1 157.257143-45.933714L512 155.721143a364.251429 364.251429 0 0 1 160.841143 37.229714l17.92 9.362286L806.034286 87.04a47.396571 47.396571 0 0 1 34.669714-13.897143l7.460571 0.731429a47.542857 47.542857 0 0 1 30.500572 74.020571l-5.412572 6.436572-105.618285 105.618285a364.544 364.544 0 0 1 109.568 242.395429L877.714286 521.508571v484.278858a18.285714 18.285714 0 0 1-14.116572 17.773714L859.428571 1024h-694.857142z m618.057142-418.377143H241.371429v323.291429h541.257142V605.622857z m-705.828571-10.971428a18.285714 18.285714 0 0 1 18.285714 18.285714v219.428571a18.285714 18.285714 0 0 1-18.285714 18.285715h-58.514286a18.285714 18.285714 0 0 1-18.285714-18.285715v-219.428571a18.285714 18.285714 0 0 1 18.285714-18.285714h58.514286z m870.4 256a18.285714 18.285714 0 0 1-18.285714-18.285715v-219.428571a18.285714 18.285714 0 0 1 18.285714-18.285714h58.514286a18.285714 18.285714 0 0 1 18.285714 18.285714v219.428571a18.285714 18.285714 0 0 1-18.285714 18.285715h-58.514286zM438.857143 788.48a47.542857 47.542857 0 0 1 0-95.085714h146.285714a47.542857 47.542857 0 1 1 0 95.085714H438.857143z m73.142857-537.6a270.628571 270.628571 0 0 0-269.458286 245.248l-0.950857 14.336h540.818286a270.628571 270.628571 0 0 0-255.926857-259.218286L512 250.806857z" /></svg>