<?xml version="1.0" standalone="no"?><!DOCTYPE svg PUBLIC "-//W3C//DTD SVG 1.1//EN" "http://www.w3.org/Graphics/SVG/1.1/DTD/svg11.dtd"><svg class="icon" width="200px" height="200.00px" viewBox="0 0 1024 1024" version="1.1" xmlns="http://www.w3.org/2000/svg"><path d="M888.394606 691.2a18.944 18.944 0 0 0 7.314285 24.576l50.834286 29.403429c8.923429 5.193143 20.406857 1.974857 24.941714-7.314286A514.340571 514.340571 0 0 0 1024.001463 512c0-35.108571-3.510857-69.485714-10.24-102.619429a514.267429 514.267429 0 0 0-220.16-325.046857A514.267429 514.267429 0 0 0 408.723749 10.459429a514.413714 514.413714 0 0 0-165.302858 65.536 514.706286 514.706286 0 0 0-158.866285 154.038857A509.586286 509.586286 0 0 0 0.001463 512c0 34.962286 3.510857 69.12 10.24 102.107429a514.340571 514.340571 0 0 0 218.550857 324.461714 514.633143 514.633143 0 0 0 206.994286 79.798857 516.169143 516.169143 0 0 0 225.133714-16.384 14.628571 14.628571 0 0 0-4.388571-19.602286l-179.2-120.393143a14.628571 14.628571 0 0 0-22.747429 11.337143l-2.56 51.346286a416.914286 416.914286 0 1 1 436.370286-233.325714zM482.74432 182.857143a18.285714 18.285714 0 0 0-18.285714 18.285714v375.003429L728.50432 727.04a18.285714 18.285714 0 0 0 25.014857-6.802286l28.964572-50.761143a18.285714 18.285714 0 0 0-6.802286-24.941714L559.54432 520.923429V201.142857a18.285714 18.285714 0 0 0-18.285714-18.285714h-58.514286z" /></svg>