<svg class="icon" width="200px" height="200.00px" viewBox="0 0 1024 1024" version="1.1" xmlns="http://www.w3.org/2000/svg"><path  d="M512 0a512 512 0 0 1 17.554286 1023.707429L512 1024A512.219429 512.219429 0 0 1 14.701714 634.441143a14.409143 14.409143 0 0 1 6.802286-15.798857l59.245714-34.816a14.555429 14.555429 0 0 1 8.045715-2.048l3.876571 0.731428c5.12 1.609143 9.362286 5.851429 10.532571 11.702857A417.060571 417.060571 0 0 0 928.914286 512 416.914286 416.914286 0 0 0 155.794286 295.204571l46.226285 22.454858a14.628571 14.628571 0 0 1 1.536 25.380571L22.674286 460.8l-3.730286 1.755429-3.876571 0.658285a14.628571 14.628571 0 0 1-14.994286-14.628571V242.834286a14.628571 14.628571 0 0 1 13.604571-14.628572l3.730286 0.219429a14.848 14.848 0 0 1 3.657143 1.243428l49.005714 23.771429A511.780571 511.780571 0 0 1 512 0zM343.04 356.644571c42.934857 0 77.165714 16.310857 100.205714 49.737143 21.357714 30.500571 30.939429 72.630857 30.939429 123.392 0 46.299429-8.192 85.942857-24.649143 118.784l-7.826286 13.970286c-21.504 33.206857-50.688 53.028571-86.820571 56.685714l-12.288 0.585143c-32.182857 0-59.611429-7.753143-80.310857-25.088-20.699429-17.408-32.694857-42.715429-37.302857-73.801143l-2.779429-18.358857h68.096l2.413714 13.092572c2.925714 15.506286 8.630857 25.307429 15.945143 31.305142 7.314286 6.070857 18.212571 10.020571 34.377143 10.020572 17.773714 0 32.621714-8.484571 45.129143-29.184 7.68-13.165714 13.165714-28.964571 16.164571-47.542857l-4.608 3.510857-4.900571 3.291428a106.203429 106.203429 0 0 1-45.348572 15.652572l-12.726857 0.658286c-34.742857 0-63.634286-11.702857-85.723428-35.401143C229.376 545.28 219.428571 516.022857 219.428571 482.011429c0-35.328 11.117714-65.462857 34.889143-89.307429 23.405714-24.429714 53.613714-36.059429 88.722286-36.059429z m271.140571 0l12.580572 0.512c16.530286 1.536 31.744 6.144 45.421714 14.116572a117.028571 117.028571 0 0 1 41.984 43.666286c18.944 31.963429 27.648 73.435429 27.648 123.318857 0 49.737143-8.777143 91.355429-27.648 123.245714-22.381714 38.107429-56.100571 58.294857-99.986286 58.294857-44.251429 0-77.970286-20.114286-99.986285-58.368-18.870857-31.890286-27.648-73.435429-27.648-123.172571 0-49.810286 8.777143-91.355429 27.648-123.245715 10.752-18.944 24.502857-33.718857 41.691428-43.739428 13.677714-8.045714 29.037714-12.580571 45.641143-14.116572l12.653714-0.512z m0 63.268572l-8.045714 0.585143a41.179429 41.179429 0 0 0-19.163428 7.68 56.32 56.32 0 0 0-16.091429 20.187428l-3.437714 7.533715c-7.826286 18.724571-12.214857 45.787429-12.214857 82.358857 0 35.986286 4.388571 63.049143 12.214857 82.212571a63.634286 63.634286 0 0 0 19.529143 27.648c5.412571 4.096 11.702857 6.729143 19.236571 7.826286l8.045714 0.585143 7.899429-0.585143a41.252571 41.252571 0 0 0 19.236571-7.826286 63.634286 63.634286 0 0 0 19.529143-27.574857c7.899429-19.309714 12.653714-46.518857 12.653714-82.285714 0-31.158857-3.510857-55.588571-9.508571-73.654857l-3.072-8.557715a62.902857 62.902857 0 0 0-19.529143-27.794285 41.179429 41.179429 0 0 0-19.236571-7.753143l-8.045715-0.585143z m-270.262857-0.438857c-17.92 0-30.793143 5.632-40.813714 16.603428-10.166857 11.190857-15.433143 25.746286-15.433143 45.933715 0 16.091429 3.657143 28.233143 10.459429 37.449142l4.827428 5.558858c9.508571 10.166857 22.381714 15.945143 40.96 15.945142a55.003429 55.003429 0 0 0 40.667429-16.603428 61.074286 61.074286 0 0 0 16.091428-43.227429c0-18.944-5.632-33.206857-15.506285-44.178285a51.712 51.712 0 0 0-41.252572-17.481143zM806.326857 329.142857c19.456 0 36.571429 7.021714 50.322286 21.357714a69.339429 69.339429 0 0 1 21.065143 50.029715c0 19.748571-7.753143 36.644571-21.211429 50.176a68.534857 68.534857 0 0 1-40.667428 20.187428l-9.508572 0.585143a68.900571 68.900571 0 0 1-50.176-20.772571 68.900571 68.900571 0 0 1-20.772571-50.176c0-19.382857 7.021714-36.352 20.699428-50.029715a67.657143 67.657143 0 0 1 50.249143-21.357714z m0 53.028572a17.334857 17.334857 0 0 0-9.069714 2.194285l-4.022857 3.291429a15.798857 15.798857 0 0 0-5.193143 12.873143c0 3.510857 0.658286 6.290286 2.194286 8.777143l3.364571 3.949714a17.115429 17.115429 0 0 0 12.726857 5.558857 18.285714 18.285714 0 0 0 18.285714-18.285714 18.651429 18.651429 0 0 0-5.12-13.165715 18.285714 18.285714 0 0 0-13.165714-5.12z" /></svg>