<?xml version="1.0" standalone="no"?><!DOCTYPE svg PUBLIC "-//W3C//DTD SVG 1.1//EN" "http://www.w3.org/Graphics/SVG/1.1/DTD/svg11.dtd"><svg class="icon" width="200px" height="200.00px" viewBox="0 0 1024 1024" version="1.1" xmlns="http://www.w3.org/2000/svg"><path d="M731.428571 362.057143a14.628571 14.628571 0 0 1-14.628571 14.628571H307.2a14.628571 14.628571 0 0 1-14.628571-14.628571v-65.828572c0-8.045714 6.582857-14.628571 14.628571-14.628571h409.6c8.045714 0 14.628571 6.582857 14.628571 14.628571v65.828572zM292.571429 544.914286c0 8.045714 6.582857 14.628571 14.628571 14.628571h263.314286a14.628571 14.628571 0 0 0 14.628571-14.628571v-65.828572a14.628571 14.628571 0 0 0-14.628571-14.628571H307.2a14.628571 14.628571 0 0 0-14.628571 14.628571v65.828572zM14.628571 62.171429a14.628571 14.628571 0 0 0-14.628571 14.628571v65.828571c0 8.045714 6.582857 14.628571 14.628571 14.628572h47.542858v563.2H14.628571a14.628571 14.628571 0 0 0-14.628571 14.628571v65.828572c0 8.045714 6.582857 14.628571 14.628571 14.628571h255.853715l-93.622857 187.245714a14.628571 14.628571 0 0 0 13.092571 21.211429h73.581714a14.628571 14.628571 0 0 0 13.092572-8.045714l100.205714-200.411429h270.336l100.205714 200.411429a14.628571 14.628571 0 0 0 13.092572 8.045714h73.581714a14.628571 14.628571 0 0 0 13.092571-21.211429l-93.622857-187.245714H1009.371429a14.628571 14.628571 0 0 0 14.628571-14.628571v-65.828572a14.628571 14.628571 0 0 0-14.628571-14.628571h-47.542858v-563.2h47.542858a14.628571 14.628571 0 0 0 14.628571-14.628572v-65.828571a14.628571 14.628571 0 0 0-14.628571-14.628571H559.542857V14.628571a14.628571 14.628571 0 0 0-14.628571-14.628571h-65.828572a14.628571 14.628571 0 0 0-14.628571 14.628571v47.542858H14.628571z m142.628572 95.085714h709.485714v563.2h-709.485714v-563.2zM731.428571 362.057143a14.628571 14.628571 0 0 1-14.628571 14.628571H307.2a14.628571 14.628571 0 0 1-14.628571-14.628571v-65.828572c0-8.045714 6.582857-14.628571 14.628571-14.628571h409.6c8.045714 0 14.628571 6.582857 14.628571 14.628571v65.828572zM292.571429 544.914286c0 8.045714 6.582857 14.628571 14.628571 14.628571h263.314286a14.628571 14.628571 0 0 0 14.628571-14.628571v-65.828572a14.628571 14.628571 0 0 0-14.628571-14.628571H307.2a14.628571 14.628571 0 0 0-14.628571 14.628571v65.828572zM14.628571 62.171429a14.628571 14.628571 0 0 0-14.628571 14.628571v65.828571c0 8.045714 6.582857 14.628571 14.628571 14.628572h47.542858v563.2H14.628571a14.628571 14.628571 0 0 0-14.628571 14.628571v65.828572c0 8.045714 6.582857 14.628571 14.628571 14.628571h255.853715l-93.622857 187.245714a14.628571 14.628571 0 0 0 13.092571 21.211429h73.581714a14.628571 14.628571 0 0 0 13.092572-8.045714l100.205714-200.411429h270.336l100.205714 200.411429a14.628571 14.628571 0 0 0 13.092572 8.045714h73.581714a14.628571 14.628571 0 0 0 13.092571-21.211429l-93.622857-187.245714H1009.371429a14.628571 14.628571 0 0 0 14.628571-14.628571v-65.828572a14.628571 14.628571 0 0 0-14.628571-14.628571h-47.542858v-563.2h47.542858a14.628571 14.628571 0 0 0 14.628571-14.628572v-65.828571a14.628571 14.628571 0 0 0-14.628571-14.628571H559.542857V14.628571a14.628571 14.628571 0 0 0-14.628571-14.628571h-65.828572a14.628571 14.628571 0 0 0-14.628571 14.628571v47.542858H14.628571z m142.628572 95.085714h709.485714v563.2h-709.485714v-563.2z" /></svg>