<?xml version="1.0" standalone="no"?><!DOCTYPE svg PUBLIC "-//W3C//DTD SVG 1.1//EN" "http://www.w3.org/Graphics/SVG/1.1/DTD/svg11.dtd"><svg class="icon" width="200px" height="200.00px" viewBox="0 0 1024 1024" version="1.1" xmlns="http://www.w3.org/2000/svg"><path d="M307.2 658.285714a14.628571 14.628571 0 0 0-14.628571 14.628572v65.828571c0 8.045714 6.582857 14.628571 14.628571 14.628572h409.6a14.628571 14.628571 0 0 0 14.628571-14.628572v-65.828571a14.628571 14.628571 0 0 0-14.628571-14.628572H307.2zM724.699429 0H109.714286a36.571429 36.571429 0 0 0-36.571429 36.571429v950.857142a36.571429 36.571429 0 0 0 36.571429 36.571429h804.571428a36.571429 36.571429 0 0 0 36.571429-36.571429V261.412571a14.628571 14.628571 0 0 0-3.510857-9.508571L735.817143 5.12A14.628571 14.628571 0 0 0 724.699429 0zM855.771429 291.108571v637.805715H168.228571V95.085714H292.571429v160.914286a36.571429 36.571429 0 0 0 36.571428 36.571429h292.571429a36.571429 36.571429 0 0 0 36.571428-36.571429V95.085714h29.403429L855.771429 291.108571zM387.657143 95.085714h175.542857v102.4H387.657143V95.085714zM307.2 658.285714a14.628571 14.628571 0 0 0-14.628571 14.628572v65.828571c0 8.045714 6.582857 14.628571 14.628571 14.628572h409.6a14.628571 14.628571 0 0 0 14.628571-14.628572v-65.828571a14.628571 14.628571 0 0 0-14.628571-14.628572H307.2zM724.699429 0H109.714286a36.571429 36.571429 0 0 0-36.571429 36.571429v950.857142a36.571429 36.571429 0 0 0 36.571429 36.571429h804.571428a36.571429 36.571429 0 0 0 36.571429-36.571429V261.412571a14.628571 14.628571 0 0 0-3.510857-9.508571L735.817143 5.12A14.628571 14.628571 0 0 0 724.699429 0zM855.771429 291.108571v637.805715H168.228571V95.085714H292.571429v160.914286a36.571429 36.571429 0 0 0 36.571428 36.571429h292.571429a36.571429 36.571429 0 0 0 36.571428-36.571429V95.085714h29.403429L855.771429 291.108571zM387.657143 95.085714h175.542857v102.4H387.657143V95.085714z" /></svg>