<?xml version="1.0" standalone="no"?><!DOCTYPE svg PUBLIC "-//W3C//DTD SVG 1.1//EN" "http://www.w3.org/Graphics/SVG/1.1/DTD/svg11.dtd"><svg class="icon" width="200px" height="199.80px" viewBox="0 0 1025 1024" version="1.1" xmlns="http://www.w3.org/2000/svg"><path d="M306.648471 219.034622a14.602308 14.602308 0 0 0-14.602308 14.602308v65.710387c0 8.031269 6.571039 14.602308 14.602308 14.602308h408.864628a14.602308 14.602308 0 0 0 14.602308-14.602308v-65.710387a14.602308 14.602308 0 0 0-14.602308-14.602308H306.648471zM306.648471 438.069244a14.602308 14.602308 0 0 0-14.602308 14.602308v65.710387c0 8.031269 6.571039 14.602308 14.602308 14.602308h262.841546a14.602308 14.602308 0 0 0 14.602308-14.602308v-65.710387a14.602308 14.602308 0 0 0-14.602308-14.602308H306.648471zM699.45056 725.442668a14.602308 14.602308 0 0 0-20.589255 0l-30.956893 30.956893a14.602308 14.602308 0 0 0 0 20.662266l82.576052 82.576053a14.602308 14.602308 0 0 0 20.662266 0l134.195212-134.195212a14.602308 14.602308 0 0 0 0-20.662266l-30.956893-31.029905a14.602308 14.602308 0 0 0-20.662266 0l-92.943691 92.943692-41.251521-41.251521zM587.742902 949.150029H109.517311a36.50577 36.50577 0 0 1-36.50577-36.505771V36.50577a36.50577 36.50577 0 0 1 36.50577-36.50577h803.126947a36.50577 36.50577 0 0 1 36.505771 36.50577v551.237132A255.540392 255.540392 0 0 1 587.742902 949.150029zM167.926544 854.235026h358.559676A255.540392 255.540392 0 0 1 854.235026 526.48622V94.915003H167.926544v759.320023z m598.694633 73.011541a160.625389 160.625389 0 1 0 0-321.250779 160.625389 160.625389 0 0 0 0 321.250779zM306.648471 219.034622a14.602308 14.602308 0 0 0-14.602308 14.602308v65.710387c0 8.031269 6.571039 14.602308 14.602308 14.602308h408.864628a14.602308 14.602308 0 0 0 14.602308-14.602308v-65.710387a14.602308 14.602308 0 0 0-14.602308-14.602308H306.648471zM306.648471 438.069244a14.602308 14.602308 0 0 0-14.602308 14.602308v65.710387c0 8.031269 6.571039 14.602308 14.602308 14.602308h262.841546a14.602308 14.602308 0 0 0 14.602308-14.602308v-65.710387a14.602308 14.602308 0 0 0-14.602308-14.602308H306.648471zM699.45056 725.442668a14.602308 14.602308 0 0 0-20.589255 0l-30.956893 30.956893a14.602308 14.602308 0 0 0 0 20.662266l82.576052 82.576053a14.602308 14.602308 0 0 0 20.662266 0l134.195212-134.195212a14.602308 14.602308 0 0 0 0-20.662266l-30.956893-31.029905a14.602308 14.602308 0 0 0-20.662266 0l-92.943691 92.943692-41.251521-41.251521zM587.742902 949.150029H109.517311a36.50577 36.50577 0 0 1-36.50577-36.505771V36.50577a36.50577 36.50577 0 0 1 36.50577-36.50577h803.126947a36.50577 36.50577 0 0 1 36.505771 36.50577v551.237132A255.540392 255.540392 0 0 1 587.742902 949.150029zM167.926544 854.235026h358.559676A255.540392 255.540392 0 0 1 854.235026 526.48622V94.915003H167.926544v759.320023z m598.694633 73.011541a160.625389 160.625389 0 1 0 0-321.250779 160.625389 160.625389 0 0 0 0 321.250779z" /></svg>