<?xml version="1.0" standalone="no"?><!DOCTYPE svg PUBLIC "-//W3C//DTD SVG 1.1//EN" "http://www.w3.org/Graphics/SVG/1.1/DTD/svg11.dtd"><svg class="icon" width="200px" height="186.69px" viewBox="0 0 1097 1024" version="1.1" xmlns="http://www.w3.org/2000/svg"><path d="M587.629714 502.930286v373.394285l-78.043428 39.058286v-412.525714L204.8 198.217143V168.228571h687.542857v29.988572L587.629714 502.857143z m95.085715 39.350857l281.161142-281.161143a80.457143 80.457143 0 0 0 23.552-56.905143V87.771429a14.628571 14.628571 0 0 0-14.628571-14.628572H124.342857a14.628571 14.628571 0 0 0-14.628571 14.628572v116.443428c0 21.357714 8.484571 41.764571 23.552 56.905143l281.234285 281.161143v407.405714c0 54.857143 57.782857 90.624 106.934858 66.048l120.393142-60.196571a73.874286 73.874286 0 0 0 40.886858-66.048V542.281143zM587.629714 502.930286v373.394285l-78.043428 39.058286v-412.525714L204.8 198.217143V168.228571h687.542857v29.988572L587.629714 502.857143z m95.085715 39.350857l281.161142-281.161143a80.457143 80.457143 0 0 0 23.552-56.905143V87.771429a14.628571 14.628571 0 0 0-14.628571-14.628572H124.342857a14.628571 14.628571 0 0 0-14.628571 14.628572v116.443428c0 21.357714 8.484571 41.764571 23.552 56.905143l281.234285 281.161143v407.405714c0 54.857143 57.782857 90.624 106.934858 66.048l120.393142-60.196571a73.874286 73.874286 0 0 0 40.886858-66.048V542.281143z" /></svg>