<svg class="icon" width="200px" height="200.00px" viewBox="0 0 1024 1024" version="1.1" xmlns="http://www.w3.org/2000/svg"><path  d="M512 0l12.873143 0.365714a219.428571 219.428571 0 0 1 143.506286 373.028572L658.285714 382.976V512a146.285714 146.285714 0 0 0 135.314286 145.92L804.571429 658.285714h146.285714a73.142857 73.142857 0 0 1 72.630857 64.585143L1024 731.428571v256a36.571429 36.571429 0 0 1-29.988571 35.986286L987.428571 1024H36.571429a36.571429 36.571429 0 0 1-35.986286-29.988571L0 987.428571V731.428571a73.142857 73.142857 0 0 1 64.585143-72.630857L73.142857 658.285714h146.285714a146.285714 146.285714 0 0 0 145.92-135.314285L365.714286 512V382.976A219.428571 219.428571 0 0 1 499.126857 0.365714L512 0z m416.914286 753.371429H95.085714v175.542857h833.828572v-175.542857z m-365.714286-320.512l-16.676571 3.291428a221.037714 221.037714 0 0 1-69.046858 0L460.8 432.859429V512c0 49.517714-14.921143 95.524571-40.448 133.851429L411.428571 658.285714h201.142858a240.128 240.128 0 0 1-48.859429-129.901714L563.2 512V432.859429zM512 95.085714l-10.752 0.438857a124.342857 124.342857 0 0 0 0 247.808L512 343.771429l10.752-0.438858a124.342857 124.342857 0 0 0 0-247.808L512 95.085714z" /></svg>