<svg class="icon" width="200px" height="200.00px" viewBox="0 0 1024 1024" version="1.1" xmlns="http://www.w3.org/2000/svg"><path  d="M512 0l438.857143 181.101714v378.806857c0 90.550857-40.594286 209.554286-150.162286 305.590858-29.476571 25.892571-65.828571 49.956571-102.546286 71.094857l-27.501714 15.36-13.677714 7.168-26.697143 13.458285-25.380571 12.141715-23.478858 10.678857-30.500571 13.165714L512 1024l-28.672-11.264-26.477714-11.117714-44.397715-20.041143-37.741714-18.505143-26.331428-13.824c-44.105143-23.990857-89.526857-52.516571-125.074286-83.748571C113.737143 769.462857 73.142857 650.459429 73.142857 559.908571V181.101714L512 0z m0 102.838857l-343.771429 141.897143v315.172571c0 63.634286 29.110857 156.452571 117.76 234.057143 41.545143 36.571429 104.155429 71.68 161.353143 98.962286l28.525715 13.165714 25.234285 11.044572 10.898286 4.608 10.971429-4.608 25.088-10.971429 28.598857-13.238857c57.197714-27.282286 119.808-62.464 161.353143-98.889143 88.649143-77.677714 117.76-170.496 117.76-234.130286V244.736L512 102.838857zM544.914286 329.142857c8.045714 0 14.628571 6.582857 14.628571 14.628572v120.685714H680.228571c8.045714 0 14.628571 6.582857 14.628572 14.628571v65.828572a14.628571 14.628571 0 0 1-10.752 14.116571L680.228571 559.542857H559.542857V680.228571a14.628571 14.628571 0 0 1-10.752 14.116572L544.914286 694.857143h-65.828572a14.628571 14.628571 0 0 1-14.628571-14.628572V559.542857H343.771429a14.628571 14.628571 0 0 1-14.628572-14.628571v-65.828572c0-8.045714 6.582857-14.628571 14.628572-14.628571h120.685714V343.771429c0-8.045714 6.582857-14.628571 14.628571-14.628572h65.828572z" /></svg>