<?xml version="1.0" standalone="no"?><!DOCTYPE svg PUBLIC "-//W3C//DTD SVG 1.1//EN" "http://www.w3.org/Graphics/SVG/1.1/DTD/svg11.dtd"><svg class="icon" width="200px" height="200.00px" viewBox="0 0 1024 1024" version="1.1" xmlns="http://www.w3.org/2000/svg"><path d="M505.929143 354.742857a157.257143 157.257143 0 1 0 0 314.514286 157.257143 157.257143 0 0 0 0-314.514286zM443.757714 512a62.171429 62.171429 0 1 1 124.342857 0 62.171429 62.171429 0 0 1-124.342857 0zM505.929143 146.285714c189.952 0 356.790857 115.638857 500.516571 346.989715a35.547429 35.547429 0 0 1 0 37.449142C862.72 762.148571 695.881143 877.714286 505.929143 877.714286 315.904 877.714286 149.065143 762.075429 5.339429 530.724571a35.620571 35.620571 0 0 1 0-37.449142C149.065143 261.851429 315.977143 146.285714 505.929143 146.285714z m0 95.085715C369.005714 241.371429 234.788571 318.537143 106.276571 512c128.512 193.462857 262.729143 270.628571 399.652572 270.628571 136.850286 0 271.067429-77.165714 399.579428-270.628571-128.512-193.462857-262.729143-270.628571-399.579428-270.628571zM505.929143 354.742857a157.257143 157.257143 0 1 0 0 314.514286 157.257143 157.257143 0 0 0 0-314.514286zM443.757714 512a62.171429 62.171429 0 1 1 124.342857 0 62.171429 62.171429 0 0 1-124.342857 0zM505.929143 146.285714c189.952 0 356.790857 115.638857 500.516571 346.989715a35.547429 35.547429 0 0 1 0 37.449142C862.72 762.148571 695.881143 877.714286 505.929143 877.714286 315.904 877.714286 149.065143 762.075429 5.339429 530.724571a35.620571 35.620571 0 0 1 0-37.449142C149.065143 261.851429 315.977143 146.285714 505.929143 146.285714z m0 95.085715C369.005714 241.371429 234.788571 318.537143 106.276571 512c128.512 193.462857 262.729143 270.628571 399.652572 270.628571 136.850286 0 271.067429-77.165714 399.579428-270.628571-128.512-193.462857-262.729143-270.628571-399.579428-270.628571z" /></svg>