<?xml version="1.0" standalone="no"?><!DOCTYPE svg PUBLIC "-//W3C//DTD SVG 1.1//EN" "http://www.w3.org/Graphics/SVG/1.1/DTD/svg11.dtd"><svg class="icon" width="200px" height="200.00px" viewBox="0 0 1024 1024" version="1.1" xmlns="http://www.w3.org/2000/svg"><path d="M219.428571 1023.414857a157.257143 157.257143 0 0 1-157.257142-157.184V157.184A157.257143 157.257143 0 0 1 219.428571 0h585.142858a157.257143 157.257143 0 0 1 157.257142 157.184v339.894857a25.6 25.6 0 0 1-25.6 25.6h-43.885714a25.6 25.6 0 0 1-25.6-25.6V157.257143a62.171429 62.171429 0 0 0-62.171428-62.171429H219.428571a62.171429 62.171429 0 0 0-62.171428 62.171429v709.046857c0 34.377143 27.794286 62.171429 62.171428 62.171429h204.8a25.6 25.6 0 0 1 25.6 25.6v43.812571a25.6 25.6 0 0 1-25.6 25.6H219.428571zM790.820571 811.373714a54.857143 54.857143 0 1 1-109.714285 0 54.857143 54.857143 0 0 1 109.714285 0zM735.963429 621.348571c-90.185143 0-156.452571 45.348571-198.217143 87.04a380.928 380.928 0 0 0-47.030857 57.490286 450.267429 450.267429 0 0 0-27.355429 49.152c8.484571 16.896 16.822857 33.499429 27.355429 49.225143 10.386286 15.652571 26.038857 36.571429 47.104 57.490286 41.691429 41.691429 107.958857 87.04 198.217142 87.04 90.112 0 156.379429-45.348571 198.144-87.04 20.992-20.992 36.571429-41.837714 47.104-57.490286 10.459429-15.725714 18.870857-32.329143 27.282286-49.225143a456.996571 456.996571 0 0 0-27.282286-49.152 380.708571 380.708571 0 0 0-47.104-57.490286c-41.764571-41.691429-108.032-87.04-198.217142-87.04z m-130.925715 233.179429a285.330286 285.330286 0 0 1-32.841143-39.497143c7.753143-11.264 18.797714-25.380571 32.841143-39.497143 31.378286-31.378286 74.825143-59.172571 130.925715-59.172571 56.100571 0 99.547429 27.794286 130.925714 59.245714 14.116571 14.043429 25.088 28.16 32.914286 39.497143a285.915429 285.915429 0 0 1-32.914286 39.497143c-31.378286 31.305143-74.825143 59.172571-130.925714 59.172571-56.100571 0-99.547429-27.794286-130.925715-59.245714zM292.571429 310.637714a18.285714 18.285714 0 0 1 18.285714-18.285714h402.285714a18.285714 18.285714 0 0 1 18.285714 18.285714v58.514286a18.285714 18.285714 0 0 1-18.285714 18.285714h-402.285714a18.285714 18.285714 0 0 1-18.285714-18.285714v-58.514286zM310.857143 511.707429a18.285714 18.285714 0 0 0-18.285714 18.285714v58.514286c0 10.020571 8.192 18.285714 18.285714 18.285714h182.857143a18.285714 18.285714 0 0 0 18.285714-18.285714v-58.514286a18.285714 18.285714 0 0 0-18.285714-18.285714h-182.857143z" /></svg>