<svg class="icon" width="200px" height="200.00px" viewBox="0 0 1024 1024" version="1.1" xmlns="http://www.w3.org/2000/svg"><path  d="M934.912 47.177143l3.876571 2.779428 47.104 47.104a14.848 14.848 0 0 1 2.779429 17.042286l-2.779429 3.876572L118.491429 985.234286a14.774857 14.774857 0 0 1-3.803429 2.779428l-4.388571 1.462857h-4.534858a14.701714 14.701714 0 0 1-5.705142-2.194285l-2.486858-2.048-47.104-47.104a14.774857 14.774857 0 0 1-2.779428-17.042286l2.779428-3.876571L917.869714 49.956571a14.774857 14.774857 0 0 1 17.042286-2.779428z m-84.187429 242.614857c59.026286 54.125714 114.980571 123.757714 167.862858 208.822857a35.986286 35.986286 0 0 1 0 38.034286c-140.580571 226.230857-303.104 343.186286-487.424 350.72L512 887.734857a454.217143 454.217143 0 0 1-208.749714-50.468571l72.630857-72.630857A355.986286 355.986286 0 0 0 512 791.552c138.532571 0 274.358857-78.116571 404.48-273.92-44.032-66.194286-88.649143-118.930286-133.851429-159.817143l68.022858-68.022857zM512 147.529143l22.674286 0.512c60.196571 2.925714 117.979429 17.554286 173.494857 43.885714l20.699428 10.313143-72.045714 72.118857a357.449143 357.449143 0 0 0-123.977143-29.988571L512 243.638857l-14.848 0.292572c-133.412571 5.485714-264.192 84.845714-389.558857 273.627428 40.301714 60.708571 81.188571 110.153143 122.514286 149.430857l17.773714 16.164572-68.096 68.096C118.345143 696.393143 60.196571 624.786286 5.412571 536.649143a35.986286 35.986286 0 0 1 0-38.034286c140.580571-226.230857 303.104-343.186286 487.424-350.72L512 147.529143z m153.380571 327.533714a159.305143 159.305143 0 0 1-142.043428 201.289143L512 676.790857c-14.701714 0-28.964571-1.974857-42.569143-5.778286l196.022857-195.949714zM512 358.473143c18.212571 0 35.693714 3.072 51.931429 8.704L361.618286 569.636571A159.158857 159.158857 0 0 1 512 358.546286z" /></svg>