<svg class="icon" width="200px" height="200.00px" viewBox="0 0 1024 1024" version="1.1" xmlns="http://www.w3.org/2000/svg"><path  d="M126.100491 0l6.655962 0.511997a52.150559 52.150559 0 0 1 19.967886 7.167959l772.384158 470.013314c39.789487 24.210147 31.816961 85.430369-12.726785 98.084011l-239.248918 68.241896 160.181941 208.455952a54.637402 54.637402 0 0 1-10.386226 76.799561L710.21601 1013.53478a51.784847 51.784847 0 0 1-22.454729 9.654802l-7.899383 0.731424a52.077417 52.077417 0 0 1-42.130045-20.626168l-164.497346-215.038771-137.727213 198.435438a51.27285 51.27285 0 0 1-36.863789 22.381586l-6.948532 0.29257a52.589414 52.589414 0 0 1-50.760853-43.885464L74.096217 64.072777a53.68655 53.68655 0 0 1 44.909457-63.56078L126.100491 0z m63.414495 147.089445l127.999268 691.927475 140.067771-201.873132a14.921058 14.921058 0 0 1 11.99536-6.436535l4.534832 0.58514c2.925698 0.804567 5.631968 2.633128 7.753098 5.339398l205.969109 269.164176 38.911777-29.183833-207.870812-270.77331a15.57934 15.57934 0 0 1 7.826241-24.502717l256.36425-73.069297-593.550894-361.177365z" /></svg>