<?xml version="1.0" standalone="no"?><!DOCTYPE svg PUBLIC "-//W3C//DTD SVG 1.1//EN" "http://www.w3.org/Graphics/SVG/1.1/DTD/svg11.dtd"><svg class="icon" width="200px" height="200.00px" viewBox="0 0 1024 1024" version="1.1" xmlns="http://www.w3.org/2000/svg"><path d="M804.571429 274.285714a54.857143 54.857143 0 1 1-109.714286 0 54.857143 54.857143 0 0 1 109.714286 0zM749.714286 73.142857a201.142857 201.142857 0 1 1 0 402.285714h-475.428572a201.142857 201.142857 0 0 1 0-402.285714h475.428572z m0 95.085714h-475.428572a106.057143 106.057143 0 0 0 0 212.114286h475.428572a106.057143 106.057143 0 0 0 0-212.114286zM274.285714 804.571429a54.857143 54.857143 0 1 0 0-109.714286 54.857143 54.857143 0 0 0 0 109.714286zM749.714286 548.571429a201.142857 201.142857 0 1 1 0 402.285714h-475.428572a201.142857 201.142857 0 1 1 0-402.285714h475.428572z m0 95.085714h-475.428572a106.057143 106.057143 0 0 0 0 212.114286h475.428572a106.057143 106.057143 0 0 0 0-212.114286z" /></svg>