<?xml version="1.0" standalone="no"?><!DOCTYPE svg PUBLIC "-//W3C//DTD SVG 1.1//EN" "http://www.w3.org/Graphics/SVG/1.1/DTD/svg11.dtd"><svg class="icon" width="200px" height="186.86px" viewBox="0 0 1096 1024" version="1.1" xmlns="http://www.w3.org/2000/svg"><path d="M548.140747 310.61309a200.98494 200.98494 0 1 0 0 401.969881 200.98494 200.98494 0 0 0 0-401.969881zM456.783955 511.59803a91.356791 91.356791 0 1 1 182.713583 0 91.356791 91.356791 0 0 1-182.713583 0zM401.969881 36.542716A36.542716 36.542716 0 0 1 438.512597 0h219.256299a36.542716 36.542716 0 0 1 36.542716 36.542716v32.01142a109.628149 109.628149 0 0 0 164.442224 94.937977l27.772465-16.078795a36.542716 36.542716 0 0 1 49.844265 13.44772l109.628149 189.875954a36.542716 36.542716 0 0 1-13.374634 49.917351l-27.772464 16.078795a109.628149 109.628149 0 0 0 0.073085 189.802869l27.772465 16.00571a36.542716 36.542716 0 0 1 13.301548 49.917351l-109.628149 189.875954a36.542716 36.542716 0 0 1-49.917351 13.374635l-27.699379-16.00571a109.628149 109.628149 0 0 0-164.442224 95.011063v31.938334a36.542716 36.542716 0 0 1-36.542716 36.542716H438.512597a36.542716 36.542716 0 0 1-36.542716-36.542716v-32.01142a109.628149 109.628149 0 0 0-164.442224-94.937977l-27.772465 16.00571a36.542716 36.542716 0 0 1-49.844265-13.374635l-109.628149-189.875954a36.542716 36.542716 0 0 1 13.374634-49.917351l27.699379-16.00571c73.085433-42.170295 73.085433-147.632574 0-189.875954l-27.772464-16.00571A36.542716 36.542716 0 0 1 50.355863 350.810078l109.62815-189.875955a36.542716 36.542716 0 0 1 49.91735-13.374634l27.699379 16.00571A109.628149 109.628149 0 0 0 401.969881 68.481051V36.542716z m93.403183 58.468347c-16.80965 133.161659-157.93762 214.651916-281.598173 162.542002l-52.840768 91.502962c106.997074 81.051745 106.997074 244.105346 0 325.084006l52.840768 91.502962c123.660552-52.109914 264.861609 29.380344 281.598173 162.542003h105.535365c16.736564-133.161659 157.93762-214.651916 281.598173-162.542003l52.840768-91.502962c-106.997074-81.051745-106.997074-244.105346 0-325.084006l-52.840768-91.502962c-123.660552 52.109914-264.861609-29.380344-281.598173-162.542002H495.373064z" /></svg>