<?xml version="1.0" standalone="no"?><!DOCTYPE svg PUBLIC "-//W3C//DTD SVG 1.1//EN" "http://www.w3.org/Graphics/SVG/1.1/DTD/svg11.dtd"><svg class="icon" width="200px" height="200.00px" viewBox="0 0 1024 1024" version="1.1" xmlns="http://www.w3.org/2000/svg"><path d="M512 0a182.857143 182.857143 0 1 1 0 365.714286 182.857143 182.857143 0 0 1 0-365.714286z m0 95.085714a87.771429 87.771429 0 1 0 0 175.542857 87.771429 87.771429 0 0 0 0-175.542857zM182.857143 585.142857a182.857143 182.857143 0 1 1 0 365.714286 182.857143 182.857143 0 0 1 0-365.714286z m0 95.085714a87.771429 87.771429 0 1 0 0 175.542858 87.771429 87.771429 0 0 0 0-175.542858zM841.142857 585.142857a182.857143 182.857143 0 1 1 0 365.714286 182.857143 182.857143 0 0 1 0-365.714286z m0 95.085714a87.771429 87.771429 0 1 0 0 175.542858 87.771429 87.771429 0 0 0 0-175.542858zM299.154286 264.777143a47.542857 47.542857 0 1 0-57.051429-76.068572A449.243429 449.243429 0 0 0 62.464 530.651429a47.542857 47.542857 0 0 0 95.012571 3.657142A354.157714 354.157714 0 0 1 299.154286 264.777143zM781.897143 188.708571a47.542857 47.542857 0 1 0-57.051429 76.068572 354.157714 354.157714 0 0 1 141.604572 269.604571 47.542857 47.542857 0 1 0 95.085714-3.730285A449.243429 449.243429 0 0 0 781.897143 188.708571zM385.682286 880.201143a47.542857 47.542857 0 1 0-33.865143 88.795428c49.810286 19.017143 103.862857 29.403429 160.182857 29.403429s110.372571-10.386286 160.182857-29.403429a47.542857 47.542857 0 1 0-33.865143-88.795428A353.792 353.792 0 0 1 512 903.314286c-44.617143 0-87.113143-8.192-126.317714-23.113143z" /></svg>