<?xml version="1.0" standalone="no"?><!DOCTYPE svg PUBLIC "-//W3C//DTD SVG 1.1//EN" "http://www.w3.org/Graphics/SVG/1.1/DTD/svg11.dtd"><svg class="icon" width="200px" height="186.69px" viewBox="0 0 1097 1024" version="1.1" xmlns="http://www.w3.org/2000/svg"><path d="M684.105143 76.8c0 10.093714 8.192 18.285714 18.285714 18.285714h196.096L494.518857 499.053714a18.285714 18.285714 0 0 0 0 25.819429l41.398857 41.398857a18.285714 18.285714 0 0 0 25.892572 0l403.894857-403.968V358.4c0 10.093714 8.192 18.285714 18.285714 18.285714h58.514286a18.285714 18.285714 0 0 0 18.285714-18.285714V18.285714a18.285714 18.285714 0 0 0-18.285714-18.285714h-340.114286a18.285714 18.285714 0 0 0-18.285714 18.285714v58.514286zM965.339429 530.285714a18.944 18.944 0 0 1 18.724571-18.285714h58.514286c10.093714 0 18.285714 8.192 17.92 18.285714A512 512 0 1 1 530.505143 0.292571a17.846857 17.846857 0 0 1 18.285714 17.993143v58.514286c0 10.093714-8.118857 18.285714-18.285714 18.651429a416.914286 416.914286 0 1 0 434.834286 434.834285z" /></svg>