<?xml version="1.0" standalone="no"?><!DOCTYPE svg PUBLIC "-//W3C//DTD SVG 1.1//EN" "http://www.w3.org/Graphics/SVG/1.1/DTD/svg11.dtd"><svg class="icon" width="200px" height="200.00px" viewBox="0 0 1024 1024" version="1.1" xmlns="http://www.w3.org/2000/svg"><path d="M24.356571 155.794286a14.628571 14.628571 0 0 0 14.482286 12.434285h65.170286l60.635428 515.145143A120.685714 120.685714 0 0 0 284.452571 789.942857h582.363429a14.628571 14.628571 0 0 0 14.043429-10.459428l19.748571-65.828572a14.628571 14.628571 0 0 0-14.043429-18.797714H284.452571a25.6 25.6 0 0 1-24.576-18.505143l635.465143-62.683429A62.171429 62.171429 0 0 0 950.857143 557.933714l34.596571-351.378285A54.857143 54.857143 0 0 0 930.889143 146.285714h-630.491429a14.628571 14.628571 0 0 0-14.628571 15.872l5.632 65.828572a14.628571 14.628571 0 0 0 14.628571 13.385143h580.461715l-27.648 280.502857-610.450286 60.050285-52.224-444.196571A73.142857 73.142857 0 0 0 123.538286 73.142857H38.765714a14.628571 14.628571 0 0 0-14.482285 16.822857v65.828572zM365.714286 914.285714a73.142857 73.142857 0 1 1-146.285715 0 73.142857 73.142857 0 0 1 146.285715 0zM731.428571 987.428571a73.142857 73.142857 0 1 0 0-146.285714 73.142857 73.142857 0 0 0 0 146.285714z" /></svg>