<?xml version="1.0" standalone="no"?><!DOCTYPE svg PUBLIC "-//W3C//DTD SVG 1.1//EN" "http://www.w3.org/Graphics/SVG/1.1/DTD/svg11.dtd"><svg class="icon" width="200px" height="200.00px" viewBox="0 0 1024 1024" version="1.1" xmlns="http://www.w3.org/2000/svg"><path d="M914.285714 73.142857A109.714286 109.714286 0 0 1 1024 182.857143v658.285714a109.714286 109.714286 0 0 1-109.714286 109.714286h-804.571428A109.714286 109.714286 0 0 1 0 841.142857v-658.285714A109.714286 109.714286 0 0 1 109.714286 73.142857h804.571428z m14.628572 235.52L558.518857 678.912a65.828571 65.828571 0 0 1-93.037714 0L95.085714 308.589714V841.142857c0 8.045714 6.582857 14.628571 14.628572 14.628572h804.571428a14.628571 14.628571 0 0 0 14.628572-14.628572V308.662857z m-14.628572-140.434286h-804.571428a14.628571 14.628571 0 0 0-12.873143 7.68L512 590.994286l415.158857-415.158857A14.628571 14.628571 0 0 0 914.285714 168.228571z" /></svg>