<?xml version="1.0" standalone="no"?><!DOCTYPE svg PUBLIC "-//W3C//DTD SVG 1.1//EN" "http://www.w3.org/Graphics/SVG/1.1/DTD/svg11.dtd"><svg class="icon" width="200px" height="200.00px" viewBox="0 0 1024 1024" version="1.1" xmlns="http://www.w3.org/2000/svg"><path d="M216.429714 148.845714a25.6 25.6 0 0 0-36.205714 0l-31.085714 31.085715a25.6 25.6 0 0 0 0 36.205714L445.074286 512l-295.936 295.936a25.6 25.6 0 0 0 0 36.205714l31.085714 31.012572a25.6 25.6 0 0 0 36.205714 0l295.862857-295.936 295.862858 295.936a25.6 25.6 0 0 0 36.205714 0l31.085714-31.085715a25.6 25.6 0 0 0 0-36.205714L579.510857 512l295.936-295.862857a25.6 25.6 0 0 0 0-36.205714l-31.085714-31.085715a25.6 25.6 0 0 0-36.205714 0L512.292571 444.781714 216.429714 148.845714z" /></svg>