<?xml version="1.0" standalone="no"?><!DOCTYPE svg PUBLIC "-//W3C//DTD SVG 1.1//EN" "http://www.w3.org/Graphics/SVG/1.1/DTD/svg11.dtd"><svg class="icon" width="200px" height="200.00px" viewBox="0 0 1024 1024" version="1.1" xmlns="http://www.w3.org/2000/svg"><path d="M650.971429 219.428571a14.628571 14.628571 0 0 1-14.628572-14.628571V95.085714H95.085714v833.828572h541.257143v-109.714286c0-8.045714 6.582857-14.628571 14.628572-14.628571h65.828571c8.045714 0 14.628571 6.582857 14.628571 14.628571V950.857143a73.142857 73.142857 0 0 1-73.142857 73.142857H73.142857a73.142857 73.142857 0 0 1-73.142857-73.142857V73.142857a73.142857 73.142857 0 0 1 73.142857-73.142857h585.142857a73.142857 73.142857 0 0 1 73.142857 73.142857v131.657143a14.628571 14.628571 0 0 1-14.628571 14.628571h-65.828571zM256 555.885714c0 8.045714 6.582857 14.628571 14.628571 14.628572h560.64l-78.482285 78.482285a18.285714 18.285714 0 0 0 12.946285 31.232h79.725715a25.6 25.6 0 0 0 18.066285-7.533714l131.657143-131.657143a25.6 25.6 0 0 0 0-36.132571l-131.657143-131.657143A25.6 25.6 0 0 0 845.458286 365.714286h-79.725715a18.285714 18.285714 0 0 0-12.946285 31.232L831.268571 475.428571H270.628571a14.628571 14.628571 0 0 0-14.628571 14.628572v65.828571z" /></svg>