<?xml version="1.0" standalone="no"?><!DOCTYPE svg PUBLIC "-//W3C//DTD SVG 1.1//EN" "http://www.w3.org/Graphics/SVG/1.1/DTD/svg11.dtd"><svg class="icon" width="200px" height="200.00px" viewBox="0 0 1024 1024" version="1.1" xmlns="http://www.w3.org/2000/svg"><path d="M512 0a255.926878 255.926878 0 0 0-255.926878 255.926878v219.365895a255.926878 255.926878 0 1 0 511.853756 0v-219.365895A255.926878 255.926878 0 0 0 512 0zM351.131677 255.926878a160.868323 160.868323 0 1 1 321.736646 0v219.365895a160.868323 160.868323 0 1 1-321.736646 0v-219.365895zM464.690089 910.88032a438.804913 438.804913 0 0 1-390.983148-421.548129 14.258783 14.258783 0 0 1 14.405027-14.624393h65.809769c8.043416 0 14.624393 6.580977 14.916881 14.624393a343.673236 343.673236 0 0 0 686.761496 0c0.36561-8.043416 6.873465-14.624393 14.916881-14.624393h65.809769c8.043416 0 14.624393 6.580977 14.405027 14.624393a438.804913 438.804913 0 0 1-390.983148 421.548129v98.495287a14.624393 14.624393 0 0 1-14.624393 14.624393h-65.809768a14.624393 14.624393 0 0 1-14.624393-14.624393v-98.495287z" /></svg>