<?xml version="1.0" standalone="no"?><!DOCTYPE svg PUBLIC "-//W3C//DTD SVG 1.1//EN" "http://www.w3.org/Graphics/SVG/1.1/DTD/svg11.dtd"><svg class="icon" width="200px" height="200.00px" viewBox="0 0 1024 1024" version="1.1" xmlns="http://www.w3.org/2000/svg"><path d="M421.083429 577.097143C371.346286 571.465143 303.542857 587.629714 219.428571 688.64a47.542857 47.542857 0 0 1-72.996571-60.854857C245.028571 509.44 341.796571 472.502857 431.542857 482.523429c75.849143 8.411429 138.752 50.614857 178.029714 77.019428l11.190858 7.460572c44.763429 29.476571 80.530286 46.445714 110.299428 50.249142 25.746286 3.364571 49.810286-2.56 76.361143-29.184a47.542857 47.542857 0 1 1 67.291429 67.291429c-46.592 46.518857-99.693714 63.488-155.794286 56.173714-52.224-6.729143-103.131429-33.865143-150.454857-65.097143a3541.796571 3541.796571 0 0 1-10.678857-7.021714c-41.545143-27.648-85.284571-56.685714-136.777143-62.390857zM734.354286 438.857143a73.142857 73.142857 0 1 0 0-146.285714 73.142857 73.142857 0 0 0 0 146.285714zM0 109.714286A36.571429 36.571429 0 0 1 36.571429 73.142857h950.857142a36.571429 36.571429 0 0 1 36.571429 36.571429v804.571428a36.571429 36.571429 0 0 1-36.571429 36.571429H36.571429a36.571429 36.571429 0 0 1-36.571429-36.571429v-804.571428z m95.085714 746.057143h833.828572V168.228571H95.085714v687.542858zM421.083429 577.097143C371.346286 571.465143 303.542857 587.629714 219.428571 688.64a47.542857 47.542857 0 0 1-72.996571-60.854857C245.028571 509.44 341.796571 472.502857 431.542857 482.523429c75.849143 8.411429 138.752 50.614857 178.029714 77.019428l11.190858 7.460572c44.763429 29.476571 80.530286 46.445714 110.299428 50.249142 25.746286 3.364571 49.810286-2.56 76.361143-29.184a47.542857 47.542857 0 1 1 67.291429 67.291429c-46.592 46.518857-99.693714 63.488-155.794286 56.173714-52.224-6.729143-103.131429-33.865143-150.454857-65.097143a3541.796571 3541.796571 0 0 1-10.678857-7.021714c-41.545143-27.648-85.284571-56.685714-136.777143-62.390857zM734.354286 438.857143a73.142857 73.142857 0 1 0 0-146.285714 73.142857 73.142857 0 0 0 0 146.285714zM0 109.714286A36.571429 36.571429 0 0 1 36.571429 73.142857h950.857142a36.571429 36.571429 0 0 1 36.571429 36.571429v804.571428a36.571429 36.571429 0 0 1-36.571429 36.571429H36.571429a36.571429 36.571429 0 0 1-36.571429-36.571429v-804.571428z m95.085714 746.057143h833.828572V168.228571H95.085714v687.542858z" /></svg>