<?xml version="1.0" standalone="no"?><!DOCTYPE svg PUBLIC "-//W3C//DTD SVG 1.1//EN" "http://www.w3.org/Graphics/SVG/1.1/DTD/svg11.dtd"><svg class="icon" width="200px" height="200.00px" viewBox="0 0 1024 1024" version="1.1" xmlns="http://www.w3.org/2000/svg"><path d="M493.714286 10.532571a36.571429 36.571429 0 0 1 36.571428 0l406.820572 234.861715a36.571429 36.571429 0 0 1 18.285714 31.670857v469.796571a36.571429 36.571429 0 0 1-18.285714 31.670857L530.285714 1013.394286a36.571429 36.571429 0 0 1-36.571428 0l-406.820572-234.788572a36.571429 36.571429 0 0 1-18.285714-31.744V277.065143a36.571429 36.571429 0 0 1 18.285714-31.670857z m366.592 367.835429L559.542857 552.009143v334.701714l300.763429-173.641143V378.368z m-696.612572 0v334.701714l300.763429 173.641143V552.082286L163.693714 378.368zM512 109.787429L200.338286 289.645714l311.588571 179.931429 311.734857-179.931429L512 109.787429z" /></svg>