<?xml version="1.0" standalone="no"?><!DOCTYPE svg PUBLIC "-//W3C//DTD SVG 1.1//EN" "http://www.w3.org/Graphics/SVG/1.1/DTD/svg11.dtd"><svg class="icon" width="200px" height="200.00px" viewBox="0 0 1024 1024" version="1.1" xmlns="http://www.w3.org/2000/svg"><path d="M748.909714 364.178286a18.285714 18.285714 0 0 0-28.452571 15.213714V464.457143h-643.657143a14.628571 14.628571 0 0 0-14.628571 14.628571v65.828572c0 8.045714 6.582857 14.628571 14.628571 14.628571h870.4a14.628571 14.628571 0 0 0 14.628571-14.628571v-25.088a25.6 25.6 0 0 0-11.410285-21.284572L748.982857 364.178286zM748.909714 364.178286a18.285714 18.285714 0 0 0-28.452571 15.213714V464.457143h-643.657143a14.628571 14.628571 0 0 0-14.628571 14.628571v65.828572c0 8.045714 6.582857 14.628571 14.628571 14.628571h870.4a14.628571 14.628571 0 0 0 14.628571-14.628571v-25.088a25.6 25.6 0 0 0-11.410285-21.284572L748.982857 364.178286z" /></svg>