<?xml version="1.0" standalone="no"?><!DOCTYPE svg PUBLIC "-//W3C//DTD SVG 1.1//EN" "http://www.w3.org/Graphics/SVG/1.1/DTD/svg11.dtd"><svg class="icon" width="200px" height="200.00px" viewBox="0 0 1024 1024" version="1.1" xmlns="http://www.w3.org/2000/svg"><path d="M669.988571 479.670857a36.571429 36.571429 0 0 1 0 64.658286L467.529143 650.825143A34.596571 34.596571 0 0 1 416.914286 620.251429V403.748571a34.596571 34.596571 0 0 1 50.688-30.573714L669.988571 479.670857zM1024 512A512 512 0 1 1 0 512a512 512 0 0 1 1024 0z m-95.085714 0A416.914286 416.914286 0 1 0 95.085714 512a416.914286 416.914286 0 0 0 833.828572 0z" /></svg>