<?xml version="1.0" standalone="no"?><!DOCTYPE svg PUBLIC "-//W3C//DTD SVG 1.1//EN" "http://www.w3.org/Graphics/SVG/1.1/DTD/svg11.dtd"><svg class="icon" width="200px" height="200.00px" viewBox="0 0 1024 1024" version="1.1" xmlns="http://www.w3.org/2000/svg"><path d="M735.670857 62.171429a25.6 25.6 0 0 1 18.139429 7.533714l202.605714 202.605714a18.285714 18.285714 0 0 1-12.873143 31.232H449.316571l-14.336 0.365714a281.6 281.6 0 0 0 14.189715 562.834286h424.228571a25.6 25.6 0 0 1 25.6 25.6v43.885714a25.6 25.6 0 0 1-25.6 25.6h-424.228571a376.685714 376.685714 0 1 1 0-753.371428h308.955428L655.506286 105.910857A25.6 25.6 0 0 1 673.572571 62.171429h62.171429z" /></svg>