<?xml version="1.0" standalone="no"?><!DOCTYPE svg PUBLIC "-//W3C//DTD SVG 1.1//EN" "http://www.w3.org/Graphics/SVG/1.1/DTD/svg11.dtd"><svg class="icon" width="200px" height="200.00px" viewBox="0 0 1024 1024" version="1.1" xmlns="http://www.w3.org/2000/svg"><path d="M298.642286 62.171429a25.6 25.6 0 0 0-18.139429 7.533714l-202.605714 202.605714a18.285714 18.285714 0 0 0 12.873143 31.232h494.226285l14.336 0.365714A281.6 281.6 0 0 1 585.142857 866.742857H160.914286a25.6 25.6 0 0 0-25.6 25.6v43.885714c0 14.116571 11.483429 25.6 25.6 25.6H585.142857a376.685714 376.685714 0 1 0 0-753.371428H276.187429L378.88 105.910857A25.6 25.6 0 0 0 360.740571 62.171429h-62.171428z" /></svg>