<?xml version="1.0" standalone="no"?><!DOCTYPE svg PUBLIC "-//W3C//DTD SVG 1.1//EN" "http://www.w3.org/Graphics/SVG/1.1/DTD/svg11.dtd"><svg class="icon" width="200px" height="200.00px" viewBox="0 0 1024 1024" version="1.1" xmlns="http://www.w3.org/2000/svg"><path d="M219.523657 683.885714a47.542857 47.542857 0 1 0 0 95.085715h36.571429a47.542857 47.542857 0 1 0 0-95.085715H219.523657zM752.954514 73.142857a73.142857 73.142857 0 0 1 68.973715 48.786286l184.978285 524.214857A219.428571 219.428571 0 0 1 804.666514 950.857143H219.523657A219.428571 219.428571 0 0 1 17.283657 646.070857l185.051429-524.141714A73.142857 73.142857 0 0 1 271.3088 73.142857h481.645714zM804.666514 607.085714H219.523657A124.562286 124.562286 0 0 0 95.1808 731.428571 124.342857 124.342857 0 0 0 219.523657 855.771429h585.142857a124.342857 124.342857 0 1 0 0-248.685715z m-80.237714-438.857143H299.761371a18.285714 18.285714 0 0 0-17.261714 12.214858L162.837943 519.314286C180.904229 514.56 199.921371 512 219.523657 512h585.142857c19.602286 0 38.619429 2.56 56.685715 7.387429l-119.661715-338.944a18.285714 18.285714 0 0 0-17.261714-12.214858z" /></svg>