<?xml version="1.0" standalone="no"?><!DOCTYPE svg PUBLIC "-//W3C//DTD SVG 1.1//EN" "http://www.w3.org/Graphics/SVG/1.1/DTD/svg11.dtd"><svg class="icon" width="200px" height="200.00px" viewBox="0 0 1024 1024" version="1.1" xmlns="http://www.w3.org/2000/svg"><path d="M877.714286 438.857143V219.428571a36.571429 36.571429 0 0 0-36.571429-36.571428H365.714286l-62.317715-93.403429A36.571429 36.571429 0 0 0 272.969143 73.142857H36.571429a36.571429 36.571429 0 0 0-36.571429 36.571429v804.571428a36.571429 36.571429 0 0 0 36.571429 36.571429h830.171428a14.628571 14.628571 0 0 0 13.970286-10.605714l137.947428-482.742858A14.628571 14.628571 0 0 0 1004.617143 438.857143H877.714286zM314.806857 277.942857H782.628571V438.857143H157.257143a14.628571 14.628571 0 0 0-13.970286 10.605714L95.085714 618.057143V168.228571h146.578286l73.142857 109.714286z m-188.708571 577.828572L217.965714 533.942857h679.936l-92.013714 321.828572H126.025143zM877.714286 438.857143V219.428571a36.571429 36.571429 0 0 0-36.571429-36.571428H365.714286l-62.317715-93.403429A36.571429 36.571429 0 0 0 272.969143 73.142857H36.571429a36.571429 36.571429 0 0 0-36.571429 36.571429v804.571428a36.571429 36.571429 0 0 0 36.571429 36.571429h830.171428a14.628571 14.628571 0 0 0 13.970286-10.605714l137.947428-482.742858A14.628571 14.628571 0 0 0 1004.617143 438.857143H877.714286zM314.806857 277.942857H782.628571V438.857143H157.257143a14.628571 14.628571 0 0 0-13.970286 10.605714L95.085714 618.057143V168.228571h146.578286l73.142857 109.714286z m-188.708571 577.828572L217.965714 533.942857h679.936l-92.013714 321.828572H126.025143z" /></svg>
