<?xml version="1.0" standalone="no"?><!DOCTYPE svg PUBLIC "-//W3C//DTD SVG 1.1//EN" "http://www.w3.org/Graphics/SVG/1.1/DTD/svg11.dtd"><svg class="icon" width="200px" height="200.00px" viewBox="0 0 1024 1024" version="1.1" xmlns="http://www.w3.org/2000/svg"><path d="M950.857143 261.266286a14.628571 14.628571 0 0 0-3.510857-9.508572L735.817143 5.12A14.628571 14.628571 0 0 0 724.699429 0H109.714286a36.571429 36.571429 0 0 0-36.571429 36.571429v950.272a36.571429 36.571429 0 0 0 36.571429 36.571428h804.571428a36.571429 36.571429 0 0 0 36.571429-36.571428v-725.577143z m-95.085714 667.062857H168.228571V95.085714h433.005715v241.225143c0 8.045714 6.582857 14.628571 14.628571 14.628572h239.908572v577.462857z m-32.182858-672.475429H696.32V109.641143l127.268571 146.212571zM950.857143 261.266286a14.628571 14.628571 0 0 0-3.510857-9.508572L735.817143 5.12A14.628571 14.628571 0 0 0 724.699429 0H109.714286a36.571429 36.571429 0 0 0-36.571429 36.571429v950.272a36.571429 36.571429 0 0 0 36.571429 36.571428h804.571428a36.571429 36.571429 0 0 0 36.571429-36.571428v-725.577143z m-95.085714 667.062857H168.228571V95.085714h433.005715v241.225143c0 8.045714 6.582857 14.628571 14.628571 14.628572h239.908572v577.462857z m-32.182858-672.475429H696.32V109.641143l127.268571 146.212571z" /></svg>
