<?xml version="1.0" standalone="no"?><!DOCTYPE svg PUBLIC "-//W3C//DTD SVG 1.1//EN" "http://www.w3.org/Graphics/SVG/1.1/DTD/svg11.dtd"><svg class="icon" width="200px" height="200.00px" viewBox="0 0 1024 1024" version="1.1" xmlns="http://www.w3.org/2000/svg"><path d="M446.171429 365.714286c8.045714 0 14.628571 6.582857 14.628571 14.628571v263.314286a14.628571 14.628571 0 0 1-14.628571 14.628571h-65.828572a14.628571 14.628571 0 0 1-14.628571-14.628571V380.342857c0-8.045714 6.582857-14.628571 14.628571-14.628571h65.828572zM563.2 380.342857v263.314286c0 8.045714 6.582857 14.628571 14.628571 14.628571h65.828572a14.628571 14.628571 0 0 0 14.628571-14.628571V380.342857a14.628571 14.628571 0 0 0-14.628571-14.628571h-65.828572a14.628571 14.628571 0 0 0-14.628571 14.628571zM1024 512A512 512 0 1 1 0 512a512 512 0 0 1 1024 0z m-95.085714 0A416.914286 416.914286 0 1 0 95.085714 512a416.914286 416.914286 0 0 0 833.828572 0z" /></svg>