<svg class="icon" width="200px" height="200.00px" viewBox="0 0 1024 1024" version="1.1" xmlns="http://www.w3.org/2000/svg"><path  d="M820.516571 688.128l193.389715 96.768a18.285714 18.285714 0 0 1 0 32.694857L820.516571 914.285714l-4.169142 1.462857-4.096 0.512a18.285714 18.285714 0 0 1-18.285715-18.285714v-45.860571h-73.142857a193.828571 193.828571 0 0 1-181.394286-125.805715L509.805714 647.387429l-29.622857 78.994285a193.828571 193.828571 0 0 1-168.082286 125.293715l-13.385142 0.438857H0v-95.085715h298.715429a98.742857 98.742857 0 0 0 92.452571-64.073142L459.044571 512l-67.876571-180.955429a98.742857 98.742857 0 0 0-92.452571-64.073142H0v-95.085715h298.715429a193.828571 193.828571 0 0 1 181.467428 125.805715l29.622857 78.921142 29.622857-78.994285a193.828571 193.828571 0 0 1 181.394286-125.732572h73.142857v-49.152a18.285714 18.285714 0 0 1 26.550857-16.384l193.389715 96.694857a18.285714 18.285714 0 0 1 0 32.768l-193.389715 96.694858-4.169142 1.462857-4.096 0.512a18.285714 18.285714 0 0 1-18.285715-18.285715V266.971429h-73.142857a98.742857 98.742857 0 0 0-92.379428 64.073142L560.566857 512l67.876572 180.955429a98.742857 98.742857 0 0 0 92.452571 64.073142h73.142857v-52.516571a18.285714 18.285714 0 0 1 26.477714-16.384z" /></svg>