<?xml version="1.0" standalone="no"?><!DOCTYPE svg PUBLIC "-//W3C//DTD SVG 1.1//EN" "http://www.w3.org/Graphics/SVG/1.1/DTD/svg11.dtd"><svg class="icon" width="200px" height="200.00px" viewBox="0 0 1024 1024" version="1.1" xmlns="http://www.w3.org/2000/svg"><path d="M847.798857 754.102857l-204.8 204.8H603.428571a18.285714 18.285714 0 0 1-18.285714-18.285714V75.483429c0-8.045714 6.582857-14.628571 14.628572-14.628572h65.828571c8.045714 0 14.628571 6.582857 14.628571 14.628572v711.68l146.944-146.870858a14.628571 14.628571 0 0 1 24.941715 10.313143v93.110857a14.628571 14.628571 0 0 1-4.315429 10.386286zM150.601143 269.897143A14.628571 14.628571 0 0 0 146.285714 280.283429v93.110857a14.628571 14.628571 0 0 0 24.941715 10.313143L318.171429 236.763429v711.753142c0 8.045714 6.582857 14.628571 14.628571 14.628572h65.828571a14.628571 14.628571 0 0 0 14.628572-14.628572V65.097143h-57.856l-204.8 204.8z" /></svg>