<?xml version="1.0" standalone="no"?><!DOCTYPE svg PUBLIC "-//W3C//DTD SVG 1.1//EN" "http://www.w3.org/Graphics/SVG/1.1/DTD/svg11.dtd"><svg class="icon" width="200px" height="200.00px" viewBox="0 0 1024 1024" version="1.1" xmlns="http://www.w3.org/2000/svg"><path d="M73.142857 369.371429c0-8.045714 6.582857-14.628571 14.628572-14.628572H731.428571V269.677714a7.314286 7.314286 0 0 1 11.337143-6.070857l201.581715 134.363429a14.628571 14.628571 0 0 1 6.509714 12.141714v25.088a14.628571 14.628571 0 0 1-14.628572 14.628571H87.771429a14.628571 14.628571 0 0 1-14.628572-14.628571v-65.828571zM950.857143 654.628571a14.628571 14.628571 0 0 1-14.628572 14.628572H292.571429v85.065143a7.314286 7.314286 0 0 1-11.337143 6.070857L79.652571 626.102857A14.628571 14.628571 0 0 1 73.142857 613.888V588.8c0-8.045714 6.582857-14.628571 14.628572-14.628571h848.457142c8.045714 0 14.628571 6.582857 14.628572 14.628571v65.828571zM73.142857 369.371429c0-8.045714 6.582857-14.628571 14.628572-14.628572H731.428571V269.677714a7.314286 7.314286 0 0 1 11.337143-6.070857l201.581715 134.363429a14.628571 14.628571 0 0 1 6.509714 12.141714v25.088a14.628571 14.628571 0 0 1-14.628572 14.628571H87.771429a14.628571 14.628571 0 0 1-14.628572-14.628571v-65.828571zM950.857143 654.628571a14.628571 14.628571 0 0 1-14.628572 14.628572H292.571429v85.065143a7.314286 7.314286 0 0 1-11.337143 6.070857L79.652571 626.102857A14.628571 14.628571 0 0 1 73.142857 613.888V588.8c0-8.045714 6.582857-14.628571 14.628572-14.628571h848.457142c8.045714 0 14.628571 6.582857 14.628572 14.628571v65.828571z" /></svg>