<?xml version="1.0" standalone="no"?><!DOCTYPE svg PUBLIC "-//W3C//DTD SVG 1.1//EN" "http://www.w3.org/Graphics/SVG/1.1/DTD/svg11.dtd"><svg class="icon" width="200px" height="200.00px" viewBox="0 0 1024 1024" version="1.1" xmlns="http://www.w3.org/2000/svg"><path d="M512 0a512 512 0 1 1 0 1024A512 512 0 0 1 512 0z m0 95.085714a416.914286 416.914286 0 1 0 0 833.828572A416.914286 416.914286 0 0 0 512 95.085714z m204.8 453.485715c8.045714 0 14.628571 6.582857 14.628571 14.628571v58.514286a14.628571 14.628571 0 0 1-14.628571 14.628571H438.857143v58.806857a7.314286 7.314286 0 0 1-11.629714 5.924572L298.642286 608.109714A14.628571 14.628571 0 0 1 292.571429 596.260571V563.2c0-8.045714 6.582857-14.628571 14.628571-14.628571h409.6zM596.772571 322.925714l128.585143 92.964572a14.628571 14.628571 0 0 1 6.070857 11.849143V460.8a14.628571 14.628571 0 0 1-14.628571 14.628571H307.2a14.628571 14.628571 0 0 1-14.628571-14.628571v-58.514286c0-8.045714 6.582857-14.628571 14.628571-14.628571H585.142857v-58.806857a7.314286 7.314286 0 0 1 11.629714-5.924572z" /></svg>