<?xml version="1.0" standalone="no"?><!DOCTYPE svg PUBLIC "-//W3C//DTD SVG 1.1//EN" "http://www.w3.org/Graphics/SVG/1.1/DTD/svg11.dtd"><svg class="icon" width="200px" height="200.00px" viewBox="0 0 1024 1024" version="1.1" xmlns="http://www.w3.org/2000/svg"><path d="M62.171429 87.771429A25.6 25.6 0 0 1 87.771429 62.171429h848.457142a25.6 25.6 0 0 1 25.6 25.6v320.146285a18.285714 18.285714 0 0 1-27.062857 16.018286l-58.514285-32.256a18.285714 18.285714 0 0 1-9.508572-16.091429V157.257143h-709.485714v490.057143h336.457143A18.285714 18.285714 0 0 1 512 665.6v58.514286a18.285714 18.285714 0 0 1-18.285714 18.285714H87.771429a25.6 25.6 0 0 1-25.6-25.6V87.771429zM281.6 881.371429c0-8.045714 6.582857-14.628571 14.628571-14.628572h426.642286l-74.678857-44.763428a17.554286 17.554286 0 0 1-6.070857-23.844572l5.266286-8.923428a40.594286 40.594286 0 0 0-34.596572-61.366858h-10.386286A17.334857 17.334857 0 0 1 585.142857 710.509714V606.061714c0-9.508571 7.753143-17.334857 17.261714-17.334857h10.386286c31.158857 0 50.468571-34.304 34.596572-61.366857l-5.266286-8.923429a17.481143 17.481143 0 0 1 6.070857-23.844571l88.941714-53.321143a17.188571 17.188571 0 0 1 23.625143 6.144l9.216 15.579429a40.082286 40.082286 0 0 0 69.193143 0l9.216-15.579429a17.188571 17.188571 0 0 1 23.625143-6.144l91.428571 54.857143a14.555429 14.555429 0 0 1 5.12 19.748571 48.274286 48.274286 0 0 0 41.106286 72.850286c7.899429 0 14.336 6.436571 14.336 14.409143v107.373714a17.334857 17.334857 0 0 1-17.261714 17.334857h-10.386286a40.594286 40.594286 0 0 0-34.596571 61.366858l5.266285 8.923428a17.481143 17.481143 0 0 1-6.070857 23.844572l-88.941714 53.321142a17.188571 17.188571 0 0 1-23.625143-6.144l-9.216-15.579428a40.082286 40.082286 0 0 0-69.193143 0l-9.216 15.579428a17.188571 17.188571 0 0 1-19.017143 8.045715 14.774857 14.774857 0 0 1 0.658286 4.169143v65.828571a14.628571 14.628571 0 0 1-14.628571 14.628571h-431.542858a14.628571 14.628571 0 0 1-14.628571-14.628571v-65.828571zM804.571429 752.347429a94.061714 94.061714 0 1 0 0-188.123429 94.061714 94.061714 0 0 0 0 188.123429z" /></svg>