<?xml version="1.0" standalone="no"?><!DOCTYPE svg PUBLIC "-//W3C//DTD SVG 1.1//EN" "http://www.w3.org/Graphics/SVG/1.1/DTD/svg11.dtd"><svg class="icon" width="200px" height="200.00px" viewBox="0 0 1024 1024" version="1.1" xmlns="http://www.w3.org/2000/svg"><path d="M829.81852 0l77.398081 116.060579L1023.204093 193.385574v111.894676L690.297333 400.511317 548.14505 542.517428l-89.895788 22.437404 22.437404-89.895789L622.692777 332.979846 717.923844 0h111.894676z m-43.266916 107.071l-51.891065 181.472554 181.545641-51.891064-77.836597-51.891065-51.891065-77.690425zM68.700846 228.247599c102.612753-102.612753 292.782543-86.75309 467.311927 25.141586L495.011523 340.580791a602.667211 602.667211 0 0 0-88.21481-49.113796 206.833399 206.833399 0 0 0-13.667083-5.554537 443.26663 443.26663 0 0 0-73.305265-23.095178c-88.726412-19.294706-149.972486-0.73086-183.738221 32.961789-33.765735 33.765735-52.256495 95.011809-32.888703 183.738221 19.002362 87.630122 73.305265 188.708069 162.616365 278.019169 89.3111 89.3111 190.389047 143.614003 278.01917 162.689451 88.726412 19.294706 149.972486 0.73086 183.73822-32.961789 33.400305-33.400305 51.891065-93.769347 33.546477-181.107125a152.530496 152.530496 0 0 0-2.484924-12.278449A465.996379 465.996379 0 0 0 722.820606 597.843535v0.146172a614.872574 614.872574 0 0 0-40.197304-69.577879l87.191606-41.00125c111.894676 174.456298 127.75434 364.699173 25.141587 467.311927-128.996802 128.923716-396.126156 70.893426-596.674159-129.727662C-2.19258 624.373755-60.295956 357.171315 68.62776 228.247599zM609.244952 562.908423l62.561621-29.45366c48.602194 87.410864 54.668333 175.040986 7.527859 222.18146-3.069612 2.996526-6.212311 5.846881-9.501181 8.404891-77.471167 47.652076-211.657075 9.428095-315.804635-94.792551-85.29137-85.29137-126.438792-190.754477-112.406278-268.591074l0.146172 0.219258c4.75059-21.04877 14.178685-39.466444 28.722801-54.083645 46.628872-46.4827 132.578016-41.220508 218.819504 5.700708l-28.942059 61.538418a233.582877 233.582877 0 0 0-53.133527-20.025566c-42.536056-9.793525-59.418923 1.315548-63.584826 5.48145-4.165902 4.165902-15.348061 21.04877-5.48145 63.584826 9.501181 41.00125 36.543003 92.088368 83.318047 138.717241 46.628872 46.775044 97.715991 73.816867 138.717241 83.318048 42.536056 9.793525 59.418923-1.315548 63.584826-5.481451 4.165902-4.165902 15.274975-21.04877 5.408364-63.584826a233.582877 233.582877 0 0 0-19.952479-53.133527z" /></svg>