<svg class="icon" width="200px" height="200.00px" viewBox="0 0 1024 1024" version="1.1" xmlns="http://www.w3.org/2000/svg"><path  d="M478.461806 658.285714h527.433143a18.358857 18.358857 0 0 1 17.700571 23.186286l-1.755429 4.242286-148.260571 256a18.285714 18.285714 0 0 1-11.117714 8.484571l-4.754286 0.658286H330.201234a18.285714 18.285714 0 0 1-17.700571-23.259429l1.828571-4.169143 148.187429-256A18.285714 18.285714 0 0 1 478.461806 658.285714zM282.804663 149.869714l4.534857 0.585143c3.072 0.731429 5.851429 2.267429 8.192 4.534857l3.145143 4.022857 148.187428 256a18.285714 18.285714 0 0 1 1.901715 13.897143l-1.901715 4.388572-263.68 455.460571a18.066286 18.066286 0 0 1-11.337142 8.557714l-4.608 0.585143a18.285714 18.285714 0 0 1-12.726858-5.12l-3.145142-4.022857-148.187429-256a18.285714 18.285714 0 0 1-1.901714-13.824l1.901714-4.388571L266.932663 158.939429a18.066286 18.066286 0 0 1 11.264-8.557715l4.608-0.585143z m589.970286 603.501715H522.640091l-59.245714 102.4h350.061714l59.245715-102.4zM282.804663 321.316571L107.700663 623.616l59.538286 102.838857 175.104-302.299428-59.538286-102.838858zM742.580663 73.142857c4.900571 0 9.508571 1.974857 12.946286 5.339429l2.925714 3.803428 263.753143 455.460572a18.285714 18.285714 0 0 1-8.045715 25.746285l-3.730285 1.243429-4.096 0.438857H709.885806a18.358857 18.358857 0 0 1-13.897143-6.217143l-2.048-2.925714-263.753143-455.460571a18.285714 18.285714 0 0 1 11.410286-26.916572L446.132663 73.142857h296.448z m-44.251429 95.085714H579.252663l174.811428 301.860572h119.076572L698.329234 168.228571z" /></svg>