<?xml version="1.0" standalone="no"?><!DOCTYPE svg PUBLIC "-//W3C//DTD SVG 1.1//EN" "http://www.w3.org/Graphics/SVG/1.1/DTD/svg11.dtd"><svg class="icon" width="200px" height="200.00px" viewBox="0 0 1024 1024" version="1.1" xmlns="http://www.w3.org/2000/svg"><path d="M219.428571 358.4a138.971429 138.971429 0 1 1 277.942858 0 138.971429 138.971429 0 0 1-277.942858 0z m138.971429-43.885714a43.885714 43.885714 0 1 0 0 87.771428 43.885714 43.885714 0 0 0 0-87.771428zM603.428571 413.257143A18.285714 18.285714 0 0 1 585.142857 394.971429v-58.514286a18.285714 18.285714 0 0 1 18.285714-18.285714h182.857143a18.285714 18.285714 0 0 1 18.285715 18.285714v58.514286a18.285714 18.285714 0 0 1-18.285715 18.285714h-182.857143zM529.700571 643.072a18.285714 18.285714 0 0 0 0-25.819429l-41.325714-41.398857a18.285714 18.285714 0 0 0-25.892571 0L362.788571 675.620571l-63.195428-63.195428a18.285714 18.285714 0 0 0-25.892572 0l-41.325714 41.398857a18.285714 18.285714 0 0 0 0 25.819429L349.842286 797.257143a18.285714 18.285714 0 0 0 25.819428 0l154.038857-154.112zM603.428571 731.136a18.285714 18.285714 0 0 1-18.285714-18.285714v-58.514286a18.285714 18.285714 0 0 1 18.285714-18.285714h182.857143a18.285714 18.285714 0 0 1 18.285715 18.285714v58.514286a18.285714 18.285714 0 0 1-18.285715 18.285714h-182.857143zM877.714286 0a73.142857 73.142857 0 0 1 73.142857 73.142857v877.714286a73.142857 73.142857 0 0 1-73.142857 73.142857H146.285714a73.142857 73.142857 0 0 1-73.142857-73.142857V73.142857a73.142857 73.142857 0 0 1 73.142857-73.142857h731.428572z m-21.942857 95.085714H168.228571v833.828572h687.542858V95.085714z" /></svg>