<?xml version="1.0" standalone="no"?><!DOCTYPE svg PUBLIC "-//W3C//DTD SVG 1.1//EN" "http://www.w3.org/Graphics/SVG/1.1/DTD/svg11.dtd"><svg class="icon" width="200px" height="200.00px" viewBox="0 0 1024 1024" version="1.1" xmlns="http://www.w3.org/2000/svg"><path d="M805.156571 287.305143a14.628571 14.628571 0 0 1 0 20.699428L570.075429 543.085714a14.628571 14.628571 0 0 1-20.699429 0L450.048 443.684571 307.931429 585.728a14.628571 14.628571 0 0 1-20.699429 0l-46.592-46.518857a14.628571 14.628571 0 0 1 0-20.699429l198.948571-198.948571a14.628571 14.628571 0 0 1 20.699429 0l99.401143 99.401143 178.176-178.249143a14.628571 14.628571 0 0 1 20.626286 0l46.592 46.592zM157.257143 0A157.257143 157.257143 0 0 0 0 157.257143v490.057143A157.257143 157.257143 0 0 0 157.257143 804.571429h709.485714A157.257143 157.257143 0 0 0 1024 647.314286v-490.057143A157.257143 157.257143 0 0 0 866.742857 0h-709.485714zM95.085714 157.257143c0-34.377143 27.794286-62.171429 62.171429-62.171429h709.485714c34.377143 0 62.171429 27.794286 62.171429 62.171429v490.057143c0 34.377143-27.794286 62.171429-62.171429 62.171428h-709.485714a62.171429 62.171429 0 0 1-62.171429-62.171428v-490.057143zM713.142857 1024a18.285714 18.285714 0 0 0 18.285714-18.285714v-58.514286a18.285714 18.285714 0 0 0-18.285714-18.285714h-402.285714a18.285714 18.285714 0 0 0-18.285714 18.285714v58.514286c0 10.093714 8.192 18.285714 18.285714 18.285714h402.285714z" /></svg>