<svg class="icon" width="200px" height="200.00px" viewBox="0 0 1024 1024" version="1.1" xmlns="http://www.w3.org/2000/svg"><path  d="M185.585858 72.677836l8.8471 0.731165c17.182386 2.485962 30.708945 10.455665 40.579678 21.934961l13.453442 16.158754 14.696424 18.864066 31.22076 42.407591 37.728132 54.033119 44.601087 66.68228c11.844879 22.519893 18.864066 56.811548-0.584933 77.211061l-17.913551 18.279134-19.302765 19.010299-23.177942 22.300544c-20.25328 23.982224 0.438699 55.934149 18.864066 79.112091l12.795394 15.646938c52.424556 64.342551 111.137133 121.373448 177.307598 172.40879 12.86851 8.554635 31.001411 18.644716 47.745097 18.279134l7.092304-0.950515a31.732576 31.732576 0 0 0 13.160977-6.434255l22.593009-22.885476 28.881031-28.222982 8.920218-8.408402a47.891331 47.891331 0 0 1 35.680869-11.844878l7.896586 0.731165c15.720055 2.339729 31.44011 9.50515 43.284989 17.328619l52.132089 35.315286 43.138756 30.050896 29.685313 21.423145c24.420923 17.913551 47.306398 35.534636 63.830735 49.938594 20.911329 18.35225 29.904663 48.476263 14.477074 90.73762-18.132901 49.938594-84.815181 132.560278-195.659848 140.52998l-14.623307 0.584933a273.528958 273.528958 0 0 1-63.903852-7.165421 562.412389 562.412389 0 0 1-114.208028-41.018376 1047.1019 1047.1019 0 0 1-164.073505-98.926672 1086.438596 1086.438596 0 0 1-278.208416-294.147821C66.332789 511.230814 23.778965 429.194062 6.59658 351.324952-28.133775 193.758818 82.637776 101.485751 143.909433 80.062606c11.698646-4.094526 22.37366-6.361139 32.171275-7.092304l9.50515-0.219349zM173.740979 170.361527l-5.118157 2.266613c-13.234093 6.580488-34.511005 21.569378-50.815992 45.551601-17.328619 25.444554-29.685313 61.41789-18.352251 112.818814 13.526559 61.564123 49.134312 132.340929 92.858 199.754374a991.460217 991.460217 0 0 0 254.226193 268.922616c46.794583 33.926072 97.244992 65.439299 149.011499 89.933339a467.945825 467.945825 0 0 0 94.612796 34.291655c14.184608 3.217128 27.272468 4.679458 39.263579 4.752574l11.698646-0.438699a130.878598 130.878598 0 0 0 63.611386-21.642494c27.199351-17.913551 42.992523-41.968891 48.256913-54.106236a1146.467272 1146.467272 0 0 0-42.115124-32.317509l-31.805693-22.885475-46.429-32.390625-36.996967-25.078972-38.60553 38.751764-4.167643 3.436477a124.956159 124.956159 0 0 1-70.191874 28.369216l-9.358916 0.438699c-15.427589 0.146233-29.246614-2.193496-40.214094-5.191274a199.315675 199.315675 0 0 1-48.54938-21.057562l-15.208239-9.651383-2.705312-2.047263a1168.548465 1168.548465 0 0 1-168.021798-158.077949l-35.169053-41.968891-10.528781-13.672792a262.927061 262.927061 0 0 1-22.227427-35.022821c-13.526559-26.321953-35.827102-87.447376 4.606342-144.916973l7.750352-10.090081 3.509594-4.167643 38.751764-37.362549-30.270246-45.039786-33.633606-48.33003c-12.722277-17.913551-25.371438-35.169053-36.704501-49.938593l-10.96748-13.892142zM731.181443 0a292.466141 292.466141 0 0 1 14.623307 584.566699L731.181443 584.932282a292.466141 292.466141 0 1 1 0-584.932282z m0 95.051496l-12.429811 0.365582a197.414645 197.414645 0 0 0 0 394.098125L731.181443 489.880786l12.429811-0.365583a197.414645 197.414645 0 0 0 0-394.098125L731.181443 95.051496z m7.311654 76.772362c8.042819 0 14.623307 6.580488 14.623307 14.623307V270.53118h84.084015c8.042819 0 14.623307 6.580488 14.623307 14.623307v65.804882a14.623307 14.623307 0 0 1-10.74813 14.111491L837.200419 365.582676h-116.986456A62.149055 62.149055 0 0 1 658.064908 303.433621v-116.986456c0-8.042819 6.580488-14.623307 14.623307-14.623307h65.804882z" /></svg>