<?xml version="1.0" standalone="no"?><!DOCTYPE svg PUBLIC "-//W3C//DTD SVG 1.1//EN" "http://www.w3.org/Graphics/SVG/1.1/DTD/svg11.dtd"><svg class="icon" width="200px" height="200.00px" viewBox="0 0 1024 1024" version="1.1" xmlns="http://www.w3.org/2000/svg"><path d="M329.168457 768a73.142857 73.142857 0 1 0 0-146.285714 73.142857 73.142857 0 0 0 0 146.285714zM329.168457 0A182.857143 182.857143 0 0 0 146.311314 182.857143v238.299428a329.142857 329.142857 0 1 0 365.714286 0V182.857143A182.857143 182.857143 0 0 0 329.168457 0zM199.1936 500.150857l42.203429-28.233143V182.857143a87.771429 87.771429 0 0 1 175.542857 0v25.6H336.482743a18.285714 18.285714 0 0 0-18.285714 18.285714v58.514286c0 10.093714 8.192 18.285714 18.285714 18.285714h80.457143v73.142857H336.482743a18.285714 18.285714 0 0 0-18.285714 18.285715v58.514285c0 10.093714 8.192 18.285714 18.285714 18.285715h80.457143v0.146285l42.203428 28.233143a234.057143 234.057143 0 1 1-259.949714 0zM610.768457 336.457143a18.285714 18.285714 0 0 1 18.285714-18.285714h376.685715a18.285714 18.285714 0 0 1 18.285714 18.285714v58.514286a18.285714 18.285714 0 0 1-18.285714 18.285714H629.054171a18.285714 18.285714 0 0 1-18.285714-18.285714v-58.514286zM757.054171 555.885714a18.285714 18.285714 0 0 1 18.285715-18.285714h230.4a18.285714 18.285714 0 0 1 18.285714 18.285714v58.514286a18.285714 18.285714 0 0 1-18.285714 18.285714H775.339886a18.285714 18.285714 0 0 1-18.285715-18.285714v-58.514286zM757.054171 775.314286a18.285714 18.285714 0 0 1 18.285715-18.285715h230.4a18.285714 18.285714 0 0 1 18.285714 18.285715v58.514285a18.285714 18.285714 0 0 1-18.285714 18.285715H775.339886a18.285714 18.285714 0 0 1-18.285715-18.285715v-58.514285z" /></svg>