<svg class="icon" width="200px" height="200.00px" viewBox="0 0 1024 1024" version="1.1" xmlns="http://www.w3.org/2000/svg"><path  d="M583.753143 219.428571l153.380571 350.573715 4.608-0.146286 12.068572 0.438857a182.857143 182.857143 0 0 1 152.649143 261.924572l-6.217143 11.776 87.186285 87.186285a14.628571 14.628571 0 0 1 2.706286 16.822857l-2.706286 3.876572-46.518857 46.518857a14.628571 14.628571 0 0 1-3.803428 2.706286l-4.388572 1.462857h-4.388571a14.555429 14.555429 0 0 1-5.705143-2.194286l-2.413714-1.974857-87.186286-87.186286-11.702857 6.217143a182.857143 182.857143 0 0 1-175.908572-320.146286l-16.603428-37.741714h-193.828572L396.434286 647.826286H292.571429L479.963429 219.428571h103.862857zM804.571429 0a157.257143 157.257143 0 0 1 157.257142 157.257143v351.085714c0 12.434286-8.777143 22.674286-20.48 25.088l-5.12 0.512h-43.885714a25.6 25.6 0 0 1-25.6-25.6v-351.085714A62.171429 62.171429 0 0 0 804.571429 95.085714H219.428571a62.171429 62.171429 0 0 0-62.171428 62.171429v658.285714c0 34.377143 27.794286 62.171429 62.171428 62.171429h277.942858a25.6 25.6 0 0 1 25.6 25.6v43.885714c0 12.434286-8.777143 22.674286-20.48 25.088l-5.12 0.512H219.428571a157.257143 157.257143 0 0 1-157.257142-157.257143v-658.285714A157.257143 157.257143 0 0 1 219.428571 0h585.142858z m-62.829715 664.941714l-8.923428 0.512a87.771429 87.771429 0 0 0 0 174.592l8.923428 0.438857 8.996572-0.438857a87.771429 87.771429 0 0 0 0-174.592l-8.996572-0.512z m-209.846857-326.948571L476.598857 464.457143h110.592l-55.296-126.390857z" /></svg>