<?xml version="1.0" standalone="no"?><!DOCTYPE svg PUBLIC "-//W3C//DTD SVG 1.1//EN" "http://www.w3.org/Graphics/SVG/1.1/DTD/svg11.dtd"><svg class="icon" width="200px" height="200.00px" viewBox="0 0 1024 1024" version="1.1" xmlns="http://www.w3.org/2000/svg"><path d="M464.457143 219.428571a25.6 25.6 0 0 1 25.6-25.6h43.885714a25.6 25.6 0 0 1 25.6 25.6v254.464l277.650286 61.659429a25.6 25.6 0 0 1 19.456 30.573714l-9.508572 42.788572a25.6 25.6 0 0 1-30.573714 19.456l-309.101714-68.754286a54.857143 54.857143 0 0 1-43.008-53.467429V219.428571zM1024 512A512 512 0 1 1 0 512a512 512 0 0 1 1024 0z m-95.085714 0A416.914286 416.914286 0 1 0 95.085714 512a416.914286 416.914286 0 0 0 833.828572 0zM464.457143 219.428571a25.6 25.6 0 0 1 25.6-25.6h43.885714a25.6 25.6 0 0 1 25.6 25.6v254.464l277.650286 61.659429a25.6 25.6 0 0 1 19.456 30.573714l-9.508572 42.788572a25.6 25.6 0 0 1-30.573714 19.456l-309.101714-68.754286a54.857143 54.857143 0 0 1-43.008-53.467429V219.428571zM1024 512A512 512 0 1 1 0 512a512 512 0 0 1 1024 0z m-95.085714 0A416.914286 416.914286 0 1 0 95.085714 512a416.914286 416.914286 0 0 0 833.828572 0z" /></svg>