<?xml version="1.0" standalone="no"?><!DOCTYPE svg PUBLIC "-//W3C//DTD SVG 1.1//EN" "http://www.w3.org/Graphics/SVG/1.1/DTD/svg11.dtd"><svg class="icon" width="200px" height="200.00px" viewBox="0 0 1024 1024" version="1.1" xmlns="http://www.w3.org/2000/svg"><path d="M0.153919 440.64171c0-45.627422 6.946483-89.646185 19.815756-130.959476l0.584967-1.974263A436.970311 436.970311 0 0 1 52.069736 232.978443a14.185449 14.185449 0 0 1 22.667469-3.071077L372.339141 527.655544a14.624174 14.624174 0 0 0 20.693206 0l134.396156-134.396157a14.624174 14.624174 0 0 0 0-20.693206L229.753447 74.818004A14.185449 14.185449 0 0 1 232.897644 52.223656 438.286487 438.286487 0 0 1 307.554051 20.781682l1.974264-0.731209a440.333871 440.333871 0 0 1 528.371397 610.339891l142.951298 143.09754a146.753583 146.753583 0 0 1-207.517025 207.517025l-143.02442-143.024419A440.333871 440.333871 0 0 1 0.153919 440.568589z m840.378144 473.09202a51.696454 51.696454 0 0 0 73.120869-73.120869L723.099948 650.132999l29.028985-60.690321a345.276742 345.276742 0 0 0-363.483838-490.202304l206.127728 206.20085a109.681303 109.681303 0 0 1 0 155.016241l-134.469277 134.542399a109.681303 109.681303 0 0 1-155.089363 0l-206.127728-206.20085a345.276742 345.276742 0 0 0 490.202303 363.483838l60.690321-28.955864 190.552984 190.552984zM0.153919 440.64171c0-45.627422 6.946483-89.646185 19.815756-130.959476l0.584967-1.974263A436.970311 436.970311 0 0 1 52.069736 232.978443a14.185449 14.185449 0 0 1 22.667469-3.071077L372.339141 527.655544a14.624174 14.624174 0 0 0 20.693206 0l134.396156-134.396157a14.624174 14.624174 0 0 0 0-20.693206L229.753447 74.818004A14.185449 14.185449 0 0 1 232.897644 52.223656 438.286487 438.286487 0 0 1 307.554051 20.781682l1.974264-0.731209a440.333871 440.333871 0 0 1 528.371397 610.339891l142.951298 143.09754a146.753583 146.753583 0 0 1-207.517025 207.517025l-143.02442-143.024419A440.333871 440.333871 0 0 1 0.153919 440.568589z m840.378144 473.09202a51.696454 51.696454 0 0 0 73.120869-73.120869L723.099948 650.132999l29.028985-60.690321a345.276742 345.276742 0 0 0-363.483838-490.202304l206.127728 206.20085a109.681303 109.681303 0 0 1 0 155.016241l-134.469277 134.542399a109.681303 109.681303 0 0 1-155.089363 0l-206.127728-206.20085a345.276742 345.276742 0 0 0 490.202303 363.483838l60.690321-28.955864 190.552984 190.552984z" /></svg>