<svg class="icon" width="200px" height="200.00px" viewBox="0 0 1024 1024" version="1.1" xmlns="http://www.w3.org/2000/svg"><path  d="M512 0a438.857143 438.857143 0 0 1 176.859429 840.630857l-6.582858 39.058286a172.690286 172.690286 0 0 1-158.281142 143.872L512 1024a172.617143 172.617143 0 0 1-170.349714-144.310857l-6.509715-39.058286A438.930286 438.930286 0 0 1 512 0z m76.726857 863.085714H435.2l0.219429 0.950857a77.531429 77.531429 0 0 0 151.186285 8.484572l2.048-9.435429zM512 95.085714a343.771429 343.771429 0 0 0-138.459429 658.505143l32.621715 14.409143h211.675428l32.621715-14.409143a343.844571 343.844571 0 0 0-122.733715-658.139428L512 95.085714z m60.854857 202.898286c13.897143 0 22.674286 14.774857 16.091429 26.989714l-35.913143 66.267429 55.222857 0.073143a18.285714 18.285714 0 0 1 15.36 28.233143l-108.909714 168.228571a18.285714 18.285714 0 0 1-10.752 7.753143l-4.534857 0.585143h-38.692572a18.285714 18.285714 0 0 1-16.384-26.404572L485.668571 486.4h-57.563428a18.285714 18.285714 0 0 1-16.384-26.477714l75.922286-151.844572a18.285714 18.285714 0 0 1 16.384-10.093714h68.827428z" /></svg>