<?xml version="1.0" standalone="no"?><!DOCTYPE svg PUBLIC "-//W3C//DTD SVG 1.1//EN" "http://www.w3.org/Graphics/SVG/1.1/DTD/svg11.dtd"><svg class="icon" width="200px" height="200.00px" viewBox="0 0 1024 1024" version="1.1" xmlns="http://www.w3.org/2000/svg"><path d="M898.994943 268.799634L662.690627 505.177088l67.285661 67.212524 236.23118-236.377453A196.810559 196.810559 0 1 0 687.995886 57.654304L451.545296 294.031757l67.285661 67.212525 236.231181-236.377453a101.732994 101.732994 0 0 1 143.932805 143.932805zM361.22161 518.780493l-67.285662-67.212525L57.777905 687.945422a196.810559 196.810559 0 1 0 278.284718 278.357855L572.36694 729.925824l-67.285661-67.212525-236.23118 236.377453a101.732994 101.732994 0 0 1-144.005943-143.932806L361.294746 518.780493zM12.945176 81.204285a18.284147 18.284147 0 0 1 0-25.817215l42.419221-42.419222a18.284147 18.284147 0 0 1 25.817216 0l172.748622 172.675485-68.309574 68.309574L12.945176 81.204285zM702.842613 771.101723l68.236437-68.309574L321.069623 252.855858l-68.309574 68.309574zM942.730623 1010.989732a18.284147 18.284147 0 0 0 25.817216 0l42.419221-42.419221a18.284147 18.284147 0 0 0 0-25.817216l-172.675485-172.748621-68.309573 68.309573 172.748621 172.675485z" /></svg>