<?xml version="1.0" standalone="no"?><!DOCTYPE svg PUBLIC "-//W3C//DTD SVG 1.1//EN" "http://www.w3.org/Graphics/SVG/1.1/DTD/svg11.dtd"><svg class="icon" width="200px" height="200.00px" viewBox="0 0 1024 1024" version="1.1" xmlns="http://www.w3.org/2000/svg"><path d="M906.513067 497.8688a17.066667 17.066667 0 0 0 17.066666-17.066667v-443.733333a34.133333 34.133333 0 0 0-34.133333-34.133333h-750.933333a34.133333 34.133333 0 0 0-34.133334 34.133333v819.2a34.133333 34.133333 0 0 0 34.133334 34.133333h221.866666a17.066667 17.066667 0 0 0 17.066667-17.066666v-54.613334a17.066667 17.066667 0 0 0-17.066667-17.066666h-167.253333v-709.973334h641.706667v389.12c0 9.489067 7.5776 17.066667 17.066666 17.066667h54.613334zM322.833067 207.735467a13.653333 13.653333 0 0 0-13.653334 13.653333v61.44c0 7.5776 6.144 13.653333 13.653334 13.653333h382.293333a13.653333 13.653333 0 0 0 13.653333-13.653333v-61.44a13.653333 13.653333 0 0 0-13.653333-13.653333h-382.293333zM322.833067 412.535467a13.653333 13.653333 0 0 0-13.653334 13.653333v61.44c0 7.5776 6.144 13.653333 13.653334 13.653333h245.76a13.653333 13.653333 0 0 0 13.653333-13.653333v-61.44a13.653333 13.653333 0 0 0-13.653333-13.653333h-245.76zM658.978133 518.3488a10.24 10.24 0 0 0-16.042666-3.413333l-30.037334 26.282666a10.24 10.24 0 0 0-0.546133 14.9504l72.430933 73.659734a10.24 10.24 0 0 0 17.544534-6.485334l0.546133-8.669866a10.24 10.24 0 0 0-0.955733-5.051734l-43.008-91.272533zM864.938667 557.329067a10.24 10.24 0 0 1-1.092267 17.066666l-112.4352 64.443734a10.24 10.24 0 0 1-15.291733-9.557334l0.8192-11.8784a10.24 10.24 0 0 1 2.048-5.5296l66.901333-87.04a10.24 10.24 0 0 1 14.336-1.911466l44.782933 34.4064zM677.410133 719.6672a10.24 10.24 0 0 1-9.0112 11.332267l-91.5456 10.4448a47.786667 47.786667 0 1 0 10.786134 94.890666l91.5456-10.376533a10.24 10.24 0 0 1 11.332266 9.079467l8.874667 77.960533-101.717333 11.605333a136.533333 136.533333 0 0 1-30.856534-271.36l91.613867-10.376533a10.24 10.24 0 0 1 11.264 9.0112l7.714133 67.7888zM759.808 733.5936l88.541867 25.6a47.786667 47.786667 0 0 1-26.555734 91.818667l-88.541866-25.6a10.24 10.24 0 0 0-12.629334 7.031466l-21.845333 75.434667 98.440533 28.398933a136.533333 136.533333 0 1 0 75.776-262.3488l-88.610133-25.6a10.24 10.24 0 0 0-12.6976 7.031467l-18.909867 65.536a10.24 10.24 0 0 0 6.9632 12.6976z" /></svg>