<?xml version="1.0" standalone="no"?><!DOCTYPE svg PUBLIC "-//W3C//DTD SVG 1.1//EN" "http://www.w3.org/Graphics/SVG/1.1/DTD/svg11.dtd"><svg class="icon" width="200px" height="186.69px" viewBox="0 0 1097 1024" version="1.1" xmlns="http://www.w3.org/2000/svg"><path d="M511.995611 511.995611a219.426691 219.426691 0 1 0 0-438.853381 219.426691 219.426691 0 0 0 0 438.853381z m0-95.084899a124.341791 124.341791 0 1 1 0-248.683583 124.341791 124.341791 0 0 1 0 248.683583zM292.568921 585.137842a219.426691 219.426691 0 0 0-219.426691 219.42669v212.112468a7.314223 7.314223 0 0 0 7.314223 7.314223h511.264189c6.729085 0 10.020486-8.484499 5.266241-13.238744a293.227201 293.227201 0 0 1-55.295526-77.677048 7.460507 7.460507 0 0 0-6.655943-4.169107H168.227129V804.564532A124.341791 124.341791 0 0 1 292.568921 680.222741h242.466493a7.460507 7.460507 0 0 0 6.582801-4.169107 293.300343 293.300343 0 0 1 55.368668-77.603906C601.741128 593.62234 598.449728 585.137842 591.720642 585.137842H292.568921zM1020.919249 767.993417a219.426691 219.426691 0 0 0-432.782576 0h247.440165l-101.521416-65.828007a124.341791 124.341791 0 0 1 189.365234 65.901149h97.498593zM585.137842 807.929075v-7.241081a219.426691 219.426691 0 0 0 0 7.241081zM1023.991223 801.19999v0zM773.552227 841.135647h247.440164a220.011828 220.011828 0 0 1-183.733282 180.441882A219.426691 219.426691 0 0 1 588.209815 841.135647h97.498593a124.341791 124.341791 0 0 0 189.365234 65.90115l-101.521415-65.828007z" /></svg>