<?xml version="1.0" standalone="no"?><!DOCTYPE svg PUBLIC "-//W3C//DTD SVG 1.1//EN" "http://www.w3.org/Graphics/SVG/1.1/DTD/svg11.dtd"><svg class="icon" width="200px" height="200.00px" viewBox="0 0 1024 1024" version="1.1" xmlns="http://www.w3.org/2000/svg"><path d="M658.285714 619.739429V502.930286L527.506286 372.150857a21.942857 21.942857 0 0 0-31.012572 0L365.714286 502.930286v116.809143a7.314286 7.314286 0 0 0 12.434285 5.12l86.308572-86.235429v163.181714c0 8.045714 6.582857 14.628571 14.628571 14.628572h65.828572a14.628571 14.628571 0 0 0 14.628571-14.628572V538.624l86.308572 86.308571A7.314286 7.314286 0 0 0 658.285714 619.739429zM947.346286 251.904a14.628571 14.628571 0 0 1 3.510857 9.508571V987.428571a36.571429 36.571429 0 0 1-36.571429 36.571429h-804.571428a36.571429 36.571429 0 0 1-36.571429-36.571429V36.571429a36.571429 36.571429 0 0 1 36.571429-36.571429h614.985143a14.628571 14.628571 0 0 1 11.117714 5.12l211.529143 246.784zM168.228571 928.914286h687.542858V351.085714H615.862857a14.628571 14.628571 0 0 1-14.628571-14.628571V95.085714H168.228571v833.828572zM696.32 109.714286v146.285714h127.268571l-127.268571-146.285714z" /></svg>