<?xml version="1.0" standalone="no"?><!DOCTYPE svg PUBLIC "-//W3C//DTD SVG 1.1//EN" "http://www.w3.org/Graphics/SVG/1.1/DTD/svg11.dtd"><svg class="icon" width="200px" height="186.69px" viewBox="0 0 1097 1024" version="1.1" xmlns="http://www.w3.org/2000/svg"><path d="M753.517714 544.841143a18.285714 18.285714 0 0 0 0-25.819429L589.312 354.742857a56.612571 56.612571 0 0 0-78.628571 0L346.477714 519.021714a18.285714 18.285714 0 0 0 0.073143 25.819429l41.325714 41.325714a18.285714 18.285714 0 0 0 25.819429 0L502.491429 497.371429v272.822857c0 8.118857 6.582857 14.628571 14.628571 14.628571h65.828571a14.628571 14.628571 0 0 0 14.628572-14.628571V497.371429l88.722286 88.795428a18.285714 18.285714 0 0 0 25.892571 0l41.325714-41.325714zM738.962286 219.428571a18.285714 18.285714 0 0 1 18.285714 18.285715v58.514285a18.285714 18.285714 0 0 1-18.285714 18.285715h-384a18.285714 18.285714 0 0 1-18.285715-18.285715v-58.514285a18.285714 18.285714 0 0 1 18.285715-18.285715h384zM914.285714 0a146.285714 146.285714 0 0 1 146.285715 146.285714v731.428572a146.285714 146.285714 0 0 1-146.285715 146.285714h-731.428571a146.285714 146.285714 0 0 1-146.285714-146.285714V146.285714a146.285714 146.285714 0 0 1 146.285714-146.285714z m0 95.085714h-731.428571a51.2 51.2 0 0 0-51.2 51.2v731.428572a51.2 51.2 0 0 0 51.2 51.2h731.428571a51.2 51.2 0 0 0 51.2-51.2V146.285714a51.2 51.2 0 0 0-51.2-51.2z" /></svg>