<?xml version="1.0" standalone="no"?><!DOCTYPE svg PUBLIC "-//W3C//DTD SVG 1.1//EN" "http://www.w3.org/Graphics/SVG/1.1/DTD/svg11.dtd"><svg class="icon" width="200px" height="200.00px" viewBox="0 0 1024 1024" version="1.1" xmlns="http://www.w3.org/2000/svg"><path d="M512 109.714286A457.142857 457.142857 0 1 1 512 1024 457.142857 457.142857 0 0 1 512 109.714286z m0 95.085714a362.057143 362.057143 0 1 0 0 724.114286 362.057143 362.057143 0 0 0 0-724.114286z m29.257143 131.657143a18.285714 18.285714 0 0 1 17.773714 14.116571l0.512 4.169143V555.885714H724.114286a18.285714 18.285714 0 0 1 17.773714 14.116572l0.512 4.169143v58.514285a18.285714 18.285714 0 0 1-14.116571 17.773715L724.114286 650.971429H530.285714a65.828571 65.828571 0 0 1-65.316571-57.563429L464.457143 585.142857V354.742857a18.285714 18.285714 0 0 1 14.116571-17.773714L482.742857 336.457143h58.514286zM201.216 14.262857c19.017143 19.017143 19.017143 49.737143 0 68.754286L83.017143 201.142857a48.64 48.64 0 0 1-68.754286-68.754286L132.388571 14.262857c19.017143-19.017143 49.737143-19.017143 68.754286 0z m621.348571 0a48.64 48.64 0 0 1 62.756572-5.12l5.997714 5.12 118.272 118.198857a48.64 48.64 0 0 1-62.756571 73.874286l-5.997715-5.12-118.272-118.198857a48.64 48.64 0 0 1 0-68.754286z" /></svg>
