<svg class="icon" width="200px" height="200.00px" viewBox="0 0 1024 1024" version="1.1" xmlns="http://www.w3.org/2000/svg"><path  d="M530.064957 4.902405l402.694944 232.504037a36.203051 36.203051 0 0 1 18.064957 31.30284v486.58363c0 12.945333-6.874923 24.866742-18.064957 31.375977l-402.694944 232.4309a36.203051 36.203051 0 0 1-36.129914 0l-402.694944-232.4309A36.203051 36.203051 0 0 1 73.175142 755.292912V268.709282c0-12.945333 6.874923-24.866742 18.064957-31.30284L493.935043 4.902405a36.203051 36.203051 0 0 1 36.129914 0zM512 104.296235L168.253861 302.718209v418.638914L512 919.779096l343.746139-198.421973V302.718209L512 104.296235z m-0.219412 607.626154c32.034215 0 57.120369 24.281642 57.120369 56.096444a55.803894 55.803894 0 0 1-57.120369 56.096444 55.950169 55.950169 0 0 1-56.82782-56.096444c0-31.814802 25.451842-56.096444 56.82782-56.096444zM512 245.085877a193.814312 193.814312 0 0 1 104.001491 357.422847l-10.970621 6.509235a127.478621 127.478621 0 0 0-35.105989 26.841454 39.494237 39.494237 0 0 0-10.092971 18.796332L559.53936 658.312618a18.284369 18.284369 0 0 1-18.284369 18.28437h-58.509982A18.284369 18.284369 0 0 1 464.46064 658.312618c0-34.667164 15.06632-63.117642 33.204415-84.32751 17.991819-20.990456 40.664437-36.934426 61.654892-48.417009a98.735593 98.735593 0 1 0-141.740429-57.559194c2.998637 9.654147-0.219412 20.697906-9.142184 25.378704l-51.781334 27.280279a17.041032 17.041032 0 0 1-23.915954-8.045122A193.814312 193.814312 0 0 1 512 245.085877z" /></svg>