<?xml version="1.0" standalone="no"?><!DOCTYPE svg PUBLIC "-//W3C//DTD SVG 1.1//EN" "http://www.w3.org/Graphics/SVG/1.1/DTD/svg11.dtd"><svg class="icon" width="200px" height="200.00px" viewBox="0 0 1024 1024" version="1.1" xmlns="http://www.w3.org/2000/svg"><path d="M475.428571 73.142857a230.4 230.4 0 0 0-156.379428 399.579429A376.685714 376.685714 0 0 0 98.742857 815.542857v117.028572c0 10.093714 8.192 18.285714 18.285714 18.285714h58.514286a18.285714 18.285714 0 0 0 18.285714-18.285714v-117.028572A281.6 281.6 0 0 1 475.428571 533.942857h0.292572A230.4 230.4 0 0 0 475.428571 73.142857zM340.114286 303.542857a135.314286 135.314286 0 1 1 270.628571 0 135.314286 135.314286 0 0 1-270.628571 0zM585.142857 698.514286c0 10.093714 8.192 18.285714 18.285714 18.285714h329.142858a18.285714 18.285714 0 0 0 18.285714-18.285714v-58.514286a18.285714 18.285714 0 0 0-18.285714-18.285714h-329.142858a18.285714 18.285714 0 0 0-18.285714 18.285714v58.514286zM694.857143 932.571429c0 10.093714 8.192 18.285714 18.285714 18.285714h219.428572a18.285714 18.285714 0 0 0 18.285714-18.285714v-58.514286a18.285714 18.285714 0 0 0-18.285714-18.285714h-219.428572a18.285714 18.285714 0 0 0-18.285714 18.285714v58.514286z" /></svg>