<?xml version="1.0" standalone="no"?><!DOCTYPE svg PUBLIC "-//W3C//DTD SVG 1.1//EN" "http://www.w3.org/Graphics/SVG/1.1/DTD/svg11.dtd"><svg class="icon" width="200px" height="200.00px" viewBox="0 0 1024 1024" version="1.1" xmlns="http://www.w3.org/2000/svg"><path d="M512 512a219.428571 219.428571 0 1 0 0-438.857143 219.428571 219.428571 0 0 0 0 438.857143z m0-95.085714a124.342857 124.342857 0 1 1 0-248.685715 124.342857 124.342857 0 0 1 0 248.685715zM782.628571 725.357714a14.628571 14.628571 0 0 0 4.315429 10.386286L855.771429 804.571429v204.8c0 8.045714 6.582857 14.628571 14.628571 14.628571h65.828571a14.628571 14.628571 0 0 0 14.628572-14.628571V804.571429l68.827428-68.827429A14.628571 14.628571 0 0 0 1024 725.357714V621.714286l-47.542857-36.571429h-32.914286a14.628571 14.628571 0 0 0-14.628571 14.628572v92.306285l-25.6 25.6-25.6-25.6V599.771429a14.628571 14.628571 0 0 0-14.628572-14.628572h-32.914285l-47.542858 36.571429v103.643428zM716.8 585.142857c8.045714 0 14.628571 6.582857 14.628571 14.628572v65.828571a14.628571 14.628571 0 0 1-14.628571 14.628571H292.571429A124.342857 124.342857 0 0 0 168.228571 804.571429v124.342857h621.714286c8.045714 0 14.628571 6.582857 14.628572 14.628571v65.828572a14.628571 14.628571 0 0 1-14.628572 14.628571H73.142857v-219.428571a219.428571 219.428571 0 0 1 219.428572-219.428572h424.228571z" /></svg>