<?xml version="1.0" standalone="no"?><!DOCTYPE svg PUBLIC "-//W3C//DTD SVG 1.1//EN" "http://www.w3.org/Graphics/SVG/1.1/DTD/svg11.dtd"><svg class="icon" width="200px" height="200.00px" viewBox="0 0 1024 1024" version="1.1" xmlns="http://www.w3.org/2000/svg"><path d="M690.468571 345.380571l-212.114285 212.114286-122.368-122.441143a14.628571 14.628571 0 0 0-20.626286 0l-46.592 46.592a14.628571 14.628571 0 0 0 0 20.626286l163.766857 163.84a36.571429 36.571429 0 0 0 51.712 0l253.44-253.513143a14.628571 14.628571 0 0 0 0-20.626286l-46.592-46.592a14.628571 14.628571 0 0 0-20.699428 0zM512 1024s185.490286-67.949714 288.694857-158.500571C910.262857 769.462857 950.857143 650.459429 950.857143 559.908571V181.101714L512 0 73.142857 181.101714v378.806857c0 90.550857 40.594286 209.554286 150.162286 305.590858C326.509714 956.050286 512 1024 512 1024zM168.228571 244.736L512 102.838857l343.771429 141.897143v315.172571c0 63.634286-29.110857 156.452571-117.76 234.057143-41.545143 36.571429-104.155429 71.68-161.353143 98.962286-24.868571 11.922286-47.469714 21.650286-64.658286 28.818286a1374.134857 1374.134857 0 0 1-64.658286-28.818286c-57.197714-27.282286-119.808-62.464-161.353143-98.889143C197.339429 716.361143 168.228571 623.542857 168.228571 559.908571V244.736zM690.468571 345.380571l-212.114285 212.114286-122.368-122.441143a14.628571 14.628571 0 0 0-20.626286 0l-46.592 46.592a14.628571 14.628571 0 0 0 0 20.626286l163.766857 163.84a36.571429 36.571429 0 0 0 51.712 0l253.44-253.513143a14.628571 14.628571 0 0 0 0-20.626286l-46.592-46.592a14.628571 14.628571 0 0 0-20.699428 0zM512 1024s185.490286-67.949714 288.694857-158.500571C910.262857 769.462857 950.857143 650.459429 950.857143 559.908571V181.101714L512 0 73.142857 181.101714v378.806857c0 90.550857 40.594286 209.554286 150.162286 305.590858C326.509714 956.050286 512 1024 512 1024zM168.228571 244.736L512 102.838857l343.771429 141.897143v315.172571c0 63.634286-29.110857 156.452571-117.76 234.057143-41.545143 36.571429-104.155429 71.68-161.353143 98.962286-24.868571 11.922286-47.469714 21.650286-64.658286 28.818286a1374.134857 1374.134857 0 0 1-64.658286-28.818286c-57.197714-27.282286-119.808-62.464-161.353143-98.889143C197.339429 716.361143 168.228571 623.542857 168.228571 559.908571V244.736z" /></svg>