<?xml version="1.0" standalone="no"?><!DOCTYPE svg PUBLIC "-//W3C//DTD SVG 1.1//EN" "http://www.w3.org/Graphics/SVG/1.1/DTD/svg11.dtd"><svg class="icon" width="200px" height="200.00px" viewBox="0 0 1024 1024" version="1.1" xmlns="http://www.w3.org/2000/svg"><path d="M270.628571 548.571429a14.628571 14.628571 0 0 1-14.628571-14.628572V380.342857c0-8.045714 6.582857-14.628571 14.628571-14.628571h65.828572c8.045714 0 14.628571 6.582857 14.628571 14.628571v153.6a14.628571 14.628571 0 0 1-14.628571 14.628572h-65.828572zM490.057143 548.571429a14.628571 14.628571 0 0 1-14.628572-14.628572V380.342857c0-8.045714 6.582857-14.628571 14.628572-14.628571h65.828571c8.045714 0 14.628571 6.582857 14.628572 14.628571v153.6a14.628571 14.628571 0 0 1-14.628572 14.628572h-65.828571zM694.857143 380.342857c0-8.045714 6.582857-14.628571 14.628571-14.628571h65.828572c8.045714 0 14.628571 6.582857 14.628571 14.628571v153.6a14.628571 14.628571 0 0 1-14.628571 14.628572h-65.828572a14.628571 14.628571 0 0 1-14.628571-14.628572V380.342857zM512 960.950857a36.571429 36.571429 0 0 0 54.710857 31.744L768 877.714286H877.714286a146.285714 146.285714 0 0 0 146.285714-146.285715V182.857143a146.285714 146.285714 0 0 0-146.285714-146.285714H146.285714a146.285714 146.285714 0 0 0-146.285714 146.285714V731.428571a146.285714 146.285714 0 0 0 146.285714 146.285715h365.714286v83.236571z m230.765714-178.322286L607.085714 860.16V782.628571H146.285714a51.2 51.2 0 0 1-51.2-51.2V182.857143a51.2 51.2 0 0 1 51.2-51.2h731.428572a51.2 51.2 0 0 1 51.2 51.2V731.428571a51.2 51.2 0 0 1-51.2 51.2h-134.948572z" /></svg>