<?xml version="1.0" standalone="no"?><!DOCTYPE svg PUBLIC "-//W3C//DTD SVG 1.1//EN" "http://www.w3.org/Graphics/SVG/1.1/DTD/svg11.dtd"><svg class="icon" width="200px" height="200.00px" viewBox="0 0 1024 1024" version="1.1" xmlns="http://www.w3.org/2000/svg"><path d="M731.428571 365.714286a73.142857 73.142857 0 1 0 0-146.285715 73.142857 73.142857 0 0 0 0 146.285715zM1009.371429 0c8.045714 0 14.628571 6.582857 14.628571 14.628571v87.625143c-12.068571 205.385143-131.803429 396.434286-314.660571 502.345143l-8.118858 235.958857L460.8 977.408a620.470857 620.470857 0 0 0-63.926857-143.140571l-26.697143 26.624a482.523429 482.523429 0 0 1-214.235429 124.342857l-132.388571 32.914285a14.628571 14.628571 0 0 1-17.700571-17.700571l32.914285-132.388571a482.596571 482.596571 0 0 1 124.342857-214.308572l26.624-26.624A619.300571 619.300571 0 0 0 46.592 563.2l136.777143-240.420571 236.032-8.118858C525.165714 131.803429 716.361143 12.068571 921.746286 0H1009.371429zM267.922286 683.593143l-37.522286 37.522286a387.364571 387.364571 0 0 0-99.474286 171.008l-0.438857 1.389714 1.462857-0.365714A387.364571 387.364571 0 0 0 302.811429 793.6l37.522285-37.522286a620.982857 620.982857 0 0 0-72.411428-72.484571z m660.845714-588.361143h-4.096c-171.446857 10.971429-333.019429 111.835429-422.912 267.117714l-26.331429 45.641143-235.52 8.045714-56.466285 99.181715a715.629714 715.629714 0 0 1 325.339428 325.339428l99.108572-56.393143 8.118857-235.52 45.641143-26.404571c155.282286-89.965714 256.146286-251.465143 267.117714-422.912v-4.096z" /></svg>