<svg class="icon" width="200px" height="200.00px" viewBox="0 0 1024 1024" version="1.1" xmlns="http://www.w3.org/2000/svg"><path  d="M786.285714 73.142857a18.285714 18.285714 0 0 1 18.285715 18.285714v841.142858a18.285714 18.285714 0 0 1-18.285715 18.285714h-548.571428a18.285714 18.285714 0 0 1-18.285715-18.285714V91.428571A18.285714 18.285714 0 0 1 237.714286 73.142857h548.571428zM709.485714 168.228571H314.514286v687.542858h394.971428V168.228571zM80.457143 292.571429a14.628571 14.628571 0 0 1 14.116571 10.752L95.085714 307.2v431.542857a14.628571 14.628571 0 0 1-10.752 14.116572L80.457143 753.371429H14.628571a14.628571 14.628571 0 0 1-14.116571-10.752L0 738.742857V307.2a14.628571 14.628571 0 0 1 10.752-14.116571L14.628571 292.571429h65.828572z m928.914286 0a14.628571 14.628571 0 0 1 14.116571 10.752L1024 307.2v431.542857a14.628571 14.628571 0 0 1-10.752 14.116572l-3.876571 0.512h-65.828572a14.628571 14.628571 0 0 1-14.116571-10.752L928.914286 738.742857V307.2a14.628571 14.628571 0 0 1 10.752-14.116571L943.542857 292.571429h65.828572z" /></svg>