<?xml version="1.0" standalone="no"?><!DOCTYPE svg PUBLIC "-//W3C//DTD SVG 1.1//EN" "http://www.w3.org/Graphics/SVG/1.1/DTD/svg11.dtd"><svg class="icon" width="200px" height="200.00px" viewBox="0 0 1024 1024" version="1.1" xmlns="http://www.w3.org/2000/svg"><path d="M453.485714 402.285714a14.628571 14.628571 0 0 0-14.628571 14.628572v65.828571c0 8.045714 6.582857 14.628571 14.628571 14.628572h117.028572a14.628571 14.628571 0 0 0 14.628571-14.628572v-65.828571a14.628571 14.628571 0 0 0-14.628571-14.628572H453.485714zM454.948571 157.257143H0V62.171429h454.948571a120.685714 120.685714 0 0 1 117.028572 91.428571l16.457143 65.828571H768a36.571429 36.571429 0 0 1 36.571429 36.571429v155.428571l169.984-63.780571a36.571429 36.571429 0 0 1 49.444571 34.230857v479.597714a36.571429 36.571429 0 0 1-49.444571 34.304L804.571429 832V914.285714a36.571429 36.571429 0 0 1-36.571429 36.571429H36.571429a36.571429 36.571429 0 0 1-36.571429-36.571429v-658.285714A36.571429 36.571429 0 0 1 36.571429 219.428571h453.851428l-10.678857-42.788571a25.6 25.6 0 0 0-24.868571-19.382857zM95.085714 855.771429h614.4V314.514286H95.085714v541.257143zM804.571429 730.477714l124.342857 46.592V466.358857l-124.342857 46.592v217.526857zM453.485714 402.285714a14.628571 14.628571 0 0 0-14.628571 14.628572v65.828571c0 8.045714 6.582857 14.628571 14.628571 14.628572h117.028572a14.628571 14.628571 0 0 0 14.628571-14.628572v-65.828571a14.628571 14.628571 0 0 0-14.628571-14.628572H453.485714zM454.948571 157.257143H0V62.171429h454.948571a120.685714 120.685714 0 0 1 117.028572 91.428571l16.457143 65.828571H768a36.571429 36.571429 0 0 1 36.571429 36.571429v155.428571l169.984-63.780571a36.571429 36.571429 0 0 1 49.444571 34.230857v479.597714a36.571429 36.571429 0 0 1-49.444571 34.304L804.571429 832V914.285714a36.571429 36.571429 0 0 1-36.571429 36.571429H36.571429a36.571429 36.571429 0 0 1-36.571429-36.571429v-658.285714A36.571429 36.571429 0 0 1 36.571429 219.428571h453.851428l-10.678857-42.788571a25.6 25.6 0 0 0-24.868571-19.382857zM95.085714 855.771429h614.4V314.514286H95.085714v541.257143zM804.571429 730.477714l124.342857 46.592V466.358857l-124.342857 46.592v217.526857z" /></svg>