<?xml version="1.0" standalone="no"?><!DOCTYPE svg PUBLIC "-//W3C//DTD SVG 1.1//EN" "http://www.w3.org/Graphics/SVG/1.1/DTD/svg11.dtd"><svg class="icon" width="200px" height="200.00px" viewBox="0 0 1024 1024" version="1.1" xmlns="http://www.w3.org/2000/svg"><path d="M422.985143 292.571429c10.386286 0 20.553143 2.852571 29.476571 8.192l268.434286 161.060571a58.514286 58.514286 0 0 1 0 100.352l-268.434286 161.060571A57.270857 57.270857 0 0 1 365.714286 674.157714V349.842286C365.714286 318.244571 391.314286 292.571429 422.985143 292.571429zM460.8 416.621714v190.756572L619.739429 512 460.8 416.621714zM36.571429 73.142857a36.571429 36.571429 0 0 0-36.571429 36.571429v804.571428a36.571429 36.571429 0 0 0 36.571429 36.571429h950.857142a36.571429 36.571429 0 0 0 36.571429-36.571429v-804.571428a36.571429 36.571429 0 0 0-36.571429-36.571429H36.571429z m892.342857 782.628572H95.085714V168.228571h833.828572v687.542858z" /></svg>