<?xml version="1.0" standalone="no"?><!DOCTYPE svg PUBLIC "-//W3C//DTD SVG 1.1//EN" "http://www.w3.org/Graphics/SVG/1.1/DTD/svg11.dtd"><svg class="icon" width="200px" height="200.00px" viewBox="0 0 1024 1024" version="1.1" xmlns="http://www.w3.org/2000/svg"><path d="M219.428571 972.8a157.257143 157.257143 0 0 1-157.257142-157.257143v-658.285714A157.257143 157.257143 0 0 1 219.428571 0h585.142858a157.257143 157.257143 0 0 1 157.257142 157.257143v351.085714a25.6 25.6 0 0 1-25.6 25.6h-43.885714a25.6 25.6 0 0 1-25.6-25.6v-351.085714A62.171429 62.171429 0 0 0 804.571429 95.085714H219.428571a62.171429 62.171429 0 0 0-62.171428 62.171429v658.285714c0 34.377143 27.794286 62.171429 62.171428 62.171429h277.942858a25.6 25.6 0 0 1 25.6 25.6v43.885714a25.6 25.6 0 0 1-25.6 25.6H219.428571zM987.428571 951.881143a14.628571 14.628571 0 0 0 0-20.699429l-87.186285-87.186285a182.857143 182.857143 0 1 0-67.291429 67.291428l87.259429 87.113143a14.628571 14.628571 0 0 0 20.699428 0l46.518857-46.518857z m-157.915428-199.168a87.771429 87.771429 0 1 1-175.542857 0 87.771429 87.771429 0 0 1 175.542857 0zM292.571429 318.171429c0-8.045714 6.582857-14.628571 14.628571-14.628572h409.6c8.045714 0 14.628571 6.582857 14.628571 14.628572v65.828571a14.628571 14.628571 0 0 1-14.628571 14.628571H307.2a14.628571 14.628571 0 0 1-14.628571-14.628571v-65.828571zM307.2 522.971429a14.628571 14.628571 0 0 0-14.628571 14.628571v65.828571c0 8.045714 6.582857 14.628571 14.628571 14.628572h117.028571a14.628571 14.628571 0 0 0 14.628572-14.628572v-65.828571a14.628571 14.628571 0 0 0-14.628572-14.628571H307.2zM219.428571 972.8a157.257143 157.257143 0 0 1-157.257142-157.257143v-658.285714A157.257143 157.257143 0 0 1 219.428571 0h585.142858a157.257143 157.257143 0 0 1 157.257142 157.257143v351.085714a25.6 25.6 0 0 1-25.6 25.6h-43.885714a25.6 25.6 0 0 1-25.6-25.6v-351.085714A62.171429 62.171429 0 0 0 804.571429 95.085714H219.428571a62.171429 62.171429 0 0 0-62.171428 62.171429v658.285714c0 34.377143 27.794286 62.171429 62.171428 62.171429h277.942858a25.6 25.6 0 0 1 25.6 25.6v43.885714a25.6 25.6 0 0 1-25.6 25.6H219.428571zM987.428571 951.881143a14.628571 14.628571 0 0 0 0-20.699429l-87.186285-87.186285a182.857143 182.857143 0 1 0-67.291429 67.291428l87.259429 87.113143a14.628571 14.628571 0 0 0 20.699428 0l46.518857-46.518857z m-157.915428-199.168a87.771429 87.771429 0 1 1-175.542857 0 87.771429 87.771429 0 0 1 175.542857 0zM292.571429 318.171429c0-8.045714 6.582857-14.628571 14.628571-14.628572h409.6c8.045714 0 14.628571 6.582857 14.628571 14.628572v65.828571a14.628571 14.628571 0 0 1-14.628571 14.628571H307.2a14.628571 14.628571 0 0 1-14.628571-14.628571v-65.828571zM307.2 522.971429a14.628571 14.628571 0 0 0-14.628571 14.628571v65.828571c0 8.045714 6.582857 14.628571 14.628571 14.628572h117.028571a14.628571 14.628571 0 0 0 14.628572-14.628572v-65.828571a14.628571 14.628571 0 0 0-14.628572-14.628571H307.2z" /></svg>