<?xml version="1.0" standalone="no"?><!DOCTYPE svg PUBLIC "-//W3C//DTD SVG 1.1//EN" "http://www.w3.org/Graphics/SVG/1.1/DTD/svg11.dtd"><svg class="icon" width="200px" height="200.00px" viewBox="0 0 1024 1024" version="1.1" xmlns="http://www.w3.org/2000/svg"><path d="M899.657143 73.142857l8.411428 0.731429a51.053714 51.053714 0 0 1 15.286858 4.973714l6.729142 4.242286 5.997715 5.12 5.12 5.997714a51.419429 51.419429 0 0 1 7.314285 14.116571l1.974858 7.899429 0.658285 8.338286v354.889143l-0.731428 4.900571a18.432 18.432 0 0 1-12.8 12.8l-4.827429 0.731429h-58.806857l-4.827429-0.731429a18.285714 18.285714 0 0 1-5.705142-2.633143l-2.413715-2.048-2.925714-3.657143-1.024-2.194285-0.731429-2.194286-0.731428-4.973714 0.146286-243.419429-493.714286 493.714286-0.804572 0.512-142.043428 142.116571-3.364572 2.633143-4.461714 1.974857-4.754286 0.731429a18.432 18.432 0 0 1-9.362285-2.340572l-4.022857-2.998857-41.545143-41.618286-3.072-4.022857a18.432 18.432 0 0 1-1.609143-14.116571l2.048-4.461714 2.633143-3.364572 636.489143-636.123428H545.133714l-4.827428-0.731429a18.285714 18.285714 0 0 1-5.705143-2.633143l-2.413714-2.048-2.925715-3.657143a18.285714 18.285714 0 0 1-2.194285-5.997714l-0.292572-3.364571v-58.733715l0.292572-3.291428 0.877714-3.145143 1.389714-2.852572 2.852572-3.657142 3.657142-2.925715a18.285714 18.285714 0 0 1 5.997715-2.194285L545.133714 73.142857h354.596572z" /></svg>