<svg class="icon" width="200px" height="200.00px" viewBox="0 0 1024 1024" version="1.1" xmlns="http://www.w3.org/2000/svg"><path  d="M512 73.142857a438.857143 438.857143 0 0 1 438.857143 438.857143v146.285714h36.571428a36.571429 36.571429 0 0 1 36.571429 36.571429v241.371428a14.628571 14.628571 0 0 1-10.752 14.116572L1009.371429 950.857143h-65.828572a14.628571 14.628571 0 0 1-14.628571-14.628572v-182.857142h-36.571429a36.571429 36.571429 0 0 1-36.571428-36.571429V512a343.771429 343.771429 0 1 0-687.542858 0v204.8a36.571429 36.571429 0 0 1-29.988571 35.986286l-6.582857 0.585143h-36.571429v182.857142a14.628571 14.628571 0 0 1-10.752 14.116572L80.457143 950.857143H14.628571a14.628571 14.628571 0 0 1-14.628571-14.628572V694.857143A36.571429 36.571429 0 0 1 36.571429 658.285714H73.142857V512a438.857143 438.857143 0 0 1 438.857143-438.857143z m0 219.428572a219.428571 219.428571 0 0 1 219.428571 219.428571v292.571429h58.514286c8.045714 0 14.628571 6.582857 14.628572 14.628571v65.828571a14.628571 14.628571 0 0 1-10.752 14.116572l-3.876572 0.512H234.057143a14.628571 14.628571 0 0 1-14.628572-14.628572v-65.828571c0-8.045714 6.582857-14.628571 14.628572-14.628571H292.571429V512a219.428571 219.428571 0 0 1 219.428571-219.428571z m0 95.085714A124.342857 124.342857 0 0 0 387.657143 512v292.571429h248.685714V512a124.342857 124.342857 0 0 0-113.590857-123.904L512 387.657143z m61.001143 101.229714a7.314286 7.314286 0 0 1 6.875428 9.947429l-43.52 113.225143h35.620572a7.314286 7.314286 0 0 1 6.217143 11.190857L504.685714 741.449143a7.314286 7.314286 0 0 1-3.803428 2.998857l-2.413715 0.438857h-12.946285a7.314286 7.314286 0 0 1-6.948572-9.581714L503.954286 658.285714h-55.149715a7.314286 7.314286 0 0 1-7.021714-9.435428l46.665143-154.770286a7.314286 7.314286 0 0 1 7.021714-5.12h77.604572z" /></svg>