<svg class="icon" width="200px" height="200.00px" viewBox="0 0 1024 1024" version="1.1" xmlns="http://www.w3.org/2000/svg"><path  d="M833.775567 464.427619a18.284552 18.284552 0 0 1 17.772585 14.115674l0.511967 4.168877v34.374958a219.560899 219.560899 0 0 1 171.435959 200.691242L1023.934907 731.382076v201.130071a18.284552 18.284552 0 0 1-14.115674 17.772585L1005.650355 950.796699h-153.590236v25.598373a47.539835 47.539835 0 0 1-94.567702 7.021268l-0.511968-7.021268V950.796699h-153.590236l-4.168878-0.511967a18.284552 18.284552 0 0 1-13.45743-12.799186L585.105661 932.512147V731.382076c0-100.345621 67.287151-184.893389 159.221878-211.076867l12.65291-3.218081V482.71217a18.284552 18.284552 0 0 1 14.115674-17.772584l4.168878-0.511967h58.510566z m-365.691038 391.28941a18.284552 18.284552 0 0 1 18.284552 18.284552v58.510566a18.284552 18.284552 0 0 1-14.115674 17.772585L468.084529 950.796699H91.42276a18.284552 18.284552 0 0 1-18.284552-18.284552v-58.510566a18.284552 18.284552 0 0 1 18.284552-18.284552H468.084529zM804.520284 607.047123A124.334953 124.334953 0 0 0 680.185331 731.382076v124.334953h248.669906V731.382076a124.334953 124.334953 0 0 0-113.583636-123.896123L804.520284 607.047123zM376.661769 373.004859v73.138208H614.360944a18.284552 18.284552 0 0 1 18.284552 18.284552v13.530568a19.015934 19.015934 0 0 1-7.460097 14.920194c-15.870991 12.287219-30.425494 26.256617-43.444095 41.542502a19.235349 19.235349 0 0 1-10.312488 6.289886l-4.095739 0.438829H376.661769v62.167477l-47.539835 47.539835-47.539835-47.539835V541.222737h-190.159339A18.284552 18.284552 0 0 1 73.138208 522.938185v-58.510566a18.284552 18.284552 0 0 1 18.284552-18.284552h190.159339v-73.138208h95.07967z m555.850378-299.866651a18.284552 18.284552 0 0 1 18.284552 18.284552v58.510566a18.284552 18.284552 0 0 1-14.115674 17.772584l-4.168878 0.511968H91.42276A18.284552 18.284552 0 0 1 73.138208 149.933326v-58.510566A18.284552 18.284552 0 0 1 91.42276 73.138208h841.089387z" /></svg>