<svg class="icon" width="200px" height="200.00px" viewBox="0 0 1024 1024" version="1.1" xmlns="http://www.w3.org/2000/svg"><path  d="M414.72 73.142857c212.992 0 404.699429 136.192 414.354286 326.217143l0.365714 15.140571-0.146286 9.142858C941.202286 467.675429 1024 561.005714 1024 678.765714c0 43.885714-11.995429 85.065143-32.914286 121.417143l-8.192 13.458286 21.430857 108.251428a50.761143 50.761143 0 0 1-46.08 60.489143h-6.729142a49.883429 49.883429 0 0 1-13.458286-2.779428l-6.656-2.925715-91.209143-47.030857a396.434286 396.434286 0 0 1-136.484571 31.158857l-21.065143 0.512c-150.381714 0-290.304-83.602286-330.093715-209.334857a480.987429 480.987429 0 0 1-114.102857-28.306285l-21.065143-8.777143-119.003428 61.44a52.516571 52.516571 0 0 1-13.604572 4.900571l-6.875428 0.877714H71.168a51.565714 51.565714 0 0 1-47.689143-54.052571l0.950857-7.314286 27.648-140.141714A295.204571 295.204571 0 0 1 0 414.500571C0 216.502857 196.169143 73.142857 414.72 73.142857z m267.922286 418.377143c-146.285714 0-245.906286 93.257143-245.906286 187.245714 0 93.988571 99.620571 187.172571 245.906286 187.172572 44.617143 0 86.162286-9.142857 121.856-24.868572l14.921143-7.021714 21.869714-11.264 51.419428 26.550857-11.629714-58.733714 13.385143-17.188572c22.235429-28.525714 34.084571-60.928 34.084571-94.646857 0-93.988571-99.620571-187.245714-245.906285-187.245714zM590.994286 576a51.419429 51.419429 0 0 1 6.948571 102.253714l-6.948571 0.512a51.419429 51.419429 0 1 1 0-102.765714z m190.902857 0a51.419429 51.419429 0 0 1 6.875428 102.253714l-6.948571 0.512a51.419429 51.419429 0 1 1 0-102.765714zM414.72 168.594286c-186.806857 0-319.268571 119.442286-319.268571 245.906285 0 45.129143 15.945143 88.137143 45.129142 125.659429l13.385143 17.188571-18.285714 92.306286 80.822857-41.691428 21.869714 11.264c31.158857 16.018286 66.340571 28.013714 104.228572 34.816 15.286857-152.283429 171.008-257.901714 340.114286-257.901715 17.042286 0 34.011429 1.097143 50.688 3.145143C723.382857 278.674286 594.066286 168.594286 414.72 168.594286zM267.922286 282.331429a51.419429 51.419429 0 0 1 6.948571 102.326857l-6.948571 0.438857a51.419429 51.419429 0 1 1 0-102.765714z m271.579428 0a51.419429 51.419429 0 0 1 7.021715 102.326857l-7.021715 0.438857a51.419429 51.419429 0 1 1 0-102.765714z" /></svg>