<svg class="icon" width="200px" height="200.00px" viewBox="0 0 1024 1024" version="1.1" xmlns="http://www.w3.org/2000/svg"><path  d="M512 804.571429a73.142857 73.142857 0 0 1 8.557714 145.773714L512 950.857143a73.142857 73.142857 0 1 1 0-146.285714z m0-219.428572c74.24 0 144.822857 15.798857 208.457143 44.251429a14.189714 14.189714 0 0 1 7.314286 18.139428l-2.194286 3.876572-43.373714 53.394285a14.628571 14.628571 0 0 1-6.070858 4.388572l-3.657142 0.950857h-3.657143l-3.803429-0.950857a414.939429 414.939429 0 0 0-130.048-28.306286L512 680.228571l-22.966857 0.658286a415.451429 415.451429 0 0 0-109.494857 20.845714l-20.553143 7.460572-3.730286 0.950857h-3.730286a14.848 14.848 0 0 1-6.948571-2.706286l-2.779429-2.633143-43.373714-53.394285a14.262857 14.262857 0 0 1 5.12-22.016A510.171429 510.171429 0 0 1 512 585.142857zM422.765714 371.126857A14.409143 14.409143 0 0 1 438.857143 385.462857v66.413714a14.848 14.848 0 0 1-12.946286 14.628572 631.954286 631.954286 0 0 0-208.384 66.413714l-3.876571 1.389714-4.022857 0.292572a14.701714 14.701714 0 0 1-10.532572-5.412572l-42.349714-52.150857a14.336 14.336 0 0 1 4.096-21.723428A726.528 726.528 0 0 1 422.765714 371.126857z m178.468572 0l28.013714 3.949714A726.308571 726.308571 0 0 1 863.085714 455.314286c6.582857 3.657143 8.996571 11.483429 6.363429 17.993143l-2.194286 3.730285-42.422857 52.150857a14.628571 14.628571 0 0 1-6.582857 4.608l-3.876572 0.731429a14.994286 14.994286 0 0 1-7.899428-1.609143 631.954286 631.954286 0 0 0-208.384-66.340571 14.994286 14.994286 0 0 1-12.288-10.386286L585.142857 451.876571V385.462857c0-7.168 5.12-13.165714 11.922286-14.262857l4.169143-0.073143zM513.828571 438.857143a45.714286 45.714286 0 0 1 6.729143 90.916571l-6.729143 0.512h-3.657142a45.714286 45.714286 0 1 1 0-91.428571h3.657142z m31.085715-365.714286a14.628571 14.628571 0 0 1 14.116571 10.752l0.512 3.876572v299.885714a14.628571 14.628571 0 0 1-10.752 14.116571L544.914286 402.285714h-65.828572a14.628571 14.628571 0 0 1-14.116571-10.752L464.457143 387.657143V87.771429a14.628571 14.628571 0 0 1 10.752-14.116572L479.085714 73.142857h65.828572zM423.131429 150.381714A14.482286 14.482286 0 0 1 438.857143 164.864v66.121143c0 7.606857-5.851429 13.897143-13.385143 14.701714-126.025143 12.653714-243.931429 52.662857-347.794286 113.956572l-3.949714 1.609142-4.169143 0.438858a14.628571 14.628571 0 0 1-10.971428-5.412572l-41.910858-51.638857a14.409143 14.409143 0 0 1 3.657143-21.504 945.005714 945.005714 0 0 1 402.797715-132.754286z m177.737142 0l31.232 3.437715c134.656 16.969143 260.608 62.098286 371.565715 129.316571a14.409143 14.409143 0 0 1 5.851428 17.846857l-2.194285 3.657143-41.984 51.638857a14.628571 14.628571 0 0 1-6.875429 4.681143l-4.022857 0.731429a14.921143 14.921143 0 0 1-8.045714-2.048 850.358857 850.358857 0 0 0-347.867429-113.956572 14.848 14.848 0 0 1-12.726857-10.24L585.142857 230.985143v-66.194286c0-7.094857 5.046857-12.946286 11.629714-14.262857l4.096-0.219429z" /></svg>