<?xml version="1.0" standalone="no"?><!DOCTYPE svg PUBLIC "-//W3C//DTD SVG 1.1//EN" "http://www.w3.org/Graphics/SVG/1.1/DTD/svg11.dtd"><svg class="icon" width="200px" height="200.00px" viewBox="0 0 1024 1024" version="1.1" xmlns="http://www.w3.org/2000/svg"><path d="M987.428571 146.285714H731.428571v-36.571428A109.714286 109.714286 0 0 0 621.714286 0h-219.428572A109.714286 109.714286 0 0 0 292.571429 109.714286V146.285714H36.571429a36.571429 36.571429 0 0 0-36.571429 36.571429v731.428571a36.571429 36.571429 0 0 0 36.571429 36.571429h950.857142a36.571429 36.571429 0 0 0 36.571429-36.571429v-731.428571a36.571429 36.571429 0 0 0-36.571429-36.571429zM292.571429 241.371429v80.457142c0 8.045714 6.582857 14.628571 14.628571 14.628572h409.6a14.628571 14.628571 0 0 0 14.628571-14.628572V241.371429h197.485715V438.857143H95.085714V241.371429H292.571429z m95.085714 0V109.714286c0-8.045714 6.582857-14.628571 14.628571-14.628572h219.428572c8.045714 0 14.628571 6.582857 14.628571 14.628572v131.657143H387.657143z m-292.571429 614.4V533.942857h833.828572v321.828572H95.085714zM987.428571 146.285714H731.428571v-36.571428A109.714286 109.714286 0 0 0 621.714286 0h-219.428572A109.714286 109.714286 0 0 0 292.571429 109.714286V146.285714H36.571429a36.571429 36.571429 0 0 0-36.571429 36.571429v731.428571a36.571429 36.571429 0 0 0 36.571429 36.571429h950.857142a36.571429 36.571429 0 0 0 36.571429-36.571429v-731.428571a36.571429 36.571429 0 0 0-36.571429-36.571429zM292.571429 241.371429v80.457142c0 8.045714 6.582857 14.628571 14.628571 14.628572h409.6a14.628571 14.628571 0 0 0 14.628571-14.628572V241.371429h197.485715V438.857143H95.085714V241.371429H292.571429z m95.085714 0V109.714286c0-8.045714 6.582857-14.628571 14.628571-14.628572h219.428572c8.045714 0 14.628571 6.582857 14.628571 14.628572v131.657143H387.657143z m-292.571429 614.4V533.942857h833.828572v321.828572H95.085714z" /></svg>