<?xml version="1.0" encoding="UTF-8"?>
<svg width="185px" height="33px" viewBox="0 0 185 33" version="1.1" xmlns="http://www.w3.org/2000/svg" xmlns:xlink="http://www.w3.org/1999/xlink">
    <title>编组 56备份</title>
    <g id="系统图标" stroke="none" stroke-width="1" fill="none" fill-rule="evenodd">
        <g id="编组-55" transform="translate(-0, 0.9322)">
            <g id="编组-53备份">
                <path d="M45.9489249,2.96769715 L51.0719886,2.891707 L51.0719886,2.891707 L50.7836723,22.3292606 C50.721904,26.4935213 47.3610599,29.8543654 43.1967993,29.9161336 C39.1886247,29.9755867 35.891161,26.7745155 35.831708,22.7663409 C35.8306435,22.6945787 35.8306435,22.6228046 35.831708,22.5510424 L35.9742326,12.9423894 C36.0554413,7.46750949 40.474045,3.04890577 45.9489249,2.96769715 Z" id="矩形备份-109" fill="#3275FA" transform="translate(43.3964, 16.4594) scale(-1, 1) rotate(-315) translate(-43.3964, -16.4594)"></path>
                <path d="M17.5737643,1.52957362 L22.696828,1.45358347 L22.696828,1.45358347 L22.4085117,20.8911371 C22.3467434,25.0553978 18.9858993,28.4162418 14.8216387,28.4780101 C10.8134641,28.5374632 7.51600043,25.3363919 7.45654738,21.3282174 C7.45548293,21.2564552 7.45548293,21.1846811 7.45654738,21.1129188 L7.59907205,11.5042659 C7.68028067,6.02938596 12.0988844,1.61078225 17.5737643,1.52957362 Z" id="矩形" fill="#3275FA" transform="translate(15.0212, 15.0212) rotate(-315) translate(-15.0212, -15.0212)"></path>
                <path d="M46.0038014,8.58317945 L53.657515,15.9485534 C50.6990864,14.588041 47.091114,15.1038677 44.6254406,17.4974638 L38.8232226,23.1300696 L38.8441989,23.1494602 L37.8338811,24.1315636 C33.9053773,27.9471012 27.6551932,27.9478681 23.7257532,24.1332947 L20.0511989,20.566156 L31.79928,8.7423393 C35.6965239,4.81997127 42.0196477,4.74912148 46.0038014,8.58317945 Z" id="形状结合" fill="#4DE7FF"></path>
            </g>
            <g id="Antd-MS" transform="translate(72.2328, 4.3515)" fill="#30363E" fill-rule="nonzero">
                <path d="M11.6590932,16.6025487 L5.36984519,16.6025487 L4.06402676,20.7864975 L0,20.7864975 L6.54241685,1.3857665 L10.5264955,1.3857665 L17.042263,20.7864975 L12.9782363,20.7864975 L11.6590932,16.6025487 Z M6.329222,13.5511974 L10.713041,13.5511974 L8.56776789,6.71563766 L8.48781982,6.71563766 L6.329222,13.5511974 Z" id="形状"></path>
                <path d="M22.5326795,6.36919603 L22.7059003,8.43452111 C23.1855887,7.69722227 23.7763161,7.12426112 24.4780825,6.71563766 C25.1798488,6.3070142 25.9660048,6.10270248 26.8365504,6.10270248 C28.2933819,6.10270248 29.4304211,6.57128698 30.247668,7.50845599 C31.0649149,8.44562501 31.4735384,9.92688503 31.4735384,11.9522361 L31.4735384,20.7864975 L27.5694077,20.7864975 L27.5694077,11.9655608 C27.5694077,10.935119 27.3895246,10.2044825 27.0297583,9.77365124 C26.669992,9.34281999 26.1303425,9.12740436 25.4108099,9.12740436 C24.8334072,9.12740436 24.3248487,9.23622256 23.8851343,9.45385897 C23.4454199,9.67149537 23.0834328,9.97130063 22.799173,10.3532747 L22.799173,20.7864975 L18.9083671,20.7864975 L18.9083671,6.36919603 L22.5326795,6.36919603 Z" id="路径"></path>
                <path d="M40.0419554,2.83815639 L40.0419554,6.36919603 L42.4803715,6.36919603 L42.4803715,9.100755 L40.0419554,9.100755 L40.0419554,16.4426525 C40.0419554,17.002289 40.1596567,17.4020293 40.3950594,17.6418735 C40.630462,17.8817177 40.9391504,18.0016398 41.3211245,18.0016398 C41.5254362,18.0016398 41.7030986,17.9905359 41.8541116,17.9683281 C42.0051246,17.9461203 42.1783454,17.9083671 42.373774,17.8550684 L42.6935663,20.6665754 C42.3027091,20.7998222 41.9229558,20.8997573 41.5543063,20.9663807 C41.1856569,21.0330041 40.7836958,21.0663158 40.348423,21.0663158 C39.0070721,21.0663158 37.9744095,20.6976663 37.2504354,19.9603675 C36.5264612,19.2230686 36.1644741,18.0549386 36.1644741,16.4559772 L36.1644741,9.100755 L34.059175,9.100755 L34.059175,6.36919603 L36.1644741,6.36919603 L36.1644741,2.83815639 L40.0419554,2.83815639 Z" id="路径"></path>
                <path d="M45.279203,13.6977689 C45.279203,11.4236905 45.7699953,9.58932653 46.7515799,8.19467691 C47.7331645,6.80002729 49.1167102,6.10270248 50.902217,6.10270248 C51.6217496,6.10270248 52.2702173,6.25815705 52.84762,6.5690662 C53.4250227,6.87997535 53.9313605,7.32413128 54.3666333,7.90153399 L54.3666333,0 L58.2707639,0 L58.2707639,20.7864975 L54.9529191,20.7864975 L54.6198022,19.0143154 C54.1667631,19.6805493 53.6293344,20.1891078 53.0075161,20.539991 C52.3856978,20.8908742 51.6750484,21.0663158 50.8755677,21.0663158 C49.1078271,21.0663158 47.7331645,20.4178481 46.7515799,19.1209128 C45.7699953,17.8239775 45.279203,16.1095356 45.279203,13.9775871 L45.279203,13.6977689 Z M49.1566842,13.9775871 C49.1566842,15.23899 49.3698791,16.2316785 49.7962688,16.9556526 C50.2226585,17.6796268 50.9155417,18.0416139 51.8749185,18.0416139 C52.434555,18.0416139 52.9231265,17.9283541 53.3406331,17.7018346 C53.7581397,17.4753151 54.1001397,17.1444189 54.3666333,16.7091461 L54.3666333,10.5664696 C54.1001397,10.1134305 53.7603604,9.76032656 53.3472954,9.50715768 C52.9342304,9.2539888 52.4523212,9.12740436 51.9015679,9.12740436 C50.9510742,9.12740436 50.2559702,9.54935249 49.8162558,10.3932488 C49.3765414,11.237145 49.1566842,12.3386517 49.1566842,13.6977689 L49.1566842,13.9775871 Z" id="形状"></path>
                <polygon id="路径" points="70.5834155 13.9909118 62.7351802 13.9909118 62.7351802 10.9928593 70.5834155 10.9928593"></polygon>
                <polygon id="路径" points="84.4943792 15.6831459 84.5743272 15.6831459 89.5577568 1.3857665 94.6344591 1.3857665 94.6344591 20.7864975 90.7436531 20.7864975 90.7436531 7.54176769 90.663705 7.52844301 85.866821 20.7864975 83.2285348 20.7864975 78.4316507 7.50179366 78.3517027 7.51511833 78.3517027 20.7864975 74.4608967 20.7864975 74.4608967 1.3857665 79.5642484 1.3857665"></polygon>
                <path d="M108.318903,15.7231199 C108.318903,14.976938 108.059072,14.3773275 107.53941,13.9242884 C107.019747,13.4712494 106.107007,13.0448597 104.801188,12.6451193 C102.562642,11.9700023 100.863746,11.1749632 99.704499,10.260002 C98.545252,9.34504077 97.9656285,8.0969626 97.9656285,6.51576749 C97.9656285,4.92568926 98.6185377,3.62653317 99.9243562,2.61829921 C101.230175,1.61006525 102.895759,1.10594827 104.92111,1.10594827 C107.070825,1.10594827 108.800812,1.6478185 110.111072,2.73155897 C111.421332,3.81529944 112.054255,5.23659841 112.009839,6.9954559 L111.98319,7.07540396 L108.212306,7.07540396 C108.212306,6.10714404 107.919163,5.36318285 107.332877,4.84352042 C106.746591,4.32385798 105.924903,4.06402676 104.867812,4.06402676 C103.908435,4.06402676 103.166694,4.29498784 102.64259,4.75691001 C102.118486,5.21883218 101.856434,5.80955956 101.856434,6.52909217 C101.856434,7.18644295 102.140694,7.7260924 102.709214,8.14804053 C103.277733,8.56998867 104.259318,9.01636538 105.653968,9.48717066 C107.785916,10.0912227 109.411527,10.8795995 110.5308,11.852301 C111.650073,12.8250025 112.209709,14.1063923 112.209709,15.6964706 C112.209709,17.3576137 111.561242,18.6678737 110.264306,19.6272505 C108.967371,20.5866274 107.252929,21.0663158 105.120981,21.0663158 C103.033448,21.0663158 101.241279,20.5466533 99.744473,19.5073284 C98.2476675,18.4680036 97.5214726,16.9178994 97.5658882,14.8570159 L97.5925375,14.7770678 L101.363421,14.7770678 C101.363421,15.9229901 101.70098,16.7668864 102.376097,17.3087566 C103.051214,17.8506268 103.966175,18.1215619 105.120981,18.1215619 C106.160305,18.1215619 106.953124,17.9039255 107.499436,17.4686527 C108.045747,17.0333799 108.318903,16.4515356 108.318903,15.7231199 Z" id="路径"></path>
            </g>
        </g>
    </g>
</svg>