<?xml version="1.0" standalone="no"?><!DOCTYPE svg PUBLIC "-//W3C//DTD SVG 1.1//EN" "http://www.w3.org/Graphics/SVG/1.1/DTD/svg11.dtd"><svg t="1739258557645" class="icon" viewBox="0 0 1024 1024" version="1.1" xmlns="http://www.w3.org/2000/svg" p-id="9993" xmlns:xlink="http://www.w3.org/1999/xlink" width="200" height="200"><path d="M896 987.456c0 20.16-16 36.544-35.648 36.544H99.648A36.096 36.096 0 0 1 64 987.456V36.48C64 16.384 80 0 99.648 0h565.76L896 236.48V987.52z" fill="#FFA542" p-id="9994"></path><path d="M896 236.48h-194.944a36.096 36.096 0 0 1-35.648-36.544V0" fill="#FFFFFF" fill-opacity=".4" p-id="9995"></path><path d="M530.56 365.376c24.064 6.592 34.304 24.768 27.968 49.152l-79.04 302.592c-6.4 24.512-24.384 35.2-48.576 28.544-24-6.656-34.24-24.832-27.904-49.216l79.104-302.592c6.4-24.512 24.32-35.2 48.512-28.48z m-175.424 22.144l5.376 4.928c17.472 17.92 17.472 38.784 0 56.64L256.192 556.16l104.32 107.008a40.768 40.768 0 0 1 4.48 51.072l-4.48 5.568a39.04 39.04 0 0 1-56.128 0L172.416 584.448c-15.488-15.872-17.28-34.112-5.504-50.24l5.76-6.784 131.712-134.976c15.552-16 34.176-18.112 50.752-4.928z m301.12 4.928l132.672 136.064c16.768 17.728 16.448 38.336-0.704 55.936l-131.968 135.296a39.04 39.04 0 0 1-56.128 0 40.704 40.704 0 0 1 0-56.64l104.192-107.008-104.192-107.008c-13.76-14.08-16.896-30.272-8.128-45.952l3.84-5.824 4.8-5.376 4.864-4.416c16.576-13.184 35.136-11.072 50.752 4.928z" fill="#FFFFFF" p-id="9996"></path></svg>