<?xml version="1.0" standalone="no"?><!DOCTYPE svg PUBLIC "-//W3C//DTD SVG 1.1//EN" "http://www.w3.org/Graphics/SVG/1.1/DTD/svg11.dtd"><svg t="1739258485753" class="icon" viewBox="0 0 1024 1024" version="1.1" xmlns="http://www.w3.org/2000/svg" p-id="9560" xmlns:xlink="http://www.w3.org/1999/xlink" width="200" height="200"><path d="M896 987.456c0 20.16-16 36.544-35.648 36.544H99.648A36.096 36.096 0 0 1 64 987.456V36.48C64 16.384 80 0 99.648 0h565.76L896 236.48V987.52z" fill="#4795FF" p-id="9561"></path><path d="M896 236.48h-194.944a36.096 36.096 0 0 1-35.648-36.544V0" fill="#FFFFFF" fill-opacity=".4" p-id="9562"></path><path d="M301.44 744.832h110.72l63.488-262.848h3.456l62.336 262.848h110.656l92.608-414.528h-91.456L593.92 636.736h-3.52l-58.24-266.432H429.632L367.872 636.8h-3.456l-58.24-306.432H213.568z" fill="#FFFFFF" p-id="9563"></path></svg>