<?xml version="1.0" standalone="no"?><!DOCTYPE svg PUBLIC "-//W3C//DTD SVG 1.1//EN" "http://www.w3.org/Graphics/SVG/1.1/DTD/svg11.dtd"><svg t="1739258429323" class="icon" viewBox="0 0 1024 1024" version="1.1" xmlns="http://www.w3.org/2000/svg" p-id="9127" xmlns:xlink="http://www.w3.org/1999/xlink" width="200" height="200"><path d="M0 821.952V146.56c0-22.592 11.456-33.92 34.304-33.92h891.392c22.848 0 34.304 11.328 34.304 33.92v675.392c0 22.656-11.456 33.92-34.304 33.92H34.304c-22.848 0-34.304-11.264-34.304-33.92z" fill="#F59E1B" p-id="9128"></path><path d="M0 757.504V97.92C0 75.328 11.456 64 34.304 64H276.48c22.912 0 34.304 11.328 34.304 33.92v659.584c0 22.592-11.392 33.92-34.304 33.92H34.304c-22.848 0-34.304-11.328-34.304-33.92z" fill="#F59E1B" p-id="9129"></path><path d="M61.696 793.408v-579.84c0-22.592 11.456-33.92 34.304-33.92h768c22.848 0 34.304 11.328 34.304 33.92v579.84c0 22.656-11.456 33.92-34.304 33.92h-768c-22.848 0-34.304-11.264-34.304-33.92z" fill="#FFFFFF" p-id="9130"></path><path d="M0 926.08V290.24c0-22.592 11.456-33.92 34.304-33.92h891.392c22.848 0 34.304 11.328 34.304 33.92v635.84c0 22.592-11.456 33.92-34.304 33.92H34.304C11.456 960 0 948.672 0 926.08z" fill="#FFD034" p-id="9131"></path></svg>