<?xml version="1.0" standalone="no"?><!DOCTYPE svg PUBLIC "-//W3C//DTD SVG 1.1//EN" "http://www.w3.org/Graphics/SVG/1.1/DTD/svg11.dtd"><svg t="1739258376789" class="icon" viewBox="0 0 1024 1024" version="1.1" xmlns="http://www.w3.org/2000/svg" p-id="8695" xmlns:xlink="http://www.w3.org/1999/xlink" width="200" height="200"><path d="M960 987.456c0 20.16-16 36.544-35.648 36.544H163.648A36.096 36.096 0 0 1 128 987.456V36.48C128 16.384 144 0 163.648 0h565.76L960 236.48V987.52z" fill="#FFA542" p-id="8696"></path><path d="M960 236.48h-194.944a36.096 36.096 0 0 1-35.648-36.544V0" fill="#FFFFFF" fill-opacity=".4" p-id="8697"></path><path d="M403.776 673.152c33.088 0 65.792-5.44 85.568-12.096V512.832h-98.56v49.536h44.928v58.496c-8.768 1.92-17.536 2.368-28.16 2.368-51.712 0-70.72-17.536-70.72-89.344 0-68.672 22.784-88.576 73.408-88.576 22.784 0 46.72 3.52 66.56 10.944v-51.84c-16-6.272-45.696-9.792-71.168-9.792-81.728 0-131.968 34.752-131.968 139.264 0 113.536 49.088 139.264 130.112 139.264z m140.672-3.84h57.856V398.464h-57.856v270.72z m277.696-219.264v-51.52h-161.28v270.72h57.792V563.904h95.872v-51.072h-95.872v-62.784h103.488z" fill="#FFFFFF" p-id="8698"></path></svg>