<?xml version="1.0" standalone="no"?><!DOCTYPE svg PUBLIC "-//W3C//DTD SVG 1.1//EN" "http://www.w3.org/Graphics/SVG/1.1/DTD/svg11.dtd"><svg t="1739353136481" class="icon" viewBox="0 0 1024 1024" version="1.1" xmlns="http://www.w3.org/2000/svg" p-id="8409" xmlns:xlink="http://www.w3.org/1999/xlink" width="200" height="200"><path d="M960 987.456c0 20.16-17.216 36.544-38.4 36.544H102.4c-21.184 0-38.4-16.384-38.4-36.544V36.48C64 16.384 81.216 0 102.4 0h609.28L960 236.48V987.52z" fill="#4795FF" p-id="8410"></path><path d="M256 473.6m44.8 0l422.4 0q44.8 0 44.8 44.8l0 0q0 44.8-44.8 44.8l-422.4 0q-44.8 0-44.8-44.8l0 0q0-44.8 44.8-44.8Z" fill="#FFFFFF" p-id="8411"></path><path d="M256 691.2m44.8 0l422.4 0q44.8 0 44.8 44.8l0 0q0 44.8-44.8 44.8l-422.4 0q-44.8 0-44.8-44.8l0 0q0-44.8 44.8-44.8Z" fill="#FFFFFF" p-id="8412"></path><path d="M256 256m44.8 0l166.4 0q44.8 0 44.8 44.8l0 0q0 44.8-44.8 44.8l-166.4 0q-44.8 0-44.8-44.8l0 0q0-44.8 44.8-44.8Z" fill="#FFFFFF" p-id="8413"></path><path d="M960 236.48h-209.92c-21.184 0-38.4-16.384-38.4-36.544V0" fill="#FFFFFF" fill-opacity=".4" p-id="8414"></path></svg>