<?xml version="1.0" standalone="no"?><!DOCTYPE svg PUBLIC "-//W3C//DTD SVG 1.1//EN" "http://www.w3.org/Graphics/SVG/1.1/DTD/svg11.dtd"><svg t="1739258425257" class="icon" viewBox="0 0 1024 1024" version="1.1" xmlns="http://www.w3.org/2000/svg" p-id="8983" xmlns:xlink="http://www.w3.org/1999/xlink" width="200" height="200"><path d="M896 987.456c0 20.16-16 36.544-35.648 36.544H99.648A36.096 36.096 0 0 1 64 987.456V36.48C64 16.384 80 0 99.648 0h565.76L896 236.48V987.52z" fill="#FF6359" p-id="8984"></path><path d="M896 236.48h-194.944a36.096 36.096 0 0 1-35.648-36.544V0" fill="#FFFFFF" fill-opacity=".4" p-id="8985"></path><path d="M150.336 669.248h57.792V585.792h32.32c74.56 0 103.872-24.576 103.872-95.168 0-65.152-24.704-92.096-103.872-92.096H150.4v270.72z m57.792-131.072V445.44h24.768c38.784 0 52.48 11.648 52.48 46.4 0 35.84-13.312 46.4-52.48 46.4h-24.768z m183.36-139.648v270.72H481.92c77.632 0 128.576-30.784 128.576-135.36 0-112.704-50.944-135.36-128.576-135.36H391.488z m57.792 220.032V448.448h29.696c47.552 0 71.872 15.616 71.872 85.44 0 65.92-23.232 84.672-71.872 84.672H449.28z m374.656-168.512v-51.52h-161.28v270.72h57.792V563.904h95.872v-51.072h-95.872v-62.784h103.488z" fill="#FFFFFF" p-id="8986"></path></svg>