<?xml version="1.0" standalone="no"?><!DOCTYPE svg PUBLIC "-//W3C//DTD SVG 1.1//EN" "http://www.w3.org/Graphics/SVG/1.1/DTD/svg11.dtd"><svg t="1739258552658" class="icon" viewBox="0 0 1024 1024" version="1.1" xmlns="http://www.w3.org/2000/svg" p-id="9848" xmlns:xlink="http://www.w3.org/1999/xlink" width="200" height="200"><path d="M896 987.456c0 20.16-16 36.544-35.648 36.544H99.648A36.096 36.096 0 0 1 64 987.456V36.48C64 16.384 80 0 99.648 0h565.76L896 236.48V987.52z" fill="#FFA542" p-id="9849"></path><path d="M896 236.48h-194.944a36.096 36.096 0 0 1-35.648-36.544V0" fill="#FFFFFF" fill-opacity=".4" p-id="9850"></path><path d="M623.872 493.888l114.496 207.232a22.272 22.272 0 0 1-8.064 29.888 20.992 20.992 0 0 1-10.56 2.88H490.752a21.696 21.696 0 0 1-21.376-21.952 22.4 22.4 0 0 1 2.752-10.88l114.56-207.168a21.12 21.12 0 0 1 37.12 0z" fill="#FFFFFF" opacity=".7" p-id="9851"></path><path d="M394.752 372.608l181.504 328.512a22.272 22.272 0 0 1-8.064 29.888 20.992 20.992 0 0 1-10.56 2.88H194.56a21.696 21.696 0 0 1-21.376-21.952 22.4 22.4 0 0 1 2.752-10.88l181.504-328.448a21.12 21.12 0 0 1 37.248 0zM607.68 362.368a60.16 60.16 0 0 0 59.392 60.992 60.16 60.16 0 0 0 59.456-60.992 60.16 60.16 0 0 0-59.456-60.928 60.16 60.16 0 0 0-59.392 60.928z" fill="#FFFFFF" p-id="9852"></path></svg>