<?xml version="1.0" standalone="no"?><!DOCTYPE svg PUBLIC "-//W3C//DTD SVG 1.1//EN" "http://www.w3.org/Graphics/SVG/1.1/DTD/svg11.dtd"><svg t="1739258387429" class="icon" viewBox="0 0 1024 1024" version="1.1" xmlns="http://www.w3.org/2000/svg" p-id="8839" xmlns:xlink="http://www.w3.org/1999/xlink" width="200" height="200"><path d="M896 987.456c0 20.16-16 36.544-35.648 36.544H99.648A36.096 36.096 0 0 1 64 987.456V36.48C64 16.384 80 0 99.648 0h565.76L896 236.48V987.52z" fill="#FF6359" p-id="8840"></path><path d="M896 236.48h-194.944a36.096 36.096 0 0 1-35.648-36.544V0" fill="#FFFFFF" fill-opacity=".4" p-id="8841"></path><path d="M336.512 747.264H426.24V617.6h50.176c115.84 0 161.28-38.144 161.28-147.84 0-101.12-38.4-142.976-161.28-142.976H336.512v420.48z m89.792-203.52V399.424h38.4c60.224 0 81.536 18.176 81.536 72.128 0 55.68-20.736 72.064-81.536 72.064h-38.4z" fill="#FFFFFF" p-id="8842"></path></svg>