<?xml version="1.0" standalone="no"?><!DOCTYPE svg PUBLIC "-//W3C//DTD SVG 1.1//EN" "http://www.w3.org/Graphics/SVG/1.1/DTD/svg11.dtd"><svg t="1739258319371" class="icon" viewBox="0 0 1024 1024" version="1.1" xmlns="http://www.w3.org/2000/svg" p-id="8551" xmlns:xlink="http://www.w3.org/1999/xlink" width="200" height="200"><path d="M896 987.456c0 20.16-16 36.544-35.648 36.544H99.648A36.096 36.096 0 0 1 64 987.456V36.48C64 16.384 80 0 99.648 0h565.76L896 236.48V987.52z" fill="#FFD034" p-id="8552"></path><path d="M896 236.48h-194.944a36.096 36.096 0 0 1-35.648-36.544V0" fill="#FFFFFF" fill-opacity=".4" p-id="8553"></path><path d="M238.4 671.616c52.864 0 83.648-17.152 83.648-66.752 0-38.592-11.776-52.608-56.64-64.32-32.32-8.192-38.08-10.56-38.08-23.808 0-14.464 6.848-19.52 32.384-19.52 18.24 0 41.024 4.672 52.096 7.808l2.24-43.328c-11.008-4.288-33.472-7.04-56.32-7.04-59.648 0-82.112 23.424-82.112 62.848 0 35.52 10.24 49.152 54.4 59.712 33.088 8.192 39.552 12.48 39.552 29.248s-10.24 21.056-34.24 21.056c-18.56 0-42.24-3.52-61.952-9.728v47.168a293.76 293.76 0 0 0 65.024 6.656z m178.368-2.368h67.328l74.88-210.624h-58.88l-48 151.68H449.92l-46.08-151.68h-61.184l74.176 210.624z m306.56-210.624v26.88c-8-19.84-24.32-30.784-62.016-30.784-66.56 0-83.264 49.536-83.264 107.264 0 64 16.704 107.264 83.264 107.264 36.928 0 53.248-11.328 62.016-30.08v11.392c0 40.128-18.624 53.056-63.168 53.056-17.856 0-38.016-1.984-54.4-6.272v44.864c16.768 3.136 40 5.12 58.624 5.12 85.184 0 113.728-36.736 113.728-94.464V458.624h-54.784z m-45.632 169.28c-38.016 0-43.008-30.08-43.008-65.92 0-33.92 4.608-65.152 43.008-65.152 41.088 0 48.32 24.96 48.32 65.152 0 41.728-7.232 65.92-48.32 65.92z" fill="#FFFFFF" p-id="8554"></path></svg>