<?xml version="1.0" standalone="no"?><!DOCTYPE svg PUBLIC "-//W3C//DTD SVG 1.1//EN" "http://www.w3.org/Graphics/SVG/1.1/DTD/svg11.dtd"><svg t="1739258481042" class="icon" viewBox="0 0 1024 1024" version="1.1" xmlns="http://www.w3.org/2000/svg" p-id="9416" xmlns:xlink="http://www.w3.org/1999/xlink" width="200" height="200"><path d="M960 987.456c0 20.16-17.216 36.544-38.4 36.544H102.4c-21.184 0-38.4-16.384-38.4-36.544V36.48C64 16.384 81.216 0 102.4 0h609.28L960 236.48V987.52z" fill="#C076E5" p-id="9417"></path><path d="M960 236.48h-209.92c-21.184 0-38.4-16.384-38.4-36.544V0" fill="#FFFFFF" fill-opacity=".4" p-id="9418"></path><path d="M185.6 0h89.6v85.312H185.6V0z m0 170.688h89.6V256H185.6V170.688z m0 170.624h89.6v85.376H185.6V341.312zM185.6 512h89.6v85.312H185.6V512z m0 170.688h89.6V768H185.6v-85.312z m0 170.624h89.6v85.376H185.6v-85.376zM750.08 256h89.6v85.312h-89.6V256z m0 170.688h89.6V512h-89.6V426.688z m0 170.624h89.6v85.376h-89.6V597.312z m0 170.688h89.6v85.312h-89.6V768z m0 170.688h89.6V1024h-89.6v-85.312zM616.896 551.552l-177.6 116.48a26.432 26.432 0 0 1-35.584-6.208 23.552 23.552 0 0 1-4.48-13.824v-232.96c0-13.504 11.392-24.448 25.6-24.448 5.12 0 10.24 1.536 14.464 4.352l177.6 116.48a23.68 23.68 0 0 1 0 40.128z" fill="#FFFFFF" p-id="9419"></path></svg>