<?xml version="1.0" standalone="no"?><!DOCTYPE svg PUBLIC "-//W3C//DTD SVG 1.1//EN" "http://www.w3.org/Graphics/SVG/1.1/DTD/svg11.dtd"><svg t="1739258241078" class="icon" viewBox="0 0 1024 1024" version="1.1" xmlns="http://www.w3.org/2000/svg" p-id="8407" xmlns:xlink="http://www.w3.org/1999/xlink" width="200" height="200"><path d="M896 987.456c0 20.16-16 36.544-35.648 36.544H99.648A36.096 36.096 0 0 1 64 987.456V36.48C64 16.384 80 0 99.648 0h565.76L896 236.48V987.52z" fill="#60C267" p-id="8408"></path><path d="M896 236.48h-194.944a36.096 36.096 0 0 1-35.648-36.544V0" fill="#FFFFFF" fill-opacity=".4" p-id="8409"></path><path d="M460.928 750.784c111.232 0 155.52-43.52 155.52-124.8 0-77.056-20.992-108.16-117.696-132.032-59.392-14.336-68.736-23.872-68.736-50.752 0-35.2 19.2-44.16 65.28-44.16 33.728 0 80.32 8.32 100.16 14.848V339.264c-21.568-7.808-57.664-14.976-103.68-14.976-93.76 0-147.968 33.472-147.968 121.28 0 74.048 25.088 99.2 111.296 119.488 61.696 15.488 73.344 26.88 73.344 58.496 0 37.12-17.472 49.6-71.04 49.6-40.768 0-89.088-7.168-114.176-16.704v79.424a467.2 467.2 0 0 0 117.696 14.912z" fill="#FFFFFF" p-id="8410"></path></svg>