<?xml version="1.0" standalone="no"?><!DOCTYPE svg PUBLIC "-//W3C//DTD SVG 1.1//EN" "http://www.w3.org/Graphics/SVG/1.1/DTD/svg11.dtd"><svg t="1739258476504" class="icon" viewBox="0 0 1024 1024" version="1.1" xmlns="http://www.w3.org/2000/svg" p-id="9272" xmlns:xlink="http://www.w3.org/1999/xlink" width="200" height="200"><path d="M910.72 987.456a36.48 36.48 0 0 1-36.224 36.544H100.288A36.48 36.48 0 0 1 64 987.456V36.48A36.48 36.48 0 0 1 100.288 0h575.808l234.688 236.48V987.52z" fill="#4795FF" p-id="9273"></path><path d="M910.72 236.48h-198.336a36.48 36.48 0 0 1-36.288-36.544V0" fill="#FFFFFF" fill-opacity=".4" p-id="9274"></path><path d="M217.6 0h84.736v85.312H217.6V0z m84.736 85.312h84.672v85.376H302.336V85.312zM217.6 170.688h84.736V256H217.6V170.688zM302.336 256h84.672v85.312H302.336V256zM217.6 341.312h84.736v85.376H217.6V341.312z m0 117.056h169.408v134.08a36.48 36.48 0 0 1-36.288 36.608H253.888a36.48 36.48 0 0 1-36.288-36.608V458.368z" fill="#FFFFFF" p-id="9275"></path></svg>