<?xml version="1.0" standalone="no"?>
<!DOCTYPE svg PUBLIC "-//W3C//DTD SVG 1.1//EN" "http://www.w3.org/Graphics/SVG/1.1/DTD/svg11.dtd"><svg t="1726124511204"
  class="icon" viewBox="0 0 1024 1024" version="1.1" xmlns="http://www.w3.org/2000/svg" p-id="19082"
  xmlns:xlink="http://www.w3.org/1999/xlink" width="200" height="200">
  <path opacity=".18"
    d="M874.039149 149.961583a511.974036 511.974036 0 1 1-724.077564 724.077565 511.974036 511.974036 0 0 1 724.077564-724.077565z"
    p-id="19083"></path>
  <path
    d="M559.540813 559.540812h230.388316a14.62783 14.62783 0 0 0 14.62783-14.62783v-65.825233a14.62783 14.62783 0 0 0-14.62783-14.627829H559.540813V234.071604a14.62783 14.62783 0 0 0-14.627829-14.62783h-65.825234a14.62783 14.62783 0 0 0-14.627829 14.62783v230.388316H234.071605a14.62783 14.62783 0 0 0-14.62783 14.627829v65.825233c0 8.045306 6.582523 14.62783 14.62783 14.62783h230.388316v230.388316c0 8.045306 6.582523 14.62783 14.627829 14.627829h65.825234a14.62783 14.62783 0 0 0 14.627829-14.627829V559.540812z"
    p-id="19084"></path>
</svg>