<?xml version="1.0" standalone="no"?>
<!DOCTYPE svg PUBLIC "-//W3C//DTD SVG 1.1//EN" "http://www.w3.org/Graphics/SVG/1.1/DTD/svg11.dtd"><svg t="1726124335782"
  class="icon" viewBox="0 0 1024 1024" version="1.1" xmlns="http://www.w3.org/2000/svg" p-id="15764"
  xmlns:xlink="http://www.w3.org/1999/xlink" width="200" height="200">
  <path opacity=".18" d="M512 0a512 512 0 1 1 0 1024A512 512 0 0 1 512 0z" p-id="15765"></path>
  <path
    d="M598.308571 271.067429l19.163429 19.748571a30.208 30.208 0 0 1 0 42.057143L444.123429 512l173.348571 179.053714a30.208 30.208 0 0 1 0 41.984l-19.090286 19.748572a30.208 30.208 0 0 1-43.446857 0l-212.845714-219.867429a30.208 30.208 0 0 1 0-41.984l212.845714-219.940571a30.208 30.208 0 0 1 43.446857 0z"
    p-id="15766"></path>
</svg>