<?xml version="1.0" standalone="no"?>
<!DOCTYPE svg PUBLIC "-//W3C//DTD SVG 1.1//EN" "http://www.w3.org/Graphics/SVG/1.1/DTD/svg11.dtd"><svg t="1726124449140"
  class="icon" viewBox="0 0 1024 1024" version="1.1" xmlns="http://www.w3.org/2000/svg" p-id="17186"
  xmlns:xlink="http://www.w3.org/1999/xlink" width="200" height="200">
  <path opacity=".18" d="M512 0a512 512 0 1 1 0 1024A512 512 0 0 1 512 0z" p-id="17187"></path>
  <path
    d="M534.089143 297.910857a27.282286 27.282286 0 0 1 38.546286 1.243429l181.979428 194.194285a27.282286 27.282286 0 0 1 0 37.302858L572.635429 724.845714a27.282286 27.282286 0 0 1-39.789715 0l-15.36-16.310857a27.282286 27.282286 0 0 1 0-37.302857L666.916571 512 517.558857 352.768a27.282286 27.282286 0 0 1 0-37.302857l15.286857-16.310857z m-248.173714 0a27.282286 27.282286 0 0 1 38.546285 1.243429l181.979429 194.194285a27.282286 27.282286 0 0 1 0 37.302858L324.461714 724.845714a27.282286 27.282286 0 0 1-39.789714 0l-15.286857-16.310857a27.282286 27.282286 0 0 1 0-37.302857L418.669714 512l-149.211428-159.232a27.282286 27.282286 0 0 1 0-37.302857l15.213714-16.310857a27.282286 27.282286 0 0 1 1.243429-1.243429z"
    p-id="17188"></path>
</svg>