<?xml version="1.0" standalone="no"?>
<!DOCTYPE svg PUBLIC "-//W3C//DTD SVG 1.1//EN" "http://www.w3.org/Graphics/SVG/1.1/DTD/svg11.dtd"><svg t="1726124359240"
  class="icon" viewBox="0 0 1024 1024" version="1.1" xmlns="http://www.w3.org/2000/svg" p-id="16238"
  xmlns:xlink="http://www.w3.org/1999/xlink" width="200" height="200">
  <path opacity=".18" d="M512 0a512 512 0 1 1 0 1024A512 512 0 0 1 512 0z" p-id="16239"></path>
  <path
    d="M482.962286 281.819429l4.827428 3.876571 19.821715 21.138286a26.331429 26.331429 0 0 1 0 36.059428L349.110857 512 507.611429 681.106286a26.331429 26.331429 0 0 1 0 36.059428l-19.236572 20.553143a26.331429 26.331429 0 0 1-32.987428 4.388572l-4.900572-3.803429L255.268571 530.066286a26.331429 26.331429 0 0 1 0-36.132572l194.633143-207.652571a26.331429 26.331429 0 0 1 33.060572-4.388572z m261.12 0l4.827428 3.876571 19.748572 21.138286a26.331429 26.331429 0 0 1 0 36.059428L610.230857 512l158.573714 169.106286a26.331429 26.331429 0 0 1 0 36.059428l-19.236571 20.553143a26.331429 26.331429 0 0 1-33.060571 4.388572l-4.827429-3.803429-195.291429-208.237714a26.331429 26.331429 0 0 1 0-36.132572l194.706286-207.652571a26.331429 26.331429 0 0 1 32.987429-4.388572z"
    p-id="16240"></path>
</svg>