<?xml version="1.0" standalone="no"?>
<!DOCTYPE svg PUBLIC "-//W3C//DTD SVG 1.1//EN" "http://www.w3.org/Graphics/SVG/1.1/DTD/svg11.dtd"><svg t="1726124318076"
  class="icon" viewBox="0 0 1024 1024" version="1.1" xmlns="http://www.w3.org/2000/svg" p-id="15290"
  xmlns:xlink="http://www.w3.org/1999/xlink" width="200" height="200">
  <path opacity=".18" d="M1024 512A512 512 0 1 1 0 512a512 512 0 0 1 1024 0z" p-id="15291"></path>
  <path
    d="M756.589714 441.929143L529.993143 664.064a25.746286 25.746286 0 0 1-35.986286 0L267.410286 441.929143a25.746286 25.746286 0 0 1 0-36.790857l22.235428-21.796572a25.746286 25.746286 0 0 1 35.986286 0L512 566.125714 698.368 383.268571a25.746286 25.746286 0 0 1 35.986286 0l22.235428 21.796572a25.746286 25.746286 0 0 1 0 36.790857z"
    p-id="15292"></path>
</svg>