<?xml version="1.0" standalone="no"?>
<!DOCTYPE svg PUBLIC "-//W3C//DTD SVG 1.1//EN" "http://www.w3.org/Graphics/SVG/1.1/DTD/svg11.dtd"><svg t="1726124431468"
  class="icon" viewBox="0 0 1024 1024" version="1.1" xmlns="http://www.w3.org/2000/svg" p-id="16712"
  xmlns:xlink="http://www.w3.org/1999/xlink" width="200" height="200">
  <path opacity=".18" d="M512 0a512 512 0 1 1 0 1024A512 512 0 0 1 512 0z" p-id="16713"></path>
  <path
    d="M488.740571 267.410286l222.134858 226.596571a25.746286 25.746286 0 0 1 0 35.986286l-222.134858 226.596571a25.746286 25.746286 0 0 1-36.790857 0l-21.796571-22.235428a25.746286 25.746286 0 0 1 0-35.986286L612.937143 512 430.08 325.632a25.746286 25.746286 0 0 1 0-35.986286l21.796571-22.235428a25.746286 25.746286 0 0 1 36.790858 0z"
    p-id="16714"></path>
</svg>