<?xml version="1.0" standalone="no"?>
<svg t="1725417735809" class="icon" viewBox="0 0 1024 1024" version="1.1" xmlns="http://www.w3.org/2000/svg" p-id="3271"
  width="200" height="200">
  <path opacity=".18" d="M512 0a512 512 0 1 1 0 1024A512 512 0 0 1 512 0z" p-id="3272"></path>
  <path
    d="M751.469714 631.954286l-16.969143 16.384a32.182857 32.182857 0 0 1-44.763428 0L512 476.306286 334.262857 648.338286a32.182857 32.182857 0 0 1-44.763428 0l-16.969143-16.384a32.182857 32.182857 0 0 1 0-46.226286l217.088-210.066286a32.182857 32.182857 0 0 1 44.763428 0l217.088 210.066286a32.182857 32.182857 0 0 1 0 46.226286z"
    p-id="3273"></path>
</svg>