<?xml version="1.0" standalone="no"?>
<!DOCTYPE svg PUBLIC "-//W3C//DTD SVG 1.1//EN" "http://www.w3.org/Graphics/SVG/1.1/DTD/svg11.dtd"><svg t="1726124307357"
  class="icon" viewBox="0 0 1097 1024" version="1.1" xmlns="http://www.w3.org/2000/svg" p-id="14974"
  xmlns:xlink="http://www.w3.org/1999/xlink" width="214.2578125" height="200">
  <path opacity=".18"
    d="M890.368 287.085714l143.506286-201.728a18.285714 18.285714 0 0 0-4.315429-25.526857L964.022857 13.238857a18.285714 18.285714 0 0 0-25.526857 4.242286l-147.017143 206.701714-165.522286-105.325714a36.571429 36.571429 0 0 0-46.811428 6.290286l-27.062857 29.769142A3347.163429 3347.163429 0 0 1 438.125714 273.554286l552.96 360.594285c35.547429-82.797714 53.248-147.748571 61.074286-181.394285a517.851429 517.851429 0 0 0 6.436571-32.329143 36.571429 36.571429 0 0 0-16.457142-36.790857l-151.844572-96.621715z"
    p-id="14975"></path>
  <path
    d="M383.268571 325.12c-8.265143 7.460571-16.676571 14.774857-25.161142 21.942857-44.909714 38.034286-107.227429 82.651429-159.232 118.272-39.350857 26.916571-79.36 52.882286-119.515429 78.555429a25.6 25.6 0 0 0-0.731429 42.715428l114.834286 78.921143L396.580571 549.302857l-104.96 183.661714 399.36 274.578286c20.114286 13.897143 47.469714 10.24 63.268572-8.411428 24.429714-29.257143 48.128-58.953143 71.241143-89.234286 38.765714-50.761143 86.454857-117.321143 117.248-175.177143 6.070857-11.337143 11.776-22.528 17.261714-33.499429L383.268571 325.12z"
    p-id="14976"></path>
</svg>