<?xml version="1.0" standalone="no"?>
<!DOCTYPE svg PUBLIC "-//W3C//DTD SVG 1.1//EN" "http://www.w3.org/Graphics/SVG/1.1/DTD/svg11.dtd"><svg t="1726124323799"
  class="icon" viewBox="0 0 1024 1024" version="1.1" xmlns="http://www.w3.org/2000/svg" p-id="15448"
  xmlns:xlink="http://www.w3.org/1999/xlink" width="200" height="200">
  <path opacity=".18"
    d="M735.817143 5.12A14.628571 14.628571 0 0 0 724.699429 0H109.714286a36.571429 36.571429 0 0 0-36.571429 36.571429v950.857142a36.571429 36.571429 0 0 0 36.571429 36.571429h804.571428l6.582857-0.585143A36.571429 36.571429 0 0 0 950.857143 987.428571V261.412571a14.628571 14.628571 0 0 0-3.510857-9.508571L735.817143 5.12z"
    p-id="15449"></path>
  <path
    d="M695.149714 291.108571v-219.428571l190.902857 219.428571zM365.714286 462.409143V579.291429l130.779428 130.779428a21.942857 21.942857 0 0 0 31.012572 0L658.285714 579.291429V462.409143a7.314286 7.314286 0 0 0-12.434285-5.12L559.542857 543.451429V380.342857a14.628571 14.628571 0 0 0-14.628571-14.628571h-65.828572a14.628571 14.628571 0 0 0-14.628571 14.628571v163.181714L378.148571 457.142857a7.314286 7.314286 0 0 0-12.434285 5.193143z"
    p-id="15450"></path>
</svg>