<?xml version="1.0" standalone="no"?>
<!DOCTYPE svg PUBLIC "-//W3C//DTD SVG 1.1//EN" "http://www.w3.org/Graphics/SVG/1.1/DTD/svg11.dtd"><svg t="1726124330704"
  class="icon" viewBox="0 0 1097 1024" version="1.1" xmlns="http://www.w3.org/2000/svg" p-id="15606"
  xmlns:xlink="http://www.w3.org/1999/xlink" width="214.2578125" height="200">
  <path opacity=".18"
    d="M182.857143 0a146.285714 146.285714 0 0 0-146.285714 146.285714v731.428572a146.285714 146.285714 0 0 0 146.285714 146.285714h731.428571a146.285714 146.285714 0 0 0 146.285715-146.285714V146.285714a146.285714 146.285714 0 0 0-146.285715-146.285714h-731.428571z"
    p-id="15607"></path>
  <path
    d="M342.089143 459.483429a18.285714 18.285714 0 0 0-0.073143 25.819428l164.205714 164.352c21.942857 21.138286 56.685714 21.138286 78.628572 0l164.205714-164.352a18.285714 18.285714 0 0 0 0-25.819428l-41.325714-41.325715a18.285714 18.285714 0 0 0-25.892572 0L593.042286 506.953143V234.057143a14.628571 14.628571 0 0 0-14.628572-14.628572h-65.828571a14.628571 14.628571 0 0 0-14.628572 14.628572v272.822857L409.234286 418.230857a18.285714 18.285714 0 0 0-25.892572 0l-41.252571 41.325714z m14.482286 325.412571a18.285714 18.285714 0 0 1-18.285715-18.285714v-58.514286a18.285714 18.285714 0 0 1 18.285715-18.285714h384a18.285714 18.285714 0 0 1 18.285714 18.285714v58.514286a18.285714 18.285714 0 0 1-18.285714 18.285714h-384z"
    p-id="15608"></path>
</svg>