<?xml version="1.0" standalone="no"?>
<!DOCTYPE svg PUBLIC "-//W3C//DTD SVG 1.1//EN" "http://www.w3.org/Graphics/SVG/1.1/DTD/svg11.dtd"><svg t="1726124497527"
  class="icon" viewBox="0 0 1024 1024" version="1.1" xmlns="http://www.w3.org/2000/svg" p-id="18608"
  xmlns:xlink="http://www.w3.org/1999/xlink" width="200" height="200">
  <path opacity=".18" d="M512.292571 1024a512 512 0 1 0 0-1024 512 512 0 0 0 0 1024z" p-id="18609"></path>
  <path
    d="M804.790857 375.515429a14.628571 14.628571 0 0 1 0 20.772571L517.851429 683.373714a36.571429 36.571429 0 0 1-51.785143 0L285.769143 503.076571a14.628571 14.628571 0 0 1 0-20.626285l46.518857-46.592a14.628571 14.628571 0 0 1 20.699429 0l138.898285 138.971428L737.499429 329.142857a14.628571 14.628571 0 0 1 20.626285 0l46.665143 46.372572z"
    p-id="18610"></path>
</svg>