<?xml version="1.0" standalone="no"?>
<!DOCTYPE svg PUBLIC "-//W3C//DTD SVG 1.1//EN" "http://www.w3.org/Graphics/SVG/1.1/DTD/svg11.dtd"><svg t="1726124515829"
  class="icon" viewBox="0 0 1024 1024" version="1.1" xmlns="http://www.w3.org/2000/svg" p-id="19240"
  xmlns:xlink="http://www.w3.org/1999/xlink" width="200" height="200">
  <path opacity=".18"
    d="M477.842286 58.002286A419.84 419.84 0 1 0 741.668571 804.571429l148.918858 148.845714a23.917714 23.917714 0 0 0 33.792 0l28.964571-28.964572a23.917714 23.917714 0 0 0 0-33.792l-148.918857-148.845714A419.84 419.84 0 0 0 477.842286 58.075429z"
    p-id="19241"></path>
  <path
    d="M457.362286 262.802286a23.917714 23.917714 0 0 0-23.844572 23.917714v146.797714H286.72a23.917714 23.917714 0 0 0-23.917714 23.844572v40.96c0 13.165714 10.752 23.917714 23.917714 23.917714h146.797714v146.797714c0 13.165714 10.678857 23.844571 23.844572 23.844572h40.96c13.165714 0 23.917714-10.678857 23.917714-23.844572V522.24h146.797714c13.165714 0 23.844571-10.678857 23.844572-23.917714v-40.96a23.917714 23.917714 0 0 0-23.844572-23.844572H522.24V286.72a23.917714 23.917714 0 0 0-23.917714-23.917714h-40.96z"
    p-id="19242"></path>
</svg>