<?xml version="1.0" standalone="no"?>
<!DOCTYPE svg PUBLIC "-//W3C//DTD SVG 1.1//EN" "http://www.w3.org/Graphics/SVG/1.1/DTD/svg11.dtd"><svg t="1726124346729"
  class="icon" viewBox="0 0 1024 1024" version="1.1" xmlns="http://www.w3.org/2000/svg" p-id="15922"
  xmlns:xlink="http://www.w3.org/1999/xlink" width="200" height="200">
  <path opacity=".18" d="M512.292571 1024a512 512 0 1 0 0-1024 512 512 0 0 0 0 1024z" p-id="15923"></path>
  <path
    d="M675.181714 742.180571L512.292571 579.218286l-162.889142 162.962285a14.628571 14.628571 0 0 1-20.699429 0l-46.592-46.592a14.628571 14.628571 0 0 1 0-20.699428L445.074286 512 282.112 349.110857a14.628571 14.628571 0 0 1 0-20.699428l46.592-46.592a14.628571 14.628571 0 0 1 20.699429 0l162.889142 162.962285L675.108571 281.819429a14.628571 14.628571 0 0 1 20.699429 0l46.518857 46.592a14.628571 14.628571 0 0 1 0 20.699428L579.510857 512l162.889143 162.889143a14.628571 14.628571 0 0 1 0 20.699428l-46.518857 46.592a14.628571 14.628571 0 0 1-20.699429 0z"
    p-id="15924"></path>
</svg>