<?xml version="1.0" standalone="no"?>
<!DOCTYPE svg PUBLIC "-//W3C//DTD SVG 1.1//EN" "http://www.w3.org/Graphics/SVG/1.1/DTD/svg11.dtd"><svg t="1726124455051"
  class="icon" viewBox="0 0 1024 1024" version="1.1" xmlns="http://www.w3.org/2000/svg" p-id="17344"
  xmlns:xlink="http://www.w3.org/1999/xlink" width="200" height="200">
  <path opacity=".18"
    d="M1009.371429 182.857143H365.714286l-62.317715-93.403429A36.571429 36.571429 0 0 0 272.969143 73.142857H36.571429a36.571429 36.571429 0 0 0-36.571429 36.571429v804.571428a36.571429 36.571429 0 0 0 36.571429 36.571429h972.8a14.628571 14.628571 0 0 0 14.628571-14.628572V197.485714a14.628571 14.628571 0 0 0-14.628571-14.628571z"
    p-id="17345"></path>
  <path
    d="M709.997714 564.077714L579.291429 694.857143H462.409143a7.314286 7.314286 0 0 1-5.12-12.434286L543.451429 596.114286H307.2a14.628571 14.628571 0 0 1-14.628571-14.628572v-65.828571c0-8.045714 6.582857-14.628571 14.628571-14.628572h236.251429L457.289143 414.72a7.314286 7.314286 0 0 1 5.193143-12.434286H579.291429l130.779428 130.779429a21.942857 21.942857 0 0 1 0 31.012571z"
    p-id="17346"></path>
</svg>