<?xml version="1.0" standalone="no"?>
<!DOCTYPE svg PUBLIC "-//W3C//DTD SVG 1.1//EN" "http://www.w3.org/Graphics/SVG/1.1/DTD/svg11.dtd"><svg t="1726124424576"
  class="icon" viewBox="0 0 1024 1024" version="1.1" xmlns="http://www.w3.org/2000/svg" p-id="16554"
  xmlns:xlink="http://www.w3.org/1999/xlink" width="200" height="200">
  <path opacity=".18"
    d="M477.842286 58.002286A419.84 419.84 0 1 0 741.668571 804.571429l148.918858 148.845714a23.917714 23.917714 0 0 0 33.792 0l28.964571-28.964572a23.917714 23.917714 0 0 0 0-33.792l-148.918857-148.845714A419.84 419.84 0 0 0 477.842286 58.075429z"
    p-id="16555"></path>
  <path
    d="M286.72 433.517714a23.917714 23.917714 0 0 0-23.917714 23.844572v40.96c0 13.165714 10.752 23.917714 23.917714 23.917714h382.317714c13.165714 0 23.844571-10.678857 23.844572-23.917714v-40.96a23.917714 23.917714 0 0 0-23.844572-23.844572H286.72z"
    p-id="16556"></path>
</svg>