<?xml version="1.0" standalone="no"?>
<!DOCTYPE svg PUBLIC "-//W3C//DTD SVG 1.1//EN" "http://www.w3.org/Graphics/SVG/1.1/DTD/svg11.dtd"><svg t="1726122686790"
  class="icon" viewBox="0 0 1024 1024" version="1.1" xmlns="http://www.w3.org/2000/svg" p-id="14026"
  xmlns:xlink="http://www.w3.org/1999/xlink" width="200" height="200">
  <path opacity=".18" d="M512 0a512 512 0 1 1 0 1024A512 512 0 0 1 512 0z" p-id="14027"></path>
  <path
    d="M338.358857 297.545143l-13.238857 14.116571a29.257143 29.257143 0 0 0 0 40.082286L475.428571 512 325.12 672.256a29.257143 29.257143 0 0 0 0 40.082286l13.238857 14.116571a29.257143 29.257143 0 0 0 42.715429 0l182.345143-194.413714a29.257143 29.257143 0 0 0 0-40.082286L381.074286 297.545143a29.257143 29.257143 0 0 0-42.715429 0zM708.096 716.8V307.2a29.257143 29.257143 0 0 0-29.257143-29.257143h-21.942857a29.257143 29.257143 0 0 0-29.257143 29.257143v409.6c0 16.091429 13.019429 29.257143 29.257143 29.257143h21.942857a29.257143 29.257143 0 0 0 29.257143-29.257143z"
    p-id="14028"></path>
</svg>