<?xml version="1.0" standalone="no"?>
<!DOCTYPE svg PUBLIC "-//W3C//DTD SVG 1.1//EN" "http://www.w3.org/Graphics/SVG/1.1/DTD/svg11.dtd">
<svg t="1726124289674" class="icon" viewBox="0 0 1024 1024" version="1.1" xmlns="http://www.w3.org/2000/svg"
  p-id="14500" xmlns:xlink="http://www.w3.org/1999/xlink" width="200" height="200">
  <path opacity=".18" d="M1024 512A512 512 0 1 0 0 512a512 512 0 0 0 1024 0z" p-id="14501"></path>
  <path
    d="M454.948571 716.214857a32.914286 32.914286 0 0 0 32.914286 33.499429h48.274286a32.914286 32.914286 0 0 0 32.841143-33.499429L563.858286 475.428571a32.914286 32.914286 0 0 0-32.914286-32.329142h-38.034286a32.914286 32.914286 0 0 0-32.914285 32.329142l-5.12 240.786286z m-7.314285-395.702857c0 36.059429 28.818286 63.488 64.146285 63.488a63.122286 63.122286 0 0 0 64.438858-63.414857 63.122286 63.122286 0 0 0-64.438858-63.488 63.268571 63.268571 0 0 0-64.146285 63.488z"
    p-id="14502"></path>
</svg>