<?xml version="1.0" standalone="no"?>
<!DOCTYPE svg PUBLIC "-//W3C//DTD SVG 1.1//EN" "http://www.w3.org/Graphics/SVG/1.1/DTD/svg11.dtd"><svg t="1726124477254"
  class="icon" viewBox="0 0 1024 1024" version="1.1" xmlns="http://www.w3.org/2000/svg" p-id="17976"
  xmlns:xlink="http://www.w3.org/1999/xlink" width="200" height="200">
  <path opacity=".18" d="M512 0a512 512 0 1 1 0 1024A512 512 0 0 1 512 0z" p-id="17977"></path>
  <path
    d="M685.641143 297.545143l13.238857 14.116571a29.257143 29.257143 0 0 1 0 40.082286L548.571429 512l150.308571 160.256a29.257143 29.257143 0 0 1 0 40.082286l-13.238857 14.116571a29.257143 29.257143 0 0 1-42.715429 0L460.580571 532.041143a29.257143 29.257143 0 0 1 0-40.082286L642.925714 297.545143a29.257143 29.257143 0 0 1 42.715429 0zM315.904 716.8V307.2a29.257143 29.257143 0 0 1 29.257143-29.257143h21.942857a29.257143 29.257143 0 0 1 29.257143 29.257143v409.6a29.257143 29.257143 0 0 1-29.257143 29.257143h-21.942857a29.257143 29.257143 0 0 1-29.257143-29.257143z"
    p-id="17978"></path>
</svg>