<?xml version="1.0" standalone="no"?>
<!DOCTYPE svg PUBLIC "-//W3C//DTD SVG 1.1//EN" "http://www.w3.org/Graphics/SVG/1.1/DTD/svg11.dtd"><svg t="1726124488436"
  class="icon" viewBox="0 0 1024 1024" version="1.1" xmlns="http://www.w3.org/2000/svg" p-id="18292"
  xmlns:xlink="http://www.w3.org/1999/xlink" width="200" height="200">
  <path opacity=".18"
    d="M365.829134 36.542716a36.542716 36.542716 0 0 1 36.542717-36.542716h219.256298a36.542716 36.542716 0 0 1 36.542717 36.542716v32.01142a109.628149 109.628149 0 0 0 164.442224 94.937977l27.772464-16.078795a36.542716 36.542716 0 0 1 49.844265 13.44772l109.62815 189.875954a36.542716 36.542716 0 0 1-13.374634 49.917351l-27.772465 16.078795a109.628149 109.628149 0 0 0 0.073085 189.802869l27.772465 16.00571a36.542716 36.542716 0 0 1 13.301549 49.917351l-109.62815 189.875954a36.542716 36.542716 0 0 1-49.91735 13.374635l-27.699379-16.00571a109.628149 109.628149 0 0 0-164.442224 95.011063v31.938334a36.542716 36.542716 0 0 1-36.542717 36.542716h-219.256298a36.542716 36.542716 0 0 1-36.542717-36.542716v-32.01142a109.628149 109.628149 0 0 0-164.442224-94.937977l-27.772464 16.00571a36.542716 36.542716 0 0 1-49.844265-13.374635l-109.62815-189.875954a36.542716 36.542716 0 0 1 13.374634-49.917351l27.69938-16.00571c73.085433-42.170295 73.085433-147.632574 0-189.875954l-27.772465-16.00571A36.542716 36.542716 0 0 1 14.215117 350.810078l109.628149-189.875955a36.542716 36.542716 0 0 1 49.917351-13.374634l27.699379 16.00571A109.628149 109.628149 0 0 0 365.829134 68.481051V36.542716z"
    p-id="18293"></path>
  <path d="M512 310.61309a200.98494 200.98494 0 1 0 0 401.969881 200.98494 200.98494 0 0 0 0-401.969881z" p-id="18294">
  </path>
</svg>