<?xml version="1.0" standalone="no"?>
<!DOCTYPE svg PUBLIC "-//W3C//DTD SVG 1.1//EN" "http://www.w3.org/Graphics/SVG/1.1/DTD/svg11.dtd"><svg t="1726124482831"
  class="icon" viewBox="0 0 1024 1024" version="1.1" xmlns="http://www.w3.org/2000/svg" p-id="18134"
  xmlns:xlink="http://www.w3.org/1999/xlink" width="200" height="200">
  <path opacity=".18" d="M512 1024A512 512 0 1 0 512 0a512 512 0 0 0 0 1024z" p-id="18135"></path>
  <path
    d="M305.444571 472.795429a18.285714 18.285714 0 0 0 0 25.819428l41.325715 41.252572a18.285714 18.285714 0 0 0 25.892571 0l88.722286-88.722286v272.822857c0 8.118857 6.582857 14.628571 14.628571 14.628571h65.828572a14.628571 14.628571 0 0 0 14.628571-14.628571v-272.822857L645.266286 539.794286a18.285714 18.285714 0 0 0 25.892571 0l41.252572-41.252572a18.285714 18.285714 0 0 0 0-25.819428L548.352 308.443429a56.612571 56.612571 0 0 0-78.628571 0L305.444571 472.795429z"
    p-id="18136"></path>
</svg>