<?xml version="1.0" standalone="no"?>
<!DOCTYPE svg PUBLIC "-//W3C//DTD SVG 1.1//EN" "http://www.w3.org/Graphics/SVG/1.1/DTD/svg11.dtd"><svg t="1726124458889"
  class="icon" viewBox="0 0 1024 1024" version="1.1" xmlns="http://www.w3.org/2000/svg" p-id="17502"
  xmlns:xlink="http://www.w3.org/1999/xlink" width="200" height="200">
  <path opacity=".18" d="M1024 512A512 512 0 1 1 0 512a512 512 0 0 1 1024 0z" p-id="17503"></path>
  <path
    d="M446.171429 365.714286c8.045714 0 14.628571 6.582857 14.628571 14.628571v263.314286a14.628571 14.628571 0 0 1-14.628571 14.628571h-65.828572a14.628571 14.628571 0 0 1-14.628571-14.628571V380.342857c0-8.045714 6.582857-14.628571 14.628571-14.628571h65.828572z m117.028571 14.628571v263.314286c0 8.045714 6.582857 14.628571 14.628571 14.628571h65.828572a14.628571 14.628571 0 0 0 14.628571-14.628571V380.342857a14.628571 14.628571 0 0 0-14.628571-14.628571h-65.828572a14.628571 14.628571 0 0 0-14.628571 14.628571z"
    p-id="17504"></path>
</svg>