<?xml version="1.0" standalone="no"?>
<!DOCTYPE svg PUBLIC "-//W3C//DTD SVG 1.1//EN" "http://www.w3.org/Graphics/SVG/1.1/DTD/svg11.dtd"><svg t="1726124465802"
  class="icon" viewBox="0 0 1024 1024" version="1.1" xmlns="http://www.w3.org/2000/svg" p-id="17660"
  xmlns:xlink="http://www.w3.org/1999/xlink" width="200" height="200">
  <path opacity=".18" d="M1024.073143 512a512 512 0 1 1-1024 0 512 512 0 0 1 1024 0z" p-id="17661"></path>
  <path
    d="M731.501714 563.2a14.628571 14.628571 0 0 0-14.628571-14.628571h-409.6a14.628571 14.628571 0 0 0-14.628572 14.628571v33.060571a14.628571 14.628571 0 0 0 6.070858 11.849143l128.658285 92.964572A7.314286 7.314286 0 0 0 438.857143 695.222857V636.342857h277.942857a14.628571 14.628571 0 0 0 14.628571-14.628571v-58.514286zM725.504 415.890286a14.628571 14.628571 0 0 1 5.997714 11.849143V460.8a14.628571 14.628571 0 0 1-14.628571 14.628571h-409.6a14.628571 14.628571 0 0 1-14.628572-14.628571v-58.514286c0-8.045714 6.582857-14.628571 14.628572-14.628571h277.942857v-58.806857a7.314286 7.314286 0 0 1 11.702857-5.924572l128.585143 92.964572z"
    p-id="17662"></path>
</svg>