<?xml version="1.0" standalone="no"?>
<!DOCTYPE svg PUBLIC "-//W3C//DTD SVG 1.1//EN" "http://www.w3.org/Graphics/SVG/1.1/DTD/svg11.dtd"><svg t="1726124503224"
  class="icon" viewBox="0 0 1097 1024" version="1.1" xmlns="http://www.w3.org/2000/svg" p-id="18766"
  xmlns:xlink="http://www.w3.org/1999/xlink" width="214.2578125" height="200">
  <path opacity=".18"
    d="M329.142857 877.714286a292.571429 292.571429 0 0 1-65.755428-577.755429 292.717714 292.717714 0 0 1 570.368 0A292.717714 292.717714 0 0 1 768 877.714286h-438.857143z"
    p-id="18767"></path>
  <path
    d="M402.285714 617.033143a14.628571 14.628571 0 0 0 24.941715 10.386286L501.028571 553.618286V972.8c0 8.045714 6.582857 14.628571 14.628572 14.628571h65.828571a14.628571 14.628571 0 0 0 14.628572-14.628571V553.691429l73.801143 73.728a14.628571 14.628571 0 0 0 24.941714-10.386286V523.995429a14.628571 14.628571 0 0 0-4.315429-10.386286L574.464 397.458286a36.571429 36.571429 0 0 0-51.785143 0L406.674286 513.609143a14.628571 14.628571 0 0 0-4.315429 10.386286v93.037714z"
    p-id="18768"></path>
</svg>