<?xml version="1.0" encoding="UTF-8"?>
<svg width="24px" height="24px" viewBox="0 0 24 24" version="1.1" xmlns="http://www.w3.org/2000/svg" xmlns:xlink="http://www.w3.org/1999/xlink">
    <title>0305F15A-F4AA-485C-82C4-AC8DC7343A76</title>
    <g id="导航" stroke="none" stroke-width="1" fill="none" fill-rule="evenodd">
        <g id="带横向导航" transform="translate(-1327, -13)">
            <g id="查看日历" transform="translate(1327, 13)">
                <rect id="矩形备份-12" x="0" y="0" width="24" height="24" rx="2"></rect>
                <g id="图标/日期" transform="translate(4, 4)">
                    <rect id="矩形" fill="#FFFFFF" opacity="0" x="0" y="0" width="16" height="16"></rect>
                    <g id="日历" transform="translate(1.5, 1)" fill="#464F5C" fill-rule="nonzero">
                        <path d="M4.27916667,0 C4.39883167,0 4.49583333,0.0964276923 4.49583333,0.215384615 L4.49583333,1.07692308 L8.50416667,1.07692308 L8.50416667,0.215384615 C8.50416667,0.0964276923 8.60116833,0 8.72083333,0 L9.69583333,0 C9.81554167,0 9.9125,0.0964276923 9.9125,0.215384615 L9.9125,1.07692308 L12.4583333,1.07692308 C12.7574417,1.07692308 13,1.31800308 13,1.61538462 L13,13.4615385 C13,13.7588769 12.7574417,14 12.4583333,14 L0.541666667,14 C0.242515,14 0,13.7588769 0,13.4615385 L0,1.61538462 C0,1.31800308 0.242515,1.07692308 0.541666667,1.07692308 L3.0875,1.07692308 L3.0875,0.215384615 C3.0875,0.0964276923 3.18450167,0 3.30416667,0 L4.27916667,0 Z M8.50416667,2.47692308 L4.49583333,2.47692308 L4.49583333,3.01538462 C4.49583333,3.13434154 4.39883167,3.23076923 4.27916667,3.23076923 L3.30416667,3.23076923 C3.18450167,3.23076923 3.0875,3.13434154 3.0875,3.01538462 L3.0875,2.47692308 L1.40833333,2.47692308 L1.40833333,4.14615385 L11.5916667,4.14615385 L11.5916667,2.47692308 L9.9125,2.47692308 L9.9125,3.01538462 C9.9125,3.13434154 9.81554167,3.23076923 9.69583333,3.23076923 L8.72083333,3.23076923 C8.60116833,3.23076923 8.50416667,3.13434154 8.50416667,3.01538462 L8.50416667,2.47692308 Z M1.40833333,5.54615385 L1.40833333,12.6 L11.5916667,12.6 L11.5916667,5.54615385 L1.40833333,5.54615385 Z" id="形状"></path>
                    </g>
                </g>
            </g>
        </g>
    </g>
</svg>