<?xml version="1.0" encoding="UTF-8"?>
<svg width="17px" height="16px" viewBox="0 0 17 16" version="1.1" xmlns="http://www.w3.org/2000/svg" xmlns:xlink="http://www.w3.org/1999/xlink">
    <title>092B3F95-A1B2-4212-96A6-83645769504A</title>
    <g id="导航" stroke="none" stroke-width="1" fill="none" fill-rule="evenodd">
        <g id="双导航" transform="translate(-77, -704)" fill-rule="nonzero">
            <g id="编组" transform="translate(0, 89)">
                <g id="编组-13" transform="translate(60, 50)">
                    <g id="编组-10备份" transform="translate(1, 0)">
                        <g id="编组-7" transform="translate(16.0888, 563)">
                            <g id="收起" transform="translate(0, 2)">
                                <rect id="矩形" x="0" y="0" width="16" height="16"></rect>
                                <path d="M11.7199101,2.8985287 L12.2047747,3.38338475 C12.3275995,3.50613417 12.3275995,3.70516411 12.2047965,3.82787911 L8.03215643,7.99947786 L12.205004,12.1721827 C12.3101475,12.2774338 12.3251679,12.4386549 12.2500427,12.5598411 L12.2049678,12.6166535 L11.7200459,13.1015754 C11.5972589,13.2242368 11.3983982,13.2242368 11.2755747,13.1015389 L6.45689191,8.28281326 C6.30067317,8.12660596 6.30067317,7.87333404 6.45688932,7.71712932 L11.2754785,2.89854019 C11.3981905,2.77579041 11.5972095,2.77579041 11.7199101,2.8985287 Z M7.29138273,2.89852995 L7.7762543,3.38341009 C7.89898496,3.50615332 7.89897719,3.70514417 7.77624211,3.82787925 L3.60415643,7.99947786 L7.77638744,12.1721718 C7.88156533,12.2774251 7.89659075,12.4386588 7.82144851,12.5598425 L7.77636336,12.6166523 L7.29147905,13.1015537 C7.1687379,13.2242446 6.96976381,13.2242446 6.84702056,13.1015391 L2.02832048,8.28281326 C1.87210174,8.12660596 1.87210174,7.87333404 2.02831783,7.71712938 L6.84690932,2.89852932 C6.96964461,2.77579404 7.16864682,2.77579404 7.29138273,2.89852995 Z" id="形状" fill="#60666E"></path>
                            </g>
                        </g>
                    </g>
                </g>
            </g>
        </g>
    </g>
</svg>