<?xml version="1.0" encoding="UTF-8"?>
<svg width="15px" height="14px" viewBox="0 0 15 14" version="1.1" xmlns="http://www.w3.org/2000/svg" xmlns:xlink="http://www.w3.org/1999/xlink">
    <title>0EE78F03-0BAE-44E4-B122-D0C0F8CD2962</title>
    <g id="组件" stroke="none" stroke-width="1" fill="none" fill-rule="evenodd">
        <g id="卡片" transform="translate(-331, -442)" fill-rule="nonzero">
            <g id="编组-8" transform="translate(155, 352)">
                <g id="设置" transform="translate(176.5, 90)">
                    <rect id="矩形" x="0" y="0" width="14" height="14"></rect>
                    <g id="编组" transform="translate(0.1207, 0)" fill="#78858F">
                        <path d="M8.37924708,0 C8.65539708,0 8.87924708,0.223858 8.87924708,0.5 L8.87924708,0.937819 C8.87924708,2.09232 10.1293571,2.81367 11.1292571,2.23686 L11.5084571,2.01794 C11.7475571,1.87987 12.0533571,1.96181 12.1914571,2.20096 L13.6914571,4.79903 C13.8294571,5.03818 13.7475571,5.34397 13.5084571,5.48205 L13.1285571,5.70136 C12.1292571,6.27897 12.1294571,7.72182 13.1292571,8.29903 L13.5084571,8.51794 C13.7475571,8.65602 13.8294571,8.96181 13.6914571,9.20096 L12.1914571,11.799 C12.0533571,12.0382 11.7475571,12.1201 11.5084571,11.982 L11.1292571,11.7631 C10.1292571,11.1858 8.87924708,11.9075 8.87924708,13.0622 L8.87924708,13.5 C8.87924708,13.7761 8.65539708,14 8.37924708,14 L5.37924708,14 C5.10310708,14 4.87924708,13.7761 4.87924708,13.5 L4.87924708,13.0622 C4.87924708,11.9076 3.62919708,11.1862 2.62924708,11.7631 L2.25008708,11.982 C2.01093708,12.1201 1.70514708,12.0382 1.56707708,11.799 L0.0670730792,9.20096 C-0.0709978208,8.96181 0.0109400792,8.65602 0.250086079,8.51794 L0.629250079,8.29903 C1.62913708,7.72175 1.62890708,6.27844 0.629249079,5.70096 L0.250083079,5.48205 C0.0109370792,5.34398 -0.0710005208,5.03818 0.0670710792,4.79903 L1.56706708,2.20096 C1.70513708,1.96181 2.01093708,1.87987 2.25008708,2.01794 L2.62924708,2.23686 C3.62924708,2.81421 4.87924708,2.09252 4.87924708,0.93782 L4.87924708,0.5 C4.87924708,0.223857 5.10310708,0 5.37924708,0 L8.37924708,0 Z M7.60169708,1.3 L6.15680708,1.3 C5.92822708,3.12178 3.99612708,4.23728 2.30412708,3.52434 L1.58167708,4.77565 C3.04510708,5.8845 3.04510708,8.11549 1.58167708,9.22434 L2.30412708,10.4757 C3.99612708,9.76271 5.92823708,10.8782 6.15680708,12.7 L7.60169708,12.7 C7.83026708,10.8782 9.76236708,9.76271 11.4543571,10.4757 L12.1768571,9.22434 C10.7133571,8.11549 10.7133571,5.8845 12.1768571,4.77565 L11.4543571,3.52434 C9.76237708,4.23728 7.83027708,3.12178 7.60169708,1.3 Z M6.87924708,4.25 C8.39803708,4.25 9.62924708,5.48122 9.62924708,7 C9.62924708,8.51878 8.39803708,9.75 6.87924708,9.75 C5.36046708,9.75 4.12924708,8.51878 4.12924708,7 C4.12924708,5.48122 5.36046708,4.25 6.87924708,4.25 Z M6.87924708,5.75 C6.18889708,5.75 5.62924708,6.30964 5.62924708,7 C5.62924708,7.69036 6.18889708,8.25 6.87924708,8.25 C7.56960708,8.25 8.12924708,7.69036 8.12924708,7 C8.12924708,6.30964 7.56960708,5.75 6.87924708,5.75 Z" id="形状结合"></path>
                    </g>
                </g>
            </g>
        </g>
    </g>
</svg>