<?xml version="1.0" encoding="UTF-8"?>
<svg width="12px" height="12px" viewBox="0 0 12 12" version="1.1" xmlns="http://www.w3.org/2000/svg" xmlns:xlink="http://www.w3.org/1999/xlink">
    <title>10177F8D-9D3C-409A-9DA4-F7172F074900</title>
    <g id="图表" stroke="none" stroke-width="1" fill="none" fill-rule="evenodd">
        <g id="数值统计" transform="translate(-788, -2242)" fill-rule="nonzero">
            <g id="编组-3备份-17" transform="translate(640, 2222)">
                <g id="编组" transform="translate(16, 16)">
                    <g id="问题跟踪" transform="translate(132, 4)">
                        <rect id="矩形" x="0" y="0" width="12" height="12"></rect>
                        <path d="M6,0 C8.84031429,0 11.1428571,2.30253429 11.1428571,5.14285714 C11.1428571,7.24583143 9.88062857,9.054 8.07244286,9.85105714 L7.99611429,10.3090286 C7.83348,11.2848 6.98923714,12 6,12 C5.01076286,12 4.16652,11.2848 4.00388571,10.3090286 L3.92755714,9.85105714 C2.11937143,9.054 0.857142857,7.24583143 0.857142857,5.14285714 C0.857142857,2.30253429 3.15967714,0 6,0 Z M6.89891143,10.1142857 L5.10108,10.1142857 L5.10300857,10.1258571 C5.17608857,10.5643714 5.55546857,10.8857143 6,10.8857143 C6.44453143,10.8857143 6.82390286,10.5643714 6.89699143,10.1258571 L6.89891143,10.1142857 Z M6,1.11428571 C3.77508,1.11428571 1.97142857,2.91793714 1.97142857,5.14285714 C1.97142857,6.78846 2.95824857,8.20603714 4.37701714,8.83148571 L4.75937143,9 L7.24062857,9 L7.62297429,8.83148571 C9.04174286,8.20603714 10.0285714,6.78846 10.0285714,5.14285714 C10.0285714,2.91793714 8.22492,1.11428571 6,1.11428571 Z M5.90293139,7.04586155 C6.11683028,7.04583033 6.31449502,7.15469325 6.42145392,7.33143542 C6.52841282,7.50817758 6.52841282,7.72594193 6.42145392,7.90268409 C6.31449502,8.07942625 6.11683028,8.18828918 5.90293139,8.18825795 C5.57234189,8.18820964 5.30437298,7.93248965 5.30437298,7.61705975 C5.30437298,7.30162986 5.57234189,7.04590986 5.90293139,7.04586155 Z M6.37048742,2.55041518 C7.28372198,2.74950957 7.94769877,3.502513 7.99706348,4.39508406 C8.04642818,5.28765513 7.46919924,6.10315352 6.58299784,6.3928499 C6.53423041,6.40856609 6.50144857,6.45226412 6.50158144,6.50137756 L6.50158144,6.60247963 C6.50125277,6.70392887 6.41514103,6.78609184 6.30881612,6.78640544 L5.60360637,6.78640544 C5.52422044,6.78640544 5.44808594,6.75631563 5.39195161,6.70275541 C5.33581728,6.64919519 5.30428133,6.57655194 5.30428133,6.50080635 L5.30428133,5.92960817 C5.30428134,5.61414412 5.5723061,5.35840999 5.90293139,5.35840999 C6.31020934,5.3582157 6.66634981,5.09651298 6.77056315,4.72084812 C6.87477649,4.34518325 6.70096297,3.94963974 6.34711749,3.75722241 C5.99327201,3.56480508 5.54801353,3.62370395 5.26237584,3.90071222 C5.24088456,3.92229625 5.22219217,3.94626834 5.20670139,3.97211201 C5.05494102,4.21606365 4.75829787,4.34201196 4.46676992,4.286271 L4.42666037,4.27884543 C4.2608529,4.24714004 4.1207869,4.14197746 4.04949525,3.99566708 C3.9782036,3.8493567 3.98421197,3.67939559 4.06567439,3.53800138 C4.51641621,2.75445861 5.45725287,2.35132079 6.37048742,2.55041518 Z" id="形状结合" fill="#464F5C"></path>
                    </g>
                </g>
            </g>
        </g>
    </g>
</svg>