<?xml version="1.0" encoding="UTF-8"?>
<svg width="16px" height="16px" viewBox="0 0 16 16" version="1.1" xmlns="http://www.w3.org/2000/svg" xmlns:xlink="http://www.w3.org/1999/xlink">
    <title>137FD029-FCF0-4B4E-A760-73C3A9A6F9BB</title>
    <g id="组件" stroke="none" stroke-width="1" fill="none" fill-rule="evenodd">
        <g id="上传" transform="translate(-284, -2819)">
            <g id="视频" transform="translate(284, 2819)">
                <rect id="矩形" x="0" y="0" width="16" height="16"></rect>
                <g id="编组" transform="translate(1, 0)" fill-rule="nonzero">
                    <path d="M14,15.4285714 C14,15.7441714 13.73138,16 13.4,16 L0.6,16 C0.26862,16 0,15.7441714 0,15.4285714 L0,0.571428571 C0,0.255828571 0.26862,0 0.6,0 L10.12,0 L14,3.6952381 L14,15.4285714 Z" id="路径" fill="#C076E5"></path>
                    <path d="M14,3.6952381 L10.72,3.6952381 C10.38862,3.6952381 10.12,3.43940952 10.12,3.12380952 L10.12,0" id="路径" fill-opacity="0.4" fill="#FFFFFF"></path>
                    <path d="M1.9,0 L3.3,0 L3.3,1.33333333 L1.9,1.33333333 L1.9,0 Z M1.9,2.66666667 L3.3,2.66666667 L3.3,4 L1.9,4 L1.9,2.66666667 Z M1.9,5.33333333 L3.3,5.33333333 L3.3,6.66666667 L1.9,6.66666667 L1.9,5.33333333 Z M1.9,8 L3.3,8 L3.3,9.33333333 L1.9,9.33333333 L1.9,8 Z M1.9,10.6666667 L3.3,10.6666667 L3.3,12 L1.9,12 L1.9,10.6666667 Z M1.9,13.3333333 L3.3,13.3333333 L3.3,14.6666667 L1.9,14.6666667 L1.9,13.3333333 Z" id="形状" fill="#FFFFFF"></path>
                    <path d="M10.72,4 L12.12,4 L12.12,5.33333333 L10.72,5.33333333 L10.72,4 Z M10.72,6.66666667 L12.12,6.66666667 L12.12,8 L10.72,8 L10.72,6.66666667 Z M10.72,9.33333333 L12.12,9.33333333 L12.12,10.6666667 L10.72,10.6666667 L10.72,9.33333333 Z M10.72,12 L12.12,12 L12.12,13.3333333 L10.72,13.3333333 L10.72,12 Z M10.72,14.6666667 L12.12,14.6666667 L12.12,16 L10.72,16 L10.72,14.6666667 Z" id="形状" fill="#FFFFFF"></path>
                    <path d="M8.63882,8.61847619 L5.86396,10.438819 C5.68204,10.5581714 5.43296,10.5144571 5.30764,10.3412 C5.26167247,10.2776403 5.23706,10.2022825 5.23706,10.1251048 L5.23706,6.48441905 C5.23706,6.2740381 5.41614,6.10346667 5.63706,6.10346667 C5.71809877,6.10346667 5.79722457,6.12691941 5.86396,6.17070476 L8.63882,7.99102857 C8.82076,8.11038095 8.86666,8.3476 8.74134,8.52085714 C8.71369697,8.55907906 8.67895301,8.59216854 8.63882,8.61849524 L8.63882,8.61847619 Z" id="路径" fill="#FFFFFF"></path>
                </g>
            </g>
        </g>
    </g>
</svg>