<?xml version="1.0" encoding="UTF-8"?>
<svg width="40px" height="40px" viewBox="0 0 40 40" version="1.1" xmlns="http://www.w3.org/2000/svg" xmlns:xlink="http://www.w3.org/1999/xlink">
    <title>1777D5E5-C3C3-4805-AB53-557A791639E2</title>
    <g id="图表" stroke="none" stroke-width="1" fill="none" fill-rule="evenodd">
        <g id="仪表盘页面示例" transform="translate(-416, -151)">
            <g id="编组-16备份-2" transform="translate(400, 135)">
                <g id="mysql" transform="translate(16, 16)">
                    <rect id="矩形" fill="#F5F7FA" x="0" y="0" width="40" height="40" rx="4"></rect>
                    <path d="M10,22.815 L10.0056186,22.9258235 C10.1549771,24.4264775 13.2633276,25.6247088 17.0762836,25.6247088 C19.2487005,25.6247088 21.190141,25.2349404 22.4880499,24.622748 C22.5696787,24.7220337 22.6538956,24.8188072 22.7405996,24.9129522 C22.8076071,24.9845619 22.868738,25.0640856 22.9318804,25.1451837 C23.0489758,25.2957001 23.1814919,25.4656188 23.3637016,25.6264533 C23.4312809,25.6834262 23.4779376,25.7332721 23.5269607,25.7850327 C23.6535215,25.9182105 23.7898239,26.0607491 24.137876,26.3000223 C23.9884995,27.8005276 20.8889625,29 17.0762836,29 C13.1679051,29 10,27.7405763 10,26.1874807 L10,22.815 Z M20.0179369,13.4674178 L20.1111795,13.4746179 C20.5818879,13.5358882 21.1202939,13.964376 21.3885405,14.2085211 C21.4968409,14.3059579 21.6080598,14.4968106 21.7259834,14.5701222 C21.9270254,14.606778 22.130907,14.6433487 22.3319687,14.6796003 C22.6996025,14.8258193 23.0461164,14.9435732 23.3233749,15.1773151 C24.6285604,16.2785423 25.4383287,17.3400501 26.12268,19.0265363 C26.2655095,19.3779895 26.3231501,19.753185 26.4275657,20.1389751 C26.5812805,20.7049169 26.7561939,21.2908566 26.9384037,21.8336093 C27.0252096,22.0910509 27.0788865,22.3678948 27.2015429,22.5953182 C27.2534056,22.6909892 27.4116756,22.7394949 27.4977322,22.8028075 C27.7553697,22.9930645 28.0590131,23.1483677 28.2984098,23.3653667 C28.7293634,23.755667 29.1400648,24.2108968 29.5139497,24.6635949 C29.6571736,24.837194 29.7396018,25.0772757 29.8677796,25.2654692 L29.8596354,25.3502264 C29.7268432,25.3788192 29.5932819,25.405476 29.4605883,25.4338561 C29.1668639,25.4880846 28.9218076,25.4410043 28.6367007,25.4954455 C28.4669932,25.5293356 28.248243,25.5792667 28.0677292,25.5821387 C28.0727577,25.589989 28.079561,25.5971372 28.0850627,25.6059235 C28.1580255,25.9571002 28.6961357,26.3056175 28.9281376,26.5436781 C29.2191999,26.8416475 29.4880183,27.1882289 29.6876602,27.5739339 L29.8955055,27.8782217 C29.9414326,27.9751479 29.9491824,28.0986246 30,28.1926575 L29.9985013,28.2133788 C29.9343138,28.1797865 29.2195745,28.0372267 28.4227029,27.6596059 C27.8396121,27.3838896 26.7419958,26.8519656 26.7090639,26.8174372 C25.7839605,26.3371005 25.1838262,26.0024512 24.781913,25.7582114 L24.581584,25.6336236 C24.1868297,25.3816705 24.0367425,25.2419541 23.9221071,25.1232303 L23.8709539,25.0695931 C23.8207944,25.016782 23.7713303,24.9654524 23.7019925,24.9066337 C23.4801265,24.710973 23.3395647,24.4731464 23.1638822,24.2844424 C22.825197,23.9203734 22.4376859,23.3963209 22.2356973,22.9107539 C22.1490886,22.6425899 22.062677,22.3706605 21.9766204,22.101986 L21.9787106,22.0808392 C21.9257831,22.1469175 21.9332765,22.2282921 21.8999503,22.331941 C21.7501203,22.7900429 21.7810802,23.3311574 21.400747,23.4622929 C20.965534,23.6125966 20.7100657,23.0686312 20.6046049,22.8153807 C20.2598855,21.9903591 20.2766275,20.6706013 20.6653809,19.6502594 C20.7514178,19.4235593 20.7850202,19.1375249 20.9162151,18.9655638 C20.9132769,18.7986023 20.8008353,18.737332 20.7429975,18.622748 C20.6490925,18.435363 20.5734676,18.2212361 20.5050403,18.0167891 C20.3681662,17.6110648 20.2968007,17.1412408 20.2021463,16.7085619 C20.1638901,16.5323034 20.1682482,16.3718731 20.1193237,16.2041031 C20.0460651,15.9500441 19.8951703,15.6863691 19.7803624,15.454861 C19.6163145,15.1242142 19.1344447,14.4648352 19.4086664,13.8784912 C19.5715508,13.5299526 19.8282614,13.4382599 20.1111795,13.4746179 Z M10.0001972,17.7501569 C10.0001972,19.3032525 13.1681811,20.5623571 17.076461,20.5623571 C17.9868391,20.5623571 18.8538931,20.4915984 19.6531508,20.3670154 C19.4761471,21.3602112 19.5426812,22.4190597 19.8603453,23.178705 C19.9391057,23.3673239 20.0255172,23.5263289 20.1186532,23.6612086 C19.1959701,23.8361268 18.1670768,23.9374355 17.076461,23.9374355 C13.1680825,23.9374355 10.0001972,22.6774162 10.0001972,21.1247035 Z M17.0765596,11 C20.9843662,11 24.1523699,12.25953 24.1523699,13.8125193 L24.1523699,14.9633797 C23.9209056,14.7381565 23.6824234,14.5214725 23.4373348,14.3137018 C23.1213864,14.0470696 22.7490002,13.901659 22.3893135,13.7613543 L22.246484,13.7051899 L21.6114516,13.5827557 C21.5838046,13.5528439 21.5503995,13.5108694 21.5253161,13.479511 C21.4605764,13.3983278 21.394693,13.3205273 21.3324972,13.2642565 C21.0013054,12.9632024 20.3527454,12.4454684 19.7286771,12.3642852 C19.2213296,12.2976112 18.7920916,12.5392247 18.5595968,13.0369395 C18.208429,13.7873942 18.6414728,14.5612508 18.8742438,14.9769527 C18.9112378,15.0431374 18.9448402,15.1027696 18.9703968,15.1543387 L19.058524,15.3272146 C19.1581083,15.5216627 19.2616563,15.7228335 19.3128485,15.9003046 C19.3353881,15.9783178 19.3423097,16.0545015 19.3511047,16.1320042 C19.362266,16.2265689 19.3739006,16.3219421 19.3955923,16.4223147 C19.4241255,16.5549025 19.4513926,16.6878037 19.4773894,16.8209971 C19.549031,17.1816622 19.623315,17.5549004 19.7398582,17.900567 C19.8192693,18.1387127 19.9088951,18.3903464 20.0224804,18.6171316 C19.1248807,18.7807318 18.1293137,18.8749774 17.0765596,18.8749774 C13.1680825,18.8749774 10.0001972,17.6150644 10.0001972,16.0624581 L10.0001972,13.8125193 C10.0001972,12.2594237 13.1681811,11 17.0765596,11 Z M21.9598784,15.1807828 C21.6882203,15.0946002 21.3653502,15.3727631 21.6127728,15.589762 C21.8251733,15.8738392 21.8996742,16.2403547 22.0031236,16.5918505 C22.4082444,16.400785 22.6448015,15.8081864 22.3282614,15.4216729 C22.2282236,15.3213003 22.1564637,15.1905903 22.0236715,15.1790596 C22.0024238,15.1767587 21.9809927,15.1773376 21.9598784,15.1807828 Z" id="形状结合" fill="#006EFF" fill-rule="nonzero"></path>
                </g>
            </g>
        </g>
    </g>
</svg>