<?xml version="1.0" encoding="UTF-8"?>
<svg width="14px" height="14px" viewBox="0 0 14 14" version="1.1" xmlns="http://www.w3.org/2000/svg" xmlns:xlink="http://www.w3.org/1999/xlink">
    <title>1A8DBB10-277C-49F6-968F-D68576292F90</title>
    <g id="组件" stroke="none" stroke-width="1" fill="none" fill-rule="evenodd">
        <g id="视图" transform="translate(-212, -1463)">
            <g id="编组-6备份" transform="translate(180, 1153)">
                <g id="编组-11" transform="translate(20, 16)">
                    <g id="编组-7" transform="translate(0, 30)">
                        <g id="编组-21备份-3" transform="translate(4, 255)">
                            <g id="上下切换" transform="translate(8, 9)">
                                <rect id="矩形" fill-rule="nonzero" x="0" y="0" width="14" height="14"></rect>
                                <path d="M11.5914,10.3096 L8.79145,13.1096 L8.25003,13.1096 C8.11196,13.1096 8.00003,12.9977 8.00003,12.8596 L8.00003,1.0318 C8.00003,0.921346 8.08957,0.831802 8.20003,0.831802 L9.10003,0.831802 C9.21049,0.831802 9.30003,0.921346 9.30003,1.0318 L9.30004,10.7626 L11.3086,8.75399 C11.4346,8.628 11.65,8.71723 11.65,8.89541 L11.65,10.1682 C11.65,10.2212 11.629,10.2721 11.5914,10.3096 Z M2.05859,3.69039 C2.02109,3.7279 2.00002,3.77877 2.00002,3.83181 L2.00002,5.1046 C2.00002,5.28278 2.21544,5.37201 2.34144,5.24602 L4.35002,3.23744 L4.35002,12.9682 C4.35002,13.0786 4.43957,13.1682 4.55002,13.1682 L5.45003,13.1682 C5.56048,13.1682 5.65003,13.0786 5.65003,12.9682 L5.65003,0.890379 L5.38619,0.890628 C5.21032,0.890876 5.03445,0.891125 4.8586,0.890379 L2.05859,3.69039 Z" id="形状结合" fill="#464F5C"></path>
                            </g>
                        </g>
                    </g>
                </g>
            </g>
        </g>
    </g>
</svg>