<?xml version="1.0" encoding="UTF-8"?>
<svg width="24px" height="24px" viewBox="0 0 24 24" version="1.1" xmlns="http://www.w3.org/2000/svg" xmlns:xlink="http://www.w3.org/1999/xlink">
    <title>20165E02-C2DA-4191-93F8-F913CA739B57</title>
    <g id="导航" stroke="none" stroke-width="1" fill="none" fill-rule="evenodd">
        <g id="带横向导航" transform="translate(-1295, -13)">
            <g id="待办任务" transform="translate(1295, 13)">
                <rect id="矩形" x="0" y="0" width="24" height="24" rx="2"></rect>
                <g id="图标/4.内容/14.日志" transform="translate(4, 4)">
                    <rect id="矩形" fill="#FFFFFF" opacity="0" x="0" y="0" width="16" height="16"></rect>
                    <path d="M10.5,5.85 C13.0681241,5.85 15.15,7.93187591 15.15,10.5 C15.15,13.0681241 13.0681241,15.15 10.5,15.15 C7.93187591,15.15 5.85,13.0681241 5.85,10.5 C5.85,7.93187591 7.93187591,5.85 10.5,5.85 Z M12.375,0.85 C13.3527428,0.85 14.15,1.58592971 14.15,2.5 L14.15,5.52120629 C14.15,5.88299183 13.8377677,6.17120629 13.4583333,6.17120629 C13.0864762,6.17120629 12.85,5.89400526 12.85,5.52120629 L12.85,2.5 C12.85,2.30950079 12.6772075,2.15 12.4583333,2.15 L2.625,2.15 C2.38525525,2.15 2.15,2.32909457 2.15,2.5 L2.15,12.5 C2.15,12.6709054 2.38525525,12.85 2.625,12.85 L5.33333333,12.85 C5.71276767,12.85 6.025,13.1382145 6.025,13.5 C6.025,13.8617855 5.71276767,14.15 5.33333333,14.15 L2.625,14.15 C1.64725718,14.15 0.85,13.4140703 0.85,12.5 L0.85,2.5 C0.85,1.58592971 1.64725718,0.85 2.625,0.85 L12.375,0.85 Z M10.5,7.15 C8.64984609,7.15 7.15,8.64984609 7.15,10.5 C7.15,12.3501539 8.64984609,13.85 10.5,13.85 C12.3501539,13.85 13.85,12.3501539 13.85,10.5 C13.85,8.64984609 12.3501539,7.15 10.5,7.15 Z M10.5,7.85 C10.8589851,7.85 11.15,8.14101491 11.15,8.5 L11.15,9.85 L12,9.85 C12.2804315,9.85 12.52359,10.0287744 12.614581,10.2935798 L12.6413454,10.3967334 L12.65,10.5 C12.65,10.8589851 12.3589851,11.15 12,11.15 L10,11.15 L9.85,11 L9.85,8.5 C9.85,8.14101491 10.1410149,7.85 10.5,7.85 Z M5.5,6.85 C5.85898509,6.85 6.15,7.14101491 6.15,7.5 C6.15,7.85898509 5.85898509,8.15 5.5,8.15 L4.5,8.15 C4.14101491,8.15 3.85,7.85898509 3.85,7.5 C3.85,7.14101491 4.14101491,6.85 4.5,6.85 L5.5,6.85 Z M9.5,3.85 C9.85898509,3.85 10.15,4.14101491 10.15,4.5 C10.15,4.85898509 9.85898509,5.15 9.5,5.15 L4.5,5.15 C4.14101491,5.15 3.85,4.85898509 3.85,4.5 C3.85,4.14101491 4.14101491,3.85 4.5,3.85 L9.5,3.85 Z" id="形状" fill="#464F5C"></path>
                </g>
            </g>
        </g>
    </g>
</svg>