<?xml version="1.0" encoding="UTF-8"?>
<svg width="16px" height="16px" viewBox="0 0 16 16" version="1.1" xmlns="http://www.w3.org/2000/svg" xmlns:xlink="http://www.w3.org/1999/xlink">
    <title>204DF59D-4D02-4643-9307-F62ADD2B756A</title>
    <g id="组件" stroke="none" stroke-width="1" fill="none" fill-rule="evenodd">
        <g id="上传" transform="translate(-572, -2819)">
            <g id="图片" transform="translate(572, 2819)">
                <rect id="矩形" x="0" y="0" width="16" height="16"></rect>
                <g id="编组" transform="translate(1, 0)" fill-rule="nonzero">
                    <path d="M13,15.4285714 C13,15.7441714 12.7505671,16 12.4428571,16 L0.557142857,16 C0.249432857,16 0,15.7441714 0,15.4285714 L0,0.571428571 C0,0.255828571 0.249432857,0 0.557142857,0 L9.39714286,0 L13,3.6952381 L13,15.4285714 Z" id="路径" fill="#FFA542"></path>
                    <path d="M13,3.6952381 L9.95428571,3.6952381 C9.64657571,3.6952381 9.39714286,3.43940952 9.39714286,3.12380952 L9.39714286,0" id="路径" fill-opacity="0.4" fill="#FFFFFF"></path>
                    <path d="M8.74788571,7.71714286 L10.5366857,10.954781 C10.6276857,11.1195238 10.5712843,11.3287429 10.41066,11.4220952 C10.3603978,11.4513105 10.3036112,11.4666667 10.2458386,11.4666667 L6.66827571,11.4666667 C6.48363857,11.4666667 6.33399,11.3131619 6.33399,11.1238095 C6.33399,11.064562 6.34896534,11.0063263 6.37744714,10.954781 L8.16622857,7.71714286 C8.25722857,7.5524 8.46123571,7.49453333 8.62186,7.58788571 C8.67449945,7.61848009 8.7180562,7.66315367 8.74788571,7.71714286 L8.74788571,7.71714286 Z" id="路径" fill="#FFFFFF" opacity="0.699999988"></path>
                    <path d="M5.16768571,5.8216381 L8.00374714,10.954781 C8.09476571,11.1195238 8.03834571,11.3287429 7.87772143,11.4220952 C7.8274647,11.4513073 7.77068493,11.4666667 7.71291857,11.4666667 L2.04079571,11.4666667 C1.85617714,11.4666667 1.70651,11.3131619 1.70651,11.1238095 C1.70651,11.064562 1.72148534,11.0063263 1.74996714,10.954781 L4.58601,5.8216381 C4.67704714,5.65689524 4.88103571,5.59902857 5.04166,5.69238095 C5.09429945,5.72297533 5.1378562,5.76764891 5.16768571,5.8216381 L5.16768571,5.8216381 Z" id="路径" fill="#FFFFFF"></path>
                    <path d="M8.49457143,5.66247619 C8.49457143,6.18846167 8.91030702,6.61485714 9.42314286,6.61485714 C9.9359787,6.61485714 10.3517143,6.18846167 10.3517143,5.66247619 C10.3517143,5.13649071 9.9359787,4.71009524 9.42314286,4.71009524 C8.91030702,4.71009524 8.49457143,5.13649071 8.49457143,5.66247619 Z" id="路径" fill="#FFFFFF"></path>
                </g>
            </g>
        </g>
    </g>
</svg>