<?xml version="1.0" encoding="UTF-8"?>
<svg width="10px" height="10px" viewBox="0 0 10 10" version="1.1" xmlns="http://www.w3.org/2000/svg" xmlns:xlink="http://www.w3.org/1999/xlink">
    <title>227A53F9-78CA-4CC0-8B51-E2D277440FD9</title>
    <g id="组件" stroke="none" stroke-width="1" fill="none" fill-rule="evenodd">
        <g id="上传" transform="translate(-540, -410)" fill-rule="nonzero">
            <g id="编组-2备份-5" transform="translate(180, 401)">
                <g id="下载-1" transform="translate(360, 9)">
                    <rect id="矩形" x="0" y="0" width="10" height="10"></rect>
                    <path d="M0.75,5.17572857 C0.848621429,5.17572857 0.928571429,5.25567857 0.928571429,5.3543 L0.928571429,8.92857143 C0.928571429,9.0075 0.992528571,9.07142857 1.07142857,9.07142857 L8.92857143,9.07142857 C9.0075,9.07142857 9.07142857,9.0075 9.07142857,8.92857143 L9.07142857,5.3543 C9.07142857,5.25567857 9.15135714,5.17572857 9.25,5.17572857 L9.82142857,5.17572857 C9.92007143,5.17572857 10,5.25567857 10,5.3543 L10,9.28571429 C10,9.68021429 9.68021429,10 9.28571429,10 L0.714285714,10 C0.319796429,10 0,9.68021429 0,9.28571429 L0,5.3543 C0,5.25567857 0.0799492857,5.17572857 0.178571429,5.17572857 Z M5.28571429,0.714285714 C5.38433571,0.714285714 5.46428571,0.794235714 5.46428571,0.892857143 L5.46428571,6.07142857 L6.35998571,5.17572857 C6.42972143,5.10599286 6.54278571,5.10599286 6.61252143,5.17572857 L7.01658571,5.57979286 C7.08632143,5.64952857 7.08632143,5.76259286 7.01658571,5.83232857 L5.12626429,7.72264286 C5.05652857,7.79235714 4.94346429,7.79235714 4.87372857,7.72264286 L2.98341429,5.83232857 C2.91367857,5.76259286 2.91367857,5.64952857 2.98341429,5.57979286 L3.38747143,5.17572857 C3.45720714,5.10599286 3.57027143,5.10599286 3.64001429,5.17572857 L4.53570714,6.07142857 L4.53570714,0.892857143 C4.53570714,0.794235714 4.61565714,0.714285714 4.71427857,0.714285714 Z" id="形状结合" fill="#78858F"></path>
                </g>
            </g>
        </g>
    </g>
</svg>