<?xml version="1.0" encoding="UTF-8"?>
<svg width="16px" height="16px" viewBox="0 0 16 16" version="1.1" xmlns="http://www.w3.org/2000/svg" xmlns:xlink="http://www.w3.org/1999/xlink">
    <title>2666046B-7799-4DE8-8626-3BEE8E131E3A</title>
    <g id="组件" stroke="none" stroke-width="1" fill="none" fill-rule="evenodd">
        <g id="排序" transform="translate(-1192, -1384)" fill-rule="nonzero">
            <g id="编组-23" transform="translate(768, 1106)">
                <g id="Back-to-top" transform="translate(424, 278)">
                    <rect id="矩形" x="0" y="0" width="16" height="16"></rect>
                    <path d="M12.75,3.3 C12.8881,3.3 13,3.18807 13,3.05 L13,2.25 C13,2.11193 12.8881,2 12.75,2 L3.25,2 C3.11193,2 3,2.11193 3,2.25 L3,3.05 C3,3.18807 3.11193,3.3 3.25,3.3 L12.75,3.3 Z M8.10839,4.00723 L8.00079,3.99899 L7.8932,4.00723 C7.78628,4.0237 7.68243,4.06488 7.59087,4.13076 L7.50374,4.20488 L4.07252,7.63609 L4.03167,7.68963 C3.97721,7.78543 3.99082,7.90943 4.07252,7.99113 L4.64059,8.5592 L4.69407,8.60009 C4.73237,8.62191 4.77519,8.63281 4.81801,8.63282 L4.88168,8.62466 C4.90254,8.61922 4.92282,8.61105 4.94198,8.60016 L4.99551,8.55909 L7.34745,6.20422 L7.34805,13.7499 L7.35469,13.8075 C7.38072,13.9184 7.48027,14.001 7.59911,14.001 L8.40247,14.001 L8.47103,13.9915 C8.5582,13.9668 8.62608,13.8962 8.64689,13.8075 L8.65351,13.7499 L8.65291,6.20623 L11.0024,8.5556 L11.0559,8.59645 C11.0942,8.61823 11.137,8.62912 11.1799,8.62912 L11.2436,8.62095 C11.2853,8.61006 11.3247,8.58827 11.3574,8.5556 L11.9255,7.98753 L11.9545,7.95276 C11.9715,7.9283 11.9836,7.9015 11.9908,7.8737 L11.9989929,7.81001 L11.9908,7.74633 C11.9799,7.70462 11.9581,7.66517 11.9255,7.63249 L8.49785,4.20488 L8.41072,4.13076 C8.31915,4.06488 8.21531,4.0237 8.10839,4.00723 Z" id="形状结合" fill="#60666E"></path>
                </g>
            </g>
        </g>
    </g>
</svg>