<?xml version="1.0" encoding="UTF-8"?>
<svg width="18px" height="18px" viewBox="0 0 18 18" version="1.1" xmlns="http://www.w3.org/2000/svg" xmlns:xlink="http://www.w3.org/1999/xlink">
    <title>2824C556-E4A4-441D-8FF0-79BEF975D152</title>
    <g id="弹窗" stroke="none" stroke-width="1" fill="none" fill-rule="evenodd">
        <g id="弹窗蒙层" transform="translate(-717, -462)" fill="#F54545" fill-rule="nonzero">
            <g id="编组" transform="translate(717, 462)">
                <path d="M9,0 C13.9705714,0 18,4.02944143 18,9 C18,13.9705714 13.9705714,18 9,18 C4.02944143,18 0,13.9705714 0,9 C0,4.02944143 4.02944143,0 9,0 Z M6.13621286,4.95433286 C6.03578571,4.85391857 5.87297571,4.85391857 5.77254857,4.95433286 L4.95433286,5.77256143 C4.85390571,5.87298857 4.85390571,6.03579857 4.95433286,6.13621286 L7.81810714,9 L4.95433286,11.8637871 C4.85390571,11.9642014 4.85390571,12.1270114 4.95433286,12.2274386 L5.77254857,13.0456286 C5.87297571,13.1460429 6.03578571,13.1460429 6.13621286,13.0456286 L8.99998714,10.18188 L11.8637743,13.0456286 C11.9641886,13.1460429 12.1270114,13.1460429 12.2274257,13.0456286 L13.0456286,12.2274386 C13.1460429,12.1270114 13.1460429,11.9642014 13.0456286,11.8637871 L10.1818671,9 L13.0456286,6.13621286 C13.1460429,6.03579857 13.1460429,5.87298857 13.0456286,5.77256143 L12.2274257,4.95433286 C12.1270114,4.85391857 11.9641886,4.85391857 11.8637743,4.95433286 L8.99998714,7.81812 L6.13621286,4.95433286 Z" id="形状"></path>
            </g>
        </g>
    </g>
</svg>