<?xml version="1.0" encoding="UTF-8"?>
<svg width="16px" height="16px" viewBox="0 0 16 16" version="1.1" xmlns="http://www.w3.org/2000/svg" xmlns:xlink="http://www.w3.org/1999/xlink">
    <title>314F69B7-6717-4347-9675-448C6F0A816E</title>
    <g id="导航" stroke="none" stroke-width="1" fill="none" fill-rule="evenodd">
        <g id="顶部导航" transform="translate(-638, -322)">
            <g id="编组-23备份" transform="translate(626, 274)">
                <g id="编组-21" transform="translate(4, 40)">
                    <g id="缺陷" transform="translate(8, 8)">
                        <rect id="矩形" x="0" y="0" width="16" height="16"></rect>
                        <g id="编组" transform="translate(1, 1)" fill="#464F5C" fill-rule="nonzero">
                            <path d="M13.6932289,2.08372881 C13.9444599,2.18840673 14.0655823,2.48195032 13.9639247,2.73976731 C13.4983235,3.91413458 12.5797395,4.83865233 11.4260701,5.29401552 L11.4260701,7.38513821 C11.4620826,7.37195606 11.4994803,7.36315756 11.5374945,7.35892355 L11.6036937,7.35623487 L12.914569,7.39387643 C13.1743498,7.39947069 13.3850193,7.61143294 13.3954322,7.87769047 C13.4058452,8.14394799 13.2124048,8.37253163 12.9538953,8.39944362 L12.8870406,8.4021323 L11.5761653,8.36449074 C11.5247501,8.36300378 11.4738809,8.35325068 11.4254147,8.33558742 L11.4260701,9.2887253 C11.4265945,9.75917797 11.3544773,10.2267486 11.2123974,10.6740689 C12.4620727,11.0943818 13.4683043,12.0569829 13.9639247,13.3062889 C14.0299593,13.4731886 14.0041544,13.6635387 13.8962305,13.8056361 C13.7883066,13.9477336 13.6146599,14.0199904 13.4407014,13.9951882 C13.2667428,13.970386 13.118901,13.8522928 13.0528663,13.6853931 C12.6507399,12.6738755 11.8213459,11.9051976 10.7994717,11.5969591 C9.99320857,12.9558284 8.55292378,13.7835805 7.00186601,13.779497 C5.45104247,13.7833652 4.01115286,12.9552995 3.20557118,11.5962869 C2.18301532,11.904226 1.35302544,12.6732563 0.95086568,13.6853931 C0.884831061,13.8522928 0.73698919,13.970386 0.563030668,13.9951882 C0.389072147,14.0199904 0.215425413,13.9477336 0.107501511,13.8056361 C-0.000422390924,13.6635386 -0.0262272533,13.4731886 0.0398073659,13.3062889 C0.535999299,12.0566053 1.54257726,11.0936399 2.79264547,10.6727245 C2.68297301,10.3271457 2.6147423,9.96915682 2.58945979,9.60666198 L2.58028367,9.44937406 L2.57766192,9.2887253 L2.57766192,8.37322896 C2.54186008,8.38636011 2.50468523,8.39515793 2.46689295,8.39944362 L2.40003831,8.4021323 L1.08916303,8.36449074 C0.829382221,8.35889648 0.618712743,8.14693423 0.608299801,7.8806767 C0.59788686,7.61441918 0.791327234,7.38583554 1.04983677,7.35892355 L1.11669141,7.35623487 L2.42756669,7.39387643 C2.47898194,7.39536339 2.52985109,7.40511649 2.57831736,7.42277975 L2.57831736,5.2946877 C1.42448781,4.83898067 0.505741163,3.91429471 0.0398073659,2.73976731 C-0.030361131,2.57199612 -0.0066064533,2.37843065 0.101910101,2.23372193 C0.210426655,2.0890132 0.386748327,2.01577335 0.562874388,2.04224828 C0.739000449,2.0687232 0.887409501,2.19077593 0.95086568,2.36133526 C1.47186719,3.66647879 2.68750474,4.53988474 4.06157274,4.59630246 L4.21494514,4.5996633 L9.77961074,4.5996633 L9.93232772,4.59697463 C11.3101713,4.54431892 12.530599,3.66997104 13.0528663,2.36133526 C13.1017567,2.23731172 13.1967099,2.13830158 13.3168163,2.08610764 C13.4369227,2.03391369 13.572333,2.03281613 13.6932289,2.08305664 L13.6932289,2.08372881 Z M10.1387906,5.5938036 L9.96182241,5.60455833 L9.7894423,5.60791918 L4.21494514,5.60791918 C3.99340723,5.60791918 3.77514649,5.59111491 3.56016294,5.5595229 L3.56016294,9.27931492 L3.56344014,9.42047074 C3.62505128,11.1244232 4.8893905,12.5017007 6.51094322,12.7362882 L6.51094322,9.20470398 C6.51334879,8.94145662 6.71286398,8.72442985 6.96897157,8.70647417 C7.22507916,8.68851848 7.45153867,8.87568021 7.48885617,9.13614258 L7.49344424,9.20470398 L7.49409969,12.7362882 C9.11303067,12.5017007 10.3701601,11.1298005 10.4396365,9.43593066 L10.4429136,9.2887253 L10.4429136,5.55885074 C10.3426317,5.57431065 10.2410388,5.58573756 10.1387906,5.59447577 L10.1387906,5.5938036 Z M7.00186601,0 C8.72894421,0 10.2331736,1.0647182 10.596286,2.60734969 C10.6399236,2.78331514 10.5879216,2.96975176 10.4601468,3.09543349 C10.332372,3.22111521 10.1485661,3.26662374 9.97895013,3.21457302 C9.80933415,3.1625223 9.68011444,3.02095439 9.64065796,2.84395374 C9.39093622,1.78125205 8.29766623,1.00825588 7.00186601,1.00825588 C5.72376261,1.00825588 4.62983717,1.78326856 4.36831755,2.84193723 C4.30153072,3.11182112 4.03405157,3.27508161 3.77088615,3.20658976 C3.50772072,3.13809791 3.34852441,2.86379017 3.41531122,2.59390629 C3.79349875,1.06404604 5.29576183,0 7.00186601,0 Z" id="形状"></path>
                        </g>
                    </g>
                </g>
            </g>
        </g>
    </g>
</svg>