<?xml version="1.0" encoding="UTF-8"?>
<svg width="14px" height="14px" viewBox="0 0 14 14" version="1.1" xmlns="http://www.w3.org/2000/svg" xmlns:xlink="http://www.w3.org/1999/xlink">
    <title>3469E0B3-E1DB-42E2-B2C1-B8EF069FEA9C</title>
    <g id="组件" stroke="none" stroke-width="1" fill="none" fill-rule="evenodd">
        <g id="日期时间选择" transform="translate(-385, -788)" fill="#78858F" fill-rule="nonzero">
            <g id="编组-3" transform="translate(384, 787)">
                <g id="时间" transform="translate(1, 1)">
                    <path d="M7,-4.4408921e-16 C10.8659932,-4.4408921e-16 14,3.13400675 14,7 C14,10.8659932 10.8659932,14 7,14 C3.13400675,14 -4.4408921e-16,10.8659932 -4.4408921e-16,7 C-4.4408921e-16,3.13400675 3.13400675,-4.4408921e-16 7,-4.4408921e-16 L7,-4.4408921e-16 Z M7,1.4 C4.99931268,1.4 3.15060134,2.46735393 2.15025767,4.19999998 C1.149914,5.93264602 1.149914,8.06735398 2.15025767,9.80000002 C3.15060134,11.5326461 4.99931268,12.6 7,12.6 C10.0927946,12.6 12.5999999,10.0927946 12.5999999,7 C12.5999999,3.90720543 10.0927946,1.4 7,1.4 Z M7.4,4 L7.4,6.576 L9.387,6.576 L9.387,7.933 L6,7.933 L6,4 L7.4,4 Z" id="形状"></path>
                </g>
            </g>
        </g>
    </g>
</svg>