<?xml version="1.0" encoding="UTF-8"?>
<svg width="12px" height="12px" viewBox="0 0 12 12" version="1.1" xmlns="http://www.w3.org/2000/svg" xmlns:xlink="http://www.w3.org/1999/xlink">
    <title>3793A43C-3129-4DBB-975F-43B1E3639B3F</title>
    <g id="组件" stroke="none" stroke-width="1" fill="none" fill-rule="evenodd">
        <g id="规则配置" transform="translate(-612, -1823)">
            <g id="编组-5备份" transform="translate(180, 1813)">
                <g id="输入框/常规备份-8" transform="translate(416, 0)">
                    <g id="编组-4" transform="translate(16, 10)">
                        <rect id="矩形" x="0" y="0" width="12" height="12"></rect>
                        <g id="编组" transform="translate(1.5, 1.25)" fill="#006EFF">
                            <path d="M4.5,-2.46519033e-32 C4.77614237,1.69088438e-17 5,0.223857625 5,0.5 L5,4 L8.5,4 C8.77614237,4 9,4.22385763 9,4.5 C9,4.77614237 8.77614237,5 8.5,5 L4.999,5 L5,8.5 C5,8.77614237 4.77614237,9 4.5,9 C4.22385763,9 4,8.77614237 4,8.5 L3.999,5 L0.5,5 C0.223857625,5 3.38176876e-17,4.77614237 0,4.5 C-3.38176876e-17,4.22385763 0.223857625,4 0.5,4 L4,4 L4,0.5 C4,0.223857625 4.22385763,-1.69088438e-17 4.5,-2.46519033e-32 Z" id="形状结合"></path>
                        </g>
                    </g>
                </g>
            </g>
        </g>
    </g>
</svg>