<?xml version="1.0" encoding="UTF-8"?>
<svg width="18px" height="18px" viewBox="0 0 18 18" version="1.1" xmlns="http://www.w3.org/2000/svg" xmlns:xlink="http://www.w3.org/1999/xlink">
    <title>39328BF2-C27C-49AE-B971-AF70001F9BEF</title>
    <g id="弹窗" stroke="none" stroke-width="1" fill="none" fill-rule="evenodd">
        <g id="弹窗蒙层" transform="translate(-141, -462)" fill="#12B02C">
            <g id="编组" transform="translate(141, 462)">
                <path d="M9,0 C13.9705714,0 18,4.02944143 18,9 C18,13.9705714 13.9705714,18 9,18 C4.02944143,18 0,13.9705714 0,9 C0,4.02944143 4.02944143,0 9,0 Z M13.3214143,5.78572714 C13.2208714,5.68586571 13.0584857,5.68613571 12.9583286,5.78631857 L8.64140143,10.1032457 L6.19986857,7.66172571 C6.09945429,7.56129857 5.93664429,7.56129857 5.83621714,7.66172571 L5.01798857,8.47994143 C4.91757429,8.58036857 4.91757429,8.74317857 5.01798857,8.84360571 L8.18682429,12.0124286 C8.43787286,12.26349 8.84491714,12.26349 9.09596571,12.0124286 L14.1428571,6.96552429 C14.2435286,6.86487857 14.2432714,6.70160571 14.1422143,6.60128143 Z" id="形状结合"></path>
            </g>
        </g>
    </g>
</svg>