<?xml version="1.0" encoding="UTF-8"?>
<svg width="14px" height="14px" viewBox="0 0 14 14" version="1.1" xmlns="http://www.w3.org/2000/svg" xmlns:xlink="http://www.w3.org/1999/xlink">
    <title>3D8D74C0-C1B7-40CB-8AA4-DC1ACC591BA2</title>
    <g id="组件" stroke="none" stroke-width="1" fill="none" fill-rule="evenodd">
        <g id="上传" transform="translate(-324, -725)" fill-rule="nonzero">
            <g id="预览" transform="translate(324, 725)">
                <rect id="矩形" x="1.25000952e-08" y="0" width="14" height="14"></rect>
                <g id="编组" transform="translate(0, 2)" fill="#FFFFFF">
                    <path d="M6.91650001,0 C9.51387001,0 11.795,1.58117 13.7599,4.74351 C13.8574,4.90036 13.8574,5.09964 13.7599,5.25649 C11.795,8.4188 9.51387001,10 6.91650001,10 C4.31913001,10 2.03799001,8.4188 0.0730911125,5.25649 C-0.0243635875,5.09964 -0.0243637875,4.90036 0.0730910125,4.74351 C2.03799001,1.58117 4.31913001,0 6.91650001,0 Z M6.91650001,1.3 C5.04484001,1.3 3.20977001,2.3547 1.45315001,5 C3.20977001,7.6453 5.04484001,8.7 6.91650001,8.7 C8.78815001,8.7 10.6232,7.6453 12.3798,5 C10.6232,2.3547 8.78815001,1.3 6.91650001,1.3 Z M6.91651001,2.85001 C8.10392001,2.85001 9.06651001,3.81259 9.06651001,5.00001 C9.06651001,6.18742 8.10392001,7.15001 6.91651001,7.15001 C5.72910001,7.15001 4.76651001,6.18742 4.76651001,5.00001 C4.76651001,3.81259 5.72910001,2.85001 6.91651001,2.85001 Z M6.91651001,4.15001 C6.44707001,4.15001 6.06651001,4.53056 6.06651001,5.00001 C6.06651001,5.46945 6.44707001,5.85001 6.91651001,5.85001 C7.38595001,5.85001 7.76651001,5.46945 7.76651001,5.00001 C7.76651001,4.53056 7.38595001,4.15001 6.91651001,4.15001 Z" id="形状结合"></path>
                </g>
            </g>
        </g>
    </g>
</svg>