<?xml version="1.0" encoding="UTF-8"?>
<svg width="14px" height="14px" viewBox="0 0 14 14" version="1.1" xmlns="http://www.w3.org/2000/svg" xmlns:xlink="http://www.w3.org/1999/xlink">
    <title>40D042E3-13A4-4530-95C2-17AAC81B5AE2</title>
    <g id="图表" stroke="none" stroke-width="1" fill="none" fill-rule="evenodd">
        <g id="甘特图" transform="translate(-339, -4335)" fill-rule="nonzero">
            <g id="编组-9" transform="translate(334, 4330)">
                <g id="左双箭头" transform="translate(5, 5)">
                    <rect id="矩形" x="0" y="0" width="14" height="14"></rect>
                    <path d="M10.9039,1.13078 C11.0015,1.03315 11.1598,1.03315 11.2574,1.13078 L11.8231,1.69647 C11.9208,1.79411 11.9208,1.9524 11.8231,2.05003 L6.87319,6.99996 L11.8233,11.95 C11.9209,12.0477 11.9209,12.206 11.8233,12.3036 L11.2576,12.8693 C11.1599,12.9669 11.0017,12.9669 10.904,12.8693 L5.2822,7.24745 C5.14551,7.11077 5.14551,6.88916 5.2822,6.75248 Z M6.90389,1.13078 C7.00152,1.03315 7.15982,1.03315 7.25745,1.13078 L7.82313,1.69647 C7.92076,1.79411 7.92075,1.9524 7.82312,2.05003 L2.87319,6.99996 L7.82326,11.95 C7.92089,12.0477 7.92089,12.206 7.82326,12.3036 L7.25758,12.8693 C7.15994,12.9669 7.00165,12.9669 6.90402,12.8693 L1.2822,7.24745 C1.14551,7.11077 1.14551,6.88916 1.2822,6.75248 Z" id="形状结合" fill="#78858F"></path>
                </g>
            </g>
        </g>
    </g>
</svg>