<?xml version="1.0" encoding="UTF-8"?>
<svg width="16px" height="16px" viewBox="0 0 16 16" version="1.1" xmlns="http://www.w3.org/2000/svg" xmlns:xlink="http://www.w3.org/1999/xlink">
    <title>42715D9E-902A-4101-B094-9A9AF8041B12</title>
    <g id="导航" stroke="none" stroke-width="1" fill="none" fill-rule="evenodd">
        <g id="双导航" transform="translate(-83, -2221)" fill-rule="nonzero">
            <g id="展开" transform="translate(83, 2221)">
                <rect id="矩形" x="0" y="0" width="16" height="16"></rect>
                <path d="M4.28008995,2.8985287 L3.79522533,3.38338475 C3.67240048,3.50613417 3.67240048,3.70516411 3.79520346,3.82787911 L7.96784357,7.99947786 L3.79499598,12.1721827 C3.68985255,12.2774338 3.67483205,12.4386549 3.7499573,12.5598411 L3.79503218,12.6166535 L4.27995411,13.1015754 C4.4027411,13.2242368 4.60160176,13.2242368 4.72442528,13.1015389 L9.54310809,8.28281326 C9.69932683,8.12660596 9.69932683,7.87333404 9.54311068,7.71712932 L4.72452154,2.89854019 C4.60180949,2.77579041 4.40279051,2.77579041 4.28008995,2.8985287 Z M8.70861727,2.89852995 L8.2237457,3.38341009 C8.10101504,3.50615332 8.10102281,3.70514417 8.22375789,3.82787925 L12.3958436,7.99947786 L8.22361256,12.1721718 C8.11843467,12.2774251 8.10340925,12.4386588 8.17855149,12.5598425 L8.22363664,12.6166523 L8.70852095,13.1015537 C8.8312621,13.2242446 9.03023619,13.2242446 9.15297944,13.1015391 L13.9716795,8.28281326 C14.1278983,8.12660596 14.1278983,7.87333404 13.9716822,7.71712938 L9.15309068,2.89852932 C9.03035539,2.77579404 8.83135318,2.77579404 8.70861727,2.89852995 Z" id="形状" fill="#60666E"></path>
            </g>
        </g>
    </g>
</svg>