<?xml version="1.0" encoding="UTF-8"?>
<svg width="40px" height="40px" viewBox="0 0 40 40" version="1.1" xmlns="http://www.w3.org/2000/svg" xmlns:xlink="http://www.w3.org/1999/xlink">
    <title>4ACE888A-A7D8-4C53-96EC-8A548EE3E1C3</title>
    <g id="图表" stroke="none" stroke-width="1" fill="none" fill-rule="evenodd">
        <g id="数值统计" transform="translate(-176, -3051)">
            <g id="编组-16备份-7" transform="translate(160, 3035)">
                <g id="主机" transform="translate(16, 16)">
                    <rect id="矩形" fill="#F5F7FA" x="0" y="0" width="40" height="40" rx="4"></rect>
                    <path d="M29.3127473,23.3932721 L10.6872527,23.3932721 C10.3009866,23.3932721 10.0005574,23.6889105 10.0005574,24.0677657 L10.0005574,28.3255064 C10.0005574,28.704909 10.301544,29 10.6872527,29 L29.3133047,29 C29.6995708,29 30,28.7049091 30,28.3255064 L30,24.0256098 C30,23.688363 29.6995708,23.3932721 29.3133047,23.3932721 L29.3127473,23.3932721 Z M13.0472103,27.608857 L11.9313305,27.608857 L11.9313305,24.7001034 L13.0472103,24.7001034 L13.0472103,27.608857 L13.0472103,27.608857 Z M15.5364807,27.608857 L14.4206009,27.608857 L14.4206009,24.7001034 L15.5364807,24.7001034 L15.5364807,27.608857 L15.5364807,27.608857 Z M26.5230478,27.5245453 C26.1573383,27.5293037 25.8051893,27.3887072 25.546571,27.1346842 C25.2879526,26.8806612 25.1448127,26.5347694 25.1496572,26.1755581 C25.1448127,25.8163469 25.2879527,25.470455 25.546571,25.2164321 C25.8051893,24.9624091 26.1573383,24.8218126 26.5230478,24.826571 C26.8887572,24.8218126 27.2409063,24.9624091 27.4995246,25.2164321 C27.7581429,25.470455 27.9012828,25.8163469 27.8964383,26.1755581 C27.8964383,26.9343634 27.2526615,27.5245453 26.5230478,27.5245453 L26.5230478,27.5245453 Z M29.3127473,17.1969098 L10.6872527,17.1969098 C10.3009866,17.1969098 10.0005574,17.4920007 10.0005574,17.8714034 L10.0005574,22.1291441 C10.0005574,22.5085467 10.301544,22.8036377 10.6872527,22.8036377 L29.3133047,22.8036377 C29.6995708,22.8036377 30,22.5079993 30,22.1291441 L30,17.8292475 C30,17.4920007 29.6995708,17.1969098 29.3133047,17.1969098 L29.3127473,17.1969098 Z M13.0472103,21.4124947 L11.9313305,21.4124947 L11.9313305,18.5037411 L13.0472103,18.5037411 L13.0472103,21.4124947 L13.0472103,21.4124947 Z M15.5364807,21.4124947 L14.4206009,21.4124947 L14.4206009,18.5037411 L15.5364807,18.5037411 L15.5364807,21.4124947 L15.5364807,21.4124947 Z M26.5230478,21.328183 C26.1573383,21.3329414 25.8051893,21.1923449 25.546571,20.9383219 C25.2879527,20.6842989 25.1448127,20.3384071 25.1496572,19.9791958 C25.1448127,19.6199846 25.2879526,19.2740927 25.546571,19.0200697 C25.8051893,18.7660468 26.1573383,18.6254503 26.5230478,18.6302086 C26.8887572,18.6254502 27.2409063,18.7660467 27.4995246,19.0200697 C27.7581429,19.2740927 27.9012828,19.6199846 27.8964383,19.9791958 C27.8964383,20.7380011 27.2526615,21.328183 26.5230478,21.328183 L26.5230478,21.328183 Z M29.3127473,11.0005475 L10.6872527,11.0005475 C10.3004292,11.0005475 10,11.2945435 10,11.6739461 L10,15.9316868 C10,16.3110895 10.3009866,16.6061804 10.6866953,16.6061804 L29.3127473,16.6061804 C29.6990134,16.6061804 29.9994426,16.3110895 29.9994426,15.9316868 L29.9994426,11.6323377 C29.9994426,11.2950909 29.6990134,11 29.3127473,11 L29.3127473,11.0005475 Z M13.0472103,15.2150374 L11.9313305,15.2150374 L11.9313305,12.3068313 L13.0472103,12.3068313 L13.0472103,15.2161324 L13.0472103,15.2150374 Z M15.5364807,15.2150374 L14.4206009,15.2150374 L14.4206009,12.3068313 L15.5364807,12.3068313 L15.5364807,15.2161324 L15.5364807,15.2150374 Z M26.5230478,15.1307257 C26.1573383,15.1354841 25.8051893,14.9948876 25.546571,14.7408646 C25.2879526,14.4868416 25.1448127,14.1409498 25.1496572,13.7817385 C25.1448127,13.4225273 25.2879527,13.0766355 25.546571,12.8226125 C25.8051893,12.5685895 26.1573383,12.427993 26.5230478,12.4327514 C26.8887572,12.427993 27.2409063,12.5685895 27.4995246,12.8226125 C27.7581429,13.0766355 27.9012828,13.4225273 27.8964383,13.7817385 C27.8964383,14.5405438 27.2526615,15.1307257 26.5230478,15.1307257 L26.5230478,15.1307257 Z" id="形状" fill="#006EFF" fill-rule="nonzero"></path>
                </g>
            </g>
        </g>
    </g>
</svg>