<?xml version="1.0" encoding="UTF-8"?>
<svg width="14px" height="14px" viewBox="0 0 14 14" version="1.1" xmlns="http://www.w3.org/2000/svg" xmlns:xlink="http://www.w3.org/1999/xlink">
    <title>4AFE6503-E5AD-4DEA-9621-10DCBFD4F56F</title>
    <g id="组件" stroke="none" stroke-width="1" fill="none" fill-rule="evenodd">
        <g id="视图" transform="translate(-925, -1823)" fill-rule="nonzero">
            <g id="重新提问" transform="translate(925, 1823)">
                <rect id="矩形" x="0" y="0.00589580606" width="14" height="13.9941042"></rect>
                <path d="M14.00385,6.9970521 C14.00385,10.861424 10.86985,13.9941042 7.00385,13.9941042 C3.13786,13.9941042 0.00385000201,10.861424 0.00385000201,6.9970521 C0.00385000201,3.13269018 3.13786,0 7.00385,0 C10.86985,0 14.00385,3.13269018 14.00385,6.9970521 Z M12.70385,6.9970521 C12.70385,3.85035782 10.15185,1.29945253 7.00385,1.29945253 C3.85583,1.29945253 1.30385,3.85035782 1.30385,6.9970521 C1.30385,10.1437264 3.85583,12.6946517 7.00385,12.6946517 C10.15185,12.6946517 12.70385,10.1437264 12.70385,6.9970521 Z" id="形状" fill="#60666E"></path>
                <g id="编组" transform="translate(4.35, 2.8547)" fill="#60666E">
                    <path d="M2.65,0 C1.18644,0 0,1.18594036 0,2.64888401 C0,3.08684949 0.10684,3.50178468 0.29646,3.86721072 C0.46175,4.18574652 0.85408,4.31004415 1.17275,4.14482376 C1.49142,3.97960337 1.61576,3.58744858 1.45047,3.26891279 C1.35451,3.0839707 1.3,2.87373928 1.3,2.64888401 C1.3,1.903608 1.90441,1.29945253 2.65,1.29945253 C3.39558,1.29945253 4,1.903608 4,2.64888401 C4,3.15891913 3.71718,3.60375172 3.29685,3.83374482 C3.0104,3.99048878 2.70018,4.20860689 2.45442,4.4950562 C2.20591,4.78469418 2,5.17381024 2,5.64762062 L2,5.8475364 C2,6.20636522 2.29101,6.49726266 2.65,6.49726266 C3.00898,6.49726266 3.3,6.20636522 3.3,5.8475364 L3.3,5.64762062 C3.3,5.56897376 3.33168,5.46866602 3.44121,5.3409998 C3.55382,5.20976509 3.72308,5.08192895 3.92108,4.9735846 C4.74133,4.52475369 5.3,3.65253117 5.3,2.64888401 C5.3,1.18594036 4.11355,0 2.65,0 Z" id="路径"></path>
                    <path d="M2.64681,6.87984148 C2.21769,6.87984148 1.86995,7.21178163 1.86995,7.64679835 C1.86995,8.08181508 2.21769,8.41377522 2.64681,8.41377522 C3.0855,8.41377522 3.42845,8.08181508 3.42845,7.64679835 C3.42845,7.21178163 3.0855,6.87984148 2.64681,6.87984148 Z" id="路径"></path>
                </g>
            </g>
        </g>
    </g>
</svg>