<?xml version="1.0" encoding="UTF-8"?>
<svg width="16px" height="16px" viewBox="0 0 16 16" version="1.1" xmlns="http://www.w3.org/2000/svg" xmlns:xlink="http://www.w3.org/1999/xlink">
    <title>50E39976-8928-4FAF-BFF2-88354E191C01</title>
    <g id="组件" stroke="none" stroke-width="1" fill="none" fill-rule="evenodd">
        <g id="视图" transform="translate(-1007, -1822)">
            <g id="编组-22备份-2" transform="translate(1007, 1822)">
                <rect id="矩形" fill="#000000" fill-rule="nonzero" opacity="0" x="0" y="0" width="16" height="16"></rect>
                <path d="M8,0.75 C8.41421356,0.75 8.75,1.08578644 8.75,1.5 L8.75,7 L14.25,7 C14.6642136,7 15,7.33578644 15,7.75 C15,8.16421356 14.6642136,8.5 14.25,8.5 L8.75,8.5 L8.75,14 C8.75,14.4142136 8.41421356,14.75 8,14.75 C7.58578644,14.75 7.25,14.4142136 7.25,14 L7.25,8.5 L1.75,8.5 C1.33578644,8.5 1,8.16421356 1,7.75 C1,7.33578644 1.33578644,7 1.75,7 L7.25,7 L7.25,1.5 C7.25,1.08578644 7.58578644,0.75 8,0.75 Z" id="形状结合" fill="#006EFF"></path>
            </g>
        </g>
    </g>
</svg>