<?xml version="1.0" encoding="UTF-8"?>
<svg width="40px" height="40px" viewBox="0 0 40 40" version="1.1" xmlns="http://www.w3.org/2000/svg" xmlns:xlink="http://www.w3.org/1999/xlink">
    <title>535BAD4D-D3B7-41F9-B003-58819334AACC</title>
    <g id="图表" stroke="none" stroke-width="1" fill="none" fill-rule="evenodd">
        <g id="仪表盘页面示例" transform="translate(-832, -151)">
            <g id="编组-16备份-2" transform="translate(816, 135)">
                <g id="redis" transform="translate(16, 16)">
                    <rect id="矩形" fill="#F5F7FA" x="0" y="0" width="40" height="40" rx="4"></rect>
                    <g id="编组" transform="translate(10, 10)" fill="#006EFF" fill-rule="nonzero">
                        <path d="M20,13.2042724 L20,14.9132176 C20,15.8210948 19.4736842,16.6221629 18.631579,16.9425901 L10.7368421,19.8798398 C10.2631579,20.0400534 9.7368421,20.0400534 9.26315789,19.8798398 L1.36842104,16.9425901 C0.526315782,16.6221629 0,15.8210948 0,14.9132176 L0,13.2042724 L10,16.9425901 L20,13.2042724 Z M20,8.39786382 L20,11.6021362 L10,15.3404539 L0,11.6021362 L0,8.39786382 L10,12.1361816 L20,8.39786382 Z M9.26315789,0.120160214 C9.73684212,-0.0400534045 10.2631579,-0.0400534045 10.7368421,0.120160214 L18.631579,3.05740989 C19.4736842,3.3778371 20,4.1789052 20,5.08678237 L20,6.79572764 L10,10.5340454 L0,6.79572764 L0,5.08678237 C0,4.17890522 0.526315782,3.37783713 1.36842104,3.05740989 Z M11.5263158,4.65954607 C10.6842105,4.33911884 9.26315789,4.33911884 8.42105263,4.65954607 C7.57894737,4.97997331 7.57894737,5.5140187 8.42105263,5.83444593 C9.31578948,6.15487317 10.6842105,6.15487317 11.5263158,5.83444593 C12.3684211,5.5140187 12.3684211,4.97997331 11.5263158,4.65954607 Z M13.1052632,3.11081442 L14.0526316,4.65954607 L17.2105263,3.48464619 L13.1052632,3.11081442 Z M6.84210526,2.89719628 L5.57894736,3.21762351 L4.05263157,3.00400534 L4.57894737,3.59145528 L3.68421052,4.07209613 L5.26315789,4.07209613 L6.26315788,4.60614152 L6.68421052,4.0186916 L8.15789473,3.85847798 L6.84210526,3.48464619 L6.84210526,2.89719628 Z M10,1.02803739 L7.52631578,1.9893191 L10,2.89719628 L12.5263158,1.9893191 L10,1.02803739 Z" id="形状结合"></path>
                    </g>
                </g>
            </g>
        </g>
    </g>
</svg>