<?xml version="1.0" encoding="UTF-8"?>
<svg width="16px" height="16px" viewBox="0 0 16 16" version="1.1" xmlns="http://www.w3.org/2000/svg" xmlns:xlink="http://www.w3.org/1999/xlink">
    <title>57567C11-C239-4E65-B109-39114A8B6F03</title>
    <g id="导航" stroke="none" stroke-width="1" fill="none" fill-rule="evenodd">
        <g id="顶部导航备份" transform="translate(-43, -739)">
            <g id="退出" transform="translate(43, 739)">
                <rect id="矩形" x="0" y="0" width="16" height="16"></rect>
                <g id="编组" transform="translate(1, 1)" fill="#464F5C" fill-rule="nonzero">
                    <path d="M8.02415313,0 C9.16031641,0 10.0834491,0.931177043 10.0834491,2.07344358 L10.0834491,2.9348249 C10.0834491,3.32465953 9.77066602,3.63959144 9.38349134,3.63959144 C8.99631665,3.63959144 8.6835336,3.32465953 8.6835336,2.9348249 L8.6835336,2.07344358 C8.6835336,1.70744163 8.38765775,1.40953307 8.02415313,1.40953307 L2.05929594,1.40953307 C1.69579132,1.40953307 1.39991546,1.70744163 1.39991546,2.07344358 L1.39991546,11.9265564 C1.39991546,12.2925584 1.69579132,12.5904669 2.05929594,12.5904669 L8.02415313,12.5904669 C8.38765775,12.5904669 8.6835336,12.2925584 8.6835336,11.9265564 L8.6835336,11.1690175 C8.6835336,10.7791829 8.99631665,10.464251 9.38349134,10.464251 C9.77066602,10.464251 10.0834491,10.7791829 10.0834491,11.1690175 L10.0834491,11.9265564 C10.0834491,13.068823 9.15862569,14 8.02415313,14 L2.05929594,14 C0.923132661,14 0,13.068823 0,11.9265564 L0,2.07344358 C0,0.929474708 0.92482338,0 2.05929594,0 L8.02415313,0 Z M11.4410966,4.12986381 L13.7945776,6.50121595 C14.0684741,6.77699416 14.0684741,7.22300584 13.7945776,7.49878405 L11.4410966,9.86843385 C11.3041483,10.006323 11.1249321,10.0761187 10.9457158,10.0761187 C10.7664996,10.0761187 10.5872834,10.0080253 10.4503351,9.87013619 C10.1764386,9.59435798 10.1764386,9.1483463 10.4503351,8.87256809 L11.611,7.704 L6.25735161,7.70476654 C5.87017692,7.70476654 5.55739388,7.38983463 5.55739388,7 C5.55739388,6.61016537 5.87017692,6.29523346 6.25735161,6.29523346 L11.61,6.295 L10.4503351,5.12743191 C10.1764386,4.8516537 10.1764386,4.40564202 10.4503351,4.12986381 C10.7242316,3.8540856 11.1672,3.8540856 11.4410966,4.12986381 Z" id="形状结合"></path>
                </g>
            </g>
        </g>
    </g>
</svg>