<?xml version="1.0" encoding="UTF-8"?>
<svg width="20px" height="20px" viewBox="0 0 20 20" version="1.1" xmlns="http://www.w3.org/2000/svg" xmlns:xlink="http://www.w3.org/1999/xlink">
    <title>5887D6D3-EEBD-42EA-B5C9-9DB3B93697D3</title>
    <g id="导航" stroke="none" stroke-width="1" fill="none" fill-rule="evenodd">
        <g id="左侧导航-收起" transform="translate(-1404, -15)">
            <g id="用户" transform="translate(1404, 15)">
                <circle id="椭圆形" fill="#F7F8FA" cx="10" cy="10" r="10"></circle>
                <path d="M17.0714038,2.9290322 C20.5732495,6.43296618 20.9839181,11.9719562 18.0370953,15.954024 C17.7426741,16.3493278 17.4199277,16.7227223 17.0714038,17.07126 C15.2252612,18.9172537 12.836973,19.8905958 10.4191133,19.9912864 L10.1400274,19.9990318 L9.86085402,19.9990318 C7.34842488,19.9641774 4.84662575,18.9882535 2.9294776,17.07126 C2.58035026,16.7229956 2.25724881,16.3495809 1.96277593,15.954024 L1.75491015,15.6639149 C0.60824411,14.0012456 -0.00563938405,12.02554 3.90413979e-05,10.0001461 C0.000370385084,5.95551511 2.43687693,2.30927404 6.17356541,0.76150024 C9.91025388,-0.786273556 14.2113329,0.0691920799 17.0714038,2.9290322 Z M4.25395563,2.99633439 C0.650366729,5.95294101 -0.127777958,11.1586443 2.45370279,15.03983 C3.65265922,13.1872643 5.71156271,12.0737736 7.917537,12.0820354 L12.0843545,12.0820354 C14.2909434,12.073549 16.3505069,13.1874572 17.5512192,15.0388199 C19.9496192,11.437593 19.4749665,6.64447044 16.4168347,3.58361531 C13.1148503,0.293575184 7.85754453,0.0397277679 4.25395563,2.99633439 Z M8.25290267,4.44886921 C9.33428297,3.82452068 10.6665984,3.82452068 11.7479787,4.44886921 C12.829359,5.07321774 13.4955168,6.2270614 13.4955168,7.47575845 C13.4955168,8.7244555 12.829359,9.87829916 11.7479787,10.5026477 C10.6665984,11.1269962 9.33428297,11.1269962 8.25290267,10.5026477 C7.17152237,9.87829916 6.50536466,8.7244555 6.50536466,7.47575845 C6.50536466,6.2270614 7.17152237,5.07321774 8.25290267,4.44886921 Z" id="形状结合" fill="#B8C1D1" fill-rule="nonzero"></path>
            </g>
        </g>
    </g>
</svg>