<?xml version="1.0" encoding="UTF-8"?>
<svg width="16px" height="16px" viewBox="0 0 16 16" version="1.1" xmlns="http://www.w3.org/2000/svg" xmlns:xlink="http://www.w3.org/1999/xlink">
    <title>5AA5ABB6-4730-41B2-AC0B-A576B743F84B</title>
    <g id="图表" stroke="none" stroke-width="1" fill="none" fill-rule="evenodd">
        <g id="数值统计" transform="translate(-176, -1340)">
            <g id="编组-3备份-7" transform="translate(176, 1338)">
                <g id="主机" transform="translate(0, 2)">
                    <rect id="矩形" x="0" y="0" width="16" height="16" rx="2.66666667"></rect>
                    <path d="M14.2084982,10.2621814 L1.79150178,10.2621814 C1.53399105,10.2621814 1.33370493,10.4592737 1.33370493,10.7118438 L1.33370493,13.5503376 C1.33370493,13.8032727 1.53436265,14 1.79150178,14 L14.2088698,14 C14.4663805,14 14.6666667,13.8032727 14.6666667,13.5503376 L14.6666667,10.6837399 C14.6666667,10.4589087 14.4663805,10.2621814 14.2088698,10.2621814 L14.2084982,10.2621814 Z M3.36480687,13.0725713 L2.62088698,13.0725713 L2.62088698,11.1334023 L3.36480687,11.1334023 L3.36480687,13.0725713 L3.36480687,13.0725713 Z M5.02432046,13.0725713 L4.28040058,13.0725713 L4.28040058,11.1334023 L5.02432046,11.1334023 L5.02432046,13.0725713 L5.02432046,13.0725713 Z M12.3486985,13.0163635 C12.1048922,13.0195358 11.8701262,12.9258048 11.697714,12.7564561 C11.5253018,12.5871075 11.4298752,12.3565129 11.4331048,12.1170387 C11.4298752,11.8775646 11.5253018,11.64697 11.697714,11.4776214 C11.8701262,11.3082727 12.1048922,11.2145417 12.3486985,11.217714 C12.5925048,11.2145417 12.8272708,11.3082727 12.999683,11.4776214 C13.1720953,11.64697 13.2675219,11.8775646 13.2642922,12.1170387 C13.2642922,12.6229089 12.8351077,13.0163635 12.3486985,13.0163635 L12.3486985,13.0163635 Z M14.2084982,6.13127319 L1.79150178,6.13127319 C1.53399105,6.13127319 1.33370493,6.32800048 1.33370493,6.58093558 L1.33370493,9.41942941 C1.33370493,9.6723645 1.53436265,9.86909179 1.79150178,9.86909179 L14.2088698,9.86909179 C14.4663805,9.86909179 14.6666667,9.67199951 14.6666667,9.41942941 L14.6666667,6.55283168 C14.6666667,6.32800048 14.4663805,6.13127319 14.2088698,6.13127319 L14.2084982,6.13127319 Z M3.36480687,8.94166311 L2.62088698,8.94166311 L2.62088698,7.00249407 L3.36480687,7.00249407 L3.36480687,8.94166311 L3.36480687,8.94166311 Z M5.02432046,8.94166311 L4.28040058,8.94166311 L4.28040058,7.00249407 L5.02432046,7.00249407 L5.02432046,8.94166311 L5.02432046,8.94166311 Z M12.3486985,8.88545531 C12.1048922,8.88862757 11.8701262,8.79489657 11.697714,8.62554791 C11.5253018,8.45619925 11.4298752,8.22560471 11.4331048,7.98613054 C11.4298752,7.74665638 11.5253018,7.51606183 11.697714,7.34671317 C11.8701262,7.1773645 12.1048922,7.0836335 12.3486985,7.08680576 C12.5925048,7.0836335 12.8272708,7.1773645 12.999683,7.34671316 C13.1720953,7.51606183 13.2675219,7.74665638 13.2642922,7.98613054 C13.2642922,8.49200073 12.8351077,8.88545532 12.3486985,8.88545531 L12.3486985,8.88545531 Z M14.2084982,2.00036498 L1.79150178,2.00036498 C1.53361946,2.00036498 1.33333333,2.19636231 1.33333333,2.4492974 L1.33333333,5.28779122 C1.33333333,5.54072631 1.53399105,5.73745362 1.79113019,5.73745362 L14.2084982,5.73745362 C14.466009,5.73745362 14.6662951,5.54072633 14.6662951,5.28779122 L14.6662951,2.42155849 C14.6662951,2.19672729 14.466009,2 14.2084982,2 L14.2084982,2.00036498 Z M3.36480687,4.81002494 L2.62088698,4.81002494 L2.62088698,2.87122087 L3.36480687,2.87122087 L3.36480687,4.8107549 L3.36480687,4.81002494 Z M5.02432046,4.81002494 L4.28040058,4.81002494 L4.28040058,2.87122087 L5.02432046,2.87122087 L5.02432046,4.8107549 L5.02432046,4.81002494 Z M12.3486985,4.75381714 C12.1048922,4.7569894 11.8701262,4.6632584 11.697714,4.49390973 C11.5253018,4.32456107 11.4298752,4.09396652 11.4331048,3.85449236 C11.4298752,3.6150182 11.5253018,3.38442365 11.697714,3.21507499 C11.8701262,3.04572633 12.1048922,2.95199533 12.3486985,2.95516759 C12.5925048,2.95199533 12.8272708,3.04572632 12.999683,3.21507498 C13.1720953,3.38442365 13.2675219,3.61501819 13.2642922,3.85449236 C13.2642922,4.36036254 12.8351077,4.75381714 12.3486985,4.75381714 L12.3486985,4.75381714 Z" id="形状" fill="#006EFF" fill-rule="nonzero"></path>
                </g>
            </g>
        </g>
    </g>
</svg>