<?xml version="1.0" encoding="UTF-8"?>
<svg width="12px" height="12px" viewBox="0 0 12 12" version="1.1" xmlns="http://www.w3.org/2000/svg" xmlns:xlink="http://www.w3.org/1999/xlink">
    <title>5AA890BE-764B-4515-A33F-0E49A6245FCA</title>
    <g id="表单" stroke="none" stroke-width="1" fill="none" fill-rule="evenodd">
        <g id="表单页规范" transform="translate(-1116, -3258)" fill="#78858F" fill-rule="nonzero">
            <g id="编组备份-13" transform="translate(736, 3248)">
                <g id="编组" transform="translate(380, 10)">
                    <path d="M6,0 C9.31371429,0 12,2.68629429 12,6 C12,9.31371429 9.31371429,12 6,12 C2.68629429,12 0,9.31371429 0,6 C0,2.68629429 2.68629429,0 6,0 Z M4.09080857,3.30288857 C4.02385714,3.23594571 3.91531714,3.23594571 3.84836571,3.30288857 L3.30288857,3.84837429 C3.23593714,3.91532571 3.23593714,4.02386571 3.30288857,4.09080857 L5.21207143,6 L3.30288857,7.90919143 C3.23593714,7.97613429 3.23593714,8.08467429 3.30288857,8.15162571 L3.84836571,8.69708571 C3.91531714,8.76402857 4.02385714,8.76402857 4.09080857,8.69708571 L5.99999143,6.78792 L7.90918286,8.69708571 C7.97612571,8.76402857 8.08467429,8.76402857 8.15161714,8.69708571 L8.69708571,8.15162571 C8.76402857,8.08467429 8.76402857,7.97613429 8.69708571,7.90919143 L6.78791143,6 L8.69708571,4.09080857 C8.76402857,4.02386571 8.76402857,3.91532571 8.69708571,3.84837429 L8.15161714,3.30288857 C8.08467429,3.23594571 7.97612571,3.23594571 7.90918286,3.30288857 L5.99999143,5.21208 Z" id="形状结合"></path>
                </g>
            </g>
        </g>
    </g>
</svg>