<?xml version="1.0" encoding="UTF-8"?>
<svg width="16px" height="16px" viewBox="0 0 16 16" version="1.1" xmlns="http://www.w3.org/2000/svg" xmlns:xlink="http://www.w3.org/1999/xlink">
    <title>5D493EFC-C4E6-4B78-AD11-EA103E5BFD9B</title>
    <g id="组件" stroke="none" stroke-width="1" fill="none" fill-rule="evenodd">
        <g id="上传" transform="translate(-764, -2819)">
            <g id="xlsx" transform="translate(764, 2819)">
                <rect id="矩形" x="0" y="0" width="16" height="16"></rect>
                <g id="编组" transform="translate(1, 0)" fill-rule="nonzero">
                    <path d="M13,15.4285714 C13,15.7441714 12.7505671,16 12.4428571,16 L0.557142857,16 C0.249432857,16 0,15.7441714 0,15.4285714 L0,0.571428571 C0,0.255828571 0.249432857,0 0.557142857,0 L9.39714286,0 L13,3.6952381 L13,15.4285714 Z" id="路径" fill="#60C267"></path>
                    <path d="M13,3.6952381 L9.95428571,3.6952381 C9.64657571,3.6952381 9.39714286,3.43940952 9.39714286,3.12380952 L9.39714286,0" id="路径" fill-opacity="0.4" fill="#FFFFFF"></path>
                    <path d="M6.20155714,11.7314286 C7.93965714,11.7314286 8.63125714,11.0500952 8.63125714,9.7807619 C8.63125714,8.5767619 8.30365714,8.09142857 6.79305714,7.71809524 C5.86485714,7.49409524 5.71925714,7.3447619 5.71925714,6.9247619 C5.71925714,6.37409524 6.01955714,6.23409524 6.73845714,6.23409524 C7.26625714,6.23409524 7.99425714,6.3647619 8.30365714,6.46742857 L8.30365714,5.3007619 C7.96695714,5.17942857 7.40275714,5.06742857 6.68385714,5.06742857 C5.21875714,5.06742857 4.37245714,5.59009524 4.37245714,6.96209524 C4.37245714,8.11942857 4.76375714,8.51142857 6.11055714,8.8287619 C7.07515714,9.07142857 7.25715714,9.2487619 7.25715714,9.74342857 C7.25715714,10.3220952 6.98415714,10.5180952 6.14695714,10.5180952 C5.50995714,10.5180952 4.75465714,10.4060952 4.36335714,10.2567619 L4.36335714,11.4980952 C4.75465714,11.6100952 5.46445714,11.7314286 6.20155714,11.7314286 L6.20155714,11.7314286 Z" id="路径" fill="#FFFFFF"></path>
                </g>
            </g>
        </g>
    </g>
</svg>