<?xml version="1.0" encoding="UTF-8"?>
<svg width="24px" height="24px" viewBox="0 0 24 24" version="1.1" xmlns="http://www.w3.org/2000/svg" xmlns:xlink="http://www.w3.org/1999/xlink">
    <title>613A7D99-852A-43D3-90A4-BB8F51F1306B</title>
    <g id="组件" stroke="none" stroke-width="1" fill="none" fill-rule="evenodd">
        <g id="空状态" transform="translate(-196, -786)" fill-rule="nonzero">
            <g id="编组-2" transform="translate(180, 786)">
                <g id="暂无数据" transform="translate(16, 0)">
                    <rect id="矩形" x="0" y="0" width="24" height="24"></rect>
                    <path d="M17.6706857,1.71428571 C17.8745143,1.71428571 18.0629143,1.82290286 18.1650857,1.99932 L23.9230286,11.9410114 C23.9734286,12.0280457 24,12.12684 24,12.2274 L24,21.7143429 C24,22.0299429 23.7442286,22.2857143 23.4286286,22.2857143 L0.571428,22.2857143 C0.255836571,22.2857143 0,22.0299429 0,21.7143429 L0,12.2274 C0,12.12684 0.0265431429,12.0280457 0.0769477714,11.9410114 L5.83491429,1.99932 C5.93708571,1.82290286 6.12552,1.71428571 6.3294,1.71428571 L17.6706857,1.71428571 Z M2.76711429,11.7428229 L7.91506286,11.7428229 C8.30837143,11.7428229 8.65121143,12.0104914 8.74661143,12.3920743 L9.37650857,14.91168 C9.41466857,15.06432 9.55181143,15.1713943 9.70913143,15.1713943 L14.2908686,15.1713943 C14.4481886,15.1713943 14.5853314,15.06432 14.6234914,14.91168 L15.2533886,12.3920743 C15.3487886,12.0104914 15.6916286,11.7428229 16.0849371,11.7428229 L21.2329714,11.7428229 L16.7153657,3.94285714 L7.28463429,3.94285714 L2.76711429,11.7428229 Z M21.7714286,13.9713943 L17.1557143,13.9713943 L16.4608971,16.7506971 C16.3654971,17.13228 16.0226571,17.4 15.6293486,17.4 L8.37065143,17.4 C7.97734286,17.4 7.63450286,17.13228 7.53910286,16.7506971 L6.84428571,13.9713943 L2.22857143,13.9713943 L2.22857143,20.0571429 L21.7714286,20.0571429 L21.7714286,13.9713943 Z" id="形状" fill="#C2C6CC"></path>
                </g>
            </g>
        </g>
    </g>
</svg>