<?xml version="1.0" encoding="UTF-8"?>
<svg width="12px" height="12px" viewBox="0 0 12 12" version="1.1" xmlns="http://www.w3.org/2000/svg" xmlns:xlink="http://www.w3.org/1999/xlink">
    <title>6DA168BB-A7F1-47E3-8581-96DDADEA6994</title>
    <g id="图表" stroke="none" stroke-width="1" fill="none" fill-rule="evenodd">
        <g id="数值统计" transform="translate(-812, -2242)">
            <g id="编组-3备份-17" transform="translate(640, 2222)">
                <g id="编组" transform="translate(16, 16)">
                    <g id="删除" transform="translate(156, 4)">
                        <rect id="矩形" fill-rule="nonzero" x="0" y="0" width="12" height="12"></rect>
                        <path d="M0,2.18572286 C0,2.09104286 0.0767513143,2.01429429 0.171428571,2.01429429 L2.14285714,2.01429429 L2.14285714,0.857142857 C2.14285714,0.383755714 2.52661714,0 3,0 L9,0 C9.4734,0 9.85714286,0.383755714 9.85714286,0.857142857 L9.85714286,2.01429429 L11.8285714,2.01429429 C11.9232857,2.01429429 12,2.09104286 12,2.18572286 L12,2.95715143 C12,3.05182286 11.9232857,3.12858 11.8285714,3.12858 L10.5668571,3.12858 L9.92022857,11.2111714 C9.88457143,11.6566286 9.51274286,12 9.06582857,12 L2.93416286,12 C2.48728286,12 2.11539429,11.6566286 2.07975429,11.2111714 L1.43314286,3.12858 L0.171428571,3.12858 C0.0767512286,3.12858 0,3.05182286 0,2.95715143 L0,2.18572286 Z M8.8284,10.8857143 L9.44897143,3.12858 L2.55098571,3.12858 L3.17155714,10.8857143 L8.8284,10.8857143 Z M3.25714286,1.11428571 L3.25714286,2.01429429 L8.74285714,2.01429429 L8.74285714,1.11428571 L3.25714286,1.11428571 Z" id="形状" fill="#464F5C"></path>
                    </g>
                </g>
            </g>
        </g>
    </g>
</svg>