<?xml version="1.0" encoding="UTF-8"?>
<svg width="40px" height="40px" viewBox="0 0 40 40" version="1.1" xmlns="http://www.w3.org/2000/svg" xmlns:xlink="http://www.w3.org/1999/xlink">
    <title>77B71A80-FE06-492A-B453-7ADA3E6A899B</title>
    <g id="图表" stroke="none" stroke-width="1" fill="none" fill-rule="evenodd">
        <g id="仪表盘页面示例" transform="translate(-416, -285)">
            <g id="编组-16备份-2" transform="translate(400, 269)">
                <g id="容器应用" transform="translate(16, 16)">
                    <rect id="矩形" fill="#F5F7FA" x="0" y="0" width="40" height="40" rx="4"></rect>
                    <g id="编组" transform="translate(11, 10)" fill="#006EFF" fill-rule="nonzero">
                        <path d="M5.22877527,8.647284 C5.22877527,8.3957346 5.35933413,8.16168429 5.57336504,8.03700328 L8.61902497,6.22366023 C8.8351962,6.09460445 9.10059453,6.09460445 9.31676576,6.22366023 L12.3624257,8.03700328 C12.5743163,8.16387167 12.7070155,8.3957346 12.7070155,8.647284 L12.7070155,12.1558513 C12.7070155,12.4074007 12.5764566,12.641451 12.3624257,12.766132 L9.31676576,14.579475 C9.10059453,14.7085308 8.8351962,14.7085308 8.61902497,14.579475 L5.57336504,12.766132 C5.36147444,12.6392636 5.22877527,12.4074007 5.22877527,12.1558513 L5.22877527,8.647284 L5.22877527,8.647284 Z M14.870868,6.68082392 L9,3.16788188 L3.12913199,6.68082392 L0.468727705,4.99434925 L8.65112961,0.0967918338 C8.86730083,-0.0322639446 9.13483948,-0.0322639446 9.3510107,0.0967918338 L17.5334126,4.99216187 L14.870868,6.68082392 Z M2.76956005,9.45005468 L2.76956005,14.1026249 L9,17.8321181 L15.23044,14.1048122 L15.23044,9.45005468 L18,7.69358367 L18,15.3209989 C18,15.5725483 17.8694411,15.8044112 17.6575505,15.9312796 L9.34887039,20.9032082 C9.13269917,21.0322639 8.86516052,21.0322639 8.6489893,20.9032082 L0.342449465,15.9312796 C0.130558859,15.8044112 0,15.5725483 0,15.3209989 L0,7.69358367 L2.76956005,9.45005468 Z" id="形状"></path>
                    </g>
                </g>
            </g>
        </g>
    </g>
</svg>