<?xml version="1.0" encoding="UTF-8"?>
<svg width="14px" height="14px" viewBox="0 0 14 14" version="1.1" xmlns="http://www.w3.org/2000/svg" xmlns:xlink="http://www.w3.org/1999/xlink">
    <title>7FAEDCEB-6E05-452F-AA96-1AFE537111F0</title>
    <g id="表格" stroke="none" stroke-width="1" fill="none" fill-rule="evenodd">
        <g id="列表表头" transform="translate(-1219, -1078)">
            <g id="编组-4备份-7" transform="translate(1037, 1061)">
                <g id="查询" transform="translate(182, 17)">
                    <rect id="矩形" fill-rule="nonzero" x="0" y="0" width="14" height="14"></rect>
                    <path d="M6.25,8.8817842e-16 C9.70178,8.8817842e-16 12.5,2.79822 12.5,6.25 C12.5,7.74176 11.9774,9.11146 11.1052,10.186 L13.8411,12.9219 C13.9192,13 13.9192,13.1266 13.8411,13.2047 L13.2047,13.8411 C13.1266,13.9192 13,13.9192 12.9219,13.8411 L10.186,11.1052 C9.11146,11.9774 7.74176,12.5 6.25,12.5 C2.79822,12.5 5.77315973e-14,9.70178 5.77315973e-14,6.25 C5.77315973e-14,2.79822 2.79822,8.8817842e-16 6.25,8.8817842e-16 Z M6.25,1.3 C3.51619,1.3 1.3,3.51619 1.3,6.25 C1.3,8.98381 3.51619,11.2 6.25,11.2 C8.98381,11.2 11.2,8.98381 11.2,6.25 C11.2,3.51619 8.98381,1.3 6.25,1.3 Z" id="形状" fill="#006EFF"></path>
                </g>
            </g>
        </g>
    </g>
</svg>