<?xml version="1.0" encoding="UTF-8"?>
<svg width="16px" height="16px" viewBox="0 0 16 16" version="1.1" xmlns="http://www.w3.org/2000/svg" xmlns:xlink="http://www.w3.org/1999/xlink">
    <title>7FF6486F-477E-49BF-98A5-9949BA93C107</title>
    <g id="组件" stroke="none" stroke-width="1" fill="none" fill-rule="evenodd">
        <g id="上传" transform="translate(-380, -2819)">
            <g id="GIF" transform="translate(380, 2819)">
                <rect id="矩形" x="0" y="0" width="16" height="16"></rect>
                <g id="编组" transform="translate(2, 0)" fill-rule="nonzero">
                    <path d="M13,15.4285714 C13,15.7441714 12.7505671,16 12.4428571,16 L0.557142857,16 C0.249432857,16 0,15.7441714 0,15.4285714 L0,0.571428571 C0,0.255828571 0.249432857,0 0.557142857,0 L9.39714286,0 L13,3.6952381 L13,15.4285714 Z" id="路径" fill="#FFA542"></path>
                    <path d="M13,3.6952381 L9.95428571,3.6952381 C9.64657571,3.6952381 9.39714286,3.43940952 9.39714286,3.12380952 L9.39714286,0" id="路径" fill-opacity="0.4" fill="#FFFFFF"></path>
                    <path d="M4.30857143,10.5180952 C4.8256,10.5180952 5.33668571,10.4327619 5.64571429,10.3291429 L5.64571429,8.01295238 L4.10651429,8.01295238 L4.10651429,8.78704762 L4.80777143,8.78704762 L4.80777143,9.70133333 C4.67108571,9.73180952 4.5344,9.73790476 4.368,9.73790476 C3.55977143,9.73790476 3.26262857,9.46361905 3.26262857,8.34209524 C3.26262857,7.26933333 3.6192,6.95847619 4.4096,6.95847619 C4.76617143,6.95847619 5.14057143,7.01333333 5.4496,7.12914286 L5.4496,6.31847619 C5.2,6.22095238 4.73645714,6.16609524 4.33828571,6.16609524 C3.06057143,6.16609524 2.27611429,6.70857143 2.27611429,8.34209524 C2.27611429,10.1158095 3.04274286,10.5180952 4.30857143,10.5180952 Z M6.50742857,10.4571429 L7.41074286,10.4571429 L7.41074286,6.22704762 L6.50742857,6.22704762 L6.50742857,10.4571429 Z M10.8457143,7.03161905 L10.8457143,6.22704762 L8.32594286,6.22704762 L8.32594286,10.4571429 L9.22925714,10.4571429 L9.22925714,8.81142857 L10.7268571,8.81142857 L10.7268571,8.01295238 L9.22925714,8.01295238 L9.22925714,7.03161905 L10.8457143,7.03161905 Z" id="形状" fill="#FFFFFF"></path>
                </g>
            </g>
        </g>
    </g>
</svg>