<?xml version="1.0" encoding="UTF-8"?>
<svg width="16px" height="16px" viewBox="0 0 16 16" version="1.1" xmlns="http://www.w3.org/2000/svg" xmlns:xlink="http://www.w3.org/1999/xlink">
    <title>82F5B4B9-6A34-4C16-BE4A-46AD149FD334</title>
    <g id="组件" stroke="none" stroke-width="1" fill="none" fill-rule="evenodd">
        <g id="上传" transform="translate(-476, -2819)">
            <g id="文件夹" transform="translate(476, 2819)">
                <rect id="矩形" x="0" y="0" width="16" height="16"></rect>
                <g id="编组" transform="translate(0, 1)" fill-rule="nonzero">
                    <path d="M0,11.8434343 L0,1.29040404 C0,0.936868687 0.178571429,0.76010101 0.535714286,0.76010101 L14.4642857,0.76010101 C14.8214286,0.76010101 15,0.936868687 15,1.29040404 L15,11.8434343 C15,12.1969697 14.8214286,12.3737374 14.4642857,12.3737374 L0.535714286,12.3737374 C0.178571429,12.3737374 0,12.1969697 0,11.8434343 Z" id="路径" fill="#F59E1B"></path>
                    <path d="M0,10.8358586 L0,0.53030303 C0,0.176767677 0.178571429,0 0.535714286,0 L4.32142857,0 C4.67857143,0 4.85714286,0.176767677 4.85714286,0.53030303 L4.85714286,10.8358586 C4.85714286,11.1893939 4.67857143,11.3661616 4.32142857,11.3661616 L0.535714286,11.3661616 C0.178571429,11.3661616 0,11.1893939 0,10.8358586 Z" id="路径" fill="#F59E1B"></path>
                    <path d="M0.964285714,11.3973434 L0.964285714,2.33748737 C0.964285714,1.98395202 1.14285714,1.80718434 1.5,1.80718434 L13.5,1.80718434 C13.8571429,1.80718434 14.0357143,1.98395202 14.0357143,2.33748737 L14.0357143,11.3973434 C14.0357143,11.7508788 13.8571429,11.9276465 13.5,11.9276465 L1.5,11.9276465 C1.14285714,11.9276465 0.964285714,11.7508788 0.964285714,11.3973434 Z" id="路径" fill="#FFFFFF"></path>
                    <path d="M0,13.469697 L0,3.53535354 C0,3.18181818 0.178571429,3.00505051 0.535714286,3.00505051 L14.4642857,3.00505051 C14.8214286,3.00505051 15,3.18181818 15,3.53535354 L15,13.469697 C15,13.8232323 14.8214286,14 14.4642857,14 L0.535714286,14 C0.178571429,14 0,13.8232323 0,13.469697 Z" id="路径" fill="#FFD034"></path>
                </g>
            </g>
        </g>
    </g>
</svg>