<?xml version="1.0" encoding="UTF-8"?>
<svg width="14px" height="14px" viewBox="0 0 14 14" version="1.1" xmlns="http://www.w3.org/2000/svg" xmlns:xlink="http://www.w3.org/1999/xlink">
    <title>8657C3B7-C722-486B-BD2D-762981780653</title>
    <g id="组件" stroke="none" stroke-width="1" fill="none" fill-rule="evenodd">
        <g id="卡片" transform="translate(-171, -639)" fill-rule="nonzero">
            <g id="编组-8" transform="translate(155, 549)">
                <g id="上传" transform="translate(16, 90)">
                    <rect id="矩形" x="0" y="0" width="14" height="14"></rect>
                    <path d="M4.18613,5.18613 L3.39221,5.36839 C2.19329,5.64362 1.3,6.71905 1.3,8 C1.3,9.49117 2.50883,10.7 4,10.7 L4.8,10.7 C4.91046,10.7 5,10.7895 5,10.9 L5,11.8 C5,11.9105 4.91046,12 4.8,12 L4,12 C1.79086,12 0,10.2091 0,8 C0,6.09985 1.32493,4.50915 3.10135,4.10135 C3.50915,2.32493 5.09985,1 7,1 C8.90015,1 10.4909,2.32493 10.8987,4.10135 C12.6751,4.50915 14,6.09985 14,8 C14,10.2091 12.2091,12 10,12 L9.2,12 C9.08954,12 9,11.9105 9,11.8 L9,10.9 C9,10.7895 9.08954,10.7 9.2,10.7 L10,10.7 C11.4912,10.7 12.7,9.49117 12.7,8 C12.7,6.71905 11.8067,5.64362 10.6078,5.36839 L9.81387,5.18613 L9.63161,4.39221 C9.35638,3.19329 8.28095,2.3 7,2.3 C5.71905,2.3 4.64362,3.19329 4.36839,4.39221 L4.18613,5.18613 Z" id="路径" fill="#60666E"></path>
                    <path d="M5,8.43638 C5,8.61456 5.21543,8.70379 5.34142,8.5778 L6.34999,7.56923 L6.34999,13.3 C6.34999,13.4104 6.43954,13.5 6.54999,13.5 L7.44999,13.5 C7.56045,13.5 7.64999,13.4104 7.64999,13.3 L7.64999,7.56923 L8.65858,8.57781 C8.78457,8.7038 9,8.61457 9,8.43639 L9,7.1636 C9,7.11055 8.97893,7.05968 8.94142,7.02218 L7.35355,5.4343 C7.15829,5.23904 6.8417,5.23904 6.64644,5.4343 L5.05858,7.02217 C5.02107,7.05967 5,7.11054 5,7.16359 L5,8.43638 Z" id="路径" fill="#60666E"></path>
                    <path d="M6.64644,5.4343 C6.8417,5.23904 7.15829,5.23904 7.35355,5.4343 L8.94142,7.02218 C8.97893,7.05968 9,7.11055 9,7.1636 L9,8.43639 C9,8.61457 8.78457,8.7038 8.65858,8.57781 L7.64999,7.56923 L7.64999,13.3 C7.64999,13.4104 7.56045,13.5 7.44999,13.5 L6.54999,13.5 C6.43954,13.5 6.34999,13.4104 6.34999,13.3 L6.34999,7.56923 L5.34142,8.5778 C5.21543,8.70379 5,8.61456 5,8.43638 L5,7.16359 C5,7.11054 5.02107,7.05967 5.05858,7.02217 Z M7,1 C8.90015,1 10.4909,2.32493 10.8987,4.10135 C12.6751,4.50915 14,6.09985 14,8 C14,10.2091 12.2091,12 10,12 L9.2,12 C9.08954,12 9,11.9105 9,11.8 L9,10.9 C9,10.7895 9.08954,10.7 9.2,10.7 L10,10.7 C11.4912,10.7 12.7,9.49117 12.7,8 C12.7,6.71905 11.8067,5.64362 10.6078,5.36839 L9.81387,5.18613 L9.63161,4.39221 C9.35638,3.19329 8.28095,2.3 7,2.3 C5.71905,2.3 4.64362,3.19329 4.36839,4.39221 L4.18613,5.18613 L3.39221,5.36839 C2.19329,5.64362 1.3,6.71905 1.3,8 C1.3,9.49117 2.50883,10.7 4,10.7 L4.8,10.7 C4.91046,10.7 5,10.7895 5,10.9 L5,11.8 C5,11.9105 4.91046,12 4.8,12 L4,12 C1.79086,12 0,10.2091 0,8 C0,6.09985 1.32493,4.50915 3.10135,4.10135 C3.50915,2.32493 5.09985,1 7,1 Z" id="形状结合" fill="#78858F"></path>
                </g>
            </g>
        </g>
    </g>
</svg>