<?xml version="1.0" encoding="UTF-8"?>
<svg width="14px" height="14px" viewBox="0 0 14 14" version="1.1" xmlns="http://www.w3.org/2000/svg" xmlns:xlink="http://www.w3.org/1999/xlink">
    <title>867FD1FE-4406-4229-A9CA-085F6889F6C6</title>
    <g id="组件" stroke="none" stroke-width="1" fill="none" fill-rule="evenodd">
        <g id="视图" transform="translate(-212, -1427)">
            <g id="编组-6备份" transform="translate(180, 1153)">
                <g id="编组-11" transform="translate(20, 16)">
                    <g id="编组-7" transform="translate(0, 30)">
                        <g id="编组-21备份-2" transform="translate(4, 219)">
                            <g id="编组-22备份-2" transform="translate(8, 9)">
                                <rect id="矩形" fill="#000000" fill-rule="nonzero" opacity="0" x="0" y="0" width="14" height="14"></rect>
                                <path d="M7,0.65625 C7.36243687,0.65625 7.65625,0.950063133 7.65625,1.3125 L7.656,6.12425 L12.46875,6.125 C12.8311869,6.125 13.125,6.41881313 13.125,6.78125 C13.125,7.14368687 12.8311869,7.4375 12.46875,7.4375 L7.656,7.43725 L7.65625,12.25 C7.65625,12.6124369 7.36243687,12.90625 7,12.90625 C6.63756313,12.90625 6.34375,12.6124369 6.34375,12.25 L6.343,7.43725 L1.53125,7.4375 C1.16881313,7.4375 0.875,7.14368687 0.875,6.78125 C0.875,6.41881313 1.16881313,6.125 1.53125,6.125 L6.343,6.12425 L6.34375,1.3125 C6.34375,0.950063133 6.63756313,0.65625 7,0.65625 Z" id="形状结合" fill="#464F5C"></path>
                            </g>
                        </g>
                    </g>
                </g>
            </g>
        </g>
    </g>
</svg>