<?xml version="1.0" encoding="UTF-8"?>
<svg width="16px" height="16px" viewBox="0 0 16 16" version="1.1" xmlns="http://www.w3.org/2000/svg" xmlns:xlink="http://www.w3.org/1999/xlink">
    <title>880CC80B-CF93-40BE-BCC6-212CEB692D6E</title>
    <g id="组件" stroke="none" stroke-width="1" fill="none" fill-rule="evenodd">
        <g id="上传" transform="translate(-668, -2819)">
            <g id="PPT" transform="translate(668, 2819)">
                <rect id="矩形" x="0" y="0" width="16" height="16"></rect>
                <g id="编组" transform="translate(1, 0)" fill-rule="nonzero">
                    <path d="M13,15.4285714 C13,15.7441714 12.7505671,16 12.4428571,16 L0.557142857,16 C0.249432857,16 0,15.7441714 0,15.4285714 L0,0.571428571 C0,0.255828571 0.249432857,0 0.557142857,0 L9.39714286,0 L13,3.6952381 L13,15.4285714 Z" id="路径" fill="#FF6359"></path>
                    <path d="M13,3.6952381 L9.95428571,3.6952381 C9.64657571,3.6952381 9.39714286,3.43940952 9.39714286,3.12380952 L9.39714286,0" id="路径" fill-opacity="0.4" fill="#FFFFFF"></path>
                    <path d="M4.25785286,11.6761905 L5.66081286,11.6761905 L5.66081286,9.65032381 L6.44536286,9.65032381 C8.25444286,9.65032381 8.96515286,9.05392381 8.96515286,7.34045714 C8.96515286,5.75952381 8.36520286,5.10632381 6.44536286,5.10632381 L4.25785286,5.10632381 L4.25785286,11.6761905 Z M5.66081286,8.49539048 L5.66081286,6.24232381 L6.26076286,6.24232381 C7.20222286,6.24232381 7.53450286,6.52632381 7.53450286,7.36885714 C7.53450286,8.23979048 7.21145286,8.49539048 6.26076286,8.49539048 L5.66081286,8.49539048 L5.66081286,8.49539048 Z" id="形状" fill="#FFFFFF"></path>
                </g>
            </g>
        </g>
    </g>
</svg>