<?xml version="1.0" encoding="UTF-8"?>
<svg width="180px" height="160px" viewBox="0 0 180 160" version="1.1" xmlns="http://www.w3.org/2000/svg" xmlns:xlink="http://www.w3.org/1999/xlink">
    <title>8C3B3272-7B97-44CD-B793-66190D719253</title>
    <defs>
        <rect id="path-1" x="0" y="0" width="153" height="100.963397" rx="4"></rect>
        <linearGradient x1="62.4182032%" y1="50%" x2="6.51729831%" y2="50%" id="linearGradient-3">
            <stop stop-color="#9AB2FF" offset="0%"></stop>
            <stop stop-color="#6B69FF" offset="100%"></stop>
        </linearGradient>
        <path d="M6,0 L112,0 C115.313708,-6.08718376e-16 118,2.6862915 118,6 L118,106 C118,109.313708 115.313708,112 112,112 L18,112 C14.6862915,112 12,109.313708 12,106 L12,7.5 L12,7.5 L6,0 Z" id="path-4"></path>
        <filter x="-15.2%" y="-10.7%" width="126.8%" height="126.8%" filterUnits="objectBoundingBox" id="filter-5">
            <feOffset dx="-2" dy="3" in="SourceAlpha" result="shadowOffsetOuter1"></feOffset>
            <feGaussianBlur stdDeviation="4.5" in="shadowOffsetOuter1" result="shadowBlurOuter1"></feGaussianBlur>
            <feColorMatrix values="0 0 0 0 0   0 0 0 0 0.207268476   0 0 0 0 0.648409194  0 0 0 0.202687937 0" type="matrix" in="shadowBlurOuter1"></feColorMatrix>
        </filter>
        <linearGradient x1="1.60982339e-13%" y1="50%" x2="97.2137238%" y2="50%" id="linearGradient-6">
            <stop stop-color="#6FE1FF" offset="0%"></stop>
            <stop stop-color="#6AB2FF" offset="100%"></stop>
        </linearGradient>
        <linearGradient x1="50%" y1="0%" x2="50%" y2="100%" id="linearGradient-7">
            <stop stop-color="#FFFFFF" offset="0%"></stop>
            <stop stop-color="#D7E8FA" offset="100%"></stop>
        </linearGradient>
        <linearGradient x1="19.5563295%" y1="50%" x2="100%" y2="50%" id="linearGradient-8">
            <stop stop-color="#EDF4FA" offset="0%"></stop>
            <stop stop-color="#C2D9F1" offset="100%"></stop>
        </linearGradient>
        <linearGradient x1="5.68428101%" y1="50%" x2="95.0380566%" y2="50%" id="linearGradient-9">
            <stop stop-color="#2E85FF" offset="0%"></stop>
            <stop stop-color="#23A5FF" offset="100%"></stop>
        </linearGradient>
        <path d="M4,0 L37,0 C39.209139,-4.05812251e-16 41,1.790861 41,4 L41,26 C41,28.209139 39.209139,30 37,30 L16.5,30 L16.5,30 L8.1,36.3 C7.6581722,36.6313708 7.03137085,36.5418278 6.7,36.1 C6.57017787,35.9269038 6.5,35.7163702 6.5,35.5 L6.5,30 L6.5,30 L4,30 C1.790861,30 2.705415e-16,28.209139 0,26 L0,4 C-2.705415e-16,1.790861 1.790861,4.05812251e-16 4,0 Z" id="path-10"></path>
        <filter x="-43.9%" y="-37.3%" width="178.0%" height="182.7%" filterUnits="objectBoundingBox" id="filter-11">
            <feOffset dx="-2" dy="2" in="SourceAlpha" result="shadowOffsetOuter1"></feOffset>
            <feGaussianBlur stdDeviation="5" in="shadowOffsetOuter1" result="shadowBlurOuter1"></feGaussianBlur>
            <feColorMatrix values="0 0 0 0 0   0 0 0 0 0.457495629   0 0 0 0 1  0 0 0 0.32 0" type="matrix" in="shadowBlurOuter1"></feColorMatrix>
        </filter>
    </defs>
    <g id="组件" stroke="none" stroke-width="1" fill="none" fill-rule="evenodd">
        <g id="空状态" transform="translate(-1020, -2739)">
            <g id="暂无内容" transform="translate(1020, 2739)">
                <rect id="蒙版" x="0" y="0" width="180" height="160"></rect>
                <g id="编组" transform="translate(11, 43)">
                    <g id="矩形">
                        <mask id="mask-2" fill="white">
                            <use xlink:href="#path-1"></use>
                        </mask>
                        <use id="蒙版" fill="#E6F0FA" xlink:href="#path-1"></use>
                        <rect fill="#C2DBFF" mask="url(#mask-2)" x="0" y="12" width="25" height="89"></rect>
                        <rect fill="#F2F6FF" opacity="0.600000024" mask="url(#mask-2)" x="11" y="17" width="9" height="2"></rect>
                        <rect id="矩形备份-10" fill="#F2F6FF" opacity="0.600000024" mask="url(#mask-2)" x="11" y="28" width="9" height="2"></rect>
                        <rect id="矩形备份-12" fill="#F2F6FF" opacity="0.600000024" mask="url(#mask-2)" x="11" y="39" width="9" height="2"></rect>
                        <rect id="矩形备份-13" fill="#F2F6FF" opacity="0.600000024" mask="url(#mask-2)" x="11" y="50" width="9" height="2"></rect>
                        <circle id="椭圆形" fill="#F2F6FF" mask="url(#mask-2)" cx="6" cy="18" r="2"></circle>
                        <circle id="椭圆形备份-9" fill="#F2F6FF" mask="url(#mask-2)" cx="6" cy="40" r="2"></circle>
                        <circle id="椭圆形备份-8" fill="#F2F6FF" mask="url(#mask-2)" cx="6" cy="29" r="2"></circle>
                        <circle id="椭圆形备份-10" fill="#F2F6FF" mask="url(#mask-2)" cx="6" cy="51" r="2"></circle>
                    </g>
                    <path d="M4,5.68434189e-14 L149,5.68434189e-14 C151.209139,5.64376066e-14 153,1.790861 153,4 L153,12 L153,12 L0,12 L0,4 C-2.705415e-16,1.790861 1.790861,5.72492311e-14 4,5.68434189e-14 Z" id="矩形" fill="url(#linearGradient-3)"></path>
                </g>
                <g id="编组-6" transform="translate(33, 19)">
                    <g id="矩形">
                        <use fill="black" fill-opacity="1" filter="url(#filter-5)" xlink:href="#path-4"></use>
                        <use fill="#F2F8FF" fill-rule="evenodd" xlink:href="#path-4"></use>
                    </g>
                    <g id="编组-5" transform="translate(24, 38)">
                        <rect id="矩形" fill="#5AD0C3" x="0" y="0" width="8" height="8"></rect>
                        <rect id="矩形" fill="#DBEBFF" x="12" y="5" width="68" height="2"></rect>
                        <rect id="矩形备份-25" fill="#DBEBFF" x="12" y="1" width="18" height="2"></rect>
                        <rect id="矩形备份-26" fill="#DBEBFF" x="12" y="12" width="18" height="2"></rect>
                        <rect id="矩形备份-27" fill="#DBEBFF" x="12" y="23" width="18" height="2"></rect>
                        <rect id="矩形备份-19" fill="#DBEBFF" x="12" y="16" width="68" height="2"></rect>
                        <rect id="矩形备份-24" fill="#DBEBFF" x="12" y="27" width="68" height="2"></rect>
                        <rect id="矩形备份-14" fill="#DBEBFF" x="0" y="11" width="8" height="8"></rect>
                        <rect id="矩形备份-15" fill="#DBEBFF" x="0" y="22" width="8" height="8"></rect>
                    </g>
                    <rect id="矩形" fill="#DBEBFF" x="24" y="12" width="24" height="16"></rect>
                    <rect id="矩形备份-28" fill="#DBEBFF" x="53" y="12" width="24" height="16"></rect>
                    <rect id="矩形备份-29" fill="#DBEBFF" x="82" y="12" width="24" height="16"></rect>
                    <rect id="矩形" fill="url(#linearGradient-6)" x="24" y="78" width="29" height="10"></rect>
                    <rect id="矩形备份-30" fill="#DBEBFF" x="52" y="78" width="54" height="10"></rect>
                    <path d="M16.4411426,111.795504 C16.9382372,111.928878 17.4608129,112 18,112 L16.5,112 Z M129,96 L129,103 C129,107.970563 124.970563,112 120,112 L18,112 C21.3137085,112 24,109.313708 24,106 L23.9991426,96 L129,96 Z" id="形状结合" fill="url(#linearGradient-7)"></path>
                    <path d="M6,0 C9.3137085,-6.08718376e-16 12,2.6862915 12,6 L12,24 L12,24 L0,24 L0,6 C-4.05812251e-16,2.6862915 2.6862915,6.08718376e-16 6,0 Z" id="矩形" fill="url(#linearGradient-8)"></path>
                    <g id="编组-7" transform="translate(94, 21)">
                        <g id="矩形">
                            <use fill="black" fill-opacity="1" filter="url(#filter-11)" xlink:href="#path-10"></use>
                            <use fill="url(#linearGradient-9)" fill-rule="evenodd" xlink:href="#path-10"></use>
                        </g>
                        <circle id="椭圆形" fill="#FFFFFF" cx="10.5" cy="14.5" r="2.5"></circle>
                        <circle id="椭圆形备份" fill="#FFFFFF" opacity="0.800000012" cx="20.5" cy="14.5" r="2.5"></circle>
                        <circle id="椭圆形备份-2" fill="#FFFFFF" opacity="0.600000024" cx="30.5" cy="14.5" r="2.5"></circle>
                    </g>
                </g>
            </g>
        </g>
    </g>
</svg>