<?xml version="1.0" encoding="UTF-8"?>
<svg width="16px" height="16px" viewBox="0 0 16 16" version="1.1" xmlns="http://www.w3.org/2000/svg" xmlns:xlink="http://www.w3.org/1999/xlink">
    <title>9B2617BE-6603-43DC-BE8B-18B1BB745842</title>
    <g id="组件" stroke="none" stroke-width="1" fill="none" fill-rule="evenodd">
        <g id="上传" transform="translate(-1052, -2819)">
            <g id="压缩包" transform="translate(1052, 2819)">
                <rect id="矩形" x="0" y="0" width="16" height="16"></rect>
                <g id="编组" transform="translate(1, 0)" fill-rule="nonzero">
                    <path d="M13.2308468,15.4285714 C13.2308468,15.7441714 12.9769846,16 12.6638105,16 L0.56703629,16 C0.253862147,16 0,15.7441714 0,15.4285714 L0,0.571428571 C0,0.255828571 0.253862147,0 0.56703629,0 L9.5640121,0 L13.2308468,3.6952381 L13.2308468,15.4285714 Z" id="路径" fill="#4795FF"></path>
                    <path d="M13.2308468,3.6952381 L10.1310484,3.6952381 C9.81787424,3.6952381 9.5640121,3.43940952 9.5640121,3.12380952 L9.5640121,0" id="路径" fill-opacity="0.4" fill="#FFFFFF"></path>
                    <path d="M2.40045363,0 L3.72353831,0 L3.72353831,1.33333333 L2.40045363,1.33333333 L2.40045363,0 Z M3.72353831,1.33333333 L5.04662298,1.33333333 L5.04662298,2.66666667 L3.72353831,2.66666667 L3.72353831,1.33333333 Z M2.40045363,2.66666667 L3.72353831,2.66666667 L3.72353831,4 L2.40045363,4 L2.40045363,2.66666667 Z M3.72353831,4 L5.04662298,4 L5.04662298,5.33333333 L3.72353831,5.33333333 L3.72353831,4 Z M2.40045363,5.33333333 L3.72353831,5.33333333 L3.72353831,6.66666667 L2.40045363,6.66666667 L2.40045363,5.33333333 Z M2.40045363,7.16190476 L5.04662298,7.16190476 L5.04662298,9.25714286 C5.04662298,9.57274286 4.79276084,9.82857143 4.47958669,9.82857143 L2.96748992,9.82857143 C2.65431578,9.82857143 2.40045363,9.57274286 2.40045363,9.25714286 L2.40045363,7.16190476 Z" id="形状" fill="#FFFFFF"></path>
                </g>
            </g>
        </g>
    </g>
</svg>