<?xml version="1.0" encoding="UTF-8"?>
<svg width="16px" height="16px" viewBox="0 0 16 16" version="1.1" xmlns="http://www.w3.org/2000/svg" xmlns:xlink="http://www.w3.org/1999/xlink">
    <title>9B9D3402-DCF9-478B-8CD5-5CFF202CEE1D</title>
    <g id="组件" stroke="none" stroke-width="1" fill="none" fill-rule="evenodd">
        <g id="上传" transform="translate(-1151, -2819)">
            <g id="文档" transform="translate(1151, 2819)">
                <rect id="矩形" x="0" y="0" width="16" height="16"></rect>
                <g id="编组" transform="translate(1, 0)" fill-rule="nonzero">
                    <path d="M13,15.4285714 C13,15.7441714 12.7505671,16 12.4428571,16 L0.557142857,16 C0.249432857,16 0,15.7441714 0,15.4285714 L0,0.571428571 C0,0.255828571 0.249432857,0 0.557142857,0 L9.39714286,0 L13,3.6952381 L13,15.4285714 Z" id="路径" fill="#4795FF"></path>
                    <path d="M13,3.6952381 L9.95428571,3.6952381 C9.64657571,3.6952381 9.39714286,3.43940952 9.39714286,3.12380952 L9.39714286,0" id="路径" fill-opacity="0.4" fill="#FFFFFF"></path>
                    <polygon id="路径" fill="#FFFFFF" points="3.71075714 11.6380952 5.43975714 11.6380952 6.43165714 7.53142857 6.48625714 7.53142857 7.45995714 11.6380952 9.18895714 11.6380952 10.6358571 5.1607619 9.20715714 5.1607619 8.27895714 9.9487619 8.22435714 9.9487619 7.31435714 5.78609524 5.71275714 5.78609524 4.74815714 9.9487619 4.69355714 9.9487619 3.78355714 5.1607619 2.33665714 5.1607619"></polygon>
                </g>
            </g>
        </g>
    </g>
</svg>