<?xml version="1.0" encoding="UTF-8"?>
<svg width="16px" height="16px" viewBox="0 0 16 16" version="1.1" xmlns="http://www.w3.org/2000/svg" xmlns:xlink="http://www.w3.org/1999/xlink">
    <title>9EF6B9AD-7A80-421F-8358-6C9E62354C2D</title>
    <g id="弹窗" stroke="none" stroke-width="1" fill="none" fill-rule="evenodd">
        <g id="特殊弹窗" transform="translate(-1214, -643)" fill-rule="nonzero">
            <g id="编组-23" transform="translate(52, 553)">
                <g id="编组-24" transform="translate(984, 34)">
                    <g id="编组-15" transform="translate(0, 48)">
                        <g id="子系统迭代" transform="translate(178, 8)">
                            <rect id="矩形" fill="#000000" opacity="0" x="0" y="0" width="16" height="16"></rect>
                            <g id="更换-(3)" transform="translate(1, 1)" fill="#333333">
                                <path d="M4.97670406,0 L0.857635893,0 C0.386540121,0 0,0.386540121 0,0.857635893 L0,4.97670406 C0,5.44779983 0.386540121,5.83433995 0.857635893,5.83433995 L4.97670406,5.83433995 C5.44779983,5.83433995 5.83433995,5.44779983 5.83433995,4.97670406 L5.83433995,0.869715272 C5.83433995,0.386540121 5.44779983,0 4.97670406,0 L4.97670406,0 Z M4.79551337,4.80759275 L1.0267472,4.80759275 L1.0267472,1.03882657 L4.79551337,1.03882657 L4.79551337,4.80759275 Z M13.0094909,7.4529767 L8.17773943,7.4529767 C7.70664366,7.4529767 7.32010354,7.83951682 7.32010354,8.3106126 L7.32010354,13.1423641 C7.32010354,13.6134599 7.70664366,14 8.17773943,14 L13.0094909,14 C13.4805867,14 13.8671268,13.6134599 13.8671268,13.1423641 L13.8671268,8.3106126 C13.8671268,7.83951682 13.4805867,7.4529767 13.0094909,7.4529767 Z M12.8283003,12.9732528 L8.34685073,12.9732528 L8.34685073,8.49180328 L12.8403796,8.49180328 L12.8403796,12.9732528 L12.8283003,12.9732528 Z M4.81967213,12.9732528 C3.53925798,12.9732528 2.48835203,11.9344262 2.48835203,10.6540121 L2.48835203,9.5064711 L3.91371872,9.5064711 L1.96893874,7.57377049 L0.0241587575,9.5064711 L1.44952545,9.5064711 L1.44952545,10.6540121 C1.44952545,12.502157 2.9594478,14 4.81967213,14 C5.10957722,14 5.33908542,13.7704918 5.33908542,13.4805867 C5.33908542,13.1906816 5.10957722,12.9732528 4.81967213,12.9732528 Z M9.15616911,1.03882657 C10.4365833,1.03882657 11.4874892,2.07765315 11.4874892,3.3580673 L11.4874892,4.50560828 L10.0742019,4.50560828 L12.0189819,6.45038827 L13.9516825,4.50560828 L12.5263158,4.50560828 L12.5263158,3.3580673 C12.5263158,1.50992235 11.0163934,0 9.15616911,0 C8.86626402,0 8.63675582,0.229508197 8.63675582,0.519413287 C8.63675582,0.809318378 8.8783434,1.03882657 9.15616911,1.03882657 L9.15616911,1.03882657 Z" id="形状"></path>
                            </g>
                        </g>
                    </g>
                </g>
            </g>
        </g>
    </g>
</svg>