<?xml version="1.0" encoding="UTF-8"?>
<svg width="14px" height="14px" viewBox="0 0 14 14" version="1.1" xmlns="http://www.w3.org/2000/svg" xmlns:xlink="http://www.w3.org/1999/xlink">
    <title>A608DA21-3E82-46B5-8C27-B1FC1F3B4746</title>
    <g id="筛选" stroke="none" stroke-width="1" fill="none" fill-rule="evenodd">
        <g id="页面展开搜索" transform="translate(-1040, -583)" fill-rule="nonzero">
            <g id="基础/按钮/线框按钮" transform="translate(1028, 570)">
                <g id="收起" transform="translate(12, 13)">
                    <rect id="矩形" x="0" y="0" width="14" height="14"></rect>
                    <path d="M1.13072,10.9038 L6.75241,5.28214 C6.8891,5.14545 7.11071,5.14545 7.24739,5.28213 L12.8692,10.904 C12.9668,11.0016 12.9668,11.1599 12.8692,11.2575 L12.3035,11.8232 C12.2059,11.9208 12.0476,11.9208 11.95,11.8232 L6.9999,6.87313 L2.04996,11.8231 C1.95233,11.9207 1.79405,11.9207 1.69641,11.8231 L1.13072,11.2574 C1.03309,11.1598 1.03309,11.0015 1.13072,10.9038 Z" id="路径" fill="#464F5C"></path>
                    <path d="M1.13072,6.90383 L6.75241,1.28214 C6.8891,1.14545 7.11071,1.14545 7.24739,1.28214 L12.8692,6.90396 C12.9668,7.00159 12.9668,7.15988 12.8692,7.25752 L12.3035,7.8232 C12.2059,7.92083 12.0476,7.92083 11.95,7.8232 L6.9999,2.87313 L2.04996,7.82306 C1.95233,7.92069 1.79405,7.92069 1.69641,7.82307 L1.13072,7.25739 C1.03309,7.15976 1.03309,7.00146 1.13072,6.90383 Z" id="路径" fill="#464F5C"></path>
                </g>
            </g>
        </g>
    </g>
</svg>