<?xml version="1.0" encoding="UTF-8"?>
<svg width="16px" height="16px" viewBox="0 0 16 16" version="1.1" xmlns="http://www.w3.org/2000/svg" xmlns:xlink="http://www.w3.org/1999/xlink">
    <title>A75DC1D0-9FD0-4E76-AE83-8D1573086C35</title>
    <g id="导航" stroke="none" stroke-width="1" fill="none" fill-rule="evenodd">
        <g id="顶部导航备份" transform="translate(-638, -358)">
            <g id="编组-23备份" transform="translate(626, 274)">
                <g id="编组-20" transform="translate(4, 76)">
                    <g id="测试" transform="translate(8, 8)">
                        <rect id="矩形" x="0" y="0" width="16" height="16"></rect>
                        <path d="M13.9153411,1.04 C14.5140035,1.04 15,1.58997381 15,2.26860816 L15,11.0348574 C15,11.3615085 14.8860008,11.6734936 14.6826689,11.9041493 C14.4786704,12.134805 14.2026724,12.2641322 13.9160077,12.2641322 L2.08409219,12.2641322 C1.79609425,12.2641322 1.52076288,12.134805 1.31743099,11.9041493 C1.11004549,11.6625325 0.99730152,11.3539202 1.00004906,11.035524 L1.00004906,2.2692748 C1.00004906,1.58930717 1.48609646,1.04 2.08475885,1.04 L13.9153411,1.04 Z M13.9153411,2.0079539 L2.08475885,2.0079539 C1.95809308,2.0079539 1.85476049,2.12461501 1.85476049,2.26860816 L1.85476049,11.0348574 C1.85476049,11.1788505 1.95742643,11.2961783 2.08475885,11.2961783 L13.9153411,11.2961783 C13.976674,11.2961783 14.0353402,11.2688463 14.0780066,11.2195153 C14.1219306,11.168326 14.1458473,11.1029722 14.1453474,11.035524 L14.1453474,2.2692748 C14.1453474,2.12461503 14.0426735,2.0079539 13.9153411,2.0079539 Z M9.30070734,3.31322509 C9.40537327,3.36388934 9.48737268,3.45921814 9.52937238,3.57854579 C9.57147414,3.69875375 9.57005859,3.82992337 9.52537242,3.9491948 L7.27538848,9.90624446 C7.1820558,10.1522327 6.93072428,10.2662273 6.71405915,10.160899 C6.49739403,10.0555707 6.39672809,9.77091758 6.48939408,9.52492929 L8.74004468,3.56787962 C8.83337735,3.32255798 9.08404223,3.20789676 9.30070734,3.31322509 Z M12.5,6.5 C12.6107926,6.6756669 12.6102732,6.89948838 12.4986667,7.0746393 L11.0833435,9.24120279 C11.001243,9.37622506 10.8484519,9.45157817 10.6913462,9.43452692 C10.5324502,9.40893132 10.400516,9.29800866 10.3480154,9.145874 C10.2873411,8.98697489 10.3053875,8.80874341 10.3966817,8.66523022 L11.6260062,6.78531974 L10.3953484,4.88274367 C10.2719175,4.68762501 10.288062,4.43524283 10.4353481,4.25744012 L10.4873477,4.20610923 C10.575107,4.13117621 10.6915472,4.09895506 10.8053454,4.11811342 C10.9173446,4.13744583 11.0180106,4.20677587 11.0853434,4.31010428 L12.5,6.5 Z M5.51198564,4.20610923 L5.56465193,4.25677349 C5.71172814,4.43472487 5.72760311,4.68709974 5.60398499,4.88207704 L4.37466043,6.78265321 L5.60398499,8.66256369 C5.74398398,8.87788677 5.70398427,9.18120565 5.51465229,9.33986477 C5.32532031,9.49985715 5.05732222,9.45385934 4.91732321,9.23986954 L3.50133332,7.07330603 C3.39028912,6.89847311 3.3897702,6.67534749 3.5,6.5 L4.91465657,4.30943765 C5.05465558,4.0947812 5.32198701,4.04811675 5.51198564,4.20610923 Z M12.6993498,14.556023 C12.6993498,14.822677 12.5080178,15.04 12.2726861,15.04 L3.7274138,15.04 C3.49141549,15.04 3.30008351,14.8233437 3.30008351,14.556023 C3.30008351,14.2887024 3.49141548,14.0720461 3.72674713,14.0720461 L12.2713528,14.0720461 C12.5080178,14.0720461 12.6993498,14.2887024 12.6993498,14.556023 Z" id="形状" fill="#464F5C" fill-rule="nonzero"></path>
                    </g>
                </g>
            </g>
        </g>
    </g>
</svg>