<?xml version="1.0" encoding="UTF-8"?>
<svg width="14px" height="14px" viewBox="0 0 14 14" version="1.1" xmlns="http://www.w3.org/2000/svg" xmlns:xlink="http://www.w3.org/1999/xlink">
    <title>A8D54B6B-83C0-4967-A516-13382F92A90B</title>
    <g id="组件" stroke="none" stroke-width="1" fill="none" fill-rule="evenodd">
        <g id="视图" transform="translate(-262, -415)" fill-rule="nonzero">
            <g id="编组-6" transform="translate(180, 396)">
                <g id="编组-3" transform="translate(16, 16)">
                    <g id="重新提问" transform="translate(66, 3)">
                        <rect id="矩形" x="0" y="0.00589580606" width="14" height="13.9941042"></rect>
                        <path d="M7.00385,0 C10.86985,0 14.00385,3.13269018 14.00385,6.9970521 C14.00385,10.861424 10.86985,13.9941042 7.00385,13.9941042 C3.13786,13.9941042 0.00385000201,10.861424 0.00385000201,6.9970521 C0.00385000201,3.13269018 3.13786,0 7.00385,0 Z M7.00385,1.29945253 C3.85583,1.29945253 1.30385,3.85035782 1.30385,6.9970521 C1.30385,10.1437264 3.85583,12.6946517 7.00385,12.6946517 C10.15185,12.6946517 12.70385,10.1437264 12.70385,6.9970521 C12.70385,3.85035782 10.15185,1.29945253 7.00385,1.29945253 Z M6.99679,9.73451708 C7.43548,9.73451708 7.77843,10.0664572 7.77843,10.501474 C7.77843,10.9364907 7.43548,11.2684508 6.99679,11.2684508 C6.56767,11.2684508 6.21993,10.9364907 6.21993,10.501474 C6.21993,10.0664572 6.56767,9.73451708 6.99679,9.73451708 Z M6.99998,2.8546756 C8.46353,2.8546756 9.64998,4.04061595 9.64998,5.5035596 C9.64998,6.44447881 9.15896145,7.2698881 8.42171895,7.73921406 L8.27106,7.82826019 C8.07306,7.93660455 7.9038,8.06444069 7.79119,8.1956754 C7.68166,8.32334161 7.64998,8.42364935 7.64998,8.50229622 L7.64998,8.70221199 C7.64998,9.06104082 7.35896,9.35193826 6.99998,9.35193826 C6.64099,9.35193826 6.34998,9.06104082 6.34998,8.70221199 L6.34998,8.50229622 C6.34998,8.02848584 6.55589,7.63936977 6.8044,7.3497318 C7.05016,7.06328248 7.36038,6.84516438 7.64683,6.68842042 C8.06716,6.45842731 8.34998,6.01359472 8.34998,5.5035596 C8.34998,4.75828359 7.74556,4.15412813 6.99998,4.15412813 C6.25439,4.15412813 5.64998,4.75828359 5.64998,5.5035596 C5.64998,5.72841487 5.70449,5.9386463 5.80045,6.12358838 C5.96574,6.44212418 5.8414,6.83427896 5.52273,6.99949936 C5.20406,7.16471975 4.81173,7.04042211 4.64644,6.72188632 C4.45682,6.35646027 4.34998,5.94152509 4.34998,5.5035596 C4.34998,4.04061595 5.53642,2.8546756 6.99998,2.8546756 Z" id="形状" fill="#60666E"></path>
                    </g>
                </g>
            </g>
        </g>
    </g>
</svg>