<?xml version="1.0" encoding="UTF-8"?>
<svg width="16px" height="16px" viewBox="0 0 16 16" version="1.1" xmlns="http://www.w3.org/2000/svg" xmlns:xlink="http://www.w3.org/1999/xlink">
    <title>AC08BA15-DE28-4E0F-9994-0B8784D1EA43</title>
    <g id="组件" stroke="none" stroke-width="1" fill="none" fill-rule="evenodd">
        <g id="上传" transform="translate(-860, -2819)">
            <g id="代码" transform="translate(860, 2819)">
                <rect id="矩形" x="0" y="0" width="16" height="16"></rect>
                <g id="编组" transform="translate(1, 0)" fill-rule="nonzero">
                    <path d="M13,15.4285714 C13,15.7441714 12.7505671,16 12.4428571,16 L0.557142857,16 C0.249432857,16 0,15.7441714 0,15.4285714 L0,0.571428571 C0,0.255828571 0.249432857,0 0.557142857,0 L9.39714286,0 L13,3.6952381 L13,15.4285714 Z" id="路径" fill="#FFA542"></path>
                    <path d="M13,3.6952381 L9.95428571,3.6952381 C9.64657571,3.6952381 9.39714286,3.43940952 9.39714286,3.12380952 L9.39714286,0" id="路径" fill-opacity="0.4" fill="#FFFFFF"></path>
                    <path d="M7.29087776,5.70852592 C7.66645445,5.8117418 7.82638281,6.09584852 7.72685384,6.47681994 L6.49154752,11.2052568 C6.39152712,11.5881093 6.11079136,11.7543482 5.73327471,11.6505992 C5.35769803,11.5473833 5.19776967,11.2632766 5.29729862,10.8823052 L6.53260495,6.15386827 C6.63262536,5.77101577 6.91336112,5.60477692 7.29087776,5.70852592 Z M4.54875126,6.05541712 L4.63288959,6.13200542 C4.90560264,6.41171111 4.90560264,6.73763133 4.63287151,7.01735554 L3.00229418,8.68893522 L4.63288959,10.3608811 C4.84525842,10.5786953 4.86885963,10.9151881 4.70368076,11.1593796 L4.63288959,11.2462127 C4.3912176,11.4940814 3.99722229,11.4940814 3.7555503,11.2462127 L1.69393299,9.1317333 C1.45215232,8.88412233 1.42418505,8.59907258 1.60824829,8.34677353 L1.69812398,8.2412846 L3.7555503,6.13200542 C3.99949938,5.88180123 4.28965986,5.84873451 4.54875126,6.05541712 Z M9.2538469,6.13200405 L11.3265572,8.25787282 C11.5887909,8.53533209 11.584058,8.85655235 11.3155608,9.13193404 L9.25384924,11.2462137 C9.01217725,11.4940824 8.61818194,11.4940824 8.37650995,11.2462137 C8.1375891,11.0011667 8.13759502,10.6059231 8.37648254,10.3609102 L10.0052942,8.68893522 L8.37650995,7.01733803 C8.1617359,6.79705696 8.11307716,6.5437048 8.25008749,6.29918355 L8.31020779,6.20798387 L8.38496596,6.12382915 L8.46064828,6.05541815 C8.71973968,5.84873554 9.00990016,5.88180226 9.2538469,6.13200405 Z" id="形状" fill="#FFFFFF"></path>
                </g>
            </g>
        </g>
    </g>
</svg>