<?xml version="1.0" encoding="UTF-8"?>
<svg width="40px" height="40px" viewBox="0 0 40 40" version="1.1" xmlns="http://www.w3.org/2000/svg" xmlns:xlink="http://www.w3.org/1999/xlink">
    <title>AD1202A3-1924-4B0D-9381-F0AE63269785</title>
    <g id="图表" stroke="none" stroke-width="1" fill="none" fill-rule="evenodd">
        <g id="仪表盘页面示例" transform="translate(-1040, -285)">
            <g id="编组-16备份-5" transform="translate(1024, 269)">
                <g id="ES" transform="translate(16, 16)">
                    <rect id="矩形" fill="#F5F7FA" x="0" y="0" width="40" height="40" rx="4"></rect>
                    <g id="编组" transform="translate(11, 10)" fill="#006EFF" fill-rule="nonzero">
                        <path d="M0,9.89999999 C0,10.9 0.0980926508,12 0.441416894,12.9 L7.11171662,12.9 C7.35694823,11.9 7.45504088,11.05 7.45504088,10 C7.45504088,9.05000001 7.35694823,8.05 7.11171662,7.10000001 L0.343324243,7.10000001 C0.147138965,8.00000001 0,8.84999999 0,9.89999999 Z M13.3896458,7.10000001 L8.33787467,7.10000001 C8.58310629,7.95000002 8.68119891,8.95 8.68119891,10 C8.68119891,11.05 8.58310626,11.85 8.33787467,12.9 L13.3896458,12.9 C14.9591281,12.9 16.1852861,11.65 16.1852861,10 C16.1852861,8.35 14.9591281,7.10000001 13.3896458,7.10000001 Z M1.02997275,5.75000001 L6.76839237,5.75000001 C6.08174386,4.25000001 5.29700273,2.85000002 4.41416894,1.75000001 C2.94277929,2.75000001 1.66757492,4.10000001 1.02997275,5.75000001 Z M14.3705722,5.75000001 C15.8419619,5.75000001 17.0681199,5.15000001 17.9509537,4.15 C16.1852861,1.60000001 13.1934605,0 9.80926432,0 C8.14168939,0 6.76839237,0.400000007 5.39509538,1.15000001 C6.52316078,2.4 7.30790192,4 7.89645778,5.65 L14.3705722,5.75000001 L14.3705722,5.75000001 Z M0.882833788,14.25 L6.62125341,14.25 C6.03269755,15.75 5.29700273,17.1 4.26702997,18.1 C2.94277929,17.25 1.66757492,15.9 0.882833788,14.25 L0.882833788,14.25 Z M14.4196185,14.25 C15.8910082,14.25 17.1171662,14.85 18,15.85 C16.1852861,18.35 13.0463215,20 9.80926432,20 C8.14168939,20 6.76839237,19.5 5.39509538,18.9 C6.52316078,17.65 7.30790192,16 7.89645778,14.4 L14.4196185,14.25 L14.4196185,14.25 Z" id="形状"></path>
                    </g>
                </g>
            </g>
        </g>
    </g>
</svg>