<?xml version="1.0" encoding="UTF-8"?>
<svg width="16px" height="16px" viewBox="0 0 16 16" version="1.1" xmlns="http://www.w3.org/2000/svg" xmlns:xlink="http://www.w3.org/1999/xlink">
    <title>AE20F958-BA23-45E7-80E7-14FC1C196ADE</title>
    <g id="组件" stroke="none" stroke-width="1" fill="none" fill-rule="evenodd">
        <g id="卡片" transform="translate(-181, -1190)">
            <g id="编组-3备份" transform="translate(165, 1168)">
                <g id="授权管理" transform="translate(16, 22)">
                    <rect id="矩形" fill-rule="nonzero" x="0" y="0" width="16" height="16"></rect>
                    <path d="M13,8 C14.1046,8 15,8.89543 15,10 C15,10.87703 14.4355,11.6222 13.65,11.892 L13.65,12.85 L14.25,12.85 C14.3881,12.85 14.5,12.9619 14.5,13.1 L14.5,13.9 C14.5,14.0381 14.3881,14.15 14.25,14.15 L13.65,14.15 L13.65,14.75 C13.65,14.8881 13.5381,15 13.4,15 L12.6,15 C12.4619,15 12.35,14.8881 12.35,14.75 L12.35,11.892 C11.5645,11.6222 11,10.87703 11,10 C11,8.89543 11.8954,8 13,8 Z M9.8,9 C9.91046,9 10,9.08954 10,9.2 L10,10.1 C10,10.21046 9.91046,10.3 9.8,10.3 L5,10.3 C4.06112,10.3 3.3,11.0611 3.3,12 L3.3,13.7 L10.8,13.7 C10.91046,13.7 11,13.7895 11,13.9 L11,14.8 C11,14.9105 10.91046,15 10.8,15 L2,15 L2,12 C2,10.34315 3.34315,9 5,9 Z M13,9.3 C12.6134,9.3 12.3,9.6134 12.3,10 C12.3,10.3866 12.6134,10.7 13,10.7 C13.3866,10.7 13.7,10.3866 13.7,10 C13.7,9.6134 13.3866,9.3 13,9.3 Z M8,2 C9.65685,2 11,3.34315 11,5 C11,6.65685 9.65685,8 8,8 C6.34315,8 5,6.65685 5,5 C5,3.34315 6.34315,2 8,2 Z M8,3.3 C7.06112,3.3 6.3,4.06112 6.3,5 C6.3,5.93888 7.06112,6.7 8,6.7 C8.93888,6.7 9.7,5.93888 9.7,5 C9.7,4.06112 8.93888,3.3 8,3.3 Z" id="形状结合" fill="#464F5C"></path>
                </g>
            </g>
        </g>
    </g>
</svg>