<?xml version="1.0" encoding="UTF-8"?>
<svg width="16px" height="16px" viewBox="0 0 16 16" version="1.1" xmlns="http://www.w3.org/2000/svg" xmlns:xlink="http://www.w3.org/1999/xlink">
    <title>B9C4594A-2375-4692-8900-573C9918365E</title>
    <g id="组件" stroke="none" stroke-width="1" fill="none" fill-rule="evenodd">
        <g id="视图" transform="translate(-979, -1822)">
            <g id="排序" transform="translate(979, 1822)">
                <rect id="矩形" fill-rule="nonzero" x="0" y="0" width="16" height="16"></rect>
                <path d="M13.2473143,11.7824 L10.0473714,14.9824 L9.42860571,14.9824 C9.27081143,14.9824 9.14289143,14.8545143 9.14289143,14.6966857 L9.14289143,1.1792 C9.14289143,1.05296686 9.24522286,0.950630857 9.37146286,0.950630857 L10.4000343,0.950630857 C10.5262743,0.950630857 10.6286057,1.05296686 10.6286057,1.1792 L10.6286171,12.3001143 L12.9241143,10.00456 C13.0681143,9.86057143 13.3142857,9.96254857 13.3142857,10.1661829 L13.3142857,11.6208 C13.3142857,11.6813714 13.2902857,11.7395429 13.2473143,11.7824 Z M2.35267429,4.21758857 C2.30981714,4.26045714 2.28573714,4.31859429 2.28573714,4.37921143 L2.28573714,5.83382857 C2.28573714,6.03746286 2.53193143,6.13944 2.67593143,5.99545143 L4.97145143,3.69993143 L4.97145143,14.8208 C4.97145143,14.9469714 5.07379429,15.0493714 5.20002286,15.0493714 L6.22860571,15.0493714 C6.35483429,15.0493714 6.45717714,14.9469714 6.45717714,14.8208 L6.45717714,1.017576 L6.15564571,1.01786057 C5.95465143,1.018144 5.75365714,1.01842857 5.55268571,1.017576 L2.35267429,4.21758857 Z" id="形状结合" fill="#464F5C"></path>
            </g>
        </g>
    </g>
</svg>