<?xml version="1.0" encoding="UTF-8"?>
<svg width="22px" height="21px" viewBox="0 0 22 21" version="1.1" xmlns="http://www.w3.org/2000/svg" xmlns:xlink="http://www.w3.org/1999/xlink">
    <title>BC650D0D-1C73-413A-845E-5086165672B9</title>
    <defs>
        <path d="M8.30057128,-7.10357989e-14 L8.47287283,0.0984511295 L10.600849,3.70906356 L10.6006804,3.91244695 L10.5000313,4.08257597 L10.3275814,4.18074119 L9.227,4.178 L9.227,7.173 L12.219,7.173 L12.2192585,6.07197482 L12.3174953,5.89983151 L12.4876243,5.79927751 L12.6909364,5.79915097 L16.3015489,7.92712717 L16.4,8.09942872 L16.4,8.30057128 L16.3015489,8.47287283 L12.6909364,10.600849 L12.4876243,10.6007225 L12.3174952,10.5001685 L12.2192585,10.3280251 L12.219,9.224 L9.227,9.224 L9.227,12.219 L10.3280252,12.2192585 L10.5001685,12.3174953 L10.6007225,12.4876243 L10.600849,12.6909364 L8.47287283,16.3015489 L8.30057128,16.4 L8.09942872,16.4 L7.92712717,16.3015489 L5.79915097,12.6909364 L5.79927752,12.4876243 L5.89983153,12.3174952 L6.07197489,12.2192585 L7.176,12.219 L7.176,9.224 L4.178,9.224 L4.18074119,10.327582 L4.08257592,10.5000314 L3.91244691,10.6006804 L3.70906356,10.600849 L0.0984511295,8.47287283 L0,8.30057128 L0,8.09942872 L0.0984511295,7.92712717 L3.70906356,5.79915097 L3.91244695,5.79931965 L4.08257597,5.89996868 L4.18074119,6.07241861 L4.178,7.173 L7.176,7.173 L7.176,4.178 L6.07241799,4.18074119 L5.89996859,4.08257592 L5.79931962,3.91244691 L5.79915097,3.70906356 L7.92712717,0.0984511295 L8.09942872,-7.10727482e-14 L8.30057128,-7.10357989e-14 Z" id="path-1"></path>
        <filter x="-18.3%" y="-12.2%" width="136.6%" height="136.6%" filterUnits="objectBoundingBox" id="filter-2">
            <feMorphology radius="1" operator="dilate" in="SourceAlpha" result="shadowSpreadOuter1"></feMorphology>
            <feOffset dx="0" dy="1" in="shadowSpreadOuter1" result="shadowOffsetOuter1"></feOffset>
            <feGaussianBlur stdDeviation="0.5" in="shadowOffsetOuter1" result="shadowBlurOuter1"></feGaussianBlur>
            <feComposite in="shadowBlurOuter1" in2="SourceAlpha" operator="out" result="shadowBlurOuter1"></feComposite>
            <feColorMatrix values="0 0 0 0 0   0 0 0 0 0   0 0 0 0 0  0 0 0 0.319055944 0" type="matrix" in="shadowBlurOuter1"></feColorMatrix>
        </filter>
    </defs>
    <g id="图表" stroke="none" stroke-width="1" fill="none" fill-rule="evenodd">
        <g id="甘特图" transform="translate(-356, -3662)">
            <g id="编组-17备份" transform="translate(357, 3662)">
                <rect id="矩形" x="0" y="0" width="20" height="20"></rect>
                <g id="编组" transform="translate(1.8, 1.3)" fill-rule="nonzero" stroke-linejoin="round">
                    <g id="形状结合">
                        <use fill="black" fill-opacity="1" filter="url(#filter-2)" xlink:href="#path-1"></use>
                        <path stroke="#FFFFFF" stroke-width="1" d="M8.75856709,-0.401548871 L11.1009621,3.57287563 L9.727,4.67924689 L9.727,6.673 L11.7191174,6.673 L11.7192897,5.93929146 L16.669807,7.56378859 L12.8271723,11.1009339 L11.7191171,9.724 L9.727,9.724 L9.727,11.7191174 L10.4607085,11.7192897 L8.83621141,16.669807 L5.29906608,12.8271723 L6.676,11.7191171 L6.676,9.724 L4.67924349,9.724 L4.68107002,10.4593449 L-0.269806998,8.83621141 L3.57287563,5.29903785 L4.67924689,6.673 L6.676,6.673 L6.676,4.67924349 L5.9406551,4.68107002 L7.64143291,-0.401548871 L8.75856709,-0.401548871 Z" fill="#20242E" fill-rule="evenodd"></path>
                    </g>
                </g>
            </g>
        </g>
    </g>
</svg>