<?xml version="1.0" encoding="UTF-8"?>
<svg width="16px" height="16px" viewBox="0 0 16 16" version="1.1" xmlns="http://www.w3.org/2000/svg" xmlns:xlink="http://www.w3.org/1999/xlink">
    <title>C1C593F0-E442-4BCF-93A1-BAF1D47C2A97</title>
    <g id="导航" stroke="none" stroke-width="1" fill="none" fill-rule="evenodd">
        <g id="顶部导航" transform="translate(-638, -286)" fill-rule="nonzero">
            <g id="编组-23备份" transform="translate(626, 274)">
                <g id="编组-22" transform="translate(4, 4)">
                    <g id="需求" transform="translate(8, 8)">
                        <rect id="矩形" fill="#FFFFFF" opacity="0" x="0" y="0" width="16" height="16"></rect>
                        <path d="M10.3076923,1 C10.5838347,1 10.8076923,1.22385763 10.8076923,1.5 C10.8076923,1.75103852 10.622686,1.95886651 10.3815786,1.99457872 L10.3076923,2 L2.92307692,2 C2.71338368,2 2.53844597,2.15488487 2.50555536,2.35889403 L2.5,2.42857143 L2.5,13.5714286 C2.5,13.7850486 2.65396839,13.9612954 2.85461359,13.9944086 L2.92307692,14 L13.0769231,14 C13.2866163,14 13.461554,13.8451151 13.4944446,13.641106 L13.5,13.5714286 L13.5,5.21428571 C13.5,4.93814334 13.7238576,4.71428571 14,4.71428571 C14.2510385,4.71428571 14.4588665,4.89929202 14.4945787,5.14039938 L14.5,5.21428571 L14.5,13.5714286 C14.5,14.3203289 13.9255887,14.9356043 13.1937277,14.9952596 L13.0769231,15 L2.92307692,15 C2.17579731,15 1.56402204,14.4221696 1.50471271,13.688504 L1.5,13.5714286 L1.5,2.42857143 C1.5,1.6796711 2.07441129,1.06439568 2.80627227,1.00474039 L2.92307692,1 L10.3076923,1 Z M10.5,9.5 C10.7761424,9.5 11,9.72385763 11,10 C11,10.2761424 10.7761424,10.5 10.5,10.5 L5.5,10.5 C5.22385763,10.5 5,10.2761424 5,10 C5,9.72385763 5.22385763,9.5 5.5,9.5 L10.5,9.5 Z M14.3616778,1.15476213 C14.5332804,1.33453633 14.5444788,1.60887625 14.3993853,1.80094464 L14.3452379,1.86167777 L8.84523787,7.11167777 C8.64548876,7.30234738 8.32899184,7.29498699 8.13832223,7.09523787 C7.96671958,6.91546367 7.95552123,6.64112375 8.10061469,6.44905536 L8.15476213,6.38832223 L13.6547621,1.13832223 C13.8545112,0.947652615 14.1710082,0.955013009 14.3616778,1.15476213 Z" id="形状结合" fill="#464F5C"></path>
                    </g>
                </g>
            </g>
        </g>
    </g>
</svg>