<?xml version="1.0" encoding="UTF-8"?>
<svg width="16px" height="16px" viewBox="0 0 16 16" version="1.1" xmlns="http://www.w3.org/2000/svg" xmlns:xlink="http://www.w3.org/1999/xlink">
    <title>C9147A48-7447-443E-8EAF-019B110647FE</title>
    <g id="组件" stroke="none" stroke-width="1" fill="none" fill-rule="evenodd">
        <g id="上传" transform="translate(-1247, -2819)">
            <g id="PDF" transform="translate(1247, 2819)">
                <rect id="矩形" x="0" y="0" width="16" height="16"></rect>
                <g id="编组" transform="translate(1, 0)" fill-rule="nonzero">
                    <path d="M13,15.4285714 C13,15.7441714 12.7505671,16 12.4428571,16 L0.557142857,16 C0.249432857,16 0,15.7441714 0,15.4285714 L0,0.571428571 C0,0.255828571 0.249432857,0 0.557142857,0 L9.39714286,0 L13,3.6952381 L13,15.4285714 Z" id="路径" fill="#FF6359"></path>
                    <path d="M13,3.6952381 L9.95428571,3.6952381 C9.64657571,3.6952381 9.39714286,3.43940952 9.39714286,3.12380952 L9.39714286,0" id="路径" fill-opacity="0.4" fill="#FFFFFF"></path>
                    <path d="M1.34902857,10.4571429 L2.25234286,10.4571429 L2.25234286,9.1527619 L2.75748571,9.1527619 C3.92228571,9.1527619 4.37988571,8.7687619 4.37988571,7.66552381 C4.37988571,6.64761905 3.9936,6.22704762 2.75748571,6.22704762 L1.34902857,6.22704762 L1.34902857,10.4571429 L1.34902857,10.4571429 Z M2.25234286,8.40914286 L2.25234286,6.95847619 L2.63862857,6.95847619 C3.2448,6.95847619 3.45874286,7.14133333 3.45874286,7.68380952 C3.45874286,8.24457143 3.25074286,8.40914286 2.63862857,8.40914286 L2.25234286,8.40914286 L2.25234286,8.40914286 Z M5.1168,6.22704762 L5.1168,10.4571429 L6.5312,10.4571429 C7.74354286,10.4571429 8.53988571,9.97561905 8.53988571,8.34209524 C8.53988571,6.58057143 7.74354286,6.22704762 6.5312,6.22704762 L5.1168,6.22704762 Z M6.02011429,9.6647619 L6.02011429,7.0072381 L6.48365714,7.0072381 C7.22651429,7.0072381 7.60685714,7.25104762 7.60685714,8.34209524 C7.60685714,9.37219048 7.24434286,9.6647619 6.48365714,9.6647619 L6.02011429,9.6647619 L6.02011429,9.6647619 Z M11.8738286,7.03161905 L11.8738286,6.22704762 L9.35405714,6.22704762 L9.35405714,10.4571429 L10.2573714,10.4571429 L10.2573714,8.81142857 L11.7549714,8.81142857 L11.7549714,8.01295238 L10.2573714,8.01295238 L10.2573714,7.03161905 L11.8738286,7.03161905 Z" id="形状" fill="#FFFFFF"></path>
                </g>
            </g>
        </g>
    </g>
</svg>