<?xml version="1.0" encoding="UTF-8"?>
<svg width="15px" height="14px" viewBox="0 0 15 14" version="1.1" xmlns="http://www.w3.org/2000/svg" xmlns:xlink="http://www.w3.org/1999/xlink">
    <title>CE33BB9F-1D45-4495-8285-C55E47945411</title>
    <g id="组件" stroke="none" stroke-width="1" fill="none" fill-rule="evenodd">
        <g id="卡片" transform="translate(-224, -442)" fill-rule="nonzero">
            <g id="编组-8" transform="translate(155, 352)">
                <g id="发布" transform="translate(69.5, 90)">
                    <rect id="矩形" x="0" y="0" width="14" height="14"></rect>
                    <g id="编组" transform="translate(0.5701, 0.4553)" fill="#78858F">
                        <path d="M11.8944704,0.104511446 L0.421720383,6.79693745 C-0.161722617,7.13727745 -0.134274617,7.98933745 0.469880383,8.29141745 L3.77987038,9.94637745 L3.77987038,12.5618774 C3.77987038,13.3190774 4.69544038,13.6983774 5.23091038,13.1628774 L6.88949038,11.5042774 C6.89018038,11.5035774 6.89086038,11.5029774 6.89155038,11.5022774 L8.91850038,12.5156774 C9.40170038,12.7572774 9.98477038,12.4927774 10.1210704,11.9699774 L12.9980704,0.941657446 C13.1665704,0.295869446 12.4709704,-0.231774554 11.8944704,0.104511446 Z M5.07987038,10.5963774 L5.66590038,10.8893774 L5.07987038,11.4754774 L5.07987038,10.5963774 Z M5.75335038,9.47970745 L11.0821704,3.13588745 L9.00334038,11.1046774 L5.75335038,9.47970745 Z M9.48677038,3.01402745 L4.55773038,8.88189745 L1.79532038,7.50068745 L9.48677038,3.01402745 Z" id="形状"></path>
                    </g>
                </g>
            </g>
        </g>
    </g>
</svg>