<?xml version="1.0" encoding="UTF-8"?>
<svg width="12px" height="12px" viewBox="0 0 12 12" version="1.1" xmlns="http://www.w3.org/2000/svg" xmlns:xlink="http://www.w3.org/1999/xlink">
    <title>D8235A1B-1A04-40DD-A8B8-7E98276D1DEE</title>
    <g id="组件" stroke="none" stroke-width="1" fill="none" fill-rule="evenodd">
        <g id="上传" transform="translate(-666, -1511)" fill-rule="nonzero">
            <g id="编组-3备份-3" transform="translate(650, 1501)">
                <g id="上传" transform="translate(16, 10)">
                    <rect id="矩形" x="0" y="0" width="12" height="12"></rect>
                    <path d="M0.9,7.78230286 C1.01834571,7.78230286 1.11428571,7.87824286 1.11428571,7.99658857 L1.11428571,10.7142857 C1.11428571,10.809 1.19103429,10.8857143 1.28571429,10.8857143 L10.7142857,10.8857143 C10.809,10.8857143 10.8857143,10.809 10.8857143,10.7142857 L10.8857143,7.99658857 C10.8857143,7.87824286 10.9816286,7.78230286 11.1,7.78230286 L11.7857143,7.78230286 C11.9040857,7.78230286 12,7.87824286 12,7.99658857 L12,11.1428571 C12,11.6162571 11.6162571,12 11.1428571,12 L0.857142857,12 C0.383755714,12 0,11.6162571 0,11.1428571 L0,7.99658857 C0,7.87824286 0.0959391429,7.78230286 0.214285714,7.78230286 Z M6.15151714,0.919885714 L8.41990286,3.18826286 C8.50358571,3.27194571 8.50358571,3.40762286 8.41990286,3.49130571 L7.93502571,3.97618286 C7.85134286,4.05986571 7.71566571,4.05986571 7.63198286,3.97618286 L6.55714286,2.90134286 L6.55714286,9.11562857 C6.55714286,9.23397429 6.46120286,9.32991429 6.34285714,9.32991429 L5.65713429,9.32991429 C5.53878857,9.32991429 5.44284857,9.23397429 5.44284857,9.11562857 L5.44284857,2.90134286 L4.36801714,3.97618286 C4.28432571,4.05986571 4.14864857,4.05986571 4.06496571,3.97618286 L3.58009714,3.49130571 C3.49641429,3.40762286 3.49641429,3.27194571 3.58009714,3.18826286 L5.84847429,0.919885714 C5.93215714,0.836228571 6.06783429,0.836228571 6.15151714,0.919885714 Z" id="形状结合" fill="#C2C6CC"></path>
                </g>
            </g>
        </g>
    </g>
</svg>