<?xml version="1.0" encoding="UTF-8"?>
<svg width="40px" height="40px" viewBox="0 0 40 40" version="1.1" xmlns="http://www.w3.org/2000/svg" xmlns:xlink="http://www.w3.org/1999/xlink">
    <title>DEAA4561-8CC8-46D0-BA40-528BDA964BB2</title>
    <g id="图表" stroke="none" stroke-width="1" fill="none" fill-rule="evenodd">
        <g id="仪表盘页面示例" transform="translate(-624, -285)">
            <g id="编组-16备份-7" transform="translate(608, 269)">
                <g id="评分应用" transform="translate(16, 16)">
                    <rect id="矩形" fill="#F5F7FA" x="0" y="0" width="40" height="40" rx="4"></rect>
                    <g id="编组" transform="translate(9, 9)" fill="#006EFF" fill-rule="nonzero">
                        <path d="M11.7025412,0.172480502 C12.0152611,0.334328399 12.2682656,0.59674198 12.4222684,0.923580453 L14.5940217,5.51503245 C14.8250258,6.00214749 15.2697481,6.34155667 15.7883289,6.42012361 L20.6425589,7.15708151 C21.5084316,7.28750263 22.1102996,8.1281689 21.9830116,9.03326005 C21.9345683,9.39045496 21.7726021,9.72262594 21.5210033,9.98077735 L18.0087973,13.5540018 C17.6347906,13.9342658 17.4635018,14.4810917 17.5530749,15.0184896 L18.3812326,20.0640585 C18.5289495,20.966007 17.949082,21.8208153 17.0863522,21.9763778 C16.7419244,22.0376597 16.3868965,21.9788626 16.0806198,21.8098159 L11.7386847,19.4276663 C11.2790305,19.1737667 10.7211695,19.1737667 10.2615153,19.4276663 L5.9195801,21.8098159 C5.54543015,22.0125453 5.10451127,22.053 4.69971285,21.92174 C4.29491443,21.7904799 3.96164889,21.4989879 3.77768447,21.1152842 C3.61502292,20.7904476 3.55945912,20.4224339 3.61896733,20.0640585 L4.44712507,15.0200609 C4.5370822,14.4867108 4.36787883,13.9423835 3.9914026,13.5540018 L0.479196629,9.97920601 C-0.148649565,9.32934317 -0.161052287,8.30275046 0.450910406,7.63791119 C0.690208026,7.37960614 1.00969651,7.20963109 1.35764098,7.15551017 L6.21344252,6.41855227 C6.72888036,6.33998533 7.17517409,6.00214749 7.4077497,5.51346112 L9.57636009,0.922009114 C9.96608138,0.103341594 10.9168127,-0.232924911 11.7025412,0.170909163 L11.7025412,0.172480502 Z M13.2551405,13.7362771 L8.54077006,13.7362771 C8.10682424,13.7362771 7.75504165,14.0880333 7.75504165,14.5219465 C7.75504165,14.9558597 8.10682424,15.3076159 8.54077006,15.3076159 L13.2551405,15.3076159 C13.6890863,15.3076159 14.0408689,14.9558597 14.0408689,14.5219465 C14.0408689,14.0880333 13.6890863,13.7362771 13.2551405,13.7362771 Z" id="形状"></path>
                    </g>
                </g>
            </g>
        </g>
    </g>
</svg>