<?xml version="1.0" encoding="UTF-8"?>
<svg width="16px" height="16px" viewBox="0 0 16 16" version="1.1" xmlns="http://www.w3.org/2000/svg" xmlns:xlink="http://www.w3.org/1999/xlink">
    <title>E146D98A-D495-4B1A-BF7C-79C84C08DFC8</title>
    <g id="组件" stroke="none" stroke-width="1" fill="none" fill-rule="evenodd">
        <g id="上传" transform="translate(-956, -2819)">
            <g id="svg" transform="translate(956, 2819)">
                <rect id="矩形" x="0" y="0" width="16" height="16"></rect>
                <g id="编组" transform="translate(1, 0)" fill-rule="nonzero">
                    <path d="M13,15.4285714 C13,15.7441714 12.7505671,16 12.4428571,16 L0.557142857,16 C0.249432857,16 0,15.7441714 0,15.4285714 L0,0.571428571 C0,0.255828571 0.249432857,0 0.557142857,0 L9.39714286,0 L13,3.6952381 L13,15.4285714 Z" id="路径" fill="#FFD034"></path>
                    <path d="M13,3.6952381 L9.95428571,3.6952381 C9.64657571,3.6952381 9.39714286,3.43940952 9.39714286,3.12380952 L9.39714286,0" id="路径" fill-opacity="0.4" fill="#FFFFFF"></path>
                    <path d="M2.7248,10.4937143 C3.55085714,10.4937143 4.03222857,10.2255238 4.03222857,9.45142857 C4.03222857,8.848 3.848,8.62857143 3.14674286,8.44571429 C2.6416,8.31771429 2.55245714,8.28114286 2.55245714,8.07390476 C2.55245714,7.84838095 2.65942857,7.76914286 3.0576,7.76914286 C3.34285714,7.76914286 3.69942857,7.84228571 3.87177143,7.89104762 L3.90742857,7.21447619 C3.73508571,7.14742857 3.38445714,7.1047619 3.02788571,7.1047619 C2.09485714,7.1047619 1.74422857,7.47047619 1.74422857,8.08609524 C1.74422857,8.6407619 1.90468571,8.85409524 2.59405714,9.01866667 C3.11108571,9.14666667 3.21211429,9.21371429 3.21211429,9.47580952 C3.21211429,9.73790476 3.05165714,9.80495238 2.67725714,9.80495238 C2.38605714,9.80495238 2.0176,9.75009524 1.70857143,9.65257143 L1.70857143,10.3900952 C1.99382857,10.4571429 2.3504,10.4937143 2.7248,10.4937143 L2.7248,10.4937143 Z M5.512,10.4571429 L6.56388571,10.4571429 L7.73462857,7.16571429 L6.81348571,7.16571429 L6.06468571,9.5367619 L6.02902857,9.5367619 L5.30994286,7.16571429 L4.35314286,7.16571429 L5.512,10.4571429 Z M10.3019429,7.16571429 L10.3019429,7.58628571 C10.1771429,7.27542857 9.9216,7.1047619 9.33325714,7.1047619 C8.29325714,7.1047619 8.03177143,7.87885714 8.03177143,8.78095238 C8.03177143,9.78057143 8.29325714,10.4571429 9.33325714,10.4571429 C9.90971429,10.4571429 10.1652571,10.280381 10.3019429,9.98780952 L10.3019429,10.1645714 C10.3019429,10.792381 10.0107429,10.9935238 9.31542857,10.9935238 C9.03611429,10.9935238 8.72114286,10.9630476 8.4656,10.896 L8.4656,11.5969524 C8.72708571,11.6457143 9.0896,11.6761905 9.3808,11.6761905 C10.712,11.6761905 11.1577143,11.1032381 11.1577143,10.2011429 L11.1577143,7.16571429 L10.3019429,7.16571429 L10.3019429,7.16571429 Z M9.5888,9.81104762 C8.99451429,9.81104762 8.91725714,9.34171429 8.91725714,8.78095238 C8.91725714,8.25066667 8.98857143,7.76304762 9.5888,7.76304762 C10.2306286,7.76304762 10.3435429,8.15314286 10.3435429,8.78095238 C10.3435429,9.43314286 10.2306286,9.81104762 9.5888,9.81104762 Z" id="形状" fill="#FFFFFF"></path>
                </g>
            </g>
        </g>
    </g>
</svg>