<?xml version="1.0" encoding="UTF-8"?>
<svg width="12px" height="12px" viewBox="0 0 12 12" version="1.1" xmlns="http://www.w3.org/2000/svg" xmlns:xlink="http://www.w3.org/1999/xlink">
    <title>E6263572-2AA9-4095-B89E-DF49C3E48731</title>
    <g id="表单" stroke="none" stroke-width="1" fill="none" fill-rule="evenodd">
        <g id="表单页规范" transform="translate(-1095, -3258)" fill-rule="nonzero">
            <g id="编组备份-13" transform="translate(736, 3248)">
                <g id="复制" transform="translate(359, 10)">
                    <rect id="矩形" x="0" y="0" width="12" height="12"></rect>
                    <path d="M11.5714286,3.42857143 C11.8080857,3.42857143 12,3.62045143 12,3.85714286 L12,11.5714286 C12,11.8080857 11.8080857,12 11.5714286,12 L3,12 C2.76330857,12 2.57142857,11.8080857 2.57142857,11.5714286 L2.57142857,3.85714286 C2.57142857,3.62045143 2.76330857,3.42857143 3,3.42857143 L11.5714286,3.42857143 Z M10.8857143,4.54285714 L3.68571429,4.54285714 L3.68571429,10.8857143 L10.8857143,10.8857143 L10.8857143,4.54285714 Z M9,0.857142857 C9.23665714,0.857142857 9.42857143,1.04902286 9.42857143,1.28571429 L9.42857143,1.97142857 L1.11428571,1.97142857 L1.11428571,9.42857143 L0.428571429,9.42857143 C0.191878286,9.42857143 0,9.23665714 0,9 L0,1.28571429 C0,1.04902286 0.191878286,0.857142857 0.428571429,0.857142857 L9,0.857142857 Z" id="形状结合" fill="#78858F"></path>
                </g>
            </g>
        </g>
    </g>
</svg>