<?xml version="1.0" encoding="UTF-8"?>
<svg width="40px" height="40px" viewBox="0 0 40 40" version="1.1" xmlns="http://www.w3.org/2000/svg" xmlns:xlink="http://www.w3.org/1999/xlink">
    <title>EA537E17-F0D4-482B-B77F-3A4E713B10A4</title>
    <g id="图表" stroke="none" stroke-width="1" fill="none" fill-rule="evenodd">
        <g id="仪表盘页面示例" transform="translate(-832, -285)">
            <g id="编组-16备份-2" transform="translate(816, 269)">
                <g id="kafuka" transform="translate(16, 16)">
                    <rect id="矩形" fill="#F5F7FA" x="0" y="0" width="40" height="40" rx="4"></rect>
                    <g id="编组" transform="translate(12, 9)" fill="#006EFF" fill-rule="nonzero">
                        <path d="M13.4698351,13.1225 C12.5648167,13.1027558 11.6886782,13.4415335 11.0323649,14.065 L8.22439929,12.555 C8.38439734,12.06 8.47839617,11.5455 8.50489585,11.025 C8.48538705,10.2230247 8.23847409,9.44308919 7.79290459,8.77599999 L10.4908715,7.226 C11.43436,8.6585 13.2773374,9.17100001 14.8138186,8.429 C16.3502998,7.68699999 17.1122904,5.91549999 16.6002967,4.274 C16.088803,2.63349999 14.4603229,1.62249999 12.7798435,1.90399999 C11.0993641,2.18449999 9.87987902,3.672 9.91937853,5.39199999 L9.91937853,5.9595 L6.79991675,7.77300001 C6.25784767,7.36888655 5.62993977,7.09513588 4.9649392,6.97299999 L4.9649392,5.372 C6.20992396,5.099 7.09591311,3.984 7.09091318,2.697 C7.00141427,1.182 5.75942948,8.52651284e-16 4.25744788,8.52651284e-16 C2.75546628,8.52651284e-16 1.51348149,1.182 1.42398258,2.697 C1.41798265,3.981 2.29897186,5.09500001 3.54045666,5.372 L3.54045666,6.9725 C1.55148102,7.292 0.0664992013,8.99199999 0,11.0255 C0.0664991779,13.0585 1.55148099,14.7585 3.53995665,15.078 L3.53995665,16.628 C2.2949719,16.901 1.40898274,18.016 1.41398269,19.303 C1.5034816,20.818 2.7454664,22 4.247448,22 C5.74942959,22 6.99141439,20.818 7.0809133,19.303 C7.08591323,18.016 6.19942408,16.901 4.95443933,16.628 L4.95443933,15.078 C5.93341665,14.8959242 6.82713528,14.4017855 7.50190815,13.6695 L10.1998751,15.2195 C10.0387869,15.6729736 9.94430502,16.1474098 9.91937853,16.628 C9.89887877,18.0795 10.7483684,19.399 12.0693522,19.968 C13.3912113,20.5377739 14.9268881,20.2437509 15.9448047,19.226 C16.9688892,18.2017493 17.2800935,16.6638295 16.7347951,15.322 C16.1898018,13.9795 14.8963176,13.1025 13.4598352,13.102 L13.4698351,13.1225 L13.4698351,13.1225 Z" id="路径"></path>
                    </g>
                </g>
            </g>
        </g>
    </g>
</svg>