<?xml version="1.0" encoding="UTF-8"?>
<svg width="40px" height="40px" viewBox="0 0 40 40" version="1.1" xmlns="http://www.w3.org/2000/svg" xmlns:xlink="http://www.w3.org/1999/xlink">
    <title>EB2B5F11-86BD-4FEC-B0B8-DBAF37F7ED3C</title>
    <g id="图表" stroke="none" stroke-width="1" fill="none" fill-rule="evenodd">
        <g id="仪表盘页面示例" transform="translate(-208, -285)">
            <g id="编组-16备份-7" transform="translate(192, 269)">
                <g id="物理应用" transform="translate(16, 16)">
                    <rect id="矩形" fill="#F5F7FA" x="0" y="0" width="40" height="40" rx="4"></rect>
                    <g id="编组" transform="translate(9, 13)" fill="#006EFF" fill-rule="nonzero">
                        <path d="M16.112618,0 C16.6708331,0 17.0970564,0.0722727246 17.392663,0.215454551 C17.6896444,0.36 17.9426286,0.636818188 18.1571152,1.04590909 C18.23961,1.21227272 18.3702269,1.46863636 18.5517155,1.81772728 C18.7318293,2.16681819 18.9366915,2.56090909 19.167677,3 C19.3972877,3.43909091 19.6351478,3.90545455 19.8826323,4.39772728 C20.310727,5.25497635 20.7415355,6.11088966 21.1750516,6.96545455 C21.3469158,7.30636364 21.4665334,7.55181819 21.5325292,7.70454545 C21.6150241,7.87090909 21.6837698,7.99636364 21.7415162,8.07954545 C21.8711767,8.26490289 21.9515712,8.47971851 21.9752516,8.70409091 C21.9917505,8.84045455 22,9.03136364 22,9.27272728 C22,9.45409091 21.9958753,9.735 21.9876258,10.1140909 C21.9793763,10.4918182 21.9752516,10.8940909 21.9752516,11.3181818 L21.9752516,13.4768182 C21.9752516,13.9009091 21.84051,14.2609091 21.568277,14.5568182 C21.2974189,14.8527273 20.9083182,15 20.3996,15 L1.47803262,15 C1.00231234,15 0.639335031,14.8595454 0.394600339,14.58 C0.147115801,14.2990909 0.0164989702,13.9390909 0,13.5 L0,12.705 C0,12.3559091 0.00412474623,11.985 0.0123742239,11.5909091 C0.0206237016,11.1968182 0.0247484479,10.8027273 0.0247484479,10.4086364 L0.0247484479,9.45409091 C0.0247484479,9.19636364 0.0288731941,8.99181819 0.0371226866,8.84045455 C0.0453721643,8.69045455 0.0646209652,8.55681819 0.0989938062,8.44363636 C0.175532065,8.16693385 0.274859914,7.89693495 0.395975254,7.63636364 C0.445472165,7.515 0.551340548,7.28454545 0.716330235,6.94363636 C0.879945006,6.60272728 1.07655772,6.21272728 1.30754329,5.77227272 C1.53715394,5.33318181 1.78738829,4.86409091 2.05824636,4.36363636 C2.32910443,3.86318181 2.58346353,3.39 2.82269858,2.94272728 C3.06055871,2.49681819 3.27779513,2.09727272 3.47440785,1.74954545 L3.86900819,0.999545449 C4.08211987,0.605454536 4.34472846,0.340909087 4.65683395,0.204545449 C4.96893944,0.0681818115 5.33879133,0 5.76638961,0 L16.112618,0 L16.112618,0 Z M20.3748516,9.68181819 C20.3748516,9.22772728 20.143866,9 19.6846447,9 L2.24248485,9.02318181 C1.96337729,9.02318181 1.75026562,9.0940909 1.6031498,9.23863636 C1.45383785,9.38511263 1.37307935,9.5868361 1.38041373,9.795 L1.38041373,13.0227273 C1.38041373,13.2040909 1.43541029,13.3554546 1.54127867,13.4768182 C1.64714705,13.5995455 1.81626149,13.6595455 2.04587214,13.6595454 L19.5856509,13.6813636 C19.9142554,13.6813636 20.127367,13.6104546 20.2263609,13.4659091 C20.3291044,13.3067274 20.3804283,13.120242 20.3734767,12.9313636 L20.3734767,9.68181819 L20.3748516,9.68181819 Z M5.86263358,1.18227272 C5.64917059,1.17658957 5.44192797,1.25391279 5.28516968,1.39772728 C5.13223067,1.53357818 5.04641929,1.72867844 5.05005937,1.93227272 C5.05005937,2.14363636 5.12842948,2.32227272 5.28379477,2.46545455 C5.44067993,2.61009929 5.64850786,2.6879463 5.86263358,2.68227272 C6.07332067,2.68937034 6.27784118,2.61108872 6.42909818,2.46545455 C6.57519924,2.32640224 6.65596774,2.13305998 6.65183426,1.93227272 C6.65635501,1.73101467 6.57555536,1.53710318 6.42909818,1.39772728 C6.27761434,1.25259094 6.07312156,1.17481221 5.86263358,1.18227272 L5.86263358,1.18227272 Z M3.96525218,5.27318181 C3.75178918,5.26749865 3.54454655,5.34482187 3.38778826,5.48863636 C3.23535849,5.62473722 3.1500641,5.81980279 3.15405287,6.02318181 C3.15405287,6.23454545 3.23104805,6.41318181 3.38778826,6.55636364 C3.54433032,6.70067405 3.75159803,6.77849607 3.96525218,6.77318181 C4.17984928,6.7792157 4.38823796,6.70134361 4.5454659,6.55636364 C4.6975295,6.42057673 4.78278909,6.22608814 4.7792013,6.02318181 C4.78319007,5.81980279 4.69789567,5.62473722 4.5454659,5.48863636 C4.38836411,5.34448751 4.18056134,5.26713946 3.96662709,5.27318181 L3.96525218,5.27318181 Z M15.2986688,1.93227272 C15.2986688,2.14363636 15.3715393,2.32227272 15.5186551,2.46545455 C15.6702469,2.61143608 15.8753362,2.68974533 16.0864946,2.68227272 C16.3001487,2.68758698 16.5074164,2.60976496 16.6639585,2.46545455 C16.8165314,2.32991712 16.9023077,2.13539397 16.8990688,1.93227272 C16.9030576,1.72889371 16.8177632,1.53382813 16.6653334,1.39772728 C16.5082316,1.25357842 16.3004288,1.17623037 16.0864946,1.18227272 C15.8760066,1.17481221 15.6715138,1.25259095 15.52003,1.39772728 C15.3740786,1.53733976 15.2937904,1.7312204 15.2986688,1.93227272 L15.2986688,1.93227272 Z M17.1699269,6.02318181 C17.1699269,6.23454545 17.248297,6.41318181 17.4036623,6.55636364 C17.5608902,6.70134361 17.7692789,6.7792157 17.983876,6.77318181 C18.1945631,6.78027942 18.3990836,6.70199781 18.5503406,6.55636364 C18.6954304,6.41683973 18.7751765,6.22355875 18.7703269,6.02318181 C18.7755634,5.82233478 18.6957866,5.62848478 18.5503406,5.48863636 C18.3988568,5.34350003 18.194364,5.2657213 17.983876,5.27318181 C17.7694707,5.26677929 17.5611073,5.34415224 17.4036623,5.48863636 C17.2512325,5.62473722 17.1659381,5.8198028 17.1699269,6.02318181 L17.1699269,6.02318181 Z M4.41209924,13.0227273 L3.67239547,13.0227273 L3.67239547,9.795 L4.41072433,9.795 L4.41072433,13.0227273 L4.41209924,13.0227273 Z M6.65320917,13.0227273 L5.91350541,13.0227273 L5.91350541,9.795 L6.65320917,9.795 L6.65320917,13.0227273 Z M8.91906756,13.0227273 L8.17936379,13.0227273 L8.17936379,9.795 L8.91906756,9.795 L8.91906756,13.0227273 Z M11.1601775,13.0227273 L10.4232236,13.0227273 L10.4232236,9.795 L11.1615524,9.795 L11.1615524,13.0227273 L11.1601775,13.0227273 Z M13.4769077,13.0227273 L12.7372039,13.0227273 L12.7372039,9.795 L13.4769077,9.795 L13.4769077,13.0227273 Z M15.7675145,13.0227273 L15.0278108,13.0227273 L15.0278108,9.795 L15.7675145,9.795 L15.7675145,13.0227273 Z M17.935754,13.0227273 L17.1960503,13.0227273 L17.1960503,9.795 L17.935754,9.795 L17.935754,13.0227273 Z" id="形状"></path>
                    </g>
                </g>
            </g>
        </g>
    </g>
</svg>