<?xml version="1.0" encoding="UTF-8"?>
<svg width="16px" height="16px" viewBox="0 0 16 16" version="1.1" xmlns="http://www.w3.org/2000/svg" xmlns:xlink="http://www.w3.org/1999/xlink">
    <title>EDE85FA8-85AA-4BC7-8078-1CC26AC3CBAB</title>
    <g id="导航" stroke="none" stroke-width="1" fill="none" fill-rule="evenodd">
        <g id="顶部导航备份" transform="translate(-43, -654)">
            <g id="设置" transform="translate(43, 654)">
                <rect id="矩形" x="0" y="0" width="16" height="16"></rect>
                <path d="M8.50301572,1 C9.00604341,1 9.4799698,1.19935885 9.83559453,1.56045947 C10.1033683,1.83235643 10.2818532,2.17326479 10.2931738,2.47278135 C10.7238076,2.65234769 11.1282436,2.88696334 11.4062763,3.15888436 C12.2681411,2.83646593 13.2503017,3.18937053 13.7153595,4.003105 L14.2425088,4.92937266 C14.7024875,5.74287306 14.5222351,6.77371972 13.8616914,7.29174358 C13.9143394,7.74545618 13.9143394,8.20327702 13.8281551,8.57366967 C14.5245286,9.174414 14.7068352,10.2041356 14.2462619,11.0130697 L13.7097619,11.9515674 C13.2422576,12.761933 12.2645625,13.1148261 11.4979128,12.7839539 C11.1295432,13.0658604 10.7305558,13.2977083 10.3658846,13.4002122 C10.2229703,14.3154416 9.44179385,15 8.5202731,15 L7.44205554,15 C6.50601767,14.9971917 5.70816773,14.3102004 5.59903004,13.4580275 C5.20676605,13.2733467 4.83122852,13.0498498 4.57243759,12.8051498 C3.7164216,13.1131103 2.74945864,12.7579542 2.28836367,11.9523204 L1.76259468,11.0261456 C1.30265396,10.2127124 1.48282176,9.18192878 2.14340422,8.66235933 C2.09093971,8.20749536 2.09060178,7.75113051 2.17587293,7.38206534 C1.47810448,6.78421287 1.29289281,5.7545017 1.75064592,4.94285436 L2.28038805,4.00591258 C2.74140312,3.1933908 3.71150762,2.83815047 4.47947744,3.16640128 C4.83561765,2.90439442 5.21677248,2.67848768 5.56470496,2.55862819 C5.76428171,1.65748321 6.55861301,1.00280324 7.48084789,1 L8.50301572,1 Z M8.50301572,2.43188751 L7.48254401,2.43188751 C7.20759174,2.43291772 6.97676432,2.63977219 6.93252373,2.90875704 L6.9248829,3.00052267 C6.9248829,3.28615619 6.749227,3.55638601 6.4873908,3.67028579 C5.95802707,3.88291451 5.47951405,4.16835728 5.05081639,4.52668228 C4.82445046,4.71524309 4.51237497,4.74019025 4.26604369,4.60397394 L4.15458762,4.52790643 C3.92377136,4.40118944 3.63295617,4.48501682 3.50180518,4.71778523 L2.97348985,5.65320358 C2.83804238,5.89332282 2.92007809,6.20201871 3.15482736,6.34031728 L3.24813529,6.39445825 C3.50742373,6.54647166 3.64384686,6.84675544 3.58863383,7.14419824 C3.48854033,7.69460972 3.48854033,8.25147303 3.58864126,8.8019254 C3.64236615,9.09806566 3.50217149,9.40988735 3.24623843,9.56330684 L3.1713499,9.60811469 C2.92968154,9.75059895 2.84584487,10.0685962 2.98526638,10.3154923 L3.50938274,11.2370534 C3.63974256,11.463648 3.92289476,11.5499016 4.13772908,11.446535 L4.16156636,11.4274471 C4.28675562,11.3233032 4.44211138,11.2685409 4.60284807,11.2685409 C4.76520115,11.2685409 4.92360849,11.3254307 5.05080562,11.4315229 C5.47802107,11.7872866 5.9563131,12.0732808 6.47153867,12.28122 C6.74017125,12.389387 6.9248829,12.6657613 6.9248829,12.9590394 L6.92488216,13.0435764 C6.92600395,13.3328989 7.1593242,13.5694597 7.44367815,13.5694597 L8.51894561,13.5694597 C8.76939016,13.5694597 8.9740213,13.3620217 8.9740213,13.1073118 L8.9740213,12.9590394 C8.9740213,12.6769777 9.14459297,12.4139804 9.39146692,12.2970346 L9.48743721,12.2602742 C9.99597935,12.090798 10.4706955,11.8145434 10.881401,11.4471916 C11.0976669,11.2542608 11.4096316,11.213718 11.6680458,11.3457035 L11.8042316,11.4176721 C12.0426815,11.5561856 12.348927,11.4732162 12.4876077,11.2332679 L13.0211905,10.2992716 C13.1566672,10.0613557 13.0750866,9.75177086 12.8404508,9.61354164 L12.7490032,9.55971208 C12.4900191,9.40787706 12.354554,9.1077659 12.4098728,8.80975027 C12.5110812,8.26034314 12.5114081,7.70357553 12.4111361,7.15350355 C12.3575062,6.85633139 12.4987347,6.5441921 12.7553567,6.39192952 L12.8286141,6.3486512 C13.0707131,6.20656784 13.1544785,5.88884059 13.0157711,5.64122679 L12.4930214,4.71838759 C12.3564472,4.4804944 12.0543407,4.39841392 11.8201232,4.53574772 L11.760838,4.56735395 L11.641039,4.62276868 C11.3874564,4.73895196 11.0909361,4.69449334 10.8813052,4.50824123 C10.4679518,4.1385208 9.9938964,3.86360262 9.47037101,3.68991588 C9.19120266,3.59751505 8.98775412,3.32464622 8.97534879,3.0234375 L8.97534879,2.91290713 C8.97534879,2.78405767 8.92597648,2.66327049 8.83643773,2.57235303 C8.74716645,2.48170715 8.62895505,2.43188751 8.50301572,2.43188751 Z M7.99856926,5.19071853 C8.73805105,5.19071853 9.43362131,5.48320008 9.95639618,6.01402461 C10.4789034,6.54457739 10.766641,7.25010116 10.766641,8 C10.766641,8.75106388 10.4790309,9.45664114 9.95630503,9.98741575 C9.43324489,10.5171323 8.73759328,10.8092815 7.99856926,10.8092815 C7.25773847,10.8092815 6.56212248,10.5167807 6.04074234,9.98597539 C5.5182351,9.45542261 5.23049756,8.74989884 5.23049756,8 C5.23049756,6.45100508 6.47167255,5.19071853 7.99856926,5.19071853 Z M7.99856926,6.6212588 C7.25078428,6.6212588 6.64204024,7.23937626 6.6407999,8 C6.6407999,8.36897151 6.78190251,8.71480844 7.03857165,8.97542976 C7.29497318,9.23577936 7.63482053,9.3787412 7.99724177,9.3787412 C8.35966301,9.3787412 8.69951036,9.23577936 8.95591189,8.97542976 C9.21258103,8.71480844 9.35368364,8.36897151 9.35368364,8 C9.35368364,7.63102849 9.21258103,7.28519156 8.9557447,7.02440006 C8.70082741,6.76430105 8.36111277,6.6212588 7.99856926,6.6212588 Z" id="形状" fill="#464F5C" fill-rule="nonzero"></path>
            </g>
        </g>
    </g>
</svg>