<?xml version="1.0" encoding="UTF-8"?>
<svg width="14px" height="14px" viewBox="0 0 14 14" version="1.1" xmlns="http://www.w3.org/2000/svg" xmlns:xlink="http://www.w3.org/1999/xlink">
    <title>F29F7C17-FBB6-4847-BAE3-DC8E041A83B4</title>
    <g id="组件" stroke="none" stroke-width="1" fill="none" fill-rule="evenodd">
        <g id="卡片" transform="translate(-278, -639)" fill-rule="nonzero">
            <g id="编组-8" transform="translate(155, 549)">
                <g id="资料编辑" transform="translate(123, 90)">
                    <rect id="矩形" x="0" y="0" width="14" height="14"></rect>
                    <path d="M6.79998,0.850159 C6.99328,0.850159 7.14998,1.00686 7.14998,1.20016 L7.14998,1.80016 C7.14998,1.99346 6.99328,2.15016 6.79998,2.15016 L2.99998,2.15016 C2.53053,2.15016 2.14998,2.53072 2.14998,3.00016 L2.14998,11.0002 C2.14998,11.4696 2.53053,11.8502 2.99998,11.8502 L11,11.8502 C11.4694,11.8502 11.85,11.4696 11.85,11.0002 L11.85,6.20016 C11.85,6.00686 12.0067,5.850159 12.2,5.850159 L12.8,5.850159 C12.9933,5.850159 13.15,6.00686 13.15,6.20016 L13.15,11.0002 C13.15,12.1876 12.1874,13.1502 11,13.1502 L2.99998,13.1502 C1.81256,13.1502 0.849976,12.1876 0.849976,11.0002 L0.849976,3.00016 C0.849976,1.81275 1.81256,0.850159 2.99998,0.850159 Z M11.9144325,1.44937976 L12.5506308,2.08567819 C12.7070549,2.24190219 12.7070549,2.49529781 12.5507219,2.65145085 L6.859578,8.30794628 L5.99825954,8.56022583 C5.65688085,8.66021838 5.33992491,8.34325592 5.43991312,8.00187405 L5.74269864,7.05534864 L11.3486696,1.4493777 C11.5048614,1.29316584 11.7580386,1.29316584 11.9144325,1.44937976 Z" id="形状结合" fill="#78858F"></path>
                </g>
            </g>
        </g>
    </g>
</svg>