<?xml version="1.0" encoding="UTF-8"?>
<svg width="40px" height="40px" viewBox="0 0 40 40" version="1.1" xmlns="http://www.w3.org/2000/svg" xmlns:xlink="http://www.w3.org/1999/xlink">
    <title>F2CEB887-5F52-4068-9B7B-489639C4D824</title>
    <g id="图表" stroke="none" stroke-width="1" fill="none" fill-rule="evenodd">
        <g id="仪表盘页面示例" transform="translate(-624, -151)">
            <g id="编组-16备份-7" transform="translate(608, 135)">
                <g id="rabbitmq" transform="translate(16, 16)">
                    <rect id="矩形" fill="#F5F7FA" x="0" y="0" width="40" height="40" rx="4"></rect>
                    <g id="编组" transform="translate(11, 10)" fill="#006EFF" fill-rule="nonzero">
                        <path d="M18.0382396,8.11583334 L12.1036169,8.11583334 C11.6290145,8.05916668 11.2674127,7.64333334 11.2674127,7.15333334 L11.2674127,0.95333334 C11.2676348,0.700570278 11.1669339,0.458084034 10.9874866,0.279275357 C10.8080394,0.100466679 10.5645623,0 10.3106745,0 L8.23397506,0 C7.70245386,0 7.2755628,0.42916666 7.2755628,0.95416666 L7.2755628,7.21916666 C7.24961452,7.69166666 6.8578792,8.0725 6.38746201,8.11583334 L4.83307636,8.11583334 C4.37353457,8.05499843 4.02144113,7.67897769 3.9926869,7.21833334 L3.9926869,0.95416666 C3.9926869,0.425 3.56161065,0 3.03511169,0 L0.95757523,0 C0.426891052,0 -3.38348715e-16,0.42916666 -3.38348715e-16,0.95416666 L-3.38348715e-16,19.0458333 C-3.38348715e-16,19.575 0.431076272,20 0.95757523,20 L18.0424248,20 C18.573946,20 19,19.5708333 19,19.0458333 L19,9.07 C18.9986151,8.54229873 18.5682905,8.11537186 18.0382396,8.11583334 Z M15.3044628,14.9575 C15.3044628,15.4866667 14.8733865,15.9116667 14.3468875,15.9116667 L12.2701881,15.9116667 C12.0160783,15.9116667 11.7723883,15.8111122 11.5927841,15.6321472 C11.4131798,15.4531823 11.3123908,15.2104841 11.3126125,14.9575 L11.3126125,13.0066667 C11.3126125,12.4775 11.7436891,12.0525 12.2701881,12.0525 L14.3468875,12.0525 C14.8784087,12.0525 15.3044628,12.4816667 15.3044628,13.0066667 L15.3044628,14.9575 L15.3044628,14.9575 Z" id="形状"></path>
                    </g>
                </g>
            </g>
        </g>
    </g>
</svg>