<?xml version="1.0" encoding="UTF-8"?>
<svg width="24px" height="24px" viewBox="0 0 24 24" version="1.1" xmlns="http://www.w3.org/2000/svg" xmlns:xlink="http://www.w3.org/1999/xlink">
    <title>F33D5DE0-31C0-4851-88A0-87CFC9DF6222</title>
    <g id="表格" stroke="none" stroke-width="1" fill="none" fill-rule="evenodd">
        <g id="表格-批量操作" transform="translate(-1359, -111)">
            <g id="顶部导航" transform="translate(0, 98)">
                <g id="通知" transform="translate(1359, 13)">
                    <rect id="矩形备份-13" x="0" y="0" width="24" height="24" rx="2"></rect>
                    <g id="编组-6" transform="translate(4, 4)">
                        <rect id="矩形" x="0" y="0" width="16" height="16"></rect>
                        <g id="编组" transform="translate(2.35, 0.3917)" fill="#464F5C" fill-rule="nonzero">
                            <path d="M7.74948551,13.4203985 C8.10764837,13.4203985 8.3974991,13.7224281 8.3974991,14.0893375 C8.3974991,14.4562468 8.10764837,14.7582764 7.74948551,14.7582764 L3.37163474,14.7582764 C3.01347188,14.7582764 2.72362114,14.4562468 2.72362114,14.0893375 C2.72362114,13.7224281 3.01347188,13.4203985 3.37163474,13.4203985 L7.74948551,13.4203985 Z M5.6499877,0 C6.00897279,0 6.2999877,0.291014913 6.29998764,0.649866268 L6.3009877,1.766 L6.4616505,1.7974768 C6.65201864,1.84015745 6.8396687,1.89549567 7.02405984,1.96333496 L7.29813476,2.07445013 C7.85102611,2.31896726 8.34814811,2.66908795 8.77592366,3.11483762 C9.20339389,3.56026914 9.53890653,4.07752359 9.77301154,4.65229025 C10.0169301,5.24924933 10.1405467,5.88151603 10.1405467,6.53180007 L10.1218806,9.43399129 L11.1722858,11.3376816 C11.3433089,11.6467039 11.3423157,12.0161848 11.1708688,12.3259721 C11.0001821,12.6357903 10.6872875,12.8236071 10.3407125,12.8236071 L0.959381385,12.8236071 C0.639355528,12.8236071 0.341538944,12.6584821 0.162648765,12.383675 C-0.0144656548,12.1096944 -0.0491084017,11.7657287 0.0694345283,11.4597699 L0.82494431,9.54375656 L0.82494431,6.53180007 C0.82494431,5.88151603 0.948560891,5.24924933 1.19241645,4.65244471 C1.42658448,4.07752359 1.76209711,3.56026914 2.18956734,3.11483762 C2.61734289,2.66908795 3.11446489,2.31896726 3.66719476,2.07452166 C4.04363219,1.90751136 4.43496458,1.79434776 4.83647398,1.73619706 L4.999,1.718 L4.9999877,0.65 C4.9999877,0.323649921 5.24049589,0.0534735393 5.55393546,0.00704766895 L5.6499877,0 Z M5.48819252,3.02814549 L5.47729848,3.02814549 C4.58614088,3.02814549 3.74584797,3.39243735 3.10946271,4.05556202 C2.47191642,4.7198965 2.1209715,5.598859 2.1209715,6.53180007 L2.11077578,9.80082484 L1.4559877,11.485 L9.7639877,11.485 L8.8445195,9.78376583 L8.8445195,6.53180007 C8.8445195,5.598859 8.49357458,4.7198965 7.85602829,4.05556202 C7.21964304,3.39243735 6.37935012,3.02814549 5.48819252,3.02814549 Z" id="形状"></path>
                        </g>
                    </g>
                </g>
            </g>
        </g>
    </g>
</svg>