<?xml version="1.0" encoding="UTF-8"?>
<svg width="24px" height="24px" viewBox="0 0 24 24" version="1.1" xmlns="http://www.w3.org/2000/svg" xmlns:xlink="http://www.w3.org/1999/xlink">
    <title>F433ADC8-1AD9-423B-94C7-01776507A9CA</title>
    <g id="表单" stroke="none" stroke-width="1" fill="none" fill-rule="evenodd">
        <g id="表单页-上下布局三列" transform="translate(-192, -92)">
            <g id="编组-16" transform="translate(192, 92)">
                <rect id="矩形" fill="#ECEEF1" x="0" y="0" width="24" height="24" rx="2"></rect>
                <g id="编组-17" transform="translate(6, 6)" fill="#464F5C">
                    <path d="M6.70710678,0.292893219 C7.09763107,0.683417511 7.09763107,1.31658249 6.70710678,1.70710678 L3.415,5 L12,5 C12.5522847,5 13,5.44771525 13,6 C13,6.55228475 12.5522847,7 12,7 L3.415,7 L6.70710678,10.2928932 C7.06759074,10.6533772 7.09532028,11.2206082 6.79029539,11.6128994 L6.70710678,11.7071068 C6.31658249,12.0976311 5.68341751,12.0976311 5.29289322,11.7071068 L0.292893219,6.70710678 C-0.0976310729,6.31658249 -0.0976310729,5.68341751 0.292893219,5.29289322 L5.29289322,0.292893219 C5.68341751,-0.0976310729 6.31658249,-0.0976310729 6.70710678,0.292893219 Z" id="路径"></path>
                </g>
            </g>
        </g>
    </g>
</svg>