<?xml version="1.0" encoding="UTF-8"?>
<svg width="16px" height="16px" viewBox="0 0 16 16" version="1.1" xmlns="http://www.w3.org/2000/svg" xmlns:xlink="http://www.w3.org/1999/xlink">
    <title>F6B877F9-B5B4-44D6-BF7A-F832E7855EEB</title>
    <g id="导航" stroke="none" stroke-width="1" fill="none" fill-rule="evenodd">
        <g id="顶部导航备份" transform="translate(-611, -16)">
            <g id="编组-2" transform="translate(603, 8)">
                <g id="搜索图标" transform="translate(8, 8)">
                    <rect id="矩形备份-6" fill="#FFFFFF" opacity="0" x="0" y="0" width="16" height="16"></rect>
                    <path d="M7.50653233,2.10991468 C10.48887,2.10991468 12.9065323,4.52757704 12.9065323,7.50991468 C12.9065323,8.81923365 12.4405462,10.0197157 11.6653713,10.9545637 L13.5399143,12.8294251 C13.7351764,13.0246873 13.7351764,13.3412698 13.5399143,13.5365319 C13.3446521,13.7317941 13.0280696,13.7317941 12.8328075,13.5365319 L10.9583047,11.6628367 C10.0224353,12.4415567 8.81917927,12.9099147 7.50653233,12.9099147 C4.52419468,12.9099147 2.10653233,10.4922523 2.10653233,7.50991468 C2.10653233,4.52757704 4.52419468,2.10991468 7.50653233,2.10991468 Z M7.50653233,3.10991468 C5.07647943,3.10991468 3.10653233,5.07986178 3.10653233,7.50991468 C3.10653233,9.93996758 5.07647943,11.9099147 7.50653233,11.9099147 C9.93658523,11.9099147 11.9065323,9.93996758 11.9065323,7.50991468 C11.9065323,5.07986178 9.93658523,3.10991468 7.50653233,3.10991468 Z" id="形状结合" fill="#1D2129"></path>
                </g>
            </g>
        </g>
    </g>
</svg>