<?xml version="1.0" encoding="UTF-8"?>
<svg width="40px" height="40px" viewBox="0 0 40 40" version="1.1" xmlns="http://www.w3.org/2000/svg" xmlns:xlink="http://www.w3.org/1999/xlink">
    <title>FB67168C-012E-4984-A614-0CA4DEA1AA9D</title>
    <g id="图表" stroke="none" stroke-width="1" fill="none" fill-rule="evenodd">
        <g id="仪表盘页面示例" transform="translate(-1248, -285)">
            <g id="编组-16备份-6" transform="translate(1232, 269)">
                <g id="zookeeper" transform="translate(16, 16)">
                    <rect id="矩形" fill="#F5F7FA" x="0" y="0" width="40" height="40" rx="4"></rect>
                    <g id="编组" transform="translate(6, 13)" fill="#006EFF" fill-rule="nonzero">
                        <path d="M5.92728098,10.432004 C5.92728098,10.432004 15.6001795,11.4952457 19.4010841,13.4691048 C23.2011171,15.4420704 26.5706574,15.6970738 23.1057394,13.1117368 C19.6408359,10.5264145 11.5254015,7.6340275 5.92728098,10.432004 L5.92728098,10.432004 Z M20.8806743,1.28982233 C16.3640297,-0.544625814 10.8892931,-0.074316847 8.2844891,0.583934064 C5.68055671,1.24039784 0.280178724,3.42603228 0.015064532,6.19929657 C-0.132810241,7.75402909 0.822667061,8.86051348 2.23488567,9.6396449 C2.20687952,9.55140154 2.18238867,9.4666885 2.15438252,9.38464152 L1.99076156,8.87551368 L2.44750286,8.58167677 C3.28223998,8.04519994 4.68219863,7.28461369 6.6124002,6.68989389 C8.49534865,6.11106786 10.4710602,5.81723096 12.4870088,5.81723096 C12.5333758,5.81723096 12.5788858,5.81723096 12.6252528,5.81988236 L13.0417426,5.46516575 L10.8219214,5.27105673 L10.9208,4.66839737 L14.7619561,5.10781238 L13.8554751,5.86576187 C14.3367218,5.89576227 14.8205831,5.94782351 15.3009437,6.01136927 C15.5231916,5.81370064 15.8259137,5.63812214 16.2354019,5.49959003 C17.076269,5.21369269 18.2636104,5.60547034 18.7938533,6.57165014 C18.8428496,6.66254489 18.8857303,6.75342501 18.9198519,6.84783544 C19.2470939,6.95989747 19.5673343,7.0843083 19.8823308,7.21755225 C20.075701,7.01107979 20.4396937,6.7507736 20.8990497,6.75695533 C21.4135319,6.76313705 21.9840264,7.12402074 22.2395099,7.39666107 C22.4740177,7.65078553 22.8835059,8.2569752 22.9456192,8.95404499 C23.0252507,9.01580362 23.1057394,9.0722741 23.1827417,9.13316846 C24.603705,10.244941 25.2511873,11.2243632 25.2756927,11.2676059 L25.4515591,11.5367159 L25.3623113,11.8429016 C25.3366321,11.9298415 25.3026415,12.0140611 25.2608181,12.0943747 C26.2749223,11.5252461 27.5322501,10.5458239 27.9120036,9.06345562 C28.5769897,6.45695135 25.3990621,3.11896766 20.8806889,1.28806449 L20.8806743,1.28982233 Z M22.8528706,9.78346516 C22.6927504,10.2466988 22.3322584,10.5802335 21.6944068,10.5987641 C20.7817958,10.6225974 20.0354494,9.79846536 19.6907037,9.12786565 C19.4719565,8.70698117 19.4623403,8.23403545 19.5577035,7.84843952 C19.3923801,7.78049604 19.2261183,7.71489787 19.0589675,7.65166445 C19.0370914,8.30638504 18.6827294,8.89757451 17.9862508,9.08286506 C16.9100188,9.36786883 15.7883058,8.89492311 15.2055659,8.19432301 C14.9220763,7.85550016 14.6849538,7.24931048 14.8695793,6.66695413 C14.2697557,6.5965507 13.6672163,6.55209528 13.0636187,6.53371018 L11.6881509,7.67902809 L14.1398507,7.94109211 L14.0077222,8.55873702 L9.89530731,8.15285273 L11.7878865,6.53813407 C7.86712781,6.67665153 4.74169716,7.95342626 2.83950174,9.17463873 C2.83950174,9.17463873 3.4624787,11.1052405 3.41261091,11.5023063 C3.41261091,11.5023063 3.58584809,11.3840772 4.5072038,11.0902403 L4.34358283,10.4328829 L5.60444042,9.80199568 C7.22576093,8.99286386 9.13058556,8.58079786 11.2637736,8.58079786 C16.0446754,8.58079786 20.9760521,10.6358251 23.5379898,12.5487899 C23.6368538,12.6211541 23.7296024,12.6935037 23.8214794,12.7667322 C24.1916021,12.3961512 24.5827149,11.9514333 24.6728343,11.6514294 C24.6693335,11.6514294 24.1145997,10.7928877 22.8537421,9.78434408 L22.8528706,9.78346516 Z M18.1586164,7.86697004 C17.9424985,8.34344608 17.3326385,8.68579925 16.5434114,8.35491596 C15.7541697,8.02491158 15.6369303,7.24931048 15.7786751,6.86724487 C15.9081745,6.51870998 16.2511626,6.2513578 16.5372814,6.15782629 C16.8234002,6.06341586 17.5172641,6.10929538 17.8654961,6.49401239 C18.2137426,6.87871475 18.3773636,7.39138756 18.158631,7.86697004 L18.1586164,7.86697004 Z M21.9647794,9.71640373 C21.5360298,10.1134695 20.8159174,9.77111636 20.5192963,9.30697447 C20.2667354,8.90901267 20.2099418,8.41594569 20.3653206,7.97019894 C20.3653206,7.97019894 20.6706863,7.37284239 21.2595417,7.48225302 C21.8483971,7.59166365 22.1467758,8.16167121 22.2272644,8.48550851 C22.3077676,8.81286148 22.3935146,9.32198932 21.9647794,9.71640373 L21.9647794,9.71640373 Z" id="形状"></path>
                    </g>
                </g>
            </g>
        </g>
    </g>
</svg>